<svg width="800" height="600" viewBox="0 0 800 600" fill="none" xmlns="http://www.w3.org/2000/svg">
<rect width="800" height="600" fill="white"/>
<path d="M80 50V550" stroke="#0CD3FF" stroke-width="2"/>
<path d="M50 181L750 181" stroke="#0CD3FF" stroke-width="2"/>
<path d="M95.2614 121H79.7926V77.3636H95.3892C99.7784 77.3636 103.557 78.2372 106.724 79.9844C109.892 81.7173 112.328 84.2102 114.033 87.4631C115.751 90.7159 116.611 94.608 116.611 99.1392C116.611 103.685 115.751 107.591 114.033 110.858C112.328 114.125 109.878 116.632 106.682 118.379C103.5 120.126 99.6932 121 95.2614 121ZM89.0185 113.095H94.8778C97.6051 113.095 99.8991 112.612 101.76 111.646C103.635 110.666 105.041 109.153 105.979 107.108C106.93 105.048 107.406 102.392 107.406 99.1392C107.406 95.9148 106.93 93.2798 105.979 91.2344C105.041 89.1889 103.642 87.6832 101.781 86.7173C99.9205 85.7514 97.6264 85.2685 94.8991 85.2685H89.0185V113.095ZM138.189 121.639C134.823 121.639 131.925 120.957 129.496 119.594C127.081 118.216 125.221 116.27 123.914 113.756C122.607 111.227 121.953 108.237 121.953 104.786C121.953 101.419 122.607 98.4645 123.914 95.9219C125.221 93.3793 127.06 91.3977 129.432 89.9773C131.819 88.5568 134.617 87.8466 137.827 87.8466C139.986 87.8466 141.996 88.1946 143.857 88.8906C145.732 89.5724 147.365 90.6023 148.757 91.9801C150.164 93.358 151.257 95.0909 152.039 97.179C152.82 99.2528 153.211 101.682 153.211 104.466V106.959H125.576V101.334H144.667C144.667 100.027 144.382 98.8693 143.814 97.8608C143.246 96.8523 142.458 96.0639 141.449 95.4957C140.455 94.9134 139.297 94.6222 137.976 94.6222C136.598 94.6222 135.377 94.9418 134.311 95.581C133.26 96.206 132.436 97.0511 131.84 98.1165C131.243 99.1676 130.938 100.339 130.924 101.632V106.98C130.924 108.599 131.222 109.999 131.819 111.178C132.429 112.357 133.289 113.266 134.397 113.905C135.505 114.544 136.819 114.864 138.338 114.864C139.347 114.864 140.27 114.722 141.108 114.438C141.946 114.153 142.664 113.727 143.26 113.159C143.857 112.591 144.311 111.895 144.624 111.071L153.019 111.625C152.593 113.642 151.719 115.403 150.398 116.909C149.091 118.401 147.401 119.565 145.327 120.403C143.267 121.227 140.888 121.639 138.189 121.639ZM186.364 97.6051L178.054 98.1165C177.912 97.4062 177.607 96.767 177.138 96.1989C176.669 95.6165 176.051 95.1548 175.284 94.8139C174.532 94.4588 173.63 94.2812 172.578 94.2812C171.172 94.2812 169.986 94.5795 169.02 95.1761C168.054 95.7585 167.571 96.5398 167.571 97.5199C167.571 98.3011 167.884 98.9616 168.509 99.5014C169.134 100.041 170.206 100.474 171.726 100.801L177.65 101.994C180.831 102.648 183.203 103.699 184.766 105.148C186.328 106.597 187.11 108.5 187.11 110.858C187.11 113.003 186.478 114.885 185.213 116.504C183.963 118.124 182.245 119.388 180.057 120.297C177.884 121.192 175.377 121.639 172.536 121.639C168.203 121.639 164.752 120.737 162.181 118.933C159.624 117.115 158.125 114.643 157.685 111.518L166.613 111.05C166.882 112.371 167.536 113.379 168.573 114.075C169.61 114.757 170.938 115.098 172.557 115.098C174.148 115.098 175.426 114.793 176.392 114.182C177.373 113.557 177.87 112.754 177.884 111.774C177.87 110.95 177.522 110.276 176.84 109.75C176.158 109.21 175.107 108.798 173.686 108.514L168.019 107.385C164.823 106.746 162.444 105.638 160.881 104.061C159.333 102.484 158.559 100.474 158.559 98.0312C158.559 95.929 159.127 94.1179 160.263 92.598C161.414 91.0781 163.026 89.9062 165.1 89.0824C167.188 88.2585 169.631 87.8466 172.429 87.8466C176.563 87.8466 179.816 88.7202 182.188 90.4673C184.574 92.2145 185.966 94.5937 186.364 97.6051ZM192.825 121V88.2727H201.902V121H192.825ZM197.385 84.054C196.036 84.054 194.878 83.6065 193.912 82.7116C192.96 81.8026 192.484 80.7159 192.484 79.4517C192.484 78.2017 192.96 77.1293 193.912 76.2344C194.878 75.3253 196.036 74.8707 197.385 74.8707C198.734 74.8707 199.885 75.3253 200.837 76.2344C201.803 77.1293 202.286 78.2017 202.286 79.4517C202.286 80.7159 201.803 81.8026 200.837 82.7116C199.885 83.6065 198.734 84.054 197.385 84.054ZM223.917 133.955C220.977 133.955 218.456 133.55 216.353 132.74C214.265 131.945 212.603 130.858 211.368 129.48C210.132 128.102 209.329 126.554 208.96 124.835L217.355 123.706C217.61 124.359 218.015 124.97 218.569 125.538C219.123 126.107 219.855 126.561 220.764 126.902C221.687 127.257 222.809 127.435 224.13 127.435C226.105 127.435 227.731 126.952 229.01 125.986C230.302 125.034 230.949 123.436 230.949 121.192V115.205H230.565C230.167 116.114 229.571 116.973 228.775 117.783C227.98 118.592 226.957 119.253 225.707 119.764C224.457 120.276 222.966 120.531 221.233 120.531C218.775 120.531 216.538 119.963 214.521 118.827C212.518 117.676 210.92 115.922 209.727 113.564C208.548 111.192 207.958 108.195 207.958 104.572C207.958 100.865 208.562 97.7685 209.77 95.2827C210.977 92.7969 212.582 90.9361 214.585 89.7003C216.602 88.4645 218.811 87.8466 221.211 87.8466C223.044 87.8466 224.578 88.1591 225.814 88.7841C227.049 89.3949 228.044 90.1619 228.797 91.0852C229.564 91.9943 230.153 92.8892 230.565 93.7699H230.906V88.2727H239.919V121.32C239.919 124.104 239.237 126.433 237.873 128.308C236.51 130.183 234.62 131.589 232.206 132.527C229.805 133.479 227.042 133.955 223.917 133.955ZM224.109 113.713C225.572 113.713 226.808 113.351 227.816 112.626C228.839 111.888 229.62 110.837 230.16 109.473C230.714 108.095 230.991 106.447 230.991 104.53C230.991 102.612 230.721 100.95 230.181 99.544C229.642 98.1236 228.86 97.0227 227.838 96.2415C226.815 95.4602 225.572 95.0696 224.109 95.0696C222.618 95.0696 221.36 95.4744 220.338 96.2841C219.315 97.0795 218.541 98.1875 218.015 99.608C217.49 101.028 217.227 102.669 217.227 104.53C217.227 106.419 217.49 108.053 218.015 109.43C218.555 110.794 219.329 111.852 220.338 112.605C221.36 113.344 222.618 113.713 224.109 113.713ZM256.218 102.08V121H247.142V88.2727H255.792V94.0469H256.176C256.9 92.1435 258.115 90.6378 259.819 89.5298C261.524 88.4077 263.591 87.8466 266.02 87.8466C268.292 87.8466 270.274 88.3438 271.964 89.3381C273.654 90.3324 274.968 91.7528 275.906 93.5994C276.843 95.4318 277.312 97.6193 277.312 100.162V121H268.235V101.781C268.25 99.7784 267.738 98.2159 266.701 97.0938C265.664 95.9574 264.237 95.3892 262.419 95.3892C261.197 95.3892 260.118 95.652 259.18 96.1776C258.257 96.7031 257.532 97.4702 257.007 98.4787C256.495 99.473 256.233 100.673 256.218 102.08ZM315.952 88.2727V95.0909H295.753V88.2727H315.952ZM300.377 121V85.9077C300.377 83.5355 300.838 81.5682 301.762 80.0057C302.699 78.4432 303.978 77.2713 305.597 76.4901C307.216 75.7088 309.056 75.3182 311.115 75.3182C312.507 75.3182 313.779 75.4247 314.929 75.6378C316.094 75.8509 316.961 76.0426 317.529 76.2131L315.909 83.0312C315.554 82.9176 315.114 82.8111 314.588 82.7116C314.077 82.6122 313.551 82.5625 313.012 82.5625C311.676 82.5625 310.746 82.875 310.221 83.5C309.695 84.1108 309.432 84.9702 309.432 86.0781V121H300.377ZM335.112 121.639C331.803 121.639 328.94 120.936 326.526 119.53C324.125 118.109 322.271 116.135 320.964 113.607C319.658 111.064 319.004 108.116 319.004 104.764C319.004 101.384 319.658 98.429 320.964 95.9006C322.271 93.358 324.125 91.3835 326.526 89.9773C328.94 88.5568 331.803 87.8466 335.112 87.8466C338.422 87.8466 341.277 88.5568 343.678 89.9773C346.092 91.3835 347.953 93.358 349.26 95.9006C350.567 98.429 351.22 101.384 351.22 104.764C351.22 108.116 350.567 111.064 349.26 113.607C347.953 116.135 346.092 118.109 343.678 119.53C341.277 120.936 338.422 121.639 335.112 121.639ZM335.155 114.608C336.661 114.608 337.918 114.182 338.926 113.33C339.935 112.463 340.695 111.284 341.206 109.793C341.732 108.301 341.994 106.604 341.994 104.7C341.994 102.797 341.732 101.099 341.206 99.608C340.695 98.1165 339.935 96.9375 338.926 96.071C337.918 95.2045 336.661 94.7713 335.155 94.7713C333.635 94.7713 332.357 95.2045 331.32 96.071C330.297 96.9375 329.523 98.1165 328.997 99.608C328.486 101.099 328.23 102.797 328.23 104.7C328.23 106.604 328.486 108.301 328.997 109.793C329.523 111.284 330.297 112.463 331.32 113.33C332.357 114.182 333.635 114.608 335.155 114.608ZM357.122 121V88.2727H365.922V93.983H366.263C366.859 91.9517 367.861 90.4176 369.267 89.3807C370.673 88.3295 372.293 87.804 374.125 87.804C374.58 87.804 375.07 87.8324 375.595 87.8892C376.121 87.946 376.582 88.0241 376.98 88.1236V96.1776C376.554 96.0497 375.964 95.9361 375.212 95.8366C374.459 95.7372 373.77 95.6875 373.145 95.6875C371.81 95.6875 370.616 95.9787 369.565 96.5611C368.528 97.1293 367.705 97.9247 367.094 98.9474C366.497 99.9702 366.199 101.149 366.199 102.484V121H357.122ZM103.464 149.913C103.294 148.195 102.563 146.859 101.27 145.908C99.9773 144.956 98.223 144.48 96.0071 144.48C94.5014 144.48 93.2301 144.693 92.1932 145.119C91.1563 145.531 90.3608 146.107 89.8068 146.845C89.267 147.584 88.9972 148.422 88.9972 149.359C88.9688 150.141 89.1321 150.822 89.4872 151.405C89.8565 151.987 90.3608 152.491 91 152.918C91.6392 153.33 92.3778 153.692 93.2159 154.004C94.054 154.303 94.9489 154.558 95.9006 154.771L99.821 155.709C101.724 156.135 103.472 156.703 105.062 157.413C106.653 158.124 108.031 158.997 109.196 160.034C110.361 161.071 111.263 162.293 111.902 163.699C112.555 165.105 112.889 166.717 112.903 168.536C112.889 171.206 112.207 173.521 110.858 175.482C109.523 177.428 107.591 178.94 105.062 180.02C102.548 181.085 99.5156 181.618 95.9645 181.618C92.4418 181.618 89.3736 181.078 86.7599 179.999C84.1605 178.919 82.1293 177.321 80.6662 175.205C79.2173 173.074 78.4574 170.439 78.3864 167.3H87.3139C87.4134 168.763 87.8324 169.984 88.571 170.964C89.3239 171.93 90.3253 172.662 91.5753 173.159C92.8395 173.642 94.267 173.884 95.858 173.884C97.4205 173.884 98.777 173.656 99.9276 173.202C101.092 172.747 101.994 172.115 102.634 171.305C103.273 170.496 103.592 169.565 103.592 168.514C103.592 167.534 103.301 166.71 102.719 166.043C102.151 165.375 101.313 164.807 100.205 164.338C99.1108 163.869 97.7685 163.443 96.1776 163.06L91.4261 161.866C87.7472 160.972 84.8423 159.572 82.7116 157.669C80.581 155.766 79.5227 153.202 79.5369 149.977C79.5227 147.335 80.2259 145.027 81.6463 143.053C83.081 141.078 85.0483 139.537 87.5483 138.429C90.0483 137.321 92.8892 136.767 96.071 136.767C99.3097 136.767 102.136 137.321 104.551 138.429C106.98 139.537 108.869 141.078 110.219 143.053C111.568 145.027 112.264 147.314 112.307 149.913H103.464ZM133.725 181.639C130.373 181.639 127.49 180.929 125.075 179.509C122.674 178.074 120.828 176.085 119.535 173.543C118.257 171 117.618 168.074 117.618 164.764C117.618 161.412 118.264 158.472 119.556 155.943C120.863 153.401 122.717 151.419 125.118 149.999C127.518 148.564 130.373 147.847 133.683 147.847C136.538 147.847 139.038 148.365 141.183 149.402C143.328 150.439 145.025 151.895 146.275 153.77C147.525 155.645 148.214 157.847 148.342 160.375H139.777C139.535 158.741 138.896 157.428 137.859 156.433C136.836 155.425 135.494 154.92 133.832 154.92C132.426 154.92 131.197 155.304 130.146 156.071C129.109 156.824 128.299 157.925 127.717 159.374C127.135 160.822 126.843 162.577 126.843 164.636C126.843 166.724 127.127 168.5 127.696 169.963C128.278 171.426 129.095 172.541 130.146 173.308C131.197 174.075 132.426 174.459 133.832 174.459C134.869 174.459 135.799 174.246 136.623 173.82C137.461 173.393 138.15 172.776 138.69 171.966C139.244 171.142 139.606 170.155 139.777 169.004H148.342C148.2 171.504 147.518 173.706 146.297 175.609C145.089 177.499 143.42 178.976 141.289 180.041C139.159 181.107 136.637 181.639 133.725 181.639ZM154.153 181V148.273H163.23V181H154.153ZM158.713 144.054C157.364 144.054 156.206 143.607 155.24 142.712C154.288 141.803 153.812 140.716 153.812 139.452C153.812 138.202 154.288 137.129 155.24 136.234C156.206 135.325 157.364 134.871 158.713 134.871C160.063 134.871 161.213 135.325 162.165 136.234C163.131 137.129 163.614 138.202 163.614 139.452C163.614 140.716 163.131 141.803 162.165 142.712C161.213 143.607 160.063 144.054 158.713 144.054ZM185.416 181.639C182.049 181.639 179.152 180.957 176.723 179.594C174.308 178.216 172.447 176.27 171.14 173.756C169.833 171.227 169.18 168.237 169.18 164.786C169.18 161.419 169.833 158.464 171.14 155.922C172.447 153.379 174.287 151.398 176.659 149.977C179.045 148.557 181.843 147.847 185.054 147.847C187.213 147.847 189.223 148.195 191.083 148.891C192.958 149.572 194.592 150.602 195.984 151.98C197.39 153.358 198.484 155.091 199.265 157.179C200.047 159.253 200.437 161.682 200.437 164.466V166.959H172.802V161.334H191.893C191.893 160.027 191.609 158.869 191.041 157.861C190.473 156.852 189.684 156.064 188.676 155.496C187.681 154.913 186.524 154.622 185.203 154.622C183.825 154.622 182.603 154.942 181.538 155.581C180.487 156.206 179.663 157.051 179.066 158.116C178.47 159.168 178.164 160.339 178.15 161.632V166.98C178.15 168.599 178.449 169.999 179.045 171.178C179.656 172.357 180.515 173.266 181.623 173.905C182.731 174.544 184.045 174.864 185.565 174.864C186.574 174.864 187.497 174.722 188.335 174.438C189.173 174.153 189.89 173.727 190.487 173.159C191.083 172.591 191.538 171.895 191.85 171.071L200.245 171.625C199.819 173.642 198.946 175.403 197.625 176.909C196.318 178.401 194.627 179.565 192.554 180.403C190.494 181.227 188.115 181.639 185.416 181.639ZM215.437 162.08V181H206.36V148.273H215.011V154.047H215.395C216.119 152.143 217.333 150.638 219.038 149.53C220.743 148.408 222.809 147.847 225.238 147.847C227.511 147.847 229.493 148.344 231.183 149.338C232.873 150.332 234.187 151.753 235.125 153.599C236.062 155.432 236.531 157.619 236.531 160.162V181H227.454V161.781C227.468 159.778 226.957 158.216 225.92 157.094C224.883 155.957 223.456 155.389 221.637 155.389C220.416 155.389 219.336 155.652 218.399 156.178C217.475 156.703 216.751 157.47 216.225 158.479C215.714 159.473 215.451 160.673 215.437 162.08ZM261.092 148.273V155.091H241.384V148.273H261.092ZM245.858 140.432H254.935V170.943C254.935 171.781 255.063 172.435 255.318 172.903C255.574 173.358 255.929 173.678 256.384 173.862C256.852 174.047 257.392 174.139 258.003 174.139C258.429 174.139 258.855 174.104 259.281 174.033C259.707 173.947 260.034 173.884 260.261 173.841L261.689 180.595C261.234 180.737 260.595 180.901 259.771 181.085C258.947 181.284 257.946 181.405 256.767 181.447C254.58 181.533 252.662 181.241 251.014 180.574C249.381 179.906 248.109 178.869 247.2 177.463C246.291 176.057 245.844 174.281 245.858 172.136V140.432ZM267.005 181V148.273H276.082V181H267.005ZM271.565 144.054C270.215 144.054 269.058 143.607 268.092 142.712C267.14 141.803 266.664 140.716 266.664 139.452C266.664 138.202 267.14 137.129 268.092 136.234C269.058 135.325 270.215 134.871 271.565 134.871C272.914 134.871 274.065 135.325 275.016 136.234C275.982 137.129 276.465 138.202 276.465 139.452C276.465 140.716 275.982 141.803 275.016 142.712C274.065 143.607 272.914 144.054 271.565 144.054ZM310.583 157.605L302.273 158.116C302.131 157.406 301.826 156.767 301.357 156.199C300.888 155.616 300.27 155.155 299.503 154.814C298.75 154.459 297.848 154.281 296.797 154.281C295.391 154.281 294.205 154.58 293.239 155.176C292.273 155.759 291.79 156.54 291.79 157.52C291.79 158.301 292.103 158.962 292.728 159.501C293.353 160.041 294.425 160.474 295.945 160.801L301.868 161.994C305.05 162.648 307.422 163.699 308.985 165.148C310.547 166.597 311.328 168.5 311.328 170.858C311.328 173.003 310.696 174.885 309.432 176.504C308.182 178.124 306.463 179.388 304.276 180.297C302.103 181.192 299.596 181.639 296.755 181.639C292.422 181.639 288.971 180.737 286.4 178.933C283.843 177.115 282.344 174.643 281.904 171.518L290.831 171.05C291.101 172.371 291.755 173.379 292.792 174.075C293.828 174.757 295.157 175.098 296.776 175.098C298.367 175.098 299.645 174.793 300.611 174.182C301.591 173.557 302.088 172.754 302.103 171.774C302.088 170.95 301.74 170.276 301.059 169.75C300.377 169.21 299.326 168.798 297.905 168.514L292.238 167.385C289.042 166.746 286.662 165.638 285.1 164.061C283.551 162.484 282.777 160.474 282.777 158.031C282.777 155.929 283.346 154.118 284.482 152.598C285.632 151.078 287.245 149.906 289.319 149.082C291.407 148.259 293.85 147.847 296.648 147.847C300.782 147.847 304.034 148.72 306.407 150.467C308.793 152.214 310.185 154.594 310.583 157.605ZM334.452 148.273V155.091H314.743V148.273H334.452ZM319.217 140.432H328.294V170.943C328.294 171.781 328.422 172.435 328.678 172.903C328.933 173.358 329.288 173.678 329.743 173.862C330.212 174.047 330.751 174.139 331.362 174.139C331.788 174.139 332.214 174.104 332.641 174.033C333.067 173.947 333.393 173.884 333.621 173.841L335.048 180.595C334.594 180.737 333.955 180.901 333.131 181.085C332.307 181.284 331.305 181.405 330.126 181.447C327.939 181.533 326.021 181.241 324.374 180.574C322.74 179.906 321.469 178.869 320.56 177.463C319.651 176.057 319.203 174.281 319.217 172.136V140.432ZM367.184 157.605L358.875 158.116C358.733 157.406 358.427 156.767 357.958 156.199C357.49 155.616 356.872 155.155 356.105 154.814C355.352 154.459 354.45 154.281 353.399 154.281C351.993 154.281 350.806 154.58 349.841 155.176C348.875 155.759 348.392 156.54 348.392 157.52C348.392 158.301 348.704 158.962 349.329 159.501C349.954 160.041 351.027 160.474 352.547 160.801L358.47 161.994C361.652 162.648 364.024 163.699 365.586 165.148C367.149 166.597 367.93 168.5 367.93 170.858C367.93 173.003 367.298 174.885 366.034 176.504C364.784 178.124 363.065 179.388 360.877 180.297C358.704 181.192 356.197 181.639 353.356 181.639C349.024 181.639 345.572 180.737 343.001 178.933C340.444 177.115 338.946 174.643 338.505 171.518L347.433 171.05C347.703 172.371 348.356 173.379 349.393 174.075C350.43 174.757 351.758 175.098 353.377 175.098C354.968 175.098 356.247 174.793 357.213 174.182C358.193 173.557 358.69 172.754 358.704 171.774C358.69 170.95 358.342 170.276 357.66 169.75C356.978 169.21 355.927 168.798 354.507 168.514L348.839 167.385C345.643 166.746 343.264 165.638 341.701 164.061C340.153 162.484 339.379 160.474 339.379 158.031C339.379 155.929 339.947 154.118 341.083 152.598C342.234 151.078 343.846 149.906 345.92 149.082C348.008 148.259 350.451 147.847 353.25 147.847C357.383 147.847 360.636 148.72 363.008 150.467C365.395 152.214 366.787 154.594 367.184 157.605Z" fill="#1A1A1A"/>
<path d="M80.8182 514V490.727H83.6364V511.5H94.4545V514H80.8182ZM105.773 514.364C104.091 514.364 102.64 513.992 101.42 513.25C100.208 512.5 99.2727 511.455 98.6136 510.114C97.9621 508.765 97.6364 507.197 97.6364 505.409C97.6364 503.621 97.9621 502.045 98.6136 500.682C99.2727 499.311 100.189 498.242 101.364 497.477C102.545 496.705 103.924 496.318 105.5 496.318C106.409 496.318 107.307 496.47 108.193 496.773C109.08 497.076 109.886 497.568 110.614 498.25C111.341 498.924 111.92 499.818 112.352 500.932C112.784 502.045 113 503.417 113 505.045V506.182H99.5455V503.864H110.273C110.273 502.879 110.076 502 109.682 501.227C109.295 500.455 108.742 499.845 108.023 499.398C107.311 498.951 106.47 498.727 105.5 498.727C104.432 498.727 103.508 498.992 102.727 499.523C101.955 500.045 101.36 500.727 100.943 501.568C100.527 502.409 100.318 503.311 100.318 504.273V505.818C100.318 507.136 100.545 508.254 101 509.17C101.462 510.08 102.102 510.773 102.92 511.25C103.739 511.72 104.689 511.955 105.773 511.955C106.477 511.955 107.114 511.856 107.682 511.659C108.258 511.455 108.754 511.152 109.17 510.75C109.587 510.341 109.909 509.833 110.136 509.227L112.727 509.955C112.455 510.833 111.996 511.606 111.352 512.273C110.708 512.932 109.913 513.447 108.966 513.818C108.019 514.182 106.955 514.364 105.773 514.364ZM122.216 514.409C121.11 514.409 120.106 514.201 119.205 513.784C118.303 513.36 117.587 512.75 117.057 511.955C116.527 511.152 116.261 510.182 116.261 509.045C116.261 508.045 116.458 507.235 116.852 506.614C117.246 505.985 117.773 505.492 118.432 505.136C119.091 504.78 119.818 504.515 120.614 504.341C121.417 504.159 122.223 504.015 123.034 503.909C124.095 503.773 124.955 503.67 125.614 503.602C126.28 503.527 126.765 503.402 127.068 503.227C127.379 503.053 127.534 502.75 127.534 502.318V502.227C127.534 501.106 127.227 500.235 126.614 499.614C126.008 498.992 125.087 498.682 123.852 498.682C122.572 498.682 121.568 498.962 120.841 499.523C120.114 500.083 119.602 500.682 119.307 501.318L116.761 500.409C117.216 499.348 117.822 498.523 118.58 497.932C119.345 497.333 120.178 496.917 121.08 496.682C121.989 496.439 122.883 496.318 123.761 496.318C124.322 496.318 124.966 496.386 125.693 496.523C126.428 496.652 127.136 496.92 127.818 497.33C128.508 497.739 129.08 498.356 129.534 499.182C129.989 500.008 130.216 501.114 130.216 502.5V514H127.534V511.636H127.398C127.216 512.015 126.913 512.42 126.489 512.852C126.064 513.284 125.5 513.652 124.795 513.955C124.091 514.258 123.231 514.409 122.216 514.409ZM122.625 512C123.686 512 124.58 511.792 125.307 511.375C126.042 510.958 126.595 510.42 126.966 509.761C127.345 509.102 127.534 508.409 127.534 507.682V505.227C127.42 505.364 127.17 505.489 126.784 505.602C126.405 505.708 125.966 505.803 125.466 505.886C124.973 505.962 124.492 506.03 124.023 506.091C123.561 506.144 123.186 506.189 122.898 506.227C122.201 506.318 121.549 506.466 120.943 506.67C120.345 506.867 119.86 507.167 119.489 507.568C119.125 507.962 118.943 508.5 118.943 509.182C118.943 510.114 119.288 510.818 119.977 511.295C120.674 511.765 121.557 512 122.625 512ZM135.111 514V496.545H137.702V499.182H137.884C138.202 498.318 138.777 497.617 139.611 497.08C140.444 496.542 141.384 496.273 142.429 496.273C142.626 496.273 142.872 496.277 143.168 496.284C143.463 496.292 143.687 496.303 143.838 496.318V499.045C143.747 499.023 143.539 498.989 143.213 498.943C142.895 498.89 142.558 498.864 142.202 498.864C141.353 498.864 140.596 499.042 139.929 499.398C139.27 499.746 138.747 500.231 138.361 500.852C137.982 501.466 137.793 502.167 137.793 502.955V514H135.111ZM149.699 503.5V514H147.017V496.545H149.608V499.273H149.835C150.244 498.386 150.866 497.674 151.699 497.136C152.532 496.591 153.608 496.318 154.926 496.318C156.108 496.318 157.142 496.561 158.028 497.045C158.915 497.523 159.604 498.25 160.097 499.227C160.589 500.197 160.835 501.424 160.835 502.909V514H158.153V503.091C158.153 501.72 157.797 500.652 157.085 499.886C156.373 499.114 155.396 498.727 154.153 498.727C153.297 498.727 152.532 498.913 151.858 499.284C151.191 499.655 150.665 500.197 150.278 500.909C149.892 501.621 149.699 502.485 149.699 503.5ZM182.327 496.545V498.818H173.281V496.545H182.327ZM175.918 492.364H178.599V509C178.599 509.758 178.709 510.326 178.929 510.705C179.156 511.076 179.444 511.326 179.793 511.455C180.149 511.576 180.524 511.636 180.918 511.636C181.213 511.636 181.455 511.621 181.645 511.591C181.834 511.553 181.986 511.523 182.099 511.5L182.645 513.909C182.463 513.977 182.209 514.045 181.884 514.114C181.558 514.189 181.145 514.227 180.645 514.227C179.887 514.227 179.145 514.064 178.418 513.739C177.698 513.413 177.099 512.917 176.622 512.25C176.152 511.583 175.918 510.742 175.918 509.727V492.364ZM189.418 503.5V514H186.736V490.727H189.418V499.273H189.645C190.054 498.371 190.668 497.655 191.486 497.125C192.312 496.587 193.41 496.318 194.781 496.318C195.971 496.318 197.012 496.557 197.906 497.034C198.8 497.504 199.493 498.227 199.986 499.205C200.486 500.174 200.736 501.409 200.736 502.909V514H198.054V503.091C198.054 501.705 197.694 500.633 196.974 499.875C196.262 499.11 195.274 498.727 194.009 498.727C193.13 498.727 192.342 498.913 191.645 499.284C190.955 499.655 190.41 500.197 190.009 500.909C189.615 501.621 189.418 502.485 189.418 503.5ZM212.96 514.364C211.278 514.364 209.828 513.992 208.608 513.25C207.396 512.5 206.46 511.455 205.801 510.114C205.15 508.765 204.824 507.197 204.824 505.409C204.824 503.621 205.15 502.045 205.801 500.682C206.46 499.311 207.377 498.242 208.551 497.477C209.733 496.705 211.112 496.318 212.688 496.318C213.597 496.318 214.494 496.47 215.381 496.773C216.267 497.076 217.074 497.568 217.801 498.25C218.528 498.924 219.108 499.818 219.54 500.932C219.972 502.045 220.188 503.417 220.188 505.045V506.182H206.733V503.864H217.46C217.46 502.879 217.263 502 216.869 501.227C216.483 500.455 215.93 499.845 215.21 499.398C214.498 498.951 213.657 498.727 212.688 498.727C211.619 498.727 210.695 498.992 209.915 499.523C209.142 500.045 208.547 500.727 208.131 501.568C207.714 502.409 207.506 503.311 207.506 504.273V505.818C207.506 507.136 207.733 508.254 208.188 509.17C208.65 510.08 209.29 510.773 210.108 511.25C210.926 511.72 211.877 511.955 212.96 511.955C213.665 511.955 214.301 511.856 214.869 511.659C215.445 511.455 215.941 511.152 216.358 510.75C216.775 510.341 217.097 509.833 217.324 509.227L219.915 509.955C219.642 510.833 219.184 511.606 218.54 512.273C217.896 512.932 217.1 513.447 216.153 513.818C215.206 514.182 214.142 514.364 212.96 514.364ZM233.631 514V490.727H236.312V499.318H236.54C236.737 499.015 237.009 498.629 237.358 498.159C237.714 497.682 238.222 497.258 238.881 496.886C239.547 496.508 240.449 496.318 241.585 496.318C243.055 496.318 244.35 496.686 245.472 497.42C246.593 498.155 247.468 499.197 248.097 500.545C248.725 501.894 249.04 503.485 249.04 505.318C249.04 507.167 248.725 508.769 248.097 510.125C247.468 511.473 246.597 512.519 245.483 513.261C244.369 513.996 243.085 514.364 241.631 514.364C240.509 514.364 239.612 514.178 238.938 513.807C238.263 513.428 237.744 513 237.381 512.523C237.017 512.038 236.737 511.636 236.54 511.318H236.222V514H233.631ZM236.267 505.273C236.267 506.591 236.46 507.754 236.847 508.761C237.233 509.761 237.797 510.545 238.54 511.114C239.282 511.674 240.191 511.955 241.267 511.955C242.388 511.955 243.324 511.659 244.074 511.068C244.831 510.47 245.4 509.667 245.778 508.659C246.165 507.644 246.358 506.515 246.358 505.273C246.358 504.045 246.169 502.939 245.79 501.955C245.419 500.962 244.854 500.178 244.097 499.602C243.347 499.019 242.403 498.727 241.267 498.727C240.176 498.727 239.259 499.004 238.517 499.557C237.775 500.102 237.214 500.867 236.835 501.852C236.456 502.83 236.267 503.97 236.267 505.273ZM258.278 514.409C257.172 514.409 256.169 514.201 255.267 513.784C254.366 513.36 253.65 512.75 253.119 511.955C252.589 511.152 252.324 510.182 252.324 509.045C252.324 508.045 252.521 507.235 252.915 506.614C253.309 505.985 253.835 505.492 254.494 505.136C255.153 504.78 255.881 504.515 256.676 504.341C257.479 504.159 258.286 504.015 259.097 503.909C260.157 503.773 261.017 503.67 261.676 503.602C262.343 503.527 262.828 503.402 263.131 503.227C263.441 503.053 263.597 502.75 263.597 502.318V502.227C263.597 501.106 263.29 500.235 262.676 499.614C262.07 498.992 261.15 498.682 259.915 498.682C258.634 498.682 257.631 498.962 256.903 499.523C256.176 500.083 255.665 500.682 255.369 501.318L252.824 500.409C253.278 499.348 253.884 498.523 254.642 497.932C255.407 497.333 256.241 496.917 257.142 496.682C258.051 496.439 258.945 496.318 259.824 496.318C260.384 496.318 261.028 496.386 261.756 496.523C262.491 496.652 263.199 496.92 263.881 497.33C264.57 497.739 265.142 498.356 265.597 499.182C266.051 500.008 266.278 501.114 266.278 502.5V514H263.597V511.636H263.46C263.278 512.015 262.975 512.42 262.551 512.852C262.127 513.284 261.563 513.652 260.858 513.955C260.153 514.258 259.294 514.409 258.278 514.409ZM258.688 512C259.748 512 260.642 511.792 261.369 511.375C262.104 510.958 262.657 510.42 263.028 509.761C263.407 509.102 263.597 508.409 263.597 507.682V505.227C263.483 505.364 263.233 505.489 262.847 505.602C262.468 505.708 262.028 505.803 261.528 505.886C261.036 505.962 260.555 506.03 260.085 506.091C259.623 506.144 259.248 506.189 258.96 506.227C258.263 506.318 257.612 506.466 257.006 506.67C256.407 506.867 255.922 507.167 255.551 507.568C255.188 507.962 255.006 508.5 255.006 509.182C255.006 510.114 255.35 510.818 256.04 511.295C256.737 511.765 257.619 512 258.688 512ZM283.537 500.455L281.128 501.136C280.976 500.735 280.753 500.345 280.457 499.966C280.17 499.58 279.776 499.261 279.276 499.011C278.776 498.761 278.135 498.636 277.355 498.636C276.287 498.636 275.397 498.883 274.685 499.375C273.98 499.86 273.628 500.477 273.628 501.227C273.628 501.894 273.87 502.42 274.355 502.807C274.84 503.193 275.598 503.515 276.628 503.773L279.219 504.409C280.779 504.788 281.942 505.367 282.707 506.148C283.473 506.92 283.855 507.917 283.855 509.136C283.855 510.136 283.567 511.03 282.991 511.818C282.423 512.606 281.628 513.227 280.605 513.682C279.582 514.136 278.393 514.364 277.037 514.364C275.257 514.364 273.783 513.977 272.616 513.205C271.45 512.432 270.711 511.303 270.401 509.818L272.946 509.182C273.188 510.121 273.647 510.826 274.321 511.295C275.003 511.765 275.893 512 276.991 512C278.241 512 279.234 511.735 279.969 511.205C280.711 510.667 281.082 510.023 281.082 509.273C281.082 508.667 280.87 508.159 280.446 507.75C280.022 507.333 279.37 507.023 278.491 506.818L275.582 506.136C273.984 505.758 272.81 505.17 272.06 504.375C271.317 503.572 270.946 502.568 270.946 501.364C270.946 500.379 271.223 499.508 271.776 498.75C272.336 497.992 273.098 497.398 274.06 496.966C275.029 496.534 276.128 496.318 277.355 496.318C279.082 496.318 280.438 496.697 281.423 497.455C282.416 498.212 283.12 499.212 283.537 500.455ZM287.892 514V496.545H290.574V514H287.892ZM289.256 493.636C288.733 493.636 288.282 493.458 287.903 493.102C287.532 492.746 287.347 492.318 287.347 491.818C287.347 491.318 287.532 490.89 287.903 490.534C288.282 490.178 288.733 490 289.256 490C289.778 490 290.225 490.178 290.597 490.534C290.975 490.89 291.165 491.318 291.165 491.818C291.165 492.318 290.975 492.746 290.597 493.102C290.225 493.458 289.778 493.636 289.256 493.636ZM302.577 514.364C300.94 514.364 299.531 513.977 298.349 513.205C297.168 512.432 296.259 511.367 295.622 510.011C294.986 508.655 294.668 507.106 294.668 505.364C294.668 503.591 294.993 502.027 295.645 500.67C296.304 499.307 297.221 498.242 298.395 497.477C299.577 496.705 300.955 496.318 302.531 496.318C303.759 496.318 304.865 496.545 305.849 497C306.834 497.455 307.641 498.091 308.27 498.909C308.899 499.727 309.289 500.682 309.44 501.773H306.759C306.554 500.977 306.099 500.273 305.395 499.659C304.698 499.038 303.759 498.727 302.577 498.727C301.531 498.727 300.615 499 299.827 499.545C299.046 500.083 298.437 500.845 297.997 501.83C297.565 502.807 297.349 503.955 297.349 505.273C297.349 506.621 297.562 507.795 297.986 508.795C298.418 509.795 299.024 510.572 299.804 511.125C300.592 511.678 301.516 511.955 302.577 511.955C303.274 511.955 303.906 511.833 304.474 511.591C305.043 511.348 305.524 511 305.918 510.545C306.312 510.091 306.592 509.545 306.759 508.909H309.44C309.289 509.939 308.914 510.867 308.315 511.693C307.724 512.511 306.94 513.163 305.963 513.648C304.993 514.125 303.865 514.364 302.577 514.364ZM325.724 500.455L323.315 501.136C323.164 500.735 322.94 500.345 322.645 499.966C322.357 499.58 321.963 499.261 321.463 499.011C320.963 498.761 320.323 498.636 319.543 498.636C318.474 498.636 317.584 498.883 316.872 499.375C316.168 499.86 315.815 500.477 315.815 501.227C315.815 501.894 316.058 502.42 316.543 502.807C317.027 503.193 317.785 503.515 318.815 503.773L321.406 504.409C322.967 504.788 324.13 505.367 324.895 506.148C325.66 506.92 326.043 507.917 326.043 509.136C326.043 510.136 325.755 511.03 325.179 511.818C324.611 512.606 323.815 513.227 322.793 513.682C321.77 514.136 320.58 514.364 319.224 514.364C317.444 514.364 315.971 513.977 314.804 513.205C313.637 512.432 312.899 511.303 312.588 509.818L315.134 509.182C315.376 510.121 315.834 510.826 316.509 511.295C317.19 511.765 318.08 512 319.179 512C320.429 512 321.421 511.735 322.156 511.205C322.899 510.667 323.27 510.023 323.27 509.273C323.27 508.667 323.058 508.159 322.634 507.75C322.209 507.333 321.558 507.023 320.679 506.818L317.77 506.136C316.171 505.758 314.997 505.17 314.247 504.375C313.505 503.572 313.134 502.568 313.134 501.364C313.134 500.379 313.41 499.508 313.963 498.75C314.524 497.992 315.285 497.398 316.247 496.966C317.217 496.534 318.315 496.318 319.543 496.318C321.27 496.318 322.626 496.697 323.611 497.455C324.603 498.212 325.308 499.212 325.724 500.455ZM346.17 514.364C344.595 514.364 343.212 513.989 342.023 513.239C340.841 512.489 339.917 511.439 339.25 510.091C338.591 508.742 338.261 507.167 338.261 505.364C338.261 503.545 338.591 501.958 339.25 500.602C339.917 499.246 340.841 498.193 342.023 497.443C343.212 496.693 344.595 496.318 346.17 496.318C347.746 496.318 349.125 496.693 350.307 497.443C351.496 498.193 352.42 499.246 353.08 500.602C353.746 501.958 354.08 503.545 354.08 505.364C354.08 507.167 353.746 508.742 353.08 510.091C352.42 511.439 351.496 512.489 350.307 513.239C349.125 513.989 347.746 514.364 346.17 514.364ZM346.17 511.955C347.367 511.955 348.352 511.648 349.125 511.034C349.898 510.42 350.47 509.614 350.841 508.614C351.212 507.614 351.398 506.53 351.398 505.364C351.398 504.197 351.212 503.11 350.841 502.102C350.47 501.095 349.898 500.28 349.125 499.659C348.352 499.038 347.367 498.727 346.17 498.727C344.973 498.727 343.989 499.038 343.216 499.659C342.443 500.28 341.871 501.095 341.5 502.102C341.129 503.11 340.943 504.197 340.943 505.364C340.943 506.53 341.129 507.614 341.5 508.614C341.871 509.614 342.443 510.42 343.216 511.034C343.989 511.648 344.973 511.955 346.17 511.955ZM365.946 496.545V498.818H356.537V496.545H365.946ZM359.355 514V494.136C359.355 493.136 359.59 492.303 360.06 491.636C360.529 490.97 361.139 490.47 361.889 490.136C362.639 489.803 363.431 489.636 364.264 489.636C364.923 489.636 365.461 489.689 365.878 489.795C366.295 489.902 366.605 490 366.81 490.091L366.037 492.409C365.901 492.364 365.711 492.307 365.469 492.239C365.234 492.17 364.923 492.136 364.537 492.136C363.651 492.136 363.01 492.36 362.616 492.807C362.23 493.254 362.037 493.909 362.037 494.773V514H359.355ZM392.977 496.545L386.523 514H383.795L377.341 496.545H380.25L385.068 510.455H385.25L390.068 496.545H392.977ZM396.517 514V496.545H399.199V514H396.517ZM397.881 493.636C397.358 493.636 396.907 493.458 396.528 493.102C396.157 492.746 395.972 492.318 395.972 491.818C395.972 491.318 396.157 490.89 396.528 490.534C396.907 490.178 397.358 490 397.881 490C398.403 490 398.85 490.178 399.222 490.534C399.6 490.89 399.79 491.318 399.79 491.818C399.79 492.318 399.6 492.746 399.222 493.102C398.85 493.458 398.403 493.636 397.881 493.636ZM416.474 500.455L414.065 501.136C413.914 500.735 413.69 500.345 413.395 499.966C413.107 499.58 412.713 499.261 412.213 499.011C411.713 498.761 411.073 498.636 410.293 498.636C409.224 498.636 408.334 498.883 407.622 499.375C406.918 499.86 406.565 500.477 406.565 501.227C406.565 501.894 406.808 502.42 407.293 502.807C407.777 503.193 408.535 503.515 409.565 503.773L412.156 504.409C413.717 504.788 414.88 505.367 415.645 506.148C416.41 506.92 416.793 507.917 416.793 509.136C416.793 510.136 416.505 511.03 415.929 511.818C415.361 512.606 414.565 513.227 413.543 513.682C412.52 514.136 411.33 514.364 409.974 514.364C408.194 514.364 406.721 513.977 405.554 513.205C404.387 512.432 403.649 511.303 403.338 509.818L405.884 509.182C406.126 510.121 406.584 510.826 407.259 511.295C407.94 511.765 408.83 512 409.929 512C411.179 512 412.171 511.735 412.906 511.205C413.649 510.667 414.02 510.023 414.02 509.273C414.02 508.667 413.808 508.159 413.384 507.75C412.959 507.333 412.308 507.023 411.429 506.818L408.52 506.136C406.921 505.758 405.747 505.17 404.997 504.375C404.255 503.572 403.884 502.568 403.884 501.364C403.884 500.379 404.16 499.508 404.713 498.75C405.274 497.992 406.035 497.398 406.997 496.966C407.967 496.534 409.065 496.318 410.293 496.318C412.02 496.318 413.376 496.697 414.361 497.455C415.353 498.212 416.058 499.212 416.474 500.455ZM431.83 506.864V496.545H434.511V514H431.83V511.045H431.648C431.239 511.932 430.602 512.686 429.739 513.307C428.875 513.92 427.784 514.227 426.466 514.227C425.375 514.227 424.405 513.989 423.557 513.511C422.708 513.027 422.042 512.299 421.557 511.33C421.072 510.352 420.83 509.121 420.83 507.636V496.545H423.511V507.455C423.511 508.727 423.867 509.742 424.58 510.5C425.299 511.258 426.216 511.636 427.33 511.636C427.996 511.636 428.674 511.466 429.364 511.125C430.061 510.784 430.644 510.261 431.114 509.557C431.591 508.852 431.83 507.955 431.83 506.864ZM444.56 514.409C443.454 514.409 442.45 514.201 441.548 513.784C440.647 513.36 439.931 512.75 439.401 511.955C438.87 511.152 438.605 510.182 438.605 509.045C438.605 508.045 438.802 507.235 439.196 506.614C439.59 505.985 440.116 505.492 440.776 505.136C441.435 504.78 442.162 504.515 442.957 504.341C443.76 504.159 444.567 504.015 445.378 503.909C446.438 503.773 447.298 503.67 447.957 503.602C448.624 503.527 449.109 503.402 449.412 503.227C449.723 503.053 449.878 502.75 449.878 502.318V502.227C449.878 501.106 449.571 500.235 448.957 499.614C448.351 498.992 447.431 498.682 446.196 498.682C444.916 498.682 443.912 498.962 443.185 499.523C442.457 500.083 441.946 500.682 441.651 501.318L439.105 500.409C439.56 499.348 440.166 498.523 440.923 497.932C441.688 497.333 442.522 496.917 443.423 496.682C444.332 496.439 445.226 496.318 446.105 496.318C446.666 496.318 447.31 496.386 448.037 496.523C448.772 496.652 449.48 496.92 450.162 497.33C450.851 497.739 451.423 498.356 451.878 499.182C452.332 500.008 452.56 501.114 452.56 502.5V514H449.878V511.636H449.741C449.56 512.015 449.257 512.42 448.832 512.852C448.408 513.284 447.844 513.652 447.139 513.955C446.435 514.258 445.575 514.409 444.56 514.409ZM444.969 512C446.029 512 446.923 511.792 447.651 511.375C448.385 510.958 448.938 510.42 449.31 509.761C449.688 509.102 449.878 508.409 449.878 507.682V505.227C449.764 505.364 449.514 505.489 449.128 505.602C448.749 505.708 448.31 505.803 447.81 505.886C447.317 505.962 446.836 506.03 446.366 506.091C445.904 506.144 445.529 506.189 445.241 506.227C444.545 506.318 443.893 506.466 443.287 506.67C442.688 506.867 442.204 507.167 441.832 507.568C441.469 507.962 441.287 508.5 441.287 509.182C441.287 510.114 441.632 510.818 442.321 511.295C443.018 511.765 443.901 512 444.969 512ZM460.136 490.727V514H457.455V490.727H460.136ZM480.639 514.364C479.185 514.364 477.901 513.996 476.787 513.261C475.673 512.519 474.802 511.473 474.173 510.125C473.545 508.769 473.23 507.167 473.23 505.318C473.23 503.485 473.545 501.894 474.173 500.545C474.802 499.197 475.677 498.155 476.798 497.42C477.92 496.686 479.215 496.318 480.685 496.318C481.821 496.318 482.719 496.508 483.378 496.886C484.045 497.258 484.552 497.682 484.901 498.159C485.257 498.629 485.533 499.015 485.73 499.318H485.957V490.727H488.639V514H486.048V511.318H485.73C485.533 511.636 485.253 512.038 484.889 512.523C484.526 513 484.007 513.428 483.332 513.807C482.658 514.178 481.76 514.364 480.639 514.364ZM481.003 511.955C482.079 511.955 482.988 511.674 483.73 511.114C484.473 510.545 485.037 509.761 485.423 508.761C485.81 507.754 486.003 506.591 486.003 505.273C486.003 503.97 485.813 502.83 485.435 501.852C485.056 500.867 484.495 500.102 483.753 499.557C483.01 499.004 482.094 498.727 481.003 498.727C479.866 498.727 478.92 499.019 478.162 499.602C477.412 500.178 476.848 500.962 476.469 501.955C476.098 502.939 475.912 504.045 475.912 505.273C475.912 506.515 476.101 507.644 476.48 508.659C476.866 509.667 477.435 510.47 478.185 511.068C478.942 511.659 479.882 511.955 481.003 511.955ZM501.241 514.364C499.56 514.364 498.109 513.992 496.889 513.25C495.677 512.5 494.741 511.455 494.082 510.114C493.431 508.765 493.105 507.197 493.105 505.409C493.105 503.621 493.431 502.045 494.082 500.682C494.741 499.311 495.658 498.242 496.832 497.477C498.014 496.705 499.393 496.318 500.969 496.318C501.878 496.318 502.776 496.47 503.662 496.773C504.548 497.076 505.355 497.568 506.082 498.25C506.81 498.924 507.389 499.818 507.821 500.932C508.253 502.045 508.469 503.417 508.469 505.045V506.182H495.014V503.864H505.741C505.741 502.879 505.545 502 505.151 501.227C504.764 500.455 504.211 499.845 503.491 499.398C502.779 498.951 501.938 498.727 500.969 498.727C499.901 498.727 498.976 498.992 498.196 499.523C497.423 500.045 496.829 500.727 496.412 501.568C495.995 502.409 495.787 503.311 495.787 504.273V505.818C495.787 507.136 496.014 508.254 496.469 509.17C496.931 510.08 497.571 510.773 498.389 511.25C499.207 511.72 500.158 511.955 501.241 511.955C501.946 511.955 502.582 511.856 503.151 511.659C503.726 511.455 504.223 511.152 504.639 510.75C505.056 510.341 505.378 509.833 505.605 509.227L508.196 509.955C507.923 510.833 507.465 511.606 506.821 512.273C506.177 512.932 505.382 513.447 504.435 513.818C503.488 514.182 502.423 514.364 501.241 514.364ZM524.912 500.455L522.503 501.136C522.351 500.735 522.128 500.345 521.832 499.966C521.545 499.58 521.151 499.261 520.651 499.011C520.151 498.761 519.51 498.636 518.73 498.636C517.662 498.636 516.772 498.883 516.06 499.375C515.355 499.86 515.003 500.477 515.003 501.227C515.003 501.894 515.245 502.42 515.73 502.807C516.215 503.193 516.973 503.515 518.003 503.773L520.594 504.409C522.154 504.788 523.317 505.367 524.082 506.148C524.848 506.92 525.23 507.917 525.23 509.136C525.23 510.136 524.942 511.03 524.366 511.818C523.798 512.606 523.003 513.227 521.98 513.682C520.957 514.136 519.768 514.364 518.412 514.364C516.632 514.364 515.158 513.977 513.991 513.205C512.825 512.432 512.086 511.303 511.776 509.818L514.321 509.182C514.563 510.121 515.022 510.826 515.696 511.295C516.378 511.765 517.268 512 518.366 512C519.616 512 520.609 511.735 521.344 511.205C522.086 510.667 522.457 510.023 522.457 509.273C522.457 508.667 522.245 508.159 521.821 507.75C521.397 507.333 520.745 507.023 519.866 506.818L516.957 506.136C515.359 505.758 514.185 505.17 513.435 504.375C512.692 503.572 512.321 502.568 512.321 501.364C512.321 500.379 512.598 499.508 513.151 498.75C513.711 497.992 514.473 497.398 515.435 496.966C516.404 496.534 517.503 496.318 518.73 496.318C520.457 496.318 521.813 496.697 522.798 497.455C523.791 498.212 524.495 499.212 524.912 500.455ZM529.267 514V496.545H531.949V514H529.267ZM530.631 493.636C530.108 493.636 529.657 493.458 529.278 493.102C528.907 492.746 528.722 492.318 528.722 491.818C528.722 491.318 528.907 490.89 529.278 490.534C529.657 490.178 530.108 490 530.631 490C531.153 490 531.6 490.178 531.972 490.534C532.35 490.89 532.54 491.318 532.54 491.818C532.54 492.318 532.35 492.746 531.972 493.102C531.6 493.458 531.153 493.636 530.631 493.636ZM543.906 520.909C542.611 520.909 541.497 520.742 540.565 520.409C539.634 520.083 538.857 519.652 538.236 519.114C537.622 518.583 537.134 518.015 536.77 517.409L538.906 515.909C539.149 516.227 539.455 516.591 539.827 517C540.198 517.417 540.705 517.777 541.349 518.08C542.001 518.39 542.853 518.545 543.906 518.545C545.315 518.545 546.478 518.205 547.395 517.523C548.312 516.841 548.77 515.773 548.77 514.318V510.773H548.543C548.346 511.091 548.065 511.485 547.702 511.955C547.346 512.417 546.83 512.83 546.156 513.193C545.49 513.549 544.588 513.727 543.452 513.727C542.043 513.727 540.777 513.394 539.656 512.727C538.543 512.061 537.66 511.091 537.009 509.818C536.365 508.545 536.043 507 536.043 505.182C536.043 503.394 536.357 501.837 536.986 500.511C537.615 499.178 538.49 498.148 539.611 497.42C540.732 496.686 542.027 496.318 543.497 496.318C544.634 496.318 545.535 496.508 546.202 496.886C546.876 497.258 547.391 497.682 547.747 498.159C548.111 498.629 548.391 499.015 548.588 499.318H548.861V496.545H551.452V514.5C551.452 516 551.111 517.22 550.429 518.159C549.755 519.106 548.846 519.799 547.702 520.239C546.565 520.686 545.3 520.909 543.906 520.909ZM543.815 511.318C544.891 511.318 545.8 511.072 546.543 510.58C547.285 510.087 547.849 509.379 548.236 508.455C548.622 507.53 548.815 506.424 548.815 505.136C548.815 503.879 548.626 502.769 548.247 501.807C547.868 500.845 547.308 500.091 546.565 499.545C545.823 499 544.906 498.727 543.815 498.727C542.679 498.727 541.732 499.015 540.974 499.591C540.224 500.167 539.66 500.939 539.281 501.909C538.91 502.879 538.724 503.955 538.724 505.136C538.724 506.348 538.914 507.42 539.293 508.352C539.679 509.277 540.247 510.004 540.997 510.534C541.755 511.057 542.694 511.318 543.815 511.318ZM559.043 503.5V514H556.361V496.545H558.952V499.273H559.179C559.588 498.386 560.209 497.674 561.043 497.136C561.876 496.591 562.952 496.318 564.27 496.318C565.452 496.318 566.486 496.561 567.372 497.045C568.259 497.523 568.948 498.25 569.44 499.227C569.933 500.197 570.179 501.424 570.179 502.909V514H567.497V503.091C567.497 501.72 567.141 500.652 566.429 499.886C565.717 499.114 564.74 498.727 563.497 498.727C562.641 498.727 561.876 498.913 561.202 499.284C560.535 499.655 560.009 500.197 559.622 500.909C559.236 501.621 559.043 502.485 559.043 503.5Z" fill="#1A1A1A"/>
<rect x="627" y="126" width="93" height="55" rx="8" fill="#1A1A1A"/>
<path d="M660.273 141.727V165H657.545L644.864 146.727H644.636V165H641.818V141.727H644.545L657.273 160.045H657.5V141.727H660.273ZM672.866 165.364C671.185 165.364 669.734 164.992 668.514 164.25C667.302 163.5 666.366 162.455 665.707 161.114C665.056 159.765 664.73 158.197 664.73 156.409C664.73 154.621 665.056 153.045 665.707 151.682C666.366 150.311 667.283 149.242 668.457 148.477C669.639 147.705 671.018 147.318 672.594 147.318C673.503 147.318 674.401 147.47 675.287 147.773C676.173 148.076 676.98 148.568 677.707 149.25C678.435 149.924 679.014 150.818 679.446 151.932C679.878 153.045 680.094 154.417 680.094 156.045V157.182H666.639V154.864H677.366C677.366 153.879 677.17 153 676.776 152.227C676.389 151.455 675.836 150.845 675.116 150.398C674.404 149.951 673.563 149.727 672.594 149.727C671.526 149.727 670.601 149.992 669.821 150.523C669.048 151.045 668.454 151.727 668.037 152.568C667.62 153.409 667.412 154.311 667.412 155.273V156.818C667.412 158.136 667.639 159.254 668.094 160.17C668.556 161.08 669.196 161.773 670.014 162.25C670.832 162.72 671.783 162.955 672.866 162.955C673.571 162.955 674.207 162.856 674.776 162.659C675.351 162.455 675.848 162.152 676.264 161.75C676.681 161.341 677.003 160.833 677.23 160.227L679.821 160.955C679.548 161.833 679.09 162.606 678.446 163.273C677.802 163.932 677.007 164.447 676.06 164.818C675.113 165.182 674.048 165.364 672.866 165.364ZM688.128 165L682.81 147.545H685.628L689.401 160.909H689.582L693.31 147.545H696.173L699.855 160.864H700.037L703.81 147.545H706.628L701.31 165H698.673L694.855 151.591H694.582L690.764 165H688.128Z" fill="white"/>
</svg>
