<svg width="800" height="600" viewBox="0 0 800 600" fill="none" xmlns="http://www.w3.org/2000/svg">
<rect width="800" height="600" fill="white"/>
<path d="M110.261 250H94.7926V206.364H110.389C114.778 206.364 118.557 207.237 121.724 208.984C124.892 210.717 127.328 213.21 129.033 216.463C130.751 219.716 131.611 223.608 131.611 228.139C131.611 232.685 130.751 236.591 129.033 239.858C127.328 243.125 124.878 245.632 121.682 247.379C118.5 249.126 114.693 250 110.261 250ZM104.018 242.095H109.878C112.605 242.095 114.899 241.612 116.76 240.646C118.635 239.666 120.041 238.153 120.979 236.108C121.93 234.048 122.406 231.392 122.406 228.139C122.406 224.915 121.93 222.28 120.979 220.234C120.041 218.189 118.642 216.683 116.781 215.717C114.92 214.751 112.626 214.268 109.899 214.268H104.018V242.095ZM153.189 250.639C149.823 250.639 146.925 249.957 144.496 248.594C142.081 247.216 140.221 245.27 138.914 242.756C137.607 240.227 136.953 237.237 136.953 233.786C136.953 230.419 137.607 227.464 138.914 224.922C140.221 222.379 142.06 220.398 144.432 218.977C146.819 217.557 149.617 216.847 152.827 216.847C154.986 216.847 156.996 217.195 158.857 217.891C160.732 218.572 162.365 219.602 163.757 220.98C165.164 222.358 166.257 224.091 167.039 226.179C167.82 228.253 168.211 230.682 168.211 233.466V235.959H140.576V230.334H159.667C159.667 229.027 159.382 227.869 158.814 226.861C158.246 225.852 157.458 225.064 156.449 224.496C155.455 223.913 154.297 223.622 152.976 223.622C151.598 223.622 150.377 223.942 149.311 224.581C148.26 225.206 147.436 226.051 146.84 227.116C146.243 228.168 145.938 229.339 145.924 230.632V235.98C145.924 237.599 146.222 238.999 146.819 240.178C147.429 241.357 148.289 242.266 149.397 242.905C150.505 243.544 151.819 243.864 153.338 243.864C154.347 243.864 155.27 243.722 156.108 243.438C156.946 243.153 157.664 242.727 158.26 242.159C158.857 241.591 159.311 240.895 159.624 240.071L168.019 240.625C167.593 242.642 166.719 244.403 165.398 245.909C164.091 247.401 162.401 248.565 160.327 249.403C158.267 250.227 155.888 250.639 153.189 250.639ZM201.364 226.605L193.054 227.116C192.912 226.406 192.607 225.767 192.138 225.199C191.669 224.616 191.051 224.155 190.284 223.814C189.532 223.459 188.63 223.281 187.578 223.281C186.172 223.281 184.986 223.58 184.02 224.176C183.054 224.759 182.571 225.54 182.571 226.52C182.571 227.301 182.884 227.962 183.509 228.501C184.134 229.041 185.206 229.474 186.726 229.801L192.65 230.994C195.831 231.648 198.203 232.699 199.766 234.148C201.328 235.597 202.11 237.5 202.11 239.858C202.11 242.003 201.478 243.885 200.213 245.504C198.963 247.124 197.245 248.388 195.057 249.297C192.884 250.192 190.377 250.639 187.536 250.639C183.203 250.639 179.752 249.737 177.181 247.933C174.624 246.115 173.125 243.643 172.685 240.518L181.613 240.05C181.882 241.371 182.536 242.379 183.573 243.075C184.61 243.757 185.938 244.098 187.557 244.098C189.148 244.098 190.426 243.793 191.392 243.182C192.373 242.557 192.87 241.754 192.884 240.774C192.87 239.95 192.522 239.276 191.84 238.75C191.158 238.21 190.107 237.798 188.686 237.514L183.019 236.385C179.823 235.746 177.444 234.638 175.881 233.061C174.333 231.484 173.559 229.474 173.559 227.031C173.559 224.929 174.127 223.118 175.263 221.598C176.414 220.078 178.026 218.906 180.1 218.082C182.188 217.259 184.631 216.847 187.429 216.847C191.563 216.847 194.816 217.72 197.188 219.467C199.574 221.214 200.966 223.594 201.364 226.605ZM207.825 250V217.273H216.902V250H207.825ZM212.385 213.054C211.036 213.054 209.878 212.607 208.912 211.712C207.96 210.803 207.484 209.716 207.484 208.452C207.484 207.202 207.96 206.129 208.912 205.234C209.878 204.325 211.036 203.871 212.385 203.871C213.734 203.871 214.885 204.325 215.837 205.234C216.803 206.129 217.286 207.202 217.286 208.452C217.286 209.716 216.803 210.803 215.837 211.712C214.885 212.607 213.734 213.054 212.385 213.054ZM238.917 262.955C235.977 262.955 233.456 262.55 231.353 261.74C229.265 260.945 227.603 259.858 226.368 258.48C225.132 257.102 224.329 255.554 223.96 253.835L232.355 252.706C232.61 253.359 233.015 253.97 233.569 254.538C234.123 255.107 234.855 255.561 235.764 255.902C236.687 256.257 237.809 256.435 239.13 256.435C241.105 256.435 242.731 255.952 244.01 254.986C245.302 254.034 245.949 252.436 245.949 250.192V244.205H245.565C245.167 245.114 244.571 245.973 243.775 246.783C242.98 247.592 241.957 248.253 240.707 248.764C239.457 249.276 237.966 249.531 236.233 249.531C233.775 249.531 231.538 248.963 229.521 247.827C227.518 246.676 225.92 244.922 224.727 242.564C223.548 240.192 222.958 237.195 222.958 233.572C222.958 229.865 223.562 226.768 224.77 224.283C225.977 221.797 227.582 219.936 229.585 218.7C231.602 217.464 233.811 216.847 236.211 216.847C238.044 216.847 239.578 217.159 240.814 217.784C242.049 218.395 243.044 219.162 243.797 220.085C244.564 220.994 245.153 221.889 245.565 222.77H245.906V217.273H254.919V250.32C254.919 253.104 254.237 255.433 252.873 257.308C251.51 259.183 249.62 260.589 247.206 261.527C244.805 262.479 242.042 262.955 238.917 262.955ZM239.109 242.713C240.572 242.713 241.808 242.351 242.816 241.626C243.839 240.888 244.62 239.837 245.16 238.473C245.714 237.095 245.991 235.447 245.991 233.53C245.991 231.612 245.721 229.95 245.181 228.544C244.642 227.124 243.86 226.023 242.838 225.241C241.815 224.46 240.572 224.07 239.109 224.07C237.618 224.07 236.36 224.474 235.338 225.284C234.315 226.08 233.541 227.187 233.015 228.608C232.49 230.028 232.227 231.669 232.227 233.53C232.227 235.419 232.49 237.053 233.015 238.43C233.555 239.794 234.329 240.852 235.338 241.605C236.36 242.344 237.618 242.713 239.109 242.713ZM271.218 231.08V250H262.142V217.273H270.792V223.047H271.176C271.9 221.143 273.115 219.638 274.819 218.53C276.524 217.408 278.591 216.847 281.02 216.847C283.292 216.847 285.274 217.344 286.964 218.338C288.654 219.332 289.968 220.753 290.906 222.599C291.843 224.432 292.312 226.619 292.312 229.162V250H283.235V230.781C283.25 228.778 282.738 227.216 281.701 226.094C280.664 224.957 279.237 224.389 277.419 224.389C276.197 224.389 275.118 224.652 274.18 225.178C273.257 225.703 272.532 226.47 272.007 227.479C271.495 228.473 271.233 229.673 271.218 231.08ZM330.952 217.273V224.091H310.753V217.273H330.952ZM315.377 250V214.908C315.377 212.536 315.838 210.568 316.762 209.006C317.699 207.443 318.978 206.271 320.597 205.49C322.216 204.709 324.056 204.318 326.115 204.318C327.507 204.318 328.779 204.425 329.929 204.638C331.094 204.851 331.961 205.043 332.529 205.213L330.909 212.031C330.554 211.918 330.114 211.811 329.588 211.712C329.077 211.612 328.551 211.562 328.012 211.562C326.676 211.562 325.746 211.875 325.221 212.5C324.695 213.111 324.432 213.97 324.432 215.078V250H315.377ZM350.112 250.639C346.803 250.639 343.94 249.936 341.526 248.53C339.125 247.109 337.271 245.135 335.964 242.607C334.658 240.064 334.004 237.116 334.004 233.764C334.004 230.384 334.658 227.429 335.964 224.901C337.271 222.358 339.125 220.384 341.526 218.977C343.94 217.557 346.803 216.847 350.112 216.847C353.422 216.847 356.277 217.557 358.678 218.977C361.092 220.384 362.953 222.358 364.26 224.901C365.567 227.429 366.22 230.384 366.22 233.764C366.22 237.116 365.567 240.064 364.26 242.607C362.953 245.135 361.092 247.109 358.678 248.53C356.277 249.936 353.422 250.639 350.112 250.639ZM350.155 243.608C351.661 243.608 352.918 243.182 353.926 242.33C354.935 241.463 355.695 240.284 356.206 238.793C356.732 237.301 356.994 235.604 356.994 233.7C356.994 231.797 356.732 230.099 356.206 228.608C355.695 227.116 354.935 225.937 353.926 225.071C352.918 224.205 351.661 223.771 350.155 223.771C348.635 223.771 347.357 224.205 346.32 225.071C345.297 225.937 344.523 227.116 343.997 228.608C343.486 230.099 343.23 231.797 343.23 233.7C343.23 235.604 343.486 237.301 343.997 238.793C344.523 240.284 345.297 241.463 346.32 242.33C347.357 243.182 348.635 243.608 350.155 243.608ZM372.122 250V217.273H380.922V222.983H381.263C381.859 220.952 382.861 219.418 384.267 218.381C385.673 217.33 387.293 216.804 389.125 216.804C389.58 216.804 390.07 216.832 390.595 216.889C391.121 216.946 391.582 217.024 391.98 217.124V225.178C391.554 225.05 390.964 224.936 390.212 224.837C389.459 224.737 388.77 224.688 388.145 224.688C386.81 224.688 385.616 224.979 384.565 225.561C383.528 226.129 382.705 226.925 382.094 227.947C381.497 228.97 381.199 230.149 381.199 231.484V250H372.122ZM118.464 278.913C118.294 277.195 117.563 275.859 116.27 274.908C114.977 273.956 113.223 273.48 111.007 273.48C109.501 273.48 108.23 273.693 107.193 274.119C106.156 274.531 105.361 275.107 104.807 275.845C104.267 276.584 103.997 277.422 103.997 278.359C103.969 279.141 104.132 279.822 104.487 280.405C104.857 280.987 105.361 281.491 106 281.918C106.639 282.33 107.378 282.692 108.216 283.004C109.054 283.303 109.949 283.558 110.901 283.771L114.821 284.709C116.724 285.135 118.472 285.703 120.062 286.413C121.653 287.124 123.031 287.997 124.196 289.034C125.361 290.071 126.263 291.293 126.902 292.699C127.555 294.105 127.889 295.717 127.903 297.536C127.889 300.206 127.207 302.521 125.858 304.482C124.523 306.428 122.591 307.94 120.062 309.02C117.548 310.085 114.516 310.618 110.964 310.618C107.442 310.618 104.374 310.078 101.76 308.999C99.1605 307.919 97.1293 306.321 95.6662 304.205C94.2173 302.074 93.4574 299.439 93.3864 296.3H102.314C102.413 297.763 102.832 298.984 103.571 299.964C104.324 300.93 105.325 301.662 106.575 302.159C107.839 302.642 109.267 302.884 110.858 302.884C112.42 302.884 113.777 302.656 114.928 302.202C116.092 301.747 116.994 301.115 117.634 300.305C118.273 299.496 118.592 298.565 118.592 297.514C118.592 296.534 118.301 295.71 117.719 295.043C117.151 294.375 116.313 293.807 115.205 293.338C114.111 292.869 112.768 292.443 111.178 292.06L106.426 290.866C102.747 289.972 99.8423 288.572 97.7116 286.669C95.581 284.766 94.5227 282.202 94.5369 278.977C94.5227 276.335 95.2259 274.027 96.6463 272.053C98.081 270.078 100.048 268.537 102.548 267.429C105.048 266.321 107.889 265.767 111.071 265.767C114.31 265.767 117.136 266.321 119.551 267.429C121.98 268.537 123.869 270.078 125.219 272.053C126.568 274.027 127.264 276.314 127.307 278.913H118.464ZM148.725 310.639C145.373 310.639 142.49 309.929 140.075 308.509C137.674 307.074 135.828 305.085 134.535 302.543C133.257 300 132.618 297.074 132.618 293.764C132.618 290.412 133.264 287.472 134.556 284.943C135.863 282.401 137.717 280.419 140.118 278.999C142.518 277.564 145.373 276.847 148.683 276.847C151.538 276.847 154.038 277.365 156.183 278.402C158.328 279.439 160.025 280.895 161.275 282.77C162.525 284.645 163.214 286.847 163.342 289.375H154.777C154.535 287.741 153.896 286.428 152.859 285.433C151.836 284.425 150.494 283.92 148.832 283.92C147.426 283.92 146.197 284.304 145.146 285.071C144.109 285.824 143.299 286.925 142.717 288.374C142.135 289.822 141.843 291.577 141.843 293.636C141.843 295.724 142.127 297.5 142.696 298.963C143.278 300.426 144.095 301.541 145.146 302.308C146.197 303.075 147.426 303.459 148.832 303.459C149.869 303.459 150.799 303.246 151.623 302.82C152.461 302.393 153.15 301.776 153.69 300.966C154.244 300.142 154.606 299.155 154.777 298.004H163.342C163.2 300.504 162.518 302.706 161.297 304.609C160.089 306.499 158.42 307.976 156.289 309.041C154.159 310.107 151.637 310.639 148.725 310.639ZM169.153 310V277.273H178.23V310H169.153ZM173.713 273.054C172.364 273.054 171.206 272.607 170.24 271.712C169.288 270.803 168.812 269.716 168.812 268.452C168.812 267.202 169.288 266.129 170.24 265.234C171.206 264.325 172.364 263.871 173.713 263.871C175.063 263.871 176.213 264.325 177.165 265.234C178.131 266.129 178.614 267.202 178.614 268.452C178.614 269.716 178.131 270.803 177.165 271.712C176.213 272.607 175.063 273.054 173.713 273.054ZM200.416 310.639C197.049 310.639 194.152 309.957 191.723 308.594C189.308 307.216 187.447 305.27 186.14 302.756C184.833 300.227 184.18 297.237 184.18 293.786C184.18 290.419 184.833 287.464 186.14 284.922C187.447 282.379 189.287 280.398 191.659 278.977C194.045 277.557 196.843 276.847 200.054 276.847C202.213 276.847 204.223 277.195 206.083 277.891C207.958 278.572 209.592 279.602 210.984 280.98C212.39 282.358 213.484 284.091 214.265 286.179C215.047 288.253 215.437 290.682 215.437 293.466V295.959H187.802V290.334H206.893C206.893 289.027 206.609 287.869 206.041 286.861C205.473 285.852 204.684 285.064 203.676 284.496C202.681 283.913 201.524 283.622 200.203 283.622C198.825 283.622 197.603 283.942 196.538 284.581C195.487 285.206 194.663 286.051 194.066 287.116C193.47 288.168 193.164 289.339 193.15 290.632V295.98C193.15 297.599 193.449 298.999 194.045 300.178C194.656 301.357 195.515 302.266 196.623 302.905C197.731 303.544 199.045 303.864 200.565 303.864C201.574 303.864 202.497 303.722 203.335 303.438C204.173 303.153 204.89 302.727 205.487 302.159C206.083 301.591 206.538 300.895 206.85 300.071L215.245 300.625C214.819 302.642 213.946 304.403 212.625 305.909C211.318 307.401 209.627 308.565 207.554 309.403C205.494 310.227 203.115 310.639 200.416 310.639ZM230.437 291.08V310H221.36V277.273H230.011V283.047H230.395C231.119 281.143 232.333 279.638 234.038 278.53C235.743 277.408 237.809 276.847 240.238 276.847C242.511 276.847 244.493 277.344 246.183 278.338C247.873 279.332 249.187 280.753 250.125 282.599C251.062 284.432 251.531 286.619 251.531 289.162V310H242.454V290.781C242.468 288.778 241.957 287.216 240.92 286.094C239.883 284.957 238.456 284.389 236.637 284.389C235.416 284.389 234.336 284.652 233.399 285.178C232.475 285.703 231.751 286.47 231.225 287.479C230.714 288.473 230.451 289.673 230.437 291.08ZM276.092 277.273V284.091H256.384V277.273H276.092ZM260.858 269.432H269.935V299.943C269.935 300.781 270.063 301.435 270.318 301.903C270.574 302.358 270.929 302.678 271.384 302.862C271.852 303.047 272.392 303.139 273.003 303.139C273.429 303.139 273.855 303.104 274.281 303.033C274.707 302.947 275.034 302.884 275.261 302.841L276.689 309.595C276.234 309.737 275.595 309.901 274.771 310.085C273.947 310.284 272.946 310.405 271.767 310.447C269.58 310.533 267.662 310.241 266.014 309.574C264.381 308.906 263.109 307.869 262.2 306.463C261.291 305.057 260.844 303.281 260.858 301.136V269.432ZM282.005 310V277.273H291.082V310H282.005ZM286.565 273.054C285.215 273.054 284.058 272.607 283.092 271.712C282.14 270.803 281.664 269.716 281.664 268.452C281.664 267.202 282.14 266.129 283.092 265.234C284.058 264.325 285.215 263.871 286.565 263.871C287.914 263.871 289.065 264.325 290.016 265.234C290.982 266.129 291.465 267.202 291.465 268.452C291.465 269.716 290.982 270.803 290.016 271.712C289.065 272.607 287.914 273.054 286.565 273.054ZM325.583 286.605L317.273 287.116C317.131 286.406 316.826 285.767 316.357 285.199C315.888 284.616 315.27 284.155 314.503 283.814C313.75 283.459 312.848 283.281 311.797 283.281C310.391 283.281 309.205 283.58 308.239 284.176C307.273 284.759 306.79 285.54 306.79 286.52C306.79 287.301 307.103 287.962 307.728 288.501C308.353 289.041 309.425 289.474 310.945 289.801L316.868 290.994C320.05 291.648 322.422 292.699 323.985 294.148C325.547 295.597 326.328 297.5 326.328 299.858C326.328 302.003 325.696 303.885 324.432 305.504C323.182 307.124 321.463 308.388 319.276 309.297C317.103 310.192 314.596 310.639 311.755 310.639C307.422 310.639 303.971 309.737 301.4 307.933C298.843 306.115 297.344 303.643 296.904 300.518L305.831 300.05C306.101 301.371 306.755 302.379 307.792 303.075C308.828 303.757 310.157 304.098 311.776 304.098C313.367 304.098 314.645 303.793 315.611 303.182C316.591 302.557 317.088 301.754 317.103 300.774C317.088 299.95 316.74 299.276 316.059 298.75C315.377 298.21 314.326 297.798 312.905 297.514L307.238 296.385C304.042 295.746 301.662 294.638 300.1 293.061C298.551 291.484 297.777 289.474 297.777 287.031C297.777 284.929 298.346 283.118 299.482 281.598C300.632 280.078 302.245 278.906 304.319 278.082C306.407 277.259 308.85 276.847 311.648 276.847C315.782 276.847 319.034 277.72 321.407 279.467C323.793 281.214 325.185 283.594 325.583 286.605ZM349.452 277.273V284.091H329.743V277.273H349.452ZM334.217 269.432H343.294V299.943C343.294 300.781 343.422 301.435 343.678 301.903C343.933 302.358 344.288 302.678 344.743 302.862C345.212 303.047 345.751 303.139 346.362 303.139C346.788 303.139 347.214 303.104 347.641 303.033C348.067 302.947 348.393 302.884 348.621 302.841L350.048 309.595C349.594 309.737 348.955 309.901 348.131 310.085C347.307 310.284 346.305 310.405 345.126 310.447C342.939 310.533 341.021 310.241 339.374 309.574C337.74 308.906 336.469 307.869 335.56 306.463C334.651 305.057 334.203 303.281 334.217 301.136V269.432ZM382.184 286.605L373.875 287.116C373.733 286.406 373.427 285.767 372.958 285.199C372.49 284.616 371.872 284.155 371.105 283.814C370.352 283.459 369.45 283.281 368.399 283.281C366.993 283.281 365.806 283.58 364.841 284.176C363.875 284.759 363.392 285.54 363.392 286.52C363.392 287.301 363.704 287.962 364.329 288.501C364.954 289.041 366.027 289.474 367.547 289.801L373.47 290.994C376.652 291.648 379.024 292.699 380.586 294.148C382.149 295.597 382.93 297.5 382.93 299.858C382.93 302.003 382.298 303.885 381.034 305.504C379.784 307.124 378.065 308.388 375.877 309.297C373.704 310.192 371.197 310.639 368.356 310.639C364.024 310.639 360.572 309.737 358.001 307.933C355.444 306.115 353.946 303.643 353.505 300.518L362.433 300.05C362.703 301.371 363.356 302.379 364.393 303.075C365.43 303.757 366.758 304.098 368.377 304.098C369.968 304.098 371.247 303.793 372.213 303.182C373.193 302.557 373.69 301.754 373.704 300.774C373.69 299.95 373.342 299.276 372.66 298.75C371.978 298.21 370.927 297.798 369.507 297.514L363.839 296.385C360.643 295.746 358.264 294.638 356.701 293.061C355.153 291.484 354.379 289.474 354.379 287.031C354.379 284.929 354.947 283.118 356.083 281.598C357.234 280.078 358.846 278.906 360.92 278.082C363.008 277.259 365.451 276.847 368.25 276.847C372.383 276.847 375.636 277.72 378.008 279.467C380.395 281.214 381.787 283.594 382.184 286.605Z" fill="#1A1A1A"/>
<rect x="494" y="83" width="93" height="55" rx="8" fill="#1A1A1A"/>
<path d="M527.273 98.7273V122H524.545L511.864 103.727H511.636V122H508.818V98.7273H511.545L524.273 117.045H524.5V98.7273H527.273ZM539.866 122.364C538.185 122.364 536.734 121.992 535.514 121.25C534.302 120.5 533.366 119.455 532.707 118.114C532.056 116.765 531.73 115.197 531.73 113.409C531.73 111.621 532.056 110.045 532.707 108.682C533.366 107.311 534.283 106.242 535.457 105.477C536.639 104.705 538.018 104.318 539.594 104.318C540.503 104.318 541.401 104.47 542.287 104.773C543.173 105.076 543.98 105.568 544.707 106.25C545.435 106.924 546.014 107.818 546.446 108.932C546.878 110.045 547.094 111.417 547.094 113.045V114.182H533.639V111.864H544.366C544.366 110.879 544.17 110 543.776 109.227C543.389 108.455 542.836 107.845 542.116 107.398C541.404 106.951 540.563 106.727 539.594 106.727C538.526 106.727 537.601 106.992 536.821 107.523C536.048 108.045 535.454 108.727 535.037 109.568C534.62 110.409 534.412 111.311 534.412 112.273V113.818C534.412 115.136 534.639 116.254 535.094 117.17C535.556 118.08 536.196 118.773 537.014 119.25C537.832 119.72 538.783 119.955 539.866 119.955C540.571 119.955 541.207 119.856 541.776 119.659C542.351 119.455 542.848 119.152 543.264 118.75C543.681 118.341 544.003 117.833 544.23 117.227L546.821 117.955C546.548 118.833 546.09 119.606 545.446 120.273C544.802 120.932 544.007 121.447 543.06 121.818C542.113 122.182 541.048 122.364 539.866 122.364ZM555.128 122L549.81 104.545H552.628L556.401 117.909H556.582L560.31 104.545H563.173L566.855 117.864H567.037L570.81 104.545H573.628L568.31 122H565.673L561.855 108.591H561.582L557.764 122H555.128Z" fill="white"/>
<path d="M173.818 488V464.727H176.636V485.5H187.455V488H173.818ZM198.773 488.364C197.091 488.364 195.64 487.992 194.42 487.25C193.208 486.5 192.273 485.455 191.614 484.114C190.962 482.765 190.636 481.197 190.636 479.409C190.636 477.621 190.962 476.045 191.614 474.682C192.273 473.311 193.189 472.242 194.364 471.477C195.545 470.705 196.924 470.318 198.5 470.318C199.409 470.318 200.307 470.47 201.193 470.773C202.08 471.076 202.886 471.568 203.614 472.25C204.341 472.924 204.92 473.818 205.352 474.932C205.784 476.045 206 477.417 206 479.045V480.182H192.545V477.864H203.273C203.273 476.879 203.076 476 202.682 475.227C202.295 474.455 201.742 473.845 201.023 473.398C200.311 472.951 199.47 472.727 198.5 472.727C197.432 472.727 196.508 472.992 195.727 473.523C194.955 474.045 194.36 474.727 193.943 475.568C193.527 476.409 193.318 477.311 193.318 478.273V479.818C193.318 481.136 193.545 482.254 194 483.17C194.462 484.08 195.102 484.773 195.92 485.25C196.739 485.72 197.689 485.955 198.773 485.955C199.477 485.955 200.114 485.856 200.682 485.659C201.258 485.455 201.754 485.152 202.17 484.75C202.587 484.341 202.909 483.833 203.136 483.227L205.727 483.955C205.455 484.833 204.996 485.606 204.352 486.273C203.708 486.932 202.913 487.447 201.966 487.818C201.019 488.182 199.955 488.364 198.773 488.364ZM215.216 488.409C214.11 488.409 213.106 488.201 212.205 487.784C211.303 487.36 210.587 486.75 210.057 485.955C209.527 485.152 209.261 484.182 209.261 483.045C209.261 482.045 209.458 481.235 209.852 480.614C210.246 479.985 210.773 479.492 211.432 479.136C212.091 478.78 212.818 478.515 213.614 478.341C214.417 478.159 215.223 478.015 216.034 477.909C217.095 477.773 217.955 477.67 218.614 477.602C219.28 477.527 219.765 477.402 220.068 477.227C220.379 477.053 220.534 476.75 220.534 476.318V476.227C220.534 475.106 220.227 474.235 219.614 473.614C219.008 472.992 218.087 472.682 216.852 472.682C215.572 472.682 214.568 472.962 213.841 473.523C213.114 474.083 212.602 474.682 212.307 475.318L209.761 474.409C210.216 473.348 210.822 472.523 211.58 471.932C212.345 471.333 213.178 470.917 214.08 470.682C214.989 470.439 215.883 470.318 216.761 470.318C217.322 470.318 217.966 470.386 218.693 470.523C219.428 470.652 220.136 470.92 220.818 471.33C221.508 471.739 222.08 472.356 222.534 473.182C222.989 474.008 223.216 475.114 223.216 476.5V488H220.534V485.636H220.398C220.216 486.015 219.913 486.42 219.489 486.852C219.064 487.284 218.5 487.652 217.795 487.955C217.091 488.258 216.231 488.409 215.216 488.409ZM215.625 486C216.686 486 217.58 485.792 218.307 485.375C219.042 484.958 219.595 484.42 219.966 483.761C220.345 483.102 220.534 482.409 220.534 481.682V479.227C220.42 479.364 220.17 479.489 219.784 479.602C219.405 479.708 218.966 479.803 218.466 479.886C217.973 479.962 217.492 480.03 217.023 480.091C216.561 480.144 216.186 480.189 215.898 480.227C215.201 480.318 214.549 480.466 213.943 480.67C213.345 480.867 212.86 481.167 212.489 481.568C212.125 481.962 211.943 482.5 211.943 483.182C211.943 484.114 212.288 484.818 212.977 485.295C213.674 485.765 214.557 486 215.625 486ZM228.111 488V470.545H230.702V473.182H230.884C231.202 472.318 231.777 471.617 232.611 471.08C233.444 470.542 234.384 470.273 235.429 470.273C235.626 470.273 235.872 470.277 236.168 470.284C236.463 470.292 236.687 470.303 236.838 470.318V473.045C236.747 473.023 236.539 472.989 236.213 472.943C235.895 472.89 235.558 472.864 235.202 472.864C234.353 472.864 233.596 473.042 232.929 473.398C232.27 473.746 231.747 474.231 231.361 474.852C230.982 475.466 230.793 476.167 230.793 476.955V488H228.111ZM242.699 477.5V488H240.017V470.545H242.608V473.273H242.835C243.244 472.386 243.866 471.674 244.699 471.136C245.532 470.591 246.608 470.318 247.926 470.318C249.108 470.318 250.142 470.561 251.028 471.045C251.915 471.523 252.604 472.25 253.097 473.227C253.589 474.197 253.835 475.424 253.835 476.909V488H251.153V477.091C251.153 475.72 250.797 474.652 250.085 473.886C249.373 473.114 248.396 472.727 247.153 472.727C246.297 472.727 245.532 472.913 244.858 473.284C244.191 473.655 243.665 474.197 243.278 474.909C242.892 475.621 242.699 476.485 242.699 477.5ZM275.327 470.545V472.818H266.281V470.545H275.327ZM268.918 466.364H271.599V483C271.599 483.758 271.709 484.326 271.929 484.705C272.156 485.076 272.444 485.326 272.793 485.455C273.149 485.576 273.524 485.636 273.918 485.636C274.213 485.636 274.455 485.621 274.645 485.591C274.834 485.553 274.986 485.523 275.099 485.5L275.645 487.909C275.463 487.977 275.209 488.045 274.884 488.114C274.558 488.189 274.145 488.227 273.645 488.227C272.887 488.227 272.145 488.064 271.418 487.739C270.698 487.413 270.099 486.917 269.622 486.25C269.152 485.583 268.918 484.742 268.918 483.727V466.364ZM282.418 477.5V488H279.736V464.727H282.418V473.273H282.645C283.054 472.371 283.668 471.655 284.486 471.125C285.312 470.587 286.41 470.318 287.781 470.318C288.971 470.318 290.012 470.557 290.906 471.034C291.8 471.504 292.493 472.227 292.986 473.205C293.486 474.174 293.736 475.409 293.736 476.909V488H291.054V477.091C291.054 475.705 290.694 474.633 289.974 473.875C289.262 473.11 288.274 472.727 287.009 472.727C286.13 472.727 285.342 472.913 284.645 473.284C283.955 473.655 283.41 474.197 283.009 474.909C282.615 475.621 282.418 476.485 282.418 477.5ZM305.96 488.364C304.278 488.364 302.828 487.992 301.608 487.25C300.396 486.5 299.46 485.455 298.801 484.114C298.15 482.765 297.824 481.197 297.824 479.409C297.824 477.621 298.15 476.045 298.801 474.682C299.46 473.311 300.377 472.242 301.551 471.477C302.733 470.705 304.112 470.318 305.688 470.318C306.597 470.318 307.494 470.47 308.381 470.773C309.267 471.076 310.074 471.568 310.801 472.25C311.528 472.924 312.108 473.818 312.54 474.932C312.972 476.045 313.188 477.417 313.188 479.045V480.182H299.733V477.864H310.46C310.46 476.879 310.263 476 309.869 475.227C309.483 474.455 308.93 473.845 308.21 473.398C307.498 472.951 306.657 472.727 305.688 472.727C304.619 472.727 303.695 472.992 302.915 473.523C302.142 474.045 301.547 474.727 301.131 475.568C300.714 476.409 300.506 477.311 300.506 478.273V479.818C300.506 481.136 300.733 482.254 301.188 483.17C301.65 484.08 302.29 484.773 303.108 485.25C303.926 485.72 304.877 485.955 305.96 485.955C306.665 485.955 307.301 485.856 307.869 485.659C308.445 485.455 308.941 485.152 309.358 484.75C309.775 484.341 310.097 483.833 310.324 483.227L312.915 483.955C312.642 484.833 312.184 485.606 311.54 486.273C310.896 486.932 310.1 487.447 309.153 487.818C308.206 488.182 307.142 488.364 305.96 488.364ZM326.631 488V464.727H329.312V473.318H329.54C329.737 473.015 330.009 472.629 330.358 472.159C330.714 471.682 331.222 471.258 331.881 470.886C332.547 470.508 333.449 470.318 334.585 470.318C336.055 470.318 337.35 470.686 338.472 471.42C339.593 472.155 340.468 473.197 341.097 474.545C341.725 475.894 342.04 477.485 342.04 479.318C342.04 481.167 341.725 482.769 341.097 484.125C340.468 485.473 339.597 486.519 338.483 487.261C337.369 487.996 336.085 488.364 334.631 488.364C333.509 488.364 332.612 488.178 331.938 487.807C331.263 487.428 330.744 487 330.381 486.523C330.017 486.038 329.737 485.636 329.54 485.318H329.222V488H326.631ZM329.267 479.273C329.267 480.591 329.46 481.754 329.847 482.761C330.233 483.761 330.797 484.545 331.54 485.114C332.282 485.674 333.191 485.955 334.267 485.955C335.388 485.955 336.324 485.659 337.074 485.068C337.831 484.47 338.4 483.667 338.778 482.659C339.165 481.644 339.358 480.515 339.358 479.273C339.358 478.045 339.169 476.939 338.79 475.955C338.419 474.962 337.854 474.178 337.097 473.602C336.347 473.019 335.403 472.727 334.267 472.727C333.176 472.727 332.259 473.004 331.517 473.557C330.775 474.102 330.214 474.867 329.835 475.852C329.456 476.83 329.267 477.97 329.267 479.273ZM351.278 488.409C350.172 488.409 349.169 488.201 348.267 487.784C347.366 487.36 346.65 486.75 346.119 485.955C345.589 485.152 345.324 484.182 345.324 483.045C345.324 482.045 345.521 481.235 345.915 480.614C346.309 479.985 346.835 479.492 347.494 479.136C348.153 478.78 348.881 478.515 349.676 478.341C350.479 478.159 351.286 478.015 352.097 477.909C353.157 477.773 354.017 477.67 354.676 477.602C355.343 477.527 355.828 477.402 356.131 477.227C356.441 477.053 356.597 476.75 356.597 476.318V476.227C356.597 475.106 356.29 474.235 355.676 473.614C355.07 472.992 354.15 472.682 352.915 472.682C351.634 472.682 350.631 472.962 349.903 473.523C349.176 474.083 348.665 474.682 348.369 475.318L345.824 474.409C346.278 473.348 346.884 472.523 347.642 471.932C348.407 471.333 349.241 470.917 350.142 470.682C351.051 470.439 351.945 470.318 352.824 470.318C353.384 470.318 354.028 470.386 354.756 470.523C355.491 470.652 356.199 470.92 356.881 471.33C357.57 471.739 358.142 472.356 358.597 473.182C359.051 474.008 359.278 475.114 359.278 476.5V488H356.597V485.636H356.46C356.278 486.015 355.975 486.42 355.551 486.852C355.127 487.284 354.563 487.652 353.858 487.955C353.153 488.258 352.294 488.409 351.278 488.409ZM351.688 486C352.748 486 353.642 485.792 354.369 485.375C355.104 484.958 355.657 484.42 356.028 483.761C356.407 483.102 356.597 482.409 356.597 481.682V479.227C356.483 479.364 356.233 479.489 355.847 479.602C355.468 479.708 355.028 479.803 354.528 479.886C354.036 479.962 353.555 480.03 353.085 480.091C352.623 480.144 352.248 480.189 351.96 480.227C351.263 480.318 350.612 480.466 350.006 480.67C349.407 480.867 348.922 481.167 348.551 481.568C348.188 481.962 348.006 482.5 348.006 483.182C348.006 484.114 348.35 484.818 349.04 485.295C349.737 485.765 350.619 486 351.688 486ZM376.537 474.455L374.128 475.136C373.976 474.735 373.753 474.345 373.457 473.966C373.17 473.58 372.776 473.261 372.276 473.011C371.776 472.761 371.135 472.636 370.355 472.636C369.287 472.636 368.397 472.883 367.685 473.375C366.98 473.86 366.628 474.477 366.628 475.227C366.628 475.894 366.87 476.42 367.355 476.807C367.84 477.193 368.598 477.515 369.628 477.773L372.219 478.409C373.779 478.788 374.942 479.367 375.707 480.148C376.473 480.92 376.855 481.917 376.855 483.136C376.855 484.136 376.567 485.03 375.991 485.818C375.423 486.606 374.628 487.227 373.605 487.682C372.582 488.136 371.393 488.364 370.037 488.364C368.257 488.364 366.783 487.977 365.616 487.205C364.45 486.432 363.711 485.303 363.401 483.818L365.946 483.182C366.188 484.121 366.647 484.826 367.321 485.295C368.003 485.765 368.893 486 369.991 486C371.241 486 372.234 485.735 372.969 485.205C373.711 484.667 374.082 484.023 374.082 483.273C374.082 482.667 373.87 482.159 373.446 481.75C373.022 481.333 372.37 481.023 371.491 480.818L368.582 480.136C366.984 479.758 365.81 479.17 365.06 478.375C364.317 477.572 363.946 476.568 363.946 475.364C363.946 474.379 364.223 473.508 364.776 472.75C365.336 471.992 366.098 471.398 367.06 470.966C368.029 470.534 369.128 470.318 370.355 470.318C372.082 470.318 373.438 470.697 374.423 471.455C375.416 472.212 376.12 473.212 376.537 474.455ZM380.892 488V470.545H383.574V488H380.892ZM382.256 467.636C381.733 467.636 381.282 467.458 380.903 467.102C380.532 466.746 380.347 466.318 380.347 465.818C380.347 465.318 380.532 464.89 380.903 464.534C381.282 464.178 381.733 464 382.256 464C382.778 464 383.225 464.178 383.597 464.534C383.975 464.89 384.165 465.318 384.165 465.818C384.165 466.318 383.975 466.746 383.597 467.102C383.225 467.458 382.778 467.636 382.256 467.636ZM395.577 488.364C393.94 488.364 392.531 487.977 391.349 487.205C390.168 486.432 389.259 485.367 388.622 484.011C387.986 482.655 387.668 481.106 387.668 479.364C387.668 477.591 387.993 476.027 388.645 474.67C389.304 473.307 390.221 472.242 391.395 471.477C392.577 470.705 393.955 470.318 395.531 470.318C396.759 470.318 397.865 470.545 398.849 471C399.834 471.455 400.641 472.091 401.27 472.909C401.899 473.727 402.289 474.682 402.44 475.773H399.759C399.554 474.977 399.099 474.273 398.395 473.659C397.698 473.038 396.759 472.727 395.577 472.727C394.531 472.727 393.615 473 392.827 473.545C392.046 474.083 391.437 474.845 390.997 475.83C390.565 476.807 390.349 477.955 390.349 479.273C390.349 480.621 390.562 481.795 390.986 482.795C391.418 483.795 392.024 484.572 392.804 485.125C393.592 485.678 394.516 485.955 395.577 485.955C396.274 485.955 396.906 485.833 397.474 485.591C398.043 485.348 398.524 485 398.918 484.545C399.312 484.091 399.592 483.545 399.759 482.909H402.44C402.289 483.939 401.914 484.867 401.315 485.693C400.724 486.511 399.94 487.163 398.963 487.648C397.993 488.125 396.865 488.364 395.577 488.364ZM418.724 474.455L416.315 475.136C416.164 474.735 415.94 474.345 415.645 473.966C415.357 473.58 414.963 473.261 414.463 473.011C413.963 472.761 413.323 472.636 412.543 472.636C411.474 472.636 410.584 472.883 409.872 473.375C409.168 473.86 408.815 474.477 408.815 475.227C408.815 475.894 409.058 476.42 409.543 476.807C410.027 477.193 410.785 477.515 411.815 477.773L414.406 478.409C415.967 478.788 417.13 479.367 417.895 480.148C418.66 480.92 419.043 481.917 419.043 483.136C419.043 484.136 418.755 485.03 418.179 485.818C417.611 486.606 416.815 487.227 415.793 487.682C414.77 488.136 413.58 488.364 412.224 488.364C410.444 488.364 408.971 487.977 407.804 487.205C406.637 486.432 405.899 485.303 405.588 483.818L408.134 483.182C408.376 484.121 408.834 484.826 409.509 485.295C410.19 485.765 411.08 486 412.179 486C413.429 486 414.421 485.735 415.156 485.205C415.899 484.667 416.27 484.023 416.27 483.273C416.27 482.667 416.058 482.159 415.634 481.75C415.209 481.333 414.558 481.023 413.679 480.818L410.77 480.136C409.171 479.758 407.997 479.17 407.247 478.375C406.505 477.572 406.134 476.568 406.134 475.364C406.134 474.379 406.41 473.508 406.963 472.75C407.524 471.992 408.285 471.398 409.247 470.966C410.217 470.534 411.315 470.318 412.543 470.318C414.27 470.318 415.626 470.697 416.611 471.455C417.603 472.212 418.308 473.212 418.724 474.455ZM439.17 488.364C437.595 488.364 436.212 487.989 435.023 487.239C433.841 486.489 432.917 485.439 432.25 484.091C431.591 482.742 431.261 481.167 431.261 479.364C431.261 477.545 431.591 475.958 432.25 474.602C432.917 473.246 433.841 472.193 435.023 471.443C436.212 470.693 437.595 470.318 439.17 470.318C440.746 470.318 442.125 470.693 443.307 471.443C444.496 472.193 445.42 473.246 446.08 474.602C446.746 475.958 447.08 477.545 447.08 479.364C447.08 481.167 446.746 482.742 446.08 484.091C445.42 485.439 444.496 486.489 443.307 487.239C442.125 487.989 440.746 488.364 439.17 488.364ZM439.17 485.955C440.367 485.955 441.352 485.648 442.125 485.034C442.898 484.42 443.47 483.614 443.841 482.614C444.212 481.614 444.398 480.53 444.398 479.364C444.398 478.197 444.212 477.11 443.841 476.102C443.47 475.095 442.898 474.28 442.125 473.659C441.352 473.038 440.367 472.727 439.17 472.727C437.973 472.727 436.989 473.038 436.216 473.659C435.443 474.28 434.871 475.095 434.5 476.102C434.129 477.11 433.943 478.197 433.943 479.364C433.943 480.53 434.129 481.614 434.5 482.614C434.871 483.614 435.443 484.42 436.216 485.034C436.989 485.648 437.973 485.955 439.17 485.955ZM458.946 470.545V472.818H449.537V470.545H458.946ZM452.355 488V468.136C452.355 467.136 452.59 466.303 453.06 465.636C453.529 464.97 454.139 464.47 454.889 464.136C455.639 463.803 456.431 463.636 457.264 463.636C457.923 463.636 458.461 463.689 458.878 463.795C459.295 463.902 459.605 464 459.81 464.091L459.037 466.409C458.901 466.364 458.711 466.307 458.469 466.239C458.234 466.17 457.923 466.136 457.537 466.136C456.651 466.136 456.01 466.36 455.616 466.807C455.23 467.254 455.037 467.909 455.037 468.773V488H452.355ZM485.977 470.545L479.523 488H476.795L470.341 470.545H473.25L478.068 484.455H478.25L483.068 470.545H485.977ZM489.517 488V470.545H492.199V488H489.517ZM490.881 467.636C490.358 467.636 489.907 467.458 489.528 467.102C489.157 466.746 488.972 466.318 488.972 465.818C488.972 465.318 489.157 464.89 489.528 464.534C489.907 464.178 490.358 464 490.881 464C491.403 464 491.85 464.178 492.222 464.534C492.6 464.89 492.79 465.318 492.79 465.818C492.79 466.318 492.6 466.746 492.222 467.102C491.85 467.458 491.403 467.636 490.881 467.636ZM509.474 474.455L507.065 475.136C506.914 474.735 506.69 474.345 506.395 473.966C506.107 473.58 505.713 473.261 505.213 473.011C504.713 472.761 504.073 472.636 503.293 472.636C502.224 472.636 501.334 472.883 500.622 473.375C499.918 473.86 499.565 474.477 499.565 475.227C499.565 475.894 499.808 476.42 500.293 476.807C500.777 477.193 501.535 477.515 502.565 477.773L505.156 478.409C506.717 478.788 507.88 479.367 508.645 480.148C509.41 480.92 509.793 481.917 509.793 483.136C509.793 484.136 509.505 485.03 508.929 485.818C508.361 486.606 507.565 487.227 506.543 487.682C505.52 488.136 504.33 488.364 502.974 488.364C501.194 488.364 499.721 487.977 498.554 487.205C497.387 486.432 496.649 485.303 496.338 483.818L498.884 483.182C499.126 484.121 499.584 484.826 500.259 485.295C500.94 485.765 501.83 486 502.929 486C504.179 486 505.171 485.735 505.906 485.205C506.649 484.667 507.02 484.023 507.02 483.273C507.02 482.667 506.808 482.159 506.384 481.75C505.959 481.333 505.308 481.023 504.429 480.818L501.52 480.136C499.921 479.758 498.747 479.17 497.997 478.375C497.255 477.572 496.884 476.568 496.884 475.364C496.884 474.379 497.16 473.508 497.713 472.75C498.274 471.992 499.035 471.398 499.997 470.966C500.967 470.534 502.065 470.318 503.293 470.318C505.02 470.318 506.376 470.697 507.361 471.455C508.353 472.212 509.058 473.212 509.474 474.455ZM524.83 480.864V470.545H527.511V488H524.83V485.045H524.648C524.239 485.932 523.602 486.686 522.739 487.307C521.875 487.92 520.784 488.227 519.466 488.227C518.375 488.227 517.405 487.989 516.557 487.511C515.708 487.027 515.042 486.299 514.557 485.33C514.072 484.352 513.83 483.121 513.83 481.636V470.545H516.511V481.455C516.511 482.727 516.867 483.742 517.58 484.5C518.299 485.258 519.216 485.636 520.33 485.636C520.996 485.636 521.674 485.466 522.364 485.125C523.061 484.784 523.644 484.261 524.114 483.557C524.591 482.852 524.83 481.955 524.83 480.864ZM537.56 488.409C536.454 488.409 535.45 488.201 534.548 487.784C533.647 487.36 532.931 486.75 532.401 485.955C531.87 485.152 531.605 484.182 531.605 483.045C531.605 482.045 531.802 481.235 532.196 480.614C532.59 479.985 533.116 479.492 533.776 479.136C534.435 478.78 535.162 478.515 535.957 478.341C536.76 478.159 537.567 478.015 538.378 477.909C539.438 477.773 540.298 477.67 540.957 477.602C541.624 477.527 542.109 477.402 542.412 477.227C542.723 477.053 542.878 476.75 542.878 476.318V476.227C542.878 475.106 542.571 474.235 541.957 473.614C541.351 472.992 540.431 472.682 539.196 472.682C537.916 472.682 536.912 472.962 536.185 473.523C535.457 474.083 534.946 474.682 534.651 475.318L532.105 474.409C532.56 473.348 533.166 472.523 533.923 471.932C534.688 471.333 535.522 470.917 536.423 470.682C537.332 470.439 538.226 470.318 539.105 470.318C539.666 470.318 540.31 470.386 541.037 470.523C541.772 470.652 542.48 470.92 543.162 471.33C543.851 471.739 544.423 472.356 544.878 473.182C545.332 474.008 545.56 475.114 545.56 476.5V488H542.878V485.636H542.741C542.56 486.015 542.257 486.42 541.832 486.852C541.408 487.284 540.844 487.652 540.139 487.955C539.435 488.258 538.575 488.409 537.56 488.409ZM537.969 486C539.029 486 539.923 485.792 540.651 485.375C541.385 484.958 541.938 484.42 542.31 483.761C542.688 483.102 542.878 482.409 542.878 481.682V479.227C542.764 479.364 542.514 479.489 542.128 479.602C541.749 479.708 541.31 479.803 540.81 479.886C540.317 479.962 539.836 480.03 539.366 480.091C538.904 480.144 538.529 480.189 538.241 480.227C537.545 480.318 536.893 480.466 536.287 480.67C535.688 480.867 535.204 481.167 534.832 481.568C534.469 481.962 534.287 482.5 534.287 483.182C534.287 484.114 534.632 484.818 535.321 485.295C536.018 485.765 536.901 486 537.969 486ZM553.136 464.727V488H550.455V464.727H553.136ZM573.639 488.364C572.185 488.364 570.901 487.996 569.787 487.261C568.673 486.519 567.802 485.473 567.173 484.125C566.545 482.769 566.23 481.167 566.23 479.318C566.23 477.485 566.545 475.894 567.173 474.545C567.802 473.197 568.677 472.155 569.798 471.42C570.92 470.686 572.215 470.318 573.685 470.318C574.821 470.318 575.719 470.508 576.378 470.886C577.045 471.258 577.552 471.682 577.901 472.159C578.257 472.629 578.533 473.015 578.73 473.318H578.957V464.727H581.639V488H579.048V485.318H578.73C578.533 485.636 578.253 486.038 577.889 486.523C577.526 487 577.007 487.428 576.332 487.807C575.658 488.178 574.76 488.364 573.639 488.364ZM574.003 485.955C575.079 485.955 575.988 485.674 576.73 485.114C577.473 484.545 578.037 483.761 578.423 482.761C578.81 481.754 579.003 480.591 579.003 479.273C579.003 477.97 578.813 476.83 578.435 475.852C578.056 474.867 577.495 474.102 576.753 473.557C576.01 473.004 575.094 472.727 574.003 472.727C572.866 472.727 571.92 473.019 571.162 473.602C570.412 474.178 569.848 474.962 569.469 475.955C569.098 476.939 568.912 478.045 568.912 479.273C568.912 480.515 569.101 481.644 569.48 482.659C569.866 483.667 570.435 484.47 571.185 485.068C571.942 485.659 572.882 485.955 574.003 485.955ZM594.241 488.364C592.56 488.364 591.109 487.992 589.889 487.25C588.677 486.5 587.741 485.455 587.082 484.114C586.431 482.765 586.105 481.197 586.105 479.409C586.105 477.621 586.431 476.045 587.082 474.682C587.741 473.311 588.658 472.242 589.832 471.477C591.014 470.705 592.393 470.318 593.969 470.318C594.878 470.318 595.776 470.47 596.662 470.773C597.548 471.076 598.355 471.568 599.082 472.25C599.81 472.924 600.389 473.818 600.821 474.932C601.253 476.045 601.469 477.417 601.469 479.045V480.182H588.014V477.864H598.741C598.741 476.879 598.545 476 598.151 475.227C597.764 474.455 597.211 473.845 596.491 473.398C595.779 472.951 594.938 472.727 593.969 472.727C592.901 472.727 591.976 472.992 591.196 473.523C590.423 474.045 589.829 474.727 589.412 475.568C588.995 476.409 588.787 477.311 588.787 478.273V479.818C588.787 481.136 589.014 482.254 589.469 483.17C589.931 484.08 590.571 484.773 591.389 485.25C592.207 485.72 593.158 485.955 594.241 485.955C594.946 485.955 595.582 485.856 596.151 485.659C596.726 485.455 597.223 485.152 597.639 484.75C598.056 484.341 598.378 483.833 598.605 483.227L601.196 483.955C600.923 484.833 600.465 485.606 599.821 486.273C599.177 486.932 598.382 487.447 597.435 487.818C596.488 488.182 595.423 488.364 594.241 488.364ZM617.912 474.455L615.503 475.136C615.351 474.735 615.128 474.345 614.832 473.966C614.545 473.58 614.151 473.261 613.651 473.011C613.151 472.761 612.51 472.636 611.73 472.636C610.662 472.636 609.772 472.883 609.06 473.375C608.355 473.86 608.003 474.477 608.003 475.227C608.003 475.894 608.245 476.42 608.73 476.807C609.215 477.193 609.973 477.515 611.003 477.773L613.594 478.409C615.154 478.788 616.317 479.367 617.082 480.148C617.848 480.92 618.23 481.917 618.23 483.136C618.23 484.136 617.942 485.03 617.366 485.818C616.798 486.606 616.003 487.227 614.98 487.682C613.957 488.136 612.768 488.364 611.412 488.364C609.632 488.364 608.158 487.977 606.991 487.205C605.825 486.432 605.086 485.303 604.776 483.818L607.321 483.182C607.563 484.121 608.022 484.826 608.696 485.295C609.378 485.765 610.268 486 611.366 486C612.616 486 613.609 485.735 614.344 485.205C615.086 484.667 615.457 484.023 615.457 483.273C615.457 482.667 615.245 482.159 614.821 481.75C614.397 481.333 613.745 481.023 612.866 480.818L609.957 480.136C608.359 479.758 607.185 479.17 606.435 478.375C605.692 477.572 605.321 476.568 605.321 475.364C605.321 474.379 605.598 473.508 606.151 472.75C606.711 471.992 607.473 471.398 608.435 470.966C609.404 470.534 610.503 470.318 611.73 470.318C613.457 470.318 614.813 470.697 615.798 471.455C616.791 472.212 617.495 473.212 617.912 474.455ZM622.267 488V470.545H624.949V488H622.267ZM623.631 467.636C623.108 467.636 622.657 467.458 622.278 467.102C621.907 466.746 621.722 466.318 621.722 465.818C621.722 465.318 621.907 464.89 622.278 464.534C622.657 464.178 623.108 464 623.631 464C624.153 464 624.6 464.178 624.972 464.534C625.35 464.89 625.54 465.318 625.54 465.818C625.54 466.318 625.35 466.746 624.972 467.102C624.6 467.458 624.153 467.636 623.631 467.636ZM636.906 494.909C635.611 494.909 634.497 494.742 633.565 494.409C632.634 494.083 631.857 493.652 631.236 493.114C630.622 492.583 630.134 492.015 629.77 491.409L631.906 489.909C632.149 490.227 632.455 490.591 632.827 491C633.198 491.417 633.705 491.777 634.349 492.08C635.001 492.39 635.853 492.545 636.906 492.545C638.315 492.545 639.478 492.205 640.395 491.523C641.312 490.841 641.77 489.773 641.77 488.318V484.773H641.543C641.346 485.091 641.065 485.485 640.702 485.955C640.346 486.417 639.83 486.83 639.156 487.193C638.49 487.549 637.588 487.727 636.452 487.727C635.043 487.727 633.777 487.394 632.656 486.727C631.543 486.061 630.66 485.091 630.009 483.818C629.365 482.545 629.043 481 629.043 479.182C629.043 477.394 629.357 475.837 629.986 474.511C630.615 473.178 631.49 472.148 632.611 471.42C633.732 470.686 635.027 470.318 636.497 470.318C637.634 470.318 638.535 470.508 639.202 470.886C639.876 471.258 640.391 471.682 640.747 472.159C641.111 472.629 641.391 473.015 641.588 473.318H641.861V470.545H644.452V488.5C644.452 490 644.111 491.22 643.429 492.159C642.755 493.106 641.846 493.799 640.702 494.239C639.565 494.686 638.3 494.909 636.906 494.909ZM636.815 485.318C637.891 485.318 638.8 485.072 639.543 484.58C640.285 484.087 640.849 483.379 641.236 482.455C641.622 481.53 641.815 480.424 641.815 479.136C641.815 477.879 641.626 476.769 641.247 475.807C640.868 474.845 640.308 474.091 639.565 473.545C638.823 473 637.906 472.727 636.815 472.727C635.679 472.727 634.732 473.015 633.974 473.591C633.224 474.167 632.66 474.939 632.281 475.909C631.91 476.879 631.724 477.955 631.724 479.136C631.724 480.348 631.914 481.42 632.293 482.352C632.679 483.277 633.247 484.004 633.997 484.534C634.755 485.057 635.694 485.318 636.815 485.318ZM652.043 477.5V488H649.361V470.545H651.952V473.273H652.179C652.588 472.386 653.209 471.674 654.043 471.136C654.876 470.591 655.952 470.318 657.27 470.318C658.452 470.318 659.486 470.561 660.372 471.045C661.259 471.523 661.948 472.25 662.44 473.227C662.933 474.197 663.179 475.424 663.179 476.909V488H660.497V477.091C660.497 475.72 660.141 474.652 659.429 473.886C658.717 473.114 657.74 472.727 656.497 472.727C655.641 472.727 654.876 472.913 654.202 473.284C653.535 473.655 653.009 474.197 652.622 474.909C652.236 475.621 652.043 476.485 652.043 477.5Z" fill="#1A1A1A"/>
</svg>
