<svg width="800" height="600" viewBox="0 0 800 600" fill="none" xmlns="http://www.w3.org/2000/svg">
<rect width="800" height="600" fill="white"/>
<path d="M166.034 198V163.091H179.807C182.455 163.091 184.71 163.597 186.574 164.608C188.438 165.608 189.858 167 190.835 168.784C191.824 170.557 192.318 172.602 192.318 174.92C192.318 177.239 191.818 179.284 190.818 181.057C189.818 182.83 188.369 184.21 186.472 185.199C184.585 186.187 182.301 186.682 179.619 186.682H170.841V180.767H178.426C179.847 180.767 181.017 180.523 181.938 180.034C182.869 179.534 183.563 178.847 184.017 177.972C184.483 177.085 184.716 176.068 184.716 174.92C184.716 173.761 184.483 172.75 184.017 171.886C183.563 171.011 182.869 170.335 181.938 169.858C181.006 169.369 179.824 169.125 178.392 169.125H173.415V198H166.034ZM203.739 198.494C202.068 198.494 200.58 198.205 199.273 197.625C197.966 197.034 196.932 196.165 196.17 195.017C195.42 193.858 195.045 192.415 195.045 190.688C195.045 189.233 195.313 188.011 195.847 187.023C196.381 186.034 197.108 185.239 198.028 184.636C198.949 184.034 199.994 183.58 201.165 183.273C202.347 182.966 203.585 182.75 204.881 182.625C206.403 182.466 207.631 182.318 208.562 182.182C209.494 182.034 210.17 181.818 210.591 181.534C211.011 181.25 211.222 180.83 211.222 180.273V180.17C211.222 179.091 210.881 178.256 210.199 177.665C209.528 177.074 208.574 176.778 207.335 176.778C206.028 176.778 204.989 177.068 204.216 177.648C203.443 178.216 202.932 178.932 202.682 179.795L195.966 179.25C196.307 177.659 196.977 176.284 197.977 175.125C198.977 173.955 200.267 173.057 201.847 172.432C203.438 171.795 205.278 171.477 207.369 171.477C208.824 171.477 210.216 171.648 211.545 171.989C212.886 172.33 214.074 172.858 215.108 173.574C216.153 174.29 216.977 175.21 217.58 176.335C218.182 177.449 218.483 178.784 218.483 180.341V198H211.597V194.369H211.392C210.972 195.188 210.409 195.909 209.705 196.534C209 197.148 208.153 197.631 207.165 197.983C206.176 198.324 205.034 198.494 203.739 198.494ZM205.818 193.483C206.886 193.483 207.83 193.273 208.648 192.852C209.466 192.42 210.108 191.841 210.574 191.114C211.04 190.386 211.273 189.562 211.273 188.642V185.864C211.045 186.011 210.733 186.148 210.335 186.273C209.949 186.386 209.511 186.494 209.023 186.597C208.534 186.687 208.045 186.773 207.557 186.852C207.068 186.92 206.625 186.983 206.227 187.04C205.375 187.165 204.631 187.364 203.994 187.636C203.358 187.909 202.864 188.278 202.511 188.744C202.159 189.199 201.983 189.767 201.983 190.449C201.983 191.438 202.341 192.193 203.057 192.716C203.784 193.227 204.705 193.483 205.818 193.483ZM224.116 207.818V171.818H231.276V176.216H231.599C231.918 175.511 232.378 174.795 232.98 174.068C233.594 173.33 234.389 172.716 235.366 172.227C236.355 171.727 237.582 171.477 239.048 171.477C240.957 171.477 242.719 171.977 244.332 172.977C245.946 173.966 247.236 175.46 248.202 177.46C249.168 179.449 249.651 181.943 249.651 184.943C249.651 187.864 249.179 190.33 248.236 192.341C247.304 194.341 246.031 195.858 244.418 196.892C242.815 197.915 241.02 198.426 239.031 198.426C237.622 198.426 236.423 198.193 235.435 197.727C234.457 197.261 233.656 196.676 233.031 195.972C232.406 195.256 231.929 194.534 231.599 193.807H231.378V207.818H224.116ZM231.224 184.909C231.224 186.466 231.44 187.824 231.872 188.983C232.304 190.142 232.929 191.045 233.747 191.693C234.565 192.33 235.56 192.648 236.73 192.648C237.912 192.648 238.912 192.324 239.73 191.676C240.548 191.017 241.168 190.108 241.588 188.949C242.02 187.778 242.236 186.432 242.236 184.909C242.236 183.398 242.026 182.068 241.605 180.92C241.185 179.773 240.565 178.875 239.747 178.227C238.929 177.58 237.923 177.256 236.73 177.256C235.548 177.256 234.548 177.568 233.73 178.193C232.923 178.818 232.304 179.705 231.872 180.852C231.44 182 231.224 183.352 231.224 184.909ZM266.423 198.511C263.73 198.511 261.412 197.966 259.469 196.875C257.537 195.773 256.048 194.216 255.003 192.205C253.957 190.182 253.435 187.79 253.435 185.028C253.435 182.335 253.957 179.972 255.003 177.938C256.048 175.903 257.52 174.318 259.418 173.182C261.327 172.045 263.565 171.477 266.134 171.477C267.861 171.477 269.469 171.756 270.957 172.312C272.457 172.858 273.764 173.682 274.878 174.784C276.003 175.886 276.878 177.273 277.503 178.943C278.128 180.602 278.44 182.545 278.44 184.773V186.767H256.332V182.267H271.605C271.605 181.222 271.378 180.295 270.923 179.489C270.469 178.682 269.838 178.051 269.031 177.597C268.236 177.131 267.31 176.898 266.253 176.898C265.151 176.898 264.173 177.153 263.321 177.665C262.48 178.165 261.821 178.841 261.344 179.693C260.866 180.534 260.622 181.472 260.611 182.506V186.784C260.611 188.08 260.849 189.199 261.327 190.142C261.815 191.085 262.503 191.812 263.389 192.324C264.276 192.835 265.327 193.091 266.543 193.091C267.349 193.091 268.088 192.977 268.759 192.75C269.429 192.523 270.003 192.182 270.48 191.727C270.957 191.273 271.321 190.716 271.571 190.057L278.287 190.5C277.946 192.114 277.247 193.523 276.19 194.727C275.145 195.92 273.793 196.852 272.134 197.523C270.486 198.182 268.582 198.511 266.423 198.511ZM283.179 198V171.818H290.219V176.386H290.491C290.969 174.761 291.77 173.534 292.895 172.705C294.02 171.864 295.315 171.443 296.781 171.443C297.145 171.443 297.537 171.466 297.957 171.511C298.378 171.557 298.747 171.619 299.065 171.699V178.142C298.724 178.04 298.253 177.949 297.651 177.869C297.048 177.79 296.497 177.75 295.997 177.75C294.929 177.75 293.974 177.983 293.134 178.449C292.304 178.903 291.645 179.54 291.156 180.358C290.679 181.176 290.44 182.119 290.44 183.188V198H283.179ZM343.264 163.091V198H336.889L321.702 176.028H321.446V198H314.065V163.091H320.543L335.611 185.045H335.918V163.091H343.264ZM356.692 198.494C355.021 198.494 353.533 198.205 352.226 197.625C350.919 197.034 349.885 196.165 349.124 195.017C348.374 193.858 347.999 192.415 347.999 190.688C347.999 189.233 348.266 188.011 348.8 187.023C349.334 186.034 350.061 185.239 350.982 184.636C351.902 184.034 352.947 183.58 354.118 183.273C355.3 182.966 356.538 182.75 357.834 182.625C359.357 182.466 360.584 182.318 361.516 182.182C362.447 182.034 363.124 181.818 363.544 181.534C363.964 181.25 364.175 180.83 364.175 180.273V180.17C364.175 179.091 363.834 178.256 363.152 177.665C362.482 177.074 361.527 176.778 360.288 176.778C358.982 176.778 357.942 177.068 357.169 177.648C356.396 178.216 355.885 178.932 355.635 179.795L348.919 179.25C349.26 177.659 349.93 176.284 350.93 175.125C351.93 173.955 353.22 173.057 354.8 172.432C356.391 171.795 358.232 171.477 360.322 171.477C361.777 171.477 363.169 171.648 364.499 171.989C365.839 172.33 367.027 172.858 368.061 173.574C369.107 174.29 369.93 175.21 370.533 176.335C371.135 177.449 371.436 178.784 371.436 180.341V198H364.55V194.369H364.345C363.925 195.188 363.362 195.909 362.658 196.534C361.953 197.148 361.107 197.631 360.118 197.983C359.129 198.324 357.987 198.494 356.692 198.494ZM358.771 193.483C359.839 193.483 360.783 193.273 361.601 192.852C362.419 192.42 363.061 191.841 363.527 191.114C363.993 190.386 364.226 189.562 364.226 188.642V185.864C363.999 186.011 363.686 186.148 363.288 186.273C362.902 186.386 362.464 186.494 361.976 186.597C361.487 186.687 360.999 186.773 360.51 186.852C360.021 186.92 359.578 186.983 359.18 187.04C358.328 187.165 357.584 187.364 356.947 187.636C356.311 187.909 355.817 188.278 355.464 188.744C355.112 189.199 354.936 189.767 354.936 190.449C354.936 191.438 355.294 192.193 356.01 192.716C356.737 193.227 357.658 193.483 358.771 193.483ZM377.07 198V171.818H383.99V176.438H384.297C384.842 174.903 385.751 173.693 387.024 172.807C388.297 171.92 389.82 171.477 391.592 171.477C393.388 171.477 394.916 171.926 396.178 172.824C397.439 173.71 398.28 174.915 398.7 176.438H398.973C399.507 174.938 400.473 173.739 401.871 172.841C403.28 171.932 404.945 171.477 406.865 171.477C409.308 171.477 411.291 172.256 412.814 173.812C414.348 175.358 415.115 177.551 415.115 180.392V198H407.871V181.824C407.871 180.369 407.484 179.278 406.712 178.551C405.939 177.824 404.973 177.46 403.814 177.46C402.496 177.46 401.467 177.881 400.729 178.722C399.99 179.551 399.621 180.648 399.621 182.011V198H392.581V181.67C392.581 180.386 392.212 179.364 391.473 178.602C390.746 177.841 389.786 177.46 388.592 177.46C387.786 177.46 387.058 177.665 386.411 178.074C385.774 178.472 385.268 179.034 384.893 179.761C384.518 180.477 384.331 181.318 384.331 182.284V198H377.07ZM432.783 198.511C430.089 198.511 427.771 197.966 425.828 196.875C423.896 195.773 422.408 194.216 421.362 192.205C420.317 190.182 419.794 187.79 419.794 185.028C419.794 182.335 420.317 179.972 421.362 177.938C422.408 175.903 423.879 174.318 425.777 173.182C427.686 172.045 429.925 171.477 432.493 171.477C434.22 171.477 435.828 171.756 437.317 172.312C438.817 172.858 440.124 173.682 441.237 174.784C442.362 175.886 443.237 177.273 443.862 178.943C444.487 180.602 444.8 182.545 444.8 184.773V186.767H422.692V182.267H437.964C437.964 181.222 437.737 180.295 437.283 179.489C436.828 178.682 436.197 178.051 435.391 177.597C434.595 177.131 433.669 176.898 432.612 176.898C431.51 176.898 430.533 177.153 429.68 177.665C428.839 178.165 428.18 178.841 427.703 179.693C427.226 180.534 426.982 181.472 426.97 182.506V186.784C426.97 188.08 427.209 189.199 427.686 190.142C428.175 191.085 428.862 191.812 429.749 192.324C430.635 192.835 431.686 193.091 432.902 193.091C433.709 193.091 434.447 192.977 435.118 192.75C435.788 192.523 436.362 192.182 436.839 191.727C437.317 191.273 437.68 190.716 437.93 190.057L444.646 190.5C444.305 192.114 443.607 193.523 442.55 194.727C441.504 195.92 440.152 196.852 438.493 197.523C436.845 198.182 434.942 198.511 432.783 198.511Z" fill="#1A1A1A"/>
<path d="M164.739 244.631V241.818H184.375V244.631H176.142V268H172.972V244.631H164.739ZM191.876 256.188V268H188.859V241.818H191.876V251.432H192.132C192.592 250.418 193.282 249.612 194.203 249.016C195.132 248.411 196.368 248.108 197.91 248.108C199.248 248.108 200.42 248.376 201.426 248.913C202.431 249.442 203.211 250.256 203.765 251.355C204.328 252.446 204.609 253.835 204.609 255.523V268H201.592V255.727C201.592 254.168 201.187 252.962 200.377 252.109C199.576 251.249 198.464 250.818 197.041 250.818C196.052 250.818 195.166 251.027 194.382 251.445C193.606 251.862 192.993 252.472 192.541 253.273C192.098 254.074 191.876 255.045 191.876 256.188ZM218.362 268.409C216.469 268.409 214.837 267.991 213.465 267.156C212.102 266.312 211.049 265.136 210.308 263.628C209.575 262.111 209.208 260.347 209.208 258.335C209.208 256.324 209.575 254.551 210.308 253.017C211.049 251.474 212.08 250.273 213.401 249.412C214.731 248.543 216.282 248.108 218.055 248.108C219.077 248.108 220.087 248.278 221.085 248.619C222.082 248.96 222.989 249.514 223.808 250.281C224.626 251.04 225.278 252.045 225.763 253.298C226.249 254.551 226.492 256.094 226.492 257.926V259.205H211.356V256.597H223.424C223.424 255.489 223.202 254.5 222.759 253.631C222.325 252.761 221.702 252.075 220.893 251.572C220.092 251.07 219.146 250.818 218.055 250.818C216.853 250.818 215.813 251.116 214.935 251.713C214.066 252.301 213.397 253.068 212.928 254.014C212.46 254.96 212.225 255.974 212.225 257.057V258.795C212.225 260.278 212.481 261.536 212.992 262.567C213.512 263.589 214.232 264.369 215.153 264.906C216.073 265.435 217.143 265.699 218.362 265.699C219.154 265.699 219.87 265.588 220.509 265.366C221.157 265.136 221.715 264.795 222.184 264.344C222.653 263.884 223.015 263.312 223.271 262.631L226.185 263.449C225.879 264.438 225.363 265.307 224.638 266.057C223.914 266.798 223.019 267.378 221.954 267.795C220.888 268.205 219.691 268.409 218.362 268.409ZM241.616 268V241.818H244.633V251.483H244.888C245.11 251.142 245.417 250.707 245.809 250.179C246.21 249.642 246.781 249.165 247.522 248.747C248.272 248.321 249.286 248.108 250.565 248.108C252.218 248.108 253.675 248.521 254.937 249.348C256.198 250.175 257.183 251.347 257.89 252.864C258.597 254.381 258.951 256.17 258.951 258.233C258.951 260.312 258.597 262.115 257.89 263.641C257.183 265.158 256.202 266.334 254.95 267.169C253.697 267.996 252.252 268.409 250.616 268.409C249.354 268.409 248.344 268.2 247.586 267.783C246.827 267.357 246.244 266.875 245.835 266.338C245.425 265.793 245.11 265.341 244.888 264.983H244.531V268H241.616ZM244.582 258.182C244.582 259.665 244.799 260.973 245.234 262.107C245.668 263.232 246.303 264.114 247.138 264.753C247.974 265.384 248.996 265.699 250.207 265.699C251.468 265.699 252.521 265.366 253.364 264.702C254.217 264.028 254.856 263.125 255.282 261.991C255.717 260.849 255.934 259.58 255.934 258.182C255.934 256.801 255.721 255.557 255.295 254.449C254.877 253.332 254.242 252.45 253.39 251.803C252.546 251.146 251.485 250.818 250.207 250.818C248.979 250.818 247.948 251.129 247.113 251.751C246.278 252.365 245.647 253.226 245.221 254.334C244.795 255.433 244.582 256.716 244.582 258.182ZM271.799 268.409C269.907 268.409 268.275 267.991 266.903 267.156C265.539 266.312 264.487 265.136 263.745 263.628C263.012 262.111 262.646 260.347 262.646 258.335C262.646 256.324 263.012 254.551 263.745 253.017C264.487 251.474 265.518 250.273 266.839 249.412C268.168 248.543 269.719 248.108 271.492 248.108C272.515 248.108 273.525 248.278 274.522 248.619C275.519 248.96 276.427 249.514 277.245 250.281C278.063 251.04 278.715 252.045 279.201 253.298C279.687 254.551 279.93 256.094 279.93 257.926V259.205H264.793V256.597H276.862C276.862 255.489 276.64 254.5 276.197 253.631C275.762 252.761 275.14 252.075 274.33 251.572C273.529 251.07 272.583 250.818 271.492 250.818C270.29 250.818 269.251 251.116 268.373 251.713C267.504 252.301 266.835 253.068 266.366 254.014C265.897 254.96 265.663 255.974 265.663 257.057V258.795C265.663 260.278 265.918 261.536 266.43 262.567C266.95 263.589 267.67 264.369 268.59 264.906C269.511 265.435 270.58 265.699 271.799 265.699C272.592 265.699 273.308 265.588 273.947 265.366C274.594 265.136 275.153 264.795 275.621 264.344C276.09 263.884 276.452 263.312 276.708 262.631L279.623 263.449C279.316 264.438 278.8 265.307 278.076 266.057C277.352 266.798 276.457 267.378 275.391 267.795C274.326 268.205 273.129 268.409 271.799 268.409ZM298.428 252.761L295.718 253.528C295.548 253.077 295.296 252.638 294.964 252.212C294.64 251.777 294.197 251.419 293.634 251.138C293.072 250.857 292.352 250.716 291.474 250.716C290.272 250.716 289.271 250.993 288.469 251.547C287.677 252.092 287.281 252.787 287.281 253.631C287.281 254.381 287.553 254.973 288.099 255.408C288.644 255.842 289.496 256.205 290.656 256.494L293.57 257.21C295.326 257.636 296.634 258.288 297.495 259.166C298.356 260.036 298.786 261.156 298.786 262.528C298.786 263.653 298.462 264.659 297.815 265.545C297.175 266.432 296.281 267.131 295.13 267.642C293.979 268.153 292.641 268.409 291.116 268.409C289.113 268.409 287.455 267.974 286.143 267.105C284.83 266.236 283.999 264.966 283.65 263.295L286.513 262.58C286.786 263.636 287.302 264.429 288.06 264.957C288.827 265.486 289.829 265.75 291.065 265.75C292.471 265.75 293.587 265.452 294.414 264.855C295.249 264.25 295.667 263.526 295.667 262.682C295.667 262 295.428 261.429 294.951 260.969C294.474 260.5 293.741 260.151 292.752 259.92L289.479 259.153C287.681 258.727 286.36 258.067 285.516 257.172C284.681 256.268 284.263 255.139 284.263 253.784C284.263 252.676 284.575 251.696 285.197 250.844C285.827 249.991 286.684 249.322 287.766 248.837C288.857 248.351 290.093 248.108 291.474 248.108C293.417 248.108 294.942 248.534 296.05 249.386C297.167 250.239 297.96 251.364 298.428 252.761ZM311.868 248.364V250.92H301.691V248.364H311.868ZM304.657 243.659H307.674V262.375C307.674 263.227 307.798 263.866 308.045 264.293C308.301 264.71 308.625 264.991 309.017 265.136C309.417 265.273 309.839 265.341 310.282 265.341C310.615 265.341 310.887 265.324 311.1 265.29C311.314 265.247 311.484 265.213 311.612 265.188L312.225 267.898C312.021 267.974 311.735 268.051 311.369 268.128C311.002 268.213 310.538 268.256 309.975 268.256C309.123 268.256 308.288 268.072 307.47 267.706C306.66 267.339 305.987 266.781 305.45 266.031C304.922 265.281 304.657 264.335 304.657 263.193V243.659ZM326.531 275.364V248.364H329.446V251.483H329.804C330.025 251.142 330.332 250.707 330.724 250.179C331.125 249.642 331.696 249.165 332.437 248.747C333.187 248.321 334.201 248.108 335.48 248.108C337.133 248.108 338.591 248.521 339.852 249.348C341.113 250.175 342.098 251.347 342.805 252.864C343.512 254.381 343.866 256.17 343.866 258.233C343.866 260.312 343.512 262.115 342.805 263.641C342.098 265.158 341.118 266.334 339.865 267.169C338.612 267.996 337.167 268.409 335.531 268.409C334.27 268.409 333.26 268.2 332.501 267.783C331.743 267.357 331.159 266.875 330.75 266.338C330.341 265.793 330.025 265.341 329.804 264.983H329.548V275.364H326.531ZM329.497 258.182C329.497 259.665 329.714 260.973 330.149 262.107C330.583 263.232 331.218 264.114 332.054 264.753C332.889 265.384 333.912 265.699 335.122 265.699C336.383 265.699 337.436 265.366 338.279 264.702C339.132 264.028 339.771 263.125 340.197 261.991C340.632 260.849 340.849 259.58 340.849 258.182C340.849 256.801 340.636 255.557 340.21 254.449C339.792 253.332 339.157 252.45 338.305 251.803C337.461 251.146 336.4 250.818 335.122 250.818C333.895 250.818 332.863 251.129 332.028 251.751C331.193 252.365 330.562 253.226 330.136 254.334C329.71 255.433 329.497 256.716 329.497 258.182ZM354.247 268.46C353.002 268.46 351.873 268.226 350.859 267.757C349.845 267.28 349.039 266.594 348.443 265.699C347.846 264.795 347.548 263.705 347.548 262.426C347.548 261.301 347.77 260.389 348.213 259.69C348.656 258.983 349.248 258.429 349.99 258.028C350.731 257.628 351.549 257.33 352.444 257.134C353.348 256.929 354.255 256.767 355.167 256.648C356.36 256.494 357.328 256.379 358.069 256.303C358.819 256.217 359.365 256.077 359.706 255.881C360.055 255.685 360.23 255.344 360.23 254.858V254.756C360.23 253.494 359.885 252.514 359.194 251.815C358.512 251.116 357.477 250.767 356.088 250.767C354.647 250.767 353.518 251.082 352.7 251.713C351.882 252.344 351.306 253.017 350.974 253.733L348.11 252.71C348.622 251.517 349.304 250.588 350.156 249.923C351.017 249.25 351.954 248.781 352.968 248.517C353.991 248.244 354.997 248.108 355.985 248.108C356.616 248.108 357.341 248.185 358.159 248.338C358.985 248.483 359.782 248.786 360.549 249.246C361.325 249.706 361.968 250.401 362.48 251.33C362.991 252.259 363.247 253.503 363.247 255.062V268H360.23V265.341H360.076C359.872 265.767 359.531 266.223 359.054 266.709C358.576 267.195 357.941 267.608 357.149 267.949C356.356 268.29 355.389 268.46 354.247 268.46ZM354.707 265.75C355.9 265.75 356.906 265.516 357.724 265.047C358.551 264.578 359.173 263.973 359.591 263.232C360.017 262.49 360.23 261.71 360.23 260.892V258.131C360.102 258.284 359.821 258.425 359.386 258.553C358.96 258.672 358.466 258.778 357.903 258.872C357.349 258.957 356.808 259.034 356.279 259.102C355.76 259.162 355.338 259.213 355.014 259.256C354.23 259.358 353.497 259.524 352.815 259.754C352.142 259.976 351.596 260.312 351.179 260.764C350.77 261.207 350.565 261.812 350.565 262.58C350.565 263.628 350.953 264.42 351.728 264.957C352.512 265.486 353.505 265.75 354.707 265.75ZM368.754 275.364V248.364H371.668V251.483H372.026C372.248 251.142 372.555 250.707 372.947 250.179C373.347 249.642 373.918 249.165 374.66 248.747C375.41 248.321 376.424 248.108 377.702 248.108C379.356 248.108 380.813 248.521 382.075 249.348C383.336 250.175 384.32 251.347 385.028 252.864C385.735 254.381 386.089 256.17 386.089 258.233C386.089 260.312 385.735 262.115 385.028 263.641C384.32 265.158 383.34 266.334 382.087 267.169C380.835 267.996 379.39 268.409 377.754 268.409C376.492 268.409 375.482 268.2 374.724 267.783C373.965 267.357 373.381 266.875 372.972 266.338C372.563 265.793 372.248 265.341 372.026 264.983H371.771V275.364H368.754ZM371.719 258.182C371.719 259.665 371.937 260.973 372.371 262.107C372.806 263.232 373.441 264.114 374.276 264.753C375.112 265.384 376.134 265.699 377.344 265.699C378.606 265.699 379.658 265.366 380.502 264.702C381.354 264.028 381.994 263.125 382.42 261.991C382.854 260.849 383.072 259.58 383.072 258.182C383.072 256.801 382.859 255.557 382.433 254.449C382.015 253.332 381.38 252.45 380.528 251.803C379.684 251.146 378.623 250.818 377.344 250.818C376.117 250.818 375.086 251.129 374.251 251.751C373.415 252.365 372.785 253.226 372.359 254.334C371.933 255.433 371.719 256.716 371.719 258.182ZM398.924 268.409C397.032 268.409 395.4 267.991 394.028 267.156C392.664 266.312 391.612 265.136 390.87 263.628C390.137 262.111 389.771 260.347 389.771 258.335C389.771 256.324 390.137 254.551 390.87 253.017C391.612 251.474 392.643 250.273 393.964 249.412C395.293 248.543 396.844 248.108 398.617 248.108C399.64 248.108 400.65 248.278 401.647 248.619C402.644 248.96 403.552 249.514 404.37 250.281C405.188 251.04 405.84 252.045 406.326 253.298C406.812 254.551 407.055 256.094 407.055 257.926V259.205H391.918V256.597H403.987C403.987 255.489 403.765 254.5 403.322 253.631C402.887 252.761 402.265 252.075 401.455 251.572C400.654 251.07 399.708 250.818 398.617 250.818C397.415 250.818 396.376 251.116 395.498 251.713C394.629 252.301 393.96 253.068 393.491 254.014C393.022 254.96 392.788 255.974 392.788 257.057V258.795C392.788 260.278 393.043 261.536 393.555 262.567C394.075 263.589 394.795 264.369 395.715 264.906C396.636 265.435 397.705 265.699 398.924 265.699C399.717 265.699 400.433 265.588 401.072 265.366C401.719 265.136 402.278 264.795 402.746 264.344C403.215 263.884 403.577 263.312 403.833 262.631L406.748 263.449C406.441 264.438 405.925 265.307 405.201 266.057C404.477 266.798 403.582 267.378 402.516 267.795C401.451 268.205 400.254 268.409 398.924 268.409ZM411.644 268V248.364H414.559V251.33H414.763C415.121 250.358 415.769 249.57 416.707 248.964C417.644 248.359 418.701 248.057 419.877 248.057C420.099 248.057 420.376 248.061 420.708 248.07C421.04 248.078 421.292 248.091 421.462 248.108V251.176C421.36 251.151 421.126 251.112 420.759 251.061C420.401 251.001 420.022 250.972 419.621 250.972C418.667 250.972 417.815 251.172 417.065 251.572C416.323 251.964 415.735 252.51 415.3 253.209C414.874 253.899 414.661 254.687 414.661 255.574V268H411.644ZM443.397 268.409C441.505 268.409 439.873 267.991 438.5 267.156C437.137 266.312 436.084 265.136 435.343 263.628C434.61 262.111 434.243 260.347 434.243 258.335C434.243 256.324 434.61 254.551 435.343 253.017C436.084 251.474 437.115 250.273 438.436 249.412C439.766 248.543 441.317 248.108 443.09 248.108C444.113 248.108 445.123 248.278 446.12 248.619C447.117 248.96 448.025 249.514 448.843 250.281C449.661 251.04 450.313 252.045 450.799 253.298C451.284 254.551 451.527 256.094 451.527 257.926V259.205H436.391V256.597H448.459C448.459 255.489 448.238 254.5 447.794 253.631C447.36 252.761 446.738 252.075 445.928 251.572C445.127 251.07 444.181 250.818 443.09 250.818C441.888 250.818 440.848 251.116 439.971 251.713C439.101 252.301 438.432 253.068 437.963 254.014C437.495 254.96 437.26 255.974 437.26 257.057V258.795C437.26 260.278 437.516 261.536 438.027 262.567C438.547 263.589 439.267 264.369 440.188 264.906C441.108 265.435 442.178 265.699 443.397 265.699C444.189 265.699 444.905 265.588 445.544 265.366C446.192 265.136 446.75 264.795 447.219 264.344C447.688 263.884 448.05 263.312 448.306 262.631L451.221 263.449C450.914 264.438 450.398 265.307 449.674 266.057C448.949 266.798 448.054 267.378 446.989 267.795C445.924 268.205 444.726 268.409 443.397 268.409ZM471.576 248.364L464.315 268H461.246L453.985 248.364H457.258L462.678 264.011H462.883L468.303 248.364H471.576ZM483.088 268.409C481.196 268.409 479.564 267.991 478.192 267.156C476.828 266.312 475.776 265.136 475.034 263.628C474.301 262.111 473.935 260.347 473.935 258.335C473.935 256.324 474.301 254.551 475.034 253.017C475.776 251.474 476.807 250.273 478.128 249.412C479.457 248.543 481.009 248.108 482.781 248.108C483.804 248.108 484.814 248.278 485.811 248.619C486.808 248.96 487.716 249.514 488.534 250.281C489.352 251.04 490.004 252.045 490.49 253.298C490.976 254.551 491.219 256.094 491.219 257.926V259.205H476.082V256.597H488.151C488.151 255.489 487.929 254.5 487.486 253.631C487.051 252.761 486.429 252.075 485.619 251.572C484.818 251.07 483.872 250.818 482.781 250.818C481.58 250.818 480.54 251.116 479.662 251.713C478.793 252.301 478.124 253.068 477.655 254.014C477.186 254.96 476.952 255.974 476.952 257.057V258.795C476.952 260.278 477.207 261.536 477.719 262.567C478.239 263.589 478.959 264.369 479.879 264.906C480.8 265.435 481.869 265.699 483.088 265.699C483.881 265.699 484.597 265.588 485.236 265.366C485.884 265.136 486.442 264.795 486.911 264.344C487.379 263.884 487.741 263.312 487.997 262.631L490.912 263.449C490.605 264.438 490.089 265.307 489.365 266.057C488.641 266.798 487.746 267.378 486.68 267.795C485.615 268.205 484.418 268.409 483.088 268.409ZM495.808 268V248.364H498.723V251.33H498.928C499.286 250.358 499.933 249.57 500.871 248.964C501.808 248.359 502.865 248.057 504.041 248.057C504.263 248.057 504.54 248.061 504.872 248.07C505.205 248.078 505.456 248.091 505.626 248.108V251.176C505.524 251.151 505.29 251.112 504.923 251.061C504.565 251.001 504.186 250.972 503.786 250.972C502.831 250.972 501.979 251.172 501.229 251.572C500.487 251.964 499.899 252.51 499.464 253.209C499.038 253.899 498.825 254.687 498.825 255.574V268H495.808ZM523.777 268L517.794 248.364H520.964L525.208 263.398H525.413L529.606 248.364H532.828L536.97 263.347H537.174L541.419 248.364H544.589L538.606 268H535.64L531.345 252.915H531.038L526.743 268H523.777ZM548.578 268V248.364H551.493V251.33H551.697C552.055 250.358 552.703 249.57 553.64 248.964C554.578 248.359 555.635 248.057 556.811 248.057C557.032 248.057 557.309 248.061 557.642 248.07C557.974 248.078 558.225 248.091 558.396 248.108V251.176C558.294 251.151 558.059 251.112 557.693 251.061C557.335 251.001 556.956 250.972 556.555 250.972C555.6 250.972 554.748 251.172 553.998 251.572C553.257 251.964 552.669 252.51 552.234 253.209C551.808 253.899 551.595 254.687 551.595 255.574V268H548.578ZM561.972 268V248.364H564.989V268H561.972ZM563.506 245.091C562.918 245.091 562.411 244.891 561.985 244.49C561.567 244.089 561.359 243.608 561.359 243.045C561.359 242.483 561.567 242.001 561.985 241.601C562.411 241.2 562.918 241 563.506 241C564.094 241 564.597 241.2 565.015 241.601C565.441 242.001 565.654 242.483 565.654 243.045C565.654 243.608 565.441 244.089 565.015 244.49C564.597 244.891 564.094 245.091 563.506 245.091ZM579.055 248.364V250.92H568.879V248.364H579.055ZM571.845 243.659H574.862V262.375C574.862 263.227 574.985 263.866 575.233 264.293C575.488 264.71 575.812 264.991 576.204 265.136C576.605 265.273 577.027 265.341 577.47 265.341C577.802 265.341 578.075 265.324 578.288 265.29C578.501 265.247 578.672 265.213 578.799 265.188L579.413 267.898C579.208 267.974 578.923 268.051 578.556 268.128C578.19 268.213 577.725 268.256 577.163 268.256C576.311 268.256 575.475 268.072 574.657 267.706C573.848 267.339 573.174 266.781 572.637 266.031C572.109 265.281 571.845 264.335 571.845 263.193V243.659ZM592.133 248.364V250.92H581.957V248.364H592.133ZM584.923 243.659H587.94V262.375C587.94 263.227 588.064 263.866 588.311 264.293C588.566 264.71 588.89 264.991 589.282 265.136C589.683 265.273 590.105 265.341 590.548 265.341C590.88 265.341 591.153 265.324 591.366 265.29C591.579 265.247 591.75 265.213 591.877 265.188L592.491 267.898C592.287 267.974 592.001 268.051 591.635 268.128C591.268 268.213 590.804 268.256 590.241 268.256C589.389 268.256 588.554 268.072 587.735 267.706C586.926 267.339 586.252 266.781 585.716 266.031C585.187 265.281 584.923 264.335 584.923 263.193V243.659ZM604.694 268.409C602.801 268.409 601.169 267.991 599.797 267.156C598.434 266.312 597.381 265.136 596.64 263.628C595.907 262.111 595.54 260.347 595.54 258.335C595.54 256.324 595.907 254.551 596.64 253.017C597.381 251.474 598.412 250.273 599.733 249.412C601.063 248.543 602.614 248.108 604.387 248.108C605.409 248.108 606.419 248.278 607.417 248.619C608.414 248.96 609.321 249.514 610.14 250.281C610.958 251.04 611.61 252.045 612.096 253.298C612.581 254.551 612.824 256.094 612.824 257.926V259.205H597.688V256.597H609.756C609.756 255.489 609.534 254.5 609.091 253.631C608.657 252.761 608.034 252.075 607.225 251.572C606.424 251.07 605.478 250.818 604.387 250.818C603.185 250.818 602.145 251.116 601.267 251.713C600.398 252.301 599.729 253.068 599.26 254.014C598.792 254.96 598.557 255.974 598.557 257.057V258.795C598.557 260.278 598.813 261.536 599.324 262.567C599.844 263.589 600.564 264.369 601.485 264.906C602.405 265.435 603.475 265.699 604.694 265.699C605.486 265.699 606.202 265.588 606.841 265.366C607.489 265.136 608.047 264.795 608.516 264.344C608.985 263.884 609.347 263.312 609.603 262.631L612.517 263.449C612.211 264.438 611.695 265.307 610.971 266.057C610.246 266.798 609.351 267.378 608.286 267.795C607.221 268.205 606.023 268.409 604.694 268.409ZM620.431 256.188V268H617.414V248.364H620.328V251.432H620.584C621.044 250.435 621.743 249.634 622.681 249.028C623.618 248.415 624.828 248.108 626.311 248.108C627.641 248.108 628.804 248.381 629.801 248.926C630.799 249.463 631.574 250.281 632.128 251.381C632.682 252.472 632.959 253.852 632.959 255.523V268H629.942V255.727C629.942 254.185 629.542 252.983 628.74 252.122C627.939 251.253 626.84 250.818 625.442 250.818C624.479 250.818 623.618 251.027 622.86 251.445C622.11 251.862 621.517 252.472 621.083 253.273C620.648 254.074 620.431 255.045 620.431 256.188Z" fill="#1A1A1A"/>
<rect x="147.5" y="141.5" width="504" height="147" rx="7.5" stroke="#1A1A1A"/>
<path d="M166.301 375H163.716L171.193 354.636H173.739L181.216 375H178.631L172.545 357.858H172.386L166.301 375ZM167.256 367.045H177.676V369.233H167.256V367.045ZM193.695 368.756V359.727H196.041V375H193.695V372.415H193.536C193.178 373.19 192.621 373.85 191.865 374.393C191.109 374.93 190.155 375.199 189.001 375.199C188.047 375.199 187.198 374.99 186.456 374.572C185.714 374.148 185.13 373.512 184.706 372.663C184.282 371.808 184.07 370.731 184.07 369.432V359.727H186.416V369.273C186.416 370.386 186.728 371.275 187.351 371.938C187.981 372.6 188.783 372.932 189.757 372.932C190.34 372.932 190.934 372.783 191.537 372.484C192.147 372.186 192.657 371.729 193.068 371.112C193.486 370.496 193.695 369.71 193.695 368.756ZM206.981 359.727V361.716H199.066V359.727H206.981ZM201.373 356.068H203.72V370.625C203.72 371.288 203.816 371.785 204.008 372.116C204.207 372.441 204.459 372.66 204.764 372.773C205.075 372.879 205.404 372.932 205.748 372.932C206.007 372.932 206.219 372.919 206.385 372.892C206.55 372.859 206.683 372.832 206.782 372.812L207.26 374.92C207.1 374.98 206.878 375.04 206.593 375.099C206.308 375.166 205.947 375.199 205.51 375.199C204.847 375.199 204.197 375.056 203.561 374.771C202.931 374.486 202.407 374.052 201.99 373.469C201.579 372.885 201.373 372.15 201.373 371.261V356.068ZM213.186 365.812V375H210.839V354.636H213.186V362.114H213.385C213.743 361.325 214.279 360.698 214.995 360.234C215.718 359.764 216.679 359.528 217.879 359.528C218.92 359.528 219.831 359.737 220.613 360.155C221.395 360.566 222.002 361.199 222.433 362.054C222.87 362.902 223.089 363.983 223.089 365.295V375H220.743V365.455C220.743 364.241 220.428 363.304 219.798 362.641C219.175 361.971 218.31 361.636 217.203 361.636C216.434 361.636 215.744 361.799 215.135 362.124C214.531 362.448 214.054 362.922 213.703 363.545C213.358 364.169 213.186 364.924 213.186 365.812ZM233.587 375.318C232.208 375.318 230.998 374.99 229.957 374.334C228.923 373.678 228.115 372.759 227.531 371.58C226.955 370.4 226.666 369.021 226.666 367.443C226.666 365.852 226.955 364.464 227.531 363.277C228.115 362.09 228.923 361.169 229.957 360.513C230.998 359.857 232.208 359.528 233.587 359.528C234.965 359.528 236.172 359.857 237.206 360.513C238.247 361.169 239.055 362.09 239.632 363.277C240.215 364.464 240.507 365.852 240.507 367.443C240.507 369.021 240.215 370.4 239.632 371.58C239.055 372.759 238.247 373.678 237.206 374.334C236.172 374.99 234.965 375.318 233.587 375.318ZM233.587 373.21C234.634 373.21 235.496 372.942 236.172 372.405C236.848 371.868 237.348 371.162 237.673 370.287C237.998 369.412 238.161 368.464 238.161 367.443C238.161 366.422 237.998 365.471 237.673 364.589C237.348 363.708 236.848 362.995 236.172 362.452C235.496 361.908 234.634 361.636 233.587 361.636C232.539 361.636 231.678 361.908 231.001 362.452C230.325 362.995 229.825 363.708 229.5 364.589C229.175 365.471 229.013 366.422 229.013 367.443C229.013 368.464 229.175 369.412 229.5 370.287C229.825 371.162 230.325 371.868 231.001 372.405C231.678 372.942 232.539 373.21 233.587 373.21ZM244.089 375V359.727H246.356V362.034H246.515C246.794 361.278 247.297 360.665 248.027 360.195C248.756 359.724 249.578 359.489 250.493 359.489C250.665 359.489 250.88 359.492 251.139 359.499C251.397 359.505 251.593 359.515 251.725 359.528V361.915C251.646 361.895 251.464 361.865 251.179 361.825C250.9 361.779 250.605 361.756 250.294 361.756C249.551 361.756 248.888 361.911 248.305 362.223C247.728 362.528 247.271 362.952 246.933 363.496C246.601 364.033 246.436 364.646 246.436 365.335V375H244.089ZM269.501 354.636V375H267.036V357.222H266.916L261.945 360.523V358.017L267.036 354.636H269.501Z" fill="#1A1A1A"/>
<path d="M176.602 432.727C176.483 431.72 175.999 430.938 175.151 430.381C174.302 429.824 173.261 429.545 172.028 429.545C171.127 429.545 170.338 429.691 169.662 429.983C168.992 430.275 168.469 430.676 168.091 431.186C167.72 431.696 167.534 432.277 167.534 432.926C167.534 433.47 167.663 433.937 167.922 434.328C168.187 434.713 168.525 435.034 168.936 435.293C169.347 435.545 169.778 435.753 170.229 435.919C170.679 436.078 171.094 436.207 171.472 436.307L173.54 436.864C174.07 437.003 174.66 437.195 175.31 437.44C175.966 437.686 176.592 438.02 177.189 438.445C177.792 438.862 178.289 439.399 178.68 440.055C179.071 440.712 179.267 441.517 179.267 442.472C179.267 443.572 178.979 444.566 178.402 445.455C177.832 446.343 176.997 447.049 175.896 447.572C174.803 448.096 173.473 448.358 171.909 448.358C170.451 448.358 169.188 448.123 168.121 447.652C167.06 447.181 166.225 446.525 165.615 445.683C165.012 444.841 164.67 443.864 164.591 442.75H167.136C167.203 443.519 167.461 444.155 167.912 444.659C168.369 445.156 168.946 445.527 169.642 445.773C170.345 446.011 171.1 446.131 171.909 446.131C172.85 446.131 173.696 445.978 174.445 445.673C175.194 445.362 175.787 444.931 176.224 444.381C176.662 443.824 176.881 443.174 176.881 442.432C176.881 441.756 176.692 441.205 176.314 440.781C175.936 440.357 175.439 440.012 174.822 439.747C174.206 439.482 173.54 439.25 172.824 439.051L170.318 438.335C168.727 437.878 167.468 437.225 166.54 436.376C165.612 435.528 165.148 434.418 165.148 433.045C165.148 431.905 165.456 430.911 166.072 430.062C166.696 429.207 167.531 428.545 168.578 428.074C169.632 427.597 170.809 427.358 172.108 427.358C173.42 427.358 174.587 427.593 175.608 428.064C176.629 428.528 177.438 429.164 178.034 429.973C178.637 430.782 178.955 431.7 178.989 432.727H176.602ZM192.628 441.756V432.727H194.975V448H192.628V445.415H192.469C192.111 446.19 191.554 446.85 190.799 447.393C190.043 447.93 189.088 448.199 187.935 448.199C186.98 448.199 186.132 447.99 185.39 447.572C184.647 447.148 184.064 446.512 183.64 445.663C183.215 444.808 183.003 443.731 183.003 442.432V432.727H185.35V442.273C185.35 443.386 185.661 444.275 186.284 444.938C186.914 445.6 187.716 445.932 188.691 445.932C189.274 445.932 189.867 445.783 190.471 445.484C191.08 445.186 191.591 444.729 192.002 444.112C192.419 443.496 192.628 442.71 192.628 441.756ZM199.591 448V427.636H201.938V435.153H202.136C202.309 434.888 202.547 434.55 202.852 434.139C203.164 433.722 203.608 433.35 204.185 433.026C204.768 432.694 205.557 432.528 206.551 432.528C207.837 432.528 208.971 432.85 209.952 433.493C210.933 434.136 211.698 435.047 212.249 436.227C212.799 437.407 213.074 438.799 213.074 440.403C213.074 442.021 212.799 443.423 212.249 444.609C211.698 445.789 210.936 446.704 209.962 447.354C208.987 447.997 207.864 448.318 206.591 448.318C205.61 448.318 204.824 448.156 204.234 447.831C203.644 447.5 203.19 447.125 202.872 446.707C202.554 446.283 202.309 445.932 202.136 445.653H201.858V448H199.591ZM201.898 440.364C201.898 441.517 202.067 442.535 202.405 443.416C202.743 444.291 203.237 444.977 203.886 445.474C204.536 445.965 205.331 446.21 206.273 446.21C207.254 446.21 208.072 445.952 208.729 445.435C209.392 444.911 209.889 444.208 210.22 443.327C210.558 442.438 210.727 441.451 210.727 440.364C210.727 439.29 210.562 438.322 210.23 437.46C209.905 436.592 209.411 435.906 208.749 435.402C208.092 434.892 207.267 434.636 206.273 434.636C205.318 434.636 204.516 434.878 203.866 435.362C203.217 435.839 202.726 436.509 202.395 437.371C202.063 438.226 201.898 439.223 201.898 440.364ZM216.663 432.727H219.01V449.114C219.01 450.055 218.848 450.87 218.523 451.56C218.205 452.249 217.721 452.783 217.071 453.161C216.428 453.538 215.616 453.727 214.635 453.727C214.555 453.727 214.476 453.727 214.396 453.727C214.317 453.727 214.237 453.727 214.158 453.727V451.54C214.237 451.54 214.31 451.54 214.376 451.54C214.443 451.54 214.516 451.54 214.595 451.54C215.311 451.54 215.835 451.328 216.166 450.903C216.498 450.486 216.663 449.889 216.663 449.114V432.727ZM217.817 430.182C217.359 430.182 216.965 430.026 216.634 429.714C216.309 429.403 216.146 429.028 216.146 428.591C216.146 428.153 216.309 427.779 216.634 427.467C216.965 427.156 217.359 427 217.817 427C218.274 427 218.665 427.156 218.99 427.467C219.321 427.779 219.487 428.153 219.487 428.591C219.487 429.028 219.321 429.403 218.99 429.714C218.665 430.026 218.274 430.182 217.817 430.182ZM229.711 448.318C228.24 448.318 226.97 447.993 225.903 447.344C224.842 446.688 224.024 445.773 223.447 444.599C222.877 443.42 222.592 442.047 222.592 440.483C222.592 438.919 222.877 437.54 223.447 436.347C224.024 435.147 224.826 434.212 225.853 433.543C226.887 432.866 228.094 432.528 229.473 432.528C230.268 432.528 231.054 432.661 231.829 432.926C232.605 433.191 233.311 433.622 233.947 434.219C234.583 434.809 235.091 435.591 235.468 436.565C235.846 437.54 236.035 438.74 236.035 440.165V441.159H224.262V439.131H233.649C233.649 438.269 233.476 437.5 233.132 436.824C232.794 436.148 232.31 435.614 231.68 435.223C231.057 434.832 230.321 434.636 229.473 434.636C228.538 434.636 227.729 434.868 227.047 435.332C226.37 435.79 225.85 436.386 225.485 437.122C225.121 437.858 224.939 438.647 224.939 439.489V440.841C224.939 441.994 225.137 442.972 225.535 443.774C225.94 444.57 226.5 445.176 227.216 445.594C227.931 446.005 228.763 446.21 229.711 446.21C230.328 446.21 230.885 446.124 231.382 445.952C231.886 445.773 232.32 445.508 232.684 445.156C233.049 444.798 233.331 444.354 233.529 443.824L235.797 444.46C235.558 445.229 235.157 445.905 234.593 446.489C234.03 447.065 233.334 447.516 232.505 447.841C231.677 448.159 230.745 448.318 229.711 448.318ZM245.809 448.318C244.377 448.318 243.145 447.98 242.11 447.304C241.076 446.628 240.281 445.696 239.724 444.51C239.167 443.323 238.889 441.968 238.889 440.443C238.889 438.892 239.174 437.523 239.744 436.337C240.321 435.143 241.123 434.212 242.15 433.543C243.184 432.866 244.391 432.528 245.77 432.528C246.843 432.528 247.811 432.727 248.673 433.125C249.535 433.523 250.241 434.08 250.791 434.795C251.341 435.511 251.682 436.347 251.815 437.301H249.468C249.289 436.605 248.892 435.989 248.275 435.452C247.665 434.908 246.843 434.636 245.809 434.636C244.895 434.636 244.092 434.875 243.403 435.352C242.72 435.823 242.187 436.489 241.802 437.351C241.424 438.206 241.235 439.21 241.235 440.364C241.235 441.544 241.421 442.571 241.792 443.446C242.17 444.321 242.7 445 243.383 445.484C244.073 445.968 244.881 446.21 245.809 446.21C246.419 446.21 246.973 446.104 247.47 445.892C247.967 445.68 248.388 445.375 248.733 444.977C249.077 444.58 249.323 444.102 249.468 443.545H251.815C251.682 444.447 251.354 445.259 250.831 445.982C250.314 446.697 249.627 447.268 248.772 447.692C247.924 448.109 246.936 448.318 245.809 448.318ZM261.887 432.727V434.716H253.973V432.727H261.887ZM256.279 429.068H258.626V443.625C258.626 444.288 258.722 444.785 258.914 445.116C259.113 445.441 259.365 445.66 259.67 445.773C259.982 445.879 260.31 445.932 260.654 445.932C260.913 445.932 261.125 445.919 261.291 445.892C261.457 445.859 261.589 445.832 261.689 445.812L262.166 447.92C262.007 447.98 261.785 448.04 261.5 448.099C261.215 448.166 260.853 448.199 260.416 448.199C259.753 448.199 259.103 448.056 258.467 447.771C257.837 447.486 257.314 447.052 256.896 446.469C256.485 445.885 256.279 445.15 256.279 444.261V429.068ZM280.412 427.636V448H277.946V430.222H277.826L272.855 433.523V431.017L277.946 427.636H280.412Z" fill="#1A1A1A"/>
<path d="M325.301 375H322.716L330.193 354.636H332.739L340.216 375H337.631L331.545 357.858H331.386L325.301 375ZM326.256 367.045H336.676V369.233H326.256V367.045ZM352.695 368.756V359.727H355.041V375H352.695V372.415H352.536C352.178 373.19 351.621 373.85 350.865 374.393C350.109 374.93 349.155 375.199 348.001 375.199C347.047 375.199 346.198 374.99 345.456 374.572C344.714 374.148 344.13 373.512 343.706 372.663C343.282 371.808 343.07 370.731 343.07 369.432V359.727H345.416V369.273C345.416 370.386 345.728 371.275 346.351 371.938C346.981 372.6 347.783 372.932 348.757 372.932C349.34 372.932 349.934 372.783 350.537 372.484C351.147 372.186 351.657 371.729 352.068 371.112C352.486 370.496 352.695 369.71 352.695 368.756ZM365.981 359.727V361.716H358.066V359.727H365.981ZM360.373 356.068H362.72V370.625C362.72 371.288 362.816 371.785 363.008 372.116C363.207 372.441 363.459 372.66 363.764 372.773C364.075 372.879 364.404 372.932 364.748 372.932C365.007 372.932 365.219 372.919 365.385 372.892C365.55 372.859 365.683 372.832 365.782 372.812L366.26 374.92C366.1 374.98 365.878 375.04 365.593 375.099C365.308 375.166 364.947 375.199 364.51 375.199C363.847 375.199 363.197 375.056 362.561 374.771C361.931 374.486 361.407 374.052 360.99 373.469C360.579 372.885 360.373 372.15 360.373 371.261V356.068ZM372.186 365.812V375H369.839V354.636H372.186V362.114H372.385C372.743 361.325 373.279 360.698 373.995 360.234C374.718 359.764 375.679 359.528 376.879 359.528C377.92 359.528 378.831 359.737 379.613 360.155C380.395 360.566 381.002 361.199 381.433 362.054C381.87 362.902 382.089 363.983 382.089 365.295V375H379.743V365.455C379.743 364.241 379.428 363.304 378.798 362.641C378.175 361.971 377.31 361.636 376.203 361.636C375.434 361.636 374.744 361.799 374.135 362.124C373.531 362.448 373.054 362.922 372.703 363.545C372.358 364.169 372.186 364.924 372.186 365.812ZM392.587 375.318C391.208 375.318 389.998 374.99 388.957 374.334C387.923 373.678 387.115 372.759 386.531 371.58C385.955 370.4 385.666 369.021 385.666 367.443C385.666 365.852 385.955 364.464 386.531 363.277C387.115 362.09 387.923 361.169 388.957 360.513C389.998 359.857 391.208 359.528 392.587 359.528C393.965 359.528 395.172 359.857 396.206 360.513C397.247 361.169 398.055 362.09 398.632 363.277C399.215 364.464 399.507 365.852 399.507 367.443C399.507 369.021 399.215 370.4 398.632 371.58C398.055 372.759 397.247 373.678 396.206 374.334C395.172 374.99 393.965 375.318 392.587 375.318ZM392.587 373.21C393.634 373.21 394.496 372.942 395.172 372.405C395.848 371.868 396.348 371.162 396.673 370.287C396.998 369.412 397.161 368.464 397.161 367.443C397.161 366.422 396.998 365.471 396.673 364.589C396.348 363.708 395.848 362.995 395.172 362.452C394.496 361.908 393.634 361.636 392.587 361.636C391.539 361.636 390.678 361.908 390.001 362.452C389.325 362.995 388.825 363.708 388.5 364.589C388.175 365.471 388.013 366.422 388.013 367.443C388.013 368.464 388.175 369.412 388.5 370.287C388.825 371.162 389.325 371.868 390.001 372.405C390.678 372.942 391.539 373.21 392.587 373.21ZM403.089 375V359.727H405.356V362.034H405.515C405.794 361.278 406.297 360.665 407.027 360.195C407.756 359.724 408.578 359.489 409.493 359.489C409.665 359.489 409.88 359.492 410.139 359.499C410.397 359.505 410.593 359.515 410.725 359.528V361.915C410.646 361.895 410.464 361.865 410.179 361.825C409.9 361.779 409.605 361.756 409.294 361.756C408.551 361.756 407.888 361.911 407.305 362.223C406.728 362.528 406.271 362.952 405.933 363.496C405.601 364.033 405.436 364.646 405.436 365.335V375H403.089ZM421.342 375V373.21L428.064 365.852C428.853 364.991 429.502 364.241 430.013 363.605C430.523 362.962 430.901 362.359 431.146 361.795C431.398 361.225 431.524 360.629 431.524 360.006C431.524 359.29 431.352 358.67 431.007 358.146C430.669 357.623 430.205 357.218 429.615 356.933C429.025 356.648 428.362 356.506 427.626 356.506C426.844 356.506 426.161 356.668 425.578 356.993C425.001 357.311 424.554 357.759 424.236 358.335C423.924 358.912 423.768 359.588 423.768 360.364H421.422C421.422 359.17 421.697 358.123 422.247 357.222C422.797 356.32 423.546 355.617 424.494 355.114C425.449 354.61 426.519 354.358 427.706 354.358C428.899 354.358 429.956 354.61 430.878 355.114C431.799 355.617 432.522 356.297 433.045 357.152C433.569 358.007 433.831 358.958 433.831 360.006C433.831 360.755 433.695 361.487 433.423 362.203C433.158 362.912 432.694 363.705 432.031 364.58C431.375 365.448 430.464 366.509 429.297 367.761L424.723 372.653V372.812H434.189V375H421.342Z" fill="#1A1A1A"/>
<path d="M346.602 432.727C346.483 431.72 345.999 430.938 345.151 430.381C344.302 429.824 343.261 429.545 342.028 429.545C341.127 429.545 340.338 429.691 339.662 429.983C338.992 430.275 338.469 430.676 338.091 431.186C337.72 431.696 337.534 432.277 337.534 432.926C337.534 433.47 337.663 433.937 337.922 434.328C338.187 434.713 338.525 435.034 338.936 435.293C339.347 435.545 339.778 435.753 340.229 435.919C340.679 436.078 341.094 436.207 341.472 436.307L343.54 436.864C344.07 437.003 344.66 437.195 345.31 437.44C345.966 437.686 346.592 438.02 347.189 438.445C347.792 438.862 348.289 439.399 348.68 440.055C349.071 440.712 349.267 441.517 349.267 442.472C349.267 443.572 348.979 444.566 348.402 445.455C347.832 446.343 346.997 447.049 345.896 447.572C344.803 448.096 343.473 448.358 341.909 448.358C340.451 448.358 339.188 448.123 338.121 447.652C337.06 447.181 336.225 446.525 335.615 445.683C335.012 444.841 334.67 443.864 334.591 442.75H337.136C337.203 443.519 337.461 444.155 337.912 444.659C338.369 445.156 338.946 445.527 339.642 445.773C340.345 446.011 341.1 446.131 341.909 446.131C342.85 446.131 343.696 445.978 344.445 445.673C345.194 445.362 345.787 444.931 346.224 444.381C346.662 443.824 346.881 443.174 346.881 442.432C346.881 441.756 346.692 441.205 346.314 440.781C345.936 440.357 345.439 440.012 344.822 439.747C344.206 439.482 343.54 439.25 342.824 439.051L340.318 438.335C338.727 437.878 337.468 437.225 336.54 436.376C335.612 435.528 335.148 434.418 335.148 433.045C335.148 431.905 335.456 430.911 336.072 430.062C336.696 429.207 337.531 428.545 338.578 428.074C339.632 427.597 340.809 427.358 342.108 427.358C343.42 427.358 344.587 427.593 345.608 428.064C346.629 428.528 347.438 429.164 348.034 429.973C348.637 430.782 348.955 431.7 348.989 432.727H346.602ZM362.628 441.756V432.727H364.975V448H362.628V445.415H362.469C362.111 446.19 361.554 446.85 360.799 447.393C360.043 447.93 359.088 448.199 357.935 448.199C356.98 448.199 356.132 447.99 355.39 447.572C354.647 447.148 354.064 446.512 353.64 445.663C353.215 444.808 353.003 443.731 353.003 442.432V432.727H355.35V442.273C355.35 443.386 355.661 444.275 356.284 444.938C356.914 445.6 357.716 445.932 358.691 445.932C359.274 445.932 359.867 445.783 360.471 445.484C361.08 445.186 361.591 444.729 362.002 444.112C362.419 443.496 362.628 442.71 362.628 441.756ZM369.591 448V427.636H371.938V435.153H372.136C372.309 434.888 372.547 434.55 372.852 434.139C373.164 433.722 373.608 433.35 374.185 433.026C374.768 432.694 375.557 432.528 376.551 432.528C377.837 432.528 378.971 432.85 379.952 433.493C380.933 434.136 381.698 435.047 382.249 436.227C382.799 437.407 383.074 438.799 383.074 440.403C383.074 442.021 382.799 443.423 382.249 444.609C381.698 445.789 380.936 446.704 379.962 447.354C378.987 447.997 377.864 448.318 376.591 448.318C375.61 448.318 374.824 448.156 374.234 447.831C373.644 447.5 373.19 447.125 372.872 446.707C372.554 446.283 372.309 445.932 372.136 445.653H371.858V448H369.591ZM371.898 440.364C371.898 441.517 372.067 442.535 372.405 443.416C372.743 444.291 373.237 444.977 373.886 445.474C374.536 445.965 375.331 446.21 376.273 446.21C377.254 446.21 378.072 445.952 378.729 445.435C379.392 444.911 379.889 444.208 380.22 443.327C380.558 442.438 380.727 441.451 380.727 440.364C380.727 439.29 380.562 438.322 380.23 437.46C379.905 436.592 379.411 435.906 378.749 435.402C378.092 434.892 377.267 434.636 376.273 434.636C375.318 434.636 374.516 434.878 373.866 435.362C373.217 435.839 372.726 436.509 372.395 437.371C372.063 438.226 371.898 439.223 371.898 440.364ZM386.663 432.727H389.01V449.114C389.01 450.055 388.848 450.87 388.523 451.56C388.205 452.249 387.721 452.783 387.071 453.161C386.428 453.538 385.616 453.727 384.635 453.727C384.555 453.727 384.476 453.727 384.396 453.727C384.317 453.727 384.237 453.727 384.158 453.727V451.54C384.237 451.54 384.31 451.54 384.376 451.54C384.443 451.54 384.516 451.54 384.595 451.54C385.311 451.54 385.835 451.328 386.166 450.903C386.498 450.486 386.663 449.889 386.663 449.114V432.727ZM387.817 430.182C387.359 430.182 386.965 430.026 386.634 429.714C386.309 429.403 386.146 429.028 386.146 428.591C386.146 428.153 386.309 427.779 386.634 427.467C386.965 427.156 387.359 427 387.817 427C388.274 427 388.665 427.156 388.99 427.467C389.321 427.779 389.487 428.153 389.487 428.591C389.487 429.028 389.321 429.403 388.99 429.714C388.665 430.026 388.274 430.182 387.817 430.182ZM399.711 448.318C398.24 448.318 396.97 447.993 395.903 447.344C394.842 446.688 394.024 445.773 393.447 444.599C392.877 443.42 392.592 442.047 392.592 440.483C392.592 438.919 392.877 437.54 393.447 436.347C394.024 435.147 394.826 434.212 395.853 433.543C396.887 432.866 398.094 432.528 399.473 432.528C400.268 432.528 401.054 432.661 401.829 432.926C402.605 433.191 403.311 433.622 403.947 434.219C404.583 434.809 405.091 435.591 405.468 436.565C405.846 437.54 406.035 438.74 406.035 440.165V441.159H394.262V439.131H403.649C403.649 438.269 403.476 437.5 403.132 436.824C402.794 436.148 402.31 435.614 401.68 435.223C401.057 434.832 400.321 434.636 399.473 434.636C398.538 434.636 397.729 434.868 397.047 435.332C396.37 435.79 395.85 436.386 395.485 437.122C395.121 437.858 394.939 438.647 394.939 439.489V440.841C394.939 441.994 395.137 442.972 395.535 443.774C395.94 444.57 396.5 445.176 397.216 445.594C397.931 446.005 398.763 446.21 399.711 446.21C400.328 446.21 400.885 446.124 401.382 445.952C401.886 445.773 402.32 445.508 402.684 445.156C403.049 444.798 403.331 444.354 403.529 443.824L405.797 444.46C405.558 445.229 405.157 445.905 404.593 446.489C404.03 447.065 403.334 447.516 402.505 447.841C401.677 448.159 400.745 448.318 399.711 448.318ZM415.809 448.318C414.377 448.318 413.145 447.98 412.11 447.304C411.076 446.628 410.281 445.696 409.724 444.51C409.167 443.323 408.889 441.968 408.889 440.443C408.889 438.892 409.174 437.523 409.744 436.337C410.321 435.143 411.123 434.212 412.15 433.543C413.184 432.866 414.391 432.528 415.77 432.528C416.843 432.528 417.811 432.727 418.673 433.125C419.535 433.523 420.241 434.08 420.791 434.795C421.341 435.511 421.682 436.347 421.815 437.301H419.468C419.289 436.605 418.892 435.989 418.275 435.452C417.665 434.908 416.843 434.636 415.809 434.636C414.895 434.636 414.092 434.875 413.403 435.352C412.72 435.823 412.187 436.489 411.802 437.351C411.424 438.206 411.235 439.21 411.235 440.364C411.235 441.544 411.421 442.571 411.792 443.446C412.17 444.321 412.7 445 413.383 445.484C414.073 445.968 414.881 446.21 415.809 446.21C416.419 446.21 416.973 446.104 417.47 445.892C417.967 445.68 418.388 445.375 418.733 444.977C419.077 444.58 419.323 444.102 419.468 443.545H421.815C421.682 444.447 421.354 445.259 420.831 445.982C420.314 446.697 419.627 447.268 418.772 447.692C417.924 448.109 416.936 448.318 415.809 448.318ZM431.887 432.727V434.716H423.973V432.727H431.887ZM426.279 429.068H428.626V443.625C428.626 444.288 428.722 444.785 428.914 445.116C429.113 445.441 429.365 445.66 429.67 445.773C429.982 445.879 430.31 445.932 430.654 445.932C430.913 445.932 431.125 445.919 431.291 445.892C431.457 445.859 431.589 445.832 431.689 445.812L432.166 447.92C432.007 447.98 431.785 448.04 431.5 448.099C431.215 448.166 430.853 448.199 430.416 448.199C429.753 448.199 429.103 448.056 428.467 447.771C427.837 447.486 427.314 447.052 426.896 446.469C426.485 445.885 426.279 445.15 426.279 444.261V429.068ZM443.252 448V446.21L449.974 438.852C450.763 437.991 451.413 437.241 451.923 436.605C452.433 435.962 452.811 435.359 453.056 434.795C453.308 434.225 453.434 433.629 453.434 433.006C453.434 432.29 453.262 431.67 452.917 431.146C452.579 430.623 452.115 430.218 451.525 429.933C450.935 429.648 450.272 429.506 449.537 429.506C448.754 429.506 448.072 429.668 447.488 429.993C446.912 430.311 446.464 430.759 446.146 431.335C445.834 431.912 445.679 432.588 445.679 433.364H443.332C443.332 432.17 443.607 431.123 444.157 430.222C444.708 429.32 445.457 428.617 446.404 428.114C447.359 427.61 448.43 427.358 449.616 427.358C450.809 427.358 451.867 427.61 452.788 428.114C453.709 428.617 454.432 429.297 454.956 430.152C455.479 431.007 455.741 431.958 455.741 433.006C455.741 433.755 455.605 434.487 455.333 435.203C455.068 435.912 454.604 436.705 453.941 437.58C453.285 438.448 452.374 439.509 451.207 440.761L446.633 445.653V445.812H456.099V448H443.252Z" fill="#1A1A1A"/>
<path d="M488.301 375H485.716L493.193 354.636H495.739L503.216 375H500.631L494.545 357.858H494.386L488.301 375ZM489.256 367.045H499.676V369.233H489.256V367.045ZM515.695 368.756V359.727H518.041V375H515.695V372.415H515.536C515.178 373.19 514.621 373.85 513.865 374.393C513.109 374.93 512.155 375.199 511.001 375.199C510.047 375.199 509.198 374.99 508.456 374.572C507.714 374.148 507.13 373.512 506.706 372.663C506.282 371.808 506.07 370.731 506.07 369.432V359.727H508.416V369.273C508.416 370.386 508.728 371.275 509.351 371.938C509.981 372.6 510.783 372.932 511.757 372.932C512.34 372.932 512.934 372.783 513.537 372.484C514.147 372.186 514.657 371.729 515.068 371.112C515.486 370.496 515.695 369.71 515.695 368.756ZM528.981 359.727V361.716H521.066V359.727H528.981ZM523.373 356.068H525.72V370.625C525.72 371.288 525.816 371.785 526.008 372.116C526.207 372.441 526.459 372.66 526.764 372.773C527.075 372.879 527.404 372.932 527.748 372.932C528.007 372.932 528.219 372.919 528.385 372.892C528.55 372.859 528.683 372.832 528.782 372.812L529.26 374.92C529.1 374.98 528.878 375.04 528.593 375.099C528.308 375.166 527.947 375.199 527.51 375.199C526.847 375.199 526.197 375.056 525.561 374.771C524.931 374.486 524.407 374.052 523.99 373.469C523.579 372.885 523.373 372.15 523.373 371.261V356.068ZM535.186 365.812V375H532.839V354.636H535.186V362.114H535.385C535.743 361.325 536.279 360.698 536.995 360.234C537.718 359.764 538.679 359.528 539.879 359.528C540.92 359.528 541.831 359.737 542.613 360.155C543.395 360.566 544.002 361.199 544.433 362.054C544.87 362.902 545.089 363.983 545.089 365.295V375H542.743V365.455C542.743 364.241 542.428 363.304 541.798 362.641C541.175 361.971 540.31 361.636 539.203 361.636C538.434 361.636 537.744 361.799 537.135 362.124C536.531 362.448 536.054 362.922 535.703 363.545C535.358 364.169 535.186 364.924 535.186 365.812ZM555.587 375.318C554.208 375.318 552.998 374.99 551.957 374.334C550.923 373.678 550.115 372.759 549.531 371.58C548.955 370.4 548.666 369.021 548.666 367.443C548.666 365.852 548.955 364.464 549.531 363.277C550.115 362.09 550.923 361.169 551.957 360.513C552.998 359.857 554.208 359.528 555.587 359.528C556.965 359.528 558.172 359.857 559.206 360.513C560.247 361.169 561.055 362.09 561.632 363.277C562.215 364.464 562.507 365.852 562.507 367.443C562.507 369.021 562.215 370.4 561.632 371.58C561.055 372.759 560.247 373.678 559.206 374.334C558.172 374.99 556.965 375.318 555.587 375.318ZM555.587 373.21C556.634 373.21 557.496 372.942 558.172 372.405C558.848 371.868 559.348 371.162 559.673 370.287C559.998 369.412 560.161 368.464 560.161 367.443C560.161 366.422 559.998 365.471 559.673 364.589C559.348 363.708 558.848 362.995 558.172 362.452C557.496 361.908 556.634 361.636 555.587 361.636C554.539 361.636 553.678 361.908 553.001 362.452C552.325 362.995 551.825 363.708 551.5 364.589C551.175 365.471 551.013 366.422 551.013 367.443C551.013 368.464 551.175 369.412 551.5 370.287C551.825 371.162 552.325 371.868 553.001 372.405C553.678 372.942 554.539 373.21 555.587 373.21ZM566.089 375V359.727H568.356V362.034H568.515C568.794 361.278 569.297 360.665 570.027 360.195C570.756 359.724 571.578 359.489 572.493 359.489C572.665 359.489 572.88 359.492 573.139 359.499C573.397 359.505 573.593 359.515 573.725 359.528V361.915C573.646 361.895 573.464 361.865 573.179 361.825C572.9 361.779 572.605 361.756 572.294 361.756C571.551 361.756 570.888 361.911 570.305 362.223C569.728 362.528 569.271 362.952 568.933 363.496C568.601 364.033 568.436 364.646 568.436 365.335V375H566.089ZM591.223 375.278C589.911 375.278 588.741 375.053 587.713 374.602C586.692 374.152 585.88 373.525 585.277 372.723C584.68 371.914 584.356 370.976 584.303 369.909H586.808C586.861 370.565 587.087 371.132 587.484 371.609C587.882 372.08 588.402 372.445 589.045 372.703C589.688 372.962 590.401 373.091 591.183 373.091C592.058 373.091 592.834 372.938 593.51 372.634C594.186 372.329 594.716 371.904 595.101 371.361C595.485 370.817 595.678 370.188 595.678 369.472C595.678 368.723 595.492 368.063 595.121 367.493C594.75 366.916 594.206 366.465 593.49 366.141C592.774 365.816 591.899 365.653 590.865 365.653H589.234V363.466H590.865C591.674 363.466 592.383 363.32 592.993 363.028C593.609 362.737 594.09 362.326 594.435 361.795C594.786 361.265 594.962 360.642 594.962 359.926C594.962 359.237 594.809 358.637 594.504 358.126C594.199 357.616 593.768 357.218 593.212 356.933C592.661 356.648 592.012 356.506 591.263 356.506C590.56 356.506 589.897 356.635 589.274 356.893C588.658 357.145 588.154 357.513 587.763 357.997C587.372 358.474 587.16 359.051 587.126 359.727H584.74C584.78 358.66 585.101 357.725 585.705 356.923C586.308 356.115 587.097 355.485 588.071 355.034C589.052 354.583 590.129 354.358 591.303 354.358C592.562 354.358 593.643 354.613 594.544 355.124C595.446 355.627 596.138 356.294 596.622 357.122C597.106 357.951 597.348 358.846 597.348 359.807C597.348 360.954 597.046 361.931 596.443 362.74C595.847 363.549 595.035 364.109 594.007 364.42V364.58C595.293 364.792 596.297 365.339 597.02 366.22C597.742 367.095 598.104 368.179 598.104 369.472C598.104 370.579 597.802 371.573 597.199 372.455C596.602 373.33 595.787 374.019 594.753 374.523C593.719 375.027 592.542 375.278 591.223 375.278Z" fill="#1A1A1A"/>
</svg>
