<svg width="800" height="600" viewBox="0 0 800 600" fill="none" xmlns="http://www.w3.org/2000/svg">
<rect width="800" height="600" fill="white"/>
<path d="M183.301 365H180.716L188.193 344.636H190.739L198.216 365H195.631L189.545 347.858H189.386L183.301 365ZM184.256 357.045H194.676V359.233H184.256V357.045ZM210.695 358.756V349.727H213.041V365H210.695V362.415H210.536C210.178 363.19 209.621 363.85 208.865 364.393C208.109 364.93 207.155 365.199 206.001 365.199C205.047 365.199 204.198 364.99 203.456 364.572C202.714 364.148 202.13 363.512 201.706 362.663C201.282 361.808 201.07 360.731 201.07 359.432V349.727H203.416V359.273C203.416 360.386 203.728 361.275 204.351 361.938C204.981 362.6 205.783 362.932 206.757 362.932C207.34 362.932 207.934 362.783 208.537 362.484C209.147 362.186 209.657 361.729 210.068 361.112C210.486 360.496 210.695 359.71 210.695 358.756ZM223.981 349.727V351.716H216.066V349.727H223.981ZM218.373 346.068H220.72V360.625C220.72 361.288 220.816 361.785 221.008 362.116C221.207 362.441 221.459 362.66 221.764 362.773C222.075 362.879 222.404 362.932 222.748 362.932C223.007 362.932 223.219 362.919 223.385 362.892C223.55 362.859 223.683 362.832 223.782 362.812L224.26 364.92C224.1 364.98 223.878 365.04 223.593 365.099C223.308 365.166 222.947 365.199 222.51 365.199C221.847 365.199 221.197 365.056 220.561 364.771C219.931 364.486 219.407 364.052 218.99 363.469C218.579 362.885 218.373 362.15 218.373 361.261V346.068ZM230.186 355.812V365H227.839V344.636H230.186V352.114H230.385C230.743 351.325 231.279 350.698 231.995 350.234C232.718 349.764 233.679 349.528 234.879 349.528C235.92 349.528 236.831 349.737 237.613 350.155C238.395 350.566 239.002 351.199 239.433 352.054C239.87 352.902 240.089 353.983 240.089 355.295V365H237.743V355.455C237.743 354.241 237.428 353.304 236.798 352.641C236.175 351.971 235.31 351.636 234.203 351.636C233.434 351.636 232.744 351.799 232.135 352.124C231.531 352.448 231.054 352.922 230.703 353.545C230.358 354.169 230.186 354.924 230.186 355.812ZM250.587 365.318C249.208 365.318 247.998 364.99 246.957 364.334C245.923 363.678 245.115 362.759 244.531 361.58C243.955 360.4 243.666 359.021 243.666 357.443C243.666 355.852 243.955 354.464 244.531 353.277C245.115 352.09 245.923 351.169 246.957 350.513C247.998 349.857 249.208 349.528 250.587 349.528C251.965 349.528 253.172 349.857 254.206 350.513C255.247 351.169 256.055 352.09 256.632 353.277C257.215 354.464 257.507 355.852 257.507 357.443C257.507 359.021 257.215 360.4 256.632 361.58C256.055 362.759 255.247 363.678 254.206 364.334C253.172 364.99 251.965 365.318 250.587 365.318ZM250.587 363.21C251.634 363.21 252.496 362.942 253.172 362.405C253.848 361.868 254.348 361.162 254.673 360.287C254.998 359.412 255.161 358.464 255.161 357.443C255.161 356.422 254.998 355.471 254.673 354.589C254.348 353.708 253.848 352.995 253.172 352.452C252.496 351.908 251.634 351.636 250.587 351.636C249.539 351.636 248.678 351.908 248.001 352.452C247.325 352.995 246.825 353.708 246.5 354.589C246.175 355.471 246.013 356.422 246.013 357.443C246.013 358.464 246.175 359.412 246.5 360.287C246.825 361.162 247.325 361.868 248.001 362.405C248.678 362.942 249.539 363.21 250.587 363.21ZM261.089 365V349.727H263.356V352.034H263.515C263.794 351.278 264.297 350.665 265.027 350.195C265.756 349.724 266.578 349.489 267.493 349.489C267.665 349.489 267.88 349.492 268.139 349.499C268.397 349.505 268.593 349.515 268.725 349.528V351.915C268.646 351.895 268.464 351.865 268.179 351.825C267.9 351.779 267.605 351.756 267.294 351.756C266.551 351.756 265.888 351.911 265.305 352.223C264.728 352.528 264.271 352.952 263.933 353.496C263.601 354.033 263.436 354.646 263.436 355.335V365H261.089ZM286.501 344.636V365H284.036V347.222H283.916L278.945 350.523V348.017L284.036 344.636H286.501Z" fill="#1A1A1A"/>
<path d="M342.301 365H339.716L347.193 344.636H349.739L357.216 365H354.631L348.545 347.858H348.386L342.301 365ZM343.256 357.045H353.676V359.233H343.256V357.045ZM369.695 358.756V349.727H372.041V365H369.695V362.415H369.536C369.178 363.19 368.621 363.85 367.865 364.393C367.109 364.93 366.155 365.199 365.001 365.199C364.047 365.199 363.198 364.99 362.456 364.572C361.714 364.148 361.13 363.512 360.706 362.663C360.282 361.808 360.07 360.731 360.07 359.432V349.727H362.416V359.273C362.416 360.386 362.728 361.275 363.351 361.938C363.981 362.6 364.783 362.932 365.757 362.932C366.34 362.932 366.934 362.783 367.537 362.484C368.147 362.186 368.657 361.729 369.068 361.112C369.486 360.496 369.695 359.71 369.695 358.756ZM382.981 349.727V351.716H375.066V349.727H382.981ZM377.373 346.068H379.72V360.625C379.72 361.288 379.816 361.785 380.008 362.116C380.207 362.441 380.459 362.66 380.764 362.773C381.075 362.879 381.404 362.932 381.748 362.932C382.007 362.932 382.219 362.919 382.385 362.892C382.55 362.859 382.683 362.832 382.782 362.812L383.26 364.92C383.1 364.98 382.878 365.04 382.593 365.099C382.308 365.166 381.947 365.199 381.51 365.199C380.847 365.199 380.197 365.056 379.561 364.771C378.931 364.486 378.407 364.052 377.99 363.469C377.579 362.885 377.373 362.15 377.373 361.261V346.068ZM389.186 355.812V365H386.839V344.636H389.186V352.114H389.385C389.743 351.325 390.279 350.698 390.995 350.234C391.718 349.764 392.679 349.528 393.879 349.528C394.92 349.528 395.831 349.737 396.613 350.155C397.395 350.566 398.002 351.199 398.433 352.054C398.87 352.902 399.089 353.983 399.089 355.295V365H396.743V355.455C396.743 354.241 396.428 353.304 395.798 352.641C395.175 351.971 394.31 351.636 393.203 351.636C392.434 351.636 391.744 351.799 391.135 352.124C390.531 352.448 390.054 352.922 389.703 353.545C389.358 354.169 389.186 354.924 389.186 355.812ZM409.587 365.318C408.208 365.318 406.998 364.99 405.957 364.334C404.923 363.678 404.115 362.759 403.531 361.58C402.955 360.4 402.666 359.021 402.666 357.443C402.666 355.852 402.955 354.464 403.531 353.277C404.115 352.09 404.923 351.169 405.957 350.513C406.998 349.857 408.208 349.528 409.587 349.528C410.965 349.528 412.172 349.857 413.206 350.513C414.247 351.169 415.055 352.09 415.632 353.277C416.215 354.464 416.507 355.852 416.507 357.443C416.507 359.021 416.215 360.4 415.632 361.58C415.055 362.759 414.247 363.678 413.206 364.334C412.172 364.99 410.965 365.318 409.587 365.318ZM409.587 363.21C410.634 363.21 411.496 362.942 412.172 362.405C412.848 361.868 413.348 361.162 413.673 360.287C413.998 359.412 414.161 358.464 414.161 357.443C414.161 356.422 413.998 355.471 413.673 354.589C413.348 353.708 412.848 352.995 412.172 352.452C411.496 351.908 410.634 351.636 409.587 351.636C408.539 351.636 407.678 351.908 407.001 352.452C406.325 352.995 405.825 353.708 405.5 354.589C405.175 355.471 405.013 356.422 405.013 357.443C405.013 358.464 405.175 359.412 405.5 360.287C405.825 361.162 406.325 361.868 407.001 362.405C407.678 362.942 408.539 363.21 409.587 363.21ZM420.089 365V349.727H422.356V352.034H422.515C422.794 351.278 423.297 350.665 424.027 350.195C424.756 349.724 425.578 349.489 426.493 349.489C426.665 349.489 426.88 349.492 427.139 349.499C427.397 349.505 427.593 349.515 427.725 349.528V351.915C427.646 351.895 427.464 351.865 427.179 351.825C426.9 351.779 426.605 351.756 426.294 351.756C425.551 351.756 424.888 351.911 424.305 352.223C423.728 352.528 423.271 352.952 422.933 353.496C422.601 354.033 422.436 354.646 422.436 355.335V365H420.089ZM438.342 365V363.21L445.064 355.852C445.853 354.991 446.502 354.241 447.013 353.605C447.523 352.962 447.901 352.359 448.146 351.795C448.398 351.225 448.524 350.629 448.524 350.006C448.524 349.29 448.352 348.67 448.007 348.146C447.669 347.623 447.205 347.218 446.615 346.933C446.025 346.648 445.362 346.506 444.626 346.506C443.844 346.506 443.161 346.668 442.578 346.993C442.001 347.311 441.554 347.759 441.236 348.335C440.924 348.912 440.768 349.588 440.768 350.364H438.422C438.422 349.17 438.697 348.123 439.247 347.222C439.797 346.32 440.546 345.617 441.494 345.114C442.449 344.61 443.519 344.358 444.706 344.358C445.899 344.358 446.956 344.61 447.878 345.114C448.799 345.617 449.522 346.297 450.045 347.152C450.569 348.007 450.831 348.958 450.831 350.006C450.831 350.755 450.695 351.487 450.423 352.203C450.158 352.912 449.694 353.705 449.031 354.58C448.375 355.448 447.464 356.509 446.297 357.761L441.723 362.653V362.812H451.189V365H438.342Z" fill="#1A1A1A"/>
<path d="M505.301 365H502.716L510.193 344.636H512.739L520.216 365H517.631L511.545 347.858H511.386L505.301 365ZM506.256 357.045H516.676V359.233H506.256V357.045ZM532.695 358.756V349.727H535.041V365H532.695V362.415H532.536C532.178 363.19 531.621 363.85 530.865 364.393C530.109 364.93 529.155 365.199 528.001 365.199C527.047 365.199 526.198 364.99 525.456 364.572C524.714 364.148 524.13 363.512 523.706 362.663C523.282 361.808 523.07 360.731 523.07 359.432V349.727H525.416V359.273C525.416 360.386 525.728 361.275 526.351 361.938C526.981 362.6 527.783 362.932 528.757 362.932C529.34 362.932 529.934 362.783 530.537 362.484C531.147 362.186 531.657 361.729 532.068 361.112C532.486 360.496 532.695 359.71 532.695 358.756ZM545.981 349.727V351.716H538.066V349.727H545.981ZM540.373 346.068H542.72V360.625C542.72 361.288 542.816 361.785 543.008 362.116C543.207 362.441 543.459 362.66 543.764 362.773C544.075 362.879 544.404 362.932 544.748 362.932C545.007 362.932 545.219 362.919 545.385 362.892C545.55 362.859 545.683 362.832 545.782 362.812L546.26 364.92C546.1 364.98 545.878 365.04 545.593 365.099C545.308 365.166 544.947 365.199 544.51 365.199C543.847 365.199 543.197 365.056 542.561 364.771C541.931 364.486 541.407 364.052 540.99 363.469C540.579 362.885 540.373 362.15 540.373 361.261V346.068ZM552.186 355.812V365H549.839V344.636H552.186V352.114H552.385C552.743 351.325 553.279 350.698 553.995 350.234C554.718 349.764 555.679 349.528 556.879 349.528C557.92 349.528 558.831 349.737 559.613 350.155C560.395 350.566 561.002 351.199 561.433 352.054C561.87 352.902 562.089 353.983 562.089 355.295V365H559.743V355.455C559.743 354.241 559.428 353.304 558.798 352.641C558.175 351.971 557.31 351.636 556.203 351.636C555.434 351.636 554.744 351.799 554.135 352.124C553.531 352.448 553.054 352.922 552.703 353.545C552.358 354.169 552.186 354.924 552.186 355.812ZM572.587 365.318C571.208 365.318 569.998 364.99 568.957 364.334C567.923 363.678 567.115 362.759 566.531 361.58C565.955 360.4 565.666 359.021 565.666 357.443C565.666 355.852 565.955 354.464 566.531 353.277C567.115 352.09 567.923 351.169 568.957 350.513C569.998 349.857 571.208 349.528 572.587 349.528C573.965 349.528 575.172 349.857 576.206 350.513C577.247 351.169 578.055 352.09 578.632 353.277C579.215 354.464 579.507 355.852 579.507 357.443C579.507 359.021 579.215 360.4 578.632 361.58C578.055 362.759 577.247 363.678 576.206 364.334C575.172 364.99 573.965 365.318 572.587 365.318ZM572.587 363.21C573.634 363.21 574.496 362.942 575.172 362.405C575.848 361.868 576.348 361.162 576.673 360.287C576.998 359.412 577.161 358.464 577.161 357.443C577.161 356.422 576.998 355.471 576.673 354.589C576.348 353.708 575.848 352.995 575.172 352.452C574.496 351.908 573.634 351.636 572.587 351.636C571.539 351.636 570.678 351.908 570.001 352.452C569.325 352.995 568.825 353.708 568.5 354.589C568.175 355.471 568.013 356.422 568.013 357.443C568.013 358.464 568.175 359.412 568.5 360.287C568.825 361.162 569.325 361.868 570.001 362.405C570.678 362.942 571.539 363.21 572.587 363.21ZM583.089 365V349.727H585.356V352.034H585.515C585.794 351.278 586.297 350.665 587.027 350.195C587.756 349.724 588.578 349.489 589.493 349.489C589.665 349.489 589.88 349.492 590.139 349.499C590.397 349.505 590.593 349.515 590.725 349.528V351.915C590.646 351.895 590.464 351.865 590.179 351.825C589.9 351.779 589.605 351.756 589.294 351.756C588.551 351.756 587.888 351.911 587.305 352.223C586.728 352.528 586.271 352.952 585.933 353.496C585.601 354.033 585.436 354.646 585.436 355.335V365H583.089ZM608.223 365.278C606.911 365.278 605.741 365.053 604.713 364.602C603.692 364.152 602.88 363.525 602.277 362.723C601.68 361.914 601.356 360.976 601.303 359.909H603.808C603.861 360.565 604.087 361.132 604.484 361.609C604.882 362.08 605.402 362.445 606.045 362.703C606.688 362.962 607.401 363.091 608.183 363.091C609.058 363.091 609.834 362.938 610.51 362.634C611.186 362.329 611.716 361.904 612.101 361.361C612.485 360.817 612.678 360.188 612.678 359.472C612.678 358.723 612.492 358.063 612.121 357.493C611.75 356.916 611.206 356.465 610.49 356.141C609.774 355.816 608.899 355.653 607.865 355.653H606.234V353.466H607.865C608.674 353.466 609.383 353.32 609.993 353.028C610.609 352.737 611.09 352.326 611.435 351.795C611.786 351.265 611.962 350.642 611.962 349.926C611.962 349.237 611.809 348.637 611.504 348.126C611.199 347.616 610.768 347.218 610.212 346.933C609.661 346.648 609.012 346.506 608.263 346.506C607.56 346.506 606.897 346.635 606.274 346.893C605.658 347.145 605.154 347.513 604.763 347.997C604.372 348.474 604.16 349.051 604.126 349.727H601.74C601.78 348.66 602.101 347.725 602.705 346.923C603.308 346.115 604.097 345.485 605.071 345.034C606.052 344.583 607.129 344.358 608.303 344.358C609.562 344.358 610.643 344.613 611.544 345.124C612.446 345.627 613.138 346.294 613.622 347.122C614.106 347.951 614.348 348.846 614.348 349.807C614.348 350.954 614.046 351.931 613.443 352.74C612.847 353.549 612.035 354.109 611.007 354.42V354.58C612.293 354.792 613.297 355.339 614.02 356.22C614.742 357.095 615.104 358.179 615.104 359.472C615.104 360.579 614.802 361.573 614.199 362.455C613.602 363.33 612.787 364.019 611.753 364.523C610.719 365.027 609.542 365.278 608.223 365.278Z" fill="#1A1A1A"/>
<rect x="164.5" y="327.5" width="469" height="54" rx="7.5" stroke="#1A1A1A"/>
<path d="M193.602 436.727C193.483 435.72 192.999 434.938 192.151 434.381C191.302 433.824 190.261 433.545 189.028 433.545C188.127 433.545 187.338 433.691 186.662 433.983C185.992 434.275 185.469 434.676 185.091 435.186C184.72 435.696 184.534 436.277 184.534 436.926C184.534 437.47 184.663 437.937 184.922 438.328C185.187 438.713 185.525 439.034 185.936 439.293C186.347 439.545 186.778 439.753 187.229 439.919C187.679 440.078 188.094 440.207 188.472 440.307L190.54 440.864C191.07 441.003 191.66 441.195 192.31 441.44C192.966 441.686 193.592 442.02 194.189 442.445C194.792 442.862 195.289 443.399 195.68 444.055C196.071 444.712 196.267 445.517 196.267 446.472C196.267 447.572 195.979 448.566 195.402 449.455C194.832 450.343 193.997 451.049 192.896 451.572C191.803 452.096 190.473 452.358 188.909 452.358C187.451 452.358 186.188 452.123 185.121 451.652C184.06 451.181 183.225 450.525 182.615 449.683C182.012 448.841 181.67 447.864 181.591 446.75H184.136C184.203 447.519 184.461 448.155 184.912 448.659C185.369 449.156 185.946 449.527 186.642 449.773C187.345 450.011 188.1 450.131 188.909 450.131C189.85 450.131 190.696 449.978 191.445 449.673C192.194 449.362 192.787 448.931 193.224 448.381C193.662 447.824 193.881 447.174 193.881 446.432C193.881 445.756 193.692 445.205 193.314 444.781C192.936 444.357 192.439 444.012 191.822 443.747C191.206 443.482 190.54 443.25 189.824 443.051L187.318 442.335C185.727 441.878 184.468 441.225 183.54 440.376C182.612 439.528 182.148 438.418 182.148 437.045C182.148 435.905 182.456 434.911 183.072 434.062C183.696 433.207 184.531 432.545 185.578 432.074C186.632 431.597 187.809 431.358 189.108 431.358C190.42 431.358 191.587 431.593 192.608 432.064C193.629 432.528 194.438 433.164 195.034 433.973C195.637 434.782 195.955 435.7 195.989 436.727H193.602ZM209.628 445.756V436.727H211.975V452H209.628V449.415H209.469C209.111 450.19 208.554 450.85 207.799 451.393C207.043 451.93 206.088 452.199 204.935 452.199C203.98 452.199 203.132 451.99 202.39 451.572C201.647 451.148 201.064 450.512 200.64 449.663C200.215 448.808 200.003 447.731 200.003 446.432V436.727H202.35V446.273C202.35 447.386 202.661 448.275 203.284 448.938C203.914 449.6 204.716 449.932 205.691 449.932C206.274 449.932 206.867 449.783 207.471 449.484C208.08 449.186 208.591 448.729 209.002 448.112C209.419 447.496 209.628 446.71 209.628 445.756ZM216.591 452V431.636H218.938V439.153H219.136C219.309 438.888 219.547 438.55 219.852 438.139C220.164 437.722 220.608 437.35 221.185 437.026C221.768 436.694 222.557 436.528 223.551 436.528C224.837 436.528 225.971 436.85 226.952 437.493C227.933 438.136 228.698 439.047 229.249 440.227C229.799 441.407 230.074 442.799 230.074 444.403C230.074 446.021 229.799 447.423 229.249 448.609C228.698 449.789 227.936 450.704 226.962 451.354C225.987 451.997 224.864 452.318 223.591 452.318C222.61 452.318 221.824 452.156 221.234 451.831C220.644 451.5 220.19 451.125 219.872 450.707C219.554 450.283 219.309 449.932 219.136 449.653H218.858V452H216.591ZM218.898 444.364C218.898 445.517 219.067 446.535 219.405 447.416C219.743 448.291 220.237 448.977 220.886 449.474C221.536 449.965 222.331 450.21 223.273 450.21C224.254 450.21 225.072 449.952 225.729 449.435C226.392 448.911 226.889 448.208 227.22 447.327C227.558 446.438 227.727 445.451 227.727 444.364C227.727 443.29 227.562 442.322 227.23 441.46C226.905 440.592 226.411 439.906 225.749 439.402C225.092 438.892 224.267 438.636 223.273 438.636C222.318 438.636 221.516 438.878 220.866 439.362C220.217 439.839 219.726 440.509 219.395 441.371C219.063 442.226 218.898 443.223 218.898 444.364ZM233.663 436.727H236.01V453.114C236.01 454.055 235.848 454.87 235.523 455.56C235.205 456.249 234.721 456.783 234.071 457.161C233.428 457.538 232.616 457.727 231.635 457.727C231.555 457.727 231.476 457.727 231.396 457.727C231.317 457.727 231.237 457.727 231.158 457.727V455.54C231.237 455.54 231.31 455.54 231.376 455.54C231.443 455.54 231.516 455.54 231.595 455.54C232.311 455.54 232.835 455.328 233.166 454.903C233.498 454.486 233.663 453.889 233.663 453.114V436.727ZM234.817 434.182C234.359 434.182 233.965 434.026 233.634 433.714C233.309 433.403 233.146 433.028 233.146 432.591C233.146 432.153 233.309 431.779 233.634 431.467C233.965 431.156 234.359 431 234.817 431C235.274 431 235.665 431.156 235.99 431.467C236.321 431.779 236.487 432.153 236.487 432.591C236.487 433.028 236.321 433.403 235.99 433.714C235.665 434.026 235.274 434.182 234.817 434.182ZM246.711 452.318C245.24 452.318 243.97 451.993 242.903 451.344C241.842 450.688 241.024 449.773 240.447 448.599C239.877 447.42 239.592 446.047 239.592 444.483C239.592 442.919 239.877 441.54 240.447 440.347C241.024 439.147 241.826 438.212 242.853 437.543C243.887 436.866 245.094 436.528 246.473 436.528C247.268 436.528 248.054 436.661 248.829 436.926C249.605 437.191 250.311 437.622 250.947 438.219C251.583 438.809 252.091 439.591 252.468 440.565C252.846 441.54 253.035 442.74 253.035 444.165V445.159H241.262V443.131H250.649C250.649 442.269 250.476 441.5 250.132 440.824C249.794 440.148 249.31 439.614 248.68 439.223C248.057 438.832 247.321 438.636 246.473 438.636C245.538 438.636 244.729 438.868 244.047 439.332C243.37 439.79 242.85 440.386 242.485 441.122C242.121 441.858 241.939 442.647 241.939 443.489V444.841C241.939 445.994 242.137 446.972 242.535 447.774C242.94 448.57 243.5 449.176 244.216 449.594C244.931 450.005 245.763 450.21 246.711 450.21C247.328 450.21 247.885 450.124 248.382 449.952C248.886 449.773 249.32 449.508 249.684 449.156C250.049 448.798 250.331 448.354 250.529 447.824L252.797 448.46C252.558 449.229 252.157 449.905 251.593 450.489C251.03 451.065 250.334 451.516 249.505 451.841C248.677 452.159 247.745 452.318 246.711 452.318ZM262.809 452.318C261.377 452.318 260.145 451.98 259.11 451.304C258.076 450.628 257.281 449.696 256.724 448.51C256.167 447.323 255.889 445.968 255.889 444.443C255.889 442.892 256.174 441.523 256.744 440.337C257.321 439.143 258.123 438.212 259.15 437.543C260.184 436.866 261.391 436.528 262.77 436.528C263.843 436.528 264.811 436.727 265.673 437.125C266.535 437.523 267.241 438.08 267.791 438.795C268.341 439.511 268.682 440.347 268.815 441.301H266.468C266.289 440.605 265.892 439.989 265.275 439.452C264.665 438.908 263.843 438.636 262.809 438.636C261.895 438.636 261.092 438.875 260.403 439.352C259.72 439.823 259.187 440.489 258.802 441.351C258.424 442.206 258.235 443.21 258.235 444.364C258.235 445.544 258.421 446.571 258.792 447.446C259.17 448.321 259.7 449 260.383 449.484C261.073 449.968 261.881 450.21 262.809 450.21C263.419 450.21 263.973 450.104 264.47 449.892C264.967 449.68 265.388 449.375 265.733 448.977C266.077 448.58 266.323 448.102 266.468 447.545H268.815C268.682 448.447 268.354 449.259 267.831 449.982C267.314 450.697 266.627 451.268 265.772 451.692C264.924 452.109 263.936 452.318 262.809 452.318ZM278.887 436.727V438.716H270.973V436.727H278.887ZM273.279 433.068H275.626V447.625C275.626 448.288 275.722 448.785 275.914 449.116C276.113 449.441 276.365 449.66 276.67 449.773C276.982 449.879 277.31 449.932 277.654 449.932C277.913 449.932 278.125 449.919 278.291 449.892C278.457 449.859 278.589 449.832 278.689 449.812L279.166 451.92C279.007 451.98 278.785 452.04 278.5 452.099C278.215 452.166 277.853 452.199 277.416 452.199C276.753 452.199 276.103 452.056 275.467 451.771C274.837 451.486 274.314 451.052 273.896 450.469C273.485 449.885 273.279 449.15 273.279 448.261V433.068ZM297.412 431.636V452H294.946V434.222H294.826L289.855 437.523V435.017L294.946 431.636H297.412Z" fill="#1A1A1A"/>
<path d="M363.602 436.727C363.483 435.72 362.999 434.938 362.151 434.381C361.302 433.824 360.261 433.545 359.028 433.545C358.127 433.545 357.338 433.691 356.662 433.983C355.992 434.275 355.469 434.676 355.091 435.186C354.72 435.696 354.534 436.277 354.534 436.926C354.534 437.47 354.663 437.937 354.922 438.328C355.187 438.713 355.525 439.034 355.936 439.293C356.347 439.545 356.778 439.753 357.229 439.919C357.679 440.078 358.094 440.207 358.472 440.307L360.54 440.864C361.07 441.003 361.66 441.195 362.31 441.44C362.966 441.686 363.592 442.02 364.189 442.445C364.792 442.862 365.289 443.399 365.68 444.055C366.071 444.712 366.267 445.517 366.267 446.472C366.267 447.572 365.979 448.566 365.402 449.455C364.832 450.343 363.997 451.049 362.896 451.572C361.803 452.096 360.473 452.358 358.909 452.358C357.451 452.358 356.188 452.123 355.121 451.652C354.06 451.181 353.225 450.525 352.615 449.683C352.012 448.841 351.67 447.864 351.591 446.75H354.136C354.203 447.519 354.461 448.155 354.912 448.659C355.369 449.156 355.946 449.527 356.642 449.773C357.345 450.011 358.1 450.131 358.909 450.131C359.85 450.131 360.696 449.978 361.445 449.673C362.194 449.362 362.787 448.931 363.224 448.381C363.662 447.824 363.881 447.174 363.881 446.432C363.881 445.756 363.692 445.205 363.314 444.781C362.936 444.357 362.439 444.012 361.822 443.747C361.206 443.482 360.54 443.25 359.824 443.051L357.318 442.335C355.727 441.878 354.468 441.225 353.54 440.376C352.612 439.528 352.148 438.418 352.148 437.045C352.148 435.905 352.456 434.911 353.072 434.062C353.696 433.207 354.531 432.545 355.578 432.074C356.632 431.597 357.809 431.358 359.108 431.358C360.42 431.358 361.587 431.593 362.608 432.064C363.629 432.528 364.438 433.164 365.034 433.973C365.637 434.782 365.955 435.7 365.989 436.727H363.602ZM379.628 445.756V436.727H381.975V452H379.628V449.415H379.469C379.111 450.19 378.554 450.85 377.799 451.393C377.043 451.93 376.088 452.199 374.935 452.199C373.98 452.199 373.132 451.99 372.39 451.572C371.647 451.148 371.064 450.512 370.64 449.663C370.215 448.808 370.003 447.731 370.003 446.432V436.727H372.35V446.273C372.35 447.386 372.661 448.275 373.284 448.938C373.914 449.6 374.716 449.932 375.691 449.932C376.274 449.932 376.867 449.783 377.471 449.484C378.08 449.186 378.591 448.729 379.002 448.112C379.419 447.496 379.628 446.71 379.628 445.756ZM386.591 452V431.636H388.938V439.153H389.136C389.309 438.888 389.547 438.55 389.852 438.139C390.164 437.722 390.608 437.35 391.185 437.026C391.768 436.694 392.557 436.528 393.551 436.528C394.837 436.528 395.971 436.85 396.952 437.493C397.933 438.136 398.698 439.047 399.249 440.227C399.799 441.407 400.074 442.799 400.074 444.403C400.074 446.021 399.799 447.423 399.249 448.609C398.698 449.789 397.936 450.704 396.962 451.354C395.987 451.997 394.864 452.318 393.591 452.318C392.61 452.318 391.824 452.156 391.234 451.831C390.644 451.5 390.19 451.125 389.872 450.707C389.554 450.283 389.309 449.932 389.136 449.653H388.858V452H386.591ZM388.898 444.364C388.898 445.517 389.067 446.535 389.405 447.416C389.743 448.291 390.237 448.977 390.886 449.474C391.536 449.965 392.331 450.21 393.273 450.21C394.254 450.21 395.072 449.952 395.729 449.435C396.392 448.911 396.889 448.208 397.22 447.327C397.558 446.438 397.727 445.451 397.727 444.364C397.727 443.29 397.562 442.322 397.23 441.46C396.905 440.592 396.411 439.906 395.749 439.402C395.092 438.892 394.267 438.636 393.273 438.636C392.318 438.636 391.516 438.878 390.866 439.362C390.217 439.839 389.726 440.509 389.395 441.371C389.063 442.226 388.898 443.223 388.898 444.364ZM403.663 436.727H406.01V453.114C406.01 454.055 405.848 454.87 405.523 455.56C405.205 456.249 404.721 456.783 404.071 457.161C403.428 457.538 402.616 457.727 401.635 457.727C401.555 457.727 401.476 457.727 401.396 457.727C401.317 457.727 401.237 457.727 401.158 457.727V455.54C401.237 455.54 401.31 455.54 401.376 455.54C401.443 455.54 401.516 455.54 401.595 455.54C402.311 455.54 402.835 455.328 403.166 454.903C403.498 454.486 403.663 453.889 403.663 453.114V436.727ZM404.817 434.182C404.359 434.182 403.965 434.026 403.634 433.714C403.309 433.403 403.146 433.028 403.146 432.591C403.146 432.153 403.309 431.779 403.634 431.467C403.965 431.156 404.359 431 404.817 431C405.274 431 405.665 431.156 405.99 431.467C406.321 431.779 406.487 432.153 406.487 432.591C406.487 433.028 406.321 433.403 405.99 433.714C405.665 434.026 405.274 434.182 404.817 434.182ZM416.711 452.318C415.24 452.318 413.97 451.993 412.903 451.344C411.842 450.688 411.024 449.773 410.447 448.599C409.877 447.42 409.592 446.047 409.592 444.483C409.592 442.919 409.877 441.54 410.447 440.347C411.024 439.147 411.826 438.212 412.853 437.543C413.887 436.866 415.094 436.528 416.473 436.528C417.268 436.528 418.054 436.661 418.829 436.926C419.605 437.191 420.311 437.622 420.947 438.219C421.583 438.809 422.091 439.591 422.468 440.565C422.846 441.54 423.035 442.74 423.035 444.165V445.159H411.262V443.131H420.649C420.649 442.269 420.476 441.5 420.132 440.824C419.794 440.148 419.31 439.614 418.68 439.223C418.057 438.832 417.321 438.636 416.473 438.636C415.538 438.636 414.729 438.868 414.047 439.332C413.37 439.79 412.85 440.386 412.485 441.122C412.121 441.858 411.939 442.647 411.939 443.489V444.841C411.939 445.994 412.137 446.972 412.535 447.774C412.94 448.57 413.5 449.176 414.216 449.594C414.931 450.005 415.763 450.21 416.711 450.21C417.328 450.21 417.885 450.124 418.382 449.952C418.886 449.773 419.32 449.508 419.684 449.156C420.049 448.798 420.331 448.354 420.529 447.824L422.797 448.46C422.558 449.229 422.157 449.905 421.593 450.489C421.03 451.065 420.334 451.516 419.505 451.841C418.677 452.159 417.745 452.318 416.711 452.318ZM432.809 452.318C431.377 452.318 430.145 451.98 429.11 451.304C428.076 450.628 427.281 449.696 426.724 448.51C426.167 447.323 425.889 445.968 425.889 444.443C425.889 442.892 426.174 441.523 426.744 440.337C427.321 439.143 428.123 438.212 429.15 437.543C430.184 436.866 431.391 436.528 432.77 436.528C433.843 436.528 434.811 436.727 435.673 437.125C436.535 437.523 437.241 438.08 437.791 438.795C438.341 439.511 438.682 440.347 438.815 441.301H436.468C436.289 440.605 435.892 439.989 435.275 439.452C434.665 438.908 433.843 438.636 432.809 438.636C431.895 438.636 431.092 438.875 430.403 439.352C429.72 439.823 429.187 440.489 428.802 441.351C428.424 442.206 428.235 443.21 428.235 444.364C428.235 445.544 428.421 446.571 428.792 447.446C429.17 448.321 429.7 449 430.383 449.484C431.073 449.968 431.881 450.21 432.809 450.21C433.419 450.21 433.973 450.104 434.47 449.892C434.967 449.68 435.388 449.375 435.733 448.977C436.077 448.58 436.323 448.102 436.468 447.545H438.815C438.682 448.447 438.354 449.259 437.831 449.982C437.314 450.697 436.627 451.268 435.772 451.692C434.924 452.109 433.936 452.318 432.809 452.318ZM448.887 436.727V438.716H440.973V436.727H448.887ZM443.279 433.068H445.626V447.625C445.626 448.288 445.722 448.785 445.914 449.116C446.113 449.441 446.365 449.66 446.67 449.773C446.982 449.879 447.31 449.932 447.654 449.932C447.913 449.932 448.125 449.919 448.291 449.892C448.457 449.859 448.589 449.832 448.689 449.812L449.166 451.92C449.007 451.98 448.785 452.04 448.5 452.099C448.215 452.166 447.853 452.199 447.416 452.199C446.753 452.199 446.103 452.056 445.467 451.771C444.837 451.486 444.314 451.052 443.896 450.469C443.485 449.885 443.279 449.15 443.279 448.261V433.068ZM460.252 452V450.21L466.974 442.852C467.763 441.991 468.413 441.241 468.923 440.605C469.433 439.962 469.811 439.359 470.056 438.795C470.308 438.225 470.434 437.629 470.434 437.006C470.434 436.29 470.262 435.67 469.917 435.146C469.579 434.623 469.115 434.218 468.525 433.933C467.935 433.648 467.272 433.506 466.537 433.506C465.754 433.506 465.072 433.668 464.488 433.993C463.912 434.311 463.464 434.759 463.146 435.335C462.834 435.912 462.679 436.588 462.679 437.364H460.332C460.332 436.17 460.607 435.123 461.157 434.222C461.708 433.32 462.457 432.617 463.404 432.114C464.359 431.61 465.43 431.358 466.616 431.358C467.809 431.358 468.867 431.61 469.788 432.114C470.709 432.617 471.432 433.297 471.956 434.152C472.479 435.007 472.741 435.958 472.741 437.006C472.741 437.755 472.605 438.487 472.333 439.203C472.068 439.912 471.604 440.705 470.941 441.58C470.285 442.448 469.374 443.509 468.207 444.761L463.633 449.653V449.812H473.099V452H460.252Z" fill="#1A1A1A"/>
<rect x="164.5" y="414.5" width="327" height="54" rx="7.5" stroke="#1A1A1A"/>
<path d="M166.034 172V137.091H179.807C182.455 137.091 184.71 137.597 186.574 138.608C188.438 139.608 189.858 141 190.835 142.784C191.824 144.557 192.318 146.602 192.318 148.92C192.318 151.239 191.818 153.284 190.818 155.057C189.818 156.83 188.369 158.21 186.472 159.199C184.585 160.187 182.301 160.682 179.619 160.682H170.841V154.767H178.426C179.847 154.767 181.017 154.523 181.938 154.034C182.869 153.534 183.563 152.847 184.017 151.972C184.483 151.085 184.716 150.068 184.716 148.92C184.716 147.761 184.483 146.75 184.017 145.886C183.563 145.011 182.869 144.335 181.938 143.858C181.006 143.369 179.824 143.125 178.392 143.125H173.415V172H166.034ZM203.739 172.494C202.068 172.494 200.58 172.205 199.273 171.625C197.966 171.034 196.932 170.165 196.17 169.017C195.42 167.858 195.045 166.415 195.045 164.688C195.045 163.233 195.313 162.011 195.847 161.023C196.381 160.034 197.108 159.239 198.028 158.636C198.949 158.034 199.994 157.58 201.165 157.273C202.347 156.966 203.585 156.75 204.881 156.625C206.403 156.466 207.631 156.318 208.562 156.182C209.494 156.034 210.17 155.818 210.591 155.534C211.011 155.25 211.222 154.83 211.222 154.273V154.17C211.222 153.091 210.881 152.256 210.199 151.665C209.528 151.074 208.574 150.778 207.335 150.778C206.028 150.778 204.989 151.068 204.216 151.648C203.443 152.216 202.932 152.932 202.682 153.795L195.966 153.25C196.307 151.659 196.977 150.284 197.977 149.125C198.977 147.955 200.267 147.057 201.847 146.432C203.438 145.795 205.278 145.477 207.369 145.477C208.824 145.477 210.216 145.648 211.545 145.989C212.886 146.33 214.074 146.858 215.108 147.574C216.153 148.29 216.977 149.21 217.58 150.335C218.182 151.449 218.483 152.784 218.483 154.341V172H211.597V168.369H211.392C210.972 169.188 210.409 169.909 209.705 170.534C209 171.148 208.153 171.631 207.165 171.983C206.176 172.324 205.034 172.494 203.739 172.494ZM205.818 167.483C206.886 167.483 207.83 167.273 208.648 166.852C209.466 166.42 210.108 165.841 210.574 165.114C211.04 164.386 211.273 163.562 211.273 162.642V159.864C211.045 160.011 210.733 160.148 210.335 160.273C209.949 160.386 209.511 160.494 209.023 160.597C208.534 160.687 208.045 160.773 207.557 160.852C207.068 160.92 206.625 160.983 206.227 161.04C205.375 161.165 204.631 161.364 203.994 161.636C203.358 161.909 202.864 162.278 202.511 162.744C202.159 163.199 201.983 163.767 201.983 164.449C201.983 165.438 202.341 166.193 203.057 166.716C203.784 167.227 204.705 167.483 205.818 167.483ZM224.116 181.818V145.818H231.276V150.216H231.599C231.918 149.511 232.378 148.795 232.98 148.068C233.594 147.33 234.389 146.716 235.366 146.227C236.355 145.727 237.582 145.477 239.048 145.477C240.957 145.477 242.719 145.977 244.332 146.977C245.946 147.966 247.236 149.46 248.202 151.46C249.168 153.449 249.651 155.943 249.651 158.943C249.651 161.864 249.179 164.33 248.236 166.341C247.304 168.341 246.031 169.858 244.418 170.892C242.815 171.915 241.02 172.426 239.031 172.426C237.622 172.426 236.423 172.193 235.435 171.727C234.457 171.261 233.656 170.676 233.031 169.972C232.406 169.256 231.929 168.534 231.599 167.807H231.378V181.818H224.116ZM231.224 158.909C231.224 160.466 231.44 161.824 231.872 162.983C232.304 164.142 232.929 165.045 233.747 165.693C234.565 166.33 235.56 166.648 236.73 166.648C237.912 166.648 238.912 166.324 239.73 165.676C240.548 165.017 241.168 164.108 241.588 162.949C242.02 161.778 242.236 160.432 242.236 158.909C242.236 157.398 242.026 156.068 241.605 154.92C241.185 153.773 240.565 152.875 239.747 152.227C238.929 151.58 237.923 151.256 236.73 151.256C235.548 151.256 234.548 151.568 233.73 152.193C232.923 152.818 232.304 153.705 231.872 154.852C231.44 156 231.224 157.352 231.224 158.909ZM266.423 172.511C263.73 172.511 261.412 171.966 259.469 170.875C257.537 169.773 256.048 168.216 255.003 166.205C253.957 164.182 253.435 161.79 253.435 159.028C253.435 156.335 253.957 153.972 255.003 151.938C256.048 149.903 257.52 148.318 259.418 147.182C261.327 146.045 263.565 145.477 266.134 145.477C267.861 145.477 269.469 145.756 270.957 146.312C272.457 146.858 273.764 147.682 274.878 148.784C276.003 149.886 276.878 151.273 277.503 152.943C278.128 154.602 278.44 156.545 278.44 158.773V160.767H256.332V156.267H271.605C271.605 155.222 271.378 154.295 270.923 153.489C270.469 152.682 269.838 152.051 269.031 151.597C268.236 151.131 267.31 150.898 266.253 150.898C265.151 150.898 264.173 151.153 263.321 151.665C262.48 152.165 261.821 152.841 261.344 153.693C260.866 154.534 260.622 155.472 260.611 156.506V160.784C260.611 162.08 260.849 163.199 261.327 164.142C261.815 165.085 262.503 165.812 263.389 166.324C264.276 166.835 265.327 167.091 266.543 167.091C267.349 167.091 268.088 166.977 268.759 166.75C269.429 166.523 270.003 166.182 270.48 165.727C270.957 165.273 271.321 164.716 271.571 164.057L278.287 164.5C277.946 166.114 277.247 167.523 276.19 168.727C275.145 169.92 273.793 170.852 272.134 171.523C270.486 172.182 268.582 172.511 266.423 172.511ZM283.179 172V145.818H290.219V150.386H290.491C290.969 148.761 291.77 147.534 292.895 146.705C294.02 145.864 295.315 145.443 296.781 145.443C297.145 145.443 297.537 145.466 297.957 145.511C298.378 145.557 298.747 145.619 299.065 145.699V152.142C298.724 152.04 298.253 151.949 297.651 151.869C297.048 151.79 296.497 151.75 295.997 151.75C294.929 151.75 293.974 151.983 293.134 152.449C292.304 152.903 291.645 153.54 291.156 154.358C290.679 155.176 290.44 156.119 290.44 157.188V172H283.179ZM343.264 137.091V172H336.889L321.702 150.028H321.446V172H314.065V137.091H320.543L335.611 159.045H335.918V137.091H343.264ZM356.692 172.494C355.021 172.494 353.533 172.205 352.226 171.625C350.919 171.034 349.885 170.165 349.124 169.017C348.374 167.858 347.999 166.415 347.999 164.688C347.999 163.233 348.266 162.011 348.8 161.023C349.334 160.034 350.061 159.239 350.982 158.636C351.902 158.034 352.947 157.58 354.118 157.273C355.3 156.966 356.538 156.75 357.834 156.625C359.357 156.466 360.584 156.318 361.516 156.182C362.447 156.034 363.124 155.818 363.544 155.534C363.964 155.25 364.175 154.83 364.175 154.273V154.17C364.175 153.091 363.834 152.256 363.152 151.665C362.482 151.074 361.527 150.778 360.288 150.778C358.982 150.778 357.942 151.068 357.169 151.648C356.396 152.216 355.885 152.932 355.635 153.795L348.919 153.25C349.26 151.659 349.93 150.284 350.93 149.125C351.93 147.955 353.22 147.057 354.8 146.432C356.391 145.795 358.232 145.477 360.322 145.477C361.777 145.477 363.169 145.648 364.499 145.989C365.839 146.33 367.027 146.858 368.061 147.574C369.107 148.29 369.93 149.21 370.533 150.335C371.135 151.449 371.436 152.784 371.436 154.341V172H364.55V168.369H364.345C363.925 169.188 363.362 169.909 362.658 170.534C361.953 171.148 361.107 171.631 360.118 171.983C359.129 172.324 357.987 172.494 356.692 172.494ZM358.771 167.483C359.839 167.483 360.783 167.273 361.601 166.852C362.419 166.42 363.061 165.841 363.527 165.114C363.993 164.386 364.226 163.562 364.226 162.642V159.864C363.999 160.011 363.686 160.148 363.288 160.273C362.902 160.386 362.464 160.494 361.976 160.597C361.487 160.687 360.999 160.773 360.51 160.852C360.021 160.92 359.578 160.983 359.18 161.04C358.328 161.165 357.584 161.364 356.947 161.636C356.311 161.909 355.817 162.278 355.464 162.744C355.112 163.199 354.936 163.767 354.936 164.449C354.936 165.438 355.294 166.193 356.01 166.716C356.737 167.227 357.658 167.483 358.771 167.483ZM377.07 172V145.818H383.99V150.438H384.297C384.842 148.903 385.751 147.693 387.024 146.807C388.297 145.92 389.82 145.477 391.592 145.477C393.388 145.477 394.916 145.926 396.178 146.824C397.439 147.71 398.28 148.915 398.7 150.438H398.973C399.507 148.938 400.473 147.739 401.871 146.841C403.28 145.932 404.945 145.477 406.865 145.477C409.308 145.477 411.291 146.256 412.814 147.812C414.348 149.358 415.115 151.551 415.115 154.392V172H407.871V155.824C407.871 154.369 407.484 153.278 406.712 152.551C405.939 151.824 404.973 151.46 403.814 151.46C402.496 151.46 401.467 151.881 400.729 152.722C399.99 153.551 399.621 154.648 399.621 156.011V172H392.581V155.67C392.581 154.386 392.212 153.364 391.473 152.602C390.746 151.841 389.786 151.46 388.592 151.46C387.786 151.46 387.058 151.665 386.411 152.074C385.774 152.472 385.268 153.034 384.893 153.761C384.518 154.477 384.331 155.318 384.331 156.284V172H377.07ZM432.783 172.511C430.089 172.511 427.771 171.966 425.828 170.875C423.896 169.773 422.408 168.216 421.362 166.205C420.317 164.182 419.794 161.79 419.794 159.028C419.794 156.335 420.317 153.972 421.362 151.938C422.408 149.903 423.879 148.318 425.777 147.182C427.686 146.045 429.925 145.477 432.493 145.477C434.22 145.477 435.828 145.756 437.317 146.312C438.817 146.858 440.124 147.682 441.237 148.784C442.362 149.886 443.237 151.273 443.862 152.943C444.487 154.602 444.8 156.545 444.8 158.773V160.767H422.692V156.267H437.964C437.964 155.222 437.737 154.295 437.283 153.489C436.828 152.682 436.197 152.051 435.391 151.597C434.595 151.131 433.669 150.898 432.612 150.898C431.51 150.898 430.533 151.153 429.68 151.665C428.839 152.165 428.18 152.841 427.703 153.693C427.226 154.534 426.982 155.472 426.97 156.506V160.784C426.97 162.08 427.209 163.199 427.686 164.142C428.175 165.085 428.862 165.812 429.749 166.324C430.635 166.835 431.686 167.091 432.902 167.091C433.709 167.091 434.447 166.977 435.118 166.75C435.788 166.523 436.362 166.182 436.839 165.727C437.317 165.273 437.68 164.716 437.93 164.057L444.646 164.5C444.305 166.114 443.607 167.523 442.55 168.727C441.504 169.92 440.152 170.852 438.493 171.523C436.845 172.182 434.942 172.511 432.783 172.511Z" fill="#1A1A1A"/>
<path d="M164.739 218.631V215.818H184.375V218.631H176.142V242H172.972V218.631H164.739ZM191.876 230.188V242H188.859V215.818H191.876V225.432H192.132C192.592 224.418 193.282 223.612 194.203 223.016C195.132 222.411 196.368 222.108 197.91 222.108C199.248 222.108 200.42 222.376 201.426 222.913C202.431 223.442 203.211 224.256 203.765 225.355C204.328 226.446 204.609 227.835 204.609 229.523V242H201.592V229.727C201.592 228.168 201.187 226.962 200.377 226.109C199.576 225.249 198.464 224.818 197.041 224.818C196.052 224.818 195.166 225.027 194.382 225.445C193.606 225.862 192.993 226.472 192.541 227.273C192.098 228.074 191.876 229.045 191.876 230.188ZM218.362 242.409C216.469 242.409 214.837 241.991 213.465 241.156C212.102 240.312 211.049 239.136 210.308 237.628C209.575 236.111 209.208 234.347 209.208 232.335C209.208 230.324 209.575 228.551 210.308 227.017C211.049 225.474 212.08 224.273 213.401 223.412C214.731 222.543 216.282 222.108 218.055 222.108C219.077 222.108 220.087 222.278 221.085 222.619C222.082 222.96 222.989 223.514 223.808 224.281C224.626 225.04 225.278 226.045 225.763 227.298C226.249 228.551 226.492 230.094 226.492 231.926V233.205H211.356V230.597H223.424C223.424 229.489 223.202 228.5 222.759 227.631C222.325 226.761 221.702 226.075 220.893 225.572C220.092 225.07 219.146 224.818 218.055 224.818C216.853 224.818 215.813 225.116 214.935 225.713C214.066 226.301 213.397 227.068 212.928 228.014C212.46 228.96 212.225 229.974 212.225 231.057V232.795C212.225 234.278 212.481 235.536 212.992 236.567C213.512 237.589 214.232 238.369 215.153 238.906C216.073 239.435 217.143 239.699 218.362 239.699C219.154 239.699 219.87 239.588 220.509 239.366C221.157 239.136 221.715 238.795 222.184 238.344C222.653 237.884 223.015 237.312 223.271 236.631L226.185 237.449C225.879 238.438 225.363 239.307 224.638 240.057C223.914 240.798 223.019 241.378 221.954 241.795C220.888 242.205 219.691 242.409 218.362 242.409ZM241.616 242V215.818H244.633V225.483H244.888C245.11 225.142 245.417 224.707 245.809 224.179C246.21 223.642 246.781 223.165 247.522 222.747C248.272 222.321 249.286 222.108 250.565 222.108C252.218 222.108 253.675 222.521 254.937 223.348C256.198 224.175 257.183 225.347 257.89 226.864C258.597 228.381 258.951 230.17 258.951 232.233C258.951 234.312 258.597 236.115 257.89 237.641C257.183 239.158 256.202 240.334 254.95 241.169C253.697 241.996 252.252 242.409 250.616 242.409C249.354 242.409 248.344 242.2 247.586 241.783C246.827 241.357 246.244 240.875 245.835 240.338C245.425 239.793 245.11 239.341 244.888 238.983H244.531V242H241.616ZM244.582 232.182C244.582 233.665 244.799 234.973 245.234 236.107C245.668 237.232 246.303 238.114 247.138 238.753C247.974 239.384 248.996 239.699 250.207 239.699C251.468 239.699 252.521 239.366 253.364 238.702C254.217 238.028 254.856 237.125 255.282 235.991C255.717 234.849 255.934 233.58 255.934 232.182C255.934 230.801 255.721 229.557 255.295 228.449C254.877 227.332 254.242 226.45 253.39 225.803C252.546 225.146 251.485 224.818 250.207 224.818C248.979 224.818 247.948 225.129 247.113 225.751C246.278 226.365 245.647 227.226 245.221 228.334C244.795 229.433 244.582 230.716 244.582 232.182ZM271.799 242.409C269.907 242.409 268.275 241.991 266.903 241.156C265.539 240.312 264.487 239.136 263.745 237.628C263.012 236.111 262.646 234.347 262.646 232.335C262.646 230.324 263.012 228.551 263.745 227.017C264.487 225.474 265.518 224.273 266.839 223.412C268.168 222.543 269.719 222.108 271.492 222.108C272.515 222.108 273.525 222.278 274.522 222.619C275.519 222.96 276.427 223.514 277.245 224.281C278.063 225.04 278.715 226.045 279.201 227.298C279.687 228.551 279.93 230.094 279.93 231.926V233.205H264.793V230.597H276.862C276.862 229.489 276.64 228.5 276.197 227.631C275.762 226.761 275.14 226.075 274.33 225.572C273.529 225.07 272.583 224.818 271.492 224.818C270.29 224.818 269.251 225.116 268.373 225.713C267.504 226.301 266.835 227.068 266.366 228.014C265.897 228.96 265.663 229.974 265.663 231.057V232.795C265.663 234.278 265.918 235.536 266.43 236.567C266.95 237.589 267.67 238.369 268.59 238.906C269.511 239.435 270.58 239.699 271.799 239.699C272.592 239.699 273.308 239.588 273.947 239.366C274.594 239.136 275.153 238.795 275.621 238.344C276.09 237.884 276.452 237.312 276.708 236.631L279.623 237.449C279.316 238.438 278.8 239.307 278.076 240.057C277.352 240.798 276.457 241.378 275.391 241.795C274.326 242.205 273.129 242.409 271.799 242.409ZM298.428 226.761L295.718 227.528C295.548 227.077 295.296 226.638 294.964 226.212C294.64 225.777 294.197 225.419 293.634 225.138C293.072 224.857 292.352 224.716 291.474 224.716C290.272 224.716 289.271 224.993 288.469 225.547C287.677 226.092 287.281 226.787 287.281 227.631C287.281 228.381 287.553 228.973 288.099 229.408C288.644 229.842 289.496 230.205 290.656 230.494L293.57 231.21C295.326 231.636 296.634 232.288 297.495 233.166C298.356 234.036 298.786 235.156 298.786 236.528C298.786 237.653 298.462 238.659 297.815 239.545C297.175 240.432 296.281 241.131 295.13 241.642C293.979 242.153 292.641 242.409 291.116 242.409C289.113 242.409 287.455 241.974 286.143 241.105C284.83 240.236 283.999 238.966 283.65 237.295L286.513 236.58C286.786 237.636 287.302 238.429 288.06 238.957C288.827 239.486 289.829 239.75 291.065 239.75C292.471 239.75 293.587 239.452 294.414 238.855C295.249 238.25 295.667 237.526 295.667 236.682C295.667 236 295.428 235.429 294.951 234.969C294.474 234.5 293.741 234.151 292.752 233.92L289.479 233.153C287.681 232.727 286.36 232.067 285.516 231.172C284.681 230.268 284.263 229.139 284.263 227.784C284.263 226.676 284.575 225.696 285.197 224.844C285.827 223.991 286.684 223.322 287.766 222.837C288.857 222.351 290.093 222.108 291.474 222.108C293.417 222.108 294.942 222.534 296.05 223.386C297.167 224.239 297.96 225.364 298.428 226.761ZM311.868 222.364V224.92H301.691V222.364H311.868ZM304.657 217.659H307.674V236.375C307.674 237.227 307.798 237.866 308.045 238.293C308.301 238.71 308.625 238.991 309.017 239.136C309.417 239.273 309.839 239.341 310.282 239.341C310.615 239.341 310.887 239.324 311.1 239.29C311.314 239.247 311.484 239.213 311.612 239.188L312.225 241.898C312.021 241.974 311.735 242.051 311.369 242.128C311.002 242.213 310.538 242.256 309.975 242.256C309.123 242.256 308.288 242.072 307.47 241.706C306.66 241.339 305.987 240.781 305.45 240.031C304.922 239.281 304.657 238.335 304.657 237.193V217.659ZM326.531 249.364V222.364H329.446V225.483H329.804C330.025 225.142 330.332 224.707 330.724 224.179C331.125 223.642 331.696 223.165 332.437 222.747C333.187 222.321 334.201 222.108 335.48 222.108C337.133 222.108 338.591 222.521 339.852 223.348C341.113 224.175 342.098 225.347 342.805 226.864C343.512 228.381 343.866 230.17 343.866 232.233C343.866 234.312 343.512 236.115 342.805 237.641C342.098 239.158 341.118 240.334 339.865 241.169C338.612 241.996 337.167 242.409 335.531 242.409C334.27 242.409 333.26 242.2 332.501 241.783C331.743 241.357 331.159 240.875 330.75 240.338C330.341 239.793 330.025 239.341 329.804 238.983H329.548V249.364H326.531ZM329.497 232.182C329.497 233.665 329.714 234.973 330.149 236.107C330.583 237.232 331.218 238.114 332.054 238.753C332.889 239.384 333.912 239.699 335.122 239.699C336.383 239.699 337.436 239.366 338.279 238.702C339.132 238.028 339.771 237.125 340.197 235.991C340.632 234.849 340.849 233.58 340.849 232.182C340.849 230.801 340.636 229.557 340.21 228.449C339.792 227.332 339.157 226.45 338.305 225.803C337.461 225.146 336.4 224.818 335.122 224.818C333.895 224.818 332.863 225.129 332.028 225.751C331.193 226.365 330.562 227.226 330.136 228.334C329.71 229.433 329.497 230.716 329.497 232.182ZM354.247 242.46C353.002 242.46 351.873 242.226 350.859 241.757C349.845 241.28 349.039 240.594 348.443 239.699C347.846 238.795 347.548 237.705 347.548 236.426C347.548 235.301 347.77 234.389 348.213 233.69C348.656 232.983 349.248 232.429 349.99 232.028C350.731 231.628 351.549 231.33 352.444 231.134C353.348 230.929 354.255 230.767 355.167 230.648C356.36 230.494 357.328 230.379 358.069 230.303C358.819 230.217 359.365 230.077 359.706 229.881C360.055 229.685 360.23 229.344 360.23 228.858V228.756C360.23 227.494 359.885 226.514 359.194 225.815C358.512 225.116 357.477 224.767 356.088 224.767C354.647 224.767 353.518 225.082 352.7 225.713C351.882 226.344 351.306 227.017 350.974 227.733L348.11 226.71C348.622 225.517 349.304 224.588 350.156 223.923C351.017 223.25 351.954 222.781 352.968 222.517C353.991 222.244 354.997 222.108 355.985 222.108C356.616 222.108 357.341 222.185 358.159 222.338C358.985 222.483 359.782 222.786 360.549 223.246C361.325 223.706 361.968 224.401 362.48 225.33C362.991 226.259 363.247 227.503 363.247 229.062V242H360.23V239.341H360.076C359.872 239.767 359.531 240.223 359.054 240.709C358.576 241.195 357.941 241.608 357.149 241.949C356.356 242.29 355.389 242.46 354.247 242.46ZM354.707 239.75C355.9 239.75 356.906 239.516 357.724 239.047C358.551 238.578 359.173 237.973 359.591 237.232C360.017 236.49 360.23 235.71 360.23 234.892V232.131C360.102 232.284 359.821 232.425 359.386 232.553C358.96 232.672 358.466 232.778 357.903 232.872C357.349 232.957 356.808 233.034 356.279 233.102C355.76 233.162 355.338 233.213 355.014 233.256C354.23 233.358 353.497 233.524 352.815 233.754C352.142 233.976 351.596 234.312 351.179 234.764C350.77 235.207 350.565 235.812 350.565 236.58C350.565 237.628 350.953 238.42 351.728 238.957C352.512 239.486 353.505 239.75 354.707 239.75ZM368.754 249.364V222.364H371.668V225.483H372.026C372.248 225.142 372.555 224.707 372.947 224.179C373.347 223.642 373.918 223.165 374.66 222.747C375.41 222.321 376.424 222.108 377.702 222.108C379.356 222.108 380.813 222.521 382.075 223.348C383.336 224.175 384.32 225.347 385.028 226.864C385.735 228.381 386.089 230.17 386.089 232.233C386.089 234.312 385.735 236.115 385.028 237.641C384.32 239.158 383.34 240.334 382.087 241.169C380.835 241.996 379.39 242.409 377.754 242.409C376.492 242.409 375.482 242.2 374.724 241.783C373.965 241.357 373.381 240.875 372.972 240.338C372.563 239.793 372.248 239.341 372.026 238.983H371.771V249.364H368.754ZM371.719 232.182C371.719 233.665 371.937 234.973 372.371 236.107C372.806 237.232 373.441 238.114 374.276 238.753C375.112 239.384 376.134 239.699 377.344 239.699C378.606 239.699 379.658 239.366 380.502 238.702C381.354 238.028 381.994 237.125 382.42 235.991C382.854 234.849 383.072 233.58 383.072 232.182C383.072 230.801 382.859 229.557 382.433 228.449C382.015 227.332 381.38 226.45 380.528 225.803C379.684 225.146 378.623 224.818 377.344 224.818C376.117 224.818 375.086 225.129 374.251 225.751C373.415 226.365 372.785 227.226 372.359 228.334C371.933 229.433 371.719 230.716 371.719 232.182ZM398.924 242.409C397.032 242.409 395.4 241.991 394.028 241.156C392.664 240.312 391.612 239.136 390.87 237.628C390.137 236.111 389.771 234.347 389.771 232.335C389.771 230.324 390.137 228.551 390.87 227.017C391.612 225.474 392.643 224.273 393.964 223.412C395.293 222.543 396.844 222.108 398.617 222.108C399.64 222.108 400.65 222.278 401.647 222.619C402.644 222.96 403.552 223.514 404.37 224.281C405.188 225.04 405.84 226.045 406.326 227.298C406.812 228.551 407.055 230.094 407.055 231.926V233.205H391.918V230.597H403.987C403.987 229.489 403.765 228.5 403.322 227.631C402.887 226.761 402.265 226.075 401.455 225.572C400.654 225.07 399.708 224.818 398.617 224.818C397.415 224.818 396.376 225.116 395.498 225.713C394.629 226.301 393.96 227.068 393.491 228.014C393.022 228.96 392.788 229.974 392.788 231.057V232.795C392.788 234.278 393.043 235.536 393.555 236.567C394.075 237.589 394.795 238.369 395.715 238.906C396.636 239.435 397.705 239.699 398.924 239.699C399.717 239.699 400.433 239.588 401.072 239.366C401.719 239.136 402.278 238.795 402.746 238.344C403.215 237.884 403.577 237.312 403.833 236.631L406.748 237.449C406.441 238.438 405.925 239.307 405.201 240.057C404.477 240.798 403.582 241.378 402.516 241.795C401.451 242.205 400.254 242.409 398.924 242.409ZM411.644 242V222.364H414.559V225.33H414.763C415.121 224.358 415.769 223.57 416.707 222.964C417.644 222.359 418.701 222.057 419.877 222.057C420.099 222.057 420.376 222.061 420.708 222.07C421.04 222.078 421.292 222.091 421.462 222.108V225.176C421.36 225.151 421.126 225.112 420.759 225.061C420.401 225.001 420.022 224.972 419.621 224.972C418.667 224.972 417.815 225.172 417.065 225.572C416.323 225.964 415.735 226.51 415.3 227.209C414.874 227.899 414.661 228.687 414.661 229.574V242H411.644ZM443.397 242.409C441.505 242.409 439.873 241.991 438.5 241.156C437.137 240.312 436.084 239.136 435.343 237.628C434.61 236.111 434.243 234.347 434.243 232.335C434.243 230.324 434.61 228.551 435.343 227.017C436.084 225.474 437.115 224.273 438.436 223.412C439.766 222.543 441.317 222.108 443.09 222.108C444.113 222.108 445.123 222.278 446.12 222.619C447.117 222.96 448.025 223.514 448.843 224.281C449.661 225.04 450.313 226.045 450.799 227.298C451.284 228.551 451.527 230.094 451.527 231.926V233.205H436.391V230.597H448.459C448.459 229.489 448.238 228.5 447.794 227.631C447.36 226.761 446.738 226.075 445.928 225.572C445.127 225.07 444.181 224.818 443.09 224.818C441.888 224.818 440.848 225.116 439.971 225.713C439.101 226.301 438.432 227.068 437.963 228.014C437.495 228.96 437.26 229.974 437.26 231.057V232.795C437.26 234.278 437.516 235.536 438.027 236.567C438.547 237.589 439.267 238.369 440.188 238.906C441.108 239.435 442.178 239.699 443.397 239.699C444.189 239.699 444.905 239.588 445.544 239.366C446.192 239.136 446.75 238.795 447.219 238.344C447.688 237.884 448.05 237.312 448.306 236.631L451.221 237.449C450.914 238.438 450.398 239.307 449.674 240.057C448.949 240.798 448.054 241.378 446.989 241.795C445.924 242.205 444.726 242.409 443.397 242.409ZM471.576 222.364L464.315 242H461.246L453.985 222.364H457.258L462.678 238.011H462.883L468.303 222.364H471.576ZM483.088 242.409C481.196 242.409 479.564 241.991 478.192 241.156C476.828 240.312 475.776 239.136 475.034 237.628C474.301 236.111 473.935 234.347 473.935 232.335C473.935 230.324 474.301 228.551 475.034 227.017C475.776 225.474 476.807 224.273 478.128 223.412C479.457 222.543 481.009 222.108 482.781 222.108C483.804 222.108 484.814 222.278 485.811 222.619C486.808 222.96 487.716 223.514 488.534 224.281C489.352 225.04 490.004 226.045 490.49 227.298C490.976 228.551 491.219 230.094 491.219 231.926V233.205H476.082V230.597H488.151C488.151 229.489 487.929 228.5 487.486 227.631C487.051 226.761 486.429 226.075 485.619 225.572C484.818 225.07 483.872 224.818 482.781 224.818C481.58 224.818 480.54 225.116 479.662 225.713C478.793 226.301 478.124 227.068 477.655 228.014C477.186 228.96 476.952 229.974 476.952 231.057V232.795C476.952 234.278 477.207 235.536 477.719 236.567C478.239 237.589 478.959 238.369 479.879 238.906C480.8 239.435 481.869 239.699 483.088 239.699C483.881 239.699 484.597 239.588 485.236 239.366C485.884 239.136 486.442 238.795 486.911 238.344C487.379 237.884 487.741 237.312 487.997 236.631L490.912 237.449C490.605 238.438 490.089 239.307 489.365 240.057C488.641 240.798 487.746 241.378 486.68 241.795C485.615 242.205 484.418 242.409 483.088 242.409ZM495.808 242V222.364H498.723V225.33H498.928C499.286 224.358 499.933 223.57 500.871 222.964C501.808 222.359 502.865 222.057 504.041 222.057C504.263 222.057 504.54 222.061 504.872 222.07C505.205 222.078 505.456 222.091 505.626 222.108V225.176C505.524 225.151 505.29 225.112 504.923 225.061C504.565 225.001 504.186 224.972 503.786 224.972C502.831 224.972 501.979 225.172 501.229 225.572C500.487 225.964 499.899 226.51 499.464 227.209C499.038 227.899 498.825 228.687 498.825 229.574V242H495.808ZM523.777 242L517.794 222.364H520.964L525.208 237.398H525.413L529.606 222.364H532.828L536.97 237.347H537.174L541.419 222.364H544.589L538.606 242H535.64L531.345 226.915H531.038L526.743 242H523.777ZM548.578 242V222.364H551.493V225.33H551.697C552.055 224.358 552.703 223.57 553.64 222.964C554.578 222.359 555.635 222.057 556.811 222.057C557.032 222.057 557.309 222.061 557.642 222.07C557.974 222.078 558.225 222.091 558.396 222.108V225.176C558.294 225.151 558.059 225.112 557.693 225.061C557.335 225.001 556.956 224.972 556.555 224.972C555.6 224.972 554.748 225.172 553.998 225.572C553.257 225.964 552.669 226.51 552.234 227.209C551.808 227.899 551.595 228.687 551.595 229.574V242H548.578ZM561.972 242V222.364H564.989V242H561.972ZM563.506 219.091C562.918 219.091 562.411 218.891 561.985 218.49C561.567 218.089 561.359 217.608 561.359 217.045C561.359 216.483 561.567 216.001 561.985 215.601C562.411 215.2 562.918 215 563.506 215C564.094 215 564.597 215.2 565.015 215.601C565.441 216.001 565.654 216.483 565.654 217.045C565.654 217.608 565.441 218.089 565.015 218.49C564.597 218.891 564.094 219.091 563.506 219.091ZM579.055 222.364V224.92H568.879V222.364H579.055ZM571.845 217.659H574.862V236.375C574.862 237.227 574.985 237.866 575.233 238.293C575.488 238.71 575.812 238.991 576.204 239.136C576.605 239.273 577.027 239.341 577.47 239.341C577.802 239.341 578.075 239.324 578.288 239.29C578.501 239.247 578.672 239.213 578.799 239.188L579.413 241.898C579.208 241.974 578.923 242.051 578.556 242.128C578.19 242.213 577.725 242.256 577.163 242.256C576.311 242.256 575.475 242.072 574.657 241.706C573.848 241.339 573.174 240.781 572.637 240.031C572.109 239.281 571.845 238.335 571.845 237.193V217.659ZM592.133 222.364V224.92H581.957V222.364H592.133ZM584.923 217.659H587.94V236.375C587.94 237.227 588.064 237.866 588.311 238.293C588.566 238.71 588.89 238.991 589.282 239.136C589.683 239.273 590.105 239.341 590.548 239.341C590.88 239.341 591.153 239.324 591.366 239.29C591.579 239.247 591.75 239.213 591.877 239.188L592.491 241.898C592.287 241.974 592.001 242.051 591.635 242.128C591.268 242.213 590.804 242.256 590.241 242.256C589.389 242.256 588.554 242.072 587.735 241.706C586.926 241.339 586.252 240.781 585.716 240.031C585.187 239.281 584.923 238.335 584.923 237.193V217.659ZM604.694 242.409C602.801 242.409 601.169 241.991 599.797 241.156C598.434 240.312 597.381 239.136 596.64 237.628C595.907 236.111 595.54 234.347 595.54 232.335C595.54 230.324 595.907 228.551 596.64 227.017C597.381 225.474 598.412 224.273 599.733 223.412C601.063 222.543 602.614 222.108 604.387 222.108C605.409 222.108 606.419 222.278 607.417 222.619C608.414 222.96 609.321 223.514 610.14 224.281C610.958 225.04 611.61 226.045 612.096 227.298C612.581 228.551 612.824 230.094 612.824 231.926V233.205H597.688V230.597H609.756C609.756 229.489 609.534 228.5 609.091 227.631C608.657 226.761 608.034 226.075 607.225 225.572C606.424 225.07 605.478 224.818 604.387 224.818C603.185 224.818 602.145 225.116 601.267 225.713C600.398 226.301 599.729 227.068 599.26 228.014C598.792 228.96 598.557 229.974 598.557 231.057V232.795C598.557 234.278 598.813 235.536 599.324 236.567C599.844 237.589 600.564 238.369 601.485 238.906C602.405 239.435 603.475 239.699 604.694 239.699C605.486 239.699 606.202 239.588 606.841 239.366C607.489 239.136 608.047 238.795 608.516 238.344C608.985 237.884 609.347 237.312 609.603 236.631L612.517 237.449C612.211 238.438 611.695 239.307 610.971 240.057C610.246 240.798 609.351 241.378 608.286 241.795C607.221 242.205 606.023 242.409 604.694 242.409ZM620.431 230.188V242H617.414V222.364H620.328V225.432H620.584C621.044 224.435 621.743 223.634 622.681 223.028C623.618 222.415 624.828 222.108 626.311 222.108C627.641 222.108 628.804 222.381 629.801 222.926C630.799 223.463 631.574 224.281 632.128 225.381C632.682 226.472 632.959 227.852 632.959 229.523V242H629.942V229.727C629.942 228.185 629.542 226.983 628.74 226.122C627.939 225.253 626.84 224.818 625.442 224.818C624.479 224.818 623.618 225.027 622.86 225.445C622.11 225.862 621.517 226.472 621.083 227.273C620.648 228.074 620.431 229.045 620.431 230.188Z" fill="#1A1A1A"/>
</svg>
