<svg width="800" height="600" viewBox="0 0 800 600" fill="none" xmlns="http://www.w3.org/2000/svg">
<rect width="800" height="600" fill="white"/>
<path d="M281.606 237.148H275.073C274.954 236.303 274.71 235.553 274.342 234.896C273.974 234.23 273.502 233.663 272.925 233.196C272.349 232.729 271.683 232.371 270.927 232.122C270.181 231.874 269.371 231.749 268.496 231.749C266.915 231.749 265.538 232.142 264.364 232.928C263.191 233.703 262.281 234.837 261.635 236.328C260.989 237.81 260.665 239.609 260.665 241.727C260.665 243.905 260.989 245.734 261.635 247.216C262.291 248.697 263.206 249.816 264.379 250.572C265.553 251.327 266.91 251.705 268.451 251.705C269.316 251.705 270.116 251.591 270.852 251.362C271.598 251.134 272.259 250.8 272.836 250.363C273.413 249.915 273.89 249.374 274.268 248.737C274.656 248.101 274.924 247.375 275.073 246.56L281.606 246.589C281.437 247.991 281.014 249.344 280.338 250.646C279.672 251.939 278.772 253.097 277.638 254.121C276.515 255.136 275.173 255.941 273.612 256.538C272.06 257.124 270.305 257.418 268.347 257.418C265.622 257.418 263.186 256.801 261.038 255.568C258.901 254.335 257.21 252.55 255.967 250.214C254.734 247.877 254.118 245.048 254.118 241.727C254.118 238.396 254.744 235.562 255.997 233.226C257.25 230.889 258.95 229.109 261.098 227.886C263.246 226.653 265.662 226.037 268.347 226.037C270.116 226.037 271.757 226.286 273.268 226.783C274.79 227.28 276.137 228.006 277.31 228.96C278.484 229.905 279.438 231.063 280.174 232.435C280.92 233.808 281.397 235.379 281.606 237.148ZM296.468 257.447C294.152 257.447 292.148 256.955 290.458 255.971C288.777 254.977 287.48 253.594 286.565 251.825C285.65 250.045 285.193 247.982 285.193 245.635C285.193 243.268 285.65 241.2 286.565 239.43C287.48 237.651 288.777 236.268 290.458 235.284C292.148 234.29 294.152 233.793 296.468 233.793C298.785 233.793 300.784 234.29 302.464 235.284C304.154 236.268 305.457 237.651 306.372 239.43C307.287 241.2 307.744 243.268 307.744 245.635C307.744 247.982 307.287 250.045 306.372 251.825C305.457 253.594 304.154 254.977 302.464 255.971C300.784 256.955 298.785 257.447 296.468 257.447ZM296.498 252.526C297.552 252.526 298.432 252.227 299.138 251.631C299.844 251.024 300.376 250.199 300.734 249.155C301.102 248.111 301.286 246.923 301.286 245.59C301.286 244.258 301.102 243.07 300.734 242.026C300.376 240.982 299.844 240.156 299.138 239.55C298.432 238.943 297.552 238.64 296.498 238.64C295.434 238.64 294.539 238.943 293.814 239.55C293.098 240.156 292.556 240.982 292.188 242.026C291.83 243.07 291.651 244.258 291.651 245.59C291.651 246.923 291.83 248.111 292.188 249.155C292.556 250.199 293.098 251.024 293.814 251.631C294.539 252.227 295.434 252.526 296.498 252.526ZM326.566 247.246V234.091H332.92V257H326.82V252.839H326.581C326.064 254.181 325.204 255.26 324.001 256.075C322.808 256.891 321.351 257.298 319.631 257.298C318.1 257.298 316.752 256.95 315.589 256.254C314.426 255.558 313.516 254.569 312.86 253.286C312.213 252.004 311.885 250.467 311.875 248.678V234.091H318.229V247.544C318.239 248.896 318.602 249.965 319.318 250.751C320.034 251.536 320.993 251.929 322.196 251.929C322.962 251.929 323.678 251.755 324.344 251.407C325.01 251.049 325.547 250.522 325.955 249.826C326.373 249.13 326.576 248.27 326.566 247.246ZM338.002 257V234.091H344.162V238.088H344.401C344.818 236.666 345.519 235.592 346.504 234.866C347.488 234.131 348.622 233.763 349.904 233.763C350.222 233.763 350.566 233.783 350.933 233.822C351.301 233.862 351.624 233.917 351.903 233.987V239.624C351.605 239.535 351.192 239.455 350.665 239.386C350.138 239.316 349.656 239.281 349.218 239.281C348.284 239.281 347.448 239.485 346.713 239.893C345.987 240.29 345.41 240.847 344.982 241.563C344.565 242.279 344.356 243.104 344.356 244.039V257H338.002ZM374.249 240.624L368.432 240.982C368.333 240.484 368.119 240.037 367.791 239.639C367.463 239.232 367.03 238.908 366.493 238.67C365.966 238.421 365.335 238.297 364.599 238.297C363.615 238.297 362.784 238.506 362.108 238.923C361.432 239.331 361.094 239.878 361.094 240.564C361.094 241.111 361.313 241.573 361.75 241.951C362.188 242.329 362.939 242.632 364.002 242.861L368.149 243.696C370.376 244.153 372.037 244.889 373.13 245.903C374.224 246.918 374.771 248.25 374.771 249.901C374.771 251.402 374.328 252.719 373.444 253.853C372.569 254.987 371.365 255.871 369.834 256.508C368.313 257.134 366.558 257.447 364.569 257.447C361.537 257.447 359.12 256.816 357.321 255.553C355.531 254.281 354.482 252.55 354.174 250.363L360.423 250.035C360.612 250.96 361.069 251.665 361.795 252.153C362.521 252.63 363.451 252.869 364.584 252.869C365.698 252.869 366.593 252.655 367.269 252.227C367.955 251.79 368.303 251.228 368.313 250.542C368.303 249.965 368.059 249.493 367.582 249.125C367.105 248.747 366.369 248.459 365.375 248.26L361.407 247.469C359.17 247.022 357.505 246.246 356.411 245.143C355.327 244.039 354.785 242.632 354.785 240.922C354.785 239.45 355.183 238.183 355.978 237.119C356.784 236.055 357.912 235.234 359.364 234.658C360.826 234.081 362.536 233.793 364.495 233.793C367.388 233.793 369.665 234.404 371.326 235.627C372.996 236.85 373.971 238.516 374.249 240.624ZM389.212 257.447C386.856 257.447 384.827 256.97 383.127 256.016C381.437 255.051 380.134 253.689 379.219 251.929C378.305 250.159 377.847 248.066 377.847 245.65C377.847 243.293 378.305 241.225 379.219 239.445C380.134 237.665 381.422 236.278 383.082 235.284C384.753 234.29 386.711 233.793 388.959 233.793C390.47 233.793 391.877 234.036 393.18 234.523C394.492 235.001 395.635 235.722 396.61 236.686C397.594 237.651 398.36 238.864 398.907 240.325C399.454 241.777 399.727 243.477 399.727 245.426V247.171H380.383V243.234H393.746C393.746 242.319 393.547 241.509 393.15 240.803C392.752 240.097 392.2 239.545 391.494 239.147C390.798 238.739 389.988 238.536 389.063 238.536C388.099 238.536 387.243 238.759 386.498 239.207C385.762 239.644 385.185 240.236 384.768 240.982C384.35 241.717 384.136 242.538 384.126 243.442V247.186C384.126 248.32 384.335 249.299 384.753 250.124C385.18 250.95 385.782 251.586 386.557 252.033C387.333 252.481 388.253 252.705 389.317 252.705C390.023 252.705 390.669 252.605 391.256 252.406C391.842 252.207 392.344 251.909 392.762 251.511C393.18 251.114 393.498 250.626 393.716 250.05L399.593 250.438C399.295 251.849 398.683 253.082 397.758 254.136C396.844 255.18 395.66 255.996 394.209 256.582C392.767 257.159 391.101 257.447 389.212 257.447ZM412.55 231.779V226.455H437.637V231.779H428.285V257H421.902V231.779H412.55ZM448.677 257.447C446.361 257.447 444.357 256.955 442.667 255.971C440.986 254.977 439.689 253.594 438.774 251.825C437.859 250.045 437.402 247.982 437.402 245.635C437.402 243.268 437.859 241.2 438.774 239.43C439.689 237.651 440.986 236.268 442.667 235.284C444.357 234.29 446.361 233.793 448.677 233.793C450.994 233.793 452.993 234.29 454.673 235.284C456.363 236.268 457.666 237.651 458.581 239.43C459.496 241.2 459.953 243.268 459.953 245.635C459.953 247.982 459.496 250.045 458.581 251.825C457.666 253.594 456.363 254.977 454.673 255.971C452.993 256.955 450.994 257.447 448.677 257.447ZM448.707 252.526C449.761 252.526 450.641 252.227 451.347 251.631C452.053 251.024 452.585 250.199 452.943 249.155C453.311 248.111 453.495 246.923 453.495 245.59C453.495 244.258 453.311 243.07 452.943 242.026C452.585 240.982 452.053 240.156 451.347 239.55C450.641 238.943 449.761 238.64 448.707 238.64C447.643 238.64 446.748 238.943 446.023 239.55C445.307 240.156 444.765 240.982 444.397 242.026C444.039 243.07 443.86 244.258 443.86 245.59C443.86 246.923 444.039 248.111 444.397 249.155C444.765 250.199 445.307 251.024 446.023 251.631C446.748 252.227 447.643 252.526 448.707 252.526ZM464.084 265.591V234.091H470.349V237.939H470.632C470.91 237.322 471.313 236.696 471.84 236.06C472.377 235.413 473.073 234.876 473.928 234.449C474.793 234.011 475.867 233.793 477.15 233.793C478.82 233.793 480.361 234.23 481.773 235.105C483.185 235.97 484.314 237.278 485.159 239.028C486.004 240.768 486.427 242.95 486.427 245.575C486.427 248.131 486.014 250.288 485.189 252.048C484.373 253.798 483.26 255.126 481.848 256.031C480.446 256.925 478.875 257.373 477.135 257.373C475.902 257.373 474.853 257.169 473.988 256.761C473.133 256.354 472.432 255.842 471.885 255.225C471.338 254.599 470.92 253.967 470.632 253.331H470.438V265.591H464.084ZM470.304 245.545C470.304 246.908 470.493 248.096 470.871 249.11C471.248 250.124 471.795 250.915 472.511 251.482C473.227 252.038 474.097 252.317 475.121 252.317C476.155 252.317 477.03 252.033 477.746 251.467C478.462 250.89 479.004 250.094 479.372 249.08C479.75 248.056 479.939 246.878 479.939 245.545C479.939 244.223 479.755 243.06 479.387 242.055C479.019 241.051 478.477 240.266 477.761 239.699C477.045 239.132 476.165 238.849 475.121 238.849C474.087 238.849 473.212 239.122 472.496 239.669C471.79 240.216 471.248 240.991 470.871 241.996C470.493 243 470.304 244.183 470.304 245.545ZM490.662 257V234.091H497.016V257H490.662ZM493.854 231.138C492.91 231.138 492.099 230.825 491.423 230.198C490.757 229.562 490.424 228.801 490.424 227.916C490.424 227.041 490.757 226.29 491.423 225.664C492.099 225.028 492.91 224.71 493.854 224.71C494.799 224.71 495.604 225.028 496.27 225.664C496.947 226.29 497.285 227.041 497.285 227.916C497.285 228.801 496.947 229.562 496.27 230.198C495.604 230.825 494.799 231.138 493.854 231.138ZM512.457 257.447C510.11 257.447 508.092 256.95 506.401 255.956C504.721 254.952 503.428 253.56 502.523 251.78C501.629 250 501.181 247.952 501.181 245.635C501.181 243.288 501.634 241.23 502.538 239.46C503.453 237.68 504.751 236.293 506.431 235.299C508.112 234.295 510.11 233.793 512.427 233.793C514.425 233.793 516.175 234.156 517.677 234.881C519.178 235.607 520.366 236.626 521.241 237.939C522.116 239.251 522.599 240.793 522.688 242.562H516.692C516.523 241.419 516.076 240.499 515.35 239.803C514.634 239.097 513.695 238.744 512.531 238.744C511.547 238.744 510.687 239.013 509.951 239.55C509.225 240.077 508.658 240.847 508.251 241.862C507.843 242.876 507.639 244.104 507.639 245.545C507.639 247.007 507.838 248.25 508.236 249.274C508.643 250.298 509.215 251.079 509.951 251.616C510.687 252.153 511.547 252.421 512.531 252.421C513.257 252.421 513.908 252.272 514.485 251.974C515.072 251.675 515.554 251.243 515.932 250.676C516.32 250.099 516.573 249.408 516.692 248.603H522.688C522.589 250.353 522.112 251.894 521.256 253.227C520.411 254.549 519.243 255.583 517.751 256.329C516.26 257.075 514.495 257.447 512.457 257.447ZM545.817 240.624L540.001 240.982C539.901 240.484 539.687 240.037 539.359 239.639C539.031 239.232 538.599 238.908 538.062 238.67C537.535 238.421 536.903 238.297 536.167 238.297C535.183 238.297 534.353 238.506 533.677 238.923C533.001 239.331 532.662 239.878 532.662 240.564C532.662 241.111 532.881 241.573 533.319 241.951C533.756 242.329 534.507 242.632 535.571 242.861L539.717 243.696C541.944 244.153 543.605 244.889 544.699 245.903C545.792 246.918 546.339 248.25 546.339 249.901C546.339 251.402 545.897 252.719 545.012 253.853C544.137 254.987 542.934 255.871 541.403 256.508C539.881 257.134 538.126 257.447 536.138 257.447C533.105 257.447 530.689 256.816 528.889 255.553C527.099 254.281 526.05 252.55 525.742 250.363L531.991 250.035C532.18 250.96 532.638 251.665 533.363 252.153C534.089 252.63 535.019 252.869 536.153 252.869C537.266 252.869 538.161 252.655 538.837 252.227C539.523 251.79 539.871 251.228 539.881 250.542C539.871 249.965 539.628 249.493 539.15 249.125C538.673 248.747 537.937 248.459 536.943 248.26L532.976 247.469C530.738 247.022 529.073 246.246 527.979 245.143C526.895 244.039 526.354 242.632 526.354 240.922C526.354 239.45 526.751 238.183 527.547 237.119C528.352 236.055 529.481 235.234 530.932 234.658C532.394 234.081 534.104 233.793 536.063 233.793C538.956 233.793 541.233 234.404 542.894 235.627C544.564 236.85 545.539 238.516 545.817 240.624Z" fill="#1A1A1A"/>
<path d="M165.545 341.227V338.727H183V341.227H175.682V362H172.864V341.227H165.545ZM186.713 368.545C186.259 368.545 185.853 368.508 185.497 368.432C185.141 368.364 184.895 368.295 184.759 368.227L185.44 365.864C186.092 366.03 186.668 366.091 187.168 366.045C187.668 366 188.111 365.777 188.497 365.375C188.891 364.981 189.251 364.341 189.577 363.455L190.077 362.091L183.622 344.545H186.531L191.349 358.455H191.531L196.349 344.545H199.259L191.849 364.545C191.516 365.447 191.103 366.193 190.611 366.784C190.118 367.383 189.546 367.826 188.895 368.114C188.251 368.402 187.524 368.545 186.713 368.545ZM202.798 368.545V344.545H205.389V347.318H205.707C205.904 347.015 206.177 346.629 206.526 346.159C206.882 345.682 207.389 345.258 208.048 344.886C208.715 344.508 209.616 344.318 210.753 344.318C212.223 344.318 213.518 344.686 214.639 345.42C215.76 346.155 216.635 347.197 217.264 348.545C217.893 349.894 218.207 351.485 218.207 353.318C218.207 355.167 217.893 356.769 217.264 358.125C216.635 359.473 215.764 360.519 214.651 361.261C213.537 361.996 212.253 362.364 210.798 362.364C209.677 362.364 208.779 362.178 208.105 361.807C207.431 361.428 206.912 361 206.548 360.523C206.185 360.038 205.904 359.636 205.707 359.318H205.48V368.545H202.798ZM205.435 353.273C205.435 354.591 205.628 355.754 206.014 356.761C206.401 357.761 206.965 358.545 207.707 359.114C208.45 359.674 209.359 359.955 210.435 359.955C211.556 359.955 212.491 359.659 213.241 359.068C213.999 358.47 214.567 357.667 214.946 356.659C215.332 355.644 215.526 354.515 215.526 353.273C215.526 352.045 215.336 350.939 214.957 349.955C214.586 348.962 214.022 348.178 213.264 347.602C212.514 347.019 211.571 346.727 210.435 346.727C209.344 346.727 208.427 347.004 207.685 347.557C206.942 348.102 206.382 348.867 206.003 349.852C205.624 350.83 205.435 351.97 205.435 353.273ZM229.389 362.364C227.813 362.364 226.431 361.989 225.241 361.239C224.06 360.489 223.135 359.439 222.469 358.091C221.81 356.742 221.48 355.167 221.48 353.364C221.48 351.545 221.81 349.958 222.469 348.602C223.135 347.246 224.06 346.193 225.241 345.443C226.431 344.693 227.813 344.318 229.389 344.318C230.965 344.318 232.344 344.693 233.526 345.443C234.715 346.193 235.639 347.246 236.298 348.602C236.965 349.958 237.298 351.545 237.298 353.364C237.298 355.167 236.965 356.742 236.298 358.091C235.639 359.439 234.715 360.489 233.526 361.239C232.344 361.989 230.965 362.364 229.389 362.364ZM229.389 359.955C230.586 359.955 231.571 359.648 232.344 359.034C233.116 358.42 233.688 357.614 234.06 356.614C234.431 355.614 234.616 354.53 234.616 353.364C234.616 352.197 234.431 351.11 234.06 350.102C233.688 349.095 233.116 348.28 232.344 347.659C231.571 347.038 230.586 346.727 229.389 346.727C228.192 346.727 227.207 347.038 226.435 347.659C225.662 348.28 225.09 349.095 224.719 350.102C224.348 351.11 224.162 352.197 224.162 353.364C224.162 354.53 224.348 355.614 224.719 356.614C225.09 357.614 225.662 358.42 226.435 359.034C227.207 359.648 228.192 359.955 229.389 359.955ZM248.438 368.909C247.142 368.909 246.028 368.742 245.097 368.409C244.165 368.083 243.388 367.652 242.767 367.114C242.153 366.583 241.665 366.015 241.301 365.409L243.438 363.909C243.68 364.227 243.987 364.591 244.358 365C244.729 365.417 245.237 365.777 245.881 366.08C246.532 366.39 247.384 366.545 248.438 366.545C249.847 366.545 251.009 366.205 251.926 365.523C252.843 364.841 253.301 363.773 253.301 362.318V358.773H253.074C252.877 359.091 252.597 359.485 252.233 359.955C251.877 360.417 251.362 360.83 250.688 361.193C250.021 361.549 249.119 361.727 247.983 361.727C246.574 361.727 245.309 361.394 244.188 360.727C243.074 360.061 242.191 359.091 241.54 357.818C240.896 356.545 240.574 355 240.574 353.182C240.574 351.394 240.888 349.837 241.517 348.511C242.146 347.178 243.021 346.148 244.142 345.42C245.263 344.686 246.559 344.318 248.028 344.318C249.165 344.318 250.066 344.508 250.733 344.886C251.407 345.258 251.922 345.682 252.278 346.159C252.642 346.629 252.922 347.015 253.119 347.318H253.392V344.545H255.983V362.5C255.983 364 255.642 365.22 254.96 366.159C254.286 367.106 253.377 367.799 252.233 368.239C251.097 368.686 249.831 368.909 248.438 368.909ZM248.347 359.318C249.422 359.318 250.331 359.072 251.074 358.58C251.816 358.087 252.381 357.379 252.767 356.455C253.153 355.53 253.347 354.424 253.347 353.136C253.347 351.879 253.157 350.769 252.778 349.807C252.4 348.845 251.839 348.091 251.097 347.545C250.354 347 249.438 346.727 248.347 346.727C247.21 346.727 246.263 347.015 245.506 347.591C244.756 348.167 244.191 348.939 243.812 349.909C243.441 350.879 243.256 351.955 243.256 353.136C243.256 354.348 243.445 355.42 243.824 356.352C244.21 357.277 244.778 358.004 245.528 358.534C246.286 359.057 247.225 359.318 248.347 359.318ZM260.892 362V344.545H263.483V347.182H263.665C263.983 346.318 264.559 345.617 265.392 345.08C266.225 344.542 267.165 344.273 268.21 344.273C268.407 344.273 268.653 344.277 268.949 344.284C269.244 344.292 269.468 344.303 269.619 344.318V347.045C269.528 347.023 269.32 346.989 268.994 346.943C268.676 346.89 268.339 346.864 267.983 346.864C267.134 346.864 266.377 347.042 265.71 347.398C265.051 347.746 264.528 348.231 264.142 348.852C263.763 349.466 263.574 350.167 263.574 350.955V362H260.892ZM277.935 362.409C276.829 362.409 275.825 362.201 274.923 361.784C274.022 361.36 273.306 360.75 272.776 359.955C272.245 359.152 271.98 358.182 271.98 357.045C271.98 356.045 272.177 355.235 272.571 354.614C272.965 353.985 273.491 353.492 274.151 353.136C274.81 352.78 275.537 352.515 276.332 352.341C277.135 352.159 277.942 352.015 278.753 351.909C279.813 351.773 280.673 351.67 281.332 351.602C281.999 351.527 282.484 351.402 282.787 351.227C283.098 351.053 283.253 350.75 283.253 350.318V350.227C283.253 349.106 282.946 348.235 282.332 347.614C281.726 346.992 280.806 346.682 279.571 346.682C278.291 346.682 277.287 346.962 276.56 347.523C275.832 348.083 275.321 348.682 275.026 349.318L272.48 348.409C272.935 347.348 273.541 346.523 274.298 345.932C275.063 345.333 275.897 344.917 276.798 344.682C277.707 344.439 278.601 344.318 279.48 344.318C280.041 344.318 280.685 344.386 281.412 344.523C282.147 344.652 282.855 344.92 283.537 345.33C284.226 345.739 284.798 346.356 285.253 347.182C285.707 348.008 285.935 349.114 285.935 350.5V362H283.253V359.636H283.116C282.935 360.015 282.632 360.42 282.207 360.852C281.783 361.284 281.219 361.652 280.514 361.955C279.81 362.258 278.95 362.409 277.935 362.409ZM278.344 360C279.404 360 280.298 359.792 281.026 359.375C281.76 358.958 282.313 358.42 282.685 357.761C283.063 357.102 283.253 356.409 283.253 355.682V353.227C283.139 353.364 282.889 353.489 282.503 353.602C282.124 353.708 281.685 353.803 281.185 353.886C280.692 353.962 280.211 354.03 279.741 354.091C279.279 354.144 278.904 354.189 278.616 354.227C277.92 354.318 277.268 354.466 276.662 354.67C276.063 354.867 275.579 355.167 275.207 355.568C274.844 355.962 274.662 356.5 274.662 357.182C274.662 358.114 275.007 358.818 275.696 359.295C276.393 359.765 277.276 360 278.344 360ZM290.83 368.545V344.545H293.42V347.318H293.739C293.936 347.015 294.208 346.629 294.557 346.159C294.913 345.682 295.42 345.258 296.08 344.886C296.746 344.508 297.648 344.318 298.784 344.318C300.254 344.318 301.549 344.686 302.67 345.42C303.792 346.155 304.667 347.197 305.295 348.545C305.924 349.894 306.239 351.485 306.239 353.318C306.239 355.167 305.924 356.769 305.295 358.125C304.667 359.473 303.795 360.519 302.682 361.261C301.568 361.996 300.284 362.364 298.83 362.364C297.708 362.364 296.811 362.178 296.136 361.807C295.462 361.428 294.943 361 294.58 360.523C294.216 360.038 293.936 359.636 293.739 359.318H293.511V368.545H290.83ZM293.466 353.273C293.466 354.591 293.659 355.754 294.045 356.761C294.432 357.761 294.996 358.545 295.739 359.114C296.481 359.674 297.39 359.955 298.466 359.955C299.587 359.955 300.523 359.659 301.273 359.068C302.03 358.47 302.598 357.667 302.977 356.659C303.364 355.644 303.557 354.515 303.557 353.273C303.557 352.045 303.367 350.939 302.989 349.955C302.617 348.962 302.053 348.178 301.295 347.602C300.545 347.019 299.602 346.727 298.466 346.727C297.375 346.727 296.458 347.004 295.716 347.557C294.973 348.102 294.413 348.867 294.034 349.852C293.655 350.83 293.466 351.97 293.466 353.273ZM313.011 351.5V362H310.33V338.727H313.011V347.273H313.239C313.648 346.371 314.261 345.655 315.08 345.125C315.905 344.587 317.004 344.318 318.375 344.318C319.564 344.318 320.606 344.557 321.5 345.034C322.394 345.504 323.087 346.227 323.58 347.205C324.08 348.174 324.33 349.409 324.33 350.909V362H321.648V351.091C321.648 349.705 321.288 348.633 320.568 347.875C319.856 347.11 318.867 346.727 317.602 346.727C316.723 346.727 315.936 346.913 315.239 347.284C314.549 347.655 314.004 348.197 313.602 348.909C313.208 349.621 313.011 350.485 313.011 351.5ZM330.338 368.545C329.884 368.545 329.478 368.508 329.122 368.432C328.766 368.364 328.52 368.295 328.384 368.227L329.065 365.864C329.717 366.03 330.293 366.091 330.793 366.045C331.293 366 331.736 365.777 332.122 365.375C332.516 364.981 332.876 364.341 333.202 363.455L333.702 362.091L327.247 344.545H330.156L334.974 358.455H335.156L339.974 344.545H342.884L335.474 364.545C335.141 365.447 334.728 366.193 334.236 366.784C333.743 367.383 333.171 367.826 332.52 368.114C331.876 368.402 331.149 368.545 330.338 368.545Z" fill="#1A1A1A"/>
<rect x="152.5" y="323.5" width="203" height="54" rx="7.5" stroke="#1A1A1A"/>
<path d="M392.818 362V338.727H395.636V359.5H406.455V362H392.818ZM415.591 362.409C414.485 362.409 413.481 362.201 412.58 361.784C411.678 361.36 410.962 360.75 410.432 359.955C409.902 359.152 409.636 358.182 409.636 357.045C409.636 356.045 409.833 355.235 410.227 354.614C410.621 353.985 411.148 353.492 411.807 353.136C412.466 352.78 413.193 352.515 413.989 352.341C414.792 352.159 415.598 352.015 416.409 351.909C417.47 351.773 418.33 351.67 418.989 351.602C419.655 351.527 420.14 351.402 420.443 351.227C420.754 351.053 420.909 350.75 420.909 350.318V350.227C420.909 349.106 420.602 348.235 419.989 347.614C419.383 346.992 418.462 346.682 417.227 346.682C415.947 346.682 414.943 346.962 414.216 347.523C413.489 348.083 412.977 348.682 412.682 349.318L410.136 348.409C410.591 347.348 411.197 346.523 411.955 345.932C412.72 345.333 413.553 344.917 414.455 344.682C415.364 344.439 416.258 344.318 417.136 344.318C417.697 344.318 418.341 344.386 419.068 344.523C419.803 344.652 420.511 344.92 421.193 345.33C421.883 345.739 422.455 346.356 422.909 347.182C423.364 348.008 423.591 349.114 423.591 350.5V362H420.909V359.636H420.773C420.591 360.015 420.288 360.42 419.864 360.852C419.439 361.284 418.875 361.652 418.17 361.955C417.466 362.258 416.606 362.409 415.591 362.409ZM416 360C417.061 360 417.955 359.792 418.682 359.375C419.417 358.958 419.97 358.42 420.341 357.761C420.72 357.102 420.909 356.409 420.909 355.682V353.227C420.795 353.364 420.545 353.489 420.159 353.602C419.78 353.708 419.341 353.803 418.841 353.886C418.348 353.962 417.867 354.03 417.398 354.091C416.936 354.144 416.561 354.189 416.273 354.227C415.576 354.318 414.924 354.466 414.318 354.67C413.72 354.867 413.235 355.167 412.864 355.568C412.5 355.962 412.318 356.5 412.318 357.182C412.318 358.114 412.663 358.818 413.352 359.295C414.049 359.765 414.932 360 416 360ZM429.588 368.545C429.134 368.545 428.728 368.508 428.372 368.432C428.016 368.364 427.77 368.295 427.634 368.227L428.315 365.864C428.967 366.03 429.543 366.091 430.043 366.045C430.543 366 430.986 365.777 431.372 365.375C431.766 364.981 432.126 364.341 432.452 363.455L432.952 362.091L426.497 344.545H429.406L434.224 358.455H434.406L439.224 344.545H442.134L434.724 364.545C434.391 365.447 433.978 366.193 433.486 366.784C432.993 367.383 432.421 367.826 431.77 368.114C431.126 368.402 430.399 368.545 429.588 368.545ZM452.139 362.364C450.563 362.364 449.181 361.989 447.991 361.239C446.81 360.489 445.885 359.439 445.219 358.091C444.56 356.742 444.23 355.167 444.23 353.364C444.23 351.545 444.56 349.958 445.219 348.602C445.885 347.246 446.81 346.193 447.991 345.443C449.181 344.693 450.563 344.318 452.139 344.318C453.715 344.318 455.094 344.693 456.276 345.443C457.465 346.193 458.389 347.246 459.048 348.602C459.715 349.958 460.048 351.545 460.048 353.364C460.048 355.167 459.715 356.742 459.048 358.091C458.389 359.439 457.465 360.489 456.276 361.239C455.094 361.989 453.715 362.364 452.139 362.364ZM452.139 359.955C453.336 359.955 454.321 359.648 455.094 359.034C455.866 358.42 456.438 357.614 456.81 356.614C457.181 355.614 457.366 354.53 457.366 353.364C457.366 352.197 457.181 351.11 456.81 350.102C456.438 349.095 455.866 348.28 455.094 347.659C454.321 347.038 453.336 346.727 452.139 346.727C450.942 346.727 449.957 347.038 449.185 347.659C448.412 348.28 447.84 349.095 447.469 350.102C447.098 351.11 446.912 352.197 446.912 353.364C446.912 354.53 447.098 355.614 447.469 356.614C447.84 357.614 448.412 358.42 449.185 359.034C449.957 359.648 450.942 359.955 452.139 359.955ZM475.142 354.864V344.545H477.824V362H475.142V359.045H474.96C474.551 359.932 473.915 360.686 473.051 361.307C472.188 361.92 471.097 362.227 469.778 362.227C468.688 362.227 467.718 361.989 466.869 361.511C466.021 361.027 465.354 360.299 464.869 359.33C464.384 358.352 464.142 357.121 464.142 355.636V344.545H466.824V355.455C466.824 356.727 467.18 357.742 467.892 358.5C468.612 359.258 469.528 359.636 470.642 359.636C471.309 359.636 471.987 359.466 472.676 359.125C473.373 358.784 473.956 358.261 474.426 357.557C474.903 356.852 475.142 355.955 475.142 354.864ZM490.327 344.545V346.818H481.281V344.545H490.327ZM483.918 340.364H486.599V357C486.599 357.758 486.709 358.326 486.929 358.705C487.156 359.076 487.444 359.326 487.793 359.455C488.149 359.576 488.524 359.636 488.918 359.636C489.213 359.636 489.455 359.621 489.645 359.591C489.834 359.553 489.986 359.523 490.099 359.5L490.645 361.909C490.463 361.977 490.209 362.045 489.884 362.114C489.558 362.189 489.145 362.227 488.645 362.227C487.887 362.227 487.145 362.064 486.418 361.739C485.698 361.413 485.099 360.917 484.622 360.25C484.152 359.583 483.918 358.742 483.918 357.727V340.364Z" fill="#1A1A1A"/>
<rect x="378.5" y="323.5" width="125" height="54" rx="7.5" stroke="#1A1A1A"/>
<path d="M559.545 346H556.727C556.561 345.189 556.269 344.477 555.852 343.864C555.443 343.25 554.943 342.735 554.352 342.318C553.769 341.894 553.121 341.576 552.409 341.364C551.697 341.152 550.955 341.045 550.182 341.045C548.773 341.045 547.496 341.402 546.352 342.114C545.216 342.826 544.311 343.875 543.636 345.261C542.97 346.648 542.636 348.348 542.636 350.364C542.636 352.379 542.97 354.08 543.636 355.466C544.311 356.852 545.216 357.902 546.352 358.614C547.496 359.326 548.773 359.682 550.182 359.682C550.955 359.682 551.697 359.576 552.409 359.364C553.121 359.152 553.769 358.837 554.352 358.42C554.943 357.996 555.443 357.477 555.852 356.864C556.269 356.242 556.561 355.53 556.727 354.727H559.545C559.333 355.917 558.947 356.981 558.386 357.92C557.826 358.86 557.129 359.659 556.295 360.318C555.462 360.97 554.527 361.466 553.489 361.807C552.458 362.148 551.356 362.318 550.182 362.318C548.197 362.318 546.432 361.833 544.886 360.864C543.341 359.894 542.125 358.515 541.239 356.727C540.352 354.939 539.909 352.818 539.909 350.364C539.909 347.909 540.352 345.788 541.239 344C542.125 342.212 543.341 340.833 544.886 339.864C546.432 338.894 548.197 338.409 550.182 338.409C551.356 338.409 552.458 338.58 553.489 338.92C554.527 339.261 555.462 339.761 556.295 340.42C557.129 341.072 557.826 341.867 558.386 342.807C558.947 343.739 559.333 344.803 559.545 346ZM570.827 362.364C569.251 362.364 567.868 361.989 566.679 361.239C565.497 360.489 564.573 359.439 563.906 358.091C563.247 356.742 562.918 355.167 562.918 353.364C562.918 351.545 563.247 349.958 563.906 348.602C564.573 347.246 565.497 346.193 566.679 345.443C567.868 344.693 569.251 344.318 570.827 344.318C572.402 344.318 573.781 344.693 574.963 345.443C576.152 346.193 577.077 347.246 577.736 348.602C578.402 349.958 578.736 351.545 578.736 353.364C578.736 355.167 578.402 356.742 577.736 358.091C577.077 359.439 576.152 360.489 574.963 361.239C573.781 361.989 572.402 362.364 570.827 362.364ZM570.827 359.955C572.024 359.955 573.009 359.648 573.781 359.034C574.554 358.42 575.126 357.614 575.497 356.614C575.868 355.614 576.054 354.53 576.054 353.364C576.054 352.197 575.868 351.11 575.497 350.102C575.126 349.095 574.554 348.28 573.781 347.659C573.009 347.038 572.024 346.727 570.827 346.727C569.63 346.727 568.645 347.038 567.872 347.659C567.099 348.28 566.527 349.095 566.156 350.102C565.785 351.11 565.599 352.197 565.599 353.364C565.599 354.53 565.785 355.614 566.156 356.614C566.527 357.614 567.099 358.42 567.872 359.034C568.645 359.648 569.63 359.955 570.827 359.955ZM585.511 338.727V362H582.83V338.727H585.511ZM597.514 362.364C595.938 362.364 594.556 361.989 593.366 361.239C592.185 360.489 591.26 359.439 590.594 358.091C589.935 356.742 589.605 355.167 589.605 353.364C589.605 351.545 589.935 349.958 590.594 348.602C591.26 347.246 592.185 346.193 593.366 345.443C594.556 344.693 595.938 344.318 597.514 344.318C599.09 344.318 600.469 344.693 601.651 345.443C602.84 346.193 603.764 347.246 604.423 348.602C605.09 349.958 605.423 351.545 605.423 353.364C605.423 355.167 605.09 356.742 604.423 358.091C603.764 359.439 602.84 360.489 601.651 361.239C600.469 361.989 599.09 362.364 597.514 362.364ZM597.514 359.955C598.711 359.955 599.696 359.648 600.469 359.034C601.241 358.42 601.813 357.614 602.185 356.614C602.556 355.614 602.741 354.53 602.741 353.364C602.741 352.197 602.556 351.11 602.185 350.102C601.813 349.095 601.241 348.28 600.469 347.659C599.696 347.038 598.711 346.727 597.514 346.727C596.317 346.727 595.332 347.038 594.56 347.659C593.787 348.28 593.215 349.095 592.844 350.102C592.473 351.11 592.287 352.197 592.287 353.364C592.287 354.53 592.473 355.614 592.844 356.614C593.215 357.614 593.787 358.42 594.56 359.034C595.332 359.648 596.317 359.955 597.514 359.955ZM609.517 362V344.545H612.108V347.182H612.29C612.608 346.318 613.184 345.617 614.017 345.08C614.85 344.542 615.79 344.273 616.835 344.273C617.032 344.273 617.278 344.277 617.574 344.284C617.869 344.292 618.093 344.303 618.244 344.318V347.045C618.153 347.023 617.945 346.989 617.619 346.943C617.301 346.89 616.964 346.864 616.608 346.864C615.759 346.864 615.002 347.042 614.335 347.398C613.676 347.746 613.153 348.231 612.767 348.852C612.388 349.466 612.199 350.167 612.199 350.955V362H609.517ZM633.787 348.455L631.378 349.136C631.226 348.735 631.003 348.345 630.707 347.966C630.42 347.58 630.026 347.261 629.526 347.011C629.026 346.761 628.385 346.636 627.605 346.636C626.537 346.636 625.647 346.883 624.935 347.375C624.23 347.86 623.878 348.477 623.878 349.227C623.878 349.894 624.12 350.42 624.605 350.807C625.09 351.193 625.848 351.515 626.878 351.773L629.469 352.409C631.029 352.788 632.192 353.367 632.957 354.148C633.723 354.92 634.105 355.917 634.105 357.136C634.105 358.136 633.817 359.03 633.241 359.818C632.673 360.606 631.878 361.227 630.855 361.682C629.832 362.136 628.643 362.364 627.287 362.364C625.507 362.364 624.033 361.977 622.866 361.205C621.7 360.432 620.961 359.303 620.651 357.818L623.196 357.182C623.438 358.121 623.897 358.826 624.571 359.295C625.253 359.765 626.143 360 627.241 360C628.491 360 629.484 359.735 630.219 359.205C630.961 358.667 631.332 358.023 631.332 357.273C631.332 356.667 631.12 356.159 630.696 355.75C630.272 355.333 629.62 355.023 628.741 354.818L625.832 354.136C624.234 353.758 623.06 353.17 622.31 352.375C621.567 351.572 621.196 350.568 621.196 349.364C621.196 348.379 621.473 347.508 622.026 346.75C622.586 345.992 623.348 345.398 624.31 344.966C625.279 344.534 626.378 344.318 627.605 344.318C629.332 344.318 630.688 344.697 631.673 345.455C632.666 346.212 633.37 347.212 633.787 348.455Z" fill="#1A1A1A"/>
<rect x="526.5" y="323.5" width="121" height="54" rx="7.5" stroke="#1A1A1A"/>
</svg>
