<svg width="800" height="600" viewBox="0 0 800 600" fill="none" xmlns="http://www.w3.org/2000/svg">
<rect width="800" height="600" fill="white"/>
<path d="M189.606 136.148H183.073C182.954 135.303 182.71 134.553 182.342 133.896C181.974 133.23 181.502 132.663 180.925 132.196C180.349 131.729 179.683 131.371 178.927 131.122C178.181 130.874 177.371 130.749 176.496 130.749C174.915 130.749 173.538 131.142 172.364 131.928C171.191 132.703 170.281 133.837 169.635 135.328C168.989 136.81 168.665 138.609 168.665 140.727C168.665 142.905 168.989 144.734 169.635 146.216C170.291 147.697 171.206 148.816 172.379 149.572C173.553 150.327 174.91 150.705 176.451 150.705C177.316 150.705 178.116 150.591 178.852 150.362C179.598 150.134 180.259 149.8 180.836 149.363C181.413 148.915 181.89 148.374 182.268 147.737C182.656 147.101 182.924 146.375 183.073 145.56L189.606 145.589C189.437 146.991 189.014 148.344 188.338 149.646C187.672 150.939 186.772 152.097 185.638 153.121C184.515 154.136 183.173 154.941 181.612 155.538C180.06 156.124 178.305 156.418 176.347 156.418C173.622 156.418 171.186 155.801 169.038 154.568C166.901 153.335 165.21 151.55 163.967 149.214C162.734 146.877 162.118 144.048 162.118 140.727C162.118 137.396 162.744 134.562 163.997 132.226C165.25 129.889 166.95 128.109 169.098 126.886C171.246 125.653 173.662 125.037 176.347 125.037C178.116 125.037 179.757 125.286 181.268 125.783C182.79 126.28 184.137 127.006 185.31 127.96C186.484 128.905 187.438 130.063 188.174 131.435C188.92 132.808 189.397 134.379 189.606 136.148ZM204.468 156.447C202.152 156.447 200.148 155.955 198.458 154.971C196.777 153.977 195.48 152.594 194.565 150.825C193.65 149.045 193.193 146.982 193.193 144.635C193.193 142.268 193.65 140.2 194.565 138.43C195.48 136.651 196.777 135.268 198.458 134.284C200.148 133.29 202.152 132.793 204.468 132.793C206.785 132.793 208.784 133.29 210.464 134.284C212.154 135.268 213.457 136.651 214.372 138.43C215.287 140.2 215.744 142.268 215.744 144.635C215.744 146.982 215.287 149.045 214.372 150.825C213.457 152.594 212.154 153.977 210.464 154.971C208.784 155.955 206.785 156.447 204.468 156.447ZM204.498 151.526C205.552 151.526 206.432 151.227 207.138 150.631C207.844 150.024 208.376 149.199 208.734 148.155C209.102 147.111 209.286 145.923 209.286 144.59C209.286 143.258 209.102 142.07 208.734 141.026C208.376 139.982 207.844 139.156 207.138 138.55C206.432 137.943 205.552 137.64 204.498 137.64C203.434 137.64 202.539 137.943 201.814 138.55C201.098 139.156 200.556 139.982 200.188 141.026C199.83 142.07 199.651 143.258 199.651 144.59C199.651 145.923 199.83 147.111 200.188 148.155C200.556 149.199 201.098 150.024 201.814 150.631C202.539 151.227 203.434 151.526 204.498 151.526ZM234.566 146.246V133.091H240.92V156H234.82V151.839H234.581C234.064 153.181 233.204 154.26 232.001 155.075C230.808 155.891 229.351 156.298 227.631 156.298C226.1 156.298 224.752 155.95 223.589 155.254C222.426 154.558 221.516 153.569 220.86 152.286C220.213 151.004 219.885 149.467 219.875 147.678V133.091H226.229V146.544C226.239 147.896 226.602 148.965 227.318 149.751C228.034 150.536 228.993 150.929 230.196 150.929C230.962 150.929 231.678 150.755 232.344 150.407C233.01 150.049 233.547 149.522 233.955 148.826C234.373 148.13 234.576 147.27 234.566 146.246ZM246.002 156V133.091H252.162V137.088H252.401C252.818 135.666 253.519 134.592 254.504 133.866C255.488 133.131 256.622 132.763 257.904 132.763C258.222 132.763 258.566 132.783 258.933 132.822C259.301 132.862 259.624 132.917 259.903 132.987V138.624C259.605 138.535 259.192 138.455 258.665 138.386C258.138 138.316 257.656 138.281 257.218 138.281C256.284 138.281 255.448 138.485 254.713 138.893C253.987 139.29 253.41 139.847 252.982 140.563C252.565 141.279 252.356 142.104 252.356 143.039V156H246.002ZM282.249 139.624L276.432 139.982C276.333 139.484 276.119 139.037 275.791 138.639C275.463 138.232 275.03 137.908 274.493 137.67C273.966 137.421 273.335 137.297 272.599 137.297C271.615 137.297 270.784 137.506 270.108 137.923C269.432 138.331 269.094 138.878 269.094 139.564C269.094 140.111 269.313 140.573 269.75 140.951C270.188 141.329 270.939 141.632 272.002 141.861L276.149 142.696C278.376 143.153 280.037 143.889 281.13 144.903C282.224 145.918 282.771 147.25 282.771 148.901C282.771 150.402 282.328 151.719 281.444 152.853C280.569 153.987 279.365 154.871 277.834 155.508C276.313 156.134 274.558 156.447 272.569 156.447C269.537 156.447 267.12 155.816 265.321 154.553C263.531 153.281 262.482 151.55 262.174 149.363L268.423 149.035C268.612 149.96 269.069 150.665 269.795 151.153C270.521 151.63 271.451 151.869 272.584 151.869C273.698 151.869 274.593 151.655 275.269 151.227C275.955 150.79 276.303 150.228 276.313 149.542C276.303 148.965 276.059 148.493 275.582 148.125C275.105 147.747 274.369 147.459 273.375 147.26L269.407 146.469C267.17 146.022 265.505 145.246 264.411 144.143C263.327 143.039 262.785 141.632 262.785 139.922C262.785 138.45 263.183 137.183 263.978 136.119C264.784 135.055 265.912 134.234 267.364 133.658C268.826 133.081 270.536 132.793 272.495 132.793C275.388 132.793 277.665 133.404 279.326 134.627C280.996 135.85 281.971 137.516 282.249 139.624ZM297.212 156.447C294.856 156.447 292.827 155.97 291.127 155.016C289.437 154.051 288.134 152.689 287.219 150.929C286.305 149.159 285.847 147.066 285.847 144.65C285.847 142.293 286.305 140.225 287.219 138.445C288.134 136.665 289.422 135.278 291.082 134.284C292.753 133.29 294.711 132.793 296.959 132.793C298.47 132.793 299.877 133.036 301.18 133.523C302.492 134.001 303.635 134.722 304.61 135.686C305.594 136.651 306.36 137.864 306.907 139.325C307.454 140.777 307.727 142.477 307.727 144.426V146.171H288.383V142.234H301.746C301.746 141.319 301.547 140.509 301.15 139.803C300.752 139.097 300.2 138.545 299.494 138.147C298.798 137.739 297.988 137.536 297.063 137.536C296.099 137.536 295.243 137.759 294.498 138.207C293.762 138.644 293.185 139.236 292.768 139.982C292.35 140.717 292.136 141.538 292.126 142.442V146.186C292.126 147.32 292.335 148.299 292.753 149.124C293.18 149.95 293.782 150.586 294.557 151.033C295.333 151.481 296.253 151.705 297.317 151.705C298.023 151.705 298.669 151.605 299.256 151.406C299.842 151.207 300.344 150.909 300.762 150.511C301.18 150.114 301.498 149.626 301.716 149.05L307.593 149.438C307.295 150.849 306.683 152.082 305.758 153.136C304.844 154.18 303.66 154.996 302.209 155.582C300.767 156.159 299.101 156.447 297.212 156.447ZM320.55 130.779V125.455H345.637V130.779H336.285V156H329.902V130.779H320.55ZM356.677 156.447C354.361 156.447 352.357 155.955 350.667 154.971C348.986 153.977 347.689 152.594 346.774 150.825C345.859 149.045 345.402 146.982 345.402 144.635C345.402 142.268 345.859 140.2 346.774 138.43C347.689 136.651 348.986 135.268 350.667 134.284C352.357 133.29 354.361 132.793 356.677 132.793C358.994 132.793 360.993 133.29 362.673 134.284C364.363 135.268 365.666 136.651 366.581 138.43C367.496 140.2 367.953 142.268 367.953 144.635C367.953 146.982 367.496 149.045 366.581 150.825C365.666 152.594 364.363 153.977 362.673 154.971C360.993 155.955 358.994 156.447 356.677 156.447ZM356.707 151.526C357.761 151.526 358.641 151.227 359.347 150.631C360.053 150.024 360.585 149.199 360.943 148.155C361.311 147.111 361.495 145.923 361.495 144.59C361.495 143.258 361.311 142.07 360.943 141.026C360.585 139.982 360.053 139.156 359.347 138.55C358.641 137.943 357.761 137.64 356.707 137.64C355.643 137.64 354.748 137.943 354.023 138.55C353.307 139.156 352.765 139.982 352.397 141.026C352.039 142.07 351.86 143.258 351.86 144.59C351.86 145.923 352.039 147.111 352.397 148.155C352.765 149.199 353.307 150.024 354.023 150.631C354.748 151.227 355.643 151.526 356.707 151.526ZM372.084 164.591V133.091H378.349V136.939H378.632C378.91 136.322 379.313 135.696 379.84 135.06C380.377 134.413 381.073 133.876 381.928 133.449C382.793 133.011 383.867 132.793 385.15 132.793C386.82 132.793 388.361 133.23 389.773 134.105C391.185 134.97 392.314 136.278 393.159 138.028C394.004 139.768 394.427 141.95 394.427 144.575C394.427 147.131 394.014 149.288 393.189 151.048C392.373 152.798 391.26 154.126 389.848 155.031C388.446 155.925 386.875 156.373 385.135 156.373C383.902 156.373 382.853 156.169 381.988 155.761C381.133 155.354 380.432 154.842 379.885 154.225C379.338 153.599 378.92 152.967 378.632 152.331H378.438V164.591H372.084ZM378.304 144.545C378.304 145.908 378.493 147.096 378.871 148.11C379.248 149.124 379.795 149.915 380.511 150.482C381.227 151.038 382.097 151.317 383.121 151.317C384.155 151.317 385.03 151.033 385.746 150.467C386.462 149.89 387.004 149.094 387.372 148.08C387.75 147.056 387.939 145.878 387.939 144.545C387.939 143.223 387.755 142.06 387.387 141.055C387.019 140.051 386.477 139.266 385.761 138.699C385.045 138.132 384.165 137.849 383.121 137.849C382.087 137.849 381.212 138.122 380.496 138.669C379.79 139.216 379.248 139.991 378.871 140.996C378.493 142 378.304 143.183 378.304 144.545ZM398.662 156V133.091H405.016V156H398.662ZM401.854 130.138C400.91 130.138 400.099 129.825 399.423 129.198C398.757 128.562 398.424 127.801 398.424 126.916C398.424 126.041 398.757 125.29 399.423 124.664C400.099 124.028 400.91 123.71 401.854 123.71C402.799 123.71 403.604 124.028 404.27 124.664C404.947 125.29 405.285 126.041 405.285 126.916C405.285 127.801 404.947 128.562 404.27 129.198C403.604 129.825 402.799 130.138 401.854 130.138ZM420.457 156.447C418.11 156.447 416.092 155.95 414.401 154.956C412.721 153.952 411.428 152.56 410.523 150.78C409.629 149 409.181 146.952 409.181 144.635C409.181 142.288 409.634 140.23 410.538 138.46C411.453 136.68 412.751 135.293 414.431 134.299C416.112 133.295 418.11 132.793 420.427 132.793C422.425 132.793 424.175 133.156 425.677 133.881C427.178 134.607 428.366 135.626 429.241 136.939C430.116 138.251 430.599 139.793 430.688 141.562H424.692C424.523 140.419 424.076 139.499 423.35 138.803C422.634 138.097 421.695 137.744 420.531 137.744C419.547 137.744 418.687 138.013 417.951 138.55C417.225 139.077 416.658 139.847 416.251 140.862C415.843 141.876 415.639 143.104 415.639 144.545C415.639 146.007 415.838 147.25 416.236 148.274C416.643 149.298 417.215 150.079 417.951 150.616C418.687 151.153 419.547 151.421 420.531 151.421C421.257 151.421 421.908 151.272 422.485 150.974C423.072 150.675 423.554 150.243 423.932 149.676C424.32 149.099 424.573 148.408 424.692 147.603H430.688C430.589 149.353 430.112 150.894 429.256 152.227C428.411 153.549 427.243 154.583 425.751 155.329C424.26 156.075 422.495 156.447 420.457 156.447ZM453.817 139.624L448.001 139.982C447.901 139.484 447.687 139.037 447.359 138.639C447.031 138.232 446.599 137.908 446.062 137.67C445.535 137.421 444.903 137.297 444.167 137.297C443.183 137.297 442.353 137.506 441.677 137.923C441.001 138.331 440.662 138.878 440.662 139.564C440.662 140.111 440.881 140.573 441.319 140.951C441.756 141.329 442.507 141.632 443.571 141.861L447.717 142.696C449.944 143.153 451.605 143.889 452.699 144.903C453.792 145.918 454.339 147.25 454.339 148.901C454.339 150.402 453.897 151.719 453.012 152.853C452.137 153.987 450.934 154.871 449.403 155.508C447.881 156.134 446.126 156.447 444.138 156.447C441.105 156.447 438.689 155.816 436.889 154.553C435.099 153.281 434.05 151.55 433.742 149.363L439.991 149.035C440.18 149.96 440.638 150.665 441.363 151.153C442.089 151.63 443.019 151.869 444.153 151.869C445.266 151.869 446.161 151.655 446.837 151.227C447.523 150.79 447.871 150.228 447.881 149.542C447.871 148.965 447.628 148.493 447.15 148.125C446.673 147.747 445.937 147.459 444.943 147.26L440.976 146.469C438.738 146.022 437.073 145.246 435.979 144.143C434.895 143.039 434.354 141.632 434.354 139.922C434.354 138.45 434.751 137.183 435.547 136.119C436.352 135.055 437.481 134.234 438.932 133.658C440.394 133.081 442.104 132.793 444.063 132.793C446.956 132.793 449.233 133.404 450.894 134.627C452.564 135.85 453.539 137.516 453.817 139.624Z" fill="#1A1A1A"/>
<path d="M161.352 253.824V251.636H176.625V253.824H170.222V272H167.756V253.824H161.352ZM179.874 277.727C179.476 277.727 179.122 277.694 178.81 277.628C178.498 277.568 178.283 277.509 178.164 277.449L178.76 275.381C179.33 275.527 179.834 275.58 180.272 275.54C180.709 275.5 181.097 275.304 181.435 274.953C181.78 274.608 182.095 274.048 182.38 273.273L182.817 272.08L177.169 256.727H179.715L183.931 268.898H184.09L188.306 256.727H190.851L184.368 274.227C184.077 275.016 183.715 275.669 183.284 276.186C182.854 276.71 182.353 277.098 181.783 277.349C181.22 277.601 180.583 277.727 179.874 277.727ZM193.949 277.727V256.727H196.216V259.153H196.494C196.666 258.888 196.905 258.55 197.21 258.139C197.521 257.722 197.966 257.35 198.542 257.026C199.126 256.694 199.914 256.528 200.909 256.528C202.195 256.528 203.328 256.85 204.309 257.493C205.29 258.136 206.056 259.047 206.606 260.227C207.156 261.407 207.431 262.799 207.431 264.403C207.431 266.021 207.156 267.423 206.606 268.609C206.056 269.789 205.294 270.704 204.319 271.354C203.345 271.997 202.221 272.318 200.949 272.318C199.967 272.318 199.182 272.156 198.592 271.831C198.002 271.5 197.548 271.125 197.23 270.707C196.912 270.283 196.666 269.932 196.494 269.653H196.295V277.727H193.949ZM196.255 264.364C196.255 265.517 196.424 266.535 196.762 267.416C197.1 268.291 197.594 268.977 198.244 269.474C198.894 269.965 199.689 270.21 200.63 270.21C201.611 270.21 202.43 269.952 203.086 269.435C203.749 268.911 204.246 268.208 204.578 267.327C204.916 266.438 205.085 265.451 205.085 264.364C205.085 263.29 204.919 262.322 204.588 261.46C204.263 260.592 203.769 259.906 203.106 259.402C202.45 258.892 201.625 258.636 200.63 258.636C199.676 258.636 198.874 258.878 198.224 259.362C197.574 259.839 197.084 260.509 196.752 261.371C196.421 262.226 196.255 263.223 196.255 264.364ZM217.216 272.318C215.837 272.318 214.627 271.99 213.586 271.334C212.552 270.678 211.743 269.759 211.16 268.58C210.583 267.4 210.295 266.021 210.295 264.443C210.295 262.852 210.583 261.464 211.16 260.277C211.743 259.09 212.552 258.169 213.586 257.513C214.627 256.857 215.837 256.528 217.216 256.528C218.594 256.528 219.801 256.857 220.835 257.513C221.876 258.169 222.684 259.09 223.261 260.277C223.844 261.464 224.136 262.852 224.136 264.443C224.136 266.021 223.844 267.4 223.261 268.58C222.684 269.759 221.876 270.678 220.835 271.334C219.801 271.99 218.594 272.318 217.216 272.318ZM217.216 270.21C218.263 270.21 219.125 269.942 219.801 269.405C220.477 268.868 220.977 268.162 221.302 267.287C221.627 266.412 221.789 265.464 221.789 264.443C221.789 263.422 221.627 262.471 221.302 261.589C220.977 260.708 220.477 259.995 219.801 259.452C219.125 258.908 218.263 258.636 217.216 258.636C216.168 258.636 215.306 258.908 214.63 259.452C213.954 259.995 213.454 260.708 213.129 261.589C212.804 262.471 212.642 263.422 212.642 264.443C212.642 265.464 212.804 266.412 213.129 267.287C213.454 268.162 213.954 268.868 214.63 269.405C215.306 269.942 216.168 270.21 217.216 270.21ZM233.883 278.045C232.749 278.045 231.775 277.9 230.96 277.608C230.144 277.323 229.465 276.945 228.921 276.474C228.384 276.01 227.957 275.513 227.638 274.983L229.508 273.67C229.72 273.949 229.988 274.267 230.313 274.625C230.638 274.99 231.082 275.304 231.646 275.57C232.216 275.841 232.961 275.977 233.883 275.977C235.116 275.977 236.133 275.679 236.935 275.082C237.737 274.486 238.138 273.551 238.138 272.278V269.176H237.94C237.767 269.455 237.522 269.799 237.204 270.21C236.892 270.615 236.442 270.976 235.852 271.294C235.268 271.606 234.479 271.761 233.485 271.761C232.252 271.761 231.145 271.47 230.164 270.886C229.19 270.303 228.417 269.455 227.847 268.341C227.284 267.227 227.002 265.875 227.002 264.284C227.002 262.72 227.277 261.357 227.827 260.197C228.378 259.031 229.143 258.129 230.124 257.493C231.105 256.85 232.239 256.528 233.525 256.528C234.519 256.528 235.308 256.694 235.891 257.026C236.481 257.35 236.932 257.722 237.244 258.139C237.562 258.55 237.807 258.888 237.979 259.153H238.218V256.727H240.485V272.438C240.485 273.75 240.187 274.817 239.59 275.639C239 276.468 238.205 277.074 237.204 277.459C236.21 277.85 235.103 278.045 233.883 278.045ZM233.803 269.653C234.745 269.653 235.54 269.438 236.19 269.007C236.839 268.576 237.333 267.956 237.671 267.148C238.009 266.339 238.178 265.371 238.178 264.244C238.178 263.144 238.013 262.173 237.681 261.331C237.35 260.489 236.859 259.83 236.21 259.352C235.56 258.875 234.758 258.636 233.803 258.636C232.809 258.636 231.98 258.888 231.317 259.392C230.661 259.896 230.167 260.572 229.836 261.42C229.511 262.269 229.349 263.21 229.349 264.244C229.349 265.305 229.514 266.243 229.846 267.058C230.184 267.867 230.681 268.503 231.337 268.967C232 269.425 232.822 269.653 233.803 269.653ZM244.781 272V256.727H247.048V259.034H247.207C247.485 258.278 247.989 257.665 248.718 257.195C249.447 256.724 250.269 256.489 251.184 256.489C251.356 256.489 251.572 256.492 251.83 256.499C252.089 256.505 252.284 256.515 252.417 256.528V258.915C252.337 258.895 252.155 258.865 251.87 258.825C251.592 258.779 251.297 258.756 250.985 258.756C250.243 258.756 249.58 258.911 248.996 259.223C248.42 259.528 247.962 259.952 247.624 260.496C247.293 261.033 247.127 261.646 247.127 262.335V272H244.781ZM259.693 272.358C258.725 272.358 257.847 272.176 257.058 271.811C256.269 271.44 255.643 270.906 255.179 270.21C254.715 269.508 254.483 268.659 254.483 267.665C254.483 266.79 254.655 266.08 255 265.537C255.344 264.987 255.805 264.556 256.382 264.244C256.958 263.933 257.595 263.701 258.291 263.548C258.993 263.389 259.699 263.263 260.409 263.17C261.337 263.051 262.089 262.962 262.666 262.902C263.249 262.836 263.673 262.726 263.939 262.574C264.21 262.421 264.346 262.156 264.346 261.778V261.699C264.346 260.718 264.078 259.955 263.541 259.412C263.011 258.868 262.205 258.597 261.125 258.597C260.004 258.597 259.126 258.842 258.49 259.332C257.853 259.823 257.406 260.347 257.147 260.903L254.92 260.108C255.318 259.18 255.848 258.457 256.511 257.94C257.181 257.417 257.91 257.052 258.699 256.847C259.494 256.634 260.276 256.528 261.045 256.528C261.536 256.528 262.099 256.588 262.735 256.707C263.378 256.82 263.998 257.055 264.595 257.413C265.198 257.771 265.699 258.312 266.096 259.034C266.494 259.757 266.693 260.724 266.693 261.938V272H264.346V269.932H264.227C264.068 270.263 263.803 270.618 263.431 270.996C263.06 271.374 262.566 271.695 261.95 271.96C261.333 272.225 260.581 272.358 259.693 272.358ZM260.051 270.25C260.979 270.25 261.761 270.068 262.397 269.703C263.04 269.339 263.524 268.868 263.849 268.291C264.181 267.714 264.346 267.108 264.346 266.472V264.324C264.247 264.443 264.028 264.553 263.69 264.652C263.359 264.745 262.974 264.828 262.537 264.901C262.106 264.967 261.685 265.027 261.274 265.08C260.869 265.126 260.541 265.166 260.289 265.199C259.68 265.278 259.109 265.408 258.579 265.587C258.056 265.759 257.631 266.021 257.306 266.372C256.988 266.717 256.829 267.187 256.829 267.784C256.829 268.599 257.131 269.216 257.734 269.634C258.344 270.045 259.116 270.25 260.051 270.25ZM270.976 277.727V256.727H273.243V259.153H273.521C273.694 258.888 273.932 258.55 274.237 258.139C274.549 257.722 274.993 257.35 275.57 257.026C276.153 256.694 276.942 256.528 277.936 256.528C279.222 256.528 280.356 256.85 281.337 257.493C282.318 258.136 283.083 259.047 283.634 260.227C284.184 261.407 284.459 262.799 284.459 264.403C284.459 266.021 284.184 267.423 283.634 268.609C283.083 269.789 282.321 270.704 281.347 271.354C280.372 271.997 279.249 272.318 277.976 272.318C276.995 272.318 276.209 272.156 275.619 271.831C275.029 271.5 274.575 271.125 274.257 270.707C273.939 270.283 273.694 269.932 273.521 269.653H273.322V277.727H270.976ZM273.283 264.364C273.283 265.517 273.452 266.535 273.79 267.416C274.128 268.291 274.622 268.977 275.271 269.474C275.921 269.965 276.716 270.21 277.658 270.21C278.639 270.21 279.457 269.952 280.114 269.435C280.777 268.911 281.274 268.208 281.605 267.327C281.943 266.438 282.112 265.451 282.112 264.364C282.112 263.29 281.946 262.322 281.615 261.46C281.29 260.592 280.796 259.906 280.134 259.402C279.477 258.892 278.652 258.636 277.658 258.636C276.703 258.636 275.901 258.878 275.251 259.362C274.602 259.839 274.111 260.509 273.78 261.371C273.448 262.226 273.283 263.223 273.283 264.364ZM290.385 262.812V272H288.038V251.636H290.385V259.114H290.584C290.942 258.325 291.479 257.698 292.195 257.234C292.917 256.764 293.878 256.528 295.078 256.528C296.119 256.528 297.03 256.737 297.812 257.155C298.595 257.566 299.201 258.199 299.632 259.054C300.07 259.902 300.288 260.983 300.288 262.295V272H297.942V262.455C297.942 261.241 297.627 260.304 296.997 259.641C296.374 258.971 295.509 258.636 294.402 258.636C293.633 258.636 292.944 258.799 292.334 259.124C291.731 259.448 291.253 259.922 290.902 260.545C290.557 261.169 290.385 261.924 290.385 262.812ZM305.546 277.727C305.148 277.727 304.793 277.694 304.482 277.628C304.17 277.568 303.955 277.509 303.836 277.449L304.432 275.381C305.002 275.527 305.506 275.58 305.944 275.54C306.381 275.5 306.769 275.304 307.107 274.953C307.452 274.608 307.766 274.048 308.051 273.273L308.489 272.08L302.841 256.727H305.387L309.603 268.898H309.762L313.978 256.727H316.523L310.04 274.227C309.748 275.016 309.387 275.669 308.956 276.186C308.525 276.71 308.025 277.098 307.455 277.349C306.891 277.601 306.255 277.727 305.546 277.727ZM328.331 261.818C328.331 259.312 328.655 257.009 329.305 254.908C329.961 252.8 330.896 250.861 332.109 249.091H334.177C333.7 249.747 333.252 250.556 332.835 251.517C332.424 252.472 332.063 253.522 331.751 254.669C331.44 255.809 331.194 256.989 331.015 258.209C330.843 259.429 330.757 260.632 330.757 261.818C330.757 263.396 330.909 264.997 331.214 266.621C331.519 268.245 331.93 269.753 332.447 271.145C332.964 272.537 333.541 273.67 334.177 274.545H332.109C330.896 272.776 329.961 270.84 329.305 268.739C328.655 266.631 328.331 264.324 328.331 261.818ZM337.958 272V251.636H350.168V253.824H340.424V260.705H349.254V262.892H340.424V272H337.958ZM359.157 272.318C357.778 272.318 356.568 271.99 355.528 271.334C354.494 270.678 353.685 269.759 353.102 268.58C352.525 267.4 352.237 266.021 352.237 264.443C352.237 262.852 352.525 261.464 353.102 260.277C353.685 259.09 354.494 258.169 355.528 257.513C356.568 256.857 357.778 256.528 359.157 256.528C360.536 256.528 361.742 256.857 362.776 257.513C363.817 258.169 364.626 259.09 365.202 260.277C365.786 261.464 366.077 262.852 366.077 264.443C366.077 266.021 365.786 267.4 365.202 268.58C364.626 269.759 363.817 270.678 362.776 271.334C361.742 271.99 360.536 272.318 359.157 272.318ZM359.157 270.21C360.204 270.21 361.066 269.942 361.742 269.405C362.418 268.868 362.919 268.162 363.244 267.287C363.568 266.412 363.731 265.464 363.731 264.443C363.731 263.422 363.568 262.471 363.244 261.589C362.919 260.708 362.418 259.995 361.742 259.452C361.066 258.908 360.204 258.636 359.157 258.636C358.11 258.636 357.248 258.908 356.572 259.452C355.896 259.995 355.395 260.708 355.07 261.589C354.746 262.471 354.583 263.422 354.583 264.443C354.583 265.464 354.746 266.412 355.07 267.287C355.395 268.162 355.896 268.868 356.572 269.405C357.248 269.942 358.11 270.21 359.157 270.21ZM372.006 262.812V272H369.659V256.727H371.926V259.114H372.125C372.483 258.338 373.027 257.715 373.756 257.244C374.485 256.767 375.426 256.528 376.58 256.528C377.614 256.528 378.519 256.741 379.294 257.165C380.07 257.582 380.673 258.219 381.104 259.074C381.535 259.922 381.75 260.996 381.75 262.295V272H379.404V262.455C379.404 261.255 379.092 260.32 378.469 259.651C377.846 258.974 376.991 258.636 375.904 258.636C375.155 258.636 374.485 258.799 373.895 259.124C373.312 259.448 372.851 259.922 372.513 260.545C372.175 261.169 372.006 261.924 372.006 262.812ZM392.68 256.727V258.716H384.766V256.727H392.68ZM387.072 253.068H389.419V267.625C389.419 268.288 389.515 268.785 389.707 269.116C389.906 269.441 390.158 269.66 390.463 269.773C390.775 269.879 391.103 269.932 391.447 269.932C391.706 269.932 391.918 269.919 392.084 269.892C392.25 269.859 392.382 269.832 392.482 269.812L392.959 271.92C392.8 271.98 392.578 272.04 392.293 272.099C392.008 272.166 391.646 272.199 391.209 272.199C390.546 272.199 389.896 272.056 389.26 271.771C388.63 271.486 388.107 271.052 387.689 270.469C387.278 269.885 387.072 269.15 387.072 268.261V253.068ZM406.755 260.148L404.647 260.744C404.514 260.393 404.319 260.052 404.06 259.72C403.808 259.382 403.464 259.104 403.026 258.885C402.589 258.666 402.029 258.557 401.346 258.557C400.411 258.557 399.632 258.772 399.009 259.203C398.393 259.627 398.085 260.168 398.085 260.824C398.085 261.407 398.297 261.868 398.721 262.206C399.145 262.544 399.808 262.826 400.71 263.051L402.977 263.608C404.342 263.939 405.36 264.446 406.029 265.129C406.699 265.805 407.033 266.677 407.033 267.744C407.033 268.619 406.781 269.402 406.278 270.091C405.781 270.78 405.085 271.324 404.19 271.722C403.295 272.119 402.254 272.318 401.067 272.318C399.51 272.318 398.22 271.98 397.2 271.304C396.179 270.628 395.532 269.64 395.261 268.341L397.488 267.784C397.7 268.606 398.101 269.223 398.691 269.634C399.288 270.045 400.067 270.25 401.028 270.25C402.121 270.25 402.99 270.018 403.633 269.554C404.282 269.083 404.607 268.52 404.607 267.864C404.607 267.333 404.422 266.889 404.05 266.531C403.679 266.167 403.109 265.895 402.34 265.716L399.795 265.119C398.396 264.788 397.369 264.274 396.712 263.578C396.063 262.875 395.738 261.997 395.738 260.943C395.738 260.081 395.98 259.319 396.464 258.656C396.954 257.993 397.621 257.473 398.462 257.095C399.311 256.717 400.272 256.528 401.346 256.528C402.857 256.528 404.044 256.86 404.906 257.523C405.774 258.186 406.39 259.061 406.755 260.148ZM415.577 263.409C415.577 265.915 415.249 268.222 414.593 270.33C413.943 272.431 413.012 274.366 411.799 276.136H409.73C410.208 275.48 410.652 274.671 411.063 273.71C411.48 272.756 411.845 271.708 412.157 270.568C412.468 269.421 412.71 268.238 412.882 267.018C413.061 265.792 413.151 264.589 413.151 263.409C413.151 261.831 412.998 260.231 412.694 258.607C412.389 256.982 411.978 255.474 411.461 254.082C410.944 252.69 410.367 251.557 409.73 250.682H411.799C413.012 252.452 413.943 254.391 414.593 256.499C415.249 258.6 415.577 260.903 415.577 263.409Z" fill="#1A1A1A"/>
<path d="M162.818 339V315.727H165.636V336.5H176.455V339H162.818ZM185.591 339.409C184.485 339.409 183.481 339.201 182.58 338.784C181.678 338.36 180.962 337.75 180.432 336.955C179.902 336.152 179.636 335.182 179.636 334.045C179.636 333.045 179.833 332.235 180.227 331.614C180.621 330.985 181.148 330.492 181.807 330.136C182.466 329.78 183.193 329.515 183.989 329.341C184.792 329.159 185.598 329.015 186.409 328.909C187.47 328.773 188.33 328.67 188.989 328.602C189.655 328.527 190.14 328.402 190.443 328.227C190.754 328.053 190.909 327.75 190.909 327.318V327.227C190.909 326.106 190.602 325.235 189.989 324.614C189.383 323.992 188.462 323.682 187.227 323.682C185.947 323.682 184.943 323.962 184.216 324.523C183.489 325.083 182.977 325.682 182.682 326.318L180.136 325.409C180.591 324.348 181.197 323.523 181.955 322.932C182.72 322.333 183.553 321.917 184.455 321.682C185.364 321.439 186.258 321.318 187.136 321.318C187.697 321.318 188.341 321.386 189.068 321.523C189.803 321.652 190.511 321.92 191.193 322.33C191.883 322.739 192.455 323.356 192.909 324.182C193.364 325.008 193.591 326.114 193.591 327.5V339H190.909V336.636H190.773C190.591 337.015 190.288 337.42 189.864 337.852C189.439 338.284 188.875 338.652 188.17 338.955C187.466 339.258 186.606 339.409 185.591 339.409ZM186 337C187.061 337 187.955 336.792 188.682 336.375C189.417 335.958 189.97 335.42 190.341 334.761C190.72 334.102 190.909 333.409 190.909 332.682V330.227C190.795 330.364 190.545 330.489 190.159 330.602C189.78 330.708 189.341 330.803 188.841 330.886C188.348 330.962 187.867 331.03 187.398 331.091C186.936 331.144 186.561 331.189 186.273 331.227C185.576 331.318 184.924 331.466 184.318 331.67C183.72 331.867 183.235 332.167 182.864 332.568C182.5 332.962 182.318 333.5 182.318 334.182C182.318 335.114 182.663 335.818 183.352 336.295C184.049 336.765 184.932 337 186 337ZM199.588 345.545C199.134 345.545 198.728 345.508 198.372 345.432C198.016 345.364 197.77 345.295 197.634 345.227L198.315 342.864C198.967 343.03 199.543 343.091 200.043 343.045C200.543 343 200.986 342.777 201.372 342.375C201.766 341.981 202.126 341.341 202.452 340.455L202.952 339.091L196.497 321.545H199.406L204.224 335.455H204.406L209.224 321.545H212.134L204.724 341.545C204.391 342.447 203.978 343.193 203.486 343.784C202.993 344.383 202.421 344.826 201.77 345.114C201.126 345.402 200.399 345.545 199.588 345.545ZM222.139 339.364C220.563 339.364 219.181 338.989 217.991 338.239C216.81 337.489 215.885 336.439 215.219 335.091C214.56 333.742 214.23 332.167 214.23 330.364C214.23 328.545 214.56 326.958 215.219 325.602C215.885 324.246 216.81 323.193 217.991 322.443C219.181 321.693 220.563 321.318 222.139 321.318C223.715 321.318 225.094 321.693 226.276 322.443C227.465 323.193 228.389 324.246 229.048 325.602C229.715 326.958 230.048 328.545 230.048 330.364C230.048 332.167 229.715 333.742 229.048 335.091C228.389 336.439 227.465 337.489 226.276 338.239C225.094 338.989 223.715 339.364 222.139 339.364ZM222.139 336.955C223.336 336.955 224.321 336.648 225.094 336.034C225.866 335.42 226.438 334.614 226.81 333.614C227.181 332.614 227.366 331.53 227.366 330.364C227.366 329.197 227.181 328.11 226.81 327.102C226.438 326.095 225.866 325.28 225.094 324.659C224.321 324.038 223.336 323.727 222.139 323.727C220.942 323.727 219.957 324.038 219.185 324.659C218.412 325.28 217.84 326.095 217.469 327.102C217.098 328.11 216.912 329.197 216.912 330.364C216.912 331.53 217.098 332.614 217.469 333.614C217.84 334.614 218.412 335.42 219.185 336.034C219.957 336.648 220.942 336.955 222.139 336.955ZM245.142 331.864V321.545H247.824V339H245.142V336.045H244.96C244.551 336.932 243.915 337.686 243.051 338.307C242.188 338.92 241.097 339.227 239.778 339.227C238.688 339.227 237.718 338.989 236.869 338.511C236.021 338.027 235.354 337.299 234.869 336.33C234.384 335.352 234.142 334.121 234.142 332.636V321.545H236.824V332.455C236.824 333.727 237.18 334.742 237.892 335.5C238.612 336.258 239.528 336.636 240.642 336.636C241.309 336.636 241.987 336.466 242.676 336.125C243.373 335.784 243.956 335.261 244.426 334.557C244.903 333.852 245.142 332.955 245.142 331.864ZM260.327 321.545V323.818H251.281V321.545H260.327ZM253.918 317.364H256.599V334C256.599 334.758 256.709 335.326 256.929 335.705C257.156 336.076 257.444 336.326 257.793 336.455C258.149 336.576 258.524 336.636 258.918 336.636C259.213 336.636 259.455 336.621 259.645 336.591C259.834 336.553 259.986 336.523 260.099 336.5L260.645 338.909C260.463 338.977 260.209 339.045 259.884 339.114C259.558 339.189 259.145 339.227 258.645 339.227C257.887 339.227 257.145 339.064 256.418 338.739C255.698 338.413 255.099 337.917 254.622 337.25C254.152 336.583 253.918 335.742 253.918 334.727V317.364ZM285.724 325.455L283.315 326.136C283.164 325.735 282.94 325.345 282.645 324.966C282.357 324.58 281.963 324.261 281.463 324.011C280.963 323.761 280.323 323.636 279.543 323.636C278.474 323.636 277.584 323.883 276.872 324.375C276.168 324.86 275.815 325.477 275.815 326.227C275.815 326.894 276.058 327.42 276.543 327.807C277.027 328.193 277.785 328.515 278.815 328.773L281.406 329.409C282.967 329.788 284.13 330.367 284.895 331.148C285.66 331.92 286.043 332.917 286.043 334.136C286.043 335.136 285.755 336.03 285.179 336.818C284.611 337.606 283.815 338.227 282.793 338.682C281.77 339.136 280.58 339.364 279.224 339.364C277.444 339.364 275.971 338.977 274.804 338.205C273.637 337.432 272.899 336.303 272.588 334.818L275.134 334.182C275.376 335.121 275.834 335.826 276.509 336.295C277.19 336.765 278.08 337 279.179 337C280.429 337 281.421 336.735 282.156 336.205C282.899 335.667 283.27 335.023 283.27 334.273C283.27 333.667 283.058 333.159 282.634 332.75C282.209 332.333 281.558 332.023 280.679 331.818L277.77 331.136C276.171 330.758 274.997 330.17 274.247 329.375C273.505 328.572 273.134 327.568 273.134 326.364C273.134 325.379 273.41 324.508 273.963 323.75C274.524 322.992 275.285 322.398 276.247 321.966C277.217 321.534 278.315 321.318 279.543 321.318C281.27 321.318 282.626 321.697 283.611 322.455C284.603 323.212 285.308 324.212 285.724 325.455ZM291.807 345.545C291.352 345.545 290.947 345.508 290.591 345.432C290.235 345.364 289.989 345.295 289.852 345.227L290.534 342.864C291.186 343.03 291.761 343.091 292.261 343.045C292.761 343 293.205 342.777 293.591 342.375C293.985 341.981 294.345 341.341 294.67 340.455L295.17 339.091L288.716 321.545H291.625L296.443 335.455H296.625L301.443 321.545H304.352L296.943 341.545C296.61 342.447 296.197 343.193 295.705 343.784C295.212 344.383 294.64 344.826 293.989 345.114C293.345 345.402 292.617 345.545 291.807 345.545ZM320.256 325.455L317.847 326.136C317.695 325.735 317.472 325.345 317.176 324.966C316.888 324.58 316.494 324.261 315.994 324.011C315.494 323.761 314.854 323.636 314.074 323.636C313.006 323.636 312.116 323.883 311.403 324.375C310.699 324.86 310.347 325.477 310.347 326.227C310.347 326.894 310.589 327.42 311.074 327.807C311.559 328.193 312.316 328.515 313.347 328.773L315.938 329.409C317.498 329.788 318.661 330.367 319.426 331.148C320.191 331.92 320.574 332.917 320.574 334.136C320.574 335.136 320.286 336.03 319.71 336.818C319.142 337.606 318.347 338.227 317.324 338.682C316.301 339.136 315.112 339.364 313.756 339.364C311.975 339.364 310.502 338.977 309.335 338.205C308.169 337.432 307.43 336.303 307.119 334.818L309.665 334.182C309.907 335.121 310.366 335.826 311.04 336.295C311.722 336.765 312.612 337 313.71 337C314.96 337 315.953 336.735 316.688 336.205C317.43 335.667 317.801 335.023 317.801 334.273C317.801 333.667 317.589 333.159 317.165 332.75C316.741 332.333 316.089 332.023 315.21 331.818L312.301 331.136C310.703 330.758 309.528 330.17 308.778 329.375C308.036 328.572 307.665 327.568 307.665 326.364C307.665 325.379 307.941 324.508 308.494 323.75C309.055 322.992 309.816 322.398 310.778 321.966C311.748 321.534 312.847 321.318 314.074 321.318C315.801 321.318 317.157 321.697 318.142 322.455C319.134 323.212 319.839 324.212 320.256 325.455ZM332.202 321.545V323.818H323.156V321.545H332.202ZM325.793 317.364H328.474V334C328.474 334.758 328.584 335.326 328.804 335.705C329.031 336.076 329.319 336.326 329.668 336.455C330.024 336.576 330.399 336.636 330.793 336.636C331.088 336.636 331.33 336.621 331.52 336.591C331.709 336.553 331.861 336.523 331.974 336.5L332.52 338.909C332.338 338.977 332.084 339.045 331.759 339.114C331.433 339.189 331.02 339.227 330.52 339.227C329.762 339.227 329.02 339.064 328.293 338.739C327.573 338.413 326.974 337.917 326.497 337.25C326.027 336.583 325.793 335.742 325.793 334.727V317.364ZM343.366 339.364C341.685 339.364 340.234 338.992 339.014 338.25C337.802 337.5 336.866 336.455 336.207 335.114C335.556 333.765 335.23 332.197 335.23 330.409C335.23 328.621 335.556 327.045 336.207 325.682C336.866 324.311 337.783 323.242 338.957 322.477C340.139 321.705 341.518 321.318 343.094 321.318C344.003 321.318 344.901 321.47 345.787 321.773C346.673 322.076 347.48 322.568 348.207 323.25C348.935 323.924 349.514 324.818 349.946 325.932C350.378 327.045 350.594 328.417 350.594 330.045V331.182H337.139V328.864H347.866C347.866 327.879 347.67 327 347.276 326.227C346.889 325.455 346.336 324.845 345.616 324.398C344.904 323.951 344.063 323.727 343.094 323.727C342.026 323.727 341.101 323.992 340.321 324.523C339.548 325.045 338.954 325.727 338.537 326.568C338.12 327.409 337.912 328.311 337.912 329.273V330.818C337.912 332.136 338.139 333.254 338.594 334.17C339.056 335.08 339.696 335.773 340.514 336.25C341.332 336.72 342.283 336.955 343.366 336.955C344.071 336.955 344.707 336.856 345.276 336.659C345.851 336.455 346.348 336.152 346.764 335.75C347.181 335.341 347.503 334.833 347.73 334.227L350.321 334.955C350.048 335.833 349.59 336.606 348.946 337.273C348.302 337.932 347.507 338.447 346.56 338.818C345.613 339.182 344.548 339.364 343.366 339.364ZM354.673 339V321.545H357.264V324.273H357.491C357.855 323.341 358.442 322.617 359.253 322.102C360.063 321.58 361.037 321.318 362.173 321.318C363.325 321.318 364.283 321.58 365.048 322.102C365.821 322.617 366.423 323.341 366.855 324.273H367.037C367.484 323.371 368.154 322.655 369.048 322.125C369.942 321.587 371.014 321.318 372.264 321.318C373.825 321.318 375.101 321.807 376.094 322.784C377.086 323.754 377.582 325.265 377.582 327.318V339H374.901V327.318C374.901 326.03 374.548 325.11 373.844 324.557C373.139 324.004 372.31 323.727 371.355 323.727C370.128 323.727 369.177 324.098 368.503 324.841C367.829 325.576 367.491 326.508 367.491 327.636V339H364.764V327.045C364.764 326.053 364.442 325.254 363.798 324.648C363.154 324.034 362.325 323.727 361.31 323.727C360.613 323.727 359.961 323.913 359.355 324.284C358.757 324.655 358.272 325.17 357.901 325.83C357.537 326.481 357.355 327.235 357.355 328.091V339H354.673ZM394.849 325.455L392.44 326.136C392.289 325.735 392.065 325.345 391.77 324.966C391.482 324.58 391.088 324.261 390.588 324.011C390.088 323.761 389.448 323.636 388.668 323.636C387.599 323.636 386.709 323.883 385.997 324.375C385.293 324.86 384.94 325.477 384.94 326.227C384.94 326.894 385.183 327.42 385.668 327.807C386.152 328.193 386.91 328.515 387.94 328.773L390.531 329.409C392.092 329.788 393.255 330.367 394.02 331.148C394.785 331.92 395.168 332.917 395.168 334.136C395.168 335.136 394.88 336.03 394.304 336.818C393.736 337.606 392.94 338.227 391.918 338.682C390.895 339.136 389.705 339.364 388.349 339.364C386.569 339.364 385.096 338.977 383.929 338.205C382.762 337.432 382.024 336.303 381.713 334.818L384.259 334.182C384.501 335.121 384.959 335.826 385.634 336.295C386.315 336.765 387.205 337 388.304 337C389.554 337 390.546 336.735 391.281 336.205C392.024 335.667 392.395 335.023 392.395 334.273C392.395 333.667 392.183 333.159 391.759 332.75C391.334 332.333 390.683 332.023 389.804 331.818L386.895 331.136C385.296 330.758 384.122 330.17 383.372 329.375C382.63 328.572 382.259 327.568 382.259 326.364C382.259 325.379 382.535 324.508 383.088 323.75C383.649 322.992 384.41 322.398 385.372 321.966C386.342 321.534 387.44 321.318 388.668 321.318C390.395 321.318 391.751 321.697 392.736 322.455C393.728 323.212 394.433 324.212 394.849 325.455ZM167.591 384.409C166.485 384.409 165.481 384.201 164.58 383.784C163.678 383.36 162.962 382.75 162.432 381.955C161.902 381.152 161.636 380.182 161.636 379.045C161.636 378.045 161.833 377.235 162.227 376.614C162.621 375.985 163.148 375.492 163.807 375.136C164.466 374.78 165.193 374.515 165.989 374.341C166.792 374.159 167.598 374.015 168.409 373.909C169.47 373.773 170.33 373.67 170.989 373.602C171.655 373.527 172.14 373.402 172.443 373.227C172.754 373.053 172.909 372.75 172.909 372.318V372.227C172.909 371.106 172.602 370.235 171.989 369.614C171.383 368.992 170.462 368.682 169.227 368.682C167.947 368.682 166.943 368.962 166.216 369.523C165.489 370.083 164.977 370.682 164.682 371.318L162.136 370.409C162.591 369.348 163.197 368.523 163.955 367.932C164.72 367.333 165.553 366.917 166.455 366.682C167.364 366.439 168.258 366.318 169.136 366.318C169.697 366.318 170.341 366.386 171.068 366.523C171.803 366.652 172.511 366.92 173.193 367.33C173.883 367.739 174.455 368.356 174.909 369.182C175.364 370.008 175.591 371.114 175.591 372.5V384H172.909V381.636H172.773C172.591 382.015 172.288 382.42 171.864 382.852C171.439 383.284 170.875 383.652 170.17 383.955C169.466 384.258 168.606 384.409 167.591 384.409ZM168 382C169.061 382 169.955 381.792 170.682 381.375C171.417 380.958 171.97 380.42 172.341 379.761C172.72 379.102 172.909 378.409 172.909 377.682V375.227C172.795 375.364 172.545 375.489 172.159 375.602C171.78 375.708 171.341 375.803 170.841 375.886C170.348 375.962 169.867 376.03 169.398 376.091C168.936 376.144 168.561 376.189 168.273 376.227C167.576 376.318 166.924 376.466 166.318 376.67C165.72 376.867 165.235 377.167 164.864 377.568C164.5 377.962 164.318 378.5 164.318 379.182C164.318 380.114 164.663 380.818 165.352 381.295C166.049 381.765 166.932 382 168 382ZM183.168 373.5V384H180.486V366.545H183.077V369.273H183.304C183.713 368.386 184.334 367.674 185.168 367.136C186.001 366.591 187.077 366.318 188.395 366.318C189.577 366.318 190.611 366.561 191.497 367.045C192.384 367.523 193.073 368.25 193.565 369.227C194.058 370.197 194.304 371.424 194.304 372.909V384H191.622V373.091C191.622 371.72 191.266 370.652 190.554 369.886C189.842 369.114 188.865 368.727 187.622 368.727C186.766 368.727 186.001 368.913 185.327 369.284C184.66 369.655 184.134 370.197 183.747 370.909C183.361 371.621 183.168 372.485 183.168 373.5ZM205.795 384.364C204.341 384.364 203.057 383.996 201.943 383.261C200.83 382.519 199.958 381.473 199.33 380.125C198.701 378.769 198.386 377.167 198.386 375.318C198.386 373.485 198.701 371.894 199.33 370.545C199.958 369.197 200.833 368.155 201.955 367.42C203.076 366.686 204.371 366.318 205.841 366.318C206.977 366.318 207.875 366.508 208.534 366.886C209.201 367.258 209.708 367.682 210.057 368.159C210.413 368.629 210.689 369.015 210.886 369.318H211.114V360.727H213.795V384H211.205V381.318H210.886C210.689 381.636 210.409 382.038 210.045 382.523C209.682 383 209.163 383.428 208.489 383.807C207.814 384.178 206.917 384.364 205.795 384.364ZM206.159 381.955C207.235 381.955 208.144 381.674 208.886 381.114C209.629 380.545 210.193 379.761 210.58 378.761C210.966 377.754 211.159 376.591 211.159 375.273C211.159 373.97 210.97 372.83 210.591 371.852C210.212 370.867 209.652 370.102 208.909 369.557C208.167 369.004 207.25 368.727 206.159 368.727C205.023 368.727 204.076 369.019 203.318 369.602C202.568 370.178 202.004 370.962 201.625 371.955C201.254 372.939 201.068 374.045 201.068 375.273C201.068 376.515 201.258 377.644 201.636 378.659C202.023 379.667 202.591 380.47 203.341 381.068C204.098 381.659 205.038 381.955 206.159 381.955ZM230.761 373.5V384H228.08V360.727H230.761V369.273H230.989C231.398 368.371 232.011 367.655 232.83 367.125C233.655 366.587 234.754 366.318 236.125 366.318C237.314 366.318 238.356 366.557 239.25 367.034C240.144 367.504 240.837 368.227 241.33 369.205C241.83 370.174 242.08 371.409 242.08 372.909V384H239.398V373.091C239.398 371.705 239.038 370.633 238.318 369.875C237.606 369.11 236.617 368.727 235.352 368.727C234.473 368.727 233.686 368.913 232.989 369.284C232.299 369.655 231.754 370.197 231.352 370.909C230.958 371.621 230.761 372.485 230.761 373.5ZM254.077 384.364C252.501 384.364 251.118 383.989 249.929 383.239C248.747 382.489 247.823 381.439 247.156 380.091C246.497 378.742 246.168 377.167 246.168 375.364C246.168 373.545 246.497 371.958 247.156 370.602C247.823 369.246 248.747 368.193 249.929 367.443C251.118 366.693 252.501 366.318 254.077 366.318C255.652 366.318 257.031 366.693 258.213 367.443C259.402 368.193 260.327 369.246 260.986 370.602C261.652 371.958 261.986 373.545 261.986 375.364C261.986 377.167 261.652 378.742 260.986 380.091C260.327 381.439 259.402 382.489 258.213 383.239C257.031 383.989 255.652 384.364 254.077 384.364ZM254.077 381.955C255.274 381.955 256.259 381.648 257.031 381.034C257.804 380.42 258.376 379.614 258.747 378.614C259.118 377.614 259.304 376.53 259.304 375.364C259.304 374.197 259.118 373.11 258.747 372.102C258.376 371.095 257.804 370.28 257.031 369.659C256.259 369.038 255.274 368.727 254.077 368.727C252.88 368.727 251.895 369.038 251.122 369.659C250.349 370.28 249.777 371.095 249.406 372.102C249.035 373.11 248.849 374.197 248.849 375.364C248.849 376.53 249.035 377.614 249.406 378.614C249.777 379.614 250.349 380.42 251.122 381.034C251.895 381.648 252.88 381.955 254.077 381.955ZM269.44 384L264.122 366.545H266.94L270.713 379.909H270.895L274.622 366.545H277.486L281.168 379.864H281.349L285.122 366.545H287.94L282.622 384H279.986L276.168 370.591H275.895L272.077 384H269.44ZM308.077 366.545V368.818H299.031V366.545H308.077ZM301.668 362.364H304.349V379C304.349 379.758 304.459 380.326 304.679 380.705C304.906 381.076 305.194 381.326 305.543 381.455C305.899 381.576 306.274 381.636 306.668 381.636C306.963 381.636 307.205 381.621 307.395 381.591C307.584 381.553 307.736 381.523 307.849 381.5L308.395 383.909C308.213 383.977 307.959 384.045 307.634 384.114C307.308 384.189 306.895 384.227 306.395 384.227C305.637 384.227 304.895 384.064 304.168 383.739C303.448 383.413 302.849 382.917 302.372 382.25C301.902 381.583 301.668 380.742 301.668 379.727V362.364ZM319.014 384.364C317.438 384.364 316.056 383.989 314.866 383.239C313.685 382.489 312.76 381.439 312.094 380.091C311.435 378.742 311.105 377.167 311.105 375.364C311.105 373.545 311.435 371.958 312.094 370.602C312.76 369.246 313.685 368.193 314.866 367.443C316.056 366.693 317.438 366.318 319.014 366.318C320.59 366.318 321.969 366.693 323.151 367.443C324.34 368.193 325.264 369.246 325.923 370.602C326.59 371.958 326.923 373.545 326.923 375.364C326.923 377.167 326.59 378.742 325.923 380.091C325.264 381.439 324.34 382.489 323.151 383.239C321.969 383.989 320.59 384.364 319.014 384.364ZM319.014 381.955C320.211 381.955 321.196 381.648 321.969 381.034C322.741 380.42 323.313 379.614 323.685 378.614C324.056 377.614 324.241 376.53 324.241 375.364C324.241 374.197 324.056 373.11 323.685 372.102C323.313 371.095 322.741 370.28 321.969 369.659C321.196 369.038 320.211 368.727 319.014 368.727C317.817 368.727 316.832 369.038 316.06 369.659C315.287 370.28 314.715 371.095 314.344 372.102C313.973 373.11 313.787 374.197 313.787 375.364C313.787 376.53 313.973 377.614 314.344 378.614C314.715 379.614 315.287 380.42 316.06 381.034C316.832 381.648 317.817 381.955 319.014 381.955ZM351.017 376.864V366.545H353.699V384H351.017V381.045H350.835C350.426 381.932 349.79 382.686 348.926 383.307C348.063 383.92 346.972 384.227 345.653 384.227C344.562 384.227 343.593 383.989 342.744 383.511C341.896 383.027 341.229 382.299 340.744 381.33C340.259 380.352 340.017 379.121 340.017 377.636V366.545H342.699V377.455C342.699 378.727 343.055 379.742 343.767 380.5C344.487 381.258 345.403 381.636 346.517 381.636C347.184 381.636 347.862 381.466 348.551 381.125C349.248 380.784 349.831 380.261 350.301 379.557C350.778 378.852 351.017 377.955 351.017 376.864ZM370.974 370.455L368.565 371.136C368.414 370.735 368.19 370.345 367.895 369.966C367.607 369.58 367.213 369.261 366.713 369.011C366.213 368.761 365.573 368.636 364.793 368.636C363.724 368.636 362.834 368.883 362.122 369.375C361.418 369.86 361.065 370.477 361.065 371.227C361.065 371.894 361.308 372.42 361.793 372.807C362.277 373.193 363.035 373.515 364.065 373.773L366.656 374.409C368.217 374.788 369.38 375.367 370.145 376.148C370.91 376.92 371.293 377.917 371.293 379.136C371.293 380.136 371.005 381.03 370.429 381.818C369.861 382.606 369.065 383.227 368.043 383.682C367.02 384.136 365.83 384.364 364.474 384.364C362.694 384.364 361.221 383.977 360.054 383.205C358.887 382.432 358.149 381.303 357.838 379.818L360.384 379.182C360.626 380.121 361.084 380.826 361.759 381.295C362.44 381.765 363.33 382 364.429 382C365.679 382 366.671 381.735 367.406 381.205C368.149 380.667 368.52 380.023 368.52 379.273C368.52 378.667 368.308 378.159 367.884 377.75C367.459 377.333 366.808 377.023 365.929 376.818L363.02 376.136C361.421 375.758 360.247 375.17 359.497 374.375C358.755 373.572 358.384 372.568 358.384 371.364C358.384 370.379 358.66 369.508 359.213 368.75C359.774 367.992 360.535 367.398 361.497 366.966C362.467 366.534 363.565 366.318 364.793 366.318C366.52 366.318 367.876 366.697 368.861 367.455C369.853 368.212 370.558 369.212 370.974 370.455ZM382.648 384.364C380.966 384.364 379.515 383.992 378.295 383.25C377.083 382.5 376.148 381.455 375.489 380.114C374.837 378.765 374.511 377.197 374.511 375.409C374.511 373.621 374.837 372.045 375.489 370.682C376.148 369.311 377.064 368.242 378.239 367.477C379.42 366.705 380.799 366.318 382.375 366.318C383.284 366.318 384.182 366.47 385.068 366.773C385.955 367.076 386.761 367.568 387.489 368.25C388.216 368.924 388.795 369.818 389.227 370.932C389.659 372.045 389.875 373.417 389.875 375.045V376.182H376.42V373.864H387.148C387.148 372.879 386.951 372 386.557 371.227C386.17 370.455 385.617 369.845 384.898 369.398C384.186 368.951 383.345 368.727 382.375 368.727C381.307 368.727 380.383 368.992 379.602 369.523C378.83 370.045 378.235 370.727 377.818 371.568C377.402 372.409 377.193 373.311 377.193 374.273V375.818C377.193 377.136 377.42 378.254 377.875 379.17C378.337 380.08 378.977 380.773 379.795 381.25C380.614 381.72 381.564 381.955 382.648 381.955C383.352 381.955 383.989 381.856 384.557 381.659C385.133 381.455 385.629 381.152 386.045 380.75C386.462 380.341 386.784 379.833 387.011 379.227L389.602 379.955C389.33 380.833 388.871 381.606 388.227 382.273C387.583 382.932 386.788 383.447 385.841 383.818C384.894 384.182 383.83 384.364 382.648 384.364ZM410.545 366.545V368.818H401.5V366.545H410.545ZM404.136 362.364H406.818V379C406.818 379.758 406.928 380.326 407.148 380.705C407.375 381.076 407.663 381.326 408.011 381.455C408.367 381.576 408.742 381.636 409.136 381.636C409.432 381.636 409.674 381.621 409.864 381.591C410.053 381.553 410.205 381.523 410.318 381.5L410.864 383.909C410.682 383.977 410.428 384.045 410.102 384.114C409.777 384.189 409.364 384.227 408.864 384.227C408.106 384.227 407.364 384.064 406.636 383.739C405.917 383.413 405.318 382.917 404.841 382.25C404.371 381.583 404.136 380.742 404.136 379.727V362.364ZM417.636 373.5V384H414.955V360.727H417.636V369.273H417.864C418.273 368.371 418.886 367.655 419.705 367.125C420.53 366.587 421.629 366.318 423 366.318C424.189 366.318 425.231 366.557 426.125 367.034C427.019 367.504 427.712 368.227 428.205 369.205C428.705 370.174 428.955 371.409 428.955 372.909V384H426.273V373.091C426.273 371.705 425.913 370.633 425.193 369.875C424.481 369.11 423.492 368.727 422.227 368.727C421.348 368.727 420.561 368.913 419.864 369.284C419.174 369.655 418.629 370.197 418.227 370.909C417.833 371.621 417.636 372.485 417.636 373.5ZM441.179 384.364C439.497 384.364 438.046 383.992 436.827 383.25C435.615 382.5 434.679 381.455 434.02 380.114C433.368 378.765 433.043 377.197 433.043 375.409C433.043 373.621 433.368 372.045 434.02 370.682C434.679 369.311 435.596 368.242 436.77 367.477C437.952 366.705 439.33 366.318 440.906 366.318C441.815 366.318 442.713 366.47 443.599 366.773C444.486 367.076 445.293 367.568 446.02 368.25C446.747 368.924 447.327 369.818 447.759 370.932C448.19 372.045 448.406 373.417 448.406 375.045V376.182H434.952V373.864H445.679C445.679 372.879 445.482 372 445.088 371.227C444.702 370.455 444.149 369.845 443.429 369.398C442.717 368.951 441.876 368.727 440.906 368.727C439.838 368.727 438.914 368.992 438.134 369.523C437.361 370.045 436.766 370.727 436.349 371.568C435.933 372.409 435.724 373.311 435.724 374.273V375.818C435.724 377.136 435.952 378.254 436.406 379.17C436.868 380.08 437.509 380.773 438.327 381.25C439.145 381.72 440.096 381.955 441.179 381.955C441.884 381.955 442.52 381.856 443.088 381.659C443.664 381.455 444.16 381.152 444.577 380.75C444.993 380.341 445.315 379.833 445.543 379.227L448.134 379.955C447.861 380.833 447.402 381.606 446.759 382.273C446.115 382.932 445.319 383.447 444.372 383.818C443.425 384.182 442.361 384.364 441.179 384.364ZM452.486 384V366.545H455.077V369.273H455.304C455.668 368.341 456.255 367.617 457.065 367.102C457.876 366.58 458.849 366.318 459.986 366.318C461.137 366.318 462.096 366.58 462.861 367.102C463.634 367.617 464.236 368.341 464.668 369.273H464.849C465.296 368.371 465.967 367.655 466.861 367.125C467.755 366.587 468.827 366.318 470.077 366.318C471.637 366.318 472.914 366.807 473.906 367.784C474.899 368.754 475.395 370.265 475.395 372.318V384H472.713V372.318C472.713 371.03 472.361 370.11 471.656 369.557C470.952 369.004 470.122 368.727 469.168 368.727C467.94 368.727 466.99 369.098 466.315 369.841C465.641 370.576 465.304 371.508 465.304 372.636V384H462.577V372.045C462.577 371.053 462.255 370.254 461.611 369.648C460.967 369.034 460.137 368.727 459.122 368.727C458.425 368.727 457.774 368.913 457.168 369.284C456.569 369.655 456.084 370.17 455.713 370.83C455.349 371.481 455.168 372.235 455.168 373.091V384H452.486Z" fill="#1A1A1A"/>
<path d="M186.786 441.039H180.876C180.768 440.274 180.547 439.595 180.214 439.001C179.882 438.399 179.454 437.886 178.933 437.463C178.411 437.04 177.808 436.716 177.124 436.491C176.45 436.267 175.716 436.154 174.925 436.154C173.494 436.154 172.248 436.509 171.187 437.22C170.125 437.922 169.302 438.947 168.717 440.297C168.133 441.637 167.84 443.266 167.84 445.182C167.84 447.152 168.133 448.807 168.717 450.148C169.311 451.488 170.139 452.5 171.2 453.184C172.262 453.868 173.49 454.21 174.884 454.21C175.667 454.21 176.391 454.106 177.057 453.899C177.732 453.692 178.33 453.391 178.852 452.995C179.373 452.59 179.805 452.1 180.147 451.524C180.498 450.948 180.741 450.292 180.876 449.554L186.786 449.581C186.633 450.849 186.251 452.073 185.639 453.251C185.036 454.421 184.222 455.469 183.197 456.396C182.18 457.313 180.966 458.042 179.553 458.582C178.15 459.112 176.562 459.378 174.79 459.378C172.325 459.378 170.121 458.82 168.178 457.705C166.243 456.589 164.714 454.974 163.589 452.86C162.474 450.746 161.916 448.187 161.916 445.182C161.916 442.168 162.483 439.604 163.616 437.49C164.75 435.376 166.288 433.766 168.232 432.659C170.175 431.544 172.361 430.986 174.79 430.986C176.391 430.986 177.875 431.211 179.243 431.661C180.619 432.11 181.838 432.767 182.9 433.631C183.961 434.485 184.825 435.533 185.491 436.775C186.165 438.016 186.597 439.438 186.786 441.039ZM200.233 459.405C198.137 459.405 196.324 458.96 194.795 458.069C193.275 457.169 192.101 455.919 191.273 454.317C190.445 452.707 190.032 450.84 190.032 448.717C190.032 446.576 190.445 444.705 191.273 443.104C192.101 441.493 193.275 440.243 194.795 439.352C196.324 438.453 198.137 438.003 200.233 438.003C202.329 438.003 204.138 438.453 205.658 439.352C207.187 440.243 208.366 441.493 209.194 443.104C210.021 444.705 210.435 446.576 210.435 448.717C210.435 450.84 210.021 452.707 209.194 454.317C208.366 455.919 207.187 457.169 205.658 458.069C204.138 458.96 202.329 459.405 200.233 459.405ZM200.26 454.952C201.214 454.952 202.01 454.682 202.649 454.142C203.288 453.593 203.769 452.847 204.093 451.902C204.426 450.957 204.592 449.882 204.592 448.677C204.592 447.471 204.426 446.396 204.093 445.452C203.769 444.507 203.288 443.76 202.649 443.212C202.01 442.663 201.214 442.388 200.26 442.388C199.298 442.388 198.488 442.663 197.831 443.212C197.184 443.76 196.693 444.507 196.36 445.452C196.037 446.396 195.875 447.471 195.875 448.677C195.875 449.882 196.037 450.957 196.36 451.902C196.693 452.847 197.184 453.593 197.831 454.142C198.488 454.682 199.298 454.952 200.26 454.952ZM219.922 431.364V459H214.173V431.364H219.922ZM233.892 459.405C231.795 459.405 229.983 458.96 228.453 458.069C226.933 457.169 225.759 455.919 224.931 454.317C224.104 452.707 223.69 450.84 223.69 448.717C223.69 446.576 224.104 444.705 224.931 443.104C225.759 441.493 226.933 440.243 228.453 439.352C229.983 438.453 231.795 438.003 233.892 438.003C235.988 438.003 237.796 438.453 239.316 439.352C240.846 440.243 242.024 441.493 242.852 443.104C243.679 444.705 244.093 446.576 244.093 448.717C244.093 450.84 243.679 452.707 242.852 454.317C242.024 455.919 240.846 457.169 239.316 458.069C237.796 458.96 235.988 459.405 233.892 459.405ZM233.919 454.952C234.872 454.952 235.668 454.682 236.307 454.142C236.946 453.593 237.427 452.847 237.751 451.902C238.084 450.957 238.25 449.882 238.25 448.677C238.25 447.471 238.084 446.396 237.751 445.452C237.427 444.507 236.946 443.76 236.307 443.212C235.668 442.663 234.872 442.388 233.919 442.388C232.956 442.388 232.146 442.663 231.49 443.212C230.842 443.76 230.352 444.507 230.019 445.452C229.695 446.396 229.533 447.471 229.533 448.677C229.533 449.882 229.695 450.957 230.019 451.902C230.352 452.847 230.842 453.593 231.49 454.142C232.146 454.682 232.956 454.952 233.919 454.952ZM247.831 459V438.273H253.404V441.889H253.62C253.998 440.603 254.632 439.631 255.523 438.974C256.414 438.309 257.439 437.976 258.6 437.976C258.887 437.976 259.198 437.994 259.531 438.03C259.864 438.066 260.156 438.115 260.408 438.178V443.279C260.138 443.198 259.765 443.126 259.288 443.063C258.811 443 258.375 442.969 257.979 442.969C257.133 442.969 256.378 443.153 255.712 443.522C255.055 443.882 254.533 444.386 254.146 445.033C253.769 445.681 253.58 446.428 253.58 447.273V459H247.831ZM280.626 444.183L275.363 444.507C275.273 444.057 275.08 443.652 274.783 443.293C274.486 442.924 274.094 442.631 273.609 442.415C273.132 442.191 272.561 442.078 271.895 442.078C271.004 442.078 270.253 442.267 269.641 442.645C269.03 443.014 268.724 443.509 268.724 444.129C268.724 444.624 268.922 445.042 269.317 445.384C269.713 445.726 270.393 446 271.355 446.207L275.107 446.963C277.122 447.377 278.624 448.043 279.614 448.96C280.603 449.878 281.098 451.083 281.098 452.577C281.098 453.935 280.698 455.127 279.897 456.153C279.105 457.178 278.017 457.979 276.631 458.555C275.255 459.121 273.667 459.405 271.868 459.405C269.124 459.405 266.938 458.834 265.31 457.691C263.69 456.54 262.741 454.974 262.462 452.995L268.116 452.698C268.287 453.535 268.701 454.174 269.358 454.614C270.015 455.046 270.856 455.262 271.881 455.262C272.889 455.262 273.699 455.069 274.31 454.682C274.931 454.286 275.246 453.778 275.255 453.157C275.246 452.635 275.026 452.208 274.594 451.875C274.162 451.533 273.496 451.272 272.597 451.092L269.007 450.377C266.983 449.972 265.476 449.271 264.487 448.272C263.506 447.273 263.016 446 263.016 444.453C263.016 443.122 263.375 441.975 264.095 441.012C264.824 440.049 265.845 439.307 267.158 438.786C268.481 438.264 270.028 438.003 271.8 438.003C274.418 438.003 276.478 438.556 277.981 439.663C279.492 440.769 280.374 442.276 280.626 444.183Z" fill="#13B4D8"/>
</svg>
