<svg width="800" height="600" viewBox="0 0 800 600" fill="none" xmlns="http://www.w3.org/2000/svg">
<rect width="800" height="600" fill="white"/>
<path d="M99.2614 234H83.7926V190.364H99.3892C103.778 190.364 107.557 191.237 110.724 192.984C113.892 194.717 116.328 197.21 118.033 200.463C119.751 203.716 120.611 207.608 120.611 212.139C120.611 216.685 119.751 220.591 118.033 223.858C116.328 227.125 113.878 229.632 110.682 231.379C107.5 233.126 103.693 234 99.2614 234ZM93.0185 226.095H98.8778C101.605 226.095 103.899 225.612 105.76 224.646C107.635 223.666 109.041 222.153 109.979 220.108C110.93 218.048 111.406 215.392 111.406 212.139C111.406 208.915 110.93 206.28 109.979 204.234C109.041 202.189 107.642 200.683 105.781 199.717C103.92 198.751 101.626 198.268 98.8991 198.268H93.0185V226.095ZM142.189 234.639C138.823 234.639 135.925 233.957 133.496 232.594C131.081 231.216 129.221 229.27 127.914 226.756C126.607 224.227 125.953 221.237 125.953 217.786C125.953 214.419 126.607 211.464 127.914 208.922C129.221 206.379 131.06 204.398 133.432 202.977C135.819 201.557 138.617 200.847 141.827 200.847C143.986 200.847 145.996 201.195 147.857 201.891C149.732 202.572 151.365 203.602 152.757 204.98C154.164 206.358 155.257 208.091 156.039 210.179C156.82 212.253 157.211 214.682 157.211 217.466V219.959H129.576V214.334H148.667C148.667 213.027 148.382 211.869 147.814 210.861C147.246 209.852 146.458 209.064 145.449 208.496C144.455 207.913 143.297 207.622 141.976 207.622C140.598 207.622 139.377 207.942 138.311 208.581C137.26 209.206 136.436 210.051 135.84 211.116C135.243 212.168 134.938 213.339 134.924 214.632V219.98C134.924 221.599 135.222 222.999 135.819 224.178C136.429 225.357 137.289 226.266 138.397 226.905C139.505 227.544 140.819 227.864 142.338 227.864C143.347 227.864 144.27 227.722 145.108 227.438C145.946 227.153 146.664 226.727 147.26 226.159C147.857 225.591 148.311 224.895 148.624 224.071L157.019 224.625C156.593 226.642 155.719 228.403 154.398 229.909C153.091 231.401 151.401 232.565 149.327 233.403C147.267 234.227 144.888 234.639 142.189 234.639ZM190.364 210.605L182.054 211.116C181.912 210.406 181.607 209.767 181.138 209.199C180.669 208.616 180.051 208.155 179.284 207.814C178.532 207.459 177.63 207.281 176.578 207.281C175.172 207.281 173.986 207.58 173.02 208.176C172.054 208.759 171.571 209.54 171.571 210.52C171.571 211.301 171.884 211.962 172.509 212.501C173.134 213.041 174.206 213.474 175.726 213.801L181.65 214.994C184.831 215.648 187.203 216.699 188.766 218.148C190.328 219.597 191.11 221.5 191.11 223.858C191.11 226.003 190.478 227.885 189.213 229.504C187.963 231.124 186.245 232.388 184.057 233.297C181.884 234.192 179.377 234.639 176.536 234.639C172.203 234.639 168.752 233.737 166.181 231.933C163.624 230.115 162.125 227.643 161.685 224.518L170.613 224.05C170.882 225.371 171.536 226.379 172.573 227.075C173.61 227.757 174.938 228.098 176.557 228.098C178.148 228.098 179.426 227.793 180.392 227.182C181.373 226.557 181.87 225.754 181.884 224.774C181.87 223.95 181.522 223.276 180.84 222.75C180.158 222.21 179.107 221.798 177.686 221.514L172.019 220.385C168.823 219.746 166.444 218.638 164.881 217.061C163.333 215.484 162.559 213.474 162.559 211.031C162.559 208.929 163.127 207.118 164.263 205.598C165.414 204.078 167.026 202.906 169.1 202.082C171.188 201.259 173.631 200.847 176.429 200.847C180.563 200.847 183.816 201.72 186.188 203.467C188.574 205.214 189.966 207.594 190.364 210.605ZM196.825 234V201.273H205.902V234H196.825ZM201.385 197.054C200.036 197.054 198.878 196.607 197.912 195.712C196.96 194.803 196.484 193.716 196.484 192.452C196.484 191.202 196.96 190.129 197.912 189.234C198.878 188.325 200.036 187.871 201.385 187.871C202.734 187.871 203.885 188.325 204.837 189.234C205.803 190.129 206.286 191.202 206.286 192.452C206.286 193.716 205.803 194.803 204.837 195.712C203.885 196.607 202.734 197.054 201.385 197.054ZM227.917 246.955C224.977 246.955 222.456 246.55 220.353 245.74C218.265 244.945 216.603 243.858 215.368 242.48C214.132 241.102 213.329 239.554 212.96 237.835L221.355 236.706C221.61 237.359 222.015 237.97 222.569 238.538C223.123 239.107 223.855 239.561 224.764 239.902C225.687 240.257 226.809 240.435 228.13 240.435C230.105 240.435 231.731 239.952 233.01 238.986C234.302 238.034 234.949 236.436 234.949 234.192V228.205H234.565C234.167 229.114 233.571 229.973 232.775 230.783C231.98 231.592 230.957 232.253 229.707 232.764C228.457 233.276 226.966 233.531 225.233 233.531C222.775 233.531 220.538 232.963 218.521 231.827C216.518 230.676 214.92 228.922 213.727 226.564C212.548 224.192 211.958 221.195 211.958 217.572C211.958 213.865 212.562 210.768 213.77 208.283C214.977 205.797 216.582 203.936 218.585 202.7C220.602 201.464 222.811 200.847 225.211 200.847C227.044 200.847 228.578 201.159 229.814 201.784C231.049 202.395 232.044 203.162 232.797 204.085C233.564 204.994 234.153 205.889 234.565 206.77H234.906V201.273H243.919V234.32C243.919 237.104 243.237 239.433 241.873 241.308C240.51 243.183 238.62 244.589 236.206 245.527C233.805 246.479 231.042 246.955 227.917 246.955ZM228.109 226.713C229.572 226.713 230.808 226.351 231.816 225.626C232.839 224.888 233.62 223.837 234.16 222.473C234.714 221.095 234.991 219.447 234.991 217.53C234.991 215.612 234.721 213.95 234.181 212.544C233.642 211.124 232.86 210.023 231.838 209.241C230.815 208.46 229.572 208.07 228.109 208.07C226.618 208.07 225.36 208.474 224.338 209.284C223.315 210.08 222.541 211.187 222.015 212.608C221.49 214.028 221.227 215.669 221.227 217.53C221.227 219.419 221.49 221.053 222.015 222.43C222.555 223.794 223.329 224.852 224.338 225.605C225.36 226.344 226.618 226.713 228.109 226.713ZM260.218 215.08V234H251.142V201.273H259.792V207.047H260.176C260.9 205.143 262.115 203.638 263.819 202.53C265.524 201.408 267.591 200.847 270.02 200.847C272.292 200.847 274.274 201.344 275.964 202.338C277.654 203.332 278.968 204.753 279.906 206.599C280.843 208.432 281.312 210.619 281.312 213.162V234H272.235V214.781C272.25 212.778 271.738 211.216 270.701 210.094C269.664 208.957 268.237 208.389 266.419 208.389C265.197 208.389 264.118 208.652 263.18 209.178C262.257 209.703 261.532 210.47 261.007 211.479C260.495 212.473 260.233 213.673 260.218 215.08ZM319.952 201.273V208.091H299.753V201.273H319.952ZM304.377 234V198.908C304.377 196.536 304.838 194.568 305.762 193.006C306.699 191.443 307.978 190.271 309.597 189.49C311.216 188.709 313.056 188.318 315.115 188.318C316.507 188.318 317.779 188.425 318.929 188.638C320.094 188.851 320.961 189.043 321.529 189.213L319.909 196.031C319.554 195.918 319.114 195.811 318.588 195.712C318.077 195.612 317.551 195.562 317.012 195.562C315.676 195.562 314.746 195.875 314.221 196.5C313.695 197.111 313.432 197.97 313.432 199.078V234H304.377ZM339.112 234.639C335.803 234.639 332.94 233.936 330.526 232.53C328.125 231.109 326.271 229.135 324.964 226.607C323.658 224.064 323.004 221.116 323.004 217.764C323.004 214.384 323.658 211.429 324.964 208.901C326.271 206.358 328.125 204.384 330.526 202.977C332.94 201.557 335.803 200.847 339.112 200.847C342.422 200.847 345.277 201.557 347.678 202.977C350.092 204.384 351.953 206.358 353.26 208.901C354.567 211.429 355.22 214.384 355.22 217.764C355.22 221.116 354.567 224.064 353.26 226.607C351.953 229.135 350.092 231.109 347.678 232.53C345.277 233.936 342.422 234.639 339.112 234.639ZM339.155 227.608C340.661 227.608 341.918 227.182 342.926 226.33C343.935 225.463 344.695 224.284 345.206 222.793C345.732 221.301 345.994 219.604 345.994 217.7C345.994 215.797 345.732 214.099 345.206 212.608C344.695 211.116 343.935 209.937 342.926 209.071C341.918 208.205 340.661 207.771 339.155 207.771C337.635 207.771 336.357 208.205 335.32 209.071C334.297 209.937 333.523 211.116 332.997 212.608C332.486 214.099 332.23 215.797 332.23 217.7C332.23 219.604 332.486 221.301 332.997 222.793C333.523 224.284 334.297 225.463 335.32 226.33C336.357 227.182 337.635 227.608 339.155 227.608ZM361.122 234V201.273H369.922V206.983H370.263C370.859 204.952 371.861 203.418 373.267 202.381C374.673 201.33 376.293 200.804 378.125 200.804C378.58 200.804 379.07 200.832 379.595 200.889C380.121 200.946 380.582 201.024 380.98 201.124V209.178C380.554 209.05 379.964 208.936 379.212 208.837C378.459 208.737 377.77 208.688 377.145 208.688C375.81 208.688 374.616 208.979 373.565 209.561C372.528 210.129 371.705 210.925 371.094 211.947C370.497 212.97 370.199 214.149 370.199 215.484V234H361.122ZM107.464 262.913C107.294 261.195 106.563 259.859 105.27 258.908C103.977 257.956 102.223 257.48 100.007 257.48C98.5014 257.48 97.2301 257.693 96.1932 258.119C95.1563 258.531 94.3608 259.107 93.8068 259.845C93.267 260.584 92.9972 261.422 92.9972 262.359C92.9688 263.141 93.1321 263.822 93.4872 264.405C93.8565 264.987 94.3608 265.491 95 265.918C95.6392 266.33 96.3778 266.692 97.2159 267.004C98.054 267.303 98.9489 267.558 99.9006 267.771L103.821 268.709C105.724 269.135 107.472 269.703 109.062 270.413C110.653 271.124 112.031 271.997 113.196 273.034C114.361 274.071 115.263 275.293 115.902 276.699C116.555 278.105 116.889 279.717 116.903 281.536C116.889 284.206 116.207 286.521 114.858 288.482C113.523 290.428 111.591 291.94 109.062 293.02C106.548 294.085 103.516 294.618 99.9645 294.618C96.4418 294.618 93.3736 294.078 90.7599 292.999C88.1605 291.919 86.1293 290.321 84.6662 288.205C83.2173 286.074 82.4574 283.439 82.3864 280.3H91.3139C91.4134 281.763 91.8324 282.984 92.571 283.964C93.3239 284.93 94.3253 285.662 95.5753 286.159C96.8395 286.642 98.267 286.884 99.858 286.884C101.42 286.884 102.777 286.656 103.928 286.202C105.092 285.747 105.994 285.115 106.634 284.305C107.273 283.496 107.592 282.565 107.592 281.514C107.592 280.534 107.301 279.71 106.719 279.043C106.151 278.375 105.313 277.807 104.205 277.338C103.111 276.869 101.768 276.443 100.178 276.06L95.4261 274.866C91.7472 273.972 88.8423 272.572 86.7116 270.669C84.581 268.766 83.5227 266.202 83.5369 262.977C83.5227 260.335 84.2259 258.027 85.6463 256.053C87.081 254.078 89.0483 252.537 91.5483 251.429C94.0483 250.321 96.8892 249.767 100.071 249.767C103.31 249.767 106.136 250.321 108.551 251.429C110.98 252.537 112.869 254.078 114.219 256.053C115.568 258.027 116.264 260.314 116.307 262.913H107.464ZM137.725 294.639C134.373 294.639 131.49 293.929 129.075 292.509C126.674 291.074 124.828 289.085 123.535 286.543C122.257 284 121.618 281.074 121.618 277.764C121.618 274.412 122.264 271.472 123.556 268.943C124.863 266.401 126.717 264.419 129.118 262.999C131.518 261.564 134.373 260.847 137.683 260.847C140.538 260.847 143.038 261.365 145.183 262.402C147.328 263.439 149.025 264.895 150.275 266.77C151.525 268.645 152.214 270.847 152.342 273.375H143.777C143.535 271.741 142.896 270.428 141.859 269.433C140.836 268.425 139.494 267.92 137.832 267.92C136.426 267.92 135.197 268.304 134.146 269.071C133.109 269.824 132.299 270.925 131.717 272.374C131.135 273.822 130.843 275.577 130.843 277.636C130.843 279.724 131.127 281.5 131.696 282.963C132.278 284.426 133.095 285.541 134.146 286.308C135.197 287.075 136.426 287.459 137.832 287.459C138.869 287.459 139.799 287.246 140.623 286.82C141.461 286.393 142.15 285.776 142.69 284.966C143.244 284.142 143.606 283.155 143.777 282.004H152.342C152.2 284.504 151.518 286.706 150.297 288.609C149.089 290.499 147.42 291.976 145.289 293.041C143.159 294.107 140.637 294.639 137.725 294.639ZM158.153 294V261.273H167.23V294H158.153ZM162.713 257.054C161.364 257.054 160.206 256.607 159.24 255.712C158.288 254.803 157.812 253.716 157.812 252.452C157.812 251.202 158.288 250.129 159.24 249.234C160.206 248.325 161.364 247.871 162.713 247.871C164.063 247.871 165.213 248.325 166.165 249.234C167.131 250.129 167.614 251.202 167.614 252.452C167.614 253.716 167.131 254.803 166.165 255.712C165.213 256.607 164.063 257.054 162.713 257.054ZM189.416 294.639C186.049 294.639 183.152 293.957 180.723 292.594C178.308 291.216 176.447 289.27 175.14 286.756C173.833 284.227 173.18 281.237 173.18 277.786C173.18 274.419 173.833 271.464 175.14 268.922C176.447 266.379 178.287 264.398 180.659 262.977C183.045 261.557 185.843 260.847 189.054 260.847C191.213 260.847 193.223 261.195 195.083 261.891C196.958 262.572 198.592 263.602 199.984 264.98C201.39 266.358 202.484 268.091 203.265 270.179C204.047 272.253 204.437 274.682 204.437 277.466V279.959H176.802V274.334H195.893C195.893 273.027 195.609 271.869 195.041 270.861C194.473 269.852 193.684 269.064 192.676 268.496C191.681 267.913 190.524 267.622 189.203 267.622C187.825 267.622 186.603 267.942 185.538 268.581C184.487 269.206 183.663 270.051 183.066 271.116C182.47 272.168 182.164 273.339 182.15 274.632V279.98C182.15 281.599 182.449 282.999 183.045 284.178C183.656 285.357 184.515 286.266 185.623 286.905C186.731 287.544 188.045 287.864 189.565 287.864C190.574 287.864 191.497 287.722 192.335 287.438C193.173 287.153 193.89 286.727 194.487 286.159C195.083 285.591 195.538 284.895 195.85 284.071L204.245 284.625C203.819 286.642 202.946 288.403 201.625 289.909C200.318 291.401 198.627 292.565 196.554 293.403C194.494 294.227 192.115 294.639 189.416 294.639ZM219.437 275.08V294H210.36V261.273H219.011V267.047H219.395C220.119 265.143 221.333 263.638 223.038 262.53C224.743 261.408 226.809 260.847 229.238 260.847C231.511 260.847 233.493 261.344 235.183 262.338C236.873 263.332 238.187 264.753 239.125 266.599C240.062 268.432 240.531 270.619 240.531 273.162V294H231.454V274.781C231.468 272.778 230.957 271.216 229.92 270.094C228.883 268.957 227.456 268.389 225.637 268.389C224.416 268.389 223.336 268.652 222.399 269.178C221.475 269.703 220.751 270.47 220.225 271.479C219.714 272.473 219.451 273.673 219.437 275.08ZM265.092 261.273V268.091H245.384V261.273H265.092ZM249.858 253.432H258.935V283.943C258.935 284.781 259.063 285.435 259.318 285.903C259.574 286.358 259.929 286.678 260.384 286.862C260.852 287.047 261.392 287.139 262.003 287.139C262.429 287.139 262.855 287.104 263.281 287.033C263.707 286.947 264.034 286.884 264.261 286.841L265.689 293.595C265.234 293.737 264.595 293.901 263.771 294.085C262.947 294.284 261.946 294.405 260.767 294.447C258.58 294.533 256.662 294.241 255.014 293.574C253.381 292.906 252.109 291.869 251.2 290.463C250.291 289.057 249.844 287.281 249.858 285.136V253.432ZM271.005 294V261.273H280.082V294H271.005ZM275.565 257.054C274.215 257.054 273.058 256.607 272.092 255.712C271.14 254.803 270.664 253.716 270.664 252.452C270.664 251.202 271.14 250.129 272.092 249.234C273.058 248.325 274.215 247.871 275.565 247.871C276.914 247.871 278.065 248.325 279.016 249.234C279.982 250.129 280.465 251.202 280.465 252.452C280.465 253.716 279.982 254.803 279.016 255.712C278.065 256.607 276.914 257.054 275.565 257.054ZM314.583 270.605L306.273 271.116C306.131 270.406 305.826 269.767 305.357 269.199C304.888 268.616 304.27 268.155 303.503 267.814C302.75 267.459 301.848 267.281 300.797 267.281C299.391 267.281 298.205 267.58 297.239 268.176C296.273 268.759 295.79 269.54 295.79 270.52C295.79 271.301 296.103 271.962 296.728 272.501C297.353 273.041 298.425 273.474 299.945 273.801L305.868 274.994C309.05 275.648 311.422 276.699 312.985 278.148C314.547 279.597 315.328 281.5 315.328 283.858C315.328 286.003 314.696 287.885 313.432 289.504C312.182 291.124 310.463 292.388 308.276 293.297C306.103 294.192 303.596 294.639 300.755 294.639C296.422 294.639 292.971 293.737 290.4 291.933C287.843 290.115 286.344 287.643 285.904 284.518L294.831 284.05C295.101 285.371 295.755 286.379 296.792 287.075C297.828 287.757 299.157 288.098 300.776 288.098C302.367 288.098 303.645 287.793 304.611 287.182C305.591 286.557 306.088 285.754 306.103 284.774C306.088 283.95 305.74 283.276 305.059 282.75C304.377 282.21 303.326 281.798 301.905 281.514L296.238 280.385C293.042 279.746 290.662 278.638 289.1 277.061C287.551 275.484 286.777 273.474 286.777 271.031C286.777 268.929 287.346 267.118 288.482 265.598C289.632 264.078 291.245 262.906 293.319 262.082C295.407 261.259 297.85 260.847 300.648 260.847C304.782 260.847 308.034 261.72 310.407 263.467C312.793 265.214 314.185 267.594 314.583 270.605ZM338.452 261.273V268.091H318.743V261.273H338.452ZM323.217 253.432H332.294V283.943C332.294 284.781 332.422 285.435 332.678 285.903C332.933 286.358 333.288 286.678 333.743 286.862C334.212 287.047 334.751 287.139 335.362 287.139C335.788 287.139 336.214 287.104 336.641 287.033C337.067 286.947 337.393 286.884 337.621 286.841L339.048 293.595C338.594 293.737 337.955 293.901 337.131 294.085C336.307 294.284 335.305 294.405 334.126 294.447C331.939 294.533 330.021 294.241 328.374 293.574C326.74 292.906 325.469 291.869 324.56 290.463C323.651 289.057 323.203 287.281 323.217 285.136V253.432ZM371.184 270.605L362.875 271.116C362.733 270.406 362.427 269.767 361.958 269.199C361.49 268.616 360.872 268.155 360.105 267.814C359.352 267.459 358.45 267.281 357.399 267.281C355.993 267.281 354.806 267.58 353.841 268.176C352.875 268.759 352.392 269.54 352.392 270.52C352.392 271.301 352.704 271.962 353.329 272.501C353.954 273.041 355.027 273.474 356.547 273.801L362.47 274.994C365.652 275.648 368.024 276.699 369.586 278.148C371.149 279.597 371.93 281.5 371.93 283.858C371.93 286.003 371.298 287.885 370.034 289.504C368.784 291.124 367.065 292.388 364.877 293.297C362.704 294.192 360.197 294.639 357.356 294.639C353.024 294.639 349.572 293.737 347.001 291.933C344.444 290.115 342.946 287.643 342.505 284.518L351.433 284.05C351.703 285.371 352.356 286.379 353.393 287.075C354.43 287.757 355.758 288.098 357.377 288.098C358.968 288.098 360.247 287.793 361.213 287.182C362.193 286.557 362.69 285.754 362.704 284.774C362.69 283.95 362.342 283.276 361.66 282.75C360.978 282.21 359.927 281.798 358.507 281.514L352.839 280.385C349.643 279.746 347.264 278.638 345.701 277.061C344.153 275.484 343.379 273.474 343.379 271.031C343.379 268.929 343.947 267.118 345.083 265.598C346.234 264.078 347.846 262.906 349.92 262.082C352.008 261.259 354.451 260.847 357.25 260.847C361.383 260.847 364.636 261.72 367.008 263.467C369.395 265.214 370.787 267.594 371.184 270.605Z" fill="#1A1A1A"/>
<path d="M83.7727 367H80.8182L89.3636 343.727H92.2727L100.818 367H97.8636L90.9091 347.409H90.7273L83.7727 367ZM84.8636 357.909H96.7727V360.409H84.8636V357.909ZM106.761 356.5V367H104.08V349.545H106.67V352.273H106.898C107.307 351.386 107.928 350.674 108.761 350.136C109.595 349.591 110.67 349.318 111.989 349.318C113.17 349.318 114.205 349.561 115.091 350.045C115.977 350.523 116.667 351.25 117.159 352.227C117.652 353.197 117.898 354.424 117.898 355.909V367H115.216V356.091C115.216 354.72 114.86 353.652 114.148 352.886C113.436 352.114 112.458 351.727 111.216 351.727C110.36 351.727 109.595 351.913 108.92 352.284C108.254 352.655 107.727 353.197 107.341 353.909C106.955 354.621 106.761 355.485 106.761 356.5ZM131.798 367V349.545H134.48V367H131.798ZM133.162 346.636C132.639 346.636 132.188 346.458 131.81 346.102C131.438 345.746 131.253 345.318 131.253 344.818C131.253 344.318 131.438 343.89 131.81 343.534C132.188 343.178 132.639 343 133.162 343C133.685 343 134.132 343.178 134.503 343.534C134.882 343.89 135.071 344.318 135.071 344.818C135.071 345.318 134.882 345.746 134.503 346.102C134.132 346.458 133.685 346.636 133.162 346.636ZM142.074 356.5V367H139.392V349.545H141.983V352.273H142.21C142.619 351.386 143.241 350.674 144.074 350.136C144.907 349.591 145.983 349.318 147.301 349.318C148.483 349.318 149.517 349.561 150.403 350.045C151.29 350.523 151.979 351.25 152.472 352.227C152.964 353.197 153.21 354.424 153.21 355.909V367H150.528V356.091C150.528 354.72 150.172 353.652 149.46 352.886C148.748 352.114 147.771 351.727 146.528 351.727C145.672 351.727 144.907 351.913 144.233 352.284C143.566 352.655 143.04 353.197 142.653 353.909C142.267 354.621 142.074 355.485 142.074 356.5ZM165.702 349.545V351.818H156.656V349.545H165.702ZM159.293 345.364H161.974V362C161.974 362.758 162.084 363.326 162.304 363.705C162.531 364.076 162.819 364.326 163.168 364.455C163.524 364.576 163.899 364.636 164.293 364.636C164.588 364.636 164.83 364.621 165.02 364.591C165.209 364.553 165.361 364.523 165.474 364.5L166.02 366.909C165.838 366.977 165.584 367.045 165.259 367.114C164.933 367.189 164.52 367.227 164.02 367.227C163.262 367.227 162.52 367.064 161.793 366.739C161.073 366.413 160.474 365.917 159.997 365.25C159.527 364.583 159.293 363.742 159.293 362.727V345.364ZM169.736 367V349.545H172.327V352.182H172.509C172.827 351.318 173.402 350.617 174.236 350.08C175.069 349.542 176.009 349.273 177.054 349.273C177.251 349.273 177.497 349.277 177.793 349.284C178.088 349.292 178.312 349.303 178.463 349.318V352.045C178.372 352.023 178.164 351.989 177.838 351.943C177.52 351.89 177.183 351.864 176.827 351.864C175.978 351.864 175.221 352.042 174.554 352.398C173.895 352.746 173.372 353.231 172.986 353.852C172.607 354.466 172.418 355.167 172.418 355.955V367H169.736ZM188.202 367.364C186.626 367.364 185.243 366.989 184.054 366.239C182.872 365.489 181.948 364.439 181.281 363.091C180.622 361.742 180.293 360.167 180.293 358.364C180.293 356.545 180.622 354.958 181.281 353.602C181.948 352.246 182.872 351.193 184.054 350.443C185.243 349.693 186.626 349.318 188.202 349.318C189.777 349.318 191.156 349.693 192.338 350.443C193.527 351.193 194.452 352.246 195.111 353.602C195.777 354.958 196.111 356.545 196.111 358.364C196.111 360.167 195.777 361.742 195.111 363.091C194.452 364.439 193.527 365.489 192.338 366.239C191.156 366.989 189.777 367.364 188.202 367.364ZM188.202 364.955C189.399 364.955 190.384 364.648 191.156 364.034C191.929 363.42 192.501 362.614 192.872 361.614C193.243 360.614 193.429 359.53 193.429 358.364C193.429 357.197 193.243 356.11 192.872 355.102C192.501 354.095 191.929 353.28 191.156 352.659C190.384 352.038 189.399 351.727 188.202 351.727C187.005 351.727 186.02 352.038 185.247 352.659C184.474 353.28 183.902 354.095 183.531 355.102C183.16 356.11 182.974 357.197 182.974 358.364C182.974 359.53 183.16 360.614 183.531 361.614C183.902 362.614 184.474 363.42 185.247 364.034C186.02 364.648 187.005 364.955 188.202 364.955ZM206.795 367.364C205.341 367.364 204.057 366.996 202.943 366.261C201.83 365.519 200.958 364.473 200.33 363.125C199.701 361.769 199.386 360.167 199.386 358.318C199.386 356.485 199.701 354.894 200.33 353.545C200.958 352.197 201.833 351.155 202.955 350.42C204.076 349.686 205.371 349.318 206.841 349.318C207.977 349.318 208.875 349.508 209.534 349.886C210.201 350.258 210.708 350.682 211.057 351.159C211.413 351.629 211.689 352.015 211.886 352.318H212.114V343.727H214.795V367H212.205V364.318H211.886C211.689 364.636 211.409 365.038 211.045 365.523C210.682 366 210.163 366.428 209.489 366.807C208.814 367.178 207.917 367.364 206.795 367.364ZM207.159 364.955C208.235 364.955 209.144 364.674 209.886 364.114C210.629 363.545 211.193 362.761 211.58 361.761C211.966 360.754 212.159 359.591 212.159 358.273C212.159 356.97 211.97 355.83 211.591 354.852C211.212 353.867 210.652 353.102 209.909 352.557C209.167 352.004 208.25 351.727 207.159 351.727C206.023 351.727 205.076 352.019 204.318 352.602C203.568 353.178 203.004 353.962 202.625 354.955C202.254 355.939 202.068 357.045 202.068 358.273C202.068 359.515 202.258 360.644 202.636 361.659C203.023 362.667 203.591 363.47 204.341 364.068C205.098 364.659 206.038 364.955 207.159 364.955ZM231.08 359.864V349.545H233.761V367H231.08V364.045H230.898C230.489 364.932 229.852 365.686 228.989 366.307C228.125 366.92 227.034 367.227 225.716 367.227C224.625 367.227 223.655 366.989 222.807 366.511C221.958 366.027 221.292 365.299 220.807 364.33C220.322 363.352 220.08 362.121 220.08 360.636V349.545H222.761V360.455C222.761 361.727 223.117 362.742 223.83 363.5C224.549 364.258 225.466 364.636 226.58 364.636C227.246 364.636 227.924 364.466 228.614 364.125C229.311 363.784 229.894 363.261 230.364 362.557C230.841 361.852 231.08 360.955 231.08 359.864ZM245.764 367.364C244.128 367.364 242.719 366.977 241.537 366.205C240.355 365.432 239.446 364.367 238.81 363.011C238.173 361.655 237.855 360.106 237.855 358.364C237.855 356.591 238.181 355.027 238.832 353.67C239.491 352.307 240.408 351.242 241.582 350.477C242.764 349.705 244.143 349.318 245.719 349.318C246.946 349.318 248.052 349.545 249.037 350C250.022 350.455 250.829 351.091 251.457 351.909C252.086 352.727 252.476 353.682 252.628 354.773H249.946C249.741 353.977 249.287 353.273 248.582 352.659C247.885 352.038 246.946 351.727 245.764 351.727C244.719 351.727 243.802 352 243.014 352.545C242.234 353.083 241.624 353.845 241.185 354.83C240.753 355.807 240.537 356.955 240.537 358.273C240.537 359.621 240.749 360.795 241.173 361.795C241.605 362.795 242.211 363.572 242.991 364.125C243.779 364.678 244.704 364.955 245.764 364.955C246.461 364.955 247.094 364.833 247.662 364.591C248.23 364.348 248.711 364 249.105 363.545C249.499 363.091 249.779 362.545 249.946 361.909H252.628C252.476 362.939 252.101 363.867 251.503 364.693C250.912 365.511 250.128 366.163 249.151 366.648C248.181 367.125 247.052 367.364 245.764 367.364ZM264.139 349.545V351.818H255.094V349.545H264.139ZM257.73 345.364H260.412V362C260.412 362.758 260.522 363.326 260.741 363.705C260.969 364.076 261.257 364.326 261.605 364.455C261.961 364.576 262.336 364.636 262.73 364.636C263.026 364.636 263.268 364.621 263.457 364.591C263.647 364.553 263.798 364.523 263.912 364.5L264.457 366.909C264.276 366.977 264.022 367.045 263.696 367.114C263.37 367.189 262.957 367.227 262.457 367.227C261.7 367.227 260.957 367.064 260.23 366.739C259.51 366.413 258.912 365.917 258.435 365.25C257.965 364.583 257.73 363.742 257.73 362.727V345.364ZM268.173 367V349.545H270.855V367H268.173ZM269.537 346.636C269.014 346.636 268.563 346.458 268.185 346.102C267.813 345.746 267.628 345.318 267.628 344.818C267.628 344.318 267.813 343.89 268.185 343.534C268.563 343.178 269.014 343 269.537 343C270.06 343 270.507 343.178 270.878 343.534C271.257 343.89 271.446 344.318 271.446 344.818C271.446 345.318 271.257 345.746 270.878 346.102C270.507 346.458 270.06 346.636 269.537 346.636ZM282.858 367.364C281.282 367.364 279.9 366.989 278.71 366.239C277.528 365.489 276.604 364.439 275.938 363.091C275.278 361.742 274.949 360.167 274.949 358.364C274.949 356.545 275.278 354.958 275.938 353.602C276.604 352.246 277.528 351.193 278.71 350.443C279.9 349.693 281.282 349.318 282.858 349.318C284.434 349.318 285.813 349.693 286.994 350.443C288.184 351.193 289.108 352.246 289.767 353.602C290.434 354.958 290.767 356.545 290.767 358.364C290.767 360.167 290.434 361.742 289.767 363.091C289.108 364.439 288.184 365.489 286.994 366.239C285.813 366.989 284.434 367.364 282.858 367.364ZM282.858 364.955C284.055 364.955 285.04 364.648 285.812 364.034C286.585 363.42 287.157 362.614 287.528 361.614C287.9 360.614 288.085 359.53 288.085 358.364C288.085 357.197 287.9 356.11 287.528 355.102C287.157 354.095 286.585 353.28 285.812 352.659C285.04 352.038 284.055 351.727 282.858 351.727C281.661 351.727 280.676 352.038 279.903 352.659C279.131 353.28 278.559 354.095 278.188 355.102C277.816 356.11 277.631 357.197 277.631 358.364C277.631 359.53 277.816 360.614 278.188 361.614C278.559 362.614 279.131 363.42 279.903 364.034C280.676 364.648 281.661 364.955 282.858 364.955ZM297.543 356.5V367H294.861V349.545H297.452V352.273H297.679C298.088 351.386 298.709 350.674 299.543 350.136C300.376 349.591 301.452 349.318 302.77 349.318C303.952 349.318 304.986 349.561 305.872 350.045C306.759 350.523 307.448 351.25 307.94 352.227C308.433 353.197 308.679 354.424 308.679 355.909V367H305.997V356.091C305.997 354.72 305.641 353.652 304.929 352.886C304.217 352.114 303.24 351.727 301.997 351.727C301.141 351.727 300.376 351.913 299.702 352.284C299.035 352.655 298.509 353.197 298.122 353.909C297.736 354.621 297.543 355.485 297.543 356.5ZM327.716 367.409C326.61 367.409 325.606 367.201 324.705 366.784C323.803 366.36 323.087 365.75 322.557 364.955C322.027 364.152 321.761 363.182 321.761 362.045C321.761 361.045 321.958 360.235 322.352 359.614C322.746 358.985 323.273 358.492 323.932 358.136C324.591 357.78 325.318 357.515 326.114 357.341C326.917 357.159 327.723 357.015 328.534 356.909C329.595 356.773 330.455 356.67 331.114 356.602C331.78 356.527 332.265 356.402 332.568 356.227C332.879 356.053 333.034 355.75 333.034 355.318V355.227C333.034 354.106 332.727 353.235 332.114 352.614C331.508 351.992 330.587 351.682 329.352 351.682C328.072 351.682 327.068 351.962 326.341 352.523C325.614 353.083 325.102 353.682 324.807 354.318L322.261 353.409C322.716 352.348 323.322 351.523 324.08 350.932C324.845 350.333 325.678 349.917 326.58 349.682C327.489 349.439 328.383 349.318 329.261 349.318C329.822 349.318 330.466 349.386 331.193 349.523C331.928 349.652 332.636 349.92 333.318 350.33C334.008 350.739 334.58 351.356 335.034 352.182C335.489 353.008 335.716 354.114 335.716 355.5V367H333.034V364.636H332.898C332.716 365.015 332.413 365.42 331.989 365.852C331.564 366.284 331 366.652 330.295 366.955C329.591 367.258 328.731 367.409 327.716 367.409ZM328.125 365C329.186 365 330.08 364.792 330.807 364.375C331.542 363.958 332.095 363.42 332.466 362.761C332.845 362.102 333.034 361.409 333.034 360.682V358.227C332.92 358.364 332.67 358.489 332.284 358.602C331.905 358.708 331.466 358.803 330.966 358.886C330.473 358.962 329.992 359.03 329.523 359.091C329.061 359.144 328.686 359.189 328.398 359.227C327.701 359.318 327.049 359.466 326.443 359.67C325.845 359.867 325.36 360.167 324.989 360.568C324.625 360.962 324.443 361.5 324.443 362.182C324.443 363.114 324.788 363.818 325.477 364.295C326.174 364.765 327.057 365 328.125 365ZM343.293 356.5V367H340.611V349.545H343.202V352.273H343.429C343.838 351.386 344.459 350.674 345.293 350.136C346.126 349.591 347.202 349.318 348.52 349.318C349.702 349.318 350.736 349.561 351.622 350.045C352.509 350.523 353.198 351.25 353.69 352.227C354.183 353.197 354.429 354.424 354.429 355.909V367H351.747V356.091C351.747 354.72 351.391 353.652 350.679 352.886C349.967 352.114 348.99 351.727 347.747 351.727C346.891 351.727 346.126 351.913 345.452 352.284C344.785 352.655 344.259 353.197 343.872 353.909C343.486 354.621 343.293 355.485 343.293 356.5ZM365.92 367.364C364.466 367.364 363.182 366.996 362.068 366.261C360.955 365.519 360.083 364.473 359.455 363.125C358.826 361.769 358.511 360.167 358.511 358.318C358.511 356.485 358.826 354.894 359.455 353.545C360.083 352.197 360.958 351.155 362.08 350.42C363.201 349.686 364.496 349.318 365.966 349.318C367.102 349.318 368 349.508 368.659 349.886C369.326 350.258 369.833 350.682 370.182 351.159C370.538 351.629 370.814 352.015 371.011 352.318H371.239V343.727H373.92V367H371.33V364.318H371.011C370.814 364.636 370.534 365.038 370.17 365.523C369.807 366 369.288 366.428 368.614 366.807C367.939 367.178 367.042 367.364 365.92 367.364ZM366.284 364.955C367.36 364.955 368.269 364.674 369.011 364.114C369.754 363.545 370.318 362.761 370.705 361.761C371.091 360.754 371.284 359.591 371.284 358.273C371.284 356.97 371.095 355.83 370.716 354.852C370.337 353.867 369.777 353.102 369.034 352.557C368.292 352.004 367.375 351.727 366.284 351.727C365.148 351.727 364.201 352.019 363.443 352.602C362.693 353.178 362.129 353.962 361.75 354.955C361.379 355.939 361.193 357.045 361.193 358.273C361.193 359.515 361.383 360.644 361.761 361.659C362.148 362.667 362.716 363.47 363.466 364.068C364.223 364.659 365.163 364.955 366.284 364.955ZM390.886 356.5V367H388.205V343.727H390.886V352.273H391.114C391.523 351.371 392.136 350.655 392.955 350.125C393.78 349.587 394.879 349.318 396.25 349.318C397.439 349.318 398.481 349.557 399.375 350.034C400.269 350.504 400.962 351.227 401.455 352.205C401.955 353.174 402.205 354.409 402.205 355.909V367H399.523V356.091C399.523 354.705 399.163 353.633 398.443 352.875C397.731 352.11 396.742 351.727 395.477 351.727C394.598 351.727 393.811 351.913 393.114 352.284C392.424 352.655 391.879 353.197 391.477 353.909C391.083 354.621 390.886 355.485 390.886 356.5ZM412.247 367.409C411.141 367.409 410.137 367.201 409.236 366.784C408.334 366.36 407.618 365.75 407.088 364.955C406.558 364.152 406.293 363.182 406.293 362.045C406.293 361.045 406.49 360.235 406.884 359.614C407.277 358.985 407.804 358.492 408.463 358.136C409.122 357.78 409.849 357.515 410.645 357.341C411.448 357.159 412.255 357.015 413.065 356.909C414.126 356.773 414.986 356.67 415.645 356.602C416.312 356.527 416.796 356.402 417.099 356.227C417.41 356.053 417.565 355.75 417.565 355.318V355.227C417.565 354.106 417.259 353.235 416.645 352.614C416.039 351.992 415.118 351.682 413.884 351.682C412.603 351.682 411.599 351.962 410.872 352.523C410.145 353.083 409.634 353.682 409.338 354.318L406.793 353.409C407.247 352.348 407.853 351.523 408.611 350.932C409.376 350.333 410.209 349.917 411.111 349.682C412.02 349.439 412.914 349.318 413.793 349.318C414.353 349.318 414.997 349.386 415.724 349.523C416.459 349.652 417.168 349.92 417.849 350.33C418.539 350.739 419.111 351.356 419.565 352.182C420.02 353.008 420.247 354.114 420.247 355.5V367H417.565V364.636H417.429C417.247 365.015 416.944 365.42 416.52 365.852C416.096 366.284 415.531 366.652 414.827 366.955C414.122 367.258 413.262 367.409 412.247 367.409ZM412.656 365C413.717 365 414.611 364.792 415.338 364.375C416.073 363.958 416.626 363.42 416.997 362.761C417.376 362.102 417.565 361.409 417.565 360.682V358.227C417.452 358.364 417.202 358.489 416.815 358.602C416.437 358.708 415.997 358.803 415.497 358.886C415.005 358.962 414.524 359.03 414.054 359.091C413.592 359.144 413.217 359.189 412.929 359.227C412.232 359.318 411.58 359.466 410.974 359.67C410.376 359.867 409.891 360.167 409.52 360.568C409.156 360.962 408.974 361.5 408.974 362.182C408.974 363.114 409.319 363.818 410.009 364.295C410.705 364.765 411.588 365 412.656 365ZM427.824 356.5V367H425.142V349.545H427.733V352.273H427.96C428.369 351.386 428.991 350.674 429.824 350.136C430.657 349.591 431.733 349.318 433.051 349.318C434.233 349.318 435.267 349.561 436.153 350.045C437.04 350.523 437.729 351.25 438.222 352.227C438.714 353.197 438.96 354.424 438.96 355.909V367H436.278V356.091C436.278 354.72 435.922 353.652 435.21 352.886C434.498 352.114 433.521 351.727 432.278 351.727C431.422 351.727 430.657 351.913 429.983 352.284C429.316 352.655 428.79 353.197 428.403 353.909C428.017 354.621 427.824 355.485 427.824 356.5ZM450.452 367.364C448.997 367.364 447.713 366.996 446.599 366.261C445.486 365.519 444.615 364.473 443.986 363.125C443.357 361.769 443.043 360.167 443.043 358.318C443.043 356.485 443.357 354.894 443.986 353.545C444.615 352.197 445.49 351.155 446.611 350.42C447.732 349.686 449.027 349.318 450.497 349.318C451.634 349.318 452.531 349.508 453.19 349.886C453.857 350.258 454.365 350.682 454.713 351.159C455.069 351.629 455.346 352.015 455.543 352.318H455.77V343.727H458.452V367H455.861V364.318H455.543C455.346 364.636 455.065 365.038 454.702 365.523C454.338 366 453.819 366.428 453.145 366.807C452.471 367.178 451.573 367.364 450.452 367.364ZM450.815 364.955C451.891 364.955 452.8 364.674 453.543 364.114C454.285 363.545 454.849 362.761 455.236 361.761C455.622 360.754 455.815 359.591 455.815 358.273C455.815 356.97 455.626 355.83 455.247 354.852C454.868 353.867 454.308 353.102 453.565 352.557C452.823 352.004 451.906 351.727 450.815 351.727C449.679 351.727 448.732 352.019 447.974 352.602C447.224 353.178 446.66 353.962 446.281 354.955C445.91 355.939 445.724 357.045 445.724 358.273C445.724 359.515 445.914 360.644 446.293 361.659C446.679 362.667 447.247 363.47 447.997 364.068C448.755 364.659 449.694 364.955 450.815 364.955ZM476.099 353.455L473.69 354.136C473.539 353.735 473.315 353.345 473.02 352.966C472.732 352.58 472.338 352.261 471.838 352.011C471.338 351.761 470.698 351.636 469.918 351.636C468.849 351.636 467.959 351.883 467.247 352.375C466.543 352.86 466.19 353.477 466.19 354.227C466.19 354.894 466.433 355.42 466.918 355.807C467.402 356.193 468.16 356.515 469.19 356.773L471.781 357.409C473.342 357.788 474.505 358.367 475.27 359.148C476.035 359.92 476.418 360.917 476.418 362.136C476.418 363.136 476.13 364.03 475.554 364.818C474.986 365.606 474.19 366.227 473.168 366.682C472.145 367.136 470.955 367.364 469.599 367.364C467.819 367.364 466.346 366.977 465.179 366.205C464.012 365.432 463.274 364.303 462.963 362.818L465.509 362.182C465.751 363.121 466.209 363.826 466.884 364.295C467.565 364.765 468.455 365 469.554 365C470.804 365 471.796 364.735 472.531 364.205C473.274 363.667 473.645 363.023 473.645 362.273C473.645 361.667 473.433 361.159 473.009 360.75C472.584 360.333 471.933 360.023 471.054 359.818L468.145 359.136C466.546 358.758 465.372 358.17 464.622 357.375C463.88 356.572 463.509 355.568 463.509 354.364C463.509 353.379 463.785 352.508 464.338 351.75C464.899 350.992 465.66 350.398 466.622 349.966C467.592 349.534 468.69 349.318 469.918 349.318C471.645 349.318 473.001 349.697 473.986 350.455C474.978 351.212 475.683 352.212 476.099 353.455ZM496.545 367.364C494.97 367.364 493.587 366.989 492.398 366.239C491.216 365.489 490.292 364.439 489.625 363.091C488.966 361.742 488.636 360.167 488.636 358.364C488.636 356.545 488.966 354.958 489.625 353.602C490.292 352.246 491.216 351.193 492.398 350.443C493.587 349.693 494.97 349.318 496.545 349.318C498.121 349.318 499.5 349.693 500.682 350.443C501.871 351.193 502.795 352.246 503.455 353.602C504.121 354.958 504.455 356.545 504.455 358.364C504.455 360.167 504.121 361.742 503.455 363.091C502.795 364.439 501.871 365.489 500.682 366.239C499.5 366.989 498.121 367.364 496.545 367.364ZM496.545 364.955C497.742 364.955 498.727 364.648 499.5 364.034C500.273 363.42 500.845 362.614 501.216 361.614C501.587 360.614 501.773 359.53 501.773 358.364C501.773 357.197 501.587 356.11 501.216 355.102C500.845 354.095 500.273 353.28 499.5 352.659C498.727 352.038 497.742 351.727 496.545 351.727C495.348 351.727 494.364 352.038 493.591 352.659C492.818 353.28 492.246 354.095 491.875 355.102C491.504 356.11 491.318 357.197 491.318 358.364C491.318 359.53 491.504 360.614 491.875 361.614C492.246 362.614 492.818 363.42 493.591 364.034C494.364 364.648 495.348 364.955 496.545 364.955ZM511.23 356.5V367H508.548V349.545H511.139V352.273H511.366C511.776 351.386 512.397 350.674 513.23 350.136C514.063 349.591 515.139 349.318 516.457 349.318C517.639 349.318 518.673 349.561 519.56 350.045C520.446 350.523 521.135 351.25 521.628 352.227C522.12 353.197 522.366 354.424 522.366 355.909V367H519.685V356.091C519.685 354.72 519.329 353.652 518.616 352.886C517.904 352.114 516.927 351.727 515.685 351.727C514.829 351.727 514.063 351.913 513.389 352.284C512.723 352.655 512.196 353.197 511.81 353.909C511.423 354.621 511.23 355.485 511.23 356.5ZM543.312 373.909C542.017 373.909 540.903 373.742 539.972 373.409C539.04 373.083 538.263 372.652 537.642 372.114C537.028 371.583 536.54 371.015 536.176 370.409L538.312 368.909C538.555 369.227 538.862 369.591 539.233 370C539.604 370.417 540.112 370.777 540.756 371.08C541.407 371.39 542.259 371.545 543.312 371.545C544.722 371.545 545.884 371.205 546.801 370.523C547.718 369.841 548.176 368.773 548.176 367.318V363.773H547.949C547.752 364.091 547.472 364.485 547.108 364.955C546.752 365.417 546.237 365.83 545.562 366.193C544.896 366.549 543.994 366.727 542.858 366.727C541.449 366.727 540.184 366.394 539.062 365.727C537.949 365.061 537.066 364.091 536.415 362.818C535.771 361.545 535.449 360 535.449 358.182C535.449 356.394 535.763 354.837 536.392 353.511C537.021 352.178 537.896 351.148 539.017 350.42C540.138 349.686 541.434 349.318 542.903 349.318C544.04 349.318 544.941 349.508 545.608 349.886C546.282 350.258 546.797 350.682 547.153 351.159C547.517 351.629 547.797 352.015 547.994 352.318H548.267V349.545H550.858V367.5C550.858 369 550.517 370.22 549.835 371.159C549.161 372.106 548.252 372.799 547.108 373.239C545.972 373.686 544.706 373.909 543.312 373.909ZM543.222 364.318C544.297 364.318 545.206 364.072 545.949 363.58C546.691 363.087 547.256 362.379 547.642 361.455C548.028 360.53 548.222 359.424 548.222 358.136C548.222 356.879 548.032 355.769 547.653 354.807C547.275 353.845 546.714 353.091 545.972 352.545C545.229 352 544.313 351.727 543.222 351.727C542.085 351.727 541.138 352.015 540.381 352.591C539.631 353.167 539.066 353.939 538.688 354.909C538.316 355.879 538.131 356.955 538.131 358.136C538.131 359.348 538.32 360.42 538.699 361.352C539.085 362.277 539.653 363.004 540.403 363.534C541.161 364.057 542.1 364.318 543.222 364.318ZM566.767 359.864V349.545H569.449V367H566.767V364.045H566.585C566.176 364.932 565.54 365.686 564.676 366.307C563.813 366.92 562.722 367.227 561.403 367.227C560.312 367.227 559.343 366.989 558.494 366.511C557.646 366.027 556.979 365.299 556.494 364.33C556.009 363.352 555.767 362.121 555.767 360.636V349.545H558.449V360.455C558.449 361.727 558.805 362.742 559.517 363.5C560.237 364.258 561.153 364.636 562.267 364.636C562.934 364.636 563.612 364.466 564.301 364.125C564.998 363.784 565.581 363.261 566.051 362.557C566.528 361.852 566.767 360.955 566.767 359.864ZM574.361 367V349.545H577.043V367H574.361ZM575.724 346.636C575.202 346.636 574.751 346.458 574.372 346.102C574.001 345.746 573.815 345.318 573.815 344.818C573.815 344.318 574.001 343.89 574.372 343.534C574.751 343.178 575.202 343 575.724 343C576.247 343 576.694 343.178 577.065 343.534C577.444 343.89 577.634 344.318 577.634 344.818C577.634 345.318 577.444 345.746 577.065 346.102C576.694 346.458 576.247 346.636 575.724 346.636ZM588.545 367.364C587.091 367.364 585.807 366.996 584.693 366.261C583.58 365.519 582.708 364.473 582.08 363.125C581.451 361.769 581.136 360.167 581.136 358.318C581.136 356.485 581.451 354.894 582.08 353.545C582.708 352.197 583.583 351.155 584.705 350.42C585.826 349.686 587.121 349.318 588.591 349.318C589.727 349.318 590.625 349.508 591.284 349.886C591.951 350.258 592.458 350.682 592.807 351.159C593.163 351.629 593.439 352.015 593.636 352.318H593.864V343.727H596.545V367H593.955V364.318H593.636C593.439 364.636 593.159 365.038 592.795 365.523C592.432 366 591.913 366.428 591.239 366.807C590.564 367.178 589.667 367.364 588.545 367.364ZM588.909 364.955C589.985 364.955 590.894 364.674 591.636 364.114C592.379 363.545 592.943 362.761 593.33 361.761C593.716 360.754 593.909 359.591 593.909 358.273C593.909 356.97 593.72 355.83 593.341 354.852C592.962 353.867 592.402 353.102 591.659 352.557C590.917 352.004 590 351.727 588.909 351.727C587.773 351.727 586.826 352.019 586.068 352.602C585.318 353.178 584.754 353.962 584.375 354.955C584.004 355.939 583.818 357.045 583.818 358.273C583.818 359.515 584.008 360.644 584.386 361.659C584.773 362.667 585.341 363.47 586.091 364.068C586.848 364.659 587.788 364.955 588.909 364.955ZM609.148 367.364C607.466 367.364 606.015 366.992 604.795 366.25C603.583 365.5 602.648 364.455 601.989 363.114C601.337 361.765 601.011 360.197 601.011 358.409C601.011 356.621 601.337 355.045 601.989 353.682C602.648 352.311 603.564 351.242 604.739 350.477C605.92 349.705 607.299 349.318 608.875 349.318C609.784 349.318 610.682 349.47 611.568 349.773C612.455 350.076 613.261 350.568 613.989 351.25C614.716 351.924 615.295 352.818 615.727 353.932C616.159 355.045 616.375 356.417 616.375 358.045V359.182H602.92V356.864H613.648C613.648 355.879 613.451 355 613.057 354.227C612.67 353.455 612.117 352.845 611.398 352.398C610.686 351.951 609.845 351.727 608.875 351.727C607.807 351.727 606.883 351.992 606.102 352.523C605.33 353.045 604.735 353.727 604.318 354.568C603.902 355.409 603.693 356.311 603.693 357.273V358.818C603.693 360.136 603.92 361.254 604.375 362.17C604.837 363.08 605.477 363.773 606.295 364.25C607.114 364.72 608.064 364.955 609.148 364.955C609.852 364.955 610.489 364.856 611.057 364.659C611.633 364.455 612.129 364.152 612.545 363.75C612.962 363.341 613.284 362.833 613.511 362.227L616.102 362.955C615.83 363.833 615.371 364.606 614.727 365.273C614.083 365.932 613.288 366.447 612.341 366.818C611.394 367.182 610.33 367.364 609.148 367.364ZM637.045 349.545V351.818H628V349.545H637.045ZM630.636 345.364H633.318V362C633.318 362.758 633.428 363.326 633.648 363.705C633.875 364.076 634.163 364.326 634.511 364.455C634.867 364.576 635.242 364.636 635.636 364.636C635.932 364.636 636.174 364.621 636.364 364.591C636.553 364.553 636.705 364.523 636.818 364.5L637.364 366.909C637.182 366.977 636.928 367.045 636.602 367.114C636.277 367.189 635.864 367.227 635.364 367.227C634.606 367.227 633.864 367.064 633.136 366.739C632.417 366.413 631.818 365.917 631.341 365.25C630.871 364.583 630.636 363.742 630.636 362.727V345.364ZM647.983 367.364C646.407 367.364 645.025 366.989 643.835 366.239C642.653 365.489 641.729 364.439 641.062 363.091C640.403 361.742 640.074 360.167 640.074 358.364C640.074 356.545 640.403 354.958 641.062 353.602C641.729 352.246 642.653 351.193 643.835 350.443C645.025 349.693 646.407 349.318 647.983 349.318C649.559 349.318 650.938 349.693 652.119 350.443C653.309 351.193 654.233 352.246 654.892 353.602C655.559 354.958 655.892 356.545 655.892 358.364C655.892 360.167 655.559 361.742 654.892 363.091C654.233 364.439 653.309 365.489 652.119 366.239C650.938 366.989 649.559 367.364 647.983 367.364ZM647.983 364.955C649.18 364.955 650.165 364.648 650.938 364.034C651.71 363.42 652.282 362.614 652.653 361.614C653.025 360.614 653.21 359.53 653.21 358.364C653.21 357.197 653.025 356.11 652.653 355.102C652.282 354.095 651.71 353.28 650.938 352.659C650.165 352.038 649.18 351.727 647.983 351.727C646.786 351.727 645.801 352.038 645.028 352.659C644.256 353.28 643.684 354.095 643.312 355.102C642.941 356.11 642.756 357.197 642.756 358.364C642.756 359.53 642.941 360.614 643.312 361.614C643.684 362.614 644.256 363.42 645.028 364.034C645.801 364.648 646.786 364.955 647.983 364.955ZM96.7273 391.545L90.2727 409H87.5455L81.0909 391.545H84L88.8182 405.455H89L93.8182 391.545H96.7273ZM100.267 409V391.545H102.949V409H100.267ZM101.631 388.636C101.108 388.636 100.657 388.458 100.278 388.102C99.9072 387.746 99.7216 387.318 99.7216 386.818C99.7216 386.318 99.9072 385.89 100.278 385.534C100.657 385.178 101.108 385 101.631 385C102.153 385 102.6 385.178 102.972 385.534C103.35 385.89 103.54 386.318 103.54 386.818C103.54 387.318 103.35 387.746 102.972 388.102C102.6 388.458 102.153 388.636 101.631 388.636ZM120.224 395.455L117.815 396.136C117.664 395.735 117.44 395.345 117.145 394.966C116.857 394.58 116.463 394.261 115.963 394.011C115.463 393.761 114.823 393.636 114.043 393.636C112.974 393.636 112.084 393.883 111.372 394.375C110.668 394.86 110.315 395.477 110.315 396.227C110.315 396.894 110.558 397.42 111.043 397.807C111.527 398.193 112.285 398.515 113.315 398.773L115.906 399.409C117.467 399.788 118.63 400.367 119.395 401.148C120.16 401.92 120.543 402.917 120.543 404.136C120.543 405.136 120.255 406.03 119.679 406.818C119.111 407.606 118.315 408.227 117.293 408.682C116.27 409.136 115.08 409.364 113.724 409.364C111.944 409.364 110.471 408.977 109.304 408.205C108.137 407.432 107.399 406.303 107.088 404.818L109.634 404.182C109.876 405.121 110.334 405.826 111.009 406.295C111.69 406.765 112.58 407 113.679 407C114.929 407 115.921 406.735 116.656 406.205C117.399 405.667 117.77 405.023 117.77 404.273C117.77 403.667 117.558 403.159 117.134 402.75C116.709 402.333 116.058 402.023 115.179 401.818L112.27 401.136C110.671 400.758 109.497 400.17 108.747 399.375C108.005 398.572 107.634 397.568 107.634 396.364C107.634 395.379 107.91 394.508 108.463 393.75C109.024 392.992 109.785 392.398 110.747 391.966C111.717 391.534 112.815 391.318 114.043 391.318C115.77 391.318 117.126 391.697 118.111 392.455C119.103 393.212 119.808 394.212 120.224 395.455ZM135.58 401.864V391.545H138.261V409H135.58V406.045H135.398C134.989 406.932 134.352 407.686 133.489 408.307C132.625 408.92 131.534 409.227 130.216 409.227C129.125 409.227 128.155 408.989 127.307 408.511C126.458 408.027 125.792 407.299 125.307 406.33C124.822 405.352 124.58 404.121 124.58 402.636V391.545H127.261V402.455C127.261 403.727 127.617 404.742 128.33 405.5C129.049 406.258 129.966 406.636 131.08 406.636C131.746 406.636 132.424 406.466 133.114 406.125C133.811 405.784 134.394 405.261 134.864 404.557C135.341 403.852 135.58 402.955 135.58 401.864ZM148.31 409.409C147.204 409.409 146.2 409.201 145.298 408.784C144.397 408.36 143.681 407.75 143.151 406.955C142.62 406.152 142.355 405.182 142.355 404.045C142.355 403.045 142.552 402.235 142.946 401.614C143.34 400.985 143.866 400.492 144.526 400.136C145.185 399.78 145.912 399.515 146.707 399.341C147.51 399.159 148.317 399.015 149.128 398.909C150.188 398.773 151.048 398.67 151.707 398.602C152.374 398.527 152.859 398.402 153.162 398.227C153.473 398.053 153.628 397.75 153.628 397.318V397.227C153.628 396.106 153.321 395.235 152.707 394.614C152.101 393.992 151.181 393.682 149.946 393.682C148.666 393.682 147.662 393.962 146.935 394.523C146.207 395.083 145.696 395.682 145.401 396.318L142.855 395.409C143.31 394.348 143.916 393.523 144.673 392.932C145.438 392.333 146.272 391.917 147.173 391.682C148.082 391.439 148.976 391.318 149.855 391.318C150.416 391.318 151.06 391.386 151.787 391.523C152.522 391.652 153.23 391.92 153.912 392.33C154.601 392.739 155.173 393.356 155.628 394.182C156.082 395.008 156.31 396.114 156.31 397.5V409H153.628V406.636H153.491C153.31 407.015 153.007 407.42 152.582 407.852C152.158 408.284 151.594 408.652 150.889 408.955C150.185 409.258 149.325 409.409 148.31 409.409ZM148.719 407C149.779 407 150.673 406.792 151.401 406.375C152.135 405.958 152.688 405.42 153.06 404.761C153.438 404.102 153.628 403.409 153.628 402.682V400.227C153.514 400.364 153.264 400.489 152.878 400.602C152.499 400.708 152.06 400.803 151.56 400.886C151.067 400.962 150.586 401.03 150.116 401.091C149.654 401.144 149.279 401.189 148.991 401.227C148.295 401.318 147.643 401.466 147.037 401.67C146.438 401.867 145.954 402.167 145.582 402.568C145.219 402.962 145.037 403.5 145.037 404.182C145.037 405.114 145.382 405.818 146.071 406.295C146.768 406.765 147.651 407 148.719 407ZM163.886 385.727V409H161.205V385.727H163.886ZM184.389 409.364C182.935 409.364 181.651 408.996 180.537 408.261C179.423 407.519 178.552 406.473 177.923 405.125C177.295 403.769 176.98 402.167 176.98 400.318C176.98 398.485 177.295 396.894 177.923 395.545C178.552 394.197 179.427 393.155 180.548 392.42C181.67 391.686 182.965 391.318 184.435 391.318C185.571 391.318 186.469 391.508 187.128 391.886C187.795 392.258 188.302 392.682 188.651 393.159C189.007 393.629 189.283 394.015 189.48 394.318H189.707V385.727H192.389V409H189.798V406.318H189.48C189.283 406.636 189.003 407.038 188.639 407.523C188.276 408 187.757 408.428 187.082 408.807C186.408 409.178 185.51 409.364 184.389 409.364ZM184.753 406.955C185.829 406.955 186.738 406.674 187.48 406.114C188.223 405.545 188.787 404.761 189.173 403.761C189.56 402.754 189.753 401.591 189.753 400.273C189.753 398.97 189.563 397.83 189.185 396.852C188.806 395.867 188.245 395.102 187.503 394.557C186.76 394.004 185.844 393.727 184.753 393.727C183.616 393.727 182.67 394.019 181.912 394.602C181.162 395.178 180.598 395.962 180.219 396.955C179.848 397.939 179.662 399.045 179.662 400.273C179.662 401.515 179.851 402.644 180.23 403.659C180.616 404.667 181.185 405.47 181.935 406.068C182.692 406.659 183.632 406.955 184.753 406.955ZM204.991 409.364C203.31 409.364 201.859 408.992 200.639 408.25C199.427 407.5 198.491 406.455 197.832 405.114C197.181 403.765 196.855 402.197 196.855 400.409C196.855 398.621 197.181 397.045 197.832 395.682C198.491 394.311 199.408 393.242 200.582 392.477C201.764 391.705 203.143 391.318 204.719 391.318C205.628 391.318 206.526 391.47 207.412 391.773C208.298 392.076 209.105 392.568 209.832 393.25C210.56 393.924 211.139 394.818 211.571 395.932C212.003 397.045 212.219 398.417 212.219 400.045V401.182H198.764V398.864H209.491C209.491 397.879 209.295 397 208.901 396.227C208.514 395.455 207.961 394.845 207.241 394.398C206.529 393.951 205.688 393.727 204.719 393.727C203.651 393.727 202.726 393.992 201.946 394.523C201.173 395.045 200.579 395.727 200.162 396.568C199.745 397.409 199.537 398.311 199.537 399.273V400.818C199.537 402.136 199.764 403.254 200.219 404.17C200.681 405.08 201.321 405.773 202.139 406.25C202.957 406.72 203.908 406.955 204.991 406.955C205.696 406.955 206.332 406.856 206.901 406.659C207.476 406.455 207.973 406.152 208.389 405.75C208.806 405.341 209.128 404.833 209.355 404.227L211.946 404.955C211.673 405.833 211.215 406.606 210.571 407.273C209.927 407.932 209.132 408.447 208.185 408.818C207.238 409.182 206.173 409.364 204.991 409.364ZM228.662 395.455L226.253 396.136C226.101 395.735 225.878 395.345 225.582 394.966C225.295 394.58 224.901 394.261 224.401 394.011C223.901 393.761 223.26 393.636 222.48 393.636C221.412 393.636 220.522 393.883 219.81 394.375C219.105 394.86 218.753 395.477 218.753 396.227C218.753 396.894 218.995 397.42 219.48 397.807C219.965 398.193 220.723 398.515 221.753 398.773L224.344 399.409C225.904 399.788 227.067 400.367 227.832 401.148C228.598 401.92 228.98 402.917 228.98 404.136C228.98 405.136 228.692 406.03 228.116 406.818C227.548 407.606 226.753 408.227 225.73 408.682C224.707 409.136 223.518 409.364 222.162 409.364C220.382 409.364 218.908 408.977 217.741 408.205C216.575 407.432 215.836 406.303 215.526 404.818L218.071 404.182C218.313 405.121 218.772 405.826 219.446 406.295C220.128 406.765 221.018 407 222.116 407C223.366 407 224.359 406.735 225.094 406.205C225.836 405.667 226.207 405.023 226.207 404.273C226.207 403.667 225.995 403.159 225.571 402.75C225.147 402.333 224.495 402.023 223.616 401.818L220.707 401.136C219.109 400.758 217.935 400.17 217.185 399.375C216.442 398.572 216.071 397.568 216.071 396.364C216.071 395.379 216.348 394.508 216.901 393.75C217.461 392.992 218.223 392.398 219.185 391.966C220.154 391.534 221.253 391.318 222.48 391.318C224.207 391.318 225.563 391.697 226.548 392.455C227.541 393.212 228.245 394.212 228.662 395.455ZM233.017 409V391.545H235.699V409H233.017ZM234.381 388.636C233.858 388.636 233.407 388.458 233.028 388.102C232.657 387.746 232.472 387.318 232.472 386.818C232.472 386.318 232.657 385.89 233.028 385.534C233.407 385.178 233.858 385 234.381 385C234.903 385 235.35 385.178 235.722 385.534C236.1 385.89 236.29 386.318 236.29 386.818C236.29 387.318 236.1 387.746 235.722 388.102C235.35 388.458 234.903 388.636 234.381 388.636ZM247.656 415.909C246.361 415.909 245.247 415.742 244.315 415.409C243.384 415.083 242.607 414.652 241.986 414.114C241.372 413.583 240.884 413.015 240.52 412.409L242.656 410.909C242.899 411.227 243.205 411.591 243.577 412C243.948 412.417 244.455 412.777 245.099 413.08C245.751 413.39 246.603 413.545 247.656 413.545C249.065 413.545 250.228 413.205 251.145 412.523C252.062 411.841 252.52 410.773 252.52 409.318V405.773H252.293C252.096 406.091 251.815 406.485 251.452 406.955C251.096 407.417 250.58 407.83 249.906 408.193C249.24 408.549 248.338 408.727 247.202 408.727C245.793 408.727 244.527 408.394 243.406 407.727C242.293 407.061 241.41 406.091 240.759 404.818C240.115 403.545 239.793 402 239.793 400.182C239.793 398.394 240.107 396.837 240.736 395.511C241.365 394.178 242.24 393.148 243.361 392.42C244.482 391.686 245.777 391.318 247.247 391.318C248.384 391.318 249.285 391.508 249.952 391.886C250.626 392.258 251.141 392.682 251.497 393.159C251.861 393.629 252.141 394.015 252.338 394.318H252.611V391.545H255.202V409.5C255.202 411 254.861 412.22 254.179 413.159C253.505 414.106 252.596 414.799 251.452 415.239C250.315 415.686 249.05 415.909 247.656 415.909ZM247.565 406.318C248.641 406.318 249.55 406.072 250.293 405.58C251.035 405.087 251.599 404.379 251.986 403.455C252.372 402.53 252.565 401.424 252.565 400.136C252.565 398.879 252.376 397.769 251.997 396.807C251.618 395.845 251.058 395.091 250.315 394.545C249.573 394 248.656 393.727 247.565 393.727C246.429 393.727 245.482 394.015 244.724 394.591C243.974 395.167 243.41 395.939 243.031 396.909C242.66 397.879 242.474 398.955 242.474 400.136C242.474 401.348 242.664 402.42 243.043 403.352C243.429 404.277 243.997 405.004 244.747 405.534C245.505 406.057 246.444 406.318 247.565 406.318ZM262.793 398.5V409H260.111V391.545H262.702V394.273H262.929C263.338 393.386 263.959 392.674 264.793 392.136C265.626 391.591 266.702 391.318 268.02 391.318C269.202 391.318 270.236 391.561 271.122 392.045C272.009 392.523 272.698 393.25 273.19 394.227C273.683 395.197 273.929 396.424 273.929 397.909V409H271.247V398.091C271.247 396.72 270.891 395.652 270.179 394.886C269.467 394.114 268.49 393.727 267.247 393.727C266.391 393.727 265.626 393.913 264.952 394.284C264.285 394.655 263.759 395.197 263.372 395.909C262.986 396.621 262.793 397.485 262.793 398.5ZM295.602 391.545V393.818H286.193V391.545H295.602ZM289.011 409V389.136C289.011 388.136 289.246 387.303 289.716 386.636C290.186 385.97 290.795 385.47 291.545 385.136C292.295 384.803 293.087 384.636 293.92 384.636C294.58 384.636 295.117 384.689 295.534 384.795C295.951 384.902 296.261 385 296.466 385.091L295.693 387.409C295.557 387.364 295.367 387.307 295.125 387.239C294.89 387.17 294.58 387.136 294.193 387.136C293.307 387.136 292.667 387.36 292.273 387.807C291.886 388.254 291.693 388.909 291.693 389.773V409H289.011ZM305.733 409.364C304.157 409.364 302.775 408.989 301.585 408.239C300.403 407.489 299.479 406.439 298.812 405.091C298.153 403.742 297.824 402.167 297.824 400.364C297.824 398.545 298.153 396.958 298.812 395.602C299.479 394.246 300.403 393.193 301.585 392.443C302.775 391.693 304.157 391.318 305.733 391.318C307.309 391.318 308.688 391.693 309.869 392.443C311.059 393.193 311.983 394.246 312.642 395.602C313.309 396.958 313.642 398.545 313.642 400.364C313.642 402.167 313.309 403.742 312.642 405.091C311.983 406.439 311.059 407.489 309.869 408.239C308.688 408.989 307.309 409.364 305.733 409.364ZM305.733 406.955C306.93 406.955 307.915 406.648 308.688 406.034C309.46 405.42 310.032 404.614 310.403 403.614C310.775 402.614 310.96 401.53 310.96 400.364C310.96 399.197 310.775 398.11 310.403 397.102C310.032 396.095 309.46 395.28 308.688 394.659C307.915 394.038 306.93 393.727 305.733 393.727C304.536 393.727 303.551 394.038 302.778 394.659C302.006 395.28 301.434 396.095 301.062 397.102C300.691 398.11 300.506 399.197 300.506 400.364C300.506 401.53 300.691 402.614 301.062 403.614C301.434 404.614 302.006 405.42 302.778 406.034C303.551 406.648 304.536 406.955 305.733 406.955ZM317.736 409V391.545H320.327V394.182H320.509C320.827 393.318 321.402 392.617 322.236 392.08C323.069 391.542 324.009 391.273 325.054 391.273C325.251 391.273 325.497 391.277 325.793 391.284C326.088 391.292 326.312 391.303 326.463 391.318V394.045C326.372 394.023 326.164 393.989 325.838 393.943C325.52 393.89 325.183 393.864 324.827 393.864C323.978 393.864 323.221 394.042 322.554 394.398C321.895 394.746 321.372 395.231 320.986 395.852C320.607 396.466 320.418 397.167 320.418 397.955V409H317.736ZM351.006 395.455L348.597 396.136C348.445 395.735 348.222 395.345 347.926 394.966C347.638 394.58 347.244 394.261 346.744 394.011C346.244 393.761 345.604 393.636 344.824 393.636C343.756 393.636 342.866 393.883 342.153 394.375C341.449 394.86 341.097 395.477 341.097 396.227C341.097 396.894 341.339 397.42 341.824 397.807C342.309 398.193 343.066 398.515 344.097 398.773L346.688 399.409C348.248 399.788 349.411 400.367 350.176 401.148C350.941 401.92 351.324 402.917 351.324 404.136C351.324 405.136 351.036 406.03 350.46 406.818C349.892 407.606 349.097 408.227 348.074 408.682C347.051 409.136 345.862 409.364 344.506 409.364C342.725 409.364 341.252 408.977 340.085 408.205C338.919 407.432 338.18 406.303 337.869 404.818L340.415 404.182C340.657 405.121 341.116 405.826 341.79 406.295C342.472 406.765 343.362 407 344.46 407C345.71 407 346.703 406.735 347.438 406.205C348.18 405.667 348.551 405.023 348.551 404.273C348.551 403.667 348.339 403.159 347.915 402.75C347.491 402.333 346.839 402.023 345.96 401.818L343.051 401.136C341.453 400.758 340.278 400.17 339.528 399.375C338.786 398.572 338.415 397.568 338.415 396.364C338.415 395.379 338.691 394.508 339.244 393.75C339.805 392.992 340.566 392.398 341.528 391.966C342.498 391.534 343.597 391.318 344.824 391.318C346.551 391.318 347.907 391.697 348.892 392.455C349.884 393.212 350.589 394.212 351.006 395.455ZM362.452 409.364C360.815 409.364 359.406 408.977 358.224 408.205C357.043 407.432 356.134 406.367 355.497 405.011C354.861 403.655 354.543 402.106 354.543 400.364C354.543 398.591 354.868 397.027 355.52 395.67C356.179 394.307 357.096 393.242 358.27 392.477C359.452 391.705 360.83 391.318 362.406 391.318C363.634 391.318 364.74 391.545 365.724 392C366.709 392.455 367.516 393.091 368.145 393.909C368.774 394.727 369.164 395.682 369.315 396.773H366.634C366.429 395.977 365.974 395.273 365.27 394.659C364.573 394.038 363.634 393.727 362.452 393.727C361.406 393.727 360.49 394 359.702 394.545C358.921 395.083 358.312 395.845 357.872 396.83C357.44 397.807 357.224 398.955 357.224 400.273C357.224 401.621 357.437 402.795 357.861 403.795C358.293 404.795 358.899 405.572 359.679 406.125C360.467 406.678 361.391 406.955 362.452 406.955C363.149 406.955 363.781 406.833 364.349 406.591C364.918 406.348 365.399 406 365.793 405.545C366.187 405.091 366.467 404.545 366.634 403.909H369.315C369.164 404.939 368.789 405.867 368.19 406.693C367.599 407.511 366.815 408.163 365.838 408.648C364.868 409.125 363.74 409.364 362.452 409.364ZM373.236 409V391.545H375.918V409H373.236ZM374.599 388.636C374.077 388.636 373.626 388.458 373.247 388.102C372.876 387.746 372.69 387.318 372.69 386.818C372.69 386.318 372.876 385.89 373.247 385.534C373.626 385.178 374.077 385 374.599 385C375.122 385 375.569 385.178 375.94 385.534C376.319 385.89 376.509 386.318 376.509 386.818C376.509 387.318 376.319 387.746 375.94 388.102C375.569 388.458 375.122 388.636 374.599 388.636ZM388.148 409.364C386.466 409.364 385.015 408.992 383.795 408.25C382.583 407.5 381.648 406.455 380.989 405.114C380.337 403.765 380.011 402.197 380.011 400.409C380.011 398.621 380.337 397.045 380.989 395.682C381.648 394.311 382.564 393.242 383.739 392.477C384.92 391.705 386.299 391.318 387.875 391.318C388.784 391.318 389.682 391.47 390.568 391.773C391.455 392.076 392.261 392.568 392.989 393.25C393.716 393.924 394.295 394.818 394.727 395.932C395.159 397.045 395.375 398.417 395.375 400.045V401.182H381.92V398.864H392.648C392.648 397.879 392.451 397 392.057 396.227C391.67 395.455 391.117 394.845 390.398 394.398C389.686 393.951 388.845 393.727 387.875 393.727C386.807 393.727 385.883 393.992 385.102 394.523C384.33 395.045 383.735 395.727 383.318 396.568C382.902 397.409 382.693 398.311 382.693 399.273V400.818C382.693 402.136 382.92 403.254 383.375 404.17C383.837 405.08 384.477 405.773 385.295 406.25C386.114 406.72 387.064 406.955 388.148 406.955C388.852 406.955 389.489 406.856 390.057 406.659C390.633 406.455 391.129 406.152 391.545 405.75C391.962 405.341 392.284 404.833 392.511 404.227L395.102 404.955C394.83 405.833 394.371 406.606 393.727 407.273C393.083 407.932 392.288 408.447 391.341 408.818C390.394 409.182 389.33 409.364 388.148 409.364ZM402.136 398.5V409H399.455V391.545H402.045V394.273H402.273C402.682 393.386 403.303 392.674 404.136 392.136C404.97 391.591 406.045 391.318 407.364 391.318C408.545 391.318 409.58 391.561 410.466 392.045C411.352 392.523 412.042 393.25 412.534 394.227C413.027 395.197 413.273 396.424 413.273 397.909V409H410.591V398.091C410.591 396.72 410.235 395.652 409.523 394.886C408.811 394.114 407.833 393.727 406.591 393.727C405.735 393.727 404.97 393.913 404.295 394.284C403.629 394.655 403.102 395.197 402.716 395.909C402.33 396.621 402.136 397.485 402.136 398.5ZM425.764 391.545V393.818H416.719V391.545H425.764ZM419.355 387.364H422.037V404C422.037 404.758 422.147 405.326 422.366 405.705C422.594 406.076 422.882 406.326 423.23 406.455C423.586 406.576 423.961 406.636 424.355 406.636C424.651 406.636 424.893 406.621 425.082 406.591C425.272 406.553 425.423 406.523 425.537 406.5L426.082 408.909C425.901 408.977 425.647 409.045 425.321 409.114C424.995 409.189 424.582 409.227 424.082 409.227C423.325 409.227 422.582 409.064 421.855 408.739C421.135 408.413 420.537 407.917 420.06 407.25C419.59 406.583 419.355 405.742 419.355 404.727V387.364ZM429.798 409V391.545H432.48V409H429.798ZM431.162 388.636C430.639 388.636 430.188 388.458 429.81 388.102C429.438 387.746 429.253 387.318 429.253 386.818C429.253 386.318 429.438 385.89 429.81 385.534C430.188 385.178 430.639 385 431.162 385C431.685 385 432.132 385.178 432.503 385.534C432.882 385.89 433.071 386.318 433.071 386.818C433.071 387.318 432.882 387.746 432.503 388.102C432.132 388.458 431.685 388.636 431.162 388.636ZM449.756 395.455L447.347 396.136C447.195 395.735 446.972 395.345 446.676 394.966C446.388 394.58 445.994 394.261 445.494 394.011C444.994 393.761 444.354 393.636 443.574 393.636C442.506 393.636 441.616 393.883 440.903 394.375C440.199 394.86 439.847 395.477 439.847 396.227C439.847 396.894 440.089 397.42 440.574 397.807C441.059 398.193 441.816 398.515 442.847 398.773L445.438 399.409C446.998 399.788 448.161 400.367 448.926 401.148C449.691 401.92 450.074 402.917 450.074 404.136C450.074 405.136 449.786 406.03 449.21 406.818C448.642 407.606 447.847 408.227 446.824 408.682C445.801 409.136 444.612 409.364 443.256 409.364C441.475 409.364 440.002 408.977 438.835 408.205C437.669 407.432 436.93 406.303 436.619 404.818L439.165 404.182C439.407 405.121 439.866 405.826 440.54 406.295C441.222 406.765 442.112 407 443.21 407C444.46 407 445.453 406.735 446.188 406.205C446.93 405.667 447.301 405.023 447.301 404.273C447.301 403.667 447.089 403.159 446.665 402.75C446.241 402.333 445.589 402.023 444.71 401.818L441.801 401.136C440.203 400.758 439.028 400.17 438.278 399.375C437.536 398.572 437.165 397.568 437.165 396.364C437.165 395.379 437.441 394.508 437.994 393.75C438.555 392.992 439.316 392.398 440.278 391.966C441.248 391.534 442.347 391.318 443.574 391.318C445.301 391.318 446.657 391.697 447.642 392.455C448.634 393.212 449.339 394.212 449.756 395.455ZM461.702 391.545V393.818H452.656V391.545H461.702ZM455.293 387.364H457.974V404C457.974 404.758 458.084 405.326 458.304 405.705C458.531 406.076 458.819 406.326 459.168 406.455C459.524 406.576 459.899 406.636 460.293 406.636C460.588 406.636 460.83 406.621 461.02 406.591C461.209 406.553 461.361 406.523 461.474 406.5L462.02 408.909C461.838 408.977 461.584 409.045 461.259 409.114C460.933 409.189 460.52 409.227 460.02 409.227C459.262 409.227 458.52 409.064 457.793 408.739C457.073 408.413 456.474 407.917 455.997 407.25C455.527 406.583 455.293 405.742 455.293 404.727V387.364ZM477.787 395.455L475.378 396.136C475.226 395.735 475.003 395.345 474.707 394.966C474.42 394.58 474.026 394.261 473.526 394.011C473.026 393.761 472.385 393.636 471.605 393.636C470.537 393.636 469.647 393.883 468.935 394.375C468.23 394.86 467.878 395.477 467.878 396.227C467.878 396.894 468.12 397.42 468.605 397.807C469.09 398.193 469.848 398.515 470.878 398.773L473.469 399.409C475.029 399.788 476.192 400.367 476.957 401.148C477.723 401.92 478.105 402.917 478.105 404.136C478.105 405.136 477.817 406.03 477.241 406.818C476.673 407.606 475.878 408.227 474.855 408.682C473.832 409.136 472.643 409.364 471.287 409.364C469.507 409.364 468.033 408.977 466.866 408.205C465.7 407.432 464.961 406.303 464.651 404.818L467.196 404.182C467.438 405.121 467.897 405.826 468.571 406.295C469.253 406.765 470.143 407 471.241 407C472.491 407 473.484 406.735 474.219 406.205C474.961 405.667 475.332 405.023 475.332 404.273C475.332 403.667 475.12 403.159 474.696 402.75C474.272 402.333 473.62 402.023 472.741 401.818L469.832 401.136C468.234 400.758 467.06 400.17 466.31 399.375C465.567 398.572 465.196 397.568 465.196 396.364C465.196 395.379 465.473 394.508 466.026 393.75C466.586 392.992 467.348 392.398 468.31 391.966C469.279 391.534 470.378 391.318 471.605 391.318C473.332 391.318 474.688 391.697 475.673 392.455C476.666 393.212 477.37 394.212 477.787 395.455ZM484.097 409.182C483.536 409.182 483.055 408.981 482.653 408.58C482.252 408.178 482.051 407.697 482.051 407.136C482.051 406.576 482.252 406.095 482.653 405.693C483.055 405.292 483.536 405.091 484.097 405.091C484.657 405.091 485.138 405.292 485.54 405.693C485.941 406.095 486.142 406.576 486.142 407.136C486.142 407.508 486.047 407.848 485.858 408.159C485.676 408.47 485.43 408.72 485.119 408.909C484.816 409.091 484.475 409.182 484.097 409.182Z" fill="#616161"/>
</svg>
