<svg width="800" height="600" viewBox="0 0 800 600" fill="none" xmlns="http://www.w3.org/2000/svg">
<rect width="800" height="600" fill="url(#paint0_linear_58_1247)"/>
<path d="M105.682 189H85.0568V130.818H105.852C111.705 130.818 116.742 131.983 120.966 134.312C125.189 136.623 128.438 139.947 130.71 144.284C133.002 148.621 134.148 153.811 134.148 159.852C134.148 165.913 133.002 171.121 130.71 175.477C128.438 179.833 125.17 183.176 120.909 185.506C116.667 187.835 111.591 189 105.682 189ZM97.358 178.46H105.17C108.807 178.46 111.866 177.816 114.347 176.528C116.847 175.222 118.722 173.205 119.972 170.477C121.241 167.731 121.875 164.189 121.875 159.852C121.875 155.553 121.241 152.04 119.972 149.312C118.722 146.585 116.856 144.578 114.375 143.29C111.894 142.002 108.835 141.358 105.199 141.358H97.358V178.46ZM162.919 189.852C158.43 189.852 154.567 188.943 151.328 187.125C148.108 185.288 145.627 182.693 143.885 179.341C142.143 175.97 141.271 171.983 141.271 167.381C141.271 162.892 142.143 158.953 143.885 155.562C145.627 152.172 148.08 149.53 151.243 147.636C154.425 145.742 158.156 144.795 162.436 144.795C165.315 144.795 167.995 145.259 170.476 146.188C172.976 147.097 175.154 148.47 177.01 150.307C178.885 152.144 180.343 154.455 181.385 157.239C182.427 160.004 182.947 163.242 182.947 166.955V170.278H146.101V162.778H171.555C171.555 161.036 171.177 159.492 170.419 158.148C169.661 156.803 168.61 155.752 167.266 154.994C165.94 154.218 164.396 153.83 162.635 153.83C160.798 153.83 159.169 154.256 157.749 155.108C156.347 155.941 155.249 157.068 154.453 158.489C153.658 159.89 153.25 161.453 153.232 163.176V170.307C153.232 172.466 153.629 174.331 154.425 175.903C155.239 177.475 156.385 178.688 157.862 179.54C159.339 180.392 161.091 180.818 163.118 180.818C164.463 180.818 165.694 180.629 166.811 180.25C167.929 179.871 168.885 179.303 169.68 178.545C170.476 177.788 171.082 176.86 171.499 175.761L182.692 176.5C182.124 179.189 180.959 181.538 179.197 183.545C177.455 185.534 175.201 187.087 172.436 188.205C169.69 189.303 166.518 189.852 162.919 189.852ZM227.152 157.807L216.072 158.489C215.883 157.542 215.476 156.689 214.851 155.932C214.226 155.155 213.402 154.54 212.379 154.085C211.375 153.612 210.173 153.375 208.771 153.375C206.896 153.375 205.315 153.773 204.027 154.568C202.739 155.345 202.095 156.386 202.095 157.693C202.095 158.735 202.512 159.616 203.345 160.335C204.179 161.055 205.608 161.633 207.635 162.068L215.533 163.659C219.775 164.53 222.938 165.932 225.021 167.864C227.105 169.795 228.146 172.333 228.146 175.477C228.146 178.337 227.304 180.847 225.618 183.006C223.951 185.165 221.66 186.85 218.743 188.062C215.845 189.256 212.502 189.852 208.714 189.852C202.938 189.852 198.336 188.65 194.908 186.244C191.499 183.82 189.5 180.525 188.913 176.358L200.817 175.733C201.177 177.494 202.048 178.839 203.43 179.767C204.813 180.676 206.584 181.131 208.743 181.131C210.864 181.131 212.569 180.723 213.857 179.909C215.163 179.076 215.826 178.006 215.845 176.699C215.826 175.6 215.362 174.701 214.453 174C213.544 173.28 212.143 172.731 210.249 172.352L202.692 170.847C198.43 169.994 195.258 168.517 193.175 166.415C191.11 164.312 190.078 161.633 190.078 158.375C190.078 155.572 190.836 153.157 192.351 151.131C193.885 149.104 196.035 147.542 198.8 146.443C201.584 145.345 204.841 144.795 208.572 144.795C214.084 144.795 218.421 145.96 221.584 148.29C224.766 150.619 226.622 153.792 227.152 157.807ZM235.767 189V145.364H247.869V189H235.767ZM241.847 139.739C240.047 139.739 238.504 139.142 237.216 137.949C235.947 136.737 235.312 135.288 235.312 133.602C235.312 131.936 235.947 130.506 237.216 129.312C238.504 128.1 240.047 127.494 241.847 127.494C243.646 127.494 245.18 128.1 246.449 129.312C247.737 130.506 248.381 131.936 248.381 133.602C248.381 135.288 247.737 136.737 246.449 137.949C245.18 139.142 243.646 139.739 241.847 139.739ZM277.223 206.273C273.303 206.273 269.941 205.733 267.138 204.653C264.354 203.593 262.138 202.144 260.49 200.307C258.842 198.47 257.772 196.405 257.28 194.114L268.473 192.608C268.814 193.479 269.354 194.294 270.092 195.051C270.831 195.809 271.806 196.415 273.018 196.869C274.25 197.343 275.746 197.58 277.507 197.58C280.14 197.58 282.308 196.936 284.013 195.648C285.736 194.379 286.598 192.248 286.598 189.256V181.273H286.087C285.556 182.485 284.761 183.631 283.7 184.71C282.64 185.79 281.276 186.67 279.609 187.352C277.943 188.034 275.954 188.375 273.643 188.375C270.367 188.375 267.384 187.617 264.695 186.102C262.024 184.568 259.893 182.229 258.303 179.085C256.731 175.922 255.945 171.926 255.945 167.097C255.945 162.153 256.75 158.025 258.359 154.71C259.969 151.396 262.109 148.915 264.78 147.267C267.469 145.619 270.414 144.795 273.615 144.795C276.058 144.795 278.104 145.212 279.751 146.045C281.399 146.86 282.725 147.883 283.729 149.114C284.751 150.326 285.537 151.519 286.087 152.693H286.541V145.364H298.558V189.426C298.558 193.138 297.649 196.244 295.831 198.744C294.013 201.244 291.494 203.119 288.274 204.369C285.073 205.638 281.39 206.273 277.223 206.273ZM277.479 179.284C279.429 179.284 281.077 178.801 282.422 177.835C283.786 176.85 284.827 175.449 285.547 173.631C286.286 171.794 286.655 169.597 286.655 167.04C286.655 164.483 286.295 162.267 285.575 160.392C284.856 158.498 283.814 157.03 282.45 155.989C281.087 154.947 279.429 154.426 277.479 154.426C275.49 154.426 273.814 154.966 272.45 156.045C271.087 157.106 270.054 158.583 269.354 160.477C268.653 162.371 268.303 164.559 268.303 167.04C268.303 169.559 268.653 171.737 269.354 173.574C270.073 175.392 271.106 176.803 272.45 177.807C273.814 178.792 275.49 179.284 277.479 179.284ZM320.291 163.773V189H308.189V145.364H319.723V153.062H320.234C321.2 150.525 322.82 148.517 325.092 147.04C327.365 145.544 330.121 144.795 333.359 144.795C336.39 144.795 339.032 145.458 341.286 146.784C343.539 148.11 345.291 150.004 346.541 152.466C347.791 154.909 348.416 157.826 348.416 161.216V189H336.314V163.375C336.333 160.705 335.651 158.621 334.268 157.125C332.886 155.61 330.982 154.852 328.558 154.852C326.929 154.852 325.49 155.203 324.24 155.903C323.009 156.604 322.043 157.627 321.342 158.972C320.661 160.297 320.31 161.898 320.291 163.773ZM399.936 145.364V154.455H373.004V145.364H399.936ZM379.169 189V142.21C379.169 139.047 379.785 136.424 381.016 134.341C382.266 132.258 383.97 130.695 386.129 129.653C388.288 128.612 390.741 128.091 393.487 128.091C395.343 128.091 397.038 128.233 398.572 128.517C400.125 128.801 401.281 129.057 402.038 129.284L399.879 138.375C399.406 138.223 398.819 138.081 398.118 137.949C397.436 137.816 396.735 137.75 396.016 137.75C394.235 137.75 392.995 138.167 392.294 139C391.593 139.814 391.243 140.96 391.243 142.438V189H379.169ZM425.483 189.852C421.07 189.852 417.254 188.915 414.034 187.04C410.833 185.146 408.362 182.513 406.619 179.142C404.877 175.752 404.006 171.822 404.006 167.352C404.006 162.845 404.877 158.905 406.619 155.534C408.362 152.144 410.833 149.511 414.034 147.636C417.254 145.742 421.07 144.795 425.483 144.795C429.896 144.795 433.703 145.742 436.903 147.636C440.123 149.511 442.604 152.144 444.347 155.534C446.089 158.905 446.96 162.845 446.96 167.352C446.96 171.822 446.089 175.752 444.347 179.142C442.604 182.513 440.123 185.146 436.903 187.04C433.703 188.915 429.896 189.852 425.483 189.852ZM425.54 180.477C427.547 180.477 429.223 179.909 430.568 178.773C431.913 177.617 432.926 176.045 433.608 174.057C434.309 172.068 434.659 169.805 434.659 167.267C434.659 164.729 434.309 162.466 433.608 160.477C432.926 158.489 431.913 156.917 430.568 155.761C429.223 154.606 427.547 154.028 425.54 154.028C423.513 154.028 421.809 154.606 420.426 155.761C419.063 156.917 418.03 158.489 417.33 160.477C416.648 162.466 416.307 164.729 416.307 167.267C416.307 169.805 416.648 172.068 417.33 174.057C418.03 176.045 419.063 177.617 420.426 178.773C421.809 179.909 423.513 180.477 425.54 180.477ZM454.83 189V145.364H466.562V152.977H467.017C467.813 150.269 469.148 148.223 471.023 146.841C472.898 145.439 475.057 144.739 477.5 144.739C478.106 144.739 478.759 144.777 479.46 144.852C480.161 144.928 480.777 145.032 481.307 145.165V155.903C480.739 155.733 479.953 155.581 478.949 155.449C477.945 155.316 477.027 155.25 476.193 155.25C474.413 155.25 472.822 155.638 471.42 156.415C470.038 157.172 468.939 158.233 468.125 159.597C467.33 160.96 466.932 162.532 466.932 164.312V189H454.83ZM116.619 227.551C116.392 225.259 115.417 223.479 113.693 222.21C111.97 220.941 109.631 220.307 106.676 220.307C104.669 220.307 102.973 220.591 101.591 221.159C100.208 221.708 99.1477 222.475 98.4091 223.46C97.6894 224.445 97.3295 225.562 97.3295 226.812C97.2917 227.854 97.5095 228.763 97.983 229.54C98.4754 230.316 99.1477 230.989 100 231.557C100.852 232.106 101.837 232.589 102.955 233.006C104.072 233.403 105.265 233.744 106.534 234.028L111.761 235.278C114.299 235.847 116.629 236.604 118.75 237.551C120.871 238.498 122.708 239.663 124.261 241.045C125.814 242.428 127.017 244.057 127.869 245.932C128.741 247.807 129.186 249.956 129.205 252.381C129.186 255.941 128.277 259.028 126.477 261.642C124.697 264.237 122.121 266.254 118.75 267.693C115.398 269.114 111.354 269.824 106.619 269.824C101.922 269.824 97.8314 269.104 94.3466 267.665C90.8807 266.225 88.1723 264.095 86.2216 261.273C84.2898 258.432 83.2765 254.919 83.1818 250.733H95.0852C95.2178 252.684 95.7765 254.312 96.7614 255.619C97.7652 256.907 99.1004 257.883 100.767 258.545C102.453 259.189 104.356 259.511 106.477 259.511C108.561 259.511 110.369 259.208 111.903 258.602C113.456 257.996 114.659 257.153 115.511 256.074C116.364 254.994 116.79 253.754 116.79 252.352C116.79 251.045 116.402 249.947 115.625 249.057C114.867 248.167 113.75 247.409 112.273 246.784C110.814 246.159 109.025 245.591 106.903 245.08L100.568 243.489C95.6629 242.295 91.7898 240.43 88.9489 237.892C86.108 235.354 84.697 231.936 84.7159 227.636C84.697 224.114 85.6345 221.036 87.5284 218.403C89.4413 215.771 92.0644 213.716 95.3977 212.239C98.7311 210.761 102.519 210.023 106.761 210.023C111.08 210.023 114.848 210.761 118.068 212.239C121.307 213.716 123.826 215.771 125.625 218.403C127.424 221.036 128.352 224.085 128.409 227.551H116.619ZM156.967 269.852C152.498 269.852 148.653 268.905 145.433 267.011C142.232 265.098 139.77 262.447 138.047 259.057C136.342 255.667 135.49 251.765 135.49 247.352C135.49 242.883 136.352 238.962 138.075 235.591C139.818 232.201 142.289 229.559 145.49 227.665C148.691 225.752 152.498 224.795 156.911 224.795C160.717 224.795 164.051 225.487 166.911 226.869C169.77 228.252 172.034 230.193 173.7 232.693C175.367 235.193 176.286 238.129 176.456 241.5H165.036C164.714 239.322 163.861 237.57 162.479 236.244C161.115 234.9 159.325 234.227 157.109 234.227C155.234 234.227 153.596 234.739 152.195 235.761C150.812 236.765 149.732 238.233 148.956 240.165C148.179 242.097 147.791 244.436 147.791 247.182C147.791 249.966 148.17 252.333 148.928 254.284C149.704 256.235 150.793 257.722 152.195 258.744C153.596 259.767 155.234 260.278 157.109 260.278C158.492 260.278 159.732 259.994 160.831 259.426C161.948 258.858 162.867 258.034 163.587 256.955C164.325 255.856 164.808 254.54 165.036 253.006H176.456C176.267 256.339 175.357 259.275 173.729 261.812C172.119 264.331 169.893 266.301 167.053 267.722C164.212 269.142 160.85 269.852 156.967 269.852ZM184.205 269V225.364H196.307V269H184.205ZM190.284 219.739C188.485 219.739 186.941 219.142 185.653 217.949C184.384 216.737 183.75 215.288 183.75 213.602C183.75 211.936 184.384 210.506 185.653 209.312C186.941 208.1 188.485 207.494 190.284 207.494C192.083 207.494 193.617 208.1 194.886 209.312C196.174 210.506 196.818 211.936 196.818 213.602C196.818 215.288 196.174 216.737 194.886 217.949C193.617 219.142 192.083 219.739 190.284 219.739ZM225.888 269.852C221.399 269.852 217.536 268.943 214.297 267.125C211.077 265.288 208.596 262.693 206.854 259.341C205.111 255.97 204.24 251.983 204.24 247.381C204.24 242.892 205.111 238.953 206.854 235.562C208.596 232.172 211.049 229.53 214.212 227.636C217.393 225.742 221.125 224.795 225.405 224.795C228.284 224.795 230.964 225.259 233.445 226.188C235.945 227.097 238.123 228.47 239.979 230.307C241.854 232.144 243.312 234.455 244.354 237.239C245.395 240.004 245.916 243.242 245.916 246.955V250.278H209.07V242.778H234.524C234.524 241.036 234.145 239.492 233.388 238.148C232.63 236.803 231.579 235.752 230.234 234.994C228.909 234.218 227.365 233.83 225.604 233.83C223.767 233.83 222.138 234.256 220.717 235.108C219.316 235.941 218.217 237.068 217.422 238.489C216.626 239.89 216.219 241.453 216.2 243.176V250.307C216.2 252.466 216.598 254.331 217.393 255.903C218.208 257.475 219.354 258.688 220.831 259.54C222.308 260.392 224.06 260.818 226.087 260.818C227.431 260.818 228.662 260.629 229.78 260.25C230.897 259.871 231.854 259.303 232.649 258.545C233.445 257.788 234.051 256.86 234.467 255.761L245.661 256.5C245.092 259.189 243.928 261.538 242.166 263.545C240.424 265.534 238.17 267.087 235.405 268.205C232.659 269.303 229.486 269.852 225.888 269.852ZM265.916 243.773V269H253.814V225.364H265.348V233.062H265.859C266.825 230.525 268.445 228.517 270.717 227.04C272.99 225.544 275.746 224.795 278.984 224.795C282.015 224.795 284.657 225.458 286.911 226.784C289.164 228.11 290.916 230.004 292.166 232.466C293.416 234.909 294.041 237.826 294.041 241.216V269H281.939V243.375C281.958 240.705 281.276 238.621 279.893 237.125C278.511 235.61 276.607 234.852 274.183 234.852C272.554 234.852 271.115 235.203 269.865 235.903C268.634 236.604 267.668 237.627 266.967 238.972C266.286 240.297 265.935 241.898 265.916 243.773ZM326.79 225.364V234.455H300.511V225.364H326.79ZM306.477 214.909H318.58V255.591C318.58 256.708 318.75 257.58 319.091 258.205C319.432 258.811 319.905 259.237 320.511 259.483C321.136 259.729 321.856 259.852 322.67 259.852C323.239 259.852 323.807 259.805 324.375 259.71C324.943 259.597 325.379 259.511 325.682 259.455L327.585 268.46C326.979 268.65 326.127 268.867 325.028 269.114C323.93 269.379 322.595 269.54 321.023 269.597C318.106 269.71 315.549 269.322 313.352 268.432C311.174 267.542 309.479 266.159 308.267 264.284C307.055 262.409 306.458 260.042 306.477 257.182V214.909ZM334.673 269V225.364H346.776V269H334.673ZM340.753 219.739C338.954 219.739 337.41 219.142 336.122 217.949C334.853 216.737 334.219 215.288 334.219 213.602C334.219 211.936 334.853 210.506 336.122 209.312C337.41 208.1 338.954 207.494 340.753 207.494C342.552 207.494 344.086 208.1 345.355 209.312C346.643 210.506 347.287 211.936 347.287 213.602C347.287 215.288 346.643 216.737 345.355 217.949C344.086 219.142 342.552 219.739 340.753 219.739ZM392.777 237.807L381.697 238.489C381.508 237.542 381.101 236.689 380.476 235.932C379.851 235.155 379.027 234.54 378.004 234.085C377 233.612 375.798 233.375 374.396 233.375C372.521 233.375 370.94 233.773 369.652 234.568C368.364 235.345 367.72 236.386 367.72 237.693C367.72 238.735 368.137 239.616 368.97 240.335C369.804 241.055 371.233 241.633 373.26 242.068L381.158 243.659C385.4 244.53 388.563 245.932 390.646 247.864C392.73 249.795 393.771 252.333 393.771 255.477C393.771 258.337 392.929 260.847 391.243 263.006C389.576 265.165 387.285 266.85 384.368 268.062C381.47 269.256 378.127 269.852 374.339 269.852C368.563 269.852 363.961 268.65 360.533 266.244C357.124 263.82 355.125 260.525 354.538 256.358L366.442 255.733C366.802 257.494 367.673 258.839 369.055 259.767C370.438 260.676 372.209 261.131 374.368 261.131C376.489 261.131 378.194 260.723 379.482 259.909C380.788 259.076 381.451 258.006 381.47 256.699C381.451 255.6 380.987 254.701 380.078 254C379.169 253.28 377.768 252.731 375.874 252.352L368.317 250.847C364.055 249.994 360.883 248.517 358.8 246.415C356.735 244.312 355.703 241.633 355.703 238.375C355.703 235.572 356.461 233.157 357.976 231.131C359.51 229.104 361.66 227.542 364.425 226.443C367.209 225.345 370.466 224.795 374.197 224.795C379.709 224.795 384.046 225.96 387.209 228.29C390.391 230.619 392.247 233.792 392.777 237.807ZM424.602 225.364V234.455H398.324V225.364H424.602ZM404.29 214.909H416.392V255.591C416.392 256.708 416.563 257.58 416.903 258.205C417.244 258.811 417.718 259.237 418.324 259.483C418.949 259.729 419.669 259.852 420.483 259.852C421.051 259.852 421.619 259.805 422.188 259.71C422.756 259.597 423.191 259.511 423.494 259.455L425.398 268.46C424.792 268.65 423.939 268.867 422.841 269.114C421.742 269.379 420.407 269.54 418.835 269.597C415.919 269.71 413.362 269.322 411.165 268.432C408.987 267.542 407.292 266.159 406.08 264.284C404.867 262.409 404.271 260.042 404.29 257.182V214.909ZM468.246 237.807L457.166 238.489C456.977 237.542 456.57 236.689 455.945 235.932C455.32 235.155 454.496 234.54 453.473 234.085C452.469 233.612 451.267 233.375 449.865 233.375C447.99 233.375 446.409 233.773 445.121 234.568C443.833 235.345 443.189 236.386 443.189 237.693C443.189 238.735 443.606 239.616 444.439 240.335C445.272 241.055 446.702 241.633 448.729 242.068L456.626 243.659C460.869 244.53 464.032 245.932 466.115 247.864C468.198 249.795 469.24 252.333 469.24 255.477C469.24 258.337 468.397 260.847 466.712 263.006C465.045 265.165 462.753 266.85 459.837 268.062C456.939 269.256 453.596 269.852 449.808 269.852C444.032 269.852 439.429 268.65 436.001 266.244C432.592 263.82 430.594 260.525 430.007 256.358L441.911 255.733C442.27 257.494 443.142 258.839 444.524 259.767C445.907 260.676 447.678 261.131 449.837 261.131C451.958 261.131 453.662 260.723 454.95 259.909C456.257 259.076 456.92 258.006 456.939 256.699C456.92 255.6 456.456 254.701 455.547 254C454.638 253.28 453.236 252.731 451.342 252.352L443.786 250.847C439.524 249.994 436.352 248.517 434.268 246.415C432.204 244.312 431.172 241.633 431.172 238.375C431.172 235.572 431.929 233.157 433.445 231.131C434.979 229.104 437.128 227.542 439.893 226.443C442.678 225.345 445.935 224.795 449.666 224.795C455.178 224.795 459.515 225.96 462.678 228.29C465.859 230.619 467.715 233.792 468.246 237.807Z" fill="white"/>
<path d="M84.9517 371H81.0739L92.2898 340.455H96.108L107.324 371H103.446L94.3182 345.287H94.0795L84.9517 371ZM86.3835 359.068H102.014V362.349H86.3835V359.068ZM115.124 357.219V371H111.604V348.091H115.005V351.67H115.303C115.84 350.507 116.656 349.572 117.749 348.866C118.843 348.151 120.255 347.793 121.985 347.793C123.536 347.793 124.893 348.111 126.057 348.747C127.22 349.374 128.125 350.328 128.771 351.611C129.418 352.884 129.741 354.494 129.741 356.443V371H126.221V356.682C126.221 354.882 125.754 353.48 124.819 352.476C123.884 351.462 122.602 350.955 120.971 350.955C119.847 350.955 118.843 351.198 117.958 351.685C117.083 352.173 116.392 352.884 115.885 353.818C115.378 354.753 115.124 355.886 115.124 357.219ZM147.985 371V348.091H151.505V371H147.985ZM149.775 344.273C149.089 344.273 148.497 344.039 148 343.572C147.513 343.104 147.269 342.543 147.269 341.886C147.269 341.23 147.513 340.668 148 340.201C148.497 339.734 149.089 339.5 149.775 339.5C150.461 339.5 151.048 339.734 151.535 340.201C152.032 340.668 152.281 341.23 152.281 341.886C152.281 342.543 152.032 343.104 151.535 343.572C151.048 344.039 150.461 344.273 149.775 344.273ZM161.472 357.219V371H157.952V348.091H161.353V351.67H161.651C162.188 350.507 163.003 349.572 164.097 348.866C165.191 348.151 166.603 347.793 168.333 347.793C169.884 347.793 171.241 348.111 172.404 348.747C173.568 349.374 174.473 350.328 175.119 351.611C175.765 352.884 176.088 354.494 176.088 356.443V371H172.569V356.682C172.569 354.882 172.101 353.48 171.167 352.476C170.232 351.462 168.949 350.955 167.319 350.955C166.195 350.955 165.191 351.198 164.306 351.685C163.431 352.173 162.74 352.884 162.233 353.818C161.725 354.753 161.472 355.886 161.472 357.219ZM192.483 348.091V351.074H180.611V348.091H192.483ZM184.072 342.602H187.591V364.438C187.591 365.432 187.736 366.178 188.024 366.675C188.322 367.162 188.7 367.49 189.157 367.659C189.625 367.818 190.117 367.898 190.634 367.898C191.022 367.898 191.34 367.878 191.589 367.838C191.837 367.788 192.036 367.749 192.185 367.719L192.901 370.881C192.662 370.97 192.329 371.06 191.902 371.149C191.474 371.249 190.932 371.298 190.276 371.298C189.282 371.298 188.307 371.085 187.353 370.657C186.408 370.229 185.623 369.578 184.996 368.703C184.38 367.828 184.072 366.724 184.072 365.392V342.602ZM197.778 371V348.091H201.179V351.551H201.417C201.835 350.418 202.591 349.498 203.684 348.792C204.778 348.086 206.011 347.733 207.383 347.733C207.642 347.733 207.965 347.738 208.353 347.748C208.741 347.758 209.034 347.773 209.233 347.793V351.372C209.113 351.342 208.84 351.298 208.412 351.238C207.995 351.168 207.552 351.134 207.085 351.134C205.971 351.134 204.977 351.367 204.102 351.835C203.237 352.292 202.551 352.928 202.044 353.744C201.547 354.549 201.298 355.469 201.298 356.503V371H197.778ZM222.015 371.477C219.947 371.477 218.132 370.985 216.571 370.001C215.02 369.016 213.807 367.639 212.932 365.869C212.067 364.099 211.634 362.031 211.634 359.665C211.634 357.278 212.067 355.195 212.932 353.415C213.807 351.636 215.02 350.254 216.571 349.269C218.132 348.285 219.947 347.793 222.015 347.793C224.083 347.793 225.893 348.285 227.444 349.269C229.005 350.254 230.218 351.636 231.083 353.415C231.958 355.195 232.395 357.278 232.395 359.665C232.395 362.031 231.958 364.099 231.083 365.869C230.218 367.639 229.005 369.016 227.444 370.001C225.893 370.985 224.083 371.477 222.015 371.477ZM222.015 368.315C223.586 368.315 224.878 367.913 225.893 367.107C226.907 366.302 227.657 365.243 228.145 363.93C228.632 362.618 228.876 361.196 228.876 359.665C228.876 358.134 228.632 356.707 228.145 355.384C227.657 354.062 226.907 352.993 225.893 352.178C224.878 351.362 223.586 350.955 222.015 350.955C220.444 350.955 219.151 351.362 218.137 352.178C217.123 352.993 216.372 354.062 215.885 355.384C215.398 356.707 215.154 358.134 215.154 359.665C215.154 361.196 215.398 362.618 215.885 363.93C216.372 365.243 217.123 366.302 218.137 367.107C219.151 367.913 220.444 368.315 222.015 368.315ZM246.419 371.477C244.51 371.477 242.825 370.995 241.363 370.031C239.901 369.056 238.758 367.684 237.933 365.914C237.107 364.134 236.695 362.031 236.695 359.605C236.695 357.199 237.107 355.111 237.933 353.341C238.758 351.571 239.906 350.204 241.378 349.239C242.849 348.275 244.55 347.793 246.479 347.793C247.97 347.793 249.148 348.041 250.013 348.538C250.888 349.026 251.555 349.582 252.012 350.209C252.479 350.825 252.842 351.332 253.101 351.73H253.399V340.455H256.919V371H253.518V367.48H253.101C252.842 367.898 252.474 368.425 251.997 369.061C251.52 369.687 250.839 370.249 249.954 370.746C249.069 371.234 247.891 371.477 246.419 371.477ZM246.896 368.315C248.308 368.315 249.501 367.947 250.476 367.212C251.45 366.466 252.191 365.437 252.698 364.124C253.205 362.802 253.459 361.276 253.459 359.545C253.459 357.835 253.21 356.339 252.713 355.056C252.216 353.763 251.48 352.759 250.506 352.043C249.531 351.317 248.328 350.955 246.896 350.955C245.405 350.955 244.162 351.337 243.168 352.103C242.183 352.859 241.442 353.888 240.945 355.19C240.458 356.483 240.214 357.935 240.214 359.545C240.214 361.176 240.463 362.658 240.96 363.99C241.467 365.312 242.213 366.366 243.197 367.152C244.192 367.928 245.425 368.315 246.896 368.315ZM278.292 361.634V348.091H281.812V371H278.292V367.122H278.053C277.516 368.286 276.681 369.275 275.548 370.09C274.414 370.896 272.982 371.298 271.252 371.298C269.82 371.298 268.548 370.985 267.434 370.359C266.32 369.722 265.445 368.768 264.809 367.495C264.173 366.212 263.854 364.597 263.854 362.648V348.091H267.374V362.409C267.374 364.08 267.842 365.412 268.776 366.406C269.721 367.401 270.924 367.898 272.386 367.898C273.261 367.898 274.151 367.674 275.055 367.227C275.97 366.779 276.736 366.093 277.352 365.168C277.979 364.244 278.292 363.065 278.292 361.634ZM297.566 371.477C295.418 371.477 293.568 370.97 292.017 369.956C290.466 368.942 289.273 367.545 288.438 365.765C287.602 363.985 287.185 361.952 287.185 359.665C287.185 357.338 287.612 355.285 288.468 353.505C289.333 351.715 290.536 350.318 292.077 349.314C293.628 348.3 295.438 347.793 297.506 347.793C299.117 347.793 300.568 348.091 301.861 348.688C303.154 349.284 304.213 350.119 305.038 351.193C305.863 352.267 306.375 353.52 306.574 354.952H303.054C302.786 353.908 302.189 352.983 301.264 352.178C300.35 351.362 299.117 350.955 297.566 350.955C296.193 350.955 294.99 351.312 293.956 352.028C292.932 352.734 292.132 353.734 291.555 355.026C290.988 356.309 290.705 357.815 290.705 359.545C290.705 361.315 290.983 362.857 291.54 364.169C292.107 365.482 292.902 366.501 293.926 367.227C294.96 367.952 296.173 368.315 297.566 368.315C298.48 368.315 299.311 368.156 300.056 367.838C300.802 367.52 301.433 367.062 301.95 366.466C302.468 365.869 302.835 365.153 303.054 364.318H306.574C306.375 365.67 305.883 366.888 305.097 367.972C304.322 369.046 303.293 369.901 302.01 370.538C300.737 371.164 299.256 371.477 297.566 371.477ZM321.683 348.091V351.074H309.811V348.091H321.683ZM313.271 342.602H316.791V364.438C316.791 365.432 316.935 366.178 317.223 366.675C317.521 367.162 317.899 367.49 318.357 367.659C318.824 367.818 319.316 367.898 319.833 367.898C320.221 367.898 320.539 367.878 320.788 367.838C321.036 367.788 321.235 367.749 321.384 367.719L322.1 370.881C321.862 370.97 321.529 371.06 321.101 371.149C320.673 371.249 320.132 371.298 319.475 371.298C318.481 371.298 317.507 371.085 316.552 370.657C315.607 370.229 314.822 369.578 314.195 368.703C313.579 367.828 313.271 366.724 313.271 365.392V342.602ZM326.977 371V348.091H330.497V371H326.977ZM328.767 344.273C328.081 344.273 327.49 344.039 326.992 343.572C326.505 343.104 326.262 342.543 326.262 341.886C326.262 341.23 326.505 340.668 326.992 340.201C327.49 339.734 328.081 339.5 328.767 339.5C329.453 339.5 330.04 339.734 330.527 340.201C331.024 340.668 331.273 341.23 331.273 341.886C331.273 342.543 331.024 343.104 330.527 343.572C330.04 344.039 329.453 344.273 328.767 344.273ZM346.251 371.477C344.183 371.477 342.368 370.985 340.807 370.001C339.256 369.016 338.043 367.639 337.168 365.869C336.303 364.099 335.87 362.031 335.87 359.665C335.87 357.278 336.303 355.195 337.168 353.415C338.043 351.636 339.256 350.254 340.807 349.269C342.368 348.285 344.183 347.793 346.251 347.793C348.319 347.793 350.129 348.285 351.68 349.269C353.241 350.254 354.454 351.636 355.319 353.415C356.194 355.195 356.632 357.278 356.632 359.665C356.632 362.031 356.194 364.099 355.319 365.869C354.454 367.639 353.241 369.016 351.68 370.001C350.129 370.985 348.319 371.477 346.251 371.477ZM346.251 368.315C347.822 368.315 349.115 367.913 350.129 367.107C351.143 366.302 351.894 365.243 352.381 363.93C352.868 362.618 353.112 361.196 353.112 359.665C353.112 358.134 352.868 356.707 352.381 355.384C351.894 354.062 351.143 352.993 350.129 352.178C349.115 351.362 347.822 350.955 346.251 350.955C344.68 350.955 343.387 351.362 342.373 352.178C341.359 352.993 340.608 354.062 340.121 355.384C339.634 356.707 339.39 358.134 339.39 359.665C339.39 361.196 339.634 362.618 340.121 363.93C340.608 365.243 341.359 366.302 342.373 367.107C343.387 367.913 344.68 368.315 346.251 368.315ZM365.525 357.219V371H362.005V348.091H365.405V351.67H365.704C366.241 350.507 367.056 349.572 368.15 348.866C369.243 348.151 370.655 347.793 372.385 347.793C373.937 347.793 375.294 348.111 376.457 348.747C377.621 349.374 378.525 350.328 379.172 351.611C379.818 352.884 380.141 354.494 380.141 356.443V371H376.621V356.682C376.621 354.882 376.154 353.48 375.219 352.476C374.285 351.462 373.002 350.955 371.371 350.955C370.248 350.955 369.243 351.198 368.358 351.685C367.483 352.173 366.792 352.884 366.285 353.818C365.778 354.753 365.525 355.886 365.525 357.219ZM405.127 371.537C403.675 371.537 402.358 371.263 401.175 370.717C399.991 370.16 399.052 369.359 398.356 368.315C397.66 367.261 397.312 365.989 397.312 364.497C397.312 363.185 397.57 362.121 398.087 361.305C398.604 360.48 399.295 359.834 400.161 359.366C401.026 358.899 401.98 358.551 403.024 358.322C404.078 358.084 405.137 357.895 406.201 357.756C407.593 357.577 408.722 357.442 409.587 357.353C410.462 357.254 411.098 357.089 411.496 356.861C411.903 356.632 412.107 356.234 412.107 355.668V355.548C412.107 354.077 411.705 352.933 410.899 352.118C410.104 351.303 408.896 350.895 407.275 350.895C405.594 350.895 404.277 351.263 403.322 351.999C402.368 352.734 401.697 353.52 401.309 354.355L397.968 353.162C398.565 351.77 399.36 350.686 400.354 349.911C401.359 349.125 402.452 348.578 403.636 348.27C404.829 347.952 406.002 347.793 407.156 347.793C407.891 347.793 408.737 347.882 409.691 348.061C410.656 348.23 411.585 348.583 412.48 349.12C413.385 349.657 414.136 350.467 414.732 351.551C415.329 352.635 415.627 354.087 415.627 355.906V371H412.107V367.898H411.928C411.69 368.395 411.292 368.927 410.735 369.494C410.178 370.06 409.438 370.543 408.513 370.94C407.588 371.338 406.46 371.537 405.127 371.537ZM405.664 368.375C407.056 368.375 408.229 368.102 409.184 367.555C410.148 367.008 410.874 366.302 411.362 365.437C411.859 364.572 412.107 363.662 412.107 362.707V359.486C411.958 359.665 411.63 359.829 411.123 359.978C410.626 360.117 410.049 360.241 409.393 360.351C408.746 360.45 408.115 360.54 407.499 360.619C406.892 360.689 406.4 360.749 406.022 360.798C405.107 360.918 404.252 361.112 403.457 361.38C402.671 361.638 402.035 362.031 401.548 362.558C401.07 363.075 400.832 363.781 400.832 364.676C400.832 365.899 401.284 366.824 402.189 367.45C403.104 368.067 404.262 368.375 405.664 368.375ZM425.572 357.219V371H422.052V348.091H425.452V351.67H425.751C426.287 350.507 427.103 349.572 428.197 348.866C429.29 348.151 430.702 347.793 432.432 347.793C433.983 347.793 435.341 348.111 436.504 348.747C437.667 349.374 438.572 350.328 439.219 351.611C439.865 352.884 440.188 354.494 440.188 356.443V371H436.668V356.682C436.668 354.882 436.201 353.48 435.266 352.476C434.331 351.462 433.049 350.955 431.418 350.955C430.295 350.955 429.29 351.198 428.405 351.685C427.53 352.173 426.839 352.884 426.332 353.818C425.825 354.753 425.572 355.886 425.572 357.219ZM455.271 371.477C453.362 371.477 451.676 370.995 450.214 370.031C448.753 369.056 447.609 367.684 446.784 365.914C445.959 364.134 445.546 362.031 445.546 359.605C445.546 357.199 445.959 355.111 446.784 353.341C447.609 351.571 448.758 350.204 450.229 349.239C451.701 348.275 453.401 347.793 455.33 347.793C456.822 347.793 458 348.041 458.865 348.538C459.74 349.026 460.406 349.582 460.864 350.209C461.331 350.825 461.694 351.332 461.952 351.73H462.251V340.455H465.771V371H462.37V367.48H461.952C461.694 367.898 461.326 368.425 460.849 369.061C460.371 369.687 459.69 370.249 458.805 370.746C457.92 371.234 456.742 371.477 455.271 371.477ZM455.748 368.315C457.16 368.315 458.353 367.947 459.327 367.212C460.302 366.466 461.043 365.437 461.55 364.124C462.057 362.802 462.31 361.276 462.31 359.545C462.31 357.835 462.062 356.339 461.565 355.056C461.067 353.763 460.332 352.759 459.357 352.043C458.383 351.317 457.18 350.955 455.748 350.955C454.256 350.955 453.013 351.337 452.019 352.103C451.035 352.859 450.294 353.888 449.797 355.19C449.31 356.483 449.066 357.935 449.066 359.545C449.066 361.176 449.315 362.658 449.812 363.99C450.319 365.312 451.065 366.366 452.049 367.152C453.043 367.928 454.276 368.315 455.748 368.315ZM488.038 357.219V371H484.518V340.455H488.038V351.67H488.337C488.874 350.487 489.679 349.548 490.753 348.852C491.837 348.146 493.278 347.793 495.078 347.793C496.639 347.793 498.006 348.106 499.18 348.732C500.353 349.349 501.263 350.298 501.909 351.581C502.565 352.854 502.893 354.474 502.893 356.443V371H499.374V356.682C499.374 354.862 498.901 353.455 497.957 352.461C497.022 351.457 495.724 350.955 494.064 350.955C492.911 350.955 491.876 351.198 490.962 351.685C490.057 352.173 489.341 352.884 488.814 353.818C488.297 354.753 488.038 355.886 488.038 357.219ZM516.074 371.537C514.623 371.537 513.305 371.263 512.122 370.717C510.939 370.16 509.999 369.359 509.303 368.315C508.607 367.261 508.259 365.989 508.259 364.497C508.259 363.185 508.518 362.121 509.035 361.305C509.552 360.48 510.243 359.834 511.108 359.366C511.973 358.899 512.927 358.551 513.971 358.322C515.025 358.084 516.084 357.895 517.148 357.756C518.54 357.577 519.669 357.442 520.534 357.353C521.409 357.254 522.045 357.089 522.443 356.861C522.851 356.632 523.055 356.234 523.055 355.668V355.548C523.055 354.077 522.652 352.933 521.846 352.118C521.051 351.303 519.843 350.895 518.222 350.895C516.542 350.895 515.224 351.263 514.27 351.999C513.315 352.734 512.644 353.52 512.256 354.355L508.915 353.162C509.512 351.77 510.307 350.686 511.302 349.911C512.306 349.125 513.4 348.578 514.583 348.27C515.776 347.952 516.949 347.793 518.103 347.793C518.839 347.793 519.684 347.882 520.638 348.061C521.603 348.23 522.532 348.583 523.427 349.12C524.332 349.657 525.083 350.467 525.68 351.551C526.276 352.635 526.574 354.087 526.574 355.906V371H523.055V367.898H522.876C522.637 368.395 522.239 368.927 521.682 369.494C521.126 370.06 520.385 370.543 519.46 370.94C518.535 371.338 517.407 371.537 516.074 371.537ZM516.611 368.375C518.003 368.375 519.177 368.102 520.131 367.555C521.096 367.008 521.822 366.302 522.309 365.437C522.806 364.572 523.055 363.662 523.055 362.707V359.486C522.905 359.665 522.577 359.829 522.07 359.978C521.573 360.117 520.996 360.241 520.34 360.351C519.694 360.45 519.062 360.54 518.446 360.619C517.839 360.689 517.347 360.749 516.969 360.798C516.055 360.918 515.199 361.112 514.404 361.38C513.618 361.638 512.982 362.031 512.495 362.558C512.018 363.075 511.779 363.781 511.779 364.676C511.779 365.899 512.231 366.824 513.136 367.45C514.051 368.067 515.209 368.375 516.611 368.375ZM536.519 357.219V371H532.999V348.091H536.4V351.67H536.698C537.235 350.507 538.05 349.572 539.144 348.866C540.238 348.151 541.65 347.793 543.38 347.793C544.931 347.793 546.288 348.111 547.451 348.747C548.615 349.374 549.52 350.328 550.166 351.611C550.812 352.884 551.135 354.494 551.135 356.443V371H547.615V356.682C547.615 354.882 547.148 353.48 546.213 352.476C545.279 351.462 543.996 350.955 542.365 350.955C541.242 350.955 540.238 351.198 539.353 351.685C538.478 352.173 537.787 352.884 537.279 353.818C536.772 354.753 536.519 355.886 536.519 357.219ZM566.218 371.477C564.309 371.477 562.623 370.995 561.162 370.031C559.7 369.056 558.557 367.684 557.731 365.914C556.906 364.134 556.493 362.031 556.493 359.605C556.493 357.199 556.906 355.111 557.731 353.341C558.557 351.571 559.705 350.204 561.177 349.239C562.648 348.275 564.349 347.793 566.278 347.793C567.769 347.793 568.947 348.041 569.812 348.538C570.687 349.026 571.354 349.582 571.811 350.209C572.278 350.825 572.641 351.332 572.9 351.73H573.198V340.455H576.718V371H573.317V367.48H572.9C572.641 367.898 572.273 368.425 571.796 369.061C571.319 369.687 570.638 370.249 569.753 370.746C568.868 371.234 567.689 371.477 566.218 371.477ZM566.695 368.315C568.107 368.315 569.3 367.947 570.275 367.212C571.249 366.466 571.99 365.437 572.497 364.124C573.004 362.802 573.258 361.276 573.258 359.545C573.258 357.835 573.009 356.339 572.512 355.056C572.015 353.763 571.279 352.759 570.305 352.043C569.33 351.317 568.127 350.955 566.695 350.955C565.204 350.955 563.961 351.337 562.966 352.103C561.982 352.859 561.241 353.888 560.744 355.19C560.257 356.483 560.013 357.935 560.013 359.545C560.013 361.176 560.262 362.658 560.759 363.99C561.266 365.312 562.012 366.366 562.996 367.152C563.991 367.928 565.224 368.315 566.695 368.315ZM599.881 353.222L596.719 354.116C596.52 353.589 596.226 353.077 595.839 352.58C595.461 352.073 594.944 351.656 594.287 351.327C593.631 350.999 592.791 350.835 591.767 350.835C590.365 350.835 589.197 351.158 588.262 351.805C587.337 352.441 586.875 353.251 586.875 354.236C586.875 355.111 587.193 355.802 587.829 356.309C588.466 356.816 589.46 357.239 590.812 357.577L594.213 358.412C596.261 358.909 597.787 359.67 598.792 360.694C599.796 361.708 600.298 363.016 600.298 364.616C600.298 365.929 599.92 367.102 599.165 368.136C598.419 369.17 597.375 369.986 596.032 370.582C594.69 371.179 593.129 371.477 591.349 371.477C589.013 371.477 587.079 370.97 585.547 369.956C584.016 368.942 583.047 367.46 582.639 365.511L585.98 364.676C586.298 365.909 586.9 366.834 587.785 367.45C588.68 368.067 589.848 368.375 591.29 368.375C592.93 368.375 594.233 368.027 595.197 367.331C596.172 366.625 596.659 365.78 596.659 364.795C596.659 364 596.381 363.334 595.824 362.797C595.267 362.25 594.412 361.842 593.258 361.574L589.44 360.679C587.342 360.182 585.801 359.411 584.817 358.367C583.842 357.313 583.355 355.996 583.355 354.415C583.355 353.122 583.718 351.979 584.444 350.984C585.18 349.99 586.179 349.21 587.442 348.643C588.714 348.076 590.156 347.793 591.767 347.793C594.034 347.793 595.814 348.29 597.106 349.284C598.409 350.278 599.334 351.591 599.881 353.222ZM92.5284 426.477C90.4602 426.477 88.6456 425.985 87.0845 425.001C85.5334 424.016 84.3203 422.639 83.4453 420.869C82.5803 419.099 82.1477 417.031 82.1477 414.665C82.1477 412.278 82.5803 410.195 83.4453 408.415C84.3203 406.636 85.5334 405.254 87.0845 404.269C88.6456 403.285 90.4602 402.793 92.5284 402.793C94.5966 402.793 96.4063 403.285 97.9574 404.269C99.5185 405.254 100.732 406.636 101.597 408.415C102.472 410.195 102.909 412.278 102.909 414.665C102.909 417.031 102.472 419.099 101.597 420.869C100.732 422.639 99.5185 424.016 97.9574 425.001C96.4063 425.985 94.5966 426.477 92.5284 426.477ZM92.5284 423.315C94.0994 423.315 95.392 422.913 96.4062 422.107C97.4205 421.302 98.1712 420.243 98.6584 418.93C99.1456 417.618 99.3892 416.196 99.3892 414.665C99.3892 413.134 99.1456 411.707 98.6584 410.384C98.1712 409.062 97.4205 407.993 96.4062 407.178C95.392 406.362 94.0994 405.955 92.5284 405.955C90.9574 405.955 89.6648 406.362 88.6506 407.178C87.6364 407.993 86.8857 409.062 86.3984 410.384C85.9112 411.707 85.6676 413.134 85.6676 414.665C85.6676 416.196 85.9112 417.618 86.3984 418.93C86.8857 420.243 87.6364 421.302 88.6506 422.107C89.6648 422.913 90.9574 423.315 92.5284 423.315ZM111.802 412.219V426H108.282V403.091H111.683V406.67H111.981C112.518 405.507 113.333 404.572 114.427 403.866C115.521 403.151 116.933 402.793 118.663 402.793C120.214 402.793 121.571 403.111 122.735 403.747C123.898 404.374 124.803 405.328 125.449 406.611C126.095 407.884 126.419 409.494 126.419 411.443V426H122.899V411.682C122.899 409.882 122.431 408.48 121.497 407.476C120.562 406.462 119.279 405.955 117.649 405.955C116.525 405.955 115.521 406.198 114.636 406.685C113.761 407.173 113.07 407.884 112.563 408.818C112.056 409.753 111.802 410.886 111.802 412.219ZM153.91 435.068C152.21 435.068 150.748 434.849 149.525 434.412C148.302 433.984 147.283 433.418 146.468 432.712C145.662 432.016 145.021 431.27 144.544 430.474L147.348 428.506C147.666 428.923 148.069 429.401 148.556 429.938C149.043 430.484 149.709 430.957 150.554 431.354C151.409 431.762 152.528 431.966 153.91 431.966C155.76 431.966 157.286 431.518 158.489 430.624C159.692 429.729 160.294 428.327 160.294 426.418V421.764H159.995C159.737 422.182 159.369 422.699 158.892 423.315C158.424 423.922 157.748 424.464 156.863 424.941C155.988 425.408 154.805 425.642 153.314 425.642C151.464 425.642 149.804 425.205 148.332 424.33C146.87 423.455 145.712 422.182 144.857 420.511C144.012 418.841 143.589 416.812 143.589 414.426C143.589 412.08 144.002 410.036 144.827 408.296C145.652 406.546 146.801 405.194 148.272 404.239C149.744 403.275 151.444 402.793 153.373 402.793C154.865 402.793 156.048 403.041 156.923 403.538C157.808 404.026 158.484 404.582 158.951 405.209C159.429 405.825 159.797 406.332 160.055 406.73H160.413V403.091H163.814V426.656C163.814 428.625 163.366 430.226 162.471 431.459C161.586 432.702 160.393 433.612 158.892 434.188C157.4 434.775 155.74 435.068 153.91 435.068ZM153.791 422.48C155.203 422.48 156.396 422.157 157.37 421.511C158.345 420.864 159.086 419.935 159.593 418.722C160.1 417.509 160.353 416.057 160.353 414.366C160.353 412.716 160.105 411.259 159.608 409.996C159.11 408.734 158.375 407.744 157.4 407.028C156.426 406.312 155.223 405.955 153.791 405.955C152.299 405.955 151.056 406.332 150.062 407.088C149.078 407.844 148.337 408.858 147.84 410.131C147.353 411.403 147.109 412.815 147.109 414.366C147.109 415.957 147.358 417.364 147.855 418.587C148.362 419.8 149.108 420.755 150.092 421.451C151.086 422.137 152.319 422.48 153.791 422.48ZM184.694 416.634V403.091H188.214V426H184.694V422.122H184.456C183.919 423.286 183.083 424.275 181.95 425.09C180.816 425.896 179.385 426.298 177.654 426.298C176.223 426.298 174.95 425.985 173.836 425.359C172.723 424.722 171.848 423.768 171.211 422.495C170.575 421.212 170.257 419.597 170.257 417.648V403.091H173.777V417.409C173.777 419.08 174.244 420.412 175.179 421.406C176.123 422.401 177.326 422.898 178.788 422.898C179.663 422.898 180.553 422.674 181.458 422.227C182.373 421.779 183.138 421.093 183.755 420.168C184.381 419.244 184.694 418.065 184.694 416.634ZM194.661 426V403.091H198.181V426H194.661ZM196.451 399.273C195.765 399.273 195.173 399.039 194.676 398.572C194.189 398.104 193.945 397.543 193.945 396.886C193.945 396.23 194.189 395.668 194.676 395.201C195.173 394.734 195.765 394.5 196.451 394.5C197.137 394.5 197.724 394.734 198.211 395.201C198.708 395.668 198.956 396.23 198.956 396.886C198.956 397.543 198.708 398.104 198.211 398.572C197.724 399.039 197.137 399.273 196.451 399.273ZM213.278 426.477C211.369 426.477 209.684 425.995 208.222 425.031C206.761 424.056 205.617 422.684 204.792 420.914C203.967 419.134 203.554 417.031 203.554 414.605C203.554 412.199 203.967 410.111 204.792 408.341C205.617 406.571 206.766 405.204 208.237 404.239C209.709 403.275 211.409 402.793 213.338 402.793C214.83 402.793 216.008 403.041 216.873 403.538C217.748 404.026 218.414 404.582 218.871 405.209C219.339 405.825 219.702 406.332 219.96 406.73H220.259V395.455H223.778V426H220.378V422.48H219.96C219.702 422.898 219.334 423.425 218.857 424.061C218.379 424.687 217.698 425.249 216.813 425.746C215.928 426.234 214.75 426.477 213.278 426.477ZM213.756 423.315C215.168 423.315 216.361 422.947 217.335 422.212C218.31 421.466 219.05 420.437 219.558 419.124C220.065 417.802 220.318 416.276 220.318 414.545C220.318 412.835 220.07 411.339 219.572 410.056C219.075 408.763 218.339 407.759 217.365 407.043C216.391 406.317 215.188 405.955 213.756 405.955C212.264 405.955 211.021 406.337 210.027 407.103C209.043 407.859 208.302 408.888 207.805 410.19C207.317 411.483 207.074 412.935 207.074 414.545C207.074 416.176 207.322 417.658 207.82 418.99C208.327 420.312 209.072 421.366 210.057 422.152C211.051 422.928 212.284 423.315 213.756 423.315ZM240.319 426.477C238.112 426.477 236.207 425.99 234.607 425.016C233.016 424.031 231.788 422.659 230.923 420.899C230.067 419.129 229.64 417.071 229.64 414.724C229.64 412.378 230.067 410.31 230.923 408.52C231.788 406.72 232.991 405.318 234.532 404.314C236.083 403.3 237.893 402.793 239.961 402.793C241.154 402.793 242.332 402.991 243.496 403.389C244.659 403.787 245.718 404.433 246.673 405.328C247.627 406.213 248.388 407.386 248.955 408.848C249.521 410.31 249.805 412.109 249.805 414.247V415.739H232.146V412.696H246.225C246.225 411.403 245.967 410.25 245.45 409.236C244.942 408.222 244.217 407.421 243.272 406.835C242.337 406.248 241.234 405.955 239.961 405.955C238.559 405.955 237.346 406.303 236.322 406.999C235.308 407.685 234.527 408.58 233.98 409.683C233.433 410.787 233.16 411.97 233.16 413.233V415.261C233.16 416.991 233.458 418.458 234.055 419.661C234.661 420.854 235.501 421.764 236.575 422.391C237.649 423.007 238.897 423.315 240.319 423.315C241.244 423.315 242.079 423.186 242.825 422.928C243.58 422.659 244.232 422.261 244.778 421.734C245.325 421.197 245.748 420.531 246.046 419.736L249.447 420.69C249.089 421.844 248.487 422.858 247.642 423.733C246.797 424.598 245.753 425.274 244.51 425.761C243.267 426.239 241.87 426.477 240.319 426.477ZM276.935 403.091V406.074H265.062V403.091H276.935ZM268.523 397.602H272.043V419.438C272.043 420.432 272.187 421.178 272.475 421.675C272.773 422.162 273.151 422.49 273.609 422.659C274.076 422.818 274.568 422.898 275.085 422.898C275.473 422.898 275.791 422.878 276.04 422.838C276.288 422.788 276.487 422.749 276.636 422.719L277.352 425.881C277.114 425.97 276.781 426.06 276.353 426.149C275.925 426.249 275.384 426.298 274.727 426.298C273.733 426.298 272.759 426.085 271.804 425.657C270.859 425.229 270.074 424.578 269.447 423.703C268.831 422.828 268.523 421.724 268.523 420.392V397.602ZM291.29 426.477C289.222 426.477 287.407 425.985 285.846 425.001C284.295 424.016 283.082 422.639 282.207 420.869C281.342 419.099 280.909 417.031 280.909 414.665C280.909 412.278 281.342 410.195 282.207 408.415C283.082 406.636 284.295 405.254 285.846 404.269C287.407 403.285 289.222 402.793 291.29 402.793C293.358 402.793 295.168 403.285 296.719 404.269C298.28 405.254 299.493 406.636 300.358 408.415C301.233 410.195 301.671 412.278 301.671 414.665C301.671 417.031 301.233 419.099 300.358 420.869C299.493 422.639 298.28 424.016 296.719 425.001C295.168 425.985 293.358 426.477 291.29 426.477ZM291.29 423.315C292.861 423.315 294.154 422.913 295.168 422.107C296.182 421.302 296.933 420.243 297.42 418.93C297.907 417.618 298.151 416.196 298.151 414.665C298.151 413.134 297.907 411.707 297.42 410.384C296.933 409.062 296.182 407.993 295.168 407.178C294.154 406.362 292.861 405.955 291.29 405.955C289.719 405.955 288.426 406.362 287.412 407.178C286.398 407.993 285.647 409.062 285.16 410.384C284.673 411.707 284.429 413.134 284.429 414.665C284.429 416.196 284.673 417.618 285.16 418.93C285.647 420.243 286.398 421.302 287.412 422.107C288.426 422.913 289.719 423.315 291.29 423.315ZM337.589 403.091L329.118 426H325.538L317.067 403.091H320.885L327.209 421.347H327.447L333.771 403.091H337.589ZM342.235 426V403.091H345.755V426H342.235ZM344.025 399.273C343.339 399.273 342.747 399.039 342.25 398.572C341.763 398.104 341.519 397.543 341.519 396.886C341.519 396.23 341.763 395.668 342.25 395.201C342.747 394.734 343.339 394.5 344.025 394.5C344.711 394.5 345.298 394.734 345.785 395.201C346.282 395.668 346.531 396.23 346.531 396.886C346.531 397.543 346.282 398.104 345.785 398.572C345.298 399.039 344.711 399.273 344.025 399.273ZM368.429 408.222L365.267 409.116C365.069 408.589 364.775 408.077 364.387 407.58C364.01 407.073 363.493 406.656 362.836 406.327C362.18 405.999 361.34 405.835 360.316 405.835C358.914 405.835 357.745 406.158 356.811 406.805C355.886 407.441 355.424 408.251 355.424 409.236C355.424 410.111 355.742 410.802 356.378 411.309C357.015 411.816 358.009 412.239 359.361 412.577L362.762 413.412C364.81 413.909 366.336 414.67 367.341 415.694C368.345 416.708 368.847 418.016 368.847 419.616C368.847 420.929 368.469 422.102 367.713 423.136C366.968 424.17 365.924 424.986 364.581 425.582C363.239 426.179 361.678 426.477 359.898 426.477C357.561 426.477 355.627 425.97 354.096 424.956C352.565 423.942 351.596 422.46 351.188 420.511L354.529 419.676C354.847 420.909 355.449 421.834 356.333 422.45C357.228 423.067 358.397 423.375 359.838 423.375C361.479 423.375 362.782 423.027 363.746 422.331C364.721 421.625 365.208 420.78 365.208 419.795C365.208 419 364.929 418.334 364.373 417.797C363.816 417.25 362.961 416.842 361.807 416.574L357.989 415.679C355.891 415.182 354.35 414.411 353.365 413.367C352.391 412.313 351.904 410.996 351.904 409.415C351.904 408.122 352.267 406.979 352.993 405.984C353.728 404.99 354.728 404.21 355.99 403.643C357.263 403.076 358.705 402.793 360.316 402.793C362.583 402.793 364.363 403.29 365.655 404.284C366.958 405.278 367.882 406.591 368.429 408.222ZM388.583 416.634V403.091H392.103V426H388.583V422.122H388.344C387.807 423.286 386.972 424.275 385.839 425.09C384.705 425.896 383.273 426.298 381.543 426.298C380.111 426.298 378.839 425.985 377.725 425.359C376.611 424.722 375.736 423.768 375.1 422.495C374.464 421.212 374.145 419.597 374.145 417.648V403.091H377.665V417.409C377.665 419.08 378.133 420.412 379.067 421.406C380.012 422.401 381.215 422.898 382.677 422.898C383.552 422.898 384.442 422.674 385.346 422.227C386.261 421.779 387.027 421.093 387.643 420.168C388.27 419.244 388.583 418.065 388.583 416.634ZM405.291 426.537C403.839 426.537 402.522 426.263 401.339 425.717C400.156 425.16 399.216 424.359 398.52 423.315C397.824 422.261 397.476 420.989 397.476 419.497C397.476 418.185 397.734 417.121 398.251 416.305C398.768 415.48 399.46 414.834 400.325 414.366C401.19 413.899 402.144 413.551 403.188 413.322C404.242 413.084 405.301 412.895 406.365 412.756C407.757 412.577 408.886 412.442 409.751 412.353C410.626 412.254 411.262 412.089 411.66 411.861C412.067 411.632 412.271 411.234 412.271 410.668V410.548C412.271 409.077 411.869 407.933 411.063 407.118C410.268 406.303 409.06 405.895 407.439 405.895C405.759 405.895 404.441 406.263 403.487 406.999C402.532 407.734 401.861 408.52 401.473 409.355L398.132 408.162C398.729 406.77 399.524 405.686 400.518 404.911C401.523 404.125 402.616 403.578 403.8 403.27C404.993 402.952 406.166 402.793 407.32 402.793C408.055 402.793 408.901 402.882 409.855 403.061C410.82 403.23 411.749 403.583 412.644 404.12C413.549 404.657 414.3 405.467 414.896 406.551C415.493 407.635 415.791 409.087 415.791 410.906V426H412.271V422.898H412.092C411.854 423.395 411.456 423.927 410.899 424.494C410.342 425.06 409.602 425.543 408.677 425.94C407.752 426.338 406.624 426.537 405.291 426.537ZM405.828 423.375C407.22 423.375 408.393 423.102 409.348 422.555C410.313 422.008 411.038 421.302 411.526 420.437C412.023 419.572 412.271 418.662 412.271 417.707V414.486C412.122 414.665 411.794 414.829 411.287 414.978C410.79 415.117 410.213 415.241 409.557 415.351C408.911 415.45 408.279 415.54 407.663 415.619C407.056 415.689 406.564 415.749 406.186 415.798C405.271 415.918 404.416 416.112 403.621 416.38C402.835 416.638 402.199 417.031 401.712 417.558C401.234 418.075 400.996 418.781 400.996 419.676C400.996 420.899 401.448 421.824 402.353 422.45C403.268 423.067 404.426 423.375 405.828 423.375ZM425.736 395.455V426H422.216V395.455H425.736ZM452.646 426.477C450.737 426.477 449.051 425.995 447.589 425.031C446.128 424.056 444.984 422.684 444.159 420.914C443.334 419.134 442.921 417.031 442.921 414.605C442.921 412.199 443.334 410.111 444.159 408.341C444.984 406.571 446.133 405.204 447.604 404.239C449.076 403.275 450.776 402.793 452.705 402.793C454.197 402.793 455.375 403.041 456.24 403.538C457.115 404.026 457.781 404.582 458.239 405.209C458.706 405.825 459.069 406.332 459.327 406.73H459.626V395.455H463.146V426H459.745V422.48H459.327C459.069 422.898 458.701 423.425 458.224 424.061C457.746 424.687 457.065 425.249 456.18 425.746C455.295 426.234 454.117 426.477 452.646 426.477ZM453.123 423.315C454.535 423.315 455.728 422.947 456.702 422.212C457.677 421.466 458.418 420.437 458.925 419.124C459.432 417.802 459.685 416.276 459.685 414.545C459.685 412.835 459.437 411.339 458.94 410.056C458.442 408.763 457.707 407.759 456.732 407.043C455.758 406.317 454.555 405.955 453.123 405.955C451.631 405.955 450.388 406.337 449.394 407.103C448.41 407.859 447.669 408.888 447.172 410.19C446.685 411.483 446.441 412.935 446.441 414.545C446.441 416.176 446.69 417.658 447.187 418.99C447.694 420.312 448.44 421.366 449.424 422.152C450.418 422.928 451.651 423.315 453.123 423.315ZM479.686 426.477C477.479 426.477 475.575 425.99 473.974 425.016C472.383 424.031 471.155 422.659 470.29 420.899C469.435 419.129 469.007 417.071 469.007 414.724C469.007 412.378 469.435 410.31 470.29 408.52C471.155 406.72 472.358 405.318 473.899 404.314C475.45 403.3 477.26 402.793 479.328 402.793C480.521 402.793 481.7 402.991 482.863 403.389C484.026 403.787 485.085 404.433 486.04 405.328C486.994 406.213 487.755 407.386 488.322 408.848C488.888 410.31 489.172 412.109 489.172 414.247V415.739H471.513V412.696H485.592C485.592 411.403 485.334 410.25 484.817 409.236C484.31 408.222 483.584 407.421 482.639 406.835C481.705 406.248 480.601 405.955 479.328 405.955C477.926 405.955 476.713 406.303 475.689 406.999C474.675 407.685 473.894 408.58 473.347 409.683C472.8 410.787 472.527 411.97 472.527 413.233V415.261C472.527 416.991 472.825 418.458 473.422 419.661C474.028 420.854 474.869 421.764 475.942 422.391C477.016 423.007 478.264 423.315 479.686 423.315C480.611 423.315 481.446 423.186 482.192 422.928C482.947 422.659 483.599 422.261 484.146 421.734C484.692 421.197 485.115 420.531 485.413 419.736L488.814 420.69C488.456 421.844 487.854 422.858 487.009 423.733C486.164 424.598 485.12 425.274 483.877 425.761C482.634 426.239 481.237 426.477 479.686 426.477ZM510.754 408.222L507.592 409.116C507.393 408.589 507.099 408.077 506.712 407.58C506.334 407.073 505.817 406.656 505.161 406.327C504.504 405.999 503.664 405.835 502.64 405.835C501.238 405.835 500.07 406.158 499.135 406.805C498.21 407.441 497.748 408.251 497.748 409.236C497.748 410.111 498.066 410.802 498.702 411.309C499.339 411.816 500.333 412.239 501.685 412.577L505.086 413.412C507.134 413.909 508.661 414.67 509.665 415.694C510.669 416.708 511.171 418.016 511.171 419.616C511.171 420.929 510.793 422.102 510.038 423.136C509.292 424.17 508.248 424.986 506.906 425.582C505.563 426.179 504.002 426.477 502.222 426.477C499.886 426.477 497.952 425.97 496.42 424.956C494.889 423.942 493.92 422.46 493.512 420.511L496.853 419.676C497.171 420.909 497.773 421.834 498.658 422.45C499.553 423.067 500.721 423.375 502.163 423.375C503.803 423.375 505.106 423.027 506.07 422.331C507.045 421.625 507.532 420.78 507.532 419.795C507.532 419 507.254 418.334 506.697 417.797C506.14 417.25 505.285 416.842 504.131 416.574L500.313 415.679C498.215 415.182 496.674 414.411 495.69 413.367C494.715 412.313 494.228 410.996 494.228 409.415C494.228 408.122 494.591 406.979 495.317 405.984C496.053 404.99 497.052 404.21 498.315 403.643C499.587 403.076 501.029 402.793 502.64 402.793C504.907 402.793 506.687 403.29 507.979 404.284C509.282 405.278 510.207 406.591 510.754 408.222ZM516.47 426V403.091H519.99V426H516.47ZM518.259 399.273C517.573 399.273 516.982 399.039 516.485 398.572C515.997 398.104 515.754 397.543 515.754 396.886C515.754 396.23 515.997 395.668 516.485 395.201C516.982 394.734 517.573 394.5 518.259 394.5C518.945 394.5 519.532 394.734 520.019 395.201C520.517 395.668 520.765 396.23 520.765 396.886C520.765 397.543 520.517 398.104 520.019 398.572C519.532 399.039 518.945 399.273 518.259 399.273ZM535.684 435.068C533.983 435.068 532.522 434.849 531.299 434.412C530.076 433.984 529.056 433.418 528.241 432.712C527.436 432.016 526.794 431.27 526.317 430.474L529.121 428.506C529.439 428.923 529.842 429.401 530.329 429.938C530.816 430.484 531.483 430.957 532.328 431.354C533.183 431.762 534.301 431.966 535.684 431.966C537.533 431.966 539.059 431.518 540.262 430.624C541.466 429.729 542.067 428.327 542.067 426.418V421.764H541.769C541.51 422.182 541.142 422.699 540.665 423.315C540.198 423.922 539.522 424.464 538.637 424.941C537.762 425.408 536.578 425.642 535.087 425.642C533.238 425.642 531.577 425.205 530.105 424.33C528.644 423.455 527.485 422.182 526.63 420.511C525.785 418.841 525.363 416.812 525.363 414.426C525.363 412.08 525.775 410.036 526.6 408.296C527.426 406.546 528.574 405.194 530.046 404.239C531.517 403.275 533.218 402.793 535.147 402.793C536.638 402.793 537.821 403.041 538.696 403.538C539.581 404.026 540.257 404.582 540.725 405.209C541.202 405.825 541.57 406.332 541.828 406.73H542.186V403.091H545.587V426.656C545.587 428.625 545.14 430.226 544.245 431.459C543.36 432.702 542.167 433.612 540.665 434.188C539.174 434.775 537.513 435.068 535.684 435.068ZM535.564 422.48C536.976 422.48 538.169 422.157 539.144 421.511C540.118 420.864 540.859 419.935 541.366 418.722C541.873 417.509 542.127 416.057 542.127 414.366C542.127 412.716 541.878 411.259 541.381 409.996C540.884 408.734 540.148 407.744 539.174 407.028C538.199 406.312 536.996 405.955 535.564 405.955C534.073 405.955 532.83 406.332 531.836 407.088C530.851 407.844 530.11 408.858 529.613 410.131C529.126 411.403 528.882 412.815 528.882 414.366C528.882 415.957 529.131 417.364 529.628 418.587C530.135 419.8 530.881 420.755 531.865 421.451C532.86 422.137 534.093 422.48 535.564 422.48ZM555.55 412.219V426H552.03V403.091H555.431V406.67H555.729C556.266 405.507 557.081 404.572 558.175 403.866C559.269 403.151 560.681 402.793 562.411 402.793C563.962 402.793 565.319 403.111 566.483 403.747C567.646 404.374 568.551 405.328 569.197 406.611C569.843 407.884 570.167 409.494 570.167 411.443V426H566.647V411.682C566.647 409.882 566.179 408.48 565.245 407.476C564.31 406.462 563.027 405.955 561.397 405.955C560.273 405.955 559.269 406.198 558.384 406.685C557.509 407.173 556.818 407.884 556.311 408.818C555.804 409.753 555.55 410.886 555.55 412.219ZM93.4233 458.091V461.074H81.0739V458.091H93.4233ZM84.7727 481V454.929C84.7727 453.616 85.081 452.523 85.6974 451.648C86.3139 450.773 87.1143 450.116 88.0987 449.679C89.0831 449.241 90.1222 449.023 91.2159 449.023C92.081 449.023 92.7869 449.092 93.3338 449.232C93.8807 449.371 94.2884 449.5 94.5568 449.619L93.5426 452.662C93.3636 452.602 93.1151 452.528 92.7969 452.438C92.4886 452.349 92.081 452.304 91.5739 452.304C90.4105 452.304 89.5703 452.597 89.0533 453.184C88.5462 453.771 88.2926 454.631 88.2926 455.764V481H84.7727ZM106.72 481.477C104.652 481.477 102.837 480.985 101.276 480.001C99.7248 479.016 98.5117 477.639 97.6367 475.869C96.7717 474.099 96.3391 472.031 96.3391 469.665C96.3391 467.278 96.7717 465.195 97.6367 463.415C98.5117 461.636 99.7248 460.254 101.276 459.269C102.837 458.285 104.652 457.793 106.72 457.793C108.788 457.793 110.598 458.285 112.149 459.269C113.71 460.254 114.923 461.636 115.788 463.415C116.663 465.195 117.1 467.278 117.1 469.665C117.1 472.031 116.663 474.099 115.788 475.869C114.923 477.639 113.71 479.016 112.149 480.001C110.598 480.985 108.788 481.477 106.72 481.477ZM106.72 478.315C108.291 478.315 109.583 477.913 110.598 477.107C111.612 476.302 112.363 475.243 112.85 473.93C113.337 472.618 113.581 471.196 113.581 469.665C113.581 468.134 113.337 466.707 112.85 465.384C112.363 464.062 111.612 462.993 110.598 462.178C109.583 461.362 108.291 460.955 106.72 460.955C105.149 460.955 103.856 461.362 102.842 462.178C101.828 462.993 101.077 464.062 100.59 465.384C100.103 466.707 99.859 468.134 99.859 469.665C99.859 471.196 100.103 472.618 100.59 473.93C101.077 475.243 101.828 476.302 102.842 477.107C103.856 477.913 105.149 478.315 106.72 478.315ZM122.474 481V458.091H125.874V461.551H126.113C126.53 460.418 127.286 459.498 128.38 458.792C129.474 458.086 130.706 457.733 132.079 457.733C132.337 457.733 132.66 457.738 133.048 457.748C133.436 457.758 133.729 457.773 133.928 457.793V461.372C133.809 461.342 133.535 461.298 133.108 461.238C132.69 461.168 132.248 461.134 131.78 461.134C130.667 461.134 129.672 461.367 128.797 461.835C127.932 462.292 127.246 462.928 126.739 463.744C126.242 464.549 125.993 465.469 125.993 466.503V481H122.474ZM166.14 463.222L162.978 464.116C162.779 463.589 162.486 463.077 162.098 462.58C161.721 462.073 161.203 461.656 160.547 461.327C159.891 460.999 159.051 460.835 158.027 460.835C156.625 460.835 155.456 461.158 154.522 461.805C153.597 462.441 153.135 463.251 153.135 464.236C153.135 465.111 153.453 465.802 154.089 466.309C154.725 466.816 155.72 467.239 157.072 467.577L160.473 468.412C162.521 468.909 164.047 469.67 165.051 470.694C166.056 471.708 166.558 473.016 166.558 474.616C166.558 475.929 166.18 477.102 165.424 478.136C164.679 479.17 163.635 479.986 162.292 480.582C160.95 481.179 159.389 481.477 157.609 481.477C155.272 481.477 153.338 480.97 151.807 479.956C150.276 478.942 149.306 477.46 148.899 475.511L152.24 474.676C152.558 475.909 153.159 476.834 154.044 477.45C154.939 478.067 156.108 478.375 157.549 478.375C159.19 478.375 160.493 478.027 161.457 477.331C162.431 476.625 162.919 475.78 162.919 474.795C162.919 474 162.64 473.334 162.083 472.797C161.527 472.25 160.672 471.842 159.518 471.574L155.7 470.679C153.602 470.182 152.061 469.411 151.076 468.367C150.102 467.313 149.615 465.996 149.615 464.415C149.615 463.122 149.978 461.979 150.703 460.984C151.439 459.99 152.439 459.21 153.701 458.643C154.974 458.076 156.416 457.793 158.027 457.793C160.294 457.793 162.074 458.29 163.366 459.284C164.669 460.278 165.593 461.591 166.14 463.222ZM181.163 481.477C179.015 481.477 177.166 480.97 175.615 479.956C174.064 478.942 172.871 477.545 172.035 475.765C171.2 473.985 170.782 471.952 170.782 469.665C170.782 467.338 171.21 465.285 172.065 463.505C172.93 461.715 174.133 460.318 175.675 459.314C177.226 458.3 179.035 457.793 181.104 457.793C182.714 457.793 184.166 458.091 185.459 458.688C186.751 459.284 187.81 460.119 188.635 461.193C189.461 462.267 189.973 463.52 190.172 464.952H186.652C186.383 463.908 185.787 462.983 184.862 462.178C183.947 461.362 182.714 460.955 181.163 460.955C179.791 460.955 178.588 461.312 177.554 462.028C176.53 462.734 175.729 463.734 175.153 465.026C174.586 466.309 174.302 467.815 174.302 469.545C174.302 471.315 174.581 472.857 175.138 474.169C175.704 475.482 176.5 476.501 177.524 477.227C178.558 477.952 179.771 478.315 181.163 478.315C182.078 478.315 182.908 478.156 183.654 477.838C184.4 477.52 185.031 477.062 185.548 476.466C186.065 475.869 186.433 475.153 186.652 474.318H190.172C189.973 475.67 189.481 476.888 188.695 477.972C187.92 479.046 186.89 479.901 185.608 480.538C184.335 481.164 182.854 481.477 181.163 481.477ZM195.317 481V458.091H198.837V481H195.317ZM197.107 454.273C196.421 454.273 195.829 454.039 195.332 453.572C194.845 453.104 194.601 452.543 194.601 451.886C194.601 451.23 194.845 450.668 195.332 450.201C195.829 449.734 196.421 449.5 197.107 449.5C197.793 449.5 198.38 449.734 198.867 450.201C199.364 450.668 199.613 451.23 199.613 451.886C199.613 452.543 199.364 453.104 198.867 453.572C198.38 454.039 197.793 454.273 197.107 454.273ZM214.889 481.477C212.682 481.477 210.778 480.99 209.177 480.016C207.586 479.031 206.358 477.659 205.493 475.899C204.638 474.129 204.21 472.071 204.21 469.724C204.21 467.378 204.638 465.31 205.493 463.52C206.358 461.72 207.561 460.318 209.102 459.314C210.653 458.3 212.463 457.793 214.531 457.793C215.724 457.793 216.903 457.991 218.066 458.389C219.229 458.787 220.288 459.433 221.243 460.328C222.197 461.213 222.958 462.386 223.525 463.848C224.092 465.31 224.375 467.109 224.375 469.247V470.739H206.716V467.696H220.795C220.795 466.403 220.537 465.25 220.02 464.236C219.513 463.222 218.787 462.421 217.842 461.835C216.908 461.248 215.804 460.955 214.531 460.955C213.129 460.955 211.916 461.303 210.892 461.999C209.878 462.685 209.097 463.58 208.55 464.683C208.004 465.787 207.73 466.97 207.73 468.233V470.261C207.73 471.991 208.028 473.458 208.625 474.661C209.232 475.854 210.072 476.764 211.146 477.391C212.219 478.007 213.467 478.315 214.889 478.315C215.814 478.315 216.649 478.186 217.395 477.928C218.151 477.659 218.802 477.261 219.349 476.734C219.896 476.197 220.318 475.531 220.616 474.736L224.017 475.69C223.659 476.844 223.058 477.858 222.212 478.733C221.367 479.598 220.323 480.274 219.08 480.761C217.837 481.239 216.44 481.477 214.889 481.477ZM233.249 467.219V481H229.729V458.091H233.13V461.67H233.428C233.965 460.507 234.781 459.572 235.874 458.866C236.968 458.151 238.38 457.793 240.11 457.793C241.661 457.793 243.018 458.111 244.182 458.747C245.345 459.374 246.25 460.328 246.896 461.611C247.543 462.884 247.866 464.494 247.866 466.443V481H244.346V466.682C244.346 464.882 243.879 463.48 242.944 462.476C242.009 461.462 240.727 460.955 239.096 460.955C237.972 460.955 236.968 461.198 236.083 461.685C235.208 462.173 234.517 462.884 234.01 463.818C233.503 464.753 233.249 465.886 233.249 467.219ZM264.261 458.091V461.074H252.389V458.091H264.261ZM255.849 452.602H259.369V474.438C259.369 475.432 259.513 476.178 259.801 476.675C260.1 477.162 260.477 477.49 260.935 477.659C261.402 477.818 261.894 477.898 262.411 477.898C262.799 477.898 263.117 477.878 263.366 477.838C263.615 477.788 263.813 477.749 263.963 477.719L264.678 480.881C264.44 480.97 264.107 481.06 263.679 481.149C263.252 481.249 262.71 481.298 262.053 481.298C261.059 481.298 260.085 481.085 259.13 480.657C258.186 480.229 257.4 479.578 256.774 478.703C256.157 477.828 255.849 476.724 255.849 475.392V452.602ZM269.556 481V458.091H273.075V481H269.556ZM271.345 454.273C270.659 454.273 270.068 454.039 269.57 453.572C269.083 453.104 268.84 452.543 268.84 451.886C268.84 451.23 269.083 450.668 269.57 450.201C270.068 449.734 270.659 449.5 271.345 449.5C272.031 449.5 272.618 449.734 273.105 450.201C273.602 450.668 273.851 451.23 273.851 451.886C273.851 452.543 273.602 453.104 273.105 453.572C272.618 454.039 272.031 454.273 271.345 454.273ZM295.75 463.222L292.588 464.116C292.389 463.589 292.096 463.077 291.708 462.58C291.33 462.073 290.813 461.656 290.157 461.327C289.5 460.999 288.66 460.835 287.636 460.835C286.234 460.835 285.066 461.158 284.131 461.805C283.206 462.441 282.744 463.251 282.744 464.236C282.744 465.111 283.062 465.802 283.699 466.309C284.335 466.816 285.329 467.239 286.681 467.577L290.082 468.412C292.13 468.909 293.657 469.67 294.661 470.694C295.665 471.708 296.167 473.016 296.167 474.616C296.167 475.929 295.789 477.102 295.034 478.136C294.288 479.17 293.244 479.986 291.902 480.582C290.559 481.179 288.998 481.477 287.218 481.477C284.882 481.477 282.948 480.97 281.417 479.956C279.885 478.942 278.916 477.46 278.508 475.511L281.849 474.676C282.167 475.909 282.769 476.834 283.654 477.45C284.549 478.067 285.717 478.375 287.159 478.375C288.799 478.375 290.102 478.027 291.066 477.331C292.041 476.625 292.528 475.78 292.528 474.795C292.528 474 292.25 473.334 291.693 472.797C291.136 472.25 290.281 471.842 289.127 471.574L285.309 470.679C283.211 470.182 281.67 469.411 280.686 468.367C279.711 467.313 279.224 465.996 279.224 464.415C279.224 463.122 279.587 461.979 280.313 460.984C281.049 459.99 282.048 459.21 283.311 458.643C284.583 458.076 286.025 457.793 287.636 457.793C289.903 457.793 291.683 458.29 292.975 459.284C294.278 460.278 295.203 461.591 295.75 463.222ZM311.429 458.091V461.074H299.557V458.091H311.429ZM303.017 452.602H306.537V474.438C306.537 475.432 306.681 476.178 306.969 476.675C307.268 477.162 307.645 477.49 308.103 477.659C308.57 477.818 309.062 477.898 309.579 477.898C309.967 477.898 310.285 477.878 310.534 477.838C310.782 477.788 310.981 477.749 311.131 477.719L311.846 480.881C311.608 480.97 311.275 481.06 310.847 481.149C310.42 481.249 309.878 481.298 309.221 481.298C308.227 481.298 307.253 481.085 306.298 480.657C305.354 480.229 304.568 479.578 303.942 478.703C303.325 477.828 303.017 476.724 303.017 475.392V452.602ZM332.541 463.222L329.379 464.116C329.18 463.589 328.887 463.077 328.499 462.58C328.121 462.073 327.604 461.656 326.948 461.327C326.291 460.999 325.451 460.835 324.427 460.835C323.025 460.835 321.857 461.158 320.922 461.805C319.997 462.441 319.535 463.251 319.535 464.236C319.535 465.111 319.853 465.802 320.49 466.309C321.126 466.816 322.12 467.239 323.472 467.577L326.873 468.412C328.921 468.909 330.448 469.67 331.452 470.694C332.456 471.708 332.958 473.016 332.958 474.616C332.958 475.929 332.58 477.102 331.825 478.136C331.079 479.17 330.035 479.986 328.693 480.582C327.35 481.179 325.789 481.477 324.009 481.477C321.673 481.477 319.739 480.97 318.208 479.956C316.676 478.942 315.707 477.46 315.299 475.511L318.64 474.676C318.958 475.909 319.56 476.834 320.445 477.45C321.34 478.067 322.508 478.375 323.95 478.375C325.59 478.375 326.893 478.027 327.857 477.331C328.832 476.625 329.319 475.78 329.319 474.795C329.319 474 329.041 473.334 328.484 472.797C327.927 472.25 327.072 471.842 325.919 471.574L322.1 470.679C320.002 470.182 318.461 469.411 317.477 468.367C316.502 467.313 316.015 465.996 316.015 464.415C316.015 463.122 316.378 461.979 317.104 460.984C317.84 459.99 318.839 459.21 320.102 458.643C321.374 458.076 322.816 457.793 324.427 457.793C326.694 457.793 328.474 458.29 329.767 459.284C331.069 460.278 331.994 461.591 332.541 463.222ZM340.822 481.239C340.086 481.239 339.455 480.975 338.928 480.448C338.401 479.921 338.137 479.29 338.137 478.554C338.137 477.818 338.401 477.187 338.928 476.66C339.455 476.133 340.086 475.869 340.822 475.869C341.558 475.869 342.189 476.133 342.716 476.66C343.243 477.187 343.507 477.818 343.507 478.554C343.507 479.041 343.382 479.489 343.134 479.896C342.895 480.304 342.572 480.632 342.164 480.881C341.767 481.119 341.319 481.239 340.822 481.239Z" fill="white"/>
<defs>
<linearGradient id="paint0_linear_58_1247" x1="0" y1="0" x2="800" y2="600" gradientUnits="userSpaceOnUse">
<stop stop-color="#0F61FF"/>
<stop offset="0.247157" stop-color="#16F397"/>
<stop offset="0.414969" stop-color="#1071F3"/>
<stop offset="0.569183" stop-color="#16EC9A"/>
<stop offset="0.759575" stop-color="#118EDE"/>
<stop offset="1" stop-color="#16F296"/>
</linearGradient>
</defs>
</svg>
