<svg width="800" height="600" viewBox="0 0 800 600" fill="none" xmlns="http://www.w3.org/2000/svg">
<rect width="800" height="600" fill="white"/>
<path d="M53.6818 88H33.0568V29.8182H53.8523C59.7045 29.8182 64.7424 30.983 68.9659 33.3125C73.1894 35.6231 76.4375 38.947 78.7102 43.2841C81.0019 47.6212 82.1477 52.8106 82.1477 58.8523C82.1477 64.9129 81.0019 70.1212 78.7102 74.4773C76.4375 78.8333 73.1705 82.1761 68.9091 84.5057C64.6667 86.8352 59.5909 88 53.6818 88ZM45.358 77.4602H53.1705C56.8068 77.4602 59.8655 76.8163 62.3466 75.5284C64.8466 74.2216 66.7216 72.2045 67.9716 69.4773C69.2405 66.7311 69.875 63.1894 69.875 58.8523C69.875 54.553 69.2405 51.0398 67.9716 48.3125C66.7216 45.5852 64.8561 43.5777 62.375 42.2898C59.8939 41.0019 56.8352 40.358 53.1989 40.358H45.358V77.4602ZM110.919 88.8523C106.43 88.8523 102.567 87.9432 99.3281 86.125C96.1084 84.2879 93.6274 81.6932 91.8849 78.3409C90.1425 74.9697 89.2713 70.983 89.2713 66.3807C89.2713 61.892 90.1425 57.9527 91.8849 54.5625C93.6274 51.1723 96.08 48.5303 99.2429 46.6364C102.425 44.7424 106.156 43.7955 110.436 43.7955C113.315 43.7955 115.995 44.2595 118.476 45.1875C120.976 46.0966 123.154 47.4697 125.01 49.3068C126.885 51.1439 128.343 53.4545 129.385 56.2386C130.427 59.0038 130.947 62.2424 130.947 65.9545V69.2784H94.1009V61.7784H119.555C119.555 60.036 119.177 58.4924 118.419 57.1477C117.661 55.803 116.61 54.7519 115.266 53.9943C113.94 53.2178 112.396 52.8295 110.635 52.8295C108.798 52.8295 107.169 53.2557 105.749 54.108C104.347 54.9413 103.249 56.0682 102.453 57.4886C101.658 58.8902 101.25 60.4527 101.232 62.1761V69.3068C101.232 71.4659 101.629 73.3314 102.425 74.9034C103.239 76.4754 104.385 77.6875 105.862 78.5398C107.339 79.392 109.091 79.8182 111.118 79.8182C112.463 79.8182 113.694 79.6288 114.811 79.25C115.929 78.8712 116.885 78.303 117.68 77.5455C118.476 76.7879 119.082 75.8598 119.499 74.7614L130.692 75.5C130.124 78.1894 128.959 80.5379 127.197 82.5455C125.455 84.5341 123.201 86.0871 120.436 87.2045C117.69 88.303 114.518 88.8523 110.919 88.8523ZM175.152 56.8068L164.072 57.4886C163.883 56.5417 163.476 55.6894 162.851 54.9318C162.226 54.1553 161.402 53.5398 160.379 53.0852C159.375 52.6117 158.173 52.375 156.771 52.375C154.896 52.375 153.315 52.7727 152.027 53.5682C150.739 54.3447 150.095 55.3864 150.095 56.6932C150.095 57.7348 150.512 58.6155 151.345 59.3352C152.179 60.0549 153.608 60.6326 155.635 61.0682L163.533 62.6591C167.775 63.5303 170.938 64.9318 173.021 66.8636C175.105 68.7955 176.146 71.3333 176.146 74.4773C176.146 77.3371 175.304 79.8466 173.618 82.0057C171.951 84.1648 169.66 85.8504 166.743 87.0625C163.845 88.2557 160.502 88.8523 156.714 88.8523C150.938 88.8523 146.336 87.6496 142.908 85.2443C139.499 82.8201 137.5 79.5246 136.913 75.358L148.817 74.733C149.177 76.4943 150.048 77.839 151.43 78.767C152.813 79.6761 154.584 80.1307 156.743 80.1307C158.864 80.1307 160.569 79.7235 161.857 78.9091C163.163 78.0758 163.826 77.0057 163.845 75.6989C163.826 74.6004 163.362 73.7008 162.453 73C161.544 72.2803 160.143 71.7311 158.249 71.3523L150.692 69.8466C146.43 68.9943 143.258 67.517 141.175 65.4148C139.11 63.3125 138.078 60.6326 138.078 57.375C138.078 54.572 138.836 52.1572 140.351 50.1307C141.885 48.1042 144.035 46.5417 146.8 45.4432C149.584 44.3447 152.841 43.7955 156.572 43.7955C162.084 43.7955 166.421 44.9602 169.584 47.2898C172.766 49.6193 174.622 52.7917 175.152 56.8068ZM183.767 88V44.3636H195.869V88H183.767ZM189.847 38.7386C188.047 38.7386 186.504 38.142 185.216 36.9489C183.947 35.7367 183.312 34.2879 183.312 32.6023C183.312 30.9356 183.947 29.5057 185.216 28.3125C186.504 27.1004 188.047 26.4943 189.847 26.4943C191.646 26.4943 193.18 27.1004 194.449 28.3125C195.737 29.5057 196.381 30.9356 196.381 32.6023C196.381 34.2879 195.737 35.7367 194.449 36.9489C193.18 38.142 191.646 38.7386 189.847 38.7386ZM225.223 105.273C221.303 105.273 217.941 104.733 215.138 103.653C212.354 102.593 210.138 101.144 208.49 99.3068C206.842 97.4697 205.772 95.4053 205.28 93.1136L216.473 91.608C216.814 92.4792 217.354 93.2936 218.092 94.0511C218.831 94.8087 219.806 95.4148 221.018 95.8693C222.25 96.3428 223.746 96.5795 225.507 96.5795C228.14 96.5795 230.308 95.9356 232.013 94.6477C233.736 93.3788 234.598 91.2481 234.598 88.2557V80.2727H234.087C233.556 81.4848 232.761 82.6307 231.7 83.7102C230.64 84.7898 229.276 85.6705 227.609 86.3523C225.943 87.0341 223.954 87.375 221.643 87.375C218.367 87.375 215.384 86.6174 212.695 85.1023C210.024 83.5682 207.893 81.2292 206.303 78.0852C204.731 74.9223 203.945 70.9261 203.945 66.0966C203.945 61.1534 204.75 57.0246 206.359 53.7102C207.969 50.3958 210.109 47.9148 212.78 46.267C215.469 44.6193 218.414 43.7955 221.615 43.7955C224.058 43.7955 226.104 44.2121 227.751 45.0455C229.399 45.8598 230.725 46.8826 231.729 48.1136C232.751 49.3258 233.537 50.5189 234.087 51.6932H234.541V44.3636H246.558V88.4261C246.558 92.1383 245.649 95.2443 243.831 97.7443C242.013 100.244 239.494 102.119 236.274 103.369C233.073 104.638 229.39 105.273 225.223 105.273ZM225.479 78.2841C227.429 78.2841 229.077 77.8011 230.422 76.8352C231.786 75.8504 232.827 74.4489 233.547 72.6307C234.286 70.7936 234.655 68.5966 234.655 66.0398C234.655 63.483 234.295 61.267 233.575 59.392C232.856 57.4981 231.814 56.0303 230.45 54.9886C229.087 53.947 227.429 53.4261 225.479 53.4261C223.49 53.4261 221.814 53.9659 220.45 55.0455C219.087 56.1061 218.054 57.5833 217.354 59.4773C216.653 61.3712 216.303 63.5587 216.303 66.0398C216.303 68.5587 216.653 70.7367 217.354 72.5739C218.073 74.392 219.106 75.803 220.45 76.8068C221.814 77.7917 223.49 78.2841 225.479 78.2841ZM268.291 62.7727V88H256.189V44.3636H267.723V52.0625H268.234C269.2 49.5246 270.82 47.517 273.092 46.0398C275.365 44.5436 278.121 43.7955 281.359 43.7955C284.39 43.7955 287.032 44.4583 289.286 45.7841C291.539 47.1098 293.291 49.0038 294.541 51.4659C295.791 53.9091 296.416 56.8258 296.416 60.2159V88H284.314V62.375C284.333 59.7045 283.651 57.6212 282.268 56.125C280.886 54.6098 278.982 53.8523 276.558 53.8523C274.929 53.8523 273.49 54.2027 272.24 54.9034C271.009 55.6042 270.043 56.6269 269.342 57.9716C268.661 59.2973 268.31 60.8977 268.291 62.7727ZM56.2955 124.364V133.455H29.3636V124.364H56.2955ZM35.5284 168V121.21C35.5284 118.047 36.1439 115.424 37.375 113.341C38.625 111.258 40.3295 109.695 42.4886 108.653C44.6477 107.612 47.1004 107.091 49.8466 107.091C51.7027 107.091 53.3977 107.233 54.9318 107.517C56.4848 107.801 57.6402 108.057 58.3977 108.284L56.2386 117.375C55.7652 117.223 55.178 117.081 54.4773 116.949C53.7955 116.816 53.0947 116.75 52.375 116.75C50.5947 116.75 49.3542 117.167 48.6534 118C47.9527 118.814 47.6023 119.96 47.6023 121.438V168H35.5284ZM81.8423 168.852C77.4295 168.852 73.6132 167.915 70.3935 166.04C67.1927 164.146 64.7211 161.513 62.9787 158.142C61.2363 154.752 60.3651 150.822 60.3651 146.352C60.3651 141.845 61.2363 137.905 62.9787 134.534C64.7211 131.144 67.1927 128.511 70.3935 126.636C73.6132 124.742 77.4295 123.795 81.8423 123.795C86.2552 123.795 90.062 124.742 93.2628 126.636C96.4825 128.511 98.9635 131.144 100.706 134.534C102.448 137.905 103.32 141.845 103.32 146.352C103.32 150.822 102.448 154.752 100.706 158.142C98.9635 161.513 96.4825 164.146 93.2628 166.04C90.062 167.915 86.2552 168.852 81.8423 168.852ZM81.8991 159.477C83.9067 159.477 85.5829 158.909 86.9276 157.773C88.2723 156.617 89.2855 155.045 89.9673 153.057C90.6681 151.068 91.0185 148.805 91.0185 146.267C91.0185 143.729 90.6681 141.466 89.9673 139.477C89.2855 137.489 88.2723 135.917 86.9276 134.761C85.5829 133.606 83.9067 133.028 81.8991 133.028C79.8726 133.028 78.1681 133.606 76.7855 134.761C75.4219 135.917 74.3897 137.489 73.6889 139.477C73.0071 141.466 72.6662 143.729 72.6662 146.267C72.6662 148.805 73.0071 151.068 73.6889 153.057C74.3897 155.045 75.4219 156.617 76.7855 157.773C78.1681 158.909 79.8726 159.477 81.8991 159.477ZM111.189 168V124.364H122.922V131.977H123.376C124.172 129.269 125.507 127.223 127.382 125.841C129.257 124.439 131.416 123.739 133.859 123.739C134.465 123.739 135.119 123.777 135.82 123.852C136.52 123.928 137.136 124.032 137.666 124.165V134.903C137.098 134.733 136.312 134.581 135.308 134.449C134.304 134.316 133.386 134.25 132.553 134.25C130.772 134.25 129.181 134.638 127.78 135.415C126.397 136.172 125.299 137.233 124.484 138.597C123.689 139.96 123.291 141.532 123.291 143.312V168H111.189ZM64.6193 206.551C64.392 204.259 63.4167 202.479 61.6932 201.21C59.9697 199.941 57.6307 199.307 54.6761 199.307C52.6686 199.307 50.9735 199.591 49.5909 200.159C48.2083 200.708 47.1477 201.475 46.4091 202.46C45.6894 203.445 45.3295 204.562 45.3295 205.812C45.2917 206.854 45.5095 207.763 45.983 208.54C46.4754 209.316 47.1477 209.989 48 210.557C48.8523 211.106 49.8371 211.589 50.9545 212.006C52.072 212.403 53.2652 212.744 54.5341 213.028L59.7614 214.278C62.2992 214.847 64.6288 215.604 66.75 216.551C68.8712 217.498 70.7083 218.663 72.2614 220.045C73.8144 221.428 75.017 223.057 75.8693 224.932C76.7405 226.807 77.1856 228.956 77.2045 231.381C77.1856 234.941 76.2765 238.028 74.4773 240.642C72.697 243.237 70.1212 245.254 66.75 246.693C63.3977 248.114 59.3542 248.824 54.6193 248.824C49.9223 248.824 45.8314 248.104 42.3466 246.665C38.8807 245.225 36.1723 243.095 34.2216 240.273C32.2898 237.432 31.2765 233.919 31.1818 229.733H43.0852C43.2178 231.684 43.7765 233.312 44.7614 234.619C45.7652 235.907 47.1004 236.883 48.767 237.545C50.4527 238.189 52.3561 238.511 54.4773 238.511C56.5606 238.511 58.3693 238.208 59.9034 237.602C61.4564 236.996 62.6591 236.153 63.5114 235.074C64.3636 233.994 64.7898 232.754 64.7898 231.352C64.7898 230.045 64.4015 228.947 63.625 228.057C62.8674 227.167 61.75 226.409 60.2727 225.784C58.8144 225.159 57.0246 224.591 54.9034 224.08L48.5682 222.489C43.6629 221.295 39.7898 219.43 36.9489 216.892C34.108 214.354 32.697 210.936 32.7159 206.636C32.697 203.114 33.6345 200.036 35.5284 197.403C37.4413 194.771 40.0644 192.716 43.3977 191.239C46.7311 189.761 50.5189 189.023 54.7614 189.023C59.0795 189.023 62.8485 189.761 66.0682 191.239C69.3068 192.716 71.8258 194.771 73.625 197.403C75.4242 200.036 76.3523 203.085 76.4091 206.551H64.6193ZM104.967 248.852C100.498 248.852 96.6529 247.905 93.4332 246.011C90.2325 244.098 87.7704 241.447 86.0469 238.057C84.3423 234.667 83.4901 230.765 83.4901 226.352C83.4901 221.883 84.3518 217.962 86.0753 214.591C87.8177 211.201 90.2893 208.559 93.4901 206.665C96.6908 204.752 100.498 203.795 104.911 203.795C108.717 203.795 112.051 204.487 114.911 205.869C117.77 207.252 120.034 209.193 121.7 211.693C123.367 214.193 124.286 217.129 124.456 220.5H113.036C112.714 218.322 111.861 216.57 110.479 215.244C109.115 213.9 107.325 213.227 105.109 213.227C103.234 213.227 101.596 213.739 100.195 214.761C98.812 215.765 97.7325 217.233 96.956 219.165C96.1795 221.097 95.7912 223.436 95.7912 226.182C95.7912 228.966 96.17 231.333 96.9276 233.284C97.7041 235.235 98.7931 236.722 100.195 237.744C101.596 238.767 103.234 239.278 105.109 239.278C106.492 239.278 107.732 238.994 108.831 238.426C109.948 237.858 110.867 237.034 111.587 235.955C112.325 234.856 112.808 233.54 113.036 232.006H124.456C124.267 235.339 123.357 238.275 121.729 240.812C120.119 243.331 117.893 245.301 115.053 246.722C112.212 248.142 108.85 248.852 104.967 248.852ZM132.205 248V204.364H144.307V248H132.205ZM138.284 198.739C136.485 198.739 134.941 198.142 133.653 196.949C132.384 195.737 131.75 194.288 131.75 192.602C131.75 190.936 132.384 189.506 133.653 188.312C134.941 187.1 136.485 186.494 138.284 186.494C140.083 186.494 141.617 187.1 142.886 188.312C144.174 189.506 144.818 190.936 144.818 192.602C144.818 194.288 144.174 195.737 142.886 196.949C141.617 198.142 140.083 198.739 138.284 198.739ZM173.888 248.852C169.399 248.852 165.536 247.943 162.297 246.125C159.077 244.288 156.596 241.693 154.854 238.341C153.111 234.97 152.24 230.983 152.24 226.381C152.24 221.892 153.111 217.953 154.854 214.562C156.596 211.172 159.049 208.53 162.212 206.636C165.393 204.742 169.125 203.795 173.405 203.795C176.284 203.795 178.964 204.259 181.445 205.188C183.945 206.097 186.123 207.47 187.979 209.307C189.854 211.144 191.312 213.455 192.354 216.239C193.395 219.004 193.916 222.242 193.916 225.955V229.278H157.07V221.778H182.524C182.524 220.036 182.145 218.492 181.388 217.148C180.63 215.803 179.579 214.752 178.234 213.994C176.909 213.218 175.365 212.83 173.604 212.83C171.767 212.83 170.138 213.256 168.717 214.108C167.316 214.941 166.217 216.068 165.422 217.489C164.626 218.89 164.219 220.453 164.2 222.176V229.307C164.2 231.466 164.598 233.331 165.393 234.903C166.208 236.475 167.354 237.688 168.831 238.54C170.308 239.392 172.06 239.818 174.087 239.818C175.431 239.818 176.662 239.629 177.78 239.25C178.897 238.871 179.854 238.303 180.649 237.545C181.445 236.788 182.051 235.86 182.467 234.761L193.661 235.5C193.092 238.189 191.928 240.538 190.166 242.545C188.424 244.534 186.17 246.087 183.405 247.205C180.659 248.303 177.486 248.852 173.888 248.852ZM213.916 222.773V248H201.814V204.364H213.348V212.062H213.859C214.825 209.525 216.445 207.517 218.717 206.04C220.99 204.544 223.746 203.795 226.984 203.795C230.015 203.795 232.657 204.458 234.911 205.784C237.164 207.11 238.916 209.004 240.166 211.466C241.416 213.909 242.041 216.826 242.041 220.216V248H229.939V222.375C229.958 219.705 229.276 217.621 227.893 216.125C226.511 214.61 224.607 213.852 222.183 213.852C220.554 213.852 219.115 214.203 217.865 214.903C216.634 215.604 215.668 216.627 214.967 217.972C214.286 219.297 213.935 220.898 213.916 222.773ZM274.79 204.364V213.455H248.511V204.364H274.79ZM254.477 193.909H266.58V234.591C266.58 235.708 266.75 236.58 267.091 237.205C267.432 237.811 267.905 238.237 268.511 238.483C269.136 238.729 269.856 238.852 270.67 238.852C271.239 238.852 271.807 238.805 272.375 238.71C272.943 238.597 273.379 238.511 273.682 238.455L275.585 247.46C274.979 247.65 274.127 247.867 273.028 248.114C271.93 248.379 270.595 248.54 269.023 248.597C266.106 248.71 263.549 248.322 261.352 247.432C259.174 246.542 257.479 245.159 256.267 243.284C255.055 241.409 254.458 239.042 254.477 236.182V193.909ZM282.673 248V204.364H294.776V248H282.673ZM288.753 198.739C286.954 198.739 285.41 198.142 284.122 196.949C282.853 195.737 282.219 194.288 282.219 192.602C282.219 190.936 282.853 189.506 284.122 188.312C285.41 187.1 286.954 186.494 288.753 186.494C290.552 186.494 292.086 187.1 293.355 188.312C294.643 189.506 295.287 190.936 295.287 192.602C295.287 194.288 294.643 195.737 293.355 196.949C292.086 198.142 290.552 198.739 288.753 198.739ZM340.777 216.807L329.697 217.489C329.508 216.542 329.101 215.689 328.476 214.932C327.851 214.155 327.027 213.54 326.004 213.085C325 212.612 323.798 212.375 322.396 212.375C320.521 212.375 318.94 212.773 317.652 213.568C316.364 214.345 315.72 215.386 315.72 216.693C315.72 217.735 316.137 218.616 316.97 219.335C317.804 220.055 319.233 220.633 321.26 221.068L329.158 222.659C333.4 223.53 336.563 224.932 338.646 226.864C340.73 228.795 341.771 231.333 341.771 234.477C341.771 237.337 340.929 239.847 339.243 242.006C337.576 244.165 335.285 245.85 332.368 247.062C329.47 248.256 326.127 248.852 322.339 248.852C316.563 248.852 311.961 247.65 308.533 245.244C305.124 242.82 303.125 239.525 302.538 235.358L314.442 234.733C314.802 236.494 315.673 237.839 317.055 238.767C318.438 239.676 320.209 240.131 322.368 240.131C324.489 240.131 326.194 239.723 327.482 238.909C328.788 238.076 329.451 237.006 329.47 235.699C329.451 234.6 328.987 233.701 328.078 233C327.169 232.28 325.768 231.731 323.874 231.352L316.317 229.847C312.055 228.994 308.883 227.517 306.8 225.415C304.735 223.312 303.703 220.633 303.703 217.375C303.703 214.572 304.461 212.157 305.976 210.131C307.51 208.104 309.66 206.542 312.425 205.443C315.209 204.345 318.466 203.795 322.197 203.795C327.709 203.795 332.046 204.96 335.209 207.29C338.391 209.619 340.247 212.792 340.777 216.807ZM372.602 204.364V213.455H346.324V204.364H372.602ZM352.29 193.909H364.392V234.591C364.392 235.708 364.563 236.58 364.903 237.205C365.244 237.811 365.718 238.237 366.324 238.483C366.949 238.729 367.669 238.852 368.483 238.852C369.051 238.852 369.619 238.805 370.188 238.71C370.756 238.597 371.191 238.511 371.494 238.455L373.398 247.46C372.792 247.65 371.939 247.867 370.841 248.114C369.742 248.379 368.407 248.54 366.835 248.597C363.919 248.71 361.362 248.322 359.165 247.432C356.987 246.542 355.292 245.159 354.08 243.284C352.867 241.409 352.271 239.042 352.29 236.182V193.909ZM416.246 216.807L405.166 217.489C404.977 216.542 404.57 215.689 403.945 214.932C403.32 214.155 402.496 213.54 401.473 213.085C400.469 212.612 399.267 212.375 397.865 212.375C395.99 212.375 394.409 212.773 393.121 213.568C391.833 214.345 391.189 215.386 391.189 216.693C391.189 217.735 391.606 218.616 392.439 219.335C393.272 220.055 394.702 220.633 396.729 221.068L404.626 222.659C408.869 223.53 412.032 224.932 414.115 226.864C416.198 228.795 417.24 231.333 417.24 234.477C417.24 237.337 416.397 239.847 414.712 242.006C413.045 244.165 410.753 245.85 407.837 247.062C404.939 248.256 401.596 248.852 397.808 248.852C392.032 248.852 387.429 247.65 384.001 245.244C380.592 242.82 378.594 239.525 378.007 235.358L389.911 234.733C390.27 236.494 391.142 237.839 392.524 238.767C393.907 239.676 395.678 240.131 397.837 240.131C399.958 240.131 401.662 239.723 402.95 238.909C404.257 238.076 404.92 237.006 404.939 235.699C404.92 234.6 404.456 233.701 403.547 233C402.638 232.28 401.236 231.731 399.342 231.352L391.786 229.847C387.524 228.994 384.352 227.517 382.268 225.415C380.204 223.312 379.172 220.633 379.172 217.375C379.172 214.572 379.929 212.157 381.445 210.131C382.979 208.104 385.128 206.542 387.893 205.443C390.678 204.345 393.935 203.795 397.666 203.795C403.178 203.795 407.515 204.96 410.678 207.29C413.859 209.619 415.715 212.792 416.246 216.807Z" fill="#F161C8"/>
<rect x="28" y="288" width="160" height="59" rx="20" fill="#2DED91"/>
<path d="M94.7727 305.727V329H92.0455L79.3636 310.727H79.1364V329H76.3182V305.727H79.0455L91.7727 324.045H92V305.727H94.7727ZM107.366 329.364C105.685 329.364 104.234 328.992 103.014 328.25C101.802 327.5 100.866 326.455 100.207 325.114C99.5559 323.765 99.2301 322.197 99.2301 320.409C99.2301 318.621 99.5559 317.045 100.207 315.682C100.866 314.311 101.783 313.242 102.957 312.477C104.139 311.705 105.518 311.318 107.094 311.318C108.003 311.318 108.901 311.47 109.787 311.773C110.673 312.076 111.48 312.568 112.207 313.25C112.935 313.924 113.514 314.818 113.946 315.932C114.378 317.045 114.594 318.417 114.594 320.045V321.182H101.139V318.864H111.866C111.866 317.879 111.67 317 111.276 316.227C110.889 315.455 110.336 314.845 109.616 314.398C108.904 313.951 108.063 313.727 107.094 313.727C106.026 313.727 105.101 313.992 104.321 314.523C103.548 315.045 102.954 315.727 102.537 316.568C102.12 317.409 101.912 318.311 101.912 319.273V320.818C101.912 322.136 102.139 323.254 102.594 324.17C103.056 325.08 103.696 325.773 104.514 326.25C105.332 326.72 106.283 326.955 107.366 326.955C108.071 326.955 108.707 326.856 109.276 326.659C109.851 326.455 110.348 326.152 110.764 325.75C111.181 325.341 111.503 324.833 111.73 324.227L114.321 324.955C114.048 325.833 113.59 326.606 112.946 327.273C112.302 327.932 111.507 328.447 110.56 328.818C109.613 329.182 108.548 329.364 107.366 329.364ZM122.628 329L117.31 311.545H120.128L123.901 324.909H124.082L127.81 311.545H130.673L134.355 324.864H134.537L138.31 311.545H141.128L135.81 329H133.173L129.355 315.591H129.082L125.264 329H122.628Z" fill="#8F53F2"/>
<rect x="200" y="288" width="160" height="59" rx="20" fill="#A183F7"/>
<path d="M254.455 317.364C254.455 319.818 254.011 321.939 253.125 323.727C252.239 325.515 251.023 326.894 249.477 327.864C247.932 328.833 246.167 329.318 244.182 329.318C242.197 329.318 240.432 328.833 238.886 327.864C237.341 326.894 236.125 325.515 235.239 323.727C234.352 321.939 233.909 319.818 233.909 317.364C233.909 314.909 234.352 312.788 235.239 311C236.125 309.212 237.341 307.833 238.886 306.864C240.432 305.894 242.197 305.409 244.182 305.409C246.167 305.409 247.932 305.894 249.477 306.864C251.023 307.833 252.239 309.212 253.125 311C254.011 312.788 254.455 314.909 254.455 317.364ZM251.727 317.364C251.727 315.348 251.39 313.648 250.716 312.261C250.049 310.875 249.144 309.826 248 309.114C246.864 308.402 245.591 308.045 244.182 308.045C242.773 308.045 241.496 308.402 240.352 309.114C239.216 309.826 238.311 310.875 237.636 312.261C236.97 313.648 236.636 315.348 236.636 317.364C236.636 319.379 236.97 321.08 237.636 322.466C238.311 323.852 239.216 324.902 240.352 325.614C241.496 326.326 242.773 326.682 244.182 326.682C245.591 326.682 246.864 326.326 248 325.614C249.144 324.902 250.049 323.852 250.716 322.466C251.39 321.08 251.727 319.379 251.727 317.364ZM261.511 318.5V329H258.83V311.545H261.42V314.273H261.648C262.057 313.386 262.678 312.674 263.511 312.136C264.345 311.591 265.42 311.318 266.739 311.318C267.92 311.318 268.955 311.561 269.841 312.045C270.727 312.523 271.417 313.25 271.909 314.227C272.402 315.197 272.648 316.424 272.648 317.909V329H269.966V318.091C269.966 316.72 269.61 315.652 268.898 314.886C268.186 314.114 267.208 313.727 265.966 313.727C265.11 313.727 264.345 313.913 263.67 314.284C263.004 314.655 262.477 315.197 262.091 315.909C261.705 316.621 261.511 317.485 261.511 318.5ZM280.23 305.727V329H277.548V305.727H280.23ZM285.142 329V311.545H287.824V329H285.142ZM286.506 308.636C285.983 308.636 285.532 308.458 285.153 308.102C284.782 307.746 284.597 307.318 284.597 306.818C284.597 306.318 284.782 305.89 285.153 305.534C285.532 305.178 285.983 305 286.506 305C287.028 305 287.475 305.178 287.847 305.534C288.225 305.89 288.415 306.318 288.415 306.818C288.415 307.318 288.225 307.746 287.847 308.102C287.475 308.458 287.028 308.636 286.506 308.636ZM295.418 318.5V329H292.736V311.545H295.327V314.273H295.554C295.963 313.386 296.584 312.674 297.418 312.136C298.251 311.591 299.327 311.318 300.645 311.318C301.827 311.318 302.861 311.561 303.747 312.045C304.634 312.523 305.323 313.25 305.815 314.227C306.308 315.197 306.554 316.424 306.554 317.909V329H303.872V318.091C303.872 316.72 303.516 315.652 302.804 314.886C302.092 314.114 301.115 313.727 299.872 313.727C299.016 313.727 298.251 313.913 297.577 314.284C296.91 314.655 296.384 315.197 295.997 315.909C295.611 316.621 295.418 317.485 295.418 318.5ZM318.773 329.364C317.091 329.364 315.64 328.992 314.42 328.25C313.208 327.5 312.273 326.455 311.614 325.114C310.962 323.765 310.636 322.197 310.636 320.409C310.636 318.621 310.962 317.045 311.614 315.682C312.273 314.311 313.189 313.242 314.364 312.477C315.545 311.705 316.924 311.318 318.5 311.318C319.409 311.318 320.307 311.47 321.193 311.773C322.08 312.076 322.886 312.568 323.614 313.25C324.341 313.924 324.92 314.818 325.352 315.932C325.784 317.045 326 318.417 326 320.045V321.182H312.545V318.864H323.273C323.273 317.879 323.076 317 322.682 316.227C322.295 315.455 321.742 314.845 321.023 314.398C320.311 313.951 319.47 313.727 318.5 313.727C317.432 313.727 316.508 313.992 315.727 314.523C314.955 315.045 314.36 315.727 313.943 316.568C313.527 317.409 313.318 318.311 313.318 319.273V320.818C313.318 322.136 313.545 323.254 314 324.17C314.462 325.08 315.102 325.773 315.92 326.25C316.739 326.72 317.689 326.955 318.773 326.955C319.477 326.955 320.114 326.856 320.682 326.659C321.258 326.455 321.754 326.152 322.17 325.75C322.587 325.341 322.909 324.833 323.136 324.227L325.727 324.955C325.455 325.833 324.996 326.606 324.352 327.273C323.708 327.932 322.913 328.447 321.966 328.818C321.019 329.182 319.955 329.364 318.773 329.364Z" fill="#FCEE78"/>
<path d="M31.7727 515H28.8182L37.3636 491.727H40.2727L48.8182 515H45.8636L38.9091 495.409H38.7273L31.7727 515ZM32.8636 505.909H44.7727V508.409H32.8636V505.909ZM54.7614 504.5V515H52.0795V497.545H54.6705V500.273H54.8977C55.3068 499.386 55.928 498.674 56.7614 498.136C57.5947 497.591 58.6705 497.318 59.9886 497.318C61.1705 497.318 62.2045 497.561 63.0909 498.045C63.9773 498.523 64.6667 499.25 65.1591 500.227C65.6515 501.197 65.8977 502.424 65.8977 503.909V515H63.2159V504.091C63.2159 502.72 62.8598 501.652 62.1477 500.886C61.4356 500.114 60.4583 499.727 59.2159 499.727C58.3598 499.727 57.5947 499.913 56.9205 500.284C56.2538 500.655 55.7273 501.197 55.3409 501.909C54.9545 502.621 54.7614 503.485 54.7614 504.5ZM79.7983 515V497.545H82.4801V515H79.7983ZM81.1619 494.636C80.6392 494.636 80.1884 494.458 79.8097 494.102C79.4384 493.746 79.2528 493.318 79.2528 492.818C79.2528 492.318 79.4384 491.89 79.8097 491.534C80.1884 491.178 80.6392 491 81.1619 491C81.6847 491 82.1316 491.178 82.5028 491.534C82.8816 491.89 83.071 492.318 83.071 492.818C83.071 493.318 82.8816 493.746 82.5028 494.102C82.1316 494.458 81.6847 494.636 81.1619 494.636ZM90.0739 504.5V515H87.392V497.545H89.983V500.273H90.2102C90.6193 499.386 91.2405 498.674 92.0739 498.136C92.9072 497.591 93.983 497.318 95.3011 497.318C96.483 497.318 97.517 497.561 98.4034 498.045C99.2898 498.523 99.9792 499.25 100.472 500.227C100.964 501.197 101.21 502.424 101.21 503.909V515H98.5284V504.091C98.5284 502.72 98.1723 501.652 97.4602 500.886C96.7481 500.114 95.7708 499.727 94.5284 499.727C93.6723 499.727 92.9072 499.913 92.233 500.284C91.5663 500.655 91.0398 501.197 90.6534 501.909C90.267 502.621 90.0739 503.485 90.0739 504.5ZM113.702 497.545V499.818H104.656V497.545H113.702ZM107.293 493.364H109.974V510C109.974 510.758 110.084 511.326 110.304 511.705C110.531 512.076 110.819 512.326 111.168 512.455C111.524 512.576 111.899 512.636 112.293 512.636C112.588 512.636 112.83 512.621 113.02 512.591C113.209 512.553 113.361 512.523 113.474 512.5L114.02 514.909C113.838 514.977 113.584 515.045 113.259 515.114C112.933 515.189 112.52 515.227 112.02 515.227C111.262 515.227 110.52 515.064 109.793 514.739C109.073 514.413 108.474 513.917 107.997 513.25C107.527 512.583 107.293 511.742 107.293 510.727V493.364ZM117.736 515V497.545H120.327V500.182H120.509C120.827 499.318 121.402 498.617 122.236 498.08C123.069 497.542 124.009 497.273 125.054 497.273C125.251 497.273 125.497 497.277 125.793 497.284C126.088 497.292 126.312 497.303 126.463 497.318V500.045C126.372 500.023 126.164 499.989 125.838 499.943C125.52 499.89 125.183 499.864 124.827 499.864C123.978 499.864 123.221 500.042 122.554 500.398C121.895 500.746 121.372 501.231 120.986 501.852C120.607 502.466 120.418 503.167 120.418 503.955V515H117.736ZM136.202 515.364C134.626 515.364 133.243 514.989 132.054 514.239C130.872 513.489 129.948 512.439 129.281 511.091C128.622 509.742 128.293 508.167 128.293 506.364C128.293 504.545 128.622 502.958 129.281 501.602C129.948 500.246 130.872 499.193 132.054 498.443C133.243 497.693 134.626 497.318 136.202 497.318C137.777 497.318 139.156 497.693 140.338 498.443C141.527 499.193 142.452 500.246 143.111 501.602C143.777 502.958 144.111 504.545 144.111 506.364C144.111 508.167 143.777 509.742 143.111 511.091C142.452 512.439 141.527 513.489 140.338 514.239C139.156 514.989 137.777 515.364 136.202 515.364ZM136.202 512.955C137.399 512.955 138.384 512.648 139.156 512.034C139.929 511.42 140.501 510.614 140.872 509.614C141.243 508.614 141.429 507.53 141.429 506.364C141.429 505.197 141.243 504.11 140.872 503.102C140.501 502.095 139.929 501.28 139.156 500.659C138.384 500.038 137.399 499.727 136.202 499.727C135.005 499.727 134.02 500.038 133.247 500.659C132.474 501.28 131.902 502.095 131.531 503.102C131.16 504.11 130.974 505.197 130.974 506.364C130.974 507.53 131.16 508.614 131.531 509.614C131.902 510.614 132.474 511.42 133.247 512.034C134.02 512.648 135.005 512.955 136.202 512.955ZM154.795 515.364C153.341 515.364 152.057 514.996 150.943 514.261C149.83 513.519 148.958 512.473 148.33 511.125C147.701 509.769 147.386 508.167 147.386 506.318C147.386 504.485 147.701 502.894 148.33 501.545C148.958 500.197 149.833 499.155 150.955 498.42C152.076 497.686 153.371 497.318 154.841 497.318C155.977 497.318 156.875 497.508 157.534 497.886C158.201 498.258 158.708 498.682 159.057 499.159C159.413 499.629 159.689 500.015 159.886 500.318H160.114V491.727H162.795V515H160.205V512.318H159.886C159.689 512.636 159.409 513.038 159.045 513.523C158.682 514 158.163 514.428 157.489 514.807C156.814 515.178 155.917 515.364 154.795 515.364ZM155.159 512.955C156.235 512.955 157.144 512.674 157.886 512.114C158.629 511.545 159.193 510.761 159.58 509.761C159.966 508.754 160.159 507.591 160.159 506.273C160.159 504.97 159.97 503.83 159.591 502.852C159.212 501.867 158.652 501.102 157.909 500.557C157.167 500.004 156.25 499.727 155.159 499.727C154.023 499.727 153.076 500.019 152.318 500.602C151.568 501.178 151.004 501.962 150.625 502.955C150.254 503.939 150.068 505.045 150.068 506.273C150.068 507.515 150.258 508.644 150.636 509.659C151.023 510.667 151.591 511.47 152.341 512.068C153.098 512.659 154.038 512.955 155.159 512.955ZM179.08 507.864V497.545H181.761V515H179.08V512.045H178.898C178.489 512.932 177.852 513.686 176.989 514.307C176.125 514.92 175.034 515.227 173.716 515.227C172.625 515.227 171.655 514.989 170.807 514.511C169.958 514.027 169.292 513.299 168.807 512.33C168.322 511.352 168.08 510.121 168.08 508.636V497.545H170.761V508.455C170.761 509.727 171.117 510.742 171.83 511.5C172.549 512.258 173.466 512.636 174.58 512.636C175.246 512.636 175.924 512.466 176.614 512.125C177.311 511.784 177.894 511.261 178.364 510.557C178.841 509.852 179.08 508.955 179.08 507.864ZM193.764 515.364C192.128 515.364 190.719 514.977 189.537 514.205C188.355 513.432 187.446 512.367 186.81 511.011C186.173 509.655 185.855 508.106 185.855 506.364C185.855 504.591 186.181 503.027 186.832 501.67C187.491 500.307 188.408 499.242 189.582 498.477C190.764 497.705 192.143 497.318 193.719 497.318C194.946 497.318 196.052 497.545 197.037 498C198.022 498.455 198.829 499.091 199.457 499.909C200.086 500.727 200.476 501.682 200.628 502.773H197.946C197.741 501.977 197.287 501.273 196.582 500.659C195.885 500.038 194.946 499.727 193.764 499.727C192.719 499.727 191.802 500 191.014 500.545C190.234 501.083 189.624 501.845 189.185 502.83C188.753 503.807 188.537 504.955 188.537 506.273C188.537 507.621 188.749 508.795 189.173 509.795C189.605 510.795 190.211 511.572 190.991 512.125C191.779 512.678 192.704 512.955 193.764 512.955C194.461 512.955 195.094 512.833 195.662 512.591C196.23 512.348 196.711 512 197.105 511.545C197.499 511.091 197.779 510.545 197.946 509.909H200.628C200.476 510.939 200.101 511.867 199.503 512.693C198.912 513.511 198.128 514.163 197.151 514.648C196.181 515.125 195.052 515.364 193.764 515.364ZM212.139 497.545V499.818H203.094V497.545H212.139ZM205.73 493.364H208.412V510C208.412 510.758 208.522 511.326 208.741 511.705C208.969 512.076 209.257 512.326 209.605 512.455C209.961 512.576 210.336 512.636 210.73 512.636C211.026 512.636 211.268 512.621 211.457 512.591C211.647 512.553 211.798 512.523 211.912 512.5L212.457 514.909C212.276 514.977 212.022 515.045 211.696 515.114C211.37 515.189 210.957 515.227 210.457 515.227C209.7 515.227 208.957 515.064 208.23 514.739C207.51 514.413 206.912 513.917 206.435 513.25C205.965 512.583 205.73 511.742 205.73 510.727V493.364ZM216.173 515V497.545H218.855V515H216.173ZM217.537 494.636C217.014 494.636 216.563 494.458 216.185 494.102C215.813 493.746 215.628 493.318 215.628 492.818C215.628 492.318 215.813 491.89 216.185 491.534C216.563 491.178 217.014 491 217.537 491C218.06 491 218.507 491.178 218.878 491.534C219.257 491.89 219.446 492.318 219.446 492.818C219.446 493.318 219.257 493.746 218.878 494.102C218.507 494.458 218.06 494.636 217.537 494.636ZM230.858 515.364C229.282 515.364 227.9 514.989 226.71 514.239C225.528 513.489 224.604 512.439 223.938 511.091C223.278 509.742 222.949 508.167 222.949 506.364C222.949 504.545 223.278 502.958 223.938 501.602C224.604 500.246 225.528 499.193 226.71 498.443C227.9 497.693 229.282 497.318 230.858 497.318C232.434 497.318 233.813 497.693 234.994 498.443C236.184 499.193 237.108 500.246 237.767 501.602C238.434 502.958 238.767 504.545 238.767 506.364C238.767 508.167 238.434 509.742 237.767 511.091C237.108 512.439 236.184 513.489 234.994 514.239C233.813 514.989 232.434 515.364 230.858 515.364ZM230.858 512.955C232.055 512.955 233.04 512.648 233.812 512.034C234.585 511.42 235.157 510.614 235.528 509.614C235.9 508.614 236.085 507.53 236.085 506.364C236.085 505.197 235.9 504.11 235.528 503.102C235.157 502.095 234.585 501.28 233.812 500.659C233.04 500.038 232.055 499.727 230.858 499.727C229.661 499.727 228.676 500.038 227.903 500.659C227.131 501.28 226.559 502.095 226.188 503.102C225.816 504.11 225.631 505.197 225.631 506.364C225.631 507.53 225.816 508.614 226.188 509.614C226.559 510.614 227.131 511.42 227.903 512.034C228.676 512.648 229.661 512.955 230.858 512.955ZM245.543 504.5V515H242.861V497.545H245.452V500.273H245.679C246.088 499.386 246.709 498.674 247.543 498.136C248.376 497.591 249.452 497.318 250.77 497.318C251.952 497.318 252.986 497.561 253.872 498.045C254.759 498.523 255.448 499.25 255.94 500.227C256.433 501.197 256.679 502.424 256.679 503.909V515H253.997V504.091C253.997 502.72 253.641 501.652 252.929 500.886C252.217 500.114 251.24 499.727 249.997 499.727C249.141 499.727 248.376 499.913 247.702 500.284C247.035 500.655 246.509 501.197 246.122 501.909C245.736 502.621 245.543 503.485 245.543 504.5ZM275.716 515.409C274.61 515.409 273.606 515.201 272.705 514.784C271.803 514.36 271.087 513.75 270.557 512.955C270.027 512.152 269.761 511.182 269.761 510.045C269.761 509.045 269.958 508.235 270.352 507.614C270.746 506.985 271.273 506.492 271.932 506.136C272.591 505.78 273.318 505.515 274.114 505.341C274.917 505.159 275.723 505.015 276.534 504.909C277.595 504.773 278.455 504.67 279.114 504.602C279.78 504.527 280.265 504.402 280.568 504.227C280.879 504.053 281.034 503.75 281.034 503.318V503.227C281.034 502.106 280.727 501.235 280.114 500.614C279.508 499.992 278.587 499.682 277.352 499.682C276.072 499.682 275.068 499.962 274.341 500.523C273.614 501.083 273.102 501.682 272.807 502.318L270.261 501.409C270.716 500.348 271.322 499.523 272.08 498.932C272.845 498.333 273.678 497.917 274.58 497.682C275.489 497.439 276.383 497.318 277.261 497.318C277.822 497.318 278.466 497.386 279.193 497.523C279.928 497.652 280.636 497.92 281.318 498.33C282.008 498.739 282.58 499.356 283.034 500.182C283.489 501.008 283.716 502.114 283.716 503.5V515H281.034V512.636H280.898C280.716 513.015 280.413 513.42 279.989 513.852C279.564 514.284 279 514.652 278.295 514.955C277.591 515.258 276.731 515.409 275.716 515.409ZM276.125 513C277.186 513 278.08 512.792 278.807 512.375C279.542 511.958 280.095 511.42 280.466 510.761C280.845 510.102 281.034 509.409 281.034 508.682V506.227C280.92 506.364 280.67 506.489 280.284 506.602C279.905 506.708 279.466 506.803 278.966 506.886C278.473 506.962 277.992 507.03 277.523 507.091C277.061 507.144 276.686 507.189 276.398 507.227C275.701 507.318 275.049 507.466 274.443 507.67C273.845 507.867 273.36 508.167 272.989 508.568C272.625 508.962 272.443 509.5 272.443 510.182C272.443 511.114 272.788 511.818 273.477 512.295C274.174 512.765 275.057 513 276.125 513ZM291.293 504.5V515H288.611V497.545H291.202V500.273H291.429C291.838 499.386 292.459 498.674 293.293 498.136C294.126 497.591 295.202 497.318 296.52 497.318C297.702 497.318 298.736 497.561 299.622 498.045C300.509 498.523 301.198 499.25 301.69 500.227C302.183 501.197 302.429 502.424 302.429 503.909V515H299.747V504.091C299.747 502.72 299.391 501.652 298.679 500.886C297.967 500.114 296.99 499.727 295.747 499.727C294.891 499.727 294.126 499.913 293.452 500.284C292.785 500.655 292.259 501.197 291.872 501.909C291.486 502.621 291.293 503.485 291.293 504.5ZM313.92 515.364C312.466 515.364 311.182 514.996 310.068 514.261C308.955 513.519 308.083 512.473 307.455 511.125C306.826 509.769 306.511 508.167 306.511 506.318C306.511 504.485 306.826 502.894 307.455 501.545C308.083 500.197 308.958 499.155 310.08 498.42C311.201 497.686 312.496 497.318 313.966 497.318C315.102 497.318 316 497.508 316.659 497.886C317.326 498.258 317.833 498.682 318.182 499.159C318.538 499.629 318.814 500.015 319.011 500.318H319.239V491.727H321.92V515H319.33V512.318H319.011C318.814 512.636 318.534 513.038 318.17 513.523C317.807 514 317.288 514.428 316.614 514.807C315.939 515.178 315.042 515.364 313.92 515.364ZM314.284 512.955C315.36 512.955 316.269 512.674 317.011 512.114C317.754 511.545 318.318 510.761 318.705 509.761C319.091 508.754 319.284 507.591 319.284 506.273C319.284 504.97 319.095 503.83 318.716 502.852C318.337 501.867 317.777 501.102 317.034 500.557C316.292 500.004 315.375 499.727 314.284 499.727C313.148 499.727 312.201 500.019 311.443 500.602C310.693 501.178 310.129 501.962 309.75 502.955C309.379 503.939 309.193 505.045 309.193 506.273C309.193 507.515 309.383 508.644 309.761 509.659C310.148 510.667 310.716 511.47 311.466 512.068C312.223 512.659 313.163 512.955 314.284 512.955ZM338.886 504.5V515H336.205V491.727H338.886V500.273H339.114C339.523 499.371 340.136 498.655 340.955 498.125C341.78 497.587 342.879 497.318 344.25 497.318C345.439 497.318 346.481 497.557 347.375 498.034C348.269 498.504 348.962 499.227 349.455 500.205C349.955 501.174 350.205 502.409 350.205 503.909V515H347.523V504.091C347.523 502.705 347.163 501.633 346.443 500.875C345.731 500.11 344.742 499.727 343.477 499.727C342.598 499.727 341.811 499.913 341.114 500.284C340.424 500.655 339.879 501.197 339.477 501.909C339.083 502.621 338.886 503.485 338.886 504.5ZM360.247 515.409C359.141 515.409 358.137 515.201 357.236 514.784C356.334 514.36 355.618 513.75 355.088 512.955C354.558 512.152 354.293 511.182 354.293 510.045C354.293 509.045 354.49 508.235 354.884 507.614C355.277 506.985 355.804 506.492 356.463 506.136C357.122 505.78 357.849 505.515 358.645 505.341C359.448 505.159 360.255 505.015 361.065 504.909C362.126 504.773 362.986 504.67 363.645 504.602C364.312 504.527 364.796 504.402 365.099 504.227C365.41 504.053 365.565 503.75 365.565 503.318V503.227C365.565 502.106 365.259 501.235 364.645 500.614C364.039 499.992 363.118 499.682 361.884 499.682C360.603 499.682 359.599 499.962 358.872 500.523C358.145 501.083 357.634 501.682 357.338 502.318L354.793 501.409C355.247 500.348 355.853 499.523 356.611 498.932C357.376 498.333 358.209 497.917 359.111 497.682C360.02 497.439 360.914 497.318 361.793 497.318C362.353 497.318 362.997 497.386 363.724 497.523C364.459 497.652 365.168 497.92 365.849 498.33C366.539 498.739 367.111 499.356 367.565 500.182C368.02 501.008 368.247 502.114 368.247 503.5V515H365.565V512.636H365.429C365.247 513.015 364.944 513.42 364.52 513.852C364.096 514.284 363.531 514.652 362.827 514.955C362.122 515.258 361.262 515.409 360.247 515.409ZM360.656 513C361.717 513 362.611 512.792 363.338 512.375C364.073 511.958 364.626 511.42 364.997 510.761C365.376 510.102 365.565 509.409 365.565 508.682V506.227C365.452 506.364 365.202 506.489 364.815 506.602C364.437 506.708 363.997 506.803 363.497 506.886C363.005 506.962 362.524 507.03 362.054 507.091C361.592 507.144 361.217 507.189 360.929 507.227C360.232 507.318 359.58 507.466 358.974 507.67C358.376 507.867 357.891 508.167 357.52 508.568C357.156 508.962 356.974 509.5 356.974 510.182C356.974 511.114 357.319 511.818 358.009 512.295C358.705 512.765 359.588 513 360.656 513ZM375.824 504.5V515H373.142V497.545H375.733V500.273H375.96C376.369 499.386 376.991 498.674 377.824 498.136C378.657 497.591 379.733 497.318 381.051 497.318C382.233 497.318 383.267 497.561 384.153 498.045C385.04 498.523 385.729 499.25 386.222 500.227C386.714 501.197 386.96 502.424 386.96 503.909V515H384.278V504.091C384.278 502.72 383.922 501.652 383.21 500.886C382.498 500.114 381.521 499.727 380.278 499.727C379.422 499.727 378.657 499.913 377.983 500.284C377.316 500.655 376.79 501.197 376.403 501.909C376.017 502.621 375.824 503.485 375.824 504.5ZM398.452 515.364C396.997 515.364 395.713 514.996 394.599 514.261C393.486 513.519 392.615 512.473 391.986 511.125C391.357 509.769 391.043 508.167 391.043 506.318C391.043 504.485 391.357 502.894 391.986 501.545C392.615 500.197 393.49 499.155 394.611 498.42C395.732 497.686 397.027 497.318 398.497 497.318C399.634 497.318 400.531 497.508 401.19 497.886C401.857 498.258 402.365 498.682 402.713 499.159C403.069 499.629 403.346 500.015 403.543 500.318H403.77V491.727H406.452V515H403.861V512.318H403.543C403.346 512.636 403.065 513.038 402.702 513.523C402.338 514 401.819 514.428 401.145 514.807C400.471 515.178 399.573 515.364 398.452 515.364ZM398.815 512.955C399.891 512.955 400.8 512.674 401.543 512.114C402.285 511.545 402.849 510.761 403.236 509.761C403.622 508.754 403.815 507.591 403.815 506.273C403.815 504.97 403.626 503.83 403.247 502.852C402.868 501.867 402.308 501.102 401.565 500.557C400.823 500.004 399.906 499.727 398.815 499.727C397.679 499.727 396.732 500.019 395.974 500.602C395.224 501.178 394.66 501.962 394.281 502.955C393.91 503.939 393.724 505.045 393.724 506.273C393.724 507.515 393.914 508.644 394.293 509.659C394.679 510.667 395.247 511.47 395.997 512.068C396.755 512.659 397.694 512.955 398.815 512.955ZM424.099 501.455L421.69 502.136C421.539 501.735 421.315 501.345 421.02 500.966C420.732 500.58 420.338 500.261 419.838 500.011C419.338 499.761 418.698 499.636 417.918 499.636C416.849 499.636 415.959 499.883 415.247 500.375C414.543 500.86 414.19 501.477 414.19 502.227C414.19 502.894 414.433 503.42 414.918 503.807C415.402 504.193 416.16 504.515 417.19 504.773L419.781 505.409C421.342 505.788 422.505 506.367 423.27 507.148C424.035 507.92 424.418 508.917 424.418 510.136C424.418 511.136 424.13 512.03 423.554 512.818C422.986 513.606 422.19 514.227 421.168 514.682C420.145 515.136 418.955 515.364 417.599 515.364C415.819 515.364 414.346 514.977 413.179 514.205C412.012 513.432 411.274 512.303 410.963 510.818L413.509 510.182C413.751 511.121 414.209 511.826 414.884 512.295C415.565 512.765 416.455 513 417.554 513C418.804 513 419.796 512.735 420.531 512.205C421.274 511.667 421.645 511.023 421.645 510.273C421.645 509.667 421.433 509.159 421.009 508.75C420.584 508.333 419.933 508.023 419.054 507.818L416.145 507.136C414.546 506.758 413.372 506.17 412.622 505.375C411.88 504.572 411.509 503.568 411.509 502.364C411.509 501.379 411.785 500.508 412.338 499.75C412.899 498.992 413.66 498.398 414.622 497.966C415.592 497.534 416.69 497.318 417.918 497.318C419.645 497.318 421.001 497.697 421.986 498.455C422.978 499.212 423.683 500.212 424.099 501.455ZM444.545 515.364C442.97 515.364 441.587 514.989 440.398 514.239C439.216 513.489 438.292 512.439 437.625 511.091C436.966 509.742 436.636 508.167 436.636 506.364C436.636 504.545 436.966 502.958 437.625 501.602C438.292 500.246 439.216 499.193 440.398 498.443C441.587 497.693 442.97 497.318 444.545 497.318C446.121 497.318 447.5 497.693 448.682 498.443C449.871 499.193 450.795 500.246 451.455 501.602C452.121 502.958 452.455 504.545 452.455 506.364C452.455 508.167 452.121 509.742 451.455 511.091C450.795 512.439 449.871 513.489 448.682 514.239C447.5 514.989 446.121 515.364 444.545 515.364ZM444.545 512.955C445.742 512.955 446.727 512.648 447.5 512.034C448.273 511.42 448.845 510.614 449.216 509.614C449.587 508.614 449.773 507.53 449.773 506.364C449.773 505.197 449.587 504.11 449.216 503.102C448.845 502.095 448.273 501.28 447.5 500.659C446.727 500.038 445.742 499.727 444.545 499.727C443.348 499.727 442.364 500.038 441.591 500.659C440.818 501.28 440.246 502.095 439.875 503.102C439.504 504.11 439.318 505.197 439.318 506.364C439.318 507.53 439.504 508.614 439.875 509.614C440.246 510.614 440.818 511.42 441.591 512.034C442.364 512.648 443.348 512.955 444.545 512.955ZM459.23 504.5V515H456.548V497.545H459.139V500.273H459.366C459.776 499.386 460.397 498.674 461.23 498.136C462.063 497.591 463.139 497.318 464.457 497.318C465.639 497.318 466.673 497.561 467.56 498.045C468.446 498.523 469.135 499.25 469.628 500.227C470.12 501.197 470.366 502.424 470.366 503.909V515H467.685V504.091C467.685 502.72 467.329 501.652 466.616 500.886C465.904 500.114 464.927 499.727 463.685 499.727C462.829 499.727 462.063 499.913 461.389 500.284C460.723 500.655 460.196 501.197 459.81 501.909C459.423 502.621 459.23 503.485 459.23 504.5ZM491.312 521.909C490.017 521.909 488.903 521.742 487.972 521.409C487.04 521.083 486.263 520.652 485.642 520.114C485.028 519.583 484.54 519.015 484.176 518.409L486.312 516.909C486.555 517.227 486.862 517.591 487.233 518C487.604 518.417 488.112 518.777 488.756 519.08C489.407 519.39 490.259 519.545 491.312 519.545C492.722 519.545 493.884 519.205 494.801 518.523C495.718 517.841 496.176 516.773 496.176 515.318V511.773H495.949C495.752 512.091 495.472 512.485 495.108 512.955C494.752 513.417 494.237 513.83 493.562 514.193C492.896 514.549 491.994 514.727 490.858 514.727C489.449 514.727 488.184 514.394 487.062 513.727C485.949 513.061 485.066 512.091 484.415 510.818C483.771 509.545 483.449 508 483.449 506.182C483.449 504.394 483.763 502.837 484.392 501.511C485.021 500.178 485.896 499.148 487.017 498.42C488.138 497.686 489.434 497.318 490.903 497.318C492.04 497.318 492.941 497.508 493.608 497.886C494.282 498.258 494.797 498.682 495.153 499.159C495.517 499.629 495.797 500.015 495.994 500.318H496.267V497.545H498.858V515.5C498.858 517 498.517 518.22 497.835 519.159C497.161 520.106 496.252 520.799 495.108 521.239C493.972 521.686 492.706 521.909 491.312 521.909ZM491.222 512.318C492.297 512.318 493.206 512.072 493.949 511.58C494.691 511.087 495.256 510.379 495.642 509.455C496.028 508.53 496.222 507.424 496.222 506.136C496.222 504.879 496.032 503.769 495.653 502.807C495.275 501.845 494.714 501.091 493.972 500.545C493.229 500 492.313 499.727 491.222 499.727C490.085 499.727 489.138 500.015 488.381 500.591C487.631 501.167 487.066 501.939 486.688 502.909C486.316 503.879 486.131 504.955 486.131 506.136C486.131 507.348 486.32 508.42 486.699 509.352C487.085 510.277 487.653 511.004 488.403 511.534C489.161 512.057 490.1 512.318 491.222 512.318ZM514.767 507.864V497.545H517.449V515H514.767V512.045H514.585C514.176 512.932 513.54 513.686 512.676 514.307C511.813 514.92 510.722 515.227 509.403 515.227C508.312 515.227 507.343 514.989 506.494 514.511C505.646 514.027 504.979 513.299 504.494 512.33C504.009 511.352 503.767 510.121 503.767 508.636V497.545H506.449V508.455C506.449 509.727 506.805 510.742 507.517 511.5C508.237 512.258 509.153 512.636 510.267 512.636C510.934 512.636 511.612 512.466 512.301 512.125C512.998 511.784 513.581 511.261 514.051 510.557C514.528 509.852 514.767 508.955 514.767 507.864ZM522.361 515V497.545H525.043V515H522.361ZM523.724 494.636C523.202 494.636 522.751 494.458 522.372 494.102C522.001 493.746 521.815 493.318 521.815 492.818C521.815 492.318 522.001 491.89 522.372 491.534C522.751 491.178 523.202 491 523.724 491C524.247 491 524.694 491.178 525.065 491.534C525.444 491.89 525.634 492.318 525.634 492.818C525.634 493.318 525.444 493.746 525.065 494.102C524.694 494.458 524.247 494.636 523.724 494.636ZM536.545 515.364C535.091 515.364 533.807 514.996 532.693 514.261C531.58 513.519 530.708 512.473 530.08 511.125C529.451 509.769 529.136 508.167 529.136 506.318C529.136 504.485 529.451 502.894 530.08 501.545C530.708 500.197 531.583 499.155 532.705 498.42C533.826 497.686 535.121 497.318 536.591 497.318C537.727 497.318 538.625 497.508 539.284 497.886C539.951 498.258 540.458 498.682 540.807 499.159C541.163 499.629 541.439 500.015 541.636 500.318H541.864V491.727H544.545V515H541.955V512.318H541.636C541.439 512.636 541.159 513.038 540.795 513.523C540.432 514 539.913 514.428 539.239 514.807C538.564 515.178 537.667 515.364 536.545 515.364ZM536.909 512.955C537.985 512.955 538.894 512.674 539.636 512.114C540.379 511.545 540.943 510.761 541.33 509.761C541.716 508.754 541.909 507.591 541.909 506.273C541.909 504.97 541.72 503.83 541.341 502.852C540.962 501.867 540.402 501.102 539.659 500.557C538.917 500.004 538 499.727 536.909 499.727C535.773 499.727 534.826 500.019 534.068 500.602C533.318 501.178 532.754 501.962 532.375 502.955C532.004 503.939 531.818 505.045 531.818 506.273C531.818 507.515 532.008 508.644 532.386 509.659C532.773 510.667 533.341 511.47 534.091 512.068C534.848 512.659 535.788 512.955 536.909 512.955ZM557.148 515.364C555.466 515.364 554.015 514.992 552.795 514.25C551.583 513.5 550.648 512.455 549.989 511.114C549.337 509.765 549.011 508.197 549.011 506.409C549.011 504.621 549.337 503.045 549.989 501.682C550.648 500.311 551.564 499.242 552.739 498.477C553.92 497.705 555.299 497.318 556.875 497.318C557.784 497.318 558.682 497.47 559.568 497.773C560.455 498.076 561.261 498.568 561.989 499.25C562.716 499.924 563.295 500.818 563.727 501.932C564.159 503.045 564.375 504.417 564.375 506.045V507.182H550.92V504.864H561.648C561.648 503.879 561.451 503 561.057 502.227C560.67 501.455 560.117 500.845 559.398 500.398C558.686 499.951 557.845 499.727 556.875 499.727C555.807 499.727 554.883 499.992 554.102 500.523C553.33 501.045 552.735 501.727 552.318 502.568C551.902 503.409 551.693 504.311 551.693 505.273V506.818C551.693 508.136 551.92 509.254 552.375 510.17C552.837 511.08 553.477 511.773 554.295 512.25C555.114 512.72 556.064 512.955 557.148 512.955C557.852 512.955 558.489 512.856 559.057 512.659C559.633 512.455 560.129 512.152 560.545 511.75C560.962 511.341 561.284 510.833 561.511 510.227L564.102 510.955C563.83 511.833 563.371 512.606 562.727 513.273C562.083 513.932 561.288 514.447 560.341 514.818C559.394 515.182 558.33 515.364 557.148 515.364ZM38.0455 539.545V541.818H29V539.545H38.0455ZM31.6364 535.364H34.3182V552C34.3182 552.758 34.428 553.326 34.6477 553.705C34.875 554.076 35.1629 554.326 35.5114 554.455C35.8674 554.576 36.2424 554.636 36.6364 554.636C36.9318 554.636 37.1742 554.621 37.3636 554.591C37.553 554.553 37.7045 554.523 37.8182 554.5L38.3636 556.909C38.1818 556.977 37.928 557.045 37.6023 557.114C37.2765 557.189 36.8636 557.227 36.3636 557.227C35.6061 557.227 34.8636 557.064 34.1364 556.739C33.4167 556.413 32.8182 555.917 32.3409 555.25C31.8712 554.583 31.6364 553.742 31.6364 552.727V535.364ZM48.983 557.364C47.4072 557.364 46.0246 556.989 44.8352 556.239C43.6534 555.489 42.7292 554.439 42.0625 553.091C41.4034 551.742 41.0739 550.167 41.0739 548.364C41.0739 546.545 41.4034 544.958 42.0625 543.602C42.7292 542.246 43.6534 541.193 44.8352 540.443C46.0246 539.693 47.4072 539.318 48.983 539.318C50.5587 539.318 51.9375 539.693 53.1193 540.443C54.3087 541.193 55.233 542.246 55.892 543.602C56.5587 544.958 56.892 546.545 56.892 548.364C56.892 550.167 56.5587 551.742 55.892 553.091C55.233 554.439 54.3087 555.489 53.1193 556.239C51.9375 556.989 50.5587 557.364 48.983 557.364ZM48.983 554.955C50.1799 554.955 51.1648 554.648 51.9375 554.034C52.7102 553.42 53.2822 552.614 53.6534 551.614C54.0246 550.614 54.2102 549.53 54.2102 548.364C54.2102 547.197 54.0246 546.11 53.6534 545.102C53.2822 544.095 52.7102 543.28 51.9375 542.659C51.1648 542.038 50.1799 541.727 48.983 541.727C47.786 541.727 46.8011 542.038 46.0284 542.659C45.2557 543.28 44.6837 544.095 44.3125 545.102C43.9413 546.11 43.7557 547.197 43.7557 548.364C43.7557 549.53 43.9413 550.614 44.3125 551.614C44.6837 552.614 45.2557 553.42 46.0284 554.034C46.8011 554.648 47.786 554.955 48.983 554.955ZM84.2585 539.545L77.804 557H75.0767L68.6222 539.545H71.5312L76.3494 553.455H76.5312L81.3494 539.545H84.2585ZM87.7983 557V539.545H90.4801V557H87.7983ZM89.1619 536.636C88.6392 536.636 88.1884 536.458 87.8097 536.102C87.4384 535.746 87.2528 535.318 87.2528 534.818C87.2528 534.318 87.4384 533.89 87.8097 533.534C88.1884 533.178 88.6392 533 89.1619 533C89.6847 533 90.1316 533.178 90.5028 533.534C90.8816 533.89 91.071 534.318 91.071 534.818C91.071 535.318 90.8816 535.746 90.5028 536.102C90.1316 536.458 89.6847 536.636 89.1619 536.636ZM107.756 543.455L105.347 544.136C105.195 543.735 104.972 543.345 104.676 542.966C104.388 542.58 103.994 542.261 103.494 542.011C102.994 541.761 102.354 541.636 101.574 541.636C100.506 541.636 99.6155 541.883 98.9034 542.375C98.1989 542.86 97.8466 543.477 97.8466 544.227C97.8466 544.894 98.089 545.42 98.5739 545.807C99.0587 546.193 99.8163 546.515 100.847 546.773L103.438 547.409C104.998 547.788 106.161 548.367 106.926 549.148C107.691 549.92 108.074 550.917 108.074 552.136C108.074 553.136 107.786 554.03 107.21 554.818C106.642 555.606 105.847 556.227 104.824 556.682C103.801 557.136 102.612 557.364 101.256 557.364C99.4754 557.364 98.0019 556.977 96.8352 556.205C95.6686 555.432 94.9299 554.303 94.6193 552.818L97.1648 552.182C97.4072 553.121 97.8655 553.826 98.5398 554.295C99.2216 554.765 100.112 555 101.21 555C102.46 555 103.453 554.735 104.188 554.205C104.93 553.667 105.301 553.023 105.301 552.273C105.301 551.667 105.089 551.159 104.665 550.75C104.241 550.333 103.589 550.023 102.71 549.818L99.8011 549.136C98.2027 548.758 97.0284 548.17 96.2784 547.375C95.536 546.572 95.1648 545.568 95.1648 544.364C95.1648 543.379 95.4413 542.508 95.9943 541.75C96.5549 540.992 97.3163 540.398 98.2784 539.966C99.2481 539.534 100.347 539.318 101.574 539.318C103.301 539.318 104.657 539.697 105.642 540.455C106.634 541.212 107.339 542.212 107.756 543.455ZM123.111 549.864V539.545H125.793V557H123.111V554.045H122.929C122.52 554.932 121.884 555.686 121.02 556.307C120.156 556.92 119.065 557.227 117.747 557.227C116.656 557.227 115.687 556.989 114.838 556.511C113.99 556.027 113.323 555.299 112.838 554.33C112.353 553.352 112.111 552.121 112.111 550.636V539.545H114.793V550.455C114.793 551.727 115.149 552.742 115.861 553.5C116.58 554.258 117.497 554.636 118.611 554.636C119.277 554.636 119.955 554.466 120.645 554.125C121.342 553.784 121.925 553.261 122.395 552.557C122.872 551.852 123.111 550.955 123.111 549.864ZM135.841 557.409C134.735 557.409 133.731 557.201 132.83 556.784C131.928 556.36 131.212 555.75 130.682 554.955C130.152 554.152 129.886 553.182 129.886 552.045C129.886 551.045 130.083 550.235 130.477 549.614C130.871 548.985 131.398 548.492 132.057 548.136C132.716 547.78 133.443 547.515 134.239 547.341C135.042 547.159 135.848 547.015 136.659 546.909C137.72 546.773 138.58 546.67 139.239 546.602C139.905 546.527 140.39 546.402 140.693 546.227C141.004 546.053 141.159 545.75 141.159 545.318V545.227C141.159 544.106 140.852 543.235 140.239 542.614C139.633 541.992 138.712 541.682 137.477 541.682C136.197 541.682 135.193 541.962 134.466 542.523C133.739 543.083 133.227 543.682 132.932 544.318L130.386 543.409C130.841 542.348 131.447 541.523 132.205 540.932C132.97 540.333 133.803 539.917 134.705 539.682C135.614 539.439 136.508 539.318 137.386 539.318C137.947 539.318 138.591 539.386 139.318 539.523C140.053 539.652 140.761 539.92 141.443 540.33C142.133 540.739 142.705 541.356 143.159 542.182C143.614 543.008 143.841 544.114 143.841 545.5V557H141.159V554.636H141.023C140.841 555.015 140.538 555.42 140.114 555.852C139.689 556.284 139.125 556.652 138.42 556.955C137.716 557.258 136.856 557.409 135.841 557.409ZM136.25 555C137.311 555 138.205 554.792 138.932 554.375C139.667 553.958 140.22 553.42 140.591 552.761C140.97 552.102 141.159 551.409 141.159 550.682V548.227C141.045 548.364 140.795 548.489 140.409 548.602C140.03 548.708 139.591 548.803 139.091 548.886C138.598 548.962 138.117 549.03 137.648 549.091C137.186 549.144 136.811 549.189 136.523 549.227C135.826 549.318 135.174 549.466 134.568 549.67C133.97 549.867 133.485 550.167 133.114 550.568C132.75 550.962 132.568 551.5 132.568 552.182C132.568 553.114 132.913 553.818 133.602 554.295C134.299 554.765 135.182 555 136.25 555ZM151.418 533.727V557H148.736V533.727H151.418ZM171.92 557.364C170.466 557.364 169.182 556.996 168.068 556.261C166.955 555.519 166.083 554.473 165.455 553.125C164.826 551.769 164.511 550.167 164.511 548.318C164.511 546.485 164.826 544.894 165.455 543.545C166.083 542.197 166.958 541.155 168.08 540.42C169.201 539.686 170.496 539.318 171.966 539.318C173.102 539.318 174 539.508 174.659 539.886C175.326 540.258 175.833 540.682 176.182 541.159C176.538 541.629 176.814 542.015 177.011 542.318H177.239V533.727H179.92V557H177.33V554.318H177.011C176.814 554.636 176.534 555.038 176.17 555.523C175.807 556 175.288 556.428 174.614 556.807C173.939 557.178 173.042 557.364 171.92 557.364ZM172.284 554.955C173.36 554.955 174.269 554.674 175.011 554.114C175.754 553.545 176.318 552.761 176.705 551.761C177.091 550.754 177.284 549.591 177.284 548.273C177.284 546.97 177.095 545.83 176.716 544.852C176.337 543.867 175.777 543.102 175.034 542.557C174.292 542.004 173.375 541.727 172.284 541.727C171.148 541.727 170.201 542.019 169.443 542.602C168.693 543.178 168.129 543.962 167.75 544.955C167.379 545.939 167.193 547.045 167.193 548.273C167.193 549.515 167.383 550.644 167.761 551.659C168.148 552.667 168.716 553.47 169.466 554.068C170.223 554.659 171.163 554.955 172.284 554.955ZM192.523 557.364C190.841 557.364 189.39 556.992 188.17 556.25C186.958 555.5 186.023 554.455 185.364 553.114C184.712 551.765 184.386 550.197 184.386 548.409C184.386 546.621 184.712 545.045 185.364 543.682C186.023 542.311 186.939 541.242 188.114 540.477C189.295 539.705 190.674 539.318 192.25 539.318C193.159 539.318 194.057 539.47 194.943 539.773C195.83 540.076 196.636 540.568 197.364 541.25C198.091 541.924 198.67 542.818 199.102 543.932C199.534 545.045 199.75 546.417 199.75 548.045V549.182H186.295V546.864H197.023C197.023 545.879 196.826 545 196.432 544.227C196.045 543.455 195.492 542.845 194.773 542.398C194.061 541.951 193.22 541.727 192.25 541.727C191.182 541.727 190.258 541.992 189.477 542.523C188.705 543.045 188.11 543.727 187.693 544.568C187.277 545.409 187.068 546.311 187.068 547.273V548.818C187.068 550.136 187.295 551.254 187.75 552.17C188.212 553.08 188.852 553.773 189.67 554.25C190.489 554.72 191.439 554.955 192.523 554.955C193.227 554.955 193.864 554.856 194.432 554.659C195.008 554.455 195.504 554.152 195.92 553.75C196.337 553.341 196.659 552.833 196.886 552.227L199.477 552.955C199.205 553.833 198.746 554.606 198.102 555.273C197.458 555.932 196.663 556.447 195.716 556.818C194.769 557.182 193.705 557.364 192.523 557.364ZM216.193 543.455L213.784 544.136C213.633 543.735 213.409 543.345 213.114 542.966C212.826 542.58 212.432 542.261 211.932 542.011C211.432 541.761 210.792 541.636 210.011 541.636C208.943 541.636 208.053 541.883 207.341 542.375C206.636 542.86 206.284 543.477 206.284 544.227C206.284 544.894 206.527 545.42 207.011 545.807C207.496 546.193 208.254 546.515 209.284 546.773L211.875 547.409C213.436 547.788 214.598 548.367 215.364 549.148C216.129 549.92 216.511 550.917 216.511 552.136C216.511 553.136 216.223 554.03 215.648 554.818C215.08 555.606 214.284 556.227 213.261 556.682C212.239 557.136 211.049 557.364 209.693 557.364C207.913 557.364 206.439 556.977 205.273 556.205C204.106 555.432 203.367 554.303 203.057 552.818L205.602 552.182C205.845 553.121 206.303 553.826 206.977 554.295C207.659 554.765 208.549 555 209.648 555C210.898 555 211.89 554.735 212.625 554.205C213.367 553.667 213.739 553.023 213.739 552.273C213.739 551.667 213.527 551.159 213.102 550.75C212.678 550.333 212.027 550.023 211.148 549.818L208.239 549.136C206.64 548.758 205.466 548.17 204.716 547.375C203.973 546.572 203.602 545.568 203.602 544.364C203.602 543.379 203.879 542.508 204.432 541.75C204.992 540.992 205.754 540.398 206.716 539.966C207.686 539.534 208.784 539.318 210.011 539.318C211.739 539.318 213.095 539.697 214.08 540.455C215.072 541.212 215.777 542.212 216.193 543.455ZM220.548 557V539.545H223.23V557H220.548ZM221.912 536.636C221.389 536.636 220.938 536.458 220.56 536.102C220.188 535.746 220.003 535.318 220.003 534.818C220.003 534.318 220.188 533.89 220.56 533.534C220.938 533.178 221.389 533 221.912 533C222.435 533 222.882 533.178 223.253 533.534C223.632 533.89 223.821 534.318 223.821 534.818C223.821 535.318 223.632 535.746 223.253 536.102C222.882 536.458 222.435 536.636 221.912 536.636ZM235.188 563.909C233.892 563.909 232.778 563.742 231.847 563.409C230.915 563.083 230.138 562.652 229.517 562.114C228.903 561.583 228.415 561.015 228.051 560.409L230.188 558.909C230.43 559.227 230.737 559.591 231.108 560C231.479 560.417 231.987 560.777 232.631 561.08C233.282 561.39 234.134 561.545 235.188 561.545C236.597 561.545 237.759 561.205 238.676 560.523C239.593 559.841 240.051 558.773 240.051 557.318V553.773H239.824C239.627 554.091 239.347 554.485 238.983 554.955C238.627 555.417 238.112 555.83 237.438 556.193C236.771 556.549 235.869 556.727 234.733 556.727C233.324 556.727 232.059 556.394 230.938 555.727C229.824 555.061 228.941 554.091 228.29 552.818C227.646 551.545 227.324 550 227.324 548.182C227.324 546.394 227.638 544.837 228.267 543.511C228.896 542.178 229.771 541.148 230.892 540.42C232.013 539.686 233.309 539.318 234.778 539.318C235.915 539.318 236.816 539.508 237.483 539.886C238.157 540.258 238.672 540.682 239.028 541.159C239.392 541.629 239.672 542.015 239.869 542.318H240.142V539.545H242.733V557.5C242.733 559 242.392 560.22 241.71 561.159C241.036 562.106 240.127 562.799 238.983 563.239C237.847 563.686 236.581 563.909 235.188 563.909ZM235.097 554.318C236.172 554.318 237.081 554.072 237.824 553.58C238.566 553.087 239.131 552.379 239.517 551.455C239.903 550.53 240.097 549.424 240.097 548.136C240.097 546.879 239.907 545.769 239.528 544.807C239.15 543.845 238.589 543.091 237.847 542.545C237.104 542 236.188 541.727 235.097 541.727C233.96 541.727 233.013 542.015 232.256 542.591C231.506 543.167 230.941 543.939 230.562 544.909C230.191 545.879 230.006 546.955 230.006 548.136C230.006 549.348 230.195 550.42 230.574 551.352C230.96 552.277 231.528 553.004 232.278 553.534C233.036 554.057 233.975 554.318 235.097 554.318ZM250.324 546.5V557H247.642V539.545H250.233V542.273H250.46C250.869 541.386 251.491 540.674 252.324 540.136C253.157 539.591 254.233 539.318 255.551 539.318C256.733 539.318 257.767 539.561 258.653 540.045C259.54 540.523 260.229 541.25 260.722 542.227C261.214 543.197 261.46 544.424 261.46 545.909V557H258.778V546.091C258.778 544.72 258.422 543.652 257.71 542.886C256.998 542.114 256.021 541.727 254.778 541.727C253.922 541.727 253.157 541.913 252.483 542.284C251.816 542.655 251.29 543.197 250.903 543.909C250.517 544.621 250.324 545.485 250.324 546.5ZM283.134 539.545V541.818H273.724V539.545H283.134ZM276.543 557V537.136C276.543 536.136 276.777 535.303 277.247 534.636C277.717 533.97 278.327 533.47 279.077 533.136C279.827 532.803 280.618 532.636 281.452 532.636C282.111 532.636 282.649 532.689 283.065 532.795C283.482 532.902 283.793 533 283.997 533.091L283.224 535.409C283.088 535.364 282.899 535.307 282.656 535.239C282.421 535.17 282.111 535.136 281.724 535.136C280.838 535.136 280.198 535.36 279.804 535.807C279.418 536.254 279.224 536.909 279.224 537.773V557H276.543ZM293.264 557.364C291.688 557.364 290.306 556.989 289.116 556.239C287.935 555.489 287.01 554.439 286.344 553.091C285.685 551.742 285.355 550.167 285.355 548.364C285.355 546.545 285.685 544.958 286.344 543.602C287.01 542.246 287.935 541.193 289.116 540.443C290.306 539.693 291.688 539.318 293.264 539.318C294.84 539.318 296.219 539.693 297.401 540.443C298.59 541.193 299.514 542.246 300.173 543.602C300.84 544.958 301.173 546.545 301.173 548.364C301.173 550.167 300.84 551.742 300.173 553.091C299.514 554.439 298.59 555.489 297.401 556.239C296.219 556.989 294.84 557.364 293.264 557.364ZM293.264 554.955C294.461 554.955 295.446 554.648 296.219 554.034C296.991 553.42 297.563 552.614 297.935 551.614C298.306 550.614 298.491 549.53 298.491 548.364C298.491 547.197 298.306 546.11 297.935 545.102C297.563 544.095 296.991 543.28 296.219 542.659C295.446 542.038 294.461 541.727 293.264 541.727C292.067 541.727 291.082 542.038 290.31 542.659C289.537 543.28 288.965 544.095 288.594 545.102C288.223 546.11 288.037 547.197 288.037 548.364C288.037 549.53 288.223 550.614 288.594 551.614C288.965 552.614 289.537 553.42 290.31 554.034C291.082 554.648 292.067 554.955 293.264 554.955ZM305.267 557V539.545H307.858V542.182H308.04C308.358 541.318 308.934 540.617 309.767 540.08C310.6 539.542 311.54 539.273 312.585 539.273C312.782 539.273 313.028 539.277 313.324 539.284C313.619 539.292 313.843 539.303 313.994 539.318V542.045C313.903 542.023 313.695 541.989 313.369 541.943C313.051 541.89 312.714 541.864 312.358 541.864C311.509 541.864 310.752 542.042 310.085 542.398C309.426 542.746 308.903 543.231 308.517 543.852C308.138 544.466 307.949 545.167 307.949 545.955V557H305.267ZM338.537 543.455L336.128 544.136C335.976 543.735 335.753 543.345 335.457 542.966C335.17 542.58 334.776 542.261 334.276 542.011C333.776 541.761 333.135 541.636 332.355 541.636C331.287 541.636 330.397 541.883 329.685 542.375C328.98 542.86 328.628 543.477 328.628 544.227C328.628 544.894 328.87 545.42 329.355 545.807C329.84 546.193 330.598 546.515 331.628 546.773L334.219 547.409C335.779 547.788 336.942 548.367 337.707 549.148C338.473 549.92 338.855 550.917 338.855 552.136C338.855 553.136 338.567 554.03 337.991 554.818C337.423 555.606 336.628 556.227 335.605 556.682C334.582 557.136 333.393 557.364 332.037 557.364C330.257 557.364 328.783 556.977 327.616 556.205C326.45 555.432 325.711 554.303 325.401 552.818L327.946 552.182C328.188 553.121 328.647 553.826 329.321 554.295C330.003 554.765 330.893 555 331.991 555C333.241 555 334.234 554.735 334.969 554.205C335.711 553.667 336.082 553.023 336.082 552.273C336.082 551.667 335.87 551.159 335.446 550.75C335.022 550.333 334.37 550.023 333.491 549.818L330.582 549.136C328.984 548.758 327.81 548.17 327.06 547.375C326.317 546.572 325.946 545.568 325.946 544.364C325.946 543.379 326.223 542.508 326.776 541.75C327.336 540.992 328.098 540.398 329.06 539.966C330.029 539.534 331.128 539.318 332.355 539.318C334.082 539.318 335.438 539.697 336.423 540.455C337.416 541.212 338.12 542.212 338.537 543.455ZM349.983 557.364C348.347 557.364 346.938 556.977 345.756 556.205C344.574 555.432 343.665 554.367 343.028 553.011C342.392 551.655 342.074 550.106 342.074 548.364C342.074 546.591 342.4 545.027 343.051 543.67C343.71 542.307 344.627 541.242 345.801 540.477C346.983 539.705 348.362 539.318 349.938 539.318C351.165 539.318 352.271 539.545 353.256 540C354.241 540.455 355.047 541.091 355.676 541.909C356.305 542.727 356.695 543.682 356.847 544.773H354.165C353.96 543.977 353.506 543.273 352.801 542.659C352.104 542.038 351.165 541.727 349.983 541.727C348.938 541.727 348.021 542 347.233 542.545C346.453 543.083 345.843 543.845 345.403 544.83C344.972 545.807 344.756 546.955 344.756 548.273C344.756 549.621 344.968 550.795 345.392 551.795C345.824 552.795 346.43 553.572 347.21 554.125C347.998 554.678 348.922 554.955 349.983 554.955C350.68 554.955 351.312 554.833 351.881 554.591C352.449 554.348 352.93 554 353.324 553.545C353.718 553.091 353.998 552.545 354.165 551.909H356.847C356.695 552.939 356.32 553.867 355.722 554.693C355.131 555.511 354.347 556.163 353.369 556.648C352.4 557.125 351.271 557.364 349.983 557.364ZM360.767 557V539.545H363.449V557H360.767ZM362.131 536.636C361.608 536.636 361.157 536.458 360.778 536.102C360.407 535.746 360.222 535.318 360.222 534.818C360.222 534.318 360.407 533.89 360.778 533.534C361.157 533.178 361.608 533 362.131 533C362.653 533 363.1 533.178 363.472 533.534C363.85 533.89 364.04 534.318 364.04 534.818C364.04 535.318 363.85 535.746 363.472 536.102C363.1 536.458 362.653 536.636 362.131 536.636ZM375.679 557.364C373.997 557.364 372.546 556.992 371.327 556.25C370.115 555.5 369.179 554.455 368.52 553.114C367.868 551.765 367.543 550.197 367.543 548.409C367.543 546.621 367.868 545.045 368.52 543.682C369.179 542.311 370.096 541.242 371.27 540.477C372.452 539.705 373.83 539.318 375.406 539.318C376.315 539.318 377.213 539.47 378.099 539.773C378.986 540.076 379.793 540.568 380.52 541.25C381.247 541.924 381.827 542.818 382.259 543.932C382.69 545.045 382.906 546.417 382.906 548.045V549.182H369.452V546.864H380.179C380.179 545.879 379.982 545 379.588 544.227C379.202 543.455 378.649 542.845 377.929 542.398C377.217 541.951 376.376 541.727 375.406 541.727C374.338 541.727 373.414 541.992 372.634 542.523C371.861 543.045 371.266 543.727 370.849 544.568C370.433 545.409 370.224 546.311 370.224 547.273V548.818C370.224 550.136 370.452 551.254 370.906 552.17C371.368 553.08 372.009 553.773 372.827 554.25C373.645 554.72 374.596 554.955 375.679 554.955C376.384 554.955 377.02 554.856 377.588 554.659C378.164 554.455 378.66 554.152 379.077 553.75C379.493 553.341 379.815 552.833 380.043 552.227L382.634 552.955C382.361 553.833 381.902 554.606 381.259 555.273C380.615 555.932 379.819 556.447 378.872 556.818C377.925 557.182 376.861 557.364 375.679 557.364ZM389.668 546.5V557H386.986V539.545H389.577V542.273H389.804C390.213 541.386 390.834 540.674 391.668 540.136C392.501 539.591 393.577 539.318 394.895 539.318C396.077 539.318 397.111 539.561 397.997 540.045C398.884 540.523 399.573 541.25 400.065 542.227C400.558 543.197 400.804 544.424 400.804 545.909V557H398.122V546.091C398.122 544.72 397.766 543.652 397.054 542.886C396.342 542.114 395.365 541.727 394.122 541.727C393.266 541.727 392.501 541.913 391.827 542.284C391.16 542.655 390.634 543.197 390.247 543.909C389.861 544.621 389.668 545.485 389.668 546.5ZM413.295 539.545V541.818H404.25V539.545H413.295ZM406.886 535.364H409.568V552C409.568 552.758 409.678 553.326 409.898 553.705C410.125 554.076 410.413 554.326 410.761 554.455C411.117 554.576 411.492 554.636 411.886 554.636C412.182 554.636 412.424 554.621 412.614 554.591C412.803 554.553 412.955 554.523 413.068 554.5L413.614 556.909C413.432 556.977 413.178 557.045 412.852 557.114C412.527 557.189 412.114 557.227 411.614 557.227C410.856 557.227 410.114 557.064 409.386 556.739C408.667 556.413 408.068 555.917 407.591 555.25C407.121 554.583 406.886 553.742 406.886 552.727V535.364ZM417.33 557V539.545H420.011V557H417.33ZM418.693 536.636C418.17 536.636 417.72 536.458 417.341 536.102C416.97 535.746 416.784 535.318 416.784 534.818C416.784 534.318 416.97 533.89 417.341 533.534C417.72 533.178 418.17 533 418.693 533C419.216 533 419.663 533.178 420.034 533.534C420.413 533.89 420.602 534.318 420.602 534.818C420.602 535.318 420.413 535.746 420.034 536.102C419.663 536.458 419.216 536.636 418.693 536.636ZM437.287 543.455L434.878 544.136C434.726 543.735 434.503 543.345 434.207 542.966C433.92 542.58 433.526 542.261 433.026 542.011C432.526 541.761 431.885 541.636 431.105 541.636C430.037 541.636 429.147 541.883 428.435 542.375C427.73 542.86 427.378 543.477 427.378 544.227C427.378 544.894 427.62 545.42 428.105 545.807C428.59 546.193 429.348 546.515 430.378 546.773L432.969 547.409C434.529 547.788 435.692 548.367 436.457 549.148C437.223 549.92 437.605 550.917 437.605 552.136C437.605 553.136 437.317 554.03 436.741 554.818C436.173 555.606 435.378 556.227 434.355 556.682C433.332 557.136 432.143 557.364 430.787 557.364C429.007 557.364 427.533 556.977 426.366 556.205C425.2 555.432 424.461 554.303 424.151 552.818L426.696 552.182C426.938 553.121 427.397 553.826 428.071 554.295C428.753 554.765 429.643 555 430.741 555C431.991 555 432.984 554.735 433.719 554.205C434.461 553.667 434.832 553.023 434.832 552.273C434.832 551.667 434.62 551.159 434.196 550.75C433.772 550.333 433.12 550.023 432.241 549.818L429.332 549.136C427.734 548.758 426.56 548.17 425.81 547.375C425.067 546.572 424.696 545.568 424.696 544.364C424.696 543.379 424.973 542.508 425.526 541.75C426.086 540.992 426.848 540.398 427.81 539.966C428.779 539.534 429.878 539.318 431.105 539.318C432.832 539.318 434.188 539.697 435.173 540.455C436.166 541.212 436.87 542.212 437.287 543.455ZM449.233 539.545V541.818H440.188V539.545H449.233ZM442.824 535.364H445.506V552C445.506 552.758 445.616 553.326 445.835 553.705C446.063 554.076 446.35 554.326 446.699 554.455C447.055 554.576 447.43 554.636 447.824 554.636C448.119 554.636 448.362 554.621 448.551 554.591C448.741 554.553 448.892 554.523 449.006 554.5L449.551 556.909C449.369 556.977 449.116 557.045 448.79 557.114C448.464 557.189 448.051 557.227 447.551 557.227C446.794 557.227 446.051 557.064 445.324 556.739C444.604 556.413 444.006 555.917 443.528 555.25C443.059 554.583 442.824 553.742 442.824 552.727V535.364ZM465.318 543.455L462.909 544.136C462.758 543.735 462.534 543.345 462.239 542.966C461.951 542.58 461.557 542.261 461.057 542.011C460.557 541.761 459.917 541.636 459.136 541.636C458.068 541.636 457.178 541.883 456.466 542.375C455.761 542.86 455.409 543.477 455.409 544.227C455.409 544.894 455.652 545.42 456.136 545.807C456.621 546.193 457.379 546.515 458.409 546.773L461 547.409C462.561 547.788 463.723 548.367 464.489 549.148C465.254 549.92 465.636 550.917 465.636 552.136C465.636 553.136 465.348 554.03 464.773 554.818C464.205 555.606 463.409 556.227 462.386 556.682C461.364 557.136 460.174 557.364 458.818 557.364C457.038 557.364 455.564 556.977 454.398 556.205C453.231 555.432 452.492 554.303 452.182 552.818L454.727 552.182C454.97 553.121 455.428 553.826 456.102 554.295C456.784 554.765 457.674 555 458.773 555C460.023 555 461.015 554.735 461.75 554.205C462.492 553.667 462.864 553.023 462.864 552.273C462.864 551.667 462.652 551.159 462.227 550.75C461.803 550.333 461.152 550.023 460.273 549.818L457.364 549.136C455.765 548.758 454.591 548.17 453.841 547.375C453.098 546.572 452.727 545.568 452.727 544.364C452.727 543.379 453.004 542.508 453.557 541.75C454.117 540.992 454.879 540.398 455.841 539.966C456.811 539.534 457.909 539.318 459.136 539.318C460.864 539.318 462.22 539.697 463.205 540.455C464.197 541.212 464.902 542.212 465.318 543.455ZM471.628 557.182C471.067 557.182 470.586 556.981 470.185 556.58C469.783 556.178 469.582 555.697 469.582 555.136C469.582 554.576 469.783 554.095 470.185 553.693C470.586 553.292 471.067 553.091 471.628 553.091C472.188 553.091 472.67 553.292 473.071 553.693C473.473 554.095 473.673 554.576 473.673 555.136C473.673 555.508 473.579 555.848 473.389 556.159C473.207 556.47 472.961 556.72 472.651 556.909C472.348 557.091 472.007 557.182 471.628 557.182Z" fill="#F77E0F"/>
</svg>
