<svg width="800" height="600" viewBox="0 0 800 600" fill="none" xmlns="http://www.w3.org/2000/svg">
<rect width="800" height="600" fill="white"/>
<path d="M139.261 152H123.793V108.364H139.389C143.778 108.364 147.557 109.237 150.724 110.984C153.892 112.717 156.328 115.21 158.033 118.463C159.751 121.716 160.611 125.608 160.611 130.139C160.611 134.685 159.751 138.591 158.033 141.858C156.328 145.125 153.878 147.632 150.682 149.379C147.5 151.126 143.693 152 139.261 152ZM133.018 144.095H138.878C141.605 144.095 143.899 143.612 145.76 142.646C147.635 141.666 149.041 140.153 149.979 138.108C150.93 136.048 151.406 133.392 151.406 130.139C151.406 126.915 150.93 124.28 149.979 122.234C149.041 120.189 147.642 118.683 145.781 117.717C143.92 116.751 141.626 116.268 138.899 116.268H133.018V144.095ZM182.189 152.639C178.823 152.639 175.925 151.957 173.496 150.594C171.081 149.216 169.221 147.27 167.914 144.756C166.607 142.227 165.953 139.237 165.953 135.786C165.953 132.419 166.607 129.464 167.914 126.922C169.221 124.379 171.06 122.398 173.432 120.977C175.819 119.557 178.617 118.847 181.827 118.847C183.986 118.847 185.996 119.195 187.857 119.891C189.732 120.572 191.365 121.602 192.757 122.98C194.164 124.358 195.257 126.091 196.039 128.179C196.82 130.253 197.211 132.682 197.211 135.466V137.959H169.576V132.334H188.667C188.667 131.027 188.382 129.869 187.814 128.861C187.246 127.852 186.458 127.064 185.449 126.496C184.455 125.913 183.297 125.622 181.976 125.622C180.598 125.622 179.377 125.942 178.311 126.581C177.26 127.206 176.436 128.051 175.84 129.116C175.243 130.168 174.938 131.339 174.924 132.632V137.98C174.924 139.599 175.222 140.999 175.819 142.178C176.429 143.357 177.289 144.266 178.397 144.905C179.505 145.544 180.819 145.864 182.338 145.864C183.347 145.864 184.27 145.722 185.108 145.438C185.946 145.153 186.664 144.727 187.26 144.159C187.857 143.591 188.311 142.895 188.624 142.071L197.019 142.625C196.593 144.642 195.719 146.403 194.398 147.909C193.091 149.401 191.401 150.565 189.327 151.403C187.267 152.227 184.888 152.639 182.189 152.639ZM230.364 128.605L222.054 129.116C221.912 128.406 221.607 127.767 221.138 127.199C220.669 126.616 220.051 126.155 219.284 125.814C218.532 125.459 217.63 125.281 216.578 125.281C215.172 125.281 213.986 125.58 213.02 126.176C212.054 126.759 211.571 127.54 211.571 128.52C211.571 129.301 211.884 129.962 212.509 130.501C213.134 131.041 214.206 131.474 215.726 131.801L221.65 132.994C224.831 133.648 227.203 134.699 228.766 136.148C230.328 137.597 231.11 139.5 231.11 141.858C231.11 144.003 230.478 145.885 229.213 147.504C227.963 149.124 226.245 150.388 224.057 151.297C221.884 152.192 219.377 152.639 216.536 152.639C212.203 152.639 208.752 151.737 206.181 149.933C203.624 148.115 202.125 145.643 201.685 142.518L210.613 142.05C210.882 143.371 211.536 144.379 212.573 145.075C213.61 145.757 214.938 146.098 216.557 146.098C218.148 146.098 219.426 145.793 220.392 145.182C221.373 144.557 221.87 143.754 221.884 142.774C221.87 141.95 221.522 141.276 220.84 140.75C220.158 140.21 219.107 139.798 217.686 139.514L212.019 138.385C208.823 137.746 206.444 136.638 204.881 135.061C203.333 133.484 202.559 131.474 202.559 129.031C202.559 126.929 203.127 125.118 204.263 123.598C205.414 122.078 207.026 120.906 209.1 120.082C211.188 119.259 213.631 118.847 216.429 118.847C220.563 118.847 223.816 119.72 226.188 121.467C228.574 123.214 229.966 125.594 230.364 128.605ZM236.825 152V119.273H245.902V152H236.825ZM241.385 115.054C240.036 115.054 238.878 114.607 237.912 113.712C236.96 112.803 236.484 111.716 236.484 110.452C236.484 109.202 236.96 108.129 237.912 107.234C238.878 106.325 240.036 105.871 241.385 105.871C242.734 105.871 243.885 106.325 244.837 107.234C245.803 108.129 246.286 109.202 246.286 110.452C246.286 111.716 245.803 112.803 244.837 113.712C243.885 114.607 242.734 115.054 241.385 115.054ZM267.917 164.955C264.977 164.955 262.456 164.55 260.353 163.74C258.265 162.945 256.603 161.858 255.368 160.48C254.132 159.102 253.329 157.554 252.96 155.835L261.355 154.706C261.61 155.359 262.015 155.97 262.569 156.538C263.123 157.107 263.855 157.561 264.764 157.902C265.687 158.257 266.809 158.435 268.13 158.435C270.105 158.435 271.731 157.952 273.01 156.986C274.302 156.034 274.949 154.436 274.949 152.192V146.205H274.565C274.167 147.114 273.571 147.973 272.775 148.783C271.98 149.592 270.957 150.253 269.707 150.764C268.457 151.276 266.966 151.531 265.233 151.531C262.775 151.531 260.538 150.963 258.521 149.827C256.518 148.676 254.92 146.922 253.727 144.564C252.548 142.192 251.958 139.195 251.958 135.572C251.958 131.865 252.562 128.768 253.77 126.283C254.977 123.797 256.582 121.936 258.585 120.7C260.602 119.464 262.811 118.847 265.211 118.847C267.044 118.847 268.578 119.159 269.814 119.784C271.049 120.395 272.044 121.162 272.797 122.085C273.564 122.994 274.153 123.889 274.565 124.77H274.906V119.273H283.919V152.32C283.919 155.104 283.237 157.433 281.873 159.308C280.51 161.183 278.62 162.589 276.206 163.527C273.805 164.479 271.042 164.955 267.917 164.955ZM268.109 144.713C269.572 144.713 270.808 144.351 271.816 143.626C272.839 142.888 273.62 141.837 274.16 140.473C274.714 139.095 274.991 137.447 274.991 135.53C274.991 133.612 274.721 131.95 274.181 130.544C273.642 129.124 272.86 128.023 271.838 127.241C270.815 126.46 269.572 126.07 268.109 126.07C266.618 126.07 265.36 126.474 264.338 127.284C263.315 128.08 262.541 129.187 262.015 130.608C261.49 132.028 261.227 133.669 261.227 135.53C261.227 137.419 261.49 139.053 262.015 140.43C262.555 141.794 263.329 142.852 264.338 143.605C265.36 144.344 266.618 144.713 268.109 144.713ZM300.218 133.08V152H291.142V119.273H299.792V125.047H300.176C300.9 123.143 302.115 121.638 303.819 120.53C305.524 119.408 307.591 118.847 310.02 118.847C312.292 118.847 314.274 119.344 315.964 120.338C317.654 121.332 318.968 122.753 319.906 124.599C320.843 126.432 321.312 128.619 321.312 131.162V152H312.235V132.781C312.25 130.778 311.738 129.216 310.701 128.094C309.664 126.957 308.237 126.389 306.419 126.389C305.197 126.389 304.118 126.652 303.18 127.178C302.257 127.703 301.532 128.47 301.007 129.479C300.495 130.473 300.233 131.673 300.218 133.08ZM359.952 119.273V126.091H339.753V119.273H359.952ZM344.377 152V116.908C344.377 114.536 344.838 112.568 345.762 111.006C346.699 109.443 347.978 108.271 349.597 107.49C351.216 106.709 353.056 106.318 355.115 106.318C356.507 106.318 357.779 106.425 358.929 106.638C360.094 106.851 360.961 107.043 361.529 107.213L359.909 114.031C359.554 113.918 359.114 113.811 358.588 113.712C358.077 113.612 357.551 113.562 357.012 113.562C355.676 113.562 354.746 113.875 354.221 114.5C353.695 115.111 353.432 115.97 353.432 117.078V152H344.377ZM379.112 152.639C375.803 152.639 372.94 151.936 370.526 150.53C368.125 149.109 366.271 147.135 364.964 144.607C363.658 142.064 363.004 139.116 363.004 135.764C363.004 132.384 363.658 129.429 364.964 126.901C366.271 124.358 368.125 122.384 370.526 120.977C372.94 119.557 375.803 118.847 379.112 118.847C382.422 118.847 385.277 119.557 387.678 120.977C390.092 122.384 391.953 124.358 393.26 126.901C394.567 129.429 395.22 132.384 395.22 135.764C395.22 139.116 394.567 142.064 393.26 144.607C391.953 147.135 390.092 149.109 387.678 150.53C385.277 151.936 382.422 152.639 379.112 152.639ZM379.155 145.608C380.661 145.608 381.918 145.182 382.926 144.33C383.935 143.463 384.695 142.284 385.206 140.793C385.732 139.301 385.994 137.604 385.994 135.7C385.994 133.797 385.732 132.099 385.206 130.608C384.695 129.116 383.935 127.937 382.926 127.071C381.918 126.205 380.661 125.771 379.155 125.771C377.635 125.771 376.357 126.205 375.32 127.071C374.297 127.937 373.523 129.116 372.997 130.608C372.486 132.099 372.23 133.797 372.23 135.7C372.23 137.604 372.486 139.301 372.997 140.793C373.523 142.284 374.297 143.463 375.32 144.33C376.357 145.182 377.635 145.608 379.155 145.608ZM401.122 152V119.273H409.922V124.983H410.263C410.859 122.952 411.861 121.418 413.267 120.381C414.673 119.33 416.293 118.804 418.125 118.804C418.58 118.804 419.07 118.832 419.595 118.889C420.121 118.946 420.582 119.024 420.98 119.124V127.178C420.554 127.05 419.964 126.936 419.212 126.837C418.459 126.737 417.77 126.688 417.145 126.688C415.81 126.688 414.616 126.979 413.565 127.561C412.528 128.129 411.705 128.925 411.094 129.947C410.497 130.97 410.199 132.149 410.199 133.484V152H401.122ZM147.464 180.913C147.294 179.195 146.563 177.859 145.27 176.908C143.977 175.956 142.223 175.48 140.007 175.48C138.501 175.48 137.23 175.693 136.193 176.119C135.156 176.531 134.361 177.107 133.807 177.845C133.267 178.584 132.997 179.422 132.997 180.359C132.969 181.141 133.132 181.822 133.487 182.405C133.857 182.987 134.361 183.491 135 183.918C135.639 184.33 136.378 184.692 137.216 185.004C138.054 185.303 138.949 185.558 139.901 185.771L143.821 186.709C145.724 187.135 147.472 187.703 149.062 188.413C150.653 189.124 152.031 189.997 153.196 191.034C154.361 192.071 155.263 193.293 155.902 194.699C156.555 196.105 156.889 197.717 156.903 199.536C156.889 202.206 156.207 204.521 154.858 206.482C153.523 208.428 151.591 209.94 149.062 211.02C146.548 212.085 143.516 212.618 139.964 212.618C136.442 212.618 133.374 212.078 130.76 210.999C128.161 209.919 126.129 208.321 124.666 206.205C123.217 204.074 122.457 201.439 122.386 198.3H131.314C131.413 199.763 131.832 200.984 132.571 201.964C133.324 202.93 134.325 203.662 135.575 204.159C136.839 204.642 138.267 204.884 139.858 204.884C141.42 204.884 142.777 204.656 143.928 204.202C145.092 203.747 145.994 203.115 146.634 202.305C147.273 201.496 147.592 200.565 147.592 199.514C147.592 198.534 147.301 197.71 146.719 197.043C146.151 196.375 145.313 195.807 144.205 195.338C143.111 194.869 141.768 194.443 140.178 194.06L135.426 192.866C131.747 191.972 128.842 190.572 126.712 188.669C124.581 186.766 123.523 184.202 123.537 180.977C123.523 178.335 124.226 176.027 125.646 174.053C127.081 172.078 129.048 170.537 131.548 169.429C134.048 168.321 136.889 167.767 140.071 167.767C143.31 167.767 146.136 168.321 148.551 169.429C150.98 170.537 152.869 172.078 154.219 174.053C155.568 176.027 156.264 178.314 156.307 180.913H147.464ZM177.725 212.639C174.373 212.639 171.49 211.929 169.075 210.509C166.674 209.074 164.828 207.085 163.535 204.543C162.257 202 161.618 199.074 161.618 195.764C161.618 192.412 162.264 189.472 163.556 186.943C164.863 184.401 166.717 182.419 169.118 180.999C171.518 179.564 174.373 178.847 177.683 178.847C180.538 178.847 183.038 179.365 185.183 180.402C187.328 181.439 189.025 182.895 190.275 184.77C191.525 186.645 192.214 188.847 192.342 191.375H183.777C183.535 189.741 182.896 188.428 181.859 187.433C180.836 186.425 179.494 185.92 177.832 185.92C176.426 185.92 175.197 186.304 174.146 187.071C173.109 187.824 172.299 188.925 171.717 190.374C171.135 191.822 170.843 193.577 170.843 195.636C170.843 197.724 171.127 199.5 171.696 200.963C172.278 202.426 173.095 203.541 174.146 204.308C175.197 205.075 176.426 205.459 177.832 205.459C178.869 205.459 179.799 205.246 180.623 204.82C181.461 204.393 182.15 203.776 182.69 202.966C183.244 202.142 183.606 201.155 183.777 200.004H192.342C192.2 202.504 191.518 204.706 190.297 206.609C189.089 208.499 187.42 209.976 185.289 211.041C183.159 212.107 180.637 212.639 177.725 212.639ZM198.153 212V179.273H207.23V212H198.153ZM202.713 175.054C201.364 175.054 200.206 174.607 199.24 173.712C198.288 172.803 197.812 171.716 197.812 170.452C197.812 169.202 198.288 168.129 199.24 167.234C200.206 166.325 201.364 165.871 202.713 165.871C204.063 165.871 205.213 166.325 206.165 167.234C207.131 168.129 207.614 169.202 207.614 170.452C207.614 171.716 207.131 172.803 206.165 173.712C205.213 174.607 204.063 175.054 202.713 175.054ZM229.416 212.639C226.049 212.639 223.152 211.957 220.723 210.594C218.308 209.216 216.447 207.27 215.14 204.756C213.833 202.227 213.18 199.237 213.18 195.786C213.18 192.419 213.833 189.464 215.14 186.922C216.447 184.379 218.287 182.398 220.659 180.977C223.045 179.557 225.843 178.847 229.054 178.847C231.213 178.847 233.223 179.195 235.083 179.891C236.958 180.572 238.592 181.602 239.984 182.98C241.39 184.358 242.484 186.091 243.265 188.179C244.047 190.253 244.437 192.682 244.437 195.466V197.959H216.802V192.334H235.893C235.893 191.027 235.609 189.869 235.041 188.861C234.473 187.852 233.684 187.064 232.676 186.496C231.681 185.913 230.524 185.622 229.203 185.622C227.825 185.622 226.603 185.942 225.538 186.581C224.487 187.206 223.663 188.051 223.066 189.116C222.47 190.168 222.164 191.339 222.15 192.632V197.98C222.15 199.599 222.449 200.999 223.045 202.178C223.656 203.357 224.515 204.266 225.623 204.905C226.731 205.544 228.045 205.864 229.565 205.864C230.574 205.864 231.497 205.722 232.335 205.438C233.173 205.153 233.89 204.727 234.487 204.159C235.083 203.591 235.538 202.895 235.85 202.071L244.245 202.625C243.819 204.642 242.946 206.403 241.625 207.909C240.318 209.401 238.627 210.565 236.554 211.403C234.494 212.227 232.115 212.639 229.416 212.639ZM259.437 193.08V212H250.36V179.273H259.011V185.047H259.395C260.119 183.143 261.333 181.638 263.038 180.53C264.743 179.408 266.809 178.847 269.238 178.847C271.511 178.847 273.493 179.344 275.183 180.338C276.873 181.332 278.187 182.753 279.125 184.599C280.062 186.432 280.531 188.619 280.531 191.162V212H271.454V192.781C271.468 190.778 270.957 189.216 269.92 188.094C268.883 186.957 267.456 186.389 265.637 186.389C264.416 186.389 263.336 186.652 262.399 187.178C261.475 187.703 260.751 188.47 260.225 189.479C259.714 190.473 259.451 191.673 259.437 193.08ZM305.092 179.273V186.091H285.384V179.273H305.092ZM289.858 171.432H298.935V201.943C298.935 202.781 299.063 203.435 299.318 203.903C299.574 204.358 299.929 204.678 300.384 204.862C300.852 205.047 301.392 205.139 302.003 205.139C302.429 205.139 302.855 205.104 303.281 205.033C303.707 204.947 304.034 204.884 304.261 204.841L305.689 211.595C305.234 211.737 304.595 211.901 303.771 212.085C302.947 212.284 301.946 212.405 300.767 212.447C298.58 212.533 296.662 212.241 295.014 211.574C293.381 210.906 292.109 209.869 291.2 208.463C290.291 207.057 289.844 205.281 289.858 203.136V171.432ZM311.005 212V179.273H320.082V212H311.005ZM315.565 175.054C314.215 175.054 313.058 174.607 312.092 173.712C311.14 172.803 310.664 171.716 310.664 170.452C310.664 169.202 311.14 168.129 312.092 167.234C313.058 166.325 314.215 165.871 315.565 165.871C316.914 165.871 318.065 166.325 319.016 167.234C319.982 168.129 320.465 169.202 320.465 170.452C320.465 171.716 319.982 172.803 319.016 173.712C318.065 174.607 316.914 175.054 315.565 175.054ZM354.583 188.605L346.273 189.116C346.131 188.406 345.826 187.767 345.357 187.199C344.888 186.616 344.27 186.155 343.503 185.814C342.75 185.459 341.848 185.281 340.797 185.281C339.391 185.281 338.205 185.58 337.239 186.176C336.273 186.759 335.79 187.54 335.79 188.52C335.79 189.301 336.103 189.962 336.728 190.501C337.353 191.041 338.425 191.474 339.945 191.801L345.868 192.994C349.05 193.648 351.422 194.699 352.985 196.148C354.547 197.597 355.328 199.5 355.328 201.858C355.328 204.003 354.696 205.885 353.432 207.504C352.182 209.124 350.463 210.388 348.276 211.297C346.103 212.192 343.596 212.639 340.755 212.639C336.422 212.639 332.971 211.737 330.4 209.933C327.843 208.115 326.344 205.643 325.904 202.518L334.831 202.05C335.101 203.371 335.755 204.379 336.792 205.075C337.828 205.757 339.157 206.098 340.776 206.098C342.367 206.098 343.645 205.793 344.611 205.182C345.591 204.557 346.088 203.754 346.103 202.774C346.088 201.95 345.74 201.276 345.059 200.75C344.377 200.21 343.326 199.798 341.905 199.514L336.238 198.385C333.042 197.746 330.662 196.638 329.1 195.061C327.551 193.484 326.777 191.474 326.777 189.031C326.777 186.929 327.346 185.118 328.482 183.598C329.632 182.078 331.245 180.906 333.319 180.082C335.407 179.259 337.85 178.847 340.648 178.847C344.782 178.847 348.034 179.72 350.407 181.467C352.793 183.214 354.185 185.594 354.583 188.605ZM378.452 179.273V186.091H358.743V179.273H378.452ZM363.217 171.432H372.294V201.943C372.294 202.781 372.422 203.435 372.678 203.903C372.933 204.358 373.288 204.678 373.743 204.862C374.212 205.047 374.751 205.139 375.362 205.139C375.788 205.139 376.214 205.104 376.641 205.033C377.067 204.947 377.393 204.884 377.621 204.841L379.048 211.595C378.594 211.737 377.955 211.901 377.131 212.085C376.307 212.284 375.305 212.405 374.126 212.447C371.939 212.533 370.021 212.241 368.374 211.574C366.74 210.906 365.469 209.869 364.56 208.463C363.651 207.057 363.203 205.281 363.217 203.136V171.432ZM411.184 188.605L402.875 189.116C402.733 188.406 402.427 187.767 401.958 187.199C401.49 186.616 400.872 186.155 400.105 185.814C399.352 185.459 398.45 185.281 397.399 185.281C395.993 185.281 394.806 185.58 393.841 186.176C392.875 186.759 392.392 187.54 392.392 188.52C392.392 189.301 392.704 189.962 393.329 190.501C393.954 191.041 395.027 191.474 396.547 191.801L402.47 192.994C405.652 193.648 408.024 194.699 409.586 196.148C411.149 197.597 411.93 199.5 411.93 201.858C411.93 204.003 411.298 205.885 410.034 207.504C408.784 209.124 407.065 210.388 404.877 211.297C402.704 212.192 400.197 212.639 397.356 212.639C393.024 212.639 389.572 211.737 387.001 209.933C384.444 208.115 382.946 205.643 382.505 202.518L391.433 202.05C391.703 203.371 392.356 204.379 393.393 205.075C394.43 205.757 395.758 206.098 397.377 206.098C398.968 206.098 400.247 205.793 401.213 205.182C402.193 204.557 402.69 203.754 402.704 202.774C402.69 201.95 402.342 201.276 401.66 200.75C400.978 200.21 399.927 199.798 398.507 199.514L392.839 198.385C389.643 197.746 387.264 196.638 385.701 195.061C384.153 193.484 383.379 191.474 383.379 189.031C383.379 186.929 383.947 185.118 385.083 183.598C386.234 182.078 387.846 180.906 389.92 180.082C392.008 179.259 394.451 178.847 397.25 178.847C401.383 178.847 404.636 179.72 407.008 181.467C409.395 183.214 410.787 185.594 411.184 188.605Z" fill="#0C7CFF"/>
<path d="M123.773 285H120.818L129.364 261.727H132.273L140.818 285H137.864L130.909 265.409H130.727L123.773 285ZM124.864 275.909H136.773V278.409H124.864V275.909ZM146.761 274.5V285H144.08V267.545H146.67V270.273H146.898C147.307 269.386 147.928 268.674 148.761 268.136C149.595 267.591 150.67 267.318 151.989 267.318C153.17 267.318 154.205 267.561 155.091 268.045C155.977 268.523 156.667 269.25 157.159 270.227C157.652 271.197 157.898 272.424 157.898 273.909V285H155.216V274.091C155.216 272.72 154.86 271.652 154.148 270.886C153.436 270.114 152.458 269.727 151.216 269.727C150.36 269.727 149.595 269.913 148.92 270.284C148.254 270.655 147.727 271.197 147.341 271.909C146.955 272.621 146.761 273.485 146.761 274.5ZM171.798 285V267.545H174.48V285H171.798ZM173.162 264.636C172.639 264.636 172.188 264.458 171.81 264.102C171.438 263.746 171.253 263.318 171.253 262.818C171.253 262.318 171.438 261.89 171.81 261.534C172.188 261.178 172.639 261 173.162 261C173.685 261 174.132 261.178 174.503 261.534C174.882 261.89 175.071 262.318 175.071 262.818C175.071 263.318 174.882 263.746 174.503 264.102C174.132 264.458 173.685 264.636 173.162 264.636ZM182.074 274.5V285H179.392V267.545H181.983V270.273H182.21C182.619 269.386 183.241 268.674 184.074 268.136C184.907 267.591 185.983 267.318 187.301 267.318C188.483 267.318 189.517 267.561 190.403 268.045C191.29 268.523 191.979 269.25 192.472 270.227C192.964 271.197 193.21 272.424 193.21 273.909V285H190.528V274.091C190.528 272.72 190.172 271.652 189.46 270.886C188.748 270.114 187.771 269.727 186.528 269.727C185.672 269.727 184.907 269.913 184.233 270.284C183.566 270.655 183.04 271.197 182.653 271.909C182.267 272.621 182.074 273.485 182.074 274.5ZM205.702 267.545V269.818H196.656V267.545H205.702ZM199.293 263.364H201.974V280C201.974 280.758 202.084 281.326 202.304 281.705C202.531 282.076 202.819 282.326 203.168 282.455C203.524 282.576 203.899 282.636 204.293 282.636C204.588 282.636 204.83 282.621 205.02 282.591C205.209 282.553 205.361 282.523 205.474 282.5L206.02 284.909C205.838 284.977 205.584 285.045 205.259 285.114C204.933 285.189 204.52 285.227 204.02 285.227C203.262 285.227 202.52 285.064 201.793 284.739C201.073 284.413 200.474 283.917 199.997 283.25C199.527 282.583 199.293 281.742 199.293 280.727V263.364ZM209.736 285V267.545H212.327V270.182H212.509C212.827 269.318 213.402 268.617 214.236 268.08C215.069 267.542 216.009 267.273 217.054 267.273C217.251 267.273 217.497 267.277 217.793 267.284C218.088 267.292 218.312 267.303 218.463 267.318V270.045C218.372 270.023 218.164 269.989 217.838 269.943C217.52 269.89 217.183 269.864 216.827 269.864C215.978 269.864 215.221 270.042 214.554 270.398C213.895 270.746 213.372 271.231 212.986 271.852C212.607 272.466 212.418 273.167 212.418 273.955V285H209.736ZM228.202 285.364C226.626 285.364 225.243 284.989 224.054 284.239C222.872 283.489 221.948 282.439 221.281 281.091C220.622 279.742 220.293 278.167 220.293 276.364C220.293 274.545 220.622 272.958 221.281 271.602C221.948 270.246 222.872 269.193 224.054 268.443C225.243 267.693 226.626 267.318 228.202 267.318C229.777 267.318 231.156 267.693 232.338 268.443C233.527 269.193 234.452 270.246 235.111 271.602C235.777 272.958 236.111 274.545 236.111 276.364C236.111 278.167 235.777 279.742 235.111 281.091C234.452 282.439 233.527 283.489 232.338 284.239C231.156 284.989 229.777 285.364 228.202 285.364ZM228.202 282.955C229.399 282.955 230.384 282.648 231.156 282.034C231.929 281.42 232.501 280.614 232.872 279.614C233.243 278.614 233.429 277.53 233.429 276.364C233.429 275.197 233.243 274.11 232.872 273.102C232.501 272.095 231.929 271.28 231.156 270.659C230.384 270.038 229.399 269.727 228.202 269.727C227.005 269.727 226.02 270.038 225.247 270.659C224.474 271.28 223.902 272.095 223.531 273.102C223.16 274.11 222.974 275.197 222.974 276.364C222.974 277.53 223.16 278.614 223.531 279.614C223.902 280.614 224.474 281.42 225.247 282.034C226.02 282.648 227.005 282.955 228.202 282.955ZM246.795 285.364C245.341 285.364 244.057 284.996 242.943 284.261C241.83 283.519 240.958 282.473 240.33 281.125C239.701 279.769 239.386 278.167 239.386 276.318C239.386 274.485 239.701 272.894 240.33 271.545C240.958 270.197 241.833 269.155 242.955 268.42C244.076 267.686 245.371 267.318 246.841 267.318C247.977 267.318 248.875 267.508 249.534 267.886C250.201 268.258 250.708 268.682 251.057 269.159C251.413 269.629 251.689 270.015 251.886 270.318H252.114V261.727H254.795V285H252.205V282.318H251.886C251.689 282.636 251.409 283.038 251.045 283.523C250.682 284 250.163 284.428 249.489 284.807C248.814 285.178 247.917 285.364 246.795 285.364ZM247.159 282.955C248.235 282.955 249.144 282.674 249.886 282.114C250.629 281.545 251.193 280.761 251.58 279.761C251.966 278.754 252.159 277.591 252.159 276.273C252.159 274.97 251.97 273.83 251.591 272.852C251.212 271.867 250.652 271.102 249.909 270.557C249.167 270.004 248.25 269.727 247.159 269.727C246.023 269.727 245.076 270.019 244.318 270.602C243.568 271.178 243.004 271.962 242.625 272.955C242.254 273.939 242.068 275.045 242.068 276.273C242.068 277.515 242.258 278.644 242.636 279.659C243.023 280.667 243.591 281.47 244.341 282.068C245.098 282.659 246.038 282.955 247.159 282.955ZM271.08 277.864V267.545H273.761V285H271.08V282.045H270.898C270.489 282.932 269.852 283.686 268.989 284.307C268.125 284.92 267.034 285.227 265.716 285.227C264.625 285.227 263.655 284.989 262.807 284.511C261.958 284.027 261.292 283.299 260.807 282.33C260.322 281.352 260.08 280.121 260.08 278.636V267.545H262.761V278.455C262.761 279.727 263.117 280.742 263.83 281.5C264.549 282.258 265.466 282.636 266.58 282.636C267.246 282.636 267.924 282.466 268.614 282.125C269.311 281.784 269.894 281.261 270.364 280.557C270.841 279.852 271.08 278.955 271.08 277.864ZM285.764 285.364C284.128 285.364 282.719 284.977 281.537 284.205C280.355 283.432 279.446 282.367 278.81 281.011C278.173 279.655 277.855 278.106 277.855 276.364C277.855 274.591 278.181 273.027 278.832 271.67C279.491 270.307 280.408 269.242 281.582 268.477C282.764 267.705 284.143 267.318 285.719 267.318C286.946 267.318 288.052 267.545 289.037 268C290.022 268.455 290.829 269.091 291.457 269.909C292.086 270.727 292.476 271.682 292.628 272.773H289.946C289.741 271.977 289.287 271.273 288.582 270.659C287.885 270.038 286.946 269.727 285.764 269.727C284.719 269.727 283.802 270 283.014 270.545C282.234 271.083 281.624 271.845 281.185 272.83C280.753 273.807 280.537 274.955 280.537 276.273C280.537 277.621 280.749 278.795 281.173 279.795C281.605 280.795 282.211 281.572 282.991 282.125C283.779 282.678 284.704 282.955 285.764 282.955C286.461 282.955 287.094 282.833 287.662 282.591C288.23 282.348 288.711 282 289.105 281.545C289.499 281.091 289.779 280.545 289.946 279.909H292.628C292.476 280.939 292.101 281.867 291.503 282.693C290.912 283.511 290.128 284.163 289.151 284.648C288.181 285.125 287.052 285.364 285.764 285.364ZM304.139 267.545V269.818H295.094V267.545H304.139ZM297.73 263.364H300.412V280C300.412 280.758 300.522 281.326 300.741 281.705C300.969 282.076 301.257 282.326 301.605 282.455C301.961 282.576 302.336 282.636 302.73 282.636C303.026 282.636 303.268 282.621 303.457 282.591C303.647 282.553 303.798 282.523 303.912 282.5L304.457 284.909C304.276 284.977 304.022 285.045 303.696 285.114C303.37 285.189 302.957 285.227 302.457 285.227C301.7 285.227 300.957 285.064 300.23 284.739C299.51 284.413 298.912 283.917 298.435 283.25C297.965 282.583 297.73 281.742 297.73 280.727V263.364ZM308.173 285V267.545H310.855V285H308.173ZM309.537 264.636C309.014 264.636 308.563 264.458 308.185 264.102C307.813 263.746 307.628 263.318 307.628 262.818C307.628 262.318 307.813 261.89 308.185 261.534C308.563 261.178 309.014 261 309.537 261C310.06 261 310.507 261.178 310.878 261.534C311.257 261.89 311.446 262.318 311.446 262.818C311.446 263.318 311.257 263.746 310.878 264.102C310.507 264.458 310.06 264.636 309.537 264.636ZM322.858 285.364C321.282 285.364 319.9 284.989 318.71 284.239C317.528 283.489 316.604 282.439 315.938 281.091C315.278 279.742 314.949 278.167 314.949 276.364C314.949 274.545 315.278 272.958 315.938 271.602C316.604 270.246 317.528 269.193 318.71 268.443C319.9 267.693 321.282 267.318 322.858 267.318C324.434 267.318 325.813 267.693 326.994 268.443C328.184 269.193 329.108 270.246 329.767 271.602C330.434 272.958 330.767 274.545 330.767 276.364C330.767 278.167 330.434 279.742 329.767 281.091C329.108 282.439 328.184 283.489 326.994 284.239C325.813 284.989 324.434 285.364 322.858 285.364ZM322.858 282.955C324.055 282.955 325.04 282.648 325.812 282.034C326.585 281.42 327.157 280.614 327.528 279.614C327.9 278.614 328.085 277.53 328.085 276.364C328.085 275.197 327.9 274.11 327.528 273.102C327.157 272.095 326.585 271.28 325.812 270.659C325.04 270.038 324.055 269.727 322.858 269.727C321.661 269.727 320.676 270.038 319.903 270.659C319.131 271.28 318.559 272.095 318.188 273.102C317.816 274.11 317.631 275.197 317.631 276.364C317.631 277.53 317.816 278.614 318.188 279.614C318.559 280.614 319.131 281.42 319.903 282.034C320.676 282.648 321.661 282.955 322.858 282.955ZM337.543 274.5V285H334.861V267.545H337.452V270.273H337.679C338.088 269.386 338.709 268.674 339.543 268.136C340.376 267.591 341.452 267.318 342.77 267.318C343.952 267.318 344.986 267.561 345.872 268.045C346.759 268.523 347.448 269.25 347.94 270.227C348.433 271.197 348.679 272.424 348.679 273.909V285H345.997V274.091C345.997 272.72 345.641 271.652 344.929 270.886C344.217 270.114 343.24 269.727 341.997 269.727C341.141 269.727 340.376 269.913 339.702 270.284C339.035 270.655 338.509 271.197 338.122 271.909C337.736 272.621 337.543 273.485 337.543 274.5ZM367.716 285.409C366.61 285.409 365.606 285.201 364.705 284.784C363.803 284.36 363.087 283.75 362.557 282.955C362.027 282.152 361.761 281.182 361.761 280.045C361.761 279.045 361.958 278.235 362.352 277.614C362.746 276.985 363.273 276.492 363.932 276.136C364.591 275.78 365.318 275.515 366.114 275.341C366.917 275.159 367.723 275.015 368.534 274.909C369.595 274.773 370.455 274.67 371.114 274.602C371.78 274.527 372.265 274.402 372.568 274.227C372.879 274.053 373.034 273.75 373.034 273.318V273.227C373.034 272.106 372.727 271.235 372.114 270.614C371.508 269.992 370.587 269.682 369.352 269.682C368.072 269.682 367.068 269.962 366.341 270.523C365.614 271.083 365.102 271.682 364.807 272.318L362.261 271.409C362.716 270.348 363.322 269.523 364.08 268.932C364.845 268.333 365.678 267.917 366.58 267.682C367.489 267.439 368.383 267.318 369.261 267.318C369.822 267.318 370.466 267.386 371.193 267.523C371.928 267.652 372.636 267.92 373.318 268.33C374.008 268.739 374.58 269.356 375.034 270.182C375.489 271.008 375.716 272.114 375.716 273.5V285H373.034V282.636H372.898C372.716 283.015 372.413 283.42 371.989 283.852C371.564 284.284 371 284.652 370.295 284.955C369.591 285.258 368.731 285.409 367.716 285.409ZM368.125 283C369.186 283 370.08 282.792 370.807 282.375C371.542 281.958 372.095 281.42 372.466 280.761C372.845 280.102 373.034 279.409 373.034 278.682V276.227C372.92 276.364 372.67 276.489 372.284 276.602C371.905 276.708 371.466 276.803 370.966 276.886C370.473 276.962 369.992 277.03 369.523 277.091C369.061 277.144 368.686 277.189 368.398 277.227C367.701 277.318 367.049 277.466 366.443 277.67C365.845 277.867 365.36 278.167 364.989 278.568C364.625 278.962 364.443 279.5 364.443 280.182C364.443 281.114 364.788 281.818 365.477 282.295C366.174 282.765 367.057 283 368.125 283ZM383.293 274.5V285H380.611V267.545H383.202V270.273H383.429C383.838 269.386 384.459 268.674 385.293 268.136C386.126 267.591 387.202 267.318 388.52 267.318C389.702 267.318 390.736 267.561 391.622 268.045C392.509 268.523 393.198 269.25 393.69 270.227C394.183 271.197 394.429 272.424 394.429 273.909V285H391.747V274.091C391.747 272.72 391.391 271.652 390.679 270.886C389.967 270.114 388.99 269.727 387.747 269.727C386.891 269.727 386.126 269.913 385.452 270.284C384.785 270.655 384.259 271.197 383.872 271.909C383.486 272.621 383.293 273.485 383.293 274.5ZM405.92 285.364C404.466 285.364 403.182 284.996 402.068 284.261C400.955 283.519 400.083 282.473 399.455 281.125C398.826 279.769 398.511 278.167 398.511 276.318C398.511 274.485 398.826 272.894 399.455 271.545C400.083 270.197 400.958 269.155 402.08 268.42C403.201 267.686 404.496 267.318 405.966 267.318C407.102 267.318 408 267.508 408.659 267.886C409.326 268.258 409.833 268.682 410.182 269.159C410.538 269.629 410.814 270.015 411.011 270.318H411.239V261.727H413.92V285H411.33V282.318H411.011C410.814 282.636 410.534 283.038 410.17 283.523C409.807 284 409.288 284.428 408.614 284.807C407.939 285.178 407.042 285.364 405.92 285.364ZM406.284 282.955C407.36 282.955 408.269 282.674 409.011 282.114C409.754 281.545 410.318 280.761 410.705 279.761C411.091 278.754 411.284 277.591 411.284 276.273C411.284 274.97 411.095 273.83 410.716 272.852C410.337 271.867 409.777 271.102 409.034 270.557C408.292 270.004 407.375 269.727 406.284 269.727C405.148 269.727 404.201 270.019 403.443 270.602C402.693 271.178 402.129 271.962 401.75 272.955C401.379 273.939 401.193 275.045 401.193 276.273C401.193 277.515 401.383 278.644 401.761 279.659C402.148 280.667 402.716 281.47 403.466 282.068C404.223 282.659 405.163 282.955 406.284 282.955ZM430.886 274.5V285H428.205V261.727H430.886V270.273H431.114C431.523 269.371 432.136 268.655 432.955 268.125C433.78 267.587 434.879 267.318 436.25 267.318C437.439 267.318 438.481 267.557 439.375 268.034C440.269 268.504 440.962 269.227 441.455 270.205C441.955 271.174 442.205 272.409 442.205 273.909V285H439.523V274.091C439.523 272.705 439.163 271.633 438.443 270.875C437.731 270.11 436.742 269.727 435.477 269.727C434.598 269.727 433.811 269.913 433.114 270.284C432.424 270.655 431.879 271.197 431.477 271.909C431.083 272.621 430.886 273.485 430.886 274.5ZM452.247 285.409C451.141 285.409 450.137 285.201 449.236 284.784C448.334 284.36 447.618 283.75 447.088 282.955C446.558 282.152 446.293 281.182 446.293 280.045C446.293 279.045 446.49 278.235 446.884 277.614C447.277 276.985 447.804 276.492 448.463 276.136C449.122 275.78 449.849 275.515 450.645 275.341C451.448 275.159 452.255 275.015 453.065 274.909C454.126 274.773 454.986 274.67 455.645 274.602C456.312 274.527 456.796 274.402 457.099 274.227C457.41 274.053 457.565 273.75 457.565 273.318V273.227C457.565 272.106 457.259 271.235 456.645 270.614C456.039 269.992 455.118 269.682 453.884 269.682C452.603 269.682 451.599 269.962 450.872 270.523C450.145 271.083 449.634 271.682 449.338 272.318L446.793 271.409C447.247 270.348 447.853 269.523 448.611 268.932C449.376 268.333 450.209 267.917 451.111 267.682C452.02 267.439 452.914 267.318 453.793 267.318C454.353 267.318 454.997 267.386 455.724 267.523C456.459 267.652 457.168 267.92 457.849 268.33C458.539 268.739 459.111 269.356 459.565 270.182C460.02 271.008 460.247 272.114 460.247 273.5V285H457.565V282.636H457.429C457.247 283.015 456.944 283.42 456.52 283.852C456.096 284.284 455.531 284.652 454.827 284.955C454.122 285.258 453.262 285.409 452.247 285.409ZM452.656 283C453.717 283 454.611 282.792 455.338 282.375C456.073 281.958 456.626 281.42 456.997 280.761C457.376 280.102 457.565 279.409 457.565 278.682V276.227C457.452 276.364 457.202 276.489 456.815 276.602C456.437 276.708 455.997 276.803 455.497 276.886C455.005 276.962 454.524 277.03 454.054 277.091C453.592 277.144 453.217 277.189 452.929 277.227C452.232 277.318 451.58 277.466 450.974 277.67C450.376 277.867 449.891 278.167 449.52 278.568C449.156 278.962 448.974 279.5 448.974 280.182C448.974 281.114 449.319 281.818 450.009 282.295C450.705 282.765 451.588 283 452.656 283ZM467.824 274.5V285H465.142V267.545H467.733V270.273H467.96C468.369 269.386 468.991 268.674 469.824 268.136C470.657 267.591 471.733 267.318 473.051 267.318C474.233 267.318 475.267 267.561 476.153 268.045C477.04 268.523 477.729 269.25 478.222 270.227C478.714 271.197 478.96 272.424 478.96 273.909V285H476.278V274.091C476.278 272.72 475.922 271.652 475.21 270.886C474.498 270.114 473.521 269.727 472.278 269.727C471.422 269.727 470.657 269.913 469.983 270.284C469.316 270.655 468.79 271.197 468.403 271.909C468.017 272.621 467.824 273.485 467.824 274.5ZM490.452 285.364C488.997 285.364 487.713 284.996 486.599 284.261C485.486 283.519 484.615 282.473 483.986 281.125C483.357 279.769 483.043 278.167 483.043 276.318C483.043 274.485 483.357 272.894 483.986 271.545C484.615 270.197 485.49 269.155 486.611 268.42C487.732 267.686 489.027 267.318 490.497 267.318C491.634 267.318 492.531 267.508 493.19 267.886C493.857 268.258 494.365 268.682 494.713 269.159C495.069 269.629 495.346 270.015 495.543 270.318H495.77V261.727H498.452V285H495.861V282.318H495.543C495.346 282.636 495.065 283.038 494.702 283.523C494.338 284 493.819 284.428 493.145 284.807C492.471 285.178 491.573 285.364 490.452 285.364ZM490.815 282.955C491.891 282.955 492.8 282.674 493.543 282.114C494.285 281.545 494.849 280.761 495.236 279.761C495.622 278.754 495.815 277.591 495.815 276.273C495.815 274.97 495.626 273.83 495.247 272.852C494.868 271.867 494.308 271.102 493.565 270.557C492.823 270.004 491.906 269.727 490.815 269.727C489.679 269.727 488.732 270.019 487.974 270.602C487.224 271.178 486.66 271.962 486.281 272.955C485.91 273.939 485.724 275.045 485.724 276.273C485.724 277.515 485.914 278.644 486.293 279.659C486.679 280.667 487.247 281.47 487.997 282.068C488.755 282.659 489.694 282.955 490.815 282.955ZM516.099 271.455L513.69 272.136C513.539 271.735 513.315 271.345 513.02 270.966C512.732 270.58 512.338 270.261 511.838 270.011C511.338 269.761 510.698 269.636 509.918 269.636C508.849 269.636 507.959 269.883 507.247 270.375C506.543 270.86 506.19 271.477 506.19 272.227C506.19 272.894 506.433 273.42 506.918 273.807C507.402 274.193 508.16 274.515 509.19 274.773L511.781 275.409C513.342 275.788 514.505 276.367 515.27 277.148C516.035 277.92 516.418 278.917 516.418 280.136C516.418 281.136 516.13 282.03 515.554 282.818C514.986 283.606 514.19 284.227 513.168 284.682C512.145 285.136 510.955 285.364 509.599 285.364C507.819 285.364 506.346 284.977 505.179 284.205C504.012 283.432 503.274 282.303 502.963 280.818L505.509 280.182C505.751 281.121 506.209 281.826 506.884 282.295C507.565 282.765 508.455 283 509.554 283C510.804 283 511.796 282.735 512.531 282.205C513.274 281.667 513.645 281.023 513.645 280.273C513.645 279.667 513.433 279.159 513.009 278.75C512.584 278.333 511.933 278.023 511.054 277.818L508.145 277.136C506.546 276.758 505.372 276.17 504.622 275.375C503.88 274.572 503.509 273.568 503.509 272.364C503.509 271.379 503.785 270.508 504.338 269.75C504.899 268.992 505.66 268.398 506.622 267.966C507.592 267.534 508.69 267.318 509.918 267.318C511.645 267.318 513.001 267.697 513.986 268.455C514.978 269.212 515.683 270.212 516.099 271.455ZM536.545 285.364C534.97 285.364 533.587 284.989 532.398 284.239C531.216 283.489 530.292 282.439 529.625 281.091C528.966 279.742 528.636 278.167 528.636 276.364C528.636 274.545 528.966 272.958 529.625 271.602C530.292 270.246 531.216 269.193 532.398 268.443C533.587 267.693 534.97 267.318 536.545 267.318C538.121 267.318 539.5 267.693 540.682 268.443C541.871 269.193 542.795 270.246 543.455 271.602C544.121 272.958 544.455 274.545 544.455 276.364C544.455 278.167 544.121 279.742 543.455 281.091C542.795 282.439 541.871 283.489 540.682 284.239C539.5 284.989 538.121 285.364 536.545 285.364ZM536.545 282.955C537.742 282.955 538.727 282.648 539.5 282.034C540.273 281.42 540.845 280.614 541.216 279.614C541.587 278.614 541.773 277.53 541.773 276.364C541.773 275.197 541.587 274.11 541.216 273.102C540.845 272.095 540.273 271.28 539.5 270.659C538.727 270.038 537.742 269.727 536.545 269.727C535.348 269.727 534.364 270.038 533.591 270.659C532.818 271.28 532.246 272.095 531.875 273.102C531.504 274.11 531.318 275.197 531.318 276.364C531.318 277.53 531.504 278.614 531.875 279.614C532.246 280.614 532.818 281.42 533.591 282.034C534.364 282.648 535.348 282.955 536.545 282.955ZM551.23 274.5V285H548.548V267.545H551.139V270.273H551.366C551.776 269.386 552.397 268.674 553.23 268.136C554.063 267.591 555.139 267.318 556.457 267.318C557.639 267.318 558.673 267.561 559.56 268.045C560.446 268.523 561.135 269.25 561.628 270.227C562.12 271.197 562.366 272.424 562.366 273.909V285H559.685V274.091C559.685 272.72 559.329 271.652 558.616 270.886C557.904 270.114 556.927 269.727 555.685 269.727C554.829 269.727 554.063 269.913 553.389 270.284C552.723 270.655 552.196 271.197 551.81 271.909C551.423 272.621 551.23 273.485 551.23 274.5ZM583.312 291.909C582.017 291.909 580.903 291.742 579.972 291.409C579.04 291.083 578.263 290.652 577.642 290.114C577.028 289.583 576.54 289.015 576.176 288.409L578.312 286.909C578.555 287.227 578.862 287.591 579.233 288C579.604 288.417 580.112 288.777 580.756 289.08C581.407 289.39 582.259 289.545 583.312 289.545C584.722 289.545 585.884 289.205 586.801 288.523C587.718 287.841 588.176 286.773 588.176 285.318V281.773H587.949C587.752 282.091 587.472 282.485 587.108 282.955C586.752 283.417 586.237 283.83 585.562 284.193C584.896 284.549 583.994 284.727 582.858 284.727C581.449 284.727 580.184 284.394 579.062 283.727C577.949 283.061 577.066 282.091 576.415 280.818C575.771 279.545 575.449 278 575.449 276.182C575.449 274.394 575.763 272.837 576.392 271.511C577.021 270.178 577.896 269.148 579.017 268.42C580.138 267.686 581.434 267.318 582.903 267.318C584.04 267.318 584.941 267.508 585.608 267.886C586.282 268.258 586.797 268.682 587.153 269.159C587.517 269.629 587.797 270.015 587.994 270.318H588.267V267.545H590.858V285.5C590.858 287 590.517 288.22 589.835 289.159C589.161 290.106 588.252 290.799 587.108 291.239C585.972 291.686 584.706 291.909 583.312 291.909ZM583.222 282.318C584.297 282.318 585.206 282.072 585.949 281.58C586.691 281.087 587.256 280.379 587.642 279.455C588.028 278.53 588.222 277.424 588.222 276.136C588.222 274.879 588.032 273.769 587.653 272.807C587.275 271.845 586.714 271.091 585.972 270.545C585.229 270 584.313 269.727 583.222 269.727C582.085 269.727 581.138 270.015 580.381 270.591C579.631 271.167 579.066 271.939 578.688 272.909C578.316 273.879 578.131 274.955 578.131 276.136C578.131 277.348 578.32 278.42 578.699 279.352C579.085 280.277 579.653 281.004 580.403 281.534C581.161 282.057 582.1 282.318 583.222 282.318ZM606.767 277.864V267.545H609.449V285H606.767V282.045H606.585C606.176 282.932 605.54 283.686 604.676 284.307C603.813 284.92 602.722 285.227 601.403 285.227C600.312 285.227 599.343 284.989 598.494 284.511C597.646 284.027 596.979 283.299 596.494 282.33C596.009 281.352 595.767 280.121 595.767 278.636V267.545H598.449V278.455C598.449 279.727 598.805 280.742 599.517 281.5C600.237 282.258 601.153 282.636 602.267 282.636C602.934 282.636 603.612 282.466 604.301 282.125C604.998 281.784 605.581 281.261 606.051 280.557C606.528 279.852 606.767 278.955 606.767 277.864ZM614.361 285V267.545H617.043V285H614.361ZM615.724 264.636C615.202 264.636 614.751 264.458 614.372 264.102C614.001 263.746 613.815 263.318 613.815 262.818C613.815 262.318 614.001 261.89 614.372 261.534C614.751 261.178 615.202 261 615.724 261C616.247 261 616.694 261.178 617.065 261.534C617.444 261.89 617.634 262.318 617.634 262.818C617.634 263.318 617.444 263.746 617.065 264.102C616.694 264.458 616.247 264.636 615.724 264.636ZM628.545 285.364C627.091 285.364 625.807 284.996 624.693 284.261C623.58 283.519 622.708 282.473 622.08 281.125C621.451 279.769 621.136 278.167 621.136 276.318C621.136 274.485 621.451 272.894 622.08 271.545C622.708 270.197 623.583 269.155 624.705 268.42C625.826 267.686 627.121 267.318 628.591 267.318C629.727 267.318 630.625 267.508 631.284 267.886C631.951 268.258 632.458 268.682 632.807 269.159C633.163 269.629 633.439 270.015 633.636 270.318H633.864V261.727H636.545V285H633.955V282.318H633.636C633.439 282.636 633.159 283.038 632.795 283.523C632.432 284 631.913 284.428 631.239 284.807C630.564 285.178 629.667 285.364 628.545 285.364ZM628.909 282.955C629.985 282.955 630.894 282.674 631.636 282.114C632.379 281.545 632.943 280.761 633.33 279.761C633.716 278.754 633.909 277.591 633.909 276.273C633.909 274.97 633.72 273.83 633.341 272.852C632.962 271.867 632.402 271.102 631.659 270.557C630.917 270.004 630 269.727 628.909 269.727C627.773 269.727 626.826 270.019 626.068 270.602C625.318 271.178 624.754 271.962 624.375 272.955C624.004 273.939 623.818 275.045 623.818 276.273C623.818 277.515 624.008 278.644 624.386 279.659C624.773 280.667 625.341 281.47 626.091 282.068C626.848 282.659 627.788 282.955 628.909 282.955ZM649.148 285.364C647.466 285.364 646.015 284.992 644.795 284.25C643.583 283.5 642.648 282.455 641.989 281.114C641.337 279.765 641.011 278.197 641.011 276.409C641.011 274.621 641.337 273.045 641.989 271.682C642.648 270.311 643.564 269.242 644.739 268.477C645.92 267.705 647.299 267.318 648.875 267.318C649.784 267.318 650.682 267.47 651.568 267.773C652.455 268.076 653.261 268.568 653.989 269.25C654.716 269.924 655.295 270.818 655.727 271.932C656.159 273.045 656.375 274.417 656.375 276.045V277.182H642.92V274.864H653.648C653.648 273.879 653.451 273 653.057 272.227C652.67 271.455 652.117 270.845 651.398 270.398C650.686 269.951 649.845 269.727 648.875 269.727C647.807 269.727 646.883 269.992 646.102 270.523C645.33 271.045 644.735 271.727 644.318 272.568C643.902 273.409 643.693 274.311 643.693 275.273V276.818C643.693 278.136 643.92 279.254 644.375 280.17C644.837 281.08 645.477 281.773 646.295 282.25C647.114 282.72 648.064 282.955 649.148 282.955C649.852 282.955 650.489 282.856 651.057 282.659C651.633 282.455 652.129 282.152 652.545 281.75C652.962 281.341 653.284 280.833 653.511 280.227L656.102 280.955C655.83 281.833 655.371 282.606 654.727 283.273C654.083 283.932 653.288 284.447 652.341 284.818C651.394 285.182 650.33 285.364 649.148 285.364ZM130.045 309.545V311.818H121V309.545H130.045ZM123.636 305.364H126.318V322C126.318 322.758 126.428 323.326 126.648 323.705C126.875 324.076 127.163 324.326 127.511 324.455C127.867 324.576 128.242 324.636 128.636 324.636C128.932 324.636 129.174 324.621 129.364 324.591C129.553 324.553 129.705 324.523 129.818 324.5L130.364 326.909C130.182 326.977 129.928 327.045 129.602 327.114C129.277 327.189 128.864 327.227 128.364 327.227C127.606 327.227 126.864 327.064 126.136 326.739C125.417 326.413 124.818 325.917 124.341 325.25C123.871 324.583 123.636 323.742 123.636 322.727V305.364ZM140.983 327.364C139.407 327.364 138.025 326.989 136.835 326.239C135.653 325.489 134.729 324.439 134.062 323.091C133.403 321.742 133.074 320.167 133.074 318.364C133.074 316.545 133.403 314.958 134.062 313.602C134.729 312.246 135.653 311.193 136.835 310.443C138.025 309.693 139.407 309.318 140.983 309.318C142.559 309.318 143.938 309.693 145.119 310.443C146.309 311.193 147.233 312.246 147.892 313.602C148.559 314.958 148.892 316.545 148.892 318.364C148.892 320.167 148.559 321.742 147.892 323.091C147.233 324.439 146.309 325.489 145.119 326.239C143.938 326.989 142.559 327.364 140.983 327.364ZM140.983 324.955C142.18 324.955 143.165 324.648 143.938 324.034C144.71 323.42 145.282 322.614 145.653 321.614C146.025 320.614 146.21 319.53 146.21 318.364C146.21 317.197 146.025 316.11 145.653 315.102C145.282 314.095 144.71 313.28 143.938 312.659C143.165 312.038 142.18 311.727 140.983 311.727C139.786 311.727 138.801 312.038 138.028 312.659C137.256 313.28 136.684 314.095 136.312 315.102C135.941 316.11 135.756 317.197 135.756 318.364C135.756 319.53 135.941 320.614 136.312 321.614C136.684 322.614 137.256 323.42 138.028 324.034C138.801 324.648 139.786 324.955 140.983 324.955ZM176.259 309.545L169.804 327H167.077L160.622 309.545H163.531L168.349 323.455H168.531L173.349 309.545H176.259ZM179.798 327V309.545H182.48V327H179.798ZM181.162 306.636C180.639 306.636 180.188 306.458 179.81 306.102C179.438 305.746 179.253 305.318 179.253 304.818C179.253 304.318 179.438 303.89 179.81 303.534C180.188 303.178 180.639 303 181.162 303C181.685 303 182.132 303.178 182.503 303.534C182.882 303.89 183.071 304.318 183.071 304.818C183.071 305.318 182.882 305.746 182.503 306.102C182.132 306.458 181.685 306.636 181.162 306.636ZM199.756 313.455L197.347 314.136C197.195 313.735 196.972 313.345 196.676 312.966C196.388 312.58 195.994 312.261 195.494 312.011C194.994 311.761 194.354 311.636 193.574 311.636C192.506 311.636 191.616 311.883 190.903 312.375C190.199 312.86 189.847 313.477 189.847 314.227C189.847 314.894 190.089 315.42 190.574 315.807C191.059 316.193 191.816 316.515 192.847 316.773L195.438 317.409C196.998 317.788 198.161 318.367 198.926 319.148C199.691 319.92 200.074 320.917 200.074 322.136C200.074 323.136 199.786 324.03 199.21 324.818C198.642 325.606 197.847 326.227 196.824 326.682C195.801 327.136 194.612 327.364 193.256 327.364C191.475 327.364 190.002 326.977 188.835 326.205C187.669 325.432 186.93 324.303 186.619 322.818L189.165 322.182C189.407 323.121 189.866 323.826 190.54 324.295C191.222 324.765 192.112 325 193.21 325C194.46 325 195.453 324.735 196.188 324.205C196.93 323.667 197.301 323.023 197.301 322.273C197.301 321.667 197.089 321.159 196.665 320.75C196.241 320.333 195.589 320.023 194.71 319.818L191.801 319.136C190.203 318.758 189.028 318.17 188.278 317.375C187.536 316.572 187.165 315.568 187.165 314.364C187.165 313.379 187.441 312.508 187.994 311.75C188.555 310.992 189.316 310.398 190.278 309.966C191.248 309.534 192.347 309.318 193.574 309.318C195.301 309.318 196.657 309.697 197.642 310.455C198.634 311.212 199.339 312.212 199.756 313.455ZM215.111 319.864V309.545H217.793V327H215.111V324.045H214.929C214.52 324.932 213.884 325.686 213.02 326.307C212.156 326.92 211.065 327.227 209.747 327.227C208.656 327.227 207.687 326.989 206.838 326.511C205.99 326.027 205.323 325.299 204.838 324.33C204.353 323.352 204.111 322.121 204.111 320.636V309.545H206.793V320.455C206.793 321.727 207.149 322.742 207.861 323.5C208.58 324.258 209.497 324.636 210.611 324.636C211.277 324.636 211.955 324.466 212.645 324.125C213.342 323.784 213.925 323.261 214.395 322.557C214.872 321.852 215.111 320.955 215.111 319.864ZM227.841 327.409C226.735 327.409 225.731 327.201 224.83 326.784C223.928 326.36 223.212 325.75 222.682 324.955C222.152 324.152 221.886 323.182 221.886 322.045C221.886 321.045 222.083 320.235 222.477 319.614C222.871 318.985 223.398 318.492 224.057 318.136C224.716 317.78 225.443 317.515 226.239 317.341C227.042 317.159 227.848 317.015 228.659 316.909C229.72 316.773 230.58 316.67 231.239 316.602C231.905 316.527 232.39 316.402 232.693 316.227C233.004 316.053 233.159 315.75 233.159 315.318V315.227C233.159 314.106 232.852 313.235 232.239 312.614C231.633 311.992 230.712 311.682 229.477 311.682C228.197 311.682 227.193 311.962 226.466 312.523C225.739 313.083 225.227 313.682 224.932 314.318L222.386 313.409C222.841 312.348 223.447 311.523 224.205 310.932C224.97 310.333 225.803 309.917 226.705 309.682C227.614 309.439 228.508 309.318 229.386 309.318C229.947 309.318 230.591 309.386 231.318 309.523C232.053 309.652 232.761 309.92 233.443 310.33C234.133 310.739 234.705 311.356 235.159 312.182C235.614 313.008 235.841 314.114 235.841 315.5V327H233.159V324.636H233.023C232.841 325.015 232.538 325.42 232.114 325.852C231.689 326.284 231.125 326.652 230.42 326.955C229.716 327.258 228.856 327.409 227.841 327.409ZM228.25 325C229.311 325 230.205 324.792 230.932 324.375C231.667 323.958 232.22 323.42 232.591 322.761C232.97 322.102 233.159 321.409 233.159 320.682V318.227C233.045 318.364 232.795 318.489 232.409 318.602C232.03 318.708 231.591 318.803 231.091 318.886C230.598 318.962 230.117 319.03 229.648 319.091C229.186 319.144 228.811 319.189 228.523 319.227C227.826 319.318 227.174 319.466 226.568 319.67C225.97 319.867 225.485 320.167 225.114 320.568C224.75 320.962 224.568 321.5 224.568 322.182C224.568 323.114 224.913 323.818 225.602 324.295C226.299 324.765 227.182 325 228.25 325ZM243.418 303.727V327H240.736V303.727H243.418ZM263.92 327.364C262.466 327.364 261.182 326.996 260.068 326.261C258.955 325.519 258.083 324.473 257.455 323.125C256.826 321.769 256.511 320.167 256.511 318.318C256.511 316.485 256.826 314.894 257.455 313.545C258.083 312.197 258.958 311.155 260.08 310.42C261.201 309.686 262.496 309.318 263.966 309.318C265.102 309.318 266 309.508 266.659 309.886C267.326 310.258 267.833 310.682 268.182 311.159C268.538 311.629 268.814 312.015 269.011 312.318H269.239V303.727H271.92V327H269.33V324.318H269.011C268.814 324.636 268.534 325.038 268.17 325.523C267.807 326 267.288 326.428 266.614 326.807C265.939 327.178 265.042 327.364 263.92 327.364ZM264.284 324.955C265.36 324.955 266.269 324.674 267.011 324.114C267.754 323.545 268.318 322.761 268.705 321.761C269.091 320.754 269.284 319.591 269.284 318.273C269.284 316.97 269.095 315.83 268.716 314.852C268.337 313.867 267.777 313.102 267.034 312.557C266.292 312.004 265.375 311.727 264.284 311.727C263.148 311.727 262.201 312.019 261.443 312.602C260.693 313.178 260.129 313.962 259.75 314.955C259.379 315.939 259.193 317.045 259.193 318.273C259.193 319.515 259.383 320.644 259.761 321.659C260.148 322.667 260.716 323.47 261.466 324.068C262.223 324.659 263.163 324.955 264.284 324.955ZM284.523 327.364C282.841 327.364 281.39 326.992 280.17 326.25C278.958 325.5 278.023 324.455 277.364 323.114C276.712 321.765 276.386 320.197 276.386 318.409C276.386 316.621 276.712 315.045 277.364 313.682C278.023 312.311 278.939 311.242 280.114 310.477C281.295 309.705 282.674 309.318 284.25 309.318C285.159 309.318 286.057 309.47 286.943 309.773C287.83 310.076 288.636 310.568 289.364 311.25C290.091 311.924 290.67 312.818 291.102 313.932C291.534 315.045 291.75 316.417 291.75 318.045V319.182H278.295V316.864H289.023C289.023 315.879 288.826 315 288.432 314.227C288.045 313.455 287.492 312.845 286.773 312.398C286.061 311.951 285.22 311.727 284.25 311.727C283.182 311.727 282.258 311.992 281.477 312.523C280.705 313.045 280.11 313.727 279.693 314.568C279.277 315.409 279.068 316.311 279.068 317.273V318.818C279.068 320.136 279.295 321.254 279.75 322.17C280.212 323.08 280.852 323.773 281.67 324.25C282.489 324.72 283.439 324.955 284.523 324.955C285.227 324.955 285.864 324.856 286.432 324.659C287.008 324.455 287.504 324.152 287.92 323.75C288.337 323.341 288.659 322.833 288.886 322.227L291.477 322.955C291.205 323.833 290.746 324.606 290.102 325.273C289.458 325.932 288.663 326.447 287.716 326.818C286.769 327.182 285.705 327.364 284.523 327.364ZM308.193 313.455L305.784 314.136C305.633 313.735 305.409 313.345 305.114 312.966C304.826 312.58 304.432 312.261 303.932 312.011C303.432 311.761 302.792 311.636 302.011 311.636C300.943 311.636 300.053 311.883 299.341 312.375C298.636 312.86 298.284 313.477 298.284 314.227C298.284 314.894 298.527 315.42 299.011 315.807C299.496 316.193 300.254 316.515 301.284 316.773L303.875 317.409C305.436 317.788 306.598 318.367 307.364 319.148C308.129 319.92 308.511 320.917 308.511 322.136C308.511 323.136 308.223 324.03 307.648 324.818C307.08 325.606 306.284 326.227 305.261 326.682C304.239 327.136 303.049 327.364 301.693 327.364C299.913 327.364 298.439 326.977 297.273 326.205C296.106 325.432 295.367 324.303 295.057 322.818L297.602 322.182C297.845 323.121 298.303 323.826 298.977 324.295C299.659 324.765 300.549 325 301.648 325C302.898 325 303.89 324.735 304.625 324.205C305.367 323.667 305.739 323.023 305.739 322.273C305.739 321.667 305.527 321.159 305.102 320.75C304.678 320.333 304.027 320.023 303.148 319.818L300.239 319.136C298.64 318.758 297.466 318.17 296.716 317.375C295.973 316.572 295.602 315.568 295.602 314.364C295.602 313.379 295.879 312.508 296.432 311.75C296.992 310.992 297.754 310.398 298.716 309.966C299.686 309.534 300.784 309.318 302.011 309.318C303.739 309.318 305.095 309.697 306.08 310.455C307.072 311.212 307.777 312.212 308.193 313.455ZM312.548 327V309.545H315.23V327H312.548ZM313.912 306.636C313.389 306.636 312.938 306.458 312.56 306.102C312.188 305.746 312.003 305.318 312.003 304.818C312.003 304.318 312.188 303.89 312.56 303.534C312.938 303.178 313.389 303 313.912 303C314.435 303 314.882 303.178 315.253 303.534C315.632 303.89 315.821 304.318 315.821 304.818C315.821 305.318 315.632 305.746 315.253 306.102C314.882 306.458 314.435 306.636 313.912 306.636ZM327.188 333.909C325.892 333.909 324.778 333.742 323.847 333.409C322.915 333.083 322.138 332.652 321.517 332.114C320.903 331.583 320.415 331.015 320.051 330.409L322.188 328.909C322.43 329.227 322.737 329.591 323.108 330C323.479 330.417 323.987 330.777 324.631 331.08C325.282 331.39 326.134 331.545 327.188 331.545C328.597 331.545 329.759 331.205 330.676 330.523C331.593 329.841 332.051 328.773 332.051 327.318V323.773H331.824C331.627 324.091 331.347 324.485 330.983 324.955C330.627 325.417 330.112 325.83 329.438 326.193C328.771 326.549 327.869 326.727 326.733 326.727C325.324 326.727 324.059 326.394 322.938 325.727C321.824 325.061 320.941 324.091 320.29 322.818C319.646 321.545 319.324 320 319.324 318.182C319.324 316.394 319.638 314.837 320.267 313.511C320.896 312.178 321.771 311.148 322.892 310.42C324.013 309.686 325.309 309.318 326.778 309.318C327.915 309.318 328.816 309.508 329.483 309.886C330.157 310.258 330.672 310.682 331.028 311.159C331.392 311.629 331.672 312.015 331.869 312.318H332.142V309.545H334.733V327.5C334.733 329 334.392 330.22 333.71 331.159C333.036 332.106 332.127 332.799 330.983 333.239C329.847 333.686 328.581 333.909 327.188 333.909ZM327.097 324.318C328.172 324.318 329.081 324.072 329.824 323.58C330.566 323.087 331.131 322.379 331.517 321.455C331.903 320.53 332.097 319.424 332.097 318.136C332.097 316.879 331.907 315.769 331.528 314.807C331.15 313.845 330.589 313.091 329.847 312.545C329.104 312 328.188 311.727 327.097 311.727C325.96 311.727 325.013 312.015 324.256 312.591C323.506 313.167 322.941 313.939 322.562 314.909C322.191 315.879 322.006 316.955 322.006 318.136C322.006 319.348 322.195 320.42 322.574 321.352C322.96 322.277 323.528 323.004 324.278 323.534C325.036 324.057 325.975 324.318 327.097 324.318ZM342.324 316.5V327H339.642V309.545H342.233V312.273H342.46C342.869 311.386 343.491 310.674 344.324 310.136C345.157 309.591 346.233 309.318 347.551 309.318C348.733 309.318 349.767 309.561 350.653 310.045C351.54 310.523 352.229 311.25 352.722 312.227C353.214 313.197 353.46 314.424 353.46 315.909V327H350.778V316.091C350.778 314.72 350.422 313.652 349.71 312.886C348.998 312.114 348.021 311.727 346.778 311.727C345.922 311.727 345.157 311.913 344.483 312.284C343.816 312.655 343.29 313.197 342.903 313.909C342.517 314.621 342.324 315.485 342.324 316.5ZM375.134 309.545V311.818H365.724V309.545H375.134ZM368.543 327V307.136C368.543 306.136 368.777 305.303 369.247 304.636C369.717 303.97 370.327 303.47 371.077 303.136C371.827 302.803 372.618 302.636 373.452 302.636C374.111 302.636 374.649 302.689 375.065 302.795C375.482 302.902 375.793 303 375.997 303.091L375.224 305.409C375.088 305.364 374.899 305.307 374.656 305.239C374.421 305.17 374.111 305.136 373.724 305.136C372.838 305.136 372.198 305.36 371.804 305.807C371.418 306.254 371.224 306.909 371.224 307.773V327H368.543ZM385.264 327.364C383.688 327.364 382.306 326.989 381.116 326.239C379.935 325.489 379.01 324.439 378.344 323.091C377.685 321.742 377.355 320.167 377.355 318.364C377.355 316.545 377.685 314.958 378.344 313.602C379.01 312.246 379.935 311.193 381.116 310.443C382.306 309.693 383.688 309.318 385.264 309.318C386.84 309.318 388.219 309.693 389.401 310.443C390.59 311.193 391.514 312.246 392.173 313.602C392.84 314.958 393.173 316.545 393.173 318.364C393.173 320.167 392.84 321.742 392.173 323.091C391.514 324.439 390.59 325.489 389.401 326.239C388.219 326.989 386.84 327.364 385.264 327.364ZM385.264 324.955C386.461 324.955 387.446 324.648 388.219 324.034C388.991 323.42 389.563 322.614 389.935 321.614C390.306 320.614 390.491 319.53 390.491 318.364C390.491 317.197 390.306 316.11 389.935 315.102C389.563 314.095 388.991 313.28 388.219 312.659C387.446 312.038 386.461 311.727 385.264 311.727C384.067 311.727 383.082 312.038 382.31 312.659C381.537 313.28 380.965 314.095 380.594 315.102C380.223 316.11 380.037 317.197 380.037 318.364C380.037 319.53 380.223 320.614 380.594 321.614C380.965 322.614 381.537 323.42 382.31 324.034C383.082 324.648 384.067 324.955 385.264 324.955ZM397.267 327V309.545H399.858V312.182H400.04C400.358 311.318 400.934 310.617 401.767 310.08C402.6 309.542 403.54 309.273 404.585 309.273C404.782 309.273 405.028 309.277 405.324 309.284C405.619 309.292 405.843 309.303 405.994 309.318V312.045C405.903 312.023 405.695 311.989 405.369 311.943C405.051 311.89 404.714 311.864 404.358 311.864C403.509 311.864 402.752 312.042 402.085 312.398C401.426 312.746 400.903 313.231 400.517 313.852C400.138 314.466 399.949 315.167 399.949 315.955V327H397.267ZM430.537 313.455L428.128 314.136C427.976 313.735 427.753 313.345 427.457 312.966C427.17 312.58 426.776 312.261 426.276 312.011C425.776 311.761 425.135 311.636 424.355 311.636C423.287 311.636 422.397 311.883 421.685 312.375C420.98 312.86 420.628 313.477 420.628 314.227C420.628 314.894 420.87 315.42 421.355 315.807C421.84 316.193 422.598 316.515 423.628 316.773L426.219 317.409C427.779 317.788 428.942 318.367 429.707 319.148C430.473 319.92 430.855 320.917 430.855 322.136C430.855 323.136 430.567 324.03 429.991 324.818C429.423 325.606 428.628 326.227 427.605 326.682C426.582 327.136 425.393 327.364 424.037 327.364C422.257 327.364 420.783 326.977 419.616 326.205C418.45 325.432 417.711 324.303 417.401 322.818L419.946 322.182C420.188 323.121 420.647 323.826 421.321 324.295C422.003 324.765 422.893 325 423.991 325C425.241 325 426.234 324.735 426.969 324.205C427.711 323.667 428.082 323.023 428.082 322.273C428.082 321.667 427.87 321.159 427.446 320.75C427.022 320.333 426.37 320.023 425.491 319.818L422.582 319.136C420.984 318.758 419.81 318.17 419.06 317.375C418.317 316.572 417.946 315.568 417.946 314.364C417.946 313.379 418.223 312.508 418.776 311.75C419.336 310.992 420.098 310.398 421.06 309.966C422.029 309.534 423.128 309.318 424.355 309.318C426.082 309.318 427.438 309.697 428.423 310.455C429.416 311.212 430.12 312.212 430.537 313.455ZM441.983 327.364C440.347 327.364 438.938 326.977 437.756 326.205C436.574 325.432 435.665 324.367 435.028 323.011C434.392 321.655 434.074 320.106 434.074 318.364C434.074 316.591 434.4 315.027 435.051 313.67C435.71 312.307 436.627 311.242 437.801 310.477C438.983 309.705 440.362 309.318 441.938 309.318C443.165 309.318 444.271 309.545 445.256 310C446.241 310.455 447.047 311.091 447.676 311.909C448.305 312.727 448.695 313.682 448.847 314.773H446.165C445.96 313.977 445.506 313.273 444.801 312.659C444.104 312.038 443.165 311.727 441.983 311.727C440.938 311.727 440.021 312 439.233 312.545C438.453 313.083 437.843 313.845 437.403 314.83C436.972 315.807 436.756 316.955 436.756 318.273C436.756 319.621 436.968 320.795 437.392 321.795C437.824 322.795 438.43 323.572 439.21 324.125C439.998 324.678 440.922 324.955 441.983 324.955C442.68 324.955 443.312 324.833 443.881 324.591C444.449 324.348 444.93 324 445.324 323.545C445.718 323.091 445.998 322.545 446.165 321.909H448.847C448.695 322.939 448.32 323.867 447.722 324.693C447.131 325.511 446.347 326.163 445.369 326.648C444.4 327.125 443.271 327.364 441.983 327.364ZM452.767 327V309.545H455.449V327H452.767ZM454.131 306.636C453.608 306.636 453.157 306.458 452.778 306.102C452.407 305.746 452.222 305.318 452.222 304.818C452.222 304.318 452.407 303.89 452.778 303.534C453.157 303.178 453.608 303 454.131 303C454.653 303 455.1 303.178 455.472 303.534C455.85 303.89 456.04 304.318 456.04 304.818C456.04 305.318 455.85 305.746 455.472 306.102C455.1 306.458 454.653 306.636 454.131 306.636ZM467.679 327.364C465.997 327.364 464.546 326.992 463.327 326.25C462.115 325.5 461.179 324.455 460.52 323.114C459.868 321.765 459.543 320.197 459.543 318.409C459.543 316.621 459.868 315.045 460.52 313.682C461.179 312.311 462.096 311.242 463.27 310.477C464.452 309.705 465.83 309.318 467.406 309.318C468.315 309.318 469.213 309.47 470.099 309.773C470.986 310.076 471.793 310.568 472.52 311.25C473.247 311.924 473.827 312.818 474.259 313.932C474.69 315.045 474.906 316.417 474.906 318.045V319.182H461.452V316.864H472.179C472.179 315.879 471.982 315 471.588 314.227C471.202 313.455 470.649 312.845 469.929 312.398C469.217 311.951 468.376 311.727 467.406 311.727C466.338 311.727 465.414 311.992 464.634 312.523C463.861 313.045 463.266 313.727 462.849 314.568C462.433 315.409 462.224 316.311 462.224 317.273V318.818C462.224 320.136 462.452 321.254 462.906 322.17C463.368 323.08 464.009 323.773 464.827 324.25C465.645 324.72 466.596 324.955 467.679 324.955C468.384 324.955 469.02 324.856 469.588 324.659C470.164 324.455 470.66 324.152 471.077 323.75C471.493 323.341 471.815 322.833 472.043 322.227L474.634 322.955C474.361 323.833 473.902 324.606 473.259 325.273C472.615 325.932 471.819 326.447 470.872 326.818C469.925 327.182 468.861 327.364 467.679 327.364ZM481.668 316.5V327H478.986V309.545H481.577V312.273H481.804C482.213 311.386 482.834 310.674 483.668 310.136C484.501 309.591 485.577 309.318 486.895 309.318C488.077 309.318 489.111 309.561 489.997 310.045C490.884 310.523 491.573 311.25 492.065 312.227C492.558 313.197 492.804 314.424 492.804 315.909V327H490.122V316.091C490.122 314.72 489.766 313.652 489.054 312.886C488.342 312.114 487.365 311.727 486.122 311.727C485.266 311.727 484.501 311.913 483.827 312.284C483.16 312.655 482.634 313.197 482.247 313.909C481.861 314.621 481.668 315.485 481.668 316.5ZM505.295 309.545V311.818H496.25V309.545H505.295ZM498.886 305.364H501.568V322C501.568 322.758 501.678 323.326 501.898 323.705C502.125 324.076 502.413 324.326 502.761 324.455C503.117 324.576 503.492 324.636 503.886 324.636C504.182 324.636 504.424 324.621 504.614 324.591C504.803 324.553 504.955 324.523 505.068 324.5L505.614 326.909C505.432 326.977 505.178 327.045 504.852 327.114C504.527 327.189 504.114 327.227 503.614 327.227C502.856 327.227 502.114 327.064 501.386 326.739C500.667 326.413 500.068 325.917 499.591 325.25C499.121 324.583 498.886 323.742 498.886 322.727V305.364ZM509.33 327V309.545H512.011V327H509.33ZM510.693 306.636C510.17 306.636 509.72 306.458 509.341 306.102C508.97 305.746 508.784 305.318 508.784 304.818C508.784 304.318 508.97 303.89 509.341 303.534C509.72 303.178 510.17 303 510.693 303C511.216 303 511.663 303.178 512.034 303.534C512.413 303.89 512.602 304.318 512.602 304.818C512.602 305.318 512.413 305.746 512.034 306.102C511.663 306.458 511.216 306.636 510.693 306.636ZM529.287 313.455L526.878 314.136C526.726 313.735 526.503 313.345 526.207 312.966C525.92 312.58 525.526 312.261 525.026 312.011C524.526 311.761 523.885 311.636 523.105 311.636C522.037 311.636 521.147 311.883 520.435 312.375C519.73 312.86 519.378 313.477 519.378 314.227C519.378 314.894 519.62 315.42 520.105 315.807C520.59 316.193 521.348 316.515 522.378 316.773L524.969 317.409C526.529 317.788 527.692 318.367 528.457 319.148C529.223 319.92 529.605 320.917 529.605 322.136C529.605 323.136 529.317 324.03 528.741 324.818C528.173 325.606 527.378 326.227 526.355 326.682C525.332 327.136 524.143 327.364 522.787 327.364C521.007 327.364 519.533 326.977 518.366 326.205C517.2 325.432 516.461 324.303 516.151 322.818L518.696 322.182C518.938 323.121 519.397 323.826 520.071 324.295C520.753 324.765 521.643 325 522.741 325C523.991 325 524.984 324.735 525.719 324.205C526.461 323.667 526.832 323.023 526.832 322.273C526.832 321.667 526.62 321.159 526.196 320.75C525.772 320.333 525.12 320.023 524.241 319.818L521.332 319.136C519.734 318.758 518.56 318.17 517.81 317.375C517.067 316.572 516.696 315.568 516.696 314.364C516.696 313.379 516.973 312.508 517.526 311.75C518.086 310.992 518.848 310.398 519.81 309.966C520.779 309.534 521.878 309.318 523.105 309.318C524.832 309.318 526.188 309.697 527.173 310.455C528.166 311.212 528.87 312.212 529.287 313.455ZM541.233 309.545V311.818H532.188V309.545H541.233ZM534.824 305.364H537.506V322C537.506 322.758 537.616 323.326 537.835 323.705C538.063 324.076 538.35 324.326 538.699 324.455C539.055 324.576 539.43 324.636 539.824 324.636C540.119 324.636 540.362 324.621 540.551 324.591C540.741 324.553 540.892 324.523 541.006 324.5L541.551 326.909C541.369 326.977 541.116 327.045 540.79 327.114C540.464 327.189 540.051 327.227 539.551 327.227C538.794 327.227 538.051 327.064 537.324 326.739C536.604 326.413 536.006 325.917 535.528 325.25C535.059 324.583 534.824 323.742 534.824 322.727V305.364ZM557.318 313.455L554.909 314.136C554.758 313.735 554.534 313.345 554.239 312.966C553.951 312.58 553.557 312.261 553.057 312.011C552.557 311.761 551.917 311.636 551.136 311.636C550.068 311.636 549.178 311.883 548.466 312.375C547.761 312.86 547.409 313.477 547.409 314.227C547.409 314.894 547.652 315.42 548.136 315.807C548.621 316.193 549.379 316.515 550.409 316.773L553 317.409C554.561 317.788 555.723 318.367 556.489 319.148C557.254 319.92 557.636 320.917 557.636 322.136C557.636 323.136 557.348 324.03 556.773 324.818C556.205 325.606 555.409 326.227 554.386 326.682C553.364 327.136 552.174 327.364 550.818 327.364C549.038 327.364 547.564 326.977 546.398 326.205C545.231 325.432 544.492 324.303 544.182 322.818L546.727 322.182C546.97 323.121 547.428 323.826 548.102 324.295C548.784 324.765 549.674 325 550.773 325C552.023 325 553.015 324.735 553.75 324.205C554.492 323.667 554.864 323.023 554.864 322.273C554.864 321.667 554.652 321.159 554.227 320.75C553.803 320.333 553.152 320.023 552.273 319.818L549.364 319.136C547.765 318.758 546.591 318.17 545.841 317.375C545.098 316.572 544.727 315.568 544.727 314.364C544.727 313.379 545.004 312.508 545.557 311.75C546.117 310.992 546.879 310.398 547.841 309.966C548.811 309.534 549.909 309.318 551.136 309.318C552.864 309.318 554.22 309.697 555.205 310.455C556.197 311.212 556.902 312.212 557.318 313.455ZM563.628 327.182C563.067 327.182 562.586 326.981 562.185 326.58C561.783 326.178 561.582 325.697 561.582 325.136C561.582 324.576 561.783 324.095 562.185 323.693C562.586 323.292 563.067 323.091 563.628 323.091C564.188 323.091 564.67 323.292 565.071 323.693C565.473 324.095 565.673 324.576 565.673 325.136C565.673 325.508 565.579 325.848 565.389 326.159C565.207 326.47 564.961 326.72 564.651 326.909C564.348 327.091 564.007 327.182 563.628 327.182Z" fill="#1A1A1A"/>
<path d="M155.545 459.545C155.409 458.394 154.856 457.5 153.886 456.864C152.917 456.227 151.727 455.909 150.318 455.909C149.288 455.909 148.386 456.076 147.614 456.409C146.848 456.742 146.25 457.201 145.818 457.784C145.394 458.367 145.182 459.03 145.182 459.773C145.182 460.394 145.33 460.928 145.625 461.375C145.928 461.814 146.314 462.182 146.784 462.477C147.254 462.765 147.746 463.004 148.261 463.193C148.777 463.375 149.25 463.523 149.682 463.636L152.045 464.273C152.652 464.432 153.326 464.652 154.068 464.932C154.818 465.212 155.534 465.595 156.216 466.08C156.905 466.557 157.473 467.17 157.92 467.92C158.367 468.67 158.591 469.591 158.591 470.682C158.591 471.939 158.261 473.076 157.602 474.091C156.951 475.106 155.996 475.913 154.739 476.511C153.489 477.11 151.97 477.409 150.182 477.409C148.515 477.409 147.072 477.14 145.852 476.602C144.64 476.064 143.686 475.314 142.989 474.352C142.299 473.39 141.909 472.273 141.818 471H144.727C144.803 471.879 145.098 472.606 145.614 473.182C146.136 473.75 146.795 474.174 147.591 474.455C148.394 474.727 149.258 474.864 150.182 474.864C151.258 474.864 152.223 474.689 153.08 474.341C153.936 473.985 154.614 473.492 155.114 472.864C155.614 472.227 155.864 471.485 155.864 470.636C155.864 469.864 155.648 469.235 155.216 468.75C154.784 468.265 154.216 467.871 153.511 467.568C152.807 467.265 152.045 467 151.227 466.773L148.364 465.955C146.545 465.432 145.106 464.686 144.045 463.716C142.985 462.746 142.455 461.477 142.455 459.909C142.455 458.606 142.807 457.47 143.511 456.5C144.223 455.523 145.178 454.765 146.375 454.227C147.58 453.682 148.924 453.409 150.409 453.409C151.909 453.409 153.242 453.678 154.409 454.216C155.576 454.746 156.5 455.473 157.182 456.398C157.871 457.322 158.235 458.371 158.273 459.545H155.545ZM162.861 477V459.545H165.543V477H162.861ZM164.224 456.636C163.702 456.636 163.251 456.458 162.872 456.102C162.501 455.746 162.315 455.318 162.315 454.818C162.315 454.318 162.501 453.89 162.872 453.534C163.251 453.178 163.702 453 164.224 453C164.747 453 165.194 453.178 165.565 453.534C165.944 453.89 166.134 454.318 166.134 454.818C166.134 455.318 165.944 455.746 165.565 456.102C165.194 456.458 164.747 456.636 164.224 456.636ZM177.5 483.909C176.205 483.909 175.091 483.742 174.159 483.409C173.227 483.083 172.451 482.652 171.83 482.114C171.216 481.583 170.727 481.015 170.364 480.409L172.5 478.909C172.742 479.227 173.049 479.591 173.42 480C173.792 480.417 174.299 480.777 174.943 481.08C175.595 481.39 176.447 481.545 177.5 481.545C178.909 481.545 180.072 481.205 180.989 480.523C181.905 479.841 182.364 478.773 182.364 477.318V473.773H182.136C181.939 474.091 181.659 474.485 181.295 474.955C180.939 475.417 180.424 475.83 179.75 476.193C179.083 476.549 178.182 476.727 177.045 476.727C175.636 476.727 174.371 476.394 173.25 475.727C172.136 475.061 171.254 474.091 170.602 472.818C169.958 471.545 169.636 470 169.636 468.182C169.636 466.394 169.951 464.837 170.58 463.511C171.208 462.178 172.083 461.148 173.205 460.42C174.326 459.686 175.621 459.318 177.091 459.318C178.227 459.318 179.129 459.508 179.795 459.886C180.47 460.258 180.985 460.682 181.341 461.159C181.705 461.629 181.985 462.015 182.182 462.318H182.455V459.545H185.045V477.5C185.045 479 184.705 480.22 184.023 481.159C183.348 482.106 182.439 482.799 181.295 483.239C180.159 483.686 178.894 483.909 177.5 483.909ZM177.409 474.318C178.485 474.318 179.394 474.072 180.136 473.58C180.879 473.087 181.443 472.379 181.83 471.455C182.216 470.53 182.409 469.424 182.409 468.136C182.409 466.879 182.22 465.769 181.841 464.807C181.462 463.845 180.902 463.091 180.159 462.545C179.417 462 178.5 461.727 177.409 461.727C176.273 461.727 175.326 462.015 174.568 462.591C173.818 463.167 173.254 463.939 172.875 464.909C172.504 465.879 172.318 466.955 172.318 468.136C172.318 469.348 172.508 470.42 172.886 471.352C173.273 472.277 173.841 473.004 174.591 473.534C175.348 474.057 176.288 474.318 177.409 474.318ZM192.636 466.5V477H189.955V459.545H192.545V462.273H192.773C193.182 461.386 193.803 460.674 194.636 460.136C195.47 459.591 196.545 459.318 197.864 459.318C199.045 459.318 200.08 459.561 200.966 460.045C201.852 460.523 202.542 461.25 203.034 462.227C203.527 463.197 203.773 464.424 203.773 465.909V477H201.091V466.091C201.091 464.72 200.735 463.652 200.023 462.886C199.311 462.114 198.333 461.727 197.091 461.727C196.235 461.727 195.47 461.913 194.795 462.284C194.129 462.655 193.602 463.197 193.216 463.909C192.83 464.621 192.636 465.485 192.636 466.5ZM228.673 469.864V459.545H231.355V477H228.673V474.045H228.491C228.082 474.932 227.446 475.686 226.582 476.307C225.719 476.92 224.628 477.227 223.31 477.227C222.219 477.227 221.249 476.989 220.401 476.511C219.552 476.027 218.885 475.299 218.401 474.33C217.916 473.352 217.673 472.121 217.673 470.636V459.545H220.355V470.455C220.355 471.727 220.711 472.742 221.423 473.5C222.143 474.258 223.06 474.636 224.173 474.636C224.84 474.636 225.518 474.466 226.207 474.125C226.904 473.784 227.488 473.261 227.957 472.557C228.435 471.852 228.673 470.955 228.673 469.864ZM236.267 483.545V459.545H238.858V462.318H239.176C239.373 462.015 239.646 461.629 239.994 461.159C240.35 460.682 240.858 460.258 241.517 459.886C242.184 459.508 243.085 459.318 244.222 459.318C245.691 459.318 246.987 459.686 248.108 460.42C249.229 461.155 250.104 462.197 250.733 463.545C251.362 464.894 251.676 466.485 251.676 468.318C251.676 470.167 251.362 471.769 250.733 473.125C250.104 474.473 249.233 475.519 248.119 476.261C247.006 476.996 245.722 477.364 244.267 477.364C243.146 477.364 242.248 477.178 241.574 476.807C240.9 476.428 240.381 476 240.017 475.523C239.653 475.038 239.373 474.636 239.176 474.318H238.949V483.545H236.267ZM238.903 468.273C238.903 469.591 239.097 470.754 239.483 471.761C239.869 472.761 240.434 473.545 241.176 474.114C241.919 474.674 242.828 474.955 243.903 474.955C245.025 474.955 245.96 474.659 246.71 474.068C247.468 473.47 248.036 472.667 248.415 471.659C248.801 470.644 248.994 469.515 248.994 468.273C248.994 467.045 248.805 465.939 248.426 464.955C248.055 463.962 247.491 463.178 246.733 462.602C245.983 462.019 245.04 461.727 243.903 461.727C242.813 461.727 241.896 462.004 241.153 462.557C240.411 463.102 239.85 463.867 239.472 464.852C239.093 465.83 238.903 466.97 238.903 468.273ZM267.449 466.5V477H264.767V459.545H267.358V462.273H267.585C267.994 461.386 268.616 460.674 269.449 460.136C270.282 459.591 271.358 459.318 272.676 459.318C273.858 459.318 274.892 459.561 275.778 460.045C276.665 460.523 277.354 461.25 277.847 462.227C278.339 463.197 278.585 464.424 278.585 465.909V477H275.903V466.091C275.903 464.72 275.547 463.652 274.835 462.886C274.123 462.114 273.146 461.727 271.903 461.727C271.047 461.727 270.282 461.913 269.608 462.284C268.941 462.655 268.415 463.197 268.028 463.909C267.642 464.621 267.449 465.485 267.449 466.5ZM290.577 477.364C289.001 477.364 287.618 476.989 286.429 476.239C285.247 475.489 284.323 474.439 283.656 473.091C282.997 471.742 282.668 470.167 282.668 468.364C282.668 466.545 282.997 464.958 283.656 463.602C284.323 462.246 285.247 461.193 286.429 460.443C287.618 459.693 289.001 459.318 290.577 459.318C292.152 459.318 293.531 459.693 294.713 460.443C295.902 461.193 296.827 462.246 297.486 463.602C298.152 464.958 298.486 466.545 298.486 468.364C298.486 470.167 298.152 471.742 297.486 473.091C296.827 474.439 295.902 475.489 294.713 476.239C293.531 476.989 292.152 477.364 290.577 477.364ZM290.577 474.955C291.774 474.955 292.759 474.648 293.531 474.034C294.304 473.42 294.876 472.614 295.247 471.614C295.618 470.614 295.804 469.53 295.804 468.364C295.804 467.197 295.618 466.11 295.247 465.102C294.876 464.095 294.304 463.28 293.531 462.659C292.759 462.038 291.774 461.727 290.577 461.727C289.38 461.727 288.395 462.038 287.622 462.659C286.849 463.28 286.277 464.095 285.906 465.102C285.535 466.11 285.349 467.197 285.349 468.364C285.349 469.53 285.535 470.614 285.906 471.614C286.277 472.614 286.849 473.42 287.622 474.034C288.395 474.648 289.38 474.955 290.577 474.955ZM305.94 477L300.622 459.545H303.44L307.213 472.909H307.395L311.122 459.545H313.986L317.668 472.864H317.849L321.622 459.545H324.44L319.122 477H316.486L312.668 463.591H312.395L308.577 477H305.94Z" fill="#1A1A1A"/>
<rect x="120.5" y="436.5" width="225" height="58" rx="11.5" stroke="#1A1A1A"/>
</svg>
