<svg width="800" height="600" viewBox="0 0 800 600" fill="none" xmlns="http://www.w3.org/2000/svg">
<rect width="800" height="600" fill="white"/>
<path d="M141 230H130.227V195.091H141.477C144.864 195.091 147.761 195.79 150.17 197.188C152.58 198.574 154.426 200.568 155.71 203.17C156.994 205.761 157.636 208.864 157.636 212.477C157.636 216.114 156.989 219.244 155.693 221.869C154.398 224.483 152.511 226.494 150.034 227.903C147.557 229.301 144.545 230 141 230ZM134.455 226.25H140.727C143.614 226.25 146.006 225.693 147.903 224.58C149.801 223.466 151.216 221.881 152.148 219.824C153.08 217.767 153.545 215.318 153.545 212.477C153.545 209.659 153.085 207.233 152.165 205.199C151.244 203.153 149.869 201.585 148.04 200.494C146.21 199.392 143.932 198.841 141.205 198.841H134.455V226.25ZM175.159 230.545C172.636 230.545 170.46 229.989 168.631 228.875C166.812 227.75 165.409 226.182 164.42 224.17C163.443 222.148 162.955 219.795 162.955 217.114C162.955 214.432 163.443 212.068 164.42 210.023C165.409 207.966 166.784 206.364 168.545 205.216C170.318 204.057 172.386 203.477 174.75 203.477C176.114 203.477 177.46 203.705 178.79 204.159C180.119 204.614 181.33 205.352 182.42 206.375C183.511 207.386 184.381 208.727 185.028 210.398C185.676 212.068 186 214.125 186 216.568V218.273H165.818V214.795H181.909C181.909 213.318 181.614 212 181.023 210.841C180.443 209.682 179.614 208.767 178.534 208.097C177.466 207.426 176.205 207.091 174.75 207.091C173.148 207.091 171.761 207.489 170.591 208.284C169.432 209.068 168.54 210.091 167.915 211.352C167.29 212.614 166.977 213.966 166.977 215.409V217.727C166.977 219.705 167.318 221.381 168 222.756C168.693 224.119 169.653 225.159 170.881 225.875C172.108 226.58 173.534 226.932 175.159 226.932C176.216 226.932 177.17 226.784 178.023 226.489C178.886 226.182 179.631 225.727 180.256 225.125C180.881 224.511 181.364 223.75 181.705 222.841L185.591 223.932C185.182 225.25 184.494 226.409 183.528 227.409C182.563 228.398 181.369 229.17 179.949 229.727C178.528 230.273 176.932 230.545 175.159 230.545ZM210.665 209.682L207.051 210.705C206.824 210.102 206.489 209.517 206.045 208.949C205.614 208.369 205.023 207.892 204.273 207.517C203.523 207.142 202.562 206.955 201.392 206.955C199.79 206.955 198.455 207.324 197.386 208.062C196.33 208.79 195.801 209.716 195.801 210.841C195.801 211.841 196.165 212.631 196.892 213.21C197.619 213.79 198.756 214.273 200.301 214.659L204.188 215.614C206.528 216.182 208.273 217.051 209.42 218.222C210.568 219.381 211.142 220.875 211.142 222.705C211.142 224.205 210.71 225.545 209.847 226.727C208.994 227.909 207.801 228.841 206.267 229.523C204.733 230.205 202.949 230.545 200.915 230.545C198.244 230.545 196.034 229.966 194.284 228.807C192.534 227.648 191.426 225.955 190.96 223.727L194.778 222.773C195.142 224.182 195.83 225.239 196.841 225.943C197.864 226.648 199.199 227 200.847 227C202.722 227 204.21 226.602 205.312 225.807C206.426 225 206.983 224.034 206.983 222.909C206.983 222 206.665 221.239 206.028 220.625C205.392 220 204.415 219.534 203.097 219.227L198.733 218.205C196.335 217.636 194.574 216.756 193.449 215.562C192.335 214.358 191.778 212.852 191.778 211.045C191.778 209.568 192.193 208.261 193.023 207.125C193.864 205.989 195.006 205.097 196.449 204.449C197.903 203.801 199.551 203.477 201.392 203.477C203.983 203.477 206.017 204.045 207.494 205.182C208.983 206.318 210.04 207.818 210.665 209.682ZM217.197 230V203.818H221.22V230H217.197ZM219.243 199.455C218.459 199.455 217.783 199.188 217.214 198.653C216.658 198.119 216.379 197.477 216.379 196.727C216.379 195.977 216.658 195.335 217.214 194.801C217.783 194.267 218.459 194 219.243 194C220.027 194 220.697 194.267 221.254 194.801C221.822 195.335 222.107 195.977 222.107 196.727C222.107 197.477 221.822 198.119 221.254 198.653C220.697 199.188 220.027 199.455 219.243 199.455ZM239.156 240.364C237.213 240.364 235.543 240.114 234.145 239.614C232.747 239.125 231.582 238.477 230.651 237.67C229.73 236.875 228.997 236.023 228.452 235.114L231.656 232.864C232.02 233.341 232.48 233.886 233.037 234.5C233.594 235.125 234.355 235.665 235.321 236.119C236.298 236.585 237.577 236.818 239.156 236.818C241.27 236.818 243.014 236.307 244.389 235.284C245.764 234.261 246.452 232.659 246.452 230.477V225.159H246.111C245.815 225.636 245.395 226.227 244.849 226.932C244.315 227.625 243.543 228.244 242.531 228.79C241.531 229.324 240.179 229.591 238.474 229.591C236.361 229.591 234.463 229.091 232.781 228.091C231.111 227.091 229.787 225.636 228.81 223.727C227.844 221.818 227.361 219.5 227.361 216.773C227.361 214.091 227.832 211.756 228.776 209.767C229.719 207.767 231.031 206.222 232.713 205.131C234.395 204.028 236.338 203.477 238.543 203.477C240.247 203.477 241.599 203.761 242.599 204.33C243.611 204.886 244.384 205.523 244.918 206.239C245.463 206.943 245.884 207.523 246.179 207.977H246.588V203.818H250.474V230.75C250.474 233 249.963 234.83 248.94 236.239C247.929 237.659 246.565 238.699 244.849 239.358C243.145 240.028 241.247 240.364 239.156 240.364ZM239.02 225.977C240.634 225.977 241.997 225.608 243.111 224.869C244.224 224.131 245.071 223.068 245.651 221.682C246.23 220.295 246.52 218.636 246.52 216.705C246.52 214.818 246.236 213.153 245.668 211.71C245.099 210.267 244.259 209.136 243.145 208.318C242.031 207.5 240.656 207.091 239.02 207.091C237.315 207.091 235.895 207.523 234.759 208.386C233.634 209.25 232.787 210.409 232.219 211.864C231.662 213.318 231.384 214.932 231.384 216.705C231.384 218.523 231.668 220.131 232.236 221.528C232.815 222.915 233.668 224.006 234.793 224.801C235.929 225.585 237.338 225.977 239.02 225.977ZM261.861 214.25V230H257.838V203.818H261.724V207.909H262.065C262.679 206.58 263.611 205.511 264.861 204.705C266.111 203.886 267.724 203.477 269.702 203.477C271.474 203.477 273.026 203.841 274.355 204.568C275.685 205.284 276.719 206.375 277.457 207.841C278.196 209.295 278.565 211.136 278.565 213.364V230H274.543V213.636C274.543 211.58 274.009 209.977 272.94 208.83C271.872 207.67 270.406 207.091 268.543 207.091C267.259 207.091 266.111 207.369 265.099 207.926C264.099 208.483 263.31 209.295 262.73 210.364C262.151 211.432 261.861 212.727 261.861 214.25ZM311.075 203.818V207.227H296.962V203.818H311.075ZM301.189 230V200.205C301.189 198.705 301.541 197.455 302.246 196.455C302.95 195.455 303.865 194.705 304.99 194.205C306.115 193.705 307.303 193.455 308.553 193.455C309.541 193.455 310.348 193.534 310.973 193.693C311.598 193.852 312.064 194 312.371 194.136L311.212 197.614C311.007 197.545 310.723 197.46 310.359 197.358C310.007 197.256 309.541 197.205 308.962 197.205C307.632 197.205 306.672 197.54 306.081 198.21C305.501 198.881 305.212 199.864 305.212 201.159V230H301.189ZM326.271 230.545C323.908 230.545 321.834 229.983 320.05 228.858C318.277 227.733 316.891 226.159 315.891 224.136C314.902 222.114 314.408 219.75 314.408 217.045C314.408 214.318 314.902 211.937 315.891 209.903C316.891 207.869 318.277 206.29 320.05 205.165C321.834 204.04 323.908 203.477 326.271 203.477C328.635 203.477 330.703 204.04 332.476 205.165C334.26 206.29 335.646 207.869 336.635 209.903C337.635 211.937 338.135 214.318 338.135 217.045C338.135 219.75 337.635 222.114 336.635 224.136C335.646 226.159 334.26 227.733 332.476 228.858C330.703 229.983 328.635 230.545 326.271 230.545ZM326.271 226.932C328.067 226.932 329.544 226.472 330.703 225.551C331.862 224.631 332.72 223.42 333.277 221.92C333.834 220.42 334.112 218.795 334.112 217.045C334.112 215.295 333.834 213.665 333.277 212.153C332.72 210.642 331.862 209.42 330.703 208.489C329.544 207.557 328.067 207.091 326.271 207.091C324.476 207.091 322.999 207.557 321.839 208.489C320.68 209.42 319.822 210.642 319.266 212.153C318.709 213.665 318.43 215.295 318.43 217.045C318.43 218.795 318.709 220.42 319.266 221.92C319.822 223.42 320.68 224.631 321.839 225.551C322.999 226.472 324.476 226.932 326.271 226.932ZM344.276 230V203.818H348.162V207.773H348.435C348.912 206.477 349.776 205.426 351.026 204.619C352.276 203.812 353.685 203.409 355.253 203.409C355.548 203.409 355.918 203.415 356.361 203.426C356.804 203.437 357.139 203.455 357.366 203.477V207.568C357.23 207.534 356.918 207.483 356.429 207.415C355.952 207.335 355.446 207.295 354.912 207.295C353.639 207.295 352.503 207.562 351.503 208.097C350.514 208.619 349.73 209.347 349.151 210.278C348.582 211.199 348.298 212.25 348.298 213.432V230H344.276ZM394.18 209.682L390.567 210.705C390.339 210.102 390.004 209.517 389.561 208.949C389.129 208.369 388.538 207.892 387.788 207.517C387.038 207.142 386.078 206.955 384.908 206.955C383.305 206.955 381.97 207.324 380.902 208.062C379.845 208.79 379.317 209.716 379.317 210.841C379.317 211.841 379.68 212.631 380.408 213.21C381.135 213.79 382.271 214.273 383.817 214.659L387.703 215.614C390.044 216.182 391.788 217.051 392.936 218.222C394.084 219.381 394.658 220.875 394.658 222.705C394.658 224.205 394.226 225.545 393.362 226.727C392.51 227.909 391.317 228.841 389.783 229.523C388.249 230.205 386.464 230.545 384.43 230.545C381.76 230.545 379.55 229.966 377.8 228.807C376.05 227.648 374.942 225.955 374.476 223.727L378.294 222.773C378.658 224.182 379.345 225.239 380.357 225.943C381.379 226.648 382.714 227 384.362 227C386.237 227 387.726 226.602 388.828 225.807C389.942 225 390.499 224.034 390.499 222.909C390.499 222 390.18 221.239 389.544 220.625C388.908 220 387.93 219.534 386.612 219.227L382.249 218.205C379.851 217.636 378.089 216.756 376.964 215.562C375.851 214.358 375.294 212.852 375.294 211.045C375.294 209.568 375.709 208.261 376.538 207.125C377.379 205.989 378.521 205.097 379.964 204.449C381.419 203.801 383.067 203.477 384.908 203.477C387.499 203.477 389.533 204.045 391.01 205.182C392.499 206.318 393.555 207.818 394.18 209.682ZM411.349 230.545C408.895 230.545 406.781 229.966 405.009 228.807C403.236 227.648 401.872 226.051 400.918 224.017C399.963 221.983 399.486 219.659 399.486 217.045C399.486 214.386 399.974 212.04 400.952 210.006C401.94 207.96 403.315 206.364 405.077 205.216C406.849 204.057 408.918 203.477 411.281 203.477C413.122 203.477 414.781 203.818 416.259 204.5C417.736 205.182 418.946 206.136 419.889 207.364C420.832 208.591 421.418 210.023 421.645 211.659H417.622C417.315 210.466 416.634 209.409 415.577 208.489C414.531 207.557 413.122 207.091 411.349 207.091C409.781 207.091 408.406 207.5 407.224 208.318C406.054 209.125 405.139 210.267 404.48 211.744C403.832 213.21 403.509 214.932 403.509 216.909C403.509 218.932 403.827 220.693 404.463 222.193C405.111 223.693 406.02 224.858 407.19 225.688C408.372 226.517 409.759 226.932 411.349 226.932C412.395 226.932 413.344 226.75 414.196 226.386C415.048 226.023 415.77 225.5 416.361 224.818C416.952 224.136 417.372 223.318 417.622 222.364H421.645C421.418 223.909 420.855 225.301 419.957 226.54C419.071 227.767 417.895 228.744 416.429 229.472C414.974 230.188 413.281 230.545 411.349 230.545ZM427.526 230V203.818H431.548V230H427.526ZM429.571 199.455C428.787 199.455 428.111 199.188 427.543 198.653C426.986 198.119 426.707 197.477 426.707 196.727C426.707 195.977 426.986 195.335 427.543 194.801C428.111 194.267 428.787 194 429.571 194C430.355 194 431.026 194.267 431.582 194.801C432.151 195.335 432.435 195.977 432.435 196.727C432.435 197.477 432.151 198.119 431.582 198.653C431.026 199.188 430.355 199.455 429.571 199.455ZM449.893 230.545C447.371 230.545 445.195 229.989 443.365 228.875C441.547 227.75 440.143 226.182 439.155 224.17C438.178 222.148 437.689 219.795 437.689 217.114C437.689 214.432 438.178 212.068 439.155 210.023C440.143 207.966 441.518 206.364 443.28 205.216C445.053 204.057 447.121 203.477 449.484 203.477C450.848 203.477 452.195 203.705 453.524 204.159C454.854 204.614 456.064 205.352 457.155 206.375C458.246 207.386 459.115 208.727 459.763 210.398C460.411 212.068 460.734 214.125 460.734 216.568V218.273H440.553V214.795H456.643C456.643 213.318 456.348 212 455.757 210.841C455.178 209.682 454.348 208.767 453.268 208.097C452.2 207.426 450.939 207.091 449.484 207.091C447.882 207.091 446.496 207.489 445.325 208.284C444.166 209.068 443.274 210.091 442.649 211.352C442.024 212.614 441.712 213.966 441.712 215.409V217.727C441.712 219.705 442.053 221.381 442.734 222.756C443.428 224.119 444.388 225.159 445.615 225.875C446.842 226.58 448.268 226.932 449.893 226.932C450.95 226.932 451.905 226.784 452.757 226.489C453.621 226.182 454.365 225.727 454.99 225.125C455.615 224.511 456.098 223.75 456.439 222.841L460.325 223.932C459.916 225.25 459.229 226.409 458.263 227.409C457.297 228.398 456.104 229.17 454.683 229.727C453.263 230.273 451.666 230.545 449.893 230.545ZM470.876 214.25V230H466.854V203.818H470.74V207.909H471.081C471.695 206.58 472.626 205.511 473.876 204.705C475.126 203.886 476.74 203.477 478.717 203.477C480.49 203.477 482.041 203.841 483.371 204.568C484.7 205.284 485.734 206.375 486.473 207.841C487.212 209.295 487.581 211.136 487.581 213.364V230H483.558V213.636C483.558 211.58 483.024 209.977 481.956 208.83C480.888 207.67 479.422 207.091 477.558 207.091C476.274 207.091 475.126 207.369 474.115 207.926C473.115 208.483 472.325 209.295 471.746 210.364C471.166 211.432 470.876 212.727 470.876 214.25ZM506.318 203.818V207.227H492.75V203.818H506.318ZM496.705 197.545H500.727V222.5C500.727 223.636 500.892 224.489 501.222 225.057C501.563 225.614 501.994 225.989 502.517 226.182C503.051 226.364 503.614 226.455 504.205 226.455C504.648 226.455 505.011 226.432 505.295 226.386C505.58 226.33 505.807 226.284 505.977 226.25L506.795 229.864C506.523 229.966 506.142 230.068 505.653 230.17C505.165 230.284 504.545 230.341 503.795 230.341C502.659 230.341 501.545 230.097 500.455 229.608C499.375 229.119 498.477 228.375 497.761 227.375C497.057 226.375 496.705 225.114 496.705 223.591V197.545ZM512.369 230V203.818H516.392V230H512.369ZM514.415 199.455C513.631 199.455 512.955 199.188 512.386 198.653C511.83 198.119 511.551 197.477 511.551 196.727C511.551 195.977 511.83 195.335 512.386 194.801C512.955 194.267 513.631 194 514.415 194C515.199 194 515.869 194.267 516.426 194.801C516.994 195.335 517.278 195.977 517.278 196.727C517.278 197.477 516.994 198.119 516.426 198.653C515.869 199.188 515.199 199.455 514.415 199.455ZM542.305 209.682L538.692 210.705C538.464 210.102 538.129 209.517 537.686 208.949C537.254 208.369 536.663 207.892 535.913 207.517C535.163 207.142 534.203 206.955 533.033 206.955C531.43 206.955 530.095 207.324 529.027 208.062C527.97 208.79 527.442 209.716 527.442 210.841C527.442 211.841 527.805 212.631 528.533 213.21C529.26 213.79 530.396 214.273 531.942 214.659L535.828 215.614C538.169 216.182 539.913 217.051 541.061 218.222C542.209 219.381 542.783 220.875 542.783 222.705C542.783 224.205 542.351 225.545 541.487 226.727C540.635 227.909 539.442 228.841 537.908 229.523C536.374 230.205 534.589 230.545 532.555 230.545C529.885 230.545 527.675 229.966 525.925 228.807C524.175 227.648 523.067 225.955 522.601 223.727L526.419 222.773C526.783 224.182 527.47 225.239 528.482 225.943C529.504 226.648 530.839 227 532.487 227C534.362 227 535.851 226.602 536.953 225.807C538.067 225 538.624 224.034 538.624 222.909C538.624 222 538.305 221.239 537.669 220.625C537.033 220 536.055 219.534 534.737 219.227L530.374 218.205C527.976 217.636 526.214 216.756 525.089 215.562C523.976 214.358 523.419 212.852 523.419 211.045C523.419 209.568 523.834 208.261 524.663 207.125C525.504 205.989 526.646 205.097 528.089 204.449C529.544 203.801 531.192 203.477 533.033 203.477C535.624 203.477 537.658 204.045 539.135 205.182C540.624 206.318 541.68 207.818 542.305 209.682ZM560.224 203.818V207.227H546.656V203.818H560.224ZM550.611 197.545H554.634V222.5C554.634 223.636 554.798 224.489 555.128 225.057C555.469 225.614 555.901 225.989 556.423 226.182C556.957 226.364 557.52 226.455 558.111 226.455C558.554 226.455 558.918 226.432 559.202 226.386C559.486 226.33 559.713 226.284 559.884 226.25L560.702 229.864C560.429 229.966 560.048 230.068 559.56 230.17C559.071 230.284 558.452 230.341 557.702 230.341C556.565 230.341 555.452 230.097 554.361 229.608C553.281 229.119 552.384 228.375 551.668 227.375C550.963 226.375 550.611 225.114 550.611 223.591V197.545ZM584.352 209.682L580.739 210.705C580.511 210.102 580.176 209.517 579.733 208.949C579.301 208.369 578.71 207.892 577.96 207.517C577.21 207.142 576.25 206.955 575.08 206.955C573.477 206.955 572.142 207.324 571.074 208.062C570.017 208.79 569.489 209.716 569.489 210.841C569.489 211.841 569.852 212.631 570.58 213.21C571.307 213.79 572.443 214.273 573.989 214.659L577.875 215.614C580.216 216.182 581.96 217.051 583.108 218.222C584.256 219.381 584.83 220.875 584.83 222.705C584.83 224.205 584.398 225.545 583.534 226.727C582.682 227.909 581.489 228.841 579.955 229.523C578.42 230.205 576.636 230.545 574.602 230.545C571.932 230.545 569.722 229.966 567.972 228.807C566.222 227.648 565.114 225.955 564.648 223.727L568.466 222.773C568.83 224.182 569.517 225.239 570.528 225.943C571.551 226.648 572.886 227 574.534 227C576.409 227 577.898 226.602 579 225.807C580.114 225 580.67 224.034 580.67 222.909C580.67 222 580.352 221.239 579.716 220.625C579.08 220 578.102 219.534 576.784 219.227L572.42 218.205C570.023 217.636 568.261 216.756 567.136 215.562C566.023 214.358 565.466 212.852 565.466 211.045C565.466 209.568 565.881 208.261 566.71 207.125C567.551 205.989 568.693 205.097 570.136 204.449C571.591 203.801 573.239 203.477 575.08 203.477C577.67 203.477 579.705 204.045 581.182 205.182C582.67 206.318 583.727 207.818 584.352 209.682Z" fill="#1A1A1A"/>
<path d="M127.77 321V300.636H132.075V317.45H140.805V321H127.77ZM150.537 321.298C148.966 321.298 147.614 320.98 146.48 320.344C145.354 319.701 144.485 318.793 143.875 317.619C143.266 316.439 142.961 315.044 142.961 313.433C142.961 311.862 143.266 310.483 143.875 309.297C144.485 308.11 145.344 307.186 146.451 306.523C147.564 305.86 148.87 305.528 150.368 305.528C151.376 305.528 152.314 305.691 153.182 306.016C154.057 306.334 154.819 306.814 155.469 307.457C156.125 308.1 156.636 308.909 157 309.884C157.365 310.851 157.547 311.985 157.547 313.284V314.447H144.651V311.822H153.56C153.56 311.213 153.427 310.672 153.162 310.202C152.897 309.731 152.529 309.363 152.059 309.098C151.595 308.826 151.054 308.69 150.438 308.69C149.795 308.69 149.225 308.839 148.728 309.138C148.237 309.429 147.853 309.824 147.574 310.321C147.296 310.812 147.153 311.358 147.147 311.962V314.457C147.147 315.213 147.286 315.866 147.564 316.416C147.849 316.966 148.25 317.391 148.767 317.689C149.284 317.987 149.898 318.136 150.607 318.136C151.078 318.136 151.508 318.07 151.9 317.938C152.291 317.805 152.625 317.606 152.904 317.341C153.182 317.076 153.394 316.751 153.54 316.366L157.458 316.625C157.259 317.566 156.851 318.388 156.235 319.091C155.625 319.787 154.836 320.33 153.868 320.722C152.907 321.106 151.797 321.298 150.537 321.298ZM164.667 321.288C163.692 321.288 162.824 321.119 162.061 320.781C161.299 320.437 160.696 319.929 160.252 319.26C159.814 318.584 159.596 317.742 159.596 316.734C159.596 315.886 159.751 315.173 160.063 314.597C160.374 314.02 160.799 313.556 161.336 313.205C161.873 312.853 162.482 312.588 163.165 312.409C163.855 312.23 164.577 312.104 165.333 312.031C166.221 311.938 166.937 311.852 167.48 311.773C168.024 311.687 168.418 311.561 168.664 311.395C168.909 311.229 169.032 310.984 169.032 310.659V310.599C169.032 309.97 168.833 309.482 168.435 309.138C168.044 308.793 167.487 308.621 166.765 308.621C166.002 308.621 165.396 308.79 164.945 309.128C164.494 309.459 164.196 309.877 164.05 310.381L160.132 310.062C160.331 309.134 160.722 308.332 161.306 307.656C161.889 306.973 162.641 306.45 163.563 306.085C164.491 305.714 165.565 305.528 166.784 305.528C167.633 305.528 168.445 305.628 169.221 305.827C170.003 306.026 170.695 306.334 171.299 306.751C171.908 307.169 172.389 307.706 172.74 308.362C173.092 309.012 173.267 309.791 173.267 310.699V321H169.25V318.882H169.131C168.886 319.359 168.558 319.78 168.147 320.145C167.736 320.503 167.242 320.785 166.665 320.99C166.088 321.189 165.422 321.288 164.667 321.288ZM165.88 318.365C166.503 318.365 167.053 318.242 167.53 317.997C168.007 317.745 168.382 317.407 168.654 316.983C168.926 316.559 169.061 316.078 169.061 315.541V313.92C168.929 314.007 168.747 314.086 168.515 314.159C168.289 314.225 168.034 314.288 167.749 314.348C167.464 314.401 167.179 314.451 166.894 314.497C166.609 314.537 166.35 314.573 166.118 314.607C165.621 314.679 165.187 314.795 164.816 314.955C164.444 315.114 164.156 315.329 163.951 315.601C163.745 315.866 163.642 316.197 163.642 316.595C163.642 317.172 163.851 317.613 164.269 317.918C164.693 318.216 165.23 318.365 165.88 318.365ZM176.554 321V305.727H180.66V308.392H180.819C181.098 307.444 181.565 306.728 182.221 306.244C182.877 305.754 183.633 305.509 184.488 305.509C184.7 305.509 184.929 305.522 185.174 305.548C185.42 305.575 185.635 305.611 185.821 305.658V309.416C185.622 309.357 185.347 309.304 184.995 309.257C184.644 309.211 184.323 309.188 184.031 309.188C183.408 309.188 182.851 309.323 182.36 309.595C181.877 309.86 181.492 310.232 181.207 310.709C180.929 311.186 180.789 311.736 180.789 312.359V321H176.554ZM192.246 312.17V321H188.011V305.727H192.048V308.422H192.227C192.565 307.534 193.131 306.831 193.927 306.314C194.722 305.79 195.687 305.528 196.82 305.528C197.881 305.528 198.806 305.76 199.594 306.224C200.383 306.688 200.996 307.351 201.434 308.213C201.871 309.068 202.09 310.089 202.09 311.276V321H197.854V312.031C197.861 311.097 197.622 310.367 197.138 309.844C196.655 309.313 195.988 309.048 195.14 309.048C194.57 309.048 194.066 309.171 193.629 309.416C193.198 309.661 192.86 310.019 192.614 310.49C192.376 310.954 192.253 311.514 192.246 312.17ZM216.145 312.17V321H211.909V300.636H216.026V308.422H216.205C216.549 307.52 217.106 306.814 217.875 306.304C218.644 305.787 219.608 305.528 220.768 305.528C221.829 305.528 222.754 305.76 223.543 306.224C224.338 306.682 224.955 307.341 225.392 308.203C225.836 309.058 226.055 310.082 226.048 311.276V321H221.812V312.031C221.819 311.09 221.58 310.357 221.097 309.834C220.619 309.31 219.95 309.048 219.088 309.048C218.511 309.048 218.001 309.171 217.557 309.416C217.119 309.661 216.775 310.019 216.523 310.49C216.277 310.954 216.152 311.514 216.145 312.17ZM236.282 321.298C234.738 321.298 233.402 320.97 232.275 320.314C231.155 319.651 230.29 318.73 229.68 317.55C229.07 316.363 228.765 314.988 228.765 313.423C228.765 311.846 229.07 310.467 229.68 309.287C230.29 308.1 231.155 307.179 232.275 306.523C233.402 305.86 234.738 305.528 236.282 305.528C237.827 305.528 239.159 305.86 240.279 306.523C241.406 307.179 242.275 308.1 242.885 309.287C243.494 310.467 243.799 311.846 243.799 313.423C243.799 314.988 243.494 316.363 242.885 317.55C242.275 318.73 241.406 319.651 240.279 320.314C239.159 320.97 237.827 321.298 236.282 321.298ZM236.302 318.017C237.005 318.017 237.592 317.818 238.062 317.42C238.533 317.016 238.887 316.466 239.126 315.77C239.371 315.074 239.494 314.282 239.494 313.393C239.494 312.505 239.371 311.713 239.126 311.017C238.887 310.321 238.533 309.771 238.062 309.366C237.592 308.962 237.005 308.76 236.302 308.76C235.593 308.76 234.996 308.962 234.512 309.366C234.035 309.771 233.674 310.321 233.429 311.017C233.19 311.713 233.071 312.505 233.071 313.393C233.071 314.282 233.19 315.074 233.429 315.77C233.674 316.466 234.035 317.016 234.512 317.42C234.996 317.818 235.593 318.017 236.302 318.017ZM249.184 321L245.027 305.727H249.313L251.679 315.989H251.819L254.284 305.727H258.49L260.996 315.929H261.125L263.452 305.727H267.728L263.581 321H259.097L256.472 311.395H256.283L253.658 321H249.184ZM284.591 305.727V308.909H275.394V305.727H284.591ZM277.482 302.068H281.718V316.307C281.718 316.698 281.777 317.003 281.897 317.222C282.016 317.434 282.182 317.583 282.394 317.669C282.613 317.755 282.864 317.798 283.15 317.798C283.348 317.798 283.547 317.782 283.746 317.749C283.945 317.709 284.097 317.679 284.203 317.659L284.87 320.811C284.658 320.877 284.359 320.954 283.975 321.04C283.59 321.133 283.123 321.189 282.573 321.209C281.552 321.249 280.657 321.113 279.888 320.801C279.126 320.49 278.533 320.006 278.108 319.349C277.684 318.693 277.475 317.865 277.482 316.864V302.068ZM294.087 321.298C292.542 321.298 291.207 320.97 290.08 320.314C288.96 319.651 288.095 318.73 287.485 317.55C286.875 316.363 286.57 314.988 286.57 313.423C286.57 311.846 286.875 310.467 287.485 309.287C288.095 308.1 288.96 307.179 290.08 306.523C291.207 305.86 292.542 305.528 294.087 305.528C295.632 305.528 296.964 305.86 298.084 306.523C299.211 307.179 300.079 308.1 300.689 309.287C301.299 310.467 301.604 311.846 301.604 313.423C301.604 314.988 301.299 316.363 300.689 317.55C300.079 318.73 299.211 319.651 298.084 320.314C296.964 320.97 295.632 321.298 294.087 321.298ZM294.107 318.017C294.81 318.017 295.396 317.818 295.867 317.42C296.337 317.016 296.692 316.466 296.931 315.77C297.176 315.074 297.299 314.282 297.299 313.393C297.299 312.505 297.176 311.713 296.931 311.017C296.692 310.321 296.337 309.771 295.867 309.366C295.396 308.962 294.81 308.76 294.107 308.76C293.398 308.76 292.801 308.962 292.317 309.366C291.84 309.771 291.479 310.321 291.233 311.017C290.995 311.713 290.875 312.505 290.875 313.393C290.875 314.282 290.995 315.074 291.233 315.77C291.479 316.466 291.84 317.016 292.317 317.42C292.801 317.818 293.398 318.017 294.107 318.017ZM320.633 314.497V305.727H324.869V321H320.802V318.226H320.643C320.298 319.121 319.725 319.84 318.923 320.384C318.127 320.927 317.156 321.199 316.009 321.199C314.988 321.199 314.09 320.967 313.315 320.503C312.539 320.039 311.933 319.379 311.495 318.524C311.064 317.669 310.845 316.645 310.839 315.452V305.727H315.075V314.696C315.081 315.598 315.323 316.31 315.8 316.834C316.278 317.357 316.917 317.619 317.719 317.619C318.23 317.619 318.707 317.503 319.151 317.271C319.595 317.033 319.953 316.681 320.225 316.217C320.504 315.753 320.639 315.18 320.633 314.497ZM340.964 310.082L337.086 310.321C337.02 309.99 336.877 309.691 336.659 309.426C336.44 309.154 336.152 308.939 335.794 308.78C335.442 308.614 335.021 308.531 334.531 308.531C333.875 308.531 333.321 308.67 332.87 308.949C332.42 309.221 332.194 309.585 332.194 310.043C332.194 310.407 332.34 310.715 332.632 310.967C332.923 311.219 333.424 311.421 334.133 311.574L336.897 312.131C338.382 312.436 339.489 312.926 340.218 313.602C340.948 314.278 341.312 315.167 341.312 316.267C341.312 317.268 341.017 318.146 340.427 318.902C339.844 319.658 339.042 320.248 338.021 320.672C337.007 321.089 335.837 321.298 334.511 321.298C332.489 321.298 330.878 320.877 329.679 320.036C328.485 319.187 327.786 318.034 327.581 316.575L331.747 316.357C331.873 316.973 332.178 317.444 332.662 317.768C333.145 318.087 333.765 318.246 334.521 318.246C335.263 318.246 335.86 318.103 336.311 317.818C336.768 317.527 337 317.152 337.007 316.695C337 316.31 336.838 315.995 336.52 315.75C336.201 315.498 335.711 315.306 335.048 315.173L332.403 314.646C330.912 314.348 329.801 313.831 329.072 313.095C328.35 312.359 327.988 311.421 327.988 310.281C327.988 309.3 328.253 308.455 328.784 307.746C329.321 307.036 330.073 306.49 331.041 306.105C332.015 305.721 333.155 305.528 334.461 305.528C336.39 305.528 337.908 305.936 339.015 306.751C340.129 307.567 340.779 308.677 340.964 310.082ZM350.94 321.298C349.369 321.298 348.016 320.98 346.883 320.344C345.756 319.701 344.888 318.793 344.278 317.619C343.668 316.439 343.363 315.044 343.363 313.433C343.363 311.862 343.668 310.483 344.278 309.297C344.888 308.11 345.746 307.186 346.853 306.523C347.967 305.86 349.272 305.528 350.771 305.528C351.778 305.528 352.716 305.691 353.585 306.016C354.46 306.334 355.222 306.814 355.871 307.457C356.528 308.1 357.038 308.909 357.403 309.884C357.767 310.851 357.95 311.985 357.95 313.284V314.447H345.053V311.822H353.962C353.962 311.213 353.83 310.672 353.565 310.202C353.299 309.731 352.932 309.363 352.461 309.098C351.997 308.826 351.457 308.69 350.84 308.69C350.197 308.69 349.627 308.839 349.13 309.138C348.639 309.429 348.255 309.824 347.977 310.321C347.698 310.812 347.556 311.358 347.549 311.962V314.457C347.549 315.213 347.688 315.866 347.967 316.416C348.252 316.966 348.653 317.391 349.17 317.689C349.687 317.987 350.3 318.136 351.009 318.136C351.48 318.136 351.911 318.07 352.302 317.938C352.693 317.805 353.028 317.606 353.306 317.341C353.585 317.076 353.797 316.751 353.942 316.366L357.86 316.625C357.661 317.566 357.254 318.388 356.637 319.091C356.027 319.787 355.238 320.33 354.271 320.722C353.309 321.106 352.199 321.298 350.94 321.298ZM375.318 305.727V308.909H366.12V305.727H375.318ZM368.208 302.068H372.444V316.307C372.444 316.698 372.504 317.003 372.623 317.222C372.743 317.434 372.908 317.583 373.12 317.669C373.339 317.755 373.591 317.798 373.876 317.798C374.075 317.798 374.274 317.782 374.473 317.749C374.672 317.709 374.824 317.679 374.93 317.659L375.596 320.811C375.384 320.877 375.086 320.954 374.701 321.04C374.317 321.133 373.85 321.189 373.299 321.209C372.279 321.249 371.384 321.113 370.615 320.801C369.852 320.49 369.259 320.006 368.835 319.349C368.411 318.693 368.202 317.865 368.208 316.864V302.068ZM380.692 326.727C380.155 326.727 379.651 326.684 379.181 326.598C378.717 326.518 378.332 326.416 378.027 326.29L378.982 323.128C379.479 323.28 379.926 323.363 380.324 323.376C380.729 323.39 381.077 323.297 381.368 323.098C381.667 322.899 381.908 322.561 382.094 322.084L382.343 321.438L376.864 305.727H381.319L384.48 316.943H384.64L387.831 305.727H392.316L386.38 322.651C386.095 323.473 385.707 324.188 385.216 324.798C384.732 325.415 384.119 325.889 383.377 326.22C382.634 326.558 381.739 326.727 380.692 326.727ZM394.483 326.727V305.727H398.659V308.293H398.848C399.034 307.882 399.302 307.464 399.654 307.04C400.012 306.609 400.476 306.251 401.046 305.966C401.623 305.674 402.338 305.528 403.194 305.528C404.307 305.528 405.335 305.82 406.276 306.403C407.217 306.98 407.97 307.852 408.533 309.018C409.096 310.179 409.378 311.634 409.378 313.384C409.378 315.087 409.103 316.526 408.553 317.699C408.009 318.866 407.267 319.75 406.326 320.354C405.391 320.95 404.344 321.249 403.184 321.249C402.362 321.249 401.662 321.113 401.086 320.841C400.516 320.569 400.048 320.228 399.684 319.817C399.319 319.399 399.041 318.978 398.848 318.554H398.719V326.727H394.483ZM398.63 313.364C398.63 314.272 398.756 315.064 399.007 315.74C399.259 316.416 399.624 316.943 400.101 317.321C400.578 317.692 401.158 317.878 401.841 317.878C402.531 317.878 403.114 317.689 403.591 317.311C404.069 316.927 404.43 316.396 404.675 315.72C404.927 315.037 405.053 314.252 405.053 313.364C405.053 312.482 404.93 311.706 404.685 311.037C404.44 310.367 404.078 309.844 403.601 309.466C403.124 309.088 402.537 308.899 401.841 308.899C401.152 308.899 400.569 309.081 400.091 309.446C399.621 309.811 399.259 310.328 399.007 310.997C398.756 311.667 398.63 312.455 398.63 313.364ZM419.103 321.298C417.558 321.298 416.222 320.97 415.096 320.314C413.975 319.651 413.11 318.73 412.5 317.55C411.891 316.363 411.586 314.988 411.586 313.423C411.586 311.846 411.891 310.467 412.5 309.287C413.11 308.1 413.975 307.179 415.096 306.523C416.222 305.86 417.558 305.528 419.103 305.528C420.647 305.528 421.98 305.86 423.1 306.523C424.227 307.179 425.095 308.1 425.705 309.287C426.315 310.467 426.62 311.846 426.62 313.423C426.62 314.988 426.315 316.363 425.705 317.55C425.095 318.73 424.227 319.651 423.1 320.314C421.98 320.97 420.647 321.298 419.103 321.298ZM419.123 318.017C419.825 318.017 420.412 317.818 420.882 317.42C421.353 317.016 421.708 316.466 421.946 315.77C422.192 315.074 422.314 314.282 422.314 313.393C422.314 312.505 422.192 311.713 421.946 311.017C421.708 310.321 421.353 309.771 420.882 309.366C420.412 308.962 419.825 308.76 419.123 308.76C418.413 308.76 417.817 308.962 417.333 309.366C416.855 309.771 416.494 310.321 416.249 311.017C416.01 311.713 415.891 312.505 415.891 313.393C415.891 314.282 416.01 315.074 416.249 315.77C416.494 316.466 416.855 317.016 417.333 317.42C417.817 317.818 418.413 318.017 419.123 318.017ZM436.255 327.045C434.882 327.045 433.706 326.857 432.725 326.479C431.75 326.107 430.975 325.6 430.398 324.957C429.821 324.314 429.447 323.592 429.275 322.79L433.192 322.263C433.311 322.568 433.5 322.853 433.759 323.118C434.017 323.383 434.359 323.595 434.783 323.754C435.214 323.92 435.738 324.003 436.354 324.003C437.275 324.003 438.034 323.777 438.631 323.327C439.234 322.883 439.536 322.137 439.536 321.089V318.295H439.357C439.171 318.72 438.893 319.121 438.522 319.499C438.15 319.876 437.673 320.185 437.09 320.423C436.507 320.662 435.81 320.781 435.002 320.781C433.855 320.781 432.811 320.516 431.87 319.986C430.935 319.449 430.189 318.63 429.632 317.53C429.082 316.423 428.807 315.024 428.807 313.334C428.807 311.604 429.089 310.159 429.652 308.999C430.216 307.839 430.965 306.97 431.9 306.393C432.841 305.817 433.872 305.528 434.992 305.528C435.847 305.528 436.563 305.674 437.14 305.966C437.716 306.251 438.18 306.609 438.532 307.04C438.89 307.464 439.165 307.882 439.357 308.293H439.516V305.727H443.722V321.149C443.722 322.448 443.404 323.536 442.767 324.411C442.131 325.286 441.249 325.942 440.123 326.379C439.002 326.823 437.713 327.045 436.255 327.045ZM436.344 317.599C437.027 317.599 437.604 317.43 438.074 317.092C438.551 316.748 438.916 316.257 439.168 315.621C439.426 314.978 439.556 314.209 439.556 313.314C439.556 312.419 439.43 311.643 439.178 310.987C438.926 310.324 438.561 309.811 438.084 309.446C437.607 309.081 437.027 308.899 436.344 308.899C435.648 308.899 435.061 309.088 434.584 309.466C434.107 309.837 433.746 310.354 433.5 311.017C433.255 311.68 433.132 312.446 433.132 313.314C433.132 314.196 433.255 314.958 433.5 315.601C433.752 316.237 434.114 316.731 434.584 317.082C435.061 317.427 435.648 317.599 436.344 317.599ZM447.093 321V305.727H451.199V308.392H451.358C451.637 307.444 452.104 306.728 452.76 306.244C453.417 305.754 454.172 305.509 455.027 305.509C455.239 305.509 455.468 305.522 455.713 305.548C455.959 305.575 456.174 305.611 456.36 305.658V309.416C456.161 309.357 455.886 309.304 455.534 309.257C455.183 309.211 454.862 309.188 454.57 309.188C453.947 309.188 453.39 309.323 452.9 309.595C452.416 309.86 452.031 310.232 451.746 310.709C451.468 311.186 451.328 311.736 451.328 312.359V321H447.093ZM462.467 321.288C461.493 321.288 460.625 321.119 459.862 320.781C459.1 320.437 458.497 319.929 458.053 319.26C457.615 318.584 457.396 317.742 457.396 316.734C457.396 315.886 457.552 315.173 457.864 314.597C458.175 314.02 458.599 313.556 459.136 313.205C459.673 312.853 460.283 312.588 460.966 312.409C461.655 312.23 462.378 312.104 463.134 312.031C464.022 311.938 464.738 311.852 465.281 311.773C465.825 311.687 466.219 311.561 466.464 311.395C466.71 311.229 466.832 310.984 466.832 310.659V310.599C466.832 309.97 466.634 309.482 466.236 309.138C465.845 308.793 465.288 308.621 464.565 308.621C463.803 308.621 463.196 308.79 462.746 309.128C462.295 309.459 461.997 309.877 461.851 310.381L457.933 310.062C458.132 309.134 458.523 308.332 459.107 307.656C459.69 306.973 460.442 306.45 461.364 306.085C462.292 305.714 463.366 305.528 464.585 305.528C465.434 305.528 466.246 305.628 467.021 305.827C467.804 306.026 468.496 306.334 469.099 306.751C469.709 307.169 470.19 307.706 470.541 308.362C470.893 309.012 471.068 309.791 471.068 310.699V321H467.051V318.882H466.932C466.687 319.359 466.358 319.78 465.947 320.145C465.536 320.503 465.043 320.785 464.466 320.99C463.889 321.189 463.223 321.288 462.467 321.288ZM463.68 318.365C464.304 318.365 464.854 318.242 465.331 317.997C465.808 317.745 466.183 317.407 466.455 316.983C466.726 316.559 466.862 316.078 466.862 315.541V313.92C466.73 314.007 466.547 314.086 466.315 314.159C466.09 314.225 465.835 314.288 465.55 314.348C465.265 314.401 464.98 314.451 464.695 314.497C464.41 314.537 464.151 314.573 463.919 314.607C463.422 314.679 462.988 314.795 462.616 314.955C462.245 315.114 461.957 315.329 461.751 315.601C461.546 315.866 461.443 316.197 461.443 316.595C461.443 317.172 461.652 317.613 462.07 317.918C462.494 318.216 463.031 318.365 463.68 318.365ZM474.354 326.727V305.727H478.531V308.293H478.719C478.905 307.882 479.174 307.464 479.525 307.04C479.883 306.609 480.347 306.251 480.917 305.966C481.494 305.674 482.21 305.528 483.065 305.528C484.178 305.528 485.206 305.82 486.147 306.403C487.088 306.98 487.841 307.852 488.404 309.018C488.968 310.179 489.249 311.634 489.249 313.384C489.249 315.087 488.974 316.526 488.424 317.699C487.88 318.866 487.138 319.75 486.197 320.354C485.262 320.95 484.215 321.249 483.055 321.249C482.233 321.249 481.533 321.113 480.957 320.841C480.387 320.569 479.919 320.228 479.555 319.817C479.19 319.399 478.912 318.978 478.719 318.554H478.59V326.727H474.354ZM478.501 313.364C478.501 314.272 478.627 315.064 478.879 315.74C479.13 316.416 479.495 316.943 479.972 317.321C480.45 317.692 481.03 317.878 481.712 317.878C482.402 317.878 482.985 317.689 483.462 317.311C483.94 316.927 484.301 316.396 484.546 315.72C484.798 315.037 484.924 314.252 484.924 313.364C484.924 312.482 484.801 311.706 484.556 311.037C484.311 310.367 483.95 309.844 483.472 309.466C482.995 309.088 482.408 308.899 481.712 308.899C481.023 308.899 480.44 309.081 479.962 309.446C479.492 309.811 479.13 310.328 478.879 310.997C478.627 311.667 478.501 312.455 478.501 313.364ZM496.309 312.17V321H492.073V300.636H496.19V308.422H496.369C496.713 307.52 497.27 306.814 498.039 306.304C498.808 305.787 499.772 305.528 500.933 305.528C501.993 305.528 502.918 305.76 503.707 306.224C504.502 306.682 505.119 307.341 505.556 308.203C506 309.058 506.219 310.082 506.212 311.276V321H501.977V312.031C501.983 311.09 501.745 310.357 501.261 309.834C500.783 309.31 500.114 309.048 499.252 309.048C498.675 309.048 498.165 309.171 497.721 309.416C497.283 309.661 496.939 310.019 496.687 310.49C496.442 310.954 496.316 311.514 496.309 312.17ZM511.614 326.727C511.077 326.727 510.573 326.684 510.103 326.598C509.639 326.518 509.254 326.416 508.949 326.29L509.904 323.128C510.401 323.28 510.848 323.363 511.246 323.376C511.65 323.39 511.998 323.297 512.29 323.098C512.588 322.899 512.83 322.561 513.016 322.084L513.265 321.438L507.786 305.727H512.24L515.402 316.943H515.561L518.753 305.727H523.238L517.301 322.651C517.016 323.473 516.629 324.188 516.138 324.798C515.654 325.415 515.041 325.889 514.299 326.22C513.556 326.558 512.661 326.727 511.614 326.727ZM529.052 318.216L528.942 319.31C528.856 320.185 528.691 321.056 528.445 321.925C528.207 322.8 527.955 323.592 527.69 324.301C527.431 325.01 527.222 325.567 527.063 325.972H524.319C524.418 325.58 524.554 325.034 524.727 324.331C524.899 323.635 525.061 322.853 525.214 321.984C525.366 321.116 525.462 320.231 525.502 319.33L525.552 318.216H529.052ZM542.684 300.636V321H538.448V300.636H542.684ZM550.432 321.288C549.458 321.288 548.589 321.119 547.827 320.781C547.065 320.437 546.462 319.929 546.017 319.26C545.58 318.584 545.361 317.742 545.361 316.734C545.361 315.886 545.517 315.173 545.828 314.597C546.14 314.02 546.564 313.556 547.101 313.205C547.638 312.853 548.248 312.588 548.931 312.409C549.62 312.23 550.343 312.104 551.098 312.031C551.987 311.938 552.703 311.852 553.246 311.773C553.79 311.687 554.184 311.561 554.429 311.395C554.675 311.229 554.797 310.984 554.797 310.659V310.599C554.797 309.97 554.598 309.482 554.201 309.138C553.81 308.793 553.253 308.621 552.53 308.621C551.768 308.621 551.161 308.79 550.711 309.128C550.26 309.459 549.962 309.877 549.816 310.381L545.898 310.062C546.097 309.134 546.488 308.332 547.071 307.656C547.655 306.973 548.407 306.45 549.328 306.085C550.257 305.714 551.33 305.528 552.55 305.528C553.399 305.528 554.211 305.628 554.986 305.827C555.768 306.026 556.461 306.334 557.064 306.751C557.674 307.169 558.155 307.706 558.506 308.362C558.857 309.012 559.033 309.791 559.033 310.699V321H555.016V318.882H554.897C554.651 319.359 554.323 319.78 553.912 320.145C553.501 320.503 553.007 320.785 552.431 320.99C551.854 321.189 551.188 321.288 550.432 321.288ZM551.645 318.365C552.268 318.365 552.819 318.242 553.296 317.997C553.773 317.745 554.148 317.407 554.419 316.983C554.691 316.559 554.827 316.078 554.827 315.541V313.92C554.694 314.007 554.512 314.086 554.28 314.159C554.055 314.225 553.8 314.288 553.515 314.348C553.23 314.401 552.944 314.451 552.659 314.497C552.374 314.537 552.116 314.573 551.884 314.607C551.387 314.679 550.953 314.795 550.581 314.955C550.21 315.114 549.922 315.329 549.716 315.601C549.511 315.866 549.408 316.197 549.408 316.595C549.408 317.172 549.617 317.613 550.034 317.918C550.459 318.216 550.996 318.365 551.645 318.365ZM564.387 326.727C563.85 326.727 563.347 326.684 562.876 326.598C562.412 326.518 562.028 326.416 561.723 326.29L562.677 323.128C563.174 323.28 563.622 323.363 564.02 323.376C564.424 323.39 564.772 323.297 565.064 323.098C565.362 322.899 565.604 322.561 565.789 322.084L566.038 321.438L560.559 305.727H565.014L568.176 316.943H568.335L571.527 305.727H576.011L570.075 322.651C569.79 323.473 569.402 324.188 568.912 324.798C568.428 325.415 567.815 325.889 567.072 326.22C566.33 326.558 565.435 326.727 564.387 326.727ZM584.587 321.298C583.042 321.298 581.707 320.97 580.58 320.314C579.46 319.651 578.595 318.73 577.985 317.55C577.375 316.363 577.07 314.988 577.07 313.423C577.07 311.846 577.375 310.467 577.985 309.287C578.595 308.1 579.46 307.179 580.58 306.523C581.707 305.86 583.042 305.528 584.587 305.528C586.132 305.528 587.464 305.86 588.584 306.523C589.711 307.179 590.579 308.1 591.189 309.287C591.799 310.467 592.104 311.846 592.104 313.423C592.104 314.988 591.799 316.363 591.189 317.55C590.579 318.73 589.711 319.651 588.584 320.314C587.464 320.97 586.132 321.298 584.587 321.298ZM584.607 318.017C585.31 318.017 585.896 317.818 586.367 317.42C586.837 317.016 587.192 316.466 587.431 315.77C587.676 315.074 587.799 314.282 587.799 313.393C587.799 312.505 587.676 311.713 587.431 311.017C587.192 310.321 586.837 309.771 586.367 309.366C585.896 308.962 585.31 308.76 584.607 308.76C583.898 308.76 583.301 308.962 582.817 309.366C582.34 309.771 581.979 310.321 581.733 311.017C581.495 311.713 581.375 312.505 581.375 313.393C581.375 314.282 581.495 315.074 581.733 315.77C581.979 316.466 582.34 317.016 582.817 317.42C583.301 317.818 583.898 318.017 584.607 318.017ZM604.652 314.497V305.727H608.888V321H604.821V318.226H604.662C604.318 319.121 603.744 319.84 602.942 320.384C602.147 320.927 601.176 321.199 600.029 321.199C599.008 321.199 598.11 320.967 597.334 320.503C596.559 320.039 595.952 319.379 595.515 318.524C595.084 317.669 594.865 316.645 594.858 315.452V305.727H599.094V314.696C599.101 315.598 599.343 316.31 599.82 316.834C600.297 317.357 600.937 317.619 601.739 317.619C602.249 317.619 602.727 317.503 603.171 317.271C603.615 317.033 603.973 316.681 604.245 316.217C604.523 315.753 604.659 315.18 604.652 314.497ZM620.4 305.727V308.909H611.202V305.727H620.4ZM613.29 302.068H617.526V316.307C617.526 316.698 617.586 317.003 617.705 317.222C617.825 317.434 617.99 317.583 618.202 317.669C618.421 317.755 618.673 317.798 618.958 317.798C619.157 317.798 619.356 317.782 619.555 317.749C619.754 317.709 619.906 317.679 620.012 317.659L620.678 320.811C620.466 320.877 620.168 320.954 619.783 321.04C619.399 321.133 618.932 321.189 618.381 321.209C617.361 321.249 616.466 321.113 615.697 320.801C614.934 320.49 614.341 320.006 613.917 319.349C613.493 318.693 613.284 317.865 613.29 316.864V302.068ZM132.045 363.288C131.071 363.288 130.203 363.119 129.44 362.781C128.678 362.437 128.075 361.929 127.631 361.26C127.193 360.584 126.974 359.742 126.974 358.734C126.974 357.886 127.13 357.173 127.442 356.597C127.753 356.02 128.178 355.556 128.714 355.205C129.251 354.853 129.861 354.588 130.544 354.409C131.233 354.23 131.956 354.104 132.712 354.031C133.6 353.938 134.316 353.852 134.859 353.773C135.403 353.687 135.797 353.561 136.043 353.395C136.288 353.229 136.411 352.984 136.411 352.659V352.599C136.411 351.97 136.212 351.482 135.814 351.138C135.423 350.793 134.866 350.621 134.143 350.621C133.381 350.621 132.775 350.79 132.324 351.128C131.873 351.459 131.575 351.877 131.429 352.381L127.511 352.062C127.71 351.134 128.101 350.332 128.685 349.656C129.268 348.973 130.02 348.45 130.942 348.085C131.87 347.714 132.944 347.528 134.163 347.528C135.012 347.528 135.824 347.628 136.599 347.827C137.382 348.026 138.074 348.334 138.678 348.751C139.287 349.169 139.768 349.706 140.119 350.362C140.471 351.012 140.646 351.791 140.646 352.699V363H136.629V360.882H136.51C136.265 361.359 135.937 361.78 135.526 362.145C135.115 362.503 134.621 362.785 134.044 362.99C133.467 363.189 132.801 363.288 132.045 363.288ZM133.259 360.365C133.882 360.365 134.432 360.242 134.909 359.997C135.386 359.745 135.761 359.407 136.033 358.983C136.304 358.559 136.44 358.078 136.44 357.541V355.92C136.308 356.007 136.125 356.086 135.893 356.159C135.668 356.225 135.413 356.288 135.128 356.348C134.843 356.401 134.558 356.451 134.273 356.497C133.988 356.537 133.729 356.573 133.497 356.607C133 356.679 132.566 356.795 132.195 356.955C131.823 357.114 131.535 357.329 131.33 357.601C131.124 357.866 131.021 358.197 131.021 358.595C131.021 359.172 131.23 359.613 131.648 359.918C132.072 360.216 132.609 360.365 133.259 360.365ZM148.168 354.17V363H143.933V347.727H147.969V350.422H148.148C148.487 349.534 149.053 348.831 149.849 348.314C150.644 347.79 151.609 347.528 152.742 347.528C153.803 347.528 154.728 347.76 155.516 348.224C156.305 348.688 156.918 349.351 157.356 350.213C157.793 351.068 158.012 352.089 158.012 353.276V363H153.776V354.031C153.783 353.097 153.544 352.367 153.06 351.844C152.576 351.313 151.91 351.048 151.062 351.048C150.492 351.048 149.988 351.171 149.55 351.416C149.12 351.661 148.781 352.019 148.536 352.49C148.298 352.954 148.175 353.514 148.168 354.17ZM166.978 363.249C165.818 363.249 164.768 362.95 163.826 362.354C162.892 361.75 162.149 360.866 161.599 359.699C161.056 358.526 160.784 357.087 160.784 355.384C160.784 353.634 161.065 352.179 161.629 351.018C162.192 349.852 162.941 348.98 163.876 348.403C164.817 347.82 165.848 347.528 166.968 347.528C167.824 347.528 168.536 347.674 169.106 347.966C169.683 348.251 170.147 348.609 170.498 349.04C170.856 349.464 171.128 349.882 171.314 350.293H171.443V342.636H175.669V363H171.493V360.554H171.314C171.115 360.978 170.833 361.399 170.468 361.817C170.11 362.228 169.643 362.569 169.066 362.841C168.496 363.113 167.8 363.249 166.978 363.249ZM168.321 359.878C169.003 359.878 169.58 359.692 170.051 359.321C170.528 358.943 170.893 358.416 171.145 357.74C171.403 357.064 171.532 356.272 171.532 355.364C171.532 354.455 171.406 353.667 171.154 352.997C170.903 352.328 170.538 351.811 170.061 351.446C169.583 351.081 169.003 350.899 168.321 350.899C167.625 350.899 167.038 351.088 166.561 351.466C166.083 351.844 165.722 352.367 165.477 353.037C165.232 353.706 165.109 354.482 165.109 355.364C165.109 356.252 165.232 357.037 165.477 357.72C165.729 358.396 166.09 358.927 166.561 359.311C167.038 359.689 167.625 359.878 168.321 359.878ZM192.532 363.298C190.968 363.298 189.622 362.967 188.495 362.304C187.375 361.634 186.513 360.706 185.91 359.52C185.314 358.333 185.015 356.968 185.015 355.423C185.015 353.859 185.317 352.487 185.92 351.307C186.53 350.12 187.395 349.196 188.515 348.533C189.636 347.863 190.968 347.528 192.512 347.528C193.845 347.528 195.011 347.77 196.012 348.254C197.013 348.738 197.806 349.418 198.389 350.293C198.972 351.168 199.294 352.195 199.353 353.375H195.356C195.243 352.613 194.945 352 194.461 351.536C193.984 351.065 193.358 350.83 192.582 350.83C191.926 350.83 191.352 351.009 190.862 351.366C190.378 351.718 190 352.232 189.728 352.908C189.457 353.584 189.321 354.402 189.321 355.364C189.321 356.338 189.453 357.167 189.718 357.849C189.99 358.532 190.371 359.053 190.862 359.411C191.352 359.768 191.926 359.947 192.582 359.947C193.066 359.947 193.5 359.848 193.885 359.649C194.276 359.45 194.597 359.162 194.849 358.784C195.108 358.4 195.277 357.939 195.356 357.402H199.353C199.287 358.569 198.969 359.596 198.399 360.484C197.835 361.366 197.056 362.055 196.062 362.553C195.068 363.05 193.891 363.298 192.532 363.298ZM208.966 363.298C207.421 363.298 206.086 362.97 204.959 362.314C203.839 361.651 202.973 360.73 202.364 359.55C201.754 358.363 201.449 356.988 201.449 355.423C201.449 353.846 201.754 352.467 202.364 351.287C202.973 350.1 203.839 349.179 204.959 348.523C206.086 347.86 207.421 347.528 208.966 347.528C210.51 347.528 211.843 347.86 212.963 348.523C214.09 349.179 214.958 350.1 215.568 351.287C216.178 352.467 216.483 353.846 216.483 355.423C216.483 356.988 216.178 358.363 215.568 359.55C214.958 360.73 214.09 361.651 212.963 362.314C211.843 362.97 210.51 363.298 208.966 363.298ZM208.986 360.017C209.688 360.017 210.275 359.818 210.746 359.42C211.216 359.016 211.571 358.466 211.81 357.77C212.055 357.074 212.178 356.282 212.178 355.393C212.178 354.505 212.055 353.713 211.81 353.017C211.571 352.321 211.216 351.771 210.746 351.366C210.275 350.962 209.688 350.76 208.986 350.76C208.277 350.76 207.68 350.962 207.196 351.366C206.719 351.771 206.357 352.321 206.112 353.017C205.874 353.713 205.754 354.505 205.754 355.393C205.754 356.282 205.874 357.074 206.112 357.77C206.357 358.466 206.719 359.016 207.196 359.42C207.68 359.818 208.277 360.017 208.986 360.017ZM223.473 342.636V363H219.237V342.636H223.473ZM233.767 363.298C232.222 363.298 230.886 362.97 229.76 362.314C228.639 361.651 227.774 360.73 227.164 359.55C226.555 358.363 226.25 356.988 226.25 355.423C226.25 353.846 226.555 352.467 227.164 351.287C227.774 350.1 228.639 349.179 229.76 348.523C230.886 347.86 232.222 347.528 233.767 347.528C235.311 347.528 236.644 347.86 237.764 348.523C238.891 349.179 239.759 350.1 240.369 351.287C240.979 352.467 241.284 353.846 241.284 355.423C241.284 356.988 240.979 358.363 240.369 359.55C239.759 360.73 238.891 361.651 237.764 362.314C236.644 362.97 235.311 363.298 233.767 363.298ZM233.787 360.017C234.489 360.017 235.076 359.818 235.547 359.42C236.017 359.016 236.372 358.466 236.61 357.77C236.856 357.074 236.978 356.282 236.978 355.393C236.978 354.505 236.856 353.713 236.61 353.017C236.372 352.321 236.017 351.771 235.547 351.366C235.076 350.962 234.489 350.76 233.787 350.76C233.077 350.76 232.481 350.962 231.997 351.366C231.52 351.771 231.158 352.321 230.913 353.017C230.674 353.713 230.555 354.505 230.555 355.393C230.555 356.282 230.674 357.074 230.913 357.77C231.158 358.466 231.52 359.016 231.997 359.42C232.481 359.818 233.077 360.017 233.787 360.017ZM244.038 363V347.727H248.145V350.392H248.304C248.582 349.444 249.049 348.728 249.706 348.244C250.362 347.754 251.118 347.509 251.973 347.509C252.185 347.509 252.413 347.522 252.659 347.548C252.904 347.575 253.119 347.611 253.305 347.658V351.416C253.106 351.357 252.831 351.304 252.48 351.257C252.128 351.211 251.807 351.188 251.515 351.188C250.892 351.188 250.335 351.323 249.845 351.595C249.361 351.86 248.976 352.232 248.691 352.709C248.413 353.186 248.274 353.736 248.274 354.359V363H244.038ZM268.202 352.082L264.325 352.321C264.258 351.99 264.116 351.691 263.897 351.426C263.678 351.154 263.39 350.939 263.032 350.78C262.681 350.614 262.26 350.531 261.769 350.531C261.113 350.531 260.559 350.67 260.109 350.949C259.658 351.221 259.433 351.585 259.433 352.043C259.433 352.407 259.578 352.715 259.87 352.967C260.162 353.219 260.662 353.421 261.371 353.574L264.136 354.131C265.621 354.436 266.728 354.926 267.457 355.602C268.186 356.278 268.55 357.167 268.55 358.267C268.55 359.268 268.255 360.146 267.665 360.902C267.082 361.658 266.28 362.248 265.259 362.672C264.245 363.089 263.075 363.298 261.749 363.298C259.728 363.298 258.117 362.877 256.917 362.036C255.724 361.187 255.024 360.034 254.819 358.575L258.985 358.357C259.111 358.973 259.416 359.444 259.9 359.768C260.384 360.087 261.004 360.246 261.759 360.246C262.502 360.246 263.098 360.103 263.549 359.818C264.006 359.527 264.238 359.152 264.245 358.695C264.238 358.31 264.076 357.995 263.758 357.75C263.44 357.498 262.949 357.306 262.286 357.173L259.641 356.646C258.15 356.348 257.04 355.831 256.31 355.095C255.588 354.359 255.227 353.421 255.227 352.281C255.227 351.3 255.492 350.455 256.022 349.746C256.559 349.036 257.311 348.49 258.279 348.105C259.254 347.721 260.394 347.528 261.7 347.528C263.629 347.528 265.147 347.936 266.254 348.751C267.367 349.567 268.017 350.677 268.202 352.082ZM285.822 347.727V350.909H276.624V347.727H285.822ZM278.712 344.068H282.948V358.307C282.948 358.698 283.008 359.003 283.127 359.222C283.246 359.434 283.412 359.583 283.624 359.669C283.843 359.755 284.095 359.798 284.38 359.798C284.579 359.798 284.778 359.782 284.977 359.749C285.175 359.709 285.328 359.679 285.434 359.659L286.1 362.811C285.888 362.877 285.59 362.954 285.205 363.04C284.821 363.133 284.353 363.189 283.803 363.209C282.782 363.249 281.888 363.113 281.119 362.801C280.356 362.49 279.763 362.006 279.339 361.349C278.915 360.693 278.706 359.865 278.712 358.864V344.068ZM295.317 363.298C293.773 363.298 292.437 362.97 291.31 362.314C290.19 361.651 289.325 360.73 288.715 359.55C288.105 358.363 287.8 356.988 287.8 355.423C287.8 353.846 288.105 352.467 288.715 351.287C289.325 350.1 290.19 349.179 291.31 348.523C292.437 347.86 293.773 347.528 295.317 347.528C296.862 347.528 298.194 347.86 299.315 348.523C300.442 349.179 301.31 350.1 301.92 351.287C302.53 352.467 302.835 353.846 302.835 355.423C302.835 356.988 302.53 358.363 301.92 359.55C301.31 360.73 300.442 361.651 299.315 362.314C298.194 362.97 296.862 363.298 295.317 363.298ZM295.337 360.017C296.04 360.017 296.627 359.818 297.097 359.42C297.568 359.016 297.923 358.466 298.161 357.77C298.406 357.074 298.529 356.282 298.529 355.393C298.529 354.505 298.406 353.713 298.161 353.017C297.923 352.321 297.568 351.771 297.097 351.366C296.627 350.962 296.04 350.76 295.337 350.76C294.628 350.76 294.031 350.962 293.548 351.366C293.07 351.771 292.709 352.321 292.464 353.017C292.225 353.713 292.106 354.505 292.106 355.393C292.106 356.282 292.225 357.074 292.464 357.77C292.709 358.466 293.07 359.016 293.548 359.42C294.031 359.818 294.628 360.017 295.337 360.017ZM319.029 363.298C317.458 363.298 316.106 362.98 314.973 362.344C313.846 361.701 312.977 360.793 312.368 359.619C311.758 358.439 311.453 357.044 311.453 355.433C311.453 353.862 311.758 352.483 312.368 351.297C312.977 350.11 313.836 349.186 314.943 348.523C316.056 347.86 317.362 347.528 318.86 347.528C319.868 347.528 320.806 347.691 321.674 348.016C322.549 348.334 323.312 348.814 323.961 349.457C324.618 350.1 325.128 350.909 325.493 351.884C325.857 352.851 326.039 353.985 326.039 355.284V356.447H313.143V353.822H322.052C322.052 353.213 321.92 352.672 321.654 352.202C321.389 351.731 321.021 351.363 320.551 351.098C320.087 350.826 319.547 350.69 318.93 350.69C318.287 350.69 317.717 350.839 317.22 351.138C316.729 351.429 316.345 351.824 316.066 352.321C315.788 352.812 315.645 353.358 315.639 353.962V356.457C315.639 357.213 315.778 357.866 316.056 358.416C316.342 358.966 316.743 359.391 317.26 359.689C317.777 359.987 318.39 360.136 319.099 360.136C319.57 360.136 320.001 360.07 320.392 359.938C320.783 359.805 321.118 359.606 321.396 359.341C321.674 359.076 321.886 358.751 322.032 358.366L325.95 358.625C325.751 359.566 325.343 360.388 324.727 361.091C324.117 361.787 323.328 362.33 322.36 362.722C321.399 363.106 320.289 363.298 319.029 363.298ZM337.017 347.727V350.909H327.591V347.727H337.017ZM329.748 363V346.624C329.748 345.517 329.964 344.598 330.395 343.869C330.832 343.14 331.429 342.593 332.184 342.229C332.94 341.864 333.798 341.682 334.76 341.682C335.409 341.682 336.002 341.732 336.539 341.831C337.083 341.93 337.487 342.02 337.752 342.099L336.997 345.281C336.831 345.228 336.626 345.179 336.38 345.132C336.142 345.086 335.896 345.062 335.645 345.062C335.021 345.062 334.587 345.208 334.342 345.5C334.097 345.785 333.974 346.186 333.974 346.703V363H329.748ZM347.817 347.727V350.909H338.391V347.727H347.817ZM340.549 363V346.624C340.549 345.517 340.764 344.598 341.195 343.869C341.633 343.14 342.229 342.593 342.985 342.229C343.741 341.864 344.599 341.682 345.56 341.682C346.21 341.682 346.803 341.732 347.34 341.831C347.884 341.93 348.288 342.02 348.553 342.099L347.798 345.281C347.632 345.228 347.426 345.179 347.181 345.132C346.942 345.086 346.697 345.062 346.445 345.062C345.822 345.062 345.388 345.208 345.143 345.5C344.897 345.785 344.775 346.186 344.775 346.703V363H340.549ZM356.819 363.298C355.248 363.298 353.895 362.98 352.762 362.344C351.635 361.701 350.766 360.793 350.157 359.619C349.547 358.439 349.242 357.044 349.242 355.433C349.242 353.862 349.547 352.483 350.157 351.297C350.766 350.11 351.625 349.186 352.732 348.523C353.846 347.86 355.151 347.528 356.65 347.528C357.657 347.528 358.595 347.691 359.463 348.016C360.338 348.334 361.101 348.814 361.75 349.457C362.407 350.1 362.917 350.909 363.282 351.884C363.646 352.851 363.828 353.985 363.828 355.284V356.447H350.932V353.822H359.841C359.841 353.213 359.709 352.672 359.444 352.202C359.178 351.731 358.81 351.363 358.34 351.098C357.876 350.826 357.336 350.69 356.719 350.69C356.076 350.69 355.506 350.839 355.009 351.138C354.518 351.429 354.134 351.824 353.855 352.321C353.577 352.812 353.435 353.358 353.428 353.962V356.457C353.428 357.213 353.567 357.866 353.846 358.416C354.131 358.966 354.532 359.391 355.049 359.689C355.566 359.987 356.179 360.136 356.888 360.136C357.359 360.136 357.79 360.07 358.181 359.938C358.572 359.805 358.907 359.606 359.185 359.341C359.463 359.076 359.676 358.751 359.821 358.366L363.739 358.625C363.54 359.566 363.132 360.388 362.516 361.091C361.906 361.787 361.117 362.33 360.15 362.722C359.188 363.106 358.078 363.298 356.819 363.298ZM373.493 363.298C371.929 363.298 370.583 362.967 369.456 362.304C368.336 361.634 367.474 360.706 366.871 359.52C366.275 358.333 365.976 356.968 365.976 355.423C365.976 353.859 366.278 352.487 366.881 351.307C367.491 350.12 368.356 349.196 369.476 348.533C370.596 347.863 371.929 347.528 373.473 347.528C374.806 347.528 375.972 347.77 376.973 348.254C377.974 348.738 378.766 349.418 379.35 350.293C379.933 351.168 380.255 352.195 380.314 353.375H376.317C376.204 352.613 375.906 352 375.422 351.536C374.945 351.065 374.319 350.83 373.543 350.83C372.887 350.83 372.313 351.009 371.823 351.366C371.339 351.718 370.961 352.232 370.689 352.908C370.417 353.584 370.282 354.402 370.282 355.364C370.282 356.338 370.414 357.167 370.679 357.849C370.951 358.532 371.332 359.053 371.823 359.411C372.313 359.768 372.887 359.947 373.543 359.947C374.027 359.947 374.461 359.848 374.846 359.649C375.237 359.45 375.558 359.162 375.81 358.784C376.069 358.4 376.238 357.939 376.317 357.402H380.314C380.248 358.569 379.93 359.596 379.36 360.484C378.796 361.366 378.017 362.055 377.023 362.553C376.029 363.05 374.852 363.298 373.493 363.298ZM391.15 347.727V350.909H381.952V347.727H391.15ZM384.04 344.068H388.276V358.307C388.276 358.698 388.336 359.003 388.455 359.222C388.575 359.434 388.74 359.583 388.952 359.669C389.171 359.755 389.423 359.798 389.708 359.798C389.907 359.798 390.106 359.782 390.305 359.749C390.504 359.709 390.656 359.679 390.762 359.659L391.428 362.811C391.216 362.877 390.918 362.954 390.533 363.04C390.149 363.133 389.682 363.189 389.131 363.209C388.111 363.249 387.216 363.113 386.447 362.801C385.684 362.49 385.091 362.006 384.667 361.349C384.243 360.693 384.034 359.865 384.04 358.864V344.068ZM393.909 363V347.727H398.145V363H393.909ZM396.037 345.759C395.407 345.759 394.867 345.55 394.416 345.132C393.972 344.708 393.75 344.201 393.75 343.611C393.75 343.027 393.972 342.527 394.416 342.109C394.867 341.685 395.407 341.473 396.037 341.473C396.667 341.473 397.204 341.685 397.648 342.109C398.098 342.527 398.324 343.027 398.324 343.611C398.324 344.201 398.098 344.708 397.648 345.132C397.204 345.55 396.667 345.759 396.037 345.759ZM415.777 347.727L410.437 363H405.664L400.325 347.727H404.799L407.971 358.655H408.13L411.292 347.727H415.777ZM424.412 363.298C422.841 363.298 421.489 362.98 420.355 362.344C419.229 361.701 418.36 360.793 417.75 359.619C417.141 358.439 416.836 357.044 416.836 355.433C416.836 353.862 417.141 352.483 417.75 351.297C418.36 350.11 419.219 349.186 420.326 348.523C421.439 347.86 422.745 347.528 424.243 347.528C425.251 347.528 426.189 347.691 427.057 348.016C427.932 348.334 428.694 348.814 429.344 349.457C430 350.1 430.511 350.909 430.875 351.884C431.24 352.851 431.422 353.985 431.422 355.284V356.447H418.526V353.822H427.435C427.435 353.213 427.302 352.672 427.037 352.202C426.772 351.731 426.404 351.363 425.934 351.098C425.47 350.826 424.929 350.69 424.313 350.69C423.67 350.69 423.1 350.839 422.603 351.138C422.112 351.429 421.728 351.824 421.449 352.321C421.171 352.812 421.028 353.358 421.022 353.962V356.457C421.022 357.213 421.161 357.866 421.439 358.416C421.724 358.966 422.125 359.391 422.642 359.689C423.159 359.987 423.773 360.136 424.482 360.136C424.953 360.136 425.383 360.07 425.775 359.938C426.166 359.805 426.5 359.606 426.779 359.341C427.057 359.076 427.269 358.751 427.415 358.366L431.333 358.625C431.134 359.566 430.726 360.388 430.11 361.091C429.5 361.787 428.711 362.33 427.743 362.722C426.782 363.106 425.672 363.298 424.412 363.298ZM438.422 342.636V363H434.186V342.636H438.422ZM444.43 368.727C443.893 368.727 443.39 368.684 442.919 368.598C442.455 368.518 442.071 368.416 441.766 368.29L442.72 365.128C443.217 365.28 443.665 365.363 444.062 365.376C444.467 365.39 444.815 365.297 445.107 365.098C445.405 364.899 445.647 364.561 445.832 364.084L446.081 363.438L440.602 347.727H445.057L448.219 358.943H448.378L451.57 347.727H456.054L450.118 364.651C449.833 365.473 449.445 366.188 448.955 366.798C448.471 367.415 447.857 367.889 447.115 368.22C446.373 368.558 445.478 368.727 444.43 368.727ZM471.603 363.298C470.038 363.298 468.693 362.967 467.566 362.304C466.445 361.634 465.584 360.706 464.98 359.52C464.384 358.333 464.086 356.968 464.086 355.423C464.086 353.859 464.387 352.487 464.99 351.307C465.6 350.12 466.465 349.196 467.586 348.533C468.706 347.863 470.038 347.528 471.583 347.528C472.915 347.528 474.082 347.77 475.083 348.254C476.084 348.738 476.876 349.418 477.459 350.293C478.042 351.168 478.364 352.195 478.424 353.375H474.426C474.314 352.613 474.016 352 473.532 351.536C473.054 351.065 472.428 350.83 471.652 350.83C470.996 350.83 470.423 351.009 469.932 351.366C469.448 351.718 469.07 352.232 468.799 352.908C468.527 353.584 468.391 354.402 468.391 355.364C468.391 356.338 468.524 357.167 468.789 357.849C469.06 358.532 469.442 359.053 469.932 359.411C470.423 359.768 470.996 359.947 471.652 359.947C472.136 359.947 472.57 359.848 472.955 359.649C473.346 359.45 473.667 359.162 473.919 358.784C474.178 358.4 474.347 357.939 474.426 357.402H478.424C478.357 358.569 478.039 359.596 477.469 360.484C476.906 361.366 476.127 362.055 475.132 362.553C474.138 363.05 472.962 363.298 471.603 363.298ZM488.036 363.298C486.492 363.298 485.156 362.97 484.029 362.314C482.909 361.651 482.044 360.73 481.434 359.55C480.824 358.363 480.519 356.988 480.519 355.423C480.519 353.846 480.824 352.467 481.434 351.287C482.044 350.1 482.909 349.179 484.029 348.523C485.156 347.86 486.492 347.528 488.036 347.528C489.581 347.528 490.913 347.86 492.033 348.523C493.16 349.179 494.029 350.1 494.638 351.287C495.248 352.467 495.553 353.846 495.553 355.423C495.553 356.988 495.248 358.363 494.638 359.55C494.029 360.73 493.16 361.651 492.033 362.314C490.913 362.97 489.581 363.298 488.036 363.298ZM488.056 360.017C488.759 360.017 489.345 359.818 489.816 359.42C490.287 359.016 490.641 358.466 490.88 357.77C491.125 357.074 491.248 356.282 491.248 355.393C491.248 354.505 491.125 353.713 490.88 353.017C490.641 352.321 490.287 351.771 489.816 351.366C489.345 350.962 488.759 350.76 488.056 350.76C487.347 350.76 486.75 350.962 486.266 351.366C485.789 351.771 485.428 352.321 485.183 353.017C484.944 353.713 484.825 354.505 484.825 355.393C484.825 356.282 484.944 357.074 485.183 357.77C485.428 358.466 485.789 359.016 486.266 359.42C486.75 359.818 487.347 360.017 488.056 360.017ZM498.308 363V347.727H502.344V350.422H502.523C502.842 349.527 503.372 348.821 504.114 348.304C504.857 347.787 505.745 347.528 506.779 347.528C507.826 347.528 508.718 347.79 509.454 348.314C510.19 348.831 510.68 349.534 510.925 350.422H511.085C511.396 349.547 511.96 348.848 512.775 348.324C513.597 347.794 514.568 347.528 515.688 347.528C517.113 347.528 518.27 347.982 519.158 348.891C520.053 349.792 520.501 351.071 520.501 352.729V363H516.275V353.564C516.275 352.715 516.049 352.079 515.599 351.655C515.148 351.231 514.585 351.018 513.908 351.018C513.139 351.018 512.54 351.264 512.109 351.754C511.678 352.238 511.462 352.878 511.462 353.673V363H507.356V353.474C507.356 352.725 507.14 352.129 506.71 351.685C506.285 351.241 505.725 351.018 505.029 351.018C504.558 351.018 504.134 351.138 503.756 351.376C503.385 351.608 503.09 351.937 502.871 352.361C502.653 352.778 502.543 353.269 502.543 353.832V363H498.308ZM523.847 363V347.727H527.884V350.422H528.062C528.381 349.527 528.911 348.821 529.653 348.304C530.396 347.787 531.284 347.528 532.318 347.528C533.366 347.528 534.257 347.79 534.993 348.314C535.729 348.831 536.219 349.534 536.464 350.422H536.624C536.935 349.547 537.499 348.848 538.314 348.324C539.136 347.794 540.107 347.528 541.227 347.528C542.652 347.528 543.809 347.982 544.697 348.891C545.592 349.792 546.04 351.071 546.04 352.729V363H541.814V353.564C541.814 352.715 541.589 352.079 541.138 351.655C540.687 351.231 540.124 351.018 539.447 351.018C538.679 351.018 538.079 351.264 537.648 351.754C537.217 352.238 537.001 352.878 537.001 353.673V363H532.895V353.474C532.895 352.725 532.679 352.129 532.249 351.685C531.824 351.241 531.264 351.018 530.568 351.018C530.098 351.018 529.673 351.138 529.295 351.376C528.924 351.608 528.629 351.937 528.411 352.361C528.192 352.778 528.082 353.269 528.082 353.832V363H523.847ZM559.18 356.497V347.727H563.415V363H559.349V360.226H559.19C558.845 361.121 558.272 361.84 557.469 362.384C556.674 362.927 555.703 363.199 554.556 363.199C553.535 363.199 552.637 362.967 551.862 362.503C551.086 362.039 550.479 361.379 550.042 360.524C549.611 359.669 549.392 358.645 549.386 357.452V347.727H553.621V356.696C553.628 357.598 553.87 358.31 554.347 358.834C554.825 359.357 555.464 359.619 556.266 359.619C556.777 359.619 557.254 359.503 557.698 359.271C558.142 359.033 558.5 358.681 558.772 358.217C559.05 357.753 559.186 357.18 559.18 356.497ZM571.039 354.17V363H566.804V347.727H570.841V350.422H571.02C571.358 349.534 571.924 348.831 572.72 348.314C573.515 347.79 574.48 347.528 575.613 347.528C576.674 347.528 577.599 347.76 578.387 348.224C579.176 348.688 579.789 349.351 580.227 350.213C580.664 351.068 580.883 352.089 580.883 353.276V363H576.647V354.031C576.654 353.097 576.415 352.367 575.931 351.844C575.448 351.313 574.781 351.048 573.933 351.048C573.363 351.048 572.859 351.171 572.422 351.416C571.991 351.661 571.653 352.019 571.407 352.49C571.169 352.954 571.046 353.514 571.039 354.17ZM584.222 363V347.727H588.457V363H584.222ZM586.349 345.759C585.72 345.759 585.179 345.55 584.729 345.132C584.285 344.708 584.062 344.201 584.062 343.611C584.062 343.027 584.285 342.527 584.729 342.109C585.179 341.685 585.72 341.473 586.349 341.473C586.979 341.473 587.516 341.685 587.96 342.109C588.411 342.527 588.636 343.027 588.636 343.611C588.636 344.201 588.411 344.708 587.96 345.132C587.516 345.55 586.979 345.759 586.349 345.759ZM598.751 363.298C597.187 363.298 595.841 362.967 594.714 362.304C593.594 361.634 592.732 360.706 592.129 359.52C591.532 358.333 591.234 356.968 591.234 355.423C591.234 353.859 591.536 352.487 592.139 351.307C592.749 350.12 593.614 349.196 594.734 348.533C595.854 347.863 597.187 347.528 598.731 347.528C600.064 347.528 601.23 347.77 602.231 348.254C603.232 348.738 604.024 349.418 604.608 350.293C605.191 351.168 605.512 352.195 605.572 353.375H601.575C601.462 352.613 601.164 352 600.68 351.536C600.203 351.065 599.576 350.83 598.801 350.83C598.145 350.83 597.571 351.009 597.081 351.366C596.597 351.718 596.219 352.232 595.947 352.908C595.675 353.584 595.539 354.402 595.539 355.364C595.539 356.338 595.672 357.167 595.937 357.849C596.209 358.532 596.59 359.053 597.081 359.411C597.571 359.768 598.145 359.947 598.801 359.947C599.285 359.947 599.719 359.848 600.103 359.649C600.494 359.45 600.816 359.162 601.068 358.784C601.326 358.4 601.495 357.939 601.575 357.402H605.572C605.506 358.569 605.188 359.596 604.618 360.484C604.054 361.366 603.275 362.055 602.281 362.553C601.287 363.05 600.11 363.298 598.751 363.298ZM612.639 363.288C611.665 363.288 610.796 363.119 610.034 362.781C609.272 362.437 608.669 361.929 608.224 361.26C607.787 360.584 607.568 359.742 607.568 358.734C607.568 357.886 607.724 357.173 608.036 356.597C608.347 356.02 608.771 355.556 609.308 355.205C609.845 354.853 610.455 354.588 611.138 354.409C611.827 354.23 612.55 354.104 613.305 354.031C614.194 353.938 614.91 353.852 615.453 353.773C615.997 353.687 616.391 353.561 616.636 353.395C616.882 353.229 617.004 352.984 617.004 352.659V352.599C617.004 351.97 616.805 351.482 616.408 351.138C616.017 350.793 615.46 350.621 614.737 350.621C613.975 350.621 613.368 350.79 612.918 351.128C612.467 351.459 612.169 351.877 612.023 352.381L608.105 352.062C608.304 351.134 608.695 350.332 609.278 349.656C609.862 348.973 610.614 348.45 611.536 348.085C612.464 347.714 613.537 347.528 614.757 347.528C615.606 347.528 616.418 347.628 617.193 347.827C617.975 348.026 618.668 348.334 619.271 348.751C619.881 349.169 620.362 349.706 620.713 350.362C621.064 351.012 621.24 351.791 621.24 352.699V363H617.223V360.882H617.104C616.858 361.359 616.53 361.78 616.119 362.145C615.708 362.503 615.214 362.785 614.638 362.99C614.061 363.189 613.395 363.288 612.639 363.288ZM613.852 360.365C614.475 360.365 615.026 360.242 615.503 359.997C615.98 359.745 616.355 359.407 616.626 358.983C616.898 358.559 617.034 358.078 617.034 357.541V355.92C616.902 356.007 616.719 356.086 616.487 356.159C616.262 356.225 616.007 356.288 615.722 356.348C615.437 356.401 615.152 356.451 614.866 356.497C614.581 356.537 614.323 356.573 614.091 356.607C613.594 356.679 613.16 356.795 612.788 356.955C612.417 357.114 612.129 357.329 611.923 357.601C611.718 357.866 611.615 358.197 611.615 358.595C611.615 359.172 611.824 359.613 612.241 359.918C612.666 360.216 613.203 360.365 613.852 360.365ZM632.65 347.727V350.909H623.452V347.727H632.65ZM625.54 344.068H629.776V358.307C629.776 358.698 629.836 359.003 629.955 359.222C630.075 359.434 630.24 359.583 630.452 359.669C630.671 359.755 630.923 359.798 631.208 359.798C631.407 359.798 631.606 359.782 631.805 359.749C632.004 359.709 632.156 359.679 632.262 359.659L632.928 362.811C632.716 362.877 632.418 362.954 632.033 363.04C631.649 363.133 631.182 363.189 630.631 363.209C629.611 363.249 628.716 363.113 627.947 362.801C627.184 362.49 626.591 362.006 626.167 361.349C625.743 360.693 625.534 359.865 625.54 358.864V344.068ZM642.205 363.298C640.634 363.298 639.282 362.98 638.148 362.344C637.022 361.701 636.153 360.793 635.543 359.619C634.933 358.439 634.629 357.044 634.629 355.433C634.629 353.862 634.933 352.483 635.543 351.297C636.153 350.11 637.012 349.186 638.119 348.523C639.232 347.86 640.538 347.528 642.036 347.528C643.044 347.528 643.982 347.691 644.85 348.016C645.725 348.334 646.487 348.814 647.137 349.457C647.793 350.1 648.304 350.909 648.668 351.884C649.033 352.851 649.215 353.985 649.215 355.284V356.447H636.319V353.822H645.228C645.228 353.213 645.095 352.672 644.83 352.202C644.565 351.731 644.197 351.363 643.727 351.098C643.263 350.826 642.722 350.69 642.106 350.69C641.463 350.69 640.893 350.839 640.396 351.138C639.905 351.429 639.521 351.824 639.242 352.321C638.964 352.812 638.821 353.358 638.815 353.962V356.457C638.815 357.213 638.954 357.866 639.232 358.416C639.517 358.966 639.918 359.391 640.435 359.689C640.952 359.987 641.566 360.136 642.275 360.136C642.746 360.136 643.176 360.07 643.567 359.938C643.959 359.805 644.293 359.606 644.572 359.341C644.85 359.076 645.062 358.751 645.208 358.366L649.126 358.625C648.927 359.566 648.519 360.388 647.903 361.091C647.293 361.787 646.504 362.33 645.536 362.722C644.575 363.106 643.465 363.298 642.205 363.298ZM130.305 410.727C129.768 410.727 129.265 410.684 128.794 410.598C128.33 410.518 127.946 410.416 127.641 410.29L128.595 407.128C129.092 407.28 129.54 407.363 129.938 407.376C130.342 407.39 130.69 407.297 130.982 407.098C131.28 406.899 131.522 406.561 131.707 406.084L131.956 405.438L126.477 389.727H130.932L134.094 400.943H134.253L137.445 389.727H141.929L135.993 406.651C135.708 407.473 135.32 408.188 134.83 408.798C134.346 409.415 133.732 409.889 132.99 410.22C132.248 410.558 131.353 410.727 130.305 410.727ZM150.505 405.298C148.96 405.298 147.625 404.97 146.498 404.314C145.378 403.651 144.513 402.73 143.903 401.55C143.293 400.363 142.988 398.988 142.988 397.423C142.988 395.846 143.293 394.467 143.903 393.287C144.513 392.1 145.378 391.179 146.498 390.523C147.625 389.86 148.96 389.528 150.505 389.528C152.049 389.528 153.382 389.86 154.502 390.523C155.629 391.179 156.497 392.1 157.107 393.287C157.717 394.467 158.022 395.846 158.022 397.423C158.022 398.988 157.717 400.363 157.107 401.55C156.497 402.73 155.629 403.651 154.502 404.314C153.382 404.97 152.049 405.298 150.505 405.298ZM150.525 402.017C151.228 402.017 151.814 401.818 152.285 401.42C152.755 401.016 153.11 400.466 153.349 399.77C153.594 399.074 153.717 398.282 153.717 397.393C153.717 396.505 153.594 395.713 153.349 395.017C153.11 394.321 152.755 393.771 152.285 393.366C151.814 392.962 151.228 392.76 150.525 392.76C149.816 392.76 149.219 392.962 148.735 393.366C148.258 393.771 147.897 394.321 147.651 395.017C147.413 395.713 147.293 396.505 147.293 397.393C147.293 398.282 147.413 399.074 147.651 399.77C147.897 400.466 148.258 401.016 148.735 401.42C149.219 401.818 149.816 402.017 150.525 402.017ZM170.57 398.497V389.727H174.806V405H170.739V402.226H170.58C170.236 403.121 169.662 403.84 168.86 404.384C168.065 404.927 167.094 405.199 165.947 405.199C164.926 405.199 164.028 404.967 163.252 404.503C162.477 404.039 161.87 403.379 161.433 402.524C161.002 401.669 160.783 400.645 160.776 399.452V389.727H165.012V398.696C165.019 399.598 165.261 400.31 165.738 400.834C166.215 401.357 166.855 401.619 167.657 401.619C168.167 401.619 168.645 401.503 169.089 401.271C169.533 401.033 169.891 400.681 170.163 400.217C170.441 399.753 170.577 399.18 170.57 398.497ZM178.194 405V389.727H182.301V392.392H182.46C182.738 391.444 183.206 390.728 183.862 390.244C184.518 389.754 185.274 389.509 186.129 389.509C186.341 389.509 186.57 389.522 186.815 389.548C187.06 389.575 187.276 389.611 187.461 389.658V393.416C187.262 393.357 186.987 393.304 186.636 393.257C186.285 393.211 185.963 393.188 185.672 393.188C185.048 393.188 184.492 393.323 184.001 393.595C183.517 393.86 183.133 394.232 182.848 394.709C182.569 395.186 182.43 395.736 182.43 396.359V405H178.194ZM196.132 410.727V389.727H200.308V392.293H200.497C200.682 391.882 200.951 391.464 201.302 391.04C201.66 390.609 202.124 390.251 202.694 389.966C203.271 389.674 203.987 389.528 204.842 389.528C205.956 389.528 206.983 389.82 207.924 390.403C208.866 390.98 209.618 391.852 210.181 393.018C210.745 394.179 211.027 395.634 211.027 397.384C211.027 399.087 210.752 400.526 210.201 401.699C209.658 402.866 208.915 403.75 207.974 404.354C207.039 404.95 205.992 405.249 204.832 405.249C204.01 405.249 203.311 405.113 202.734 404.841C202.164 404.569 201.697 404.228 201.332 403.817C200.967 403.399 200.689 402.978 200.497 402.554H200.368V410.727H196.132ZM200.278 397.364C200.278 398.272 200.404 399.064 200.656 399.74C200.908 400.416 201.272 400.943 201.75 401.321C202.227 401.692 202.807 401.878 203.49 401.878C204.179 401.878 204.762 401.689 205.24 401.311C205.717 400.927 206.078 400.396 206.324 399.72C206.575 399.037 206.701 398.252 206.701 397.364C206.701 396.482 206.579 395.706 206.333 395.037C206.088 394.367 205.727 393.844 205.25 393.466C204.772 393.088 204.186 392.899 203.49 392.899C202.8 392.899 202.217 393.081 201.74 393.446C201.269 393.811 200.908 394.328 200.656 394.997C200.404 395.667 200.278 396.455 200.278 397.364ZM213.85 405V389.727H217.957V392.392H218.116C218.395 391.444 218.862 390.728 219.518 390.244C220.174 389.754 220.93 389.509 221.785 389.509C221.997 389.509 222.226 389.522 222.471 389.548C222.717 389.575 222.932 389.611 223.118 389.658V393.416C222.919 393.357 222.644 393.304 222.292 393.257C221.941 393.211 221.619 393.188 221.328 393.188C220.705 393.188 220.148 393.323 219.657 393.595C219.173 393.86 218.789 394.232 218.504 394.709C218.225 395.186 218.086 395.736 218.086 396.359V405H213.85ZM231.497 405.298C229.953 405.298 228.617 404.97 227.49 404.314C226.37 403.651 225.505 402.73 224.895 401.55C224.285 400.363 223.98 398.988 223.98 397.423C223.98 395.846 224.285 394.467 224.895 393.287C225.505 392.1 226.37 391.179 227.49 390.523C228.617 389.86 229.953 389.528 231.497 389.528C233.042 389.528 234.374 389.86 235.494 390.523C236.621 391.179 237.49 392.1 238.099 393.287C238.709 394.467 239.014 395.846 239.014 397.423C239.014 398.988 238.709 400.363 238.099 401.55C237.49 402.73 236.621 403.651 235.494 404.314C234.374 404.97 233.042 405.298 231.497 405.298ZM231.517 402.017C232.22 402.017 232.806 401.818 233.277 401.42C233.748 401.016 234.102 400.466 234.341 399.77C234.586 399.074 234.709 398.282 234.709 397.393C234.709 396.505 234.586 395.713 234.341 395.017C234.102 394.321 233.748 393.771 233.277 393.366C232.806 392.962 232.22 392.76 231.517 392.76C230.808 392.76 230.211 392.962 229.727 393.366C229.25 393.771 228.889 394.321 228.643 395.017C228.405 395.713 228.286 396.505 228.286 397.393C228.286 398.282 228.405 399.074 228.643 399.77C228.889 400.466 229.25 401.016 229.727 401.42C230.211 401.818 230.808 402.017 231.517 402.017ZM241.768 389.727H246.004V405.756C246.004 406.936 245.772 407.89 245.308 408.619C244.844 409.348 244.178 409.882 243.31 410.22C242.448 410.558 241.417 410.727 240.217 410.727C240.071 410.727 239.932 410.724 239.8 410.717C239.661 410.717 239.515 410.714 239.362 410.707V407.396C239.475 407.403 239.574 407.406 239.661 407.406C239.74 407.413 239.826 407.416 239.919 407.416C240.602 407.416 241.079 407.27 241.351 406.979C241.629 406.694 241.768 406.263 241.768 405.686V389.727ZM243.876 387.759C243.253 387.759 242.716 387.55 242.266 387.132C241.815 386.708 241.589 386.201 241.589 385.611C241.589 385.027 241.815 384.527 242.266 384.109C242.716 383.685 243.253 383.473 243.876 383.473C244.513 383.473 245.053 383.685 245.497 384.109C245.948 384.527 246.173 385.027 246.173 385.611C246.173 386.201 245.948 386.708 245.497 387.132C245.053 387.55 244.513 387.759 243.876 387.759ZM256.358 405.298C254.787 405.298 253.434 404.98 252.301 404.344C251.174 403.701 250.306 402.793 249.696 401.619C249.086 400.439 248.781 399.044 248.781 397.433C248.781 395.862 249.086 394.483 249.696 393.297C250.306 392.11 251.164 391.186 252.271 390.523C253.385 389.86 254.69 389.528 256.189 389.528C257.196 389.528 258.134 389.691 259.002 390.016C259.877 390.334 260.64 390.814 261.289 391.457C261.946 392.1 262.456 392.909 262.821 393.884C263.185 394.851 263.368 395.985 263.368 397.284V398.447H250.471V395.822H259.38C259.38 395.213 259.248 394.672 258.983 394.202C258.717 393.731 258.35 393.363 257.879 393.098C257.415 392.826 256.875 392.69 256.258 392.69C255.615 392.69 255.045 392.839 254.548 393.138C254.057 393.429 253.673 393.824 253.395 394.321C253.116 394.812 252.974 395.358 252.967 395.962V398.457C252.967 399.213 253.106 399.866 253.385 400.416C253.67 400.966 254.071 401.391 254.588 401.689C255.105 401.987 255.718 402.136 256.427 402.136C256.898 402.136 257.329 402.07 257.72 401.938C258.111 401.805 258.446 401.606 258.724 401.341C259.002 401.076 259.215 400.751 259.36 400.366L263.278 400.625C263.079 401.566 262.672 402.388 262.055 403.091C261.445 403.787 260.656 404.33 259.689 404.722C258.727 405.106 257.617 405.298 256.358 405.298ZM273.032 405.298C271.468 405.298 270.122 404.967 268.995 404.304C267.875 403.634 267.013 402.706 266.41 401.52C265.814 400.333 265.515 398.968 265.515 397.423C265.515 395.859 265.817 394.487 266.42 393.307C267.03 392.12 267.895 391.196 269.015 390.533C270.136 389.863 271.468 389.528 273.012 389.528C274.345 389.528 275.511 389.77 276.512 390.254C277.513 390.738 278.306 391.418 278.889 392.293C279.472 393.168 279.794 394.195 279.853 395.375H275.856C275.743 394.613 275.445 394 274.961 393.536C274.484 393.065 273.858 392.83 273.082 392.83C272.426 392.83 271.852 393.009 271.362 393.366C270.878 393.718 270.5 394.232 270.228 394.908C269.957 395.584 269.821 396.402 269.821 397.364C269.821 398.338 269.953 399.167 270.218 399.849C270.49 400.532 270.871 401.053 271.362 401.411C271.852 401.768 272.426 401.947 273.082 401.947C273.566 401.947 274 401.848 274.385 401.649C274.776 401.45 275.097 401.162 275.349 400.784C275.608 400.4 275.777 399.939 275.856 399.402H279.853C279.787 400.569 279.469 401.596 278.899 402.484C278.335 403.366 277.556 404.055 276.562 404.553C275.568 405.05 274.391 405.298 273.032 405.298ZM290.689 389.727V392.909H281.491V389.727H290.689ZM283.58 386.068H287.815V400.307C287.815 400.698 287.875 401.003 287.994 401.222C288.114 401.434 288.279 401.583 288.491 401.669C288.71 401.755 288.962 401.798 289.247 401.798C289.446 401.798 289.645 401.782 289.844 401.749C290.043 401.709 290.195 401.679 290.301 401.659L290.967 404.811C290.755 404.877 290.457 404.954 290.072 405.04C289.688 405.133 289.221 405.189 288.67 405.209C287.65 405.249 286.755 405.113 285.986 404.801C285.223 404.49 284.63 404.006 284.206 403.349C283.782 402.693 283.573 401.865 283.58 400.864V386.068ZM305.964 394.082L302.086 394.321C302.02 393.99 301.877 393.691 301.659 393.426C301.44 393.154 301.152 392.939 300.794 392.78C300.442 392.614 300.021 392.531 299.531 392.531C298.875 392.531 298.321 392.67 297.87 392.949C297.42 393.221 297.194 393.585 297.194 394.043C297.194 394.407 297.34 394.715 297.632 394.967C297.923 395.219 298.424 395.421 299.133 395.574L301.897 396.131C303.382 396.436 304.489 396.926 305.218 397.602C305.948 398.278 306.312 399.167 306.312 400.267C306.312 401.268 306.017 402.146 305.427 402.902C304.844 403.658 304.042 404.248 303.021 404.672C302.007 405.089 300.837 405.298 299.511 405.298C297.489 405.298 295.878 404.877 294.679 404.036C293.485 403.187 292.786 402.034 292.581 400.575L296.747 400.357C296.873 400.973 297.178 401.444 297.662 401.768C298.145 402.087 298.765 402.246 299.521 402.246C300.263 402.246 300.86 402.103 301.311 401.818C301.768 401.527 302 401.152 302.007 400.695C302 400.31 301.838 399.995 301.52 399.75C301.201 399.498 300.711 399.306 300.048 399.173L297.403 398.646C295.912 398.348 294.801 397.831 294.072 397.095C293.35 396.359 292.988 395.421 292.988 394.281C292.988 393.3 293.253 392.455 293.784 391.746C294.321 391.036 295.073 390.49 296.041 390.105C297.015 389.721 298.155 389.528 299.461 389.528C301.39 389.528 302.908 389.936 304.015 390.751C305.129 391.567 305.779 392.677 305.964 394.082ZM319.815 405.288C318.841 405.288 317.972 405.119 317.21 404.781C316.448 404.437 315.844 403.929 315.4 403.26C314.963 402.584 314.744 401.742 314.744 400.734C314.744 399.886 314.9 399.173 315.211 398.597C315.523 398.02 315.947 397.556 316.484 397.205C317.021 396.853 317.631 396.588 318.314 396.409C319.003 396.23 319.725 396.104 320.481 396.031C321.369 395.938 322.085 395.852 322.629 395.773C323.172 395.687 323.567 395.561 323.812 395.395C324.057 395.229 324.18 394.984 324.18 394.659V394.599C324.18 393.97 323.981 393.482 323.583 393.138C323.192 392.793 322.636 392.621 321.913 392.621C321.151 392.621 320.544 392.79 320.093 393.128C319.643 393.459 319.344 393.877 319.199 394.381L315.281 394.062C315.48 393.134 315.871 392.332 316.454 391.656C317.038 390.973 317.79 390.45 318.711 390.085C319.639 389.714 320.713 389.528 321.933 389.528C322.781 389.528 323.593 389.628 324.369 389.827C325.151 390.026 325.844 390.334 326.447 390.751C327.057 391.169 327.538 391.706 327.889 392.362C328.24 393.012 328.416 393.791 328.416 394.699V405H324.399V402.882H324.279C324.034 403.359 323.706 403.78 323.295 404.145C322.884 404.503 322.39 404.785 321.814 404.99C321.237 405.189 320.571 405.288 319.815 405.288ZM321.028 402.365C321.651 402.365 322.201 402.242 322.679 401.997C323.156 401.745 323.53 401.407 323.802 400.983C324.074 400.559 324.21 400.078 324.21 399.541V397.92C324.077 398.007 323.895 398.086 323.663 398.159C323.438 398.225 323.182 398.288 322.897 398.348C322.612 398.401 322.327 398.451 322.042 398.497C321.757 398.537 321.499 398.573 321.267 398.607C320.77 398.679 320.335 398.795 319.964 398.955C319.593 399.114 319.305 399.329 319.099 399.601C318.894 399.866 318.791 400.197 318.791 400.595C318.791 401.172 319 401.613 319.417 401.918C319.842 402.216 320.378 402.365 321.028 402.365ZM335.938 396.17V405H331.702V389.727H335.739V392.422H335.918C336.256 391.534 336.823 390.831 337.618 390.314C338.414 389.79 339.378 389.528 340.512 389.528C341.572 389.528 342.497 389.76 343.286 390.224C344.075 390.688 344.688 391.351 345.125 392.213C345.563 393.068 345.782 394.089 345.782 395.276V405H341.546V396.031C341.552 395.097 341.314 394.367 340.83 393.844C340.346 393.313 339.68 393.048 338.831 393.048C338.261 393.048 337.757 393.171 337.32 393.416C336.889 393.661 336.551 394.019 336.306 394.49C336.067 394.954 335.944 395.514 335.938 396.17ZM354.748 405.249C353.588 405.249 352.537 404.95 351.596 404.354C350.661 403.75 349.919 402.866 349.369 401.699C348.825 400.526 348.553 399.087 348.553 397.384C348.553 395.634 348.835 394.179 349.398 393.018C349.962 391.852 350.711 390.98 351.646 390.403C352.587 389.82 353.618 389.528 354.738 389.528C355.593 389.528 356.306 389.674 356.876 389.966C357.452 390.251 357.916 390.609 358.268 391.04C358.626 391.464 358.897 391.882 359.083 392.293H359.212V384.636H363.438V405H359.262V402.554H359.083C358.884 402.978 358.603 403.399 358.238 403.817C357.88 404.228 357.413 404.569 356.836 404.841C356.266 405.113 355.57 405.249 354.748 405.249ZM356.09 401.878C356.773 401.878 357.35 401.692 357.82 401.321C358.298 400.943 358.662 400.416 358.914 399.74C359.173 399.064 359.302 398.272 359.302 397.364C359.302 396.455 359.176 395.667 358.924 394.997C358.672 394.328 358.308 393.811 357.83 393.446C357.353 393.081 356.773 392.899 356.09 392.899C355.394 392.899 354.808 393.088 354.33 393.466C353.853 393.844 353.492 394.367 353.246 395.037C353.001 395.706 352.879 396.482 352.879 397.364C352.879 398.252 353.001 399.037 353.246 399.72C353.498 400.396 353.86 400.927 354.33 401.311C354.808 401.689 355.394 401.878 356.09 401.878ZM373.401 405V389.727H377.508V392.392H377.667C377.945 391.444 378.413 390.728 379.069 390.244C379.725 389.754 380.481 389.509 381.336 389.509C381.548 389.509 381.777 389.522 382.022 389.548C382.267 389.575 382.483 389.611 382.668 389.658V393.416C382.469 393.357 382.194 393.304 381.843 393.257C381.492 393.211 381.17 393.188 380.879 393.188C380.255 393.188 379.699 393.323 379.208 393.595C378.724 393.86 378.34 394.232 378.055 394.709C377.776 395.186 377.637 395.736 377.637 396.359V405H373.401ZM391.108 405.298C389.537 405.298 388.184 404.98 387.051 404.344C385.924 403.701 385.056 402.793 384.446 401.619C383.836 400.439 383.531 399.044 383.531 397.433C383.531 395.862 383.836 394.483 384.446 393.297C385.056 392.11 385.914 391.186 387.021 390.523C388.135 389.86 389.44 389.528 390.939 389.528C391.946 389.528 392.884 389.691 393.752 390.016C394.627 390.334 395.39 390.814 396.039 391.457C396.696 392.1 397.206 392.909 397.571 393.884C397.935 394.851 398.118 395.985 398.118 397.284V398.447H385.221V395.822H394.13C394.13 395.213 393.998 394.672 393.733 394.202C393.467 393.731 393.1 393.363 392.629 393.098C392.165 392.826 391.625 392.69 391.008 392.69C390.365 392.69 389.795 392.839 389.298 393.138C388.807 393.429 388.423 393.824 388.145 394.321C387.866 394.812 387.724 395.358 387.717 395.962V398.457C387.717 399.213 387.856 399.866 388.135 400.416C388.42 400.966 388.821 401.391 389.338 401.689C389.855 401.987 390.468 402.136 391.177 402.136C391.648 402.136 392.079 402.07 392.47 401.938C392.861 401.805 393.196 401.606 393.474 401.341C393.752 401.076 393.965 400.751 394.11 400.366L398.028 400.625C397.829 401.566 397.422 402.388 396.805 403.091C396.195 403.787 395.406 404.33 394.439 404.722C393.477 405.106 392.367 405.298 391.108 405.298ZM413.589 394.082L409.711 394.321C409.645 393.99 409.502 393.691 409.284 393.426C409.065 393.154 408.777 392.939 408.419 392.78C408.067 392.614 407.646 392.531 407.156 392.531C406.5 392.531 405.946 392.67 405.495 392.949C405.045 393.221 404.819 393.585 404.819 394.043C404.819 394.407 404.965 394.715 405.257 394.967C405.548 395.219 406.049 395.421 406.758 395.574L409.522 396.131C411.007 396.436 412.114 396.926 412.843 397.602C413.573 398.278 413.937 399.167 413.937 400.267C413.937 401.268 413.642 402.146 413.052 402.902C412.469 403.658 411.667 404.248 410.646 404.672C409.632 405.089 408.462 405.298 407.136 405.298C405.114 405.298 403.503 404.877 402.304 404.036C401.11 403.187 400.411 402.034 400.206 400.575L404.372 400.357C404.498 400.973 404.803 401.444 405.287 401.768C405.77 402.087 406.39 402.246 407.146 402.246C407.888 402.246 408.485 402.103 408.936 401.818C409.393 401.527 409.625 401.152 409.632 400.695C409.625 400.31 409.463 399.995 409.145 399.75C408.826 399.498 408.336 399.306 407.673 399.173L405.028 398.646C403.537 398.348 402.426 397.831 401.697 397.095C400.975 396.359 400.613 395.421 400.613 394.281C400.613 393.3 400.878 392.455 401.409 391.746C401.946 391.036 402.698 390.49 403.666 390.105C404.64 389.721 405.78 389.528 407.086 389.528C409.015 389.528 410.533 389.936 411.64 390.751C412.754 391.567 413.404 392.677 413.589 394.082ZM423.565 405.298C421.994 405.298 420.641 404.98 419.508 404.344C418.381 403.701 417.513 402.793 416.903 401.619C416.293 400.439 415.988 399.044 415.988 397.433C415.988 395.862 416.293 394.483 416.903 393.297C417.513 392.11 418.371 391.186 419.478 390.523C420.592 389.86 421.897 389.528 423.396 389.528C424.403 389.528 425.341 389.691 426.21 390.016C427.085 390.334 427.847 390.814 428.496 391.457C429.153 392.1 429.663 392.909 430.028 393.884C430.392 394.851 430.575 395.985 430.575 397.284V398.447H417.678V395.822H426.587C426.587 395.213 426.455 394.672 426.19 394.202C425.924 393.731 425.557 393.363 425.086 393.098C424.622 392.826 424.082 392.69 423.465 392.69C422.822 392.69 422.252 392.839 421.755 393.138C421.264 393.429 420.88 393.824 420.602 394.321C420.323 394.812 420.181 395.358 420.174 395.962V398.457C420.174 399.213 420.313 399.866 420.592 400.416C420.877 400.966 421.278 401.391 421.795 401.689C422.312 401.987 422.925 402.136 423.634 402.136C424.105 402.136 424.536 402.07 424.927 401.938C425.318 401.805 425.653 401.606 425.931 401.341C426.21 401.076 426.422 400.751 426.567 400.366L430.485 400.625C430.286 401.566 429.879 402.388 429.262 403.091C428.652 403.787 427.863 404.33 426.896 404.722C425.934 405.106 424.824 405.298 423.565 405.298ZM437.694 405.288C436.719 405.288 435.851 405.119 435.089 404.781C434.326 404.437 433.723 403.929 433.279 403.26C432.842 402.584 432.623 401.742 432.623 400.734C432.623 399.886 432.779 399.173 433.09 398.597C433.402 398.02 433.826 397.556 434.363 397.205C434.9 396.853 435.51 396.588 436.192 396.409C436.882 396.23 437.604 396.104 438.36 396.031C439.248 395.938 439.964 395.852 440.508 395.773C441.051 395.687 441.446 395.561 441.691 395.395C441.936 395.229 442.059 394.984 442.059 394.659V394.599C442.059 393.97 441.86 393.482 441.462 393.138C441.071 392.793 440.514 392.621 439.792 392.621C439.03 392.621 438.423 392.79 437.972 393.128C437.522 393.459 437.223 393.877 437.077 394.381L433.16 394.062C433.359 393.134 433.75 392.332 434.333 391.656C434.916 390.973 435.669 390.45 436.59 390.085C437.518 389.714 438.592 389.528 439.812 389.528C440.66 389.528 441.472 389.628 442.248 389.827C443.03 390.026 443.723 390.334 444.326 390.751C444.936 391.169 445.416 391.706 445.768 392.362C446.119 393.012 446.295 393.791 446.295 394.699V405H442.278V402.882H442.158C441.913 403.359 441.585 403.78 441.174 404.145C440.763 404.503 440.269 404.785 439.692 404.99C439.116 405.189 438.45 405.288 437.694 405.288ZM438.907 402.365C439.53 402.365 440.08 402.242 440.558 401.997C441.035 401.745 441.409 401.407 441.681 400.983C441.953 400.559 442.089 400.078 442.089 399.541V397.92C441.956 398.007 441.774 398.086 441.542 398.159C441.317 398.225 441.061 398.288 440.776 398.348C440.491 398.401 440.206 398.451 439.921 398.497C439.636 398.537 439.378 398.573 439.146 398.607C438.648 398.679 438.214 398.795 437.843 398.955C437.472 399.114 437.183 399.329 436.978 399.601C436.772 399.866 436.67 400.197 436.67 400.595C436.67 401.172 436.879 401.613 437.296 401.918C437.72 402.216 438.257 402.365 438.907 402.365ZM449.581 405V389.727H453.688V392.392H453.847C454.125 391.444 454.592 390.728 455.249 390.244C455.905 389.754 456.661 389.509 457.516 389.509C457.728 389.509 457.956 389.522 458.202 389.548C458.447 389.575 458.662 389.611 458.848 389.658V393.416C458.649 393.357 458.374 393.304 458.023 393.257C457.671 393.211 457.35 393.188 457.058 393.188C456.435 393.188 455.878 393.323 455.388 393.595C454.904 393.86 454.519 394.232 454.234 394.709C453.956 395.186 453.817 395.736 453.817 396.359V405H449.581ZM467.228 405.298C465.663 405.298 464.318 404.967 463.191 404.304C462.07 403.634 461.209 402.706 460.605 401.52C460.009 400.333 459.711 398.968 459.711 397.423C459.711 395.859 460.012 394.487 460.615 393.307C461.225 392.12 462.09 391.196 463.211 390.533C464.331 389.863 465.663 389.528 467.208 389.528C468.54 389.528 469.707 389.77 470.708 390.254C471.709 390.738 472.501 391.418 473.084 392.293C473.667 393.168 473.989 394.195 474.049 395.375H470.051C469.939 394.613 469.641 394 469.157 393.536C468.679 393.065 468.053 392.83 467.277 392.83C466.621 392.83 466.048 393.009 465.557 393.366C465.073 393.718 464.695 394.232 464.424 394.908C464.152 395.584 464.016 396.402 464.016 397.364C464.016 398.338 464.149 399.167 464.414 399.849C464.685 400.532 465.067 401.053 465.557 401.411C466.048 401.768 466.621 401.947 467.277 401.947C467.761 401.947 468.195 401.848 468.58 401.649C468.971 401.45 469.292 401.162 469.544 400.784C469.803 400.4 469.972 399.939 470.051 399.402H474.049C473.982 400.569 473.664 401.596 473.094 402.484C472.531 403.366 471.752 404.055 470.757 404.553C469.763 405.05 468.587 405.298 467.228 405.298ZM480.996 396.17V405H476.761V384.636H480.877V392.422H481.056C481.401 391.52 481.958 390.814 482.727 390.304C483.496 389.787 484.46 389.528 485.62 389.528C486.681 389.528 487.605 389.76 488.394 390.224C489.19 390.682 489.806 391.341 490.244 392.203C490.688 393.058 490.906 394.082 490.9 395.276V405H486.664V396.031C486.671 395.09 486.432 394.357 485.948 393.834C485.471 393.31 484.801 393.048 483.94 393.048C483.363 393.048 482.853 393.171 482.408 393.416C481.971 393.661 481.626 394.019 481.374 394.49C481.129 394.954 481.003 395.514 480.996 396.17ZM496.709 405.259C496.053 405.259 495.489 405.027 495.019 404.562C494.555 404.092 494.323 403.528 494.323 402.872C494.323 402.223 494.555 401.666 495.019 401.202C495.489 400.738 496.053 400.506 496.709 400.506C497.346 400.506 497.902 400.738 498.38 401.202C498.857 401.666 499.096 402.223 499.096 402.872C499.096 403.31 498.983 403.711 498.757 404.075C498.539 404.433 498.25 404.722 497.892 404.94C497.534 405.152 497.14 405.259 496.709 405.259Z" fill="#1A1A1A"/>
</svg>
