<svg width="800" height="600" viewBox="0 0 800 600" fill="none" xmlns="http://www.w3.org/2000/svg">
<rect width="800" height="600" fill="white"/>
<path d="M141.409 230H129.034V195.091H141.511C145.023 195.091 148.045 195.79 150.58 197.188C153.114 198.574 155.063 200.568 156.426 203.17C157.801 205.773 158.489 208.886 158.489 212.511C158.489 216.148 157.801 219.273 156.426 221.886C155.063 224.5 153.102 226.506 150.545 227.903C148 229.301 144.955 230 141.409 230ZM136.415 223.676H141.102C143.284 223.676 145.119 223.29 146.608 222.517C148.108 221.733 149.233 220.523 149.983 218.886C150.744 217.239 151.125 215.114 151.125 212.511C151.125 209.932 150.744 207.824 149.983 206.188C149.233 204.551 148.114 203.347 146.625 202.574C145.136 201.801 143.301 201.415 141.119 201.415H136.415V223.676ZM175.751 230.511C173.058 230.511 170.74 229.966 168.797 228.875C166.865 227.773 165.376 226.216 164.331 224.205C163.286 222.182 162.763 219.79 162.763 217.028C162.763 214.335 163.286 211.972 164.331 209.938C165.376 207.903 166.848 206.318 168.746 205.182C170.655 204.045 172.893 203.477 175.462 203.477C177.189 203.477 178.797 203.756 180.286 204.312C181.786 204.858 183.092 205.682 184.206 206.784C185.331 207.886 186.206 209.273 186.831 210.943C187.456 212.602 187.768 214.545 187.768 216.773V218.767H165.661V214.267H180.933C180.933 213.222 180.706 212.295 180.251 211.489C179.797 210.682 179.166 210.051 178.359 209.597C177.564 209.131 176.638 208.898 175.581 208.898C174.479 208.898 173.501 209.153 172.649 209.665C171.808 210.165 171.149 210.841 170.672 211.693C170.195 212.534 169.95 213.472 169.939 214.506V218.784C169.939 220.08 170.178 221.199 170.655 222.142C171.143 223.085 171.831 223.812 172.717 224.324C173.604 224.835 174.655 225.091 175.871 225.091C176.678 225.091 177.416 224.977 178.087 224.75C178.757 224.523 179.331 224.182 179.808 223.727C180.286 223.273 180.649 222.716 180.899 222.057L187.615 222.5C187.274 224.114 186.575 225.523 185.518 226.727C184.473 227.92 183.121 228.852 181.462 229.523C179.814 230.182 177.911 230.511 175.751 230.511ZM214.291 211.284L207.643 211.693C207.53 211.125 207.286 210.614 206.911 210.159C206.536 209.693 206.041 209.324 205.428 209.051C204.825 208.767 204.104 208.625 203.263 208.625C202.138 208.625 201.189 208.864 200.416 209.341C199.643 209.807 199.257 210.432 199.257 211.216C199.257 211.841 199.507 212.369 200.007 212.801C200.507 213.233 201.365 213.58 202.581 213.841L207.32 214.795C209.865 215.318 211.763 216.159 213.013 217.318C214.263 218.477 214.888 220 214.888 221.886C214.888 223.602 214.382 225.108 213.371 226.403C212.371 227.699 210.996 228.71 209.246 229.438C207.507 230.153 205.501 230.511 203.229 230.511C199.763 230.511 197.001 229.79 194.945 228.347C192.899 226.892 191.7 224.915 191.348 222.415L198.49 222.04C198.706 223.097 199.229 223.903 200.058 224.46C200.888 225.006 201.95 225.278 203.246 225.278C204.518 225.278 205.541 225.034 206.314 224.545C207.098 224.045 207.496 223.403 207.507 222.619C207.496 221.96 207.217 221.42 206.672 221C206.126 220.568 205.286 220.239 204.149 220.011L199.615 219.108C197.058 218.597 195.155 217.71 193.905 216.449C192.666 215.187 192.047 213.58 192.047 211.625C192.047 209.943 192.501 208.494 193.411 207.278C194.331 206.062 195.621 205.125 197.28 204.466C198.95 203.807 200.905 203.477 203.143 203.477C206.45 203.477 209.053 204.176 210.95 205.574C212.859 206.972 213.973 208.875 214.291 211.284ZM219.46 230V203.818H226.722V230H219.46ZM223.108 200.443C222.028 200.443 221.102 200.085 220.33 199.369C219.568 198.642 219.188 197.773 219.188 196.761C219.188 195.761 219.568 194.903 220.33 194.188C221.102 193.46 222.028 193.097 223.108 193.097C224.188 193.097 225.108 193.46 225.869 194.188C226.642 194.903 227.028 195.761 227.028 196.761C227.028 197.773 226.642 198.642 225.869 199.369C225.108 200.085 224.188 200.443 223.108 200.443ZM244.334 240.364C241.982 240.364 239.964 240.04 238.283 239.392C236.612 238.756 235.283 237.886 234.294 236.784C233.305 235.682 232.663 234.443 232.368 233.068L239.084 232.165C239.288 232.688 239.612 233.176 240.055 233.631C240.499 234.085 241.084 234.449 241.811 234.722C242.55 235.006 243.447 235.148 244.504 235.148C246.084 235.148 247.385 234.761 248.408 233.989C249.442 233.227 249.959 231.949 249.959 230.153V225.364H249.652C249.334 226.091 248.857 226.778 248.22 227.426C247.584 228.074 246.766 228.602 245.766 229.011C244.766 229.42 243.572 229.625 242.186 229.625C240.22 229.625 238.43 229.17 236.817 228.261C235.214 227.341 233.936 225.937 232.982 224.051C232.038 222.153 231.567 219.756 231.567 216.858C231.567 213.892 232.05 211.415 233.016 209.426C233.982 207.437 235.266 205.949 236.868 204.96C238.482 203.972 240.249 203.477 242.169 203.477C243.635 203.477 244.862 203.727 245.851 204.227C246.839 204.716 247.635 205.33 248.237 206.068C248.851 206.795 249.322 207.511 249.652 208.216H249.925V203.818H257.135V230.256C257.135 232.483 256.589 234.347 255.499 235.847C254.408 237.347 252.896 238.472 250.964 239.222C249.044 239.983 246.834 240.364 244.334 240.364ZM244.487 224.17C245.658 224.17 246.646 223.881 247.453 223.301C248.271 222.71 248.896 221.869 249.328 220.778C249.771 219.676 249.993 218.358 249.993 216.824C249.993 215.29 249.777 213.96 249.345 212.835C248.913 211.699 248.288 210.818 247.47 210.193C246.652 209.568 245.658 209.256 244.487 209.256C243.294 209.256 242.288 209.58 241.47 210.227C240.652 210.864 240.033 211.75 239.612 212.886C239.192 214.023 238.982 215.335 238.982 216.824C238.982 218.335 239.192 219.642 239.612 220.744C240.044 221.835 240.663 222.682 241.47 223.284C242.288 223.875 243.294 224.17 244.487 224.17ZM270.175 214.864V230H262.913V203.818H269.834V208.438H270.141C270.72 206.915 271.692 205.71 273.055 204.824C274.419 203.926 276.072 203.477 278.016 203.477C279.834 203.477 281.419 203.875 282.771 204.67C284.124 205.466 285.175 206.602 285.925 208.08C286.675 209.545 287.05 211.295 287.05 213.33V230H279.788V214.625C279.8 213.023 279.391 211.773 278.561 210.875C277.732 209.966 276.589 209.511 275.135 209.511C274.158 209.511 273.294 209.722 272.544 210.142C271.805 210.562 271.226 211.176 270.805 211.983C270.396 212.778 270.186 213.739 270.175 214.864ZM317.962 203.818V209.273H301.803V203.818H317.962ZM305.501 230V201.926C305.501 200.028 305.871 198.455 306.609 197.205C307.359 195.955 308.382 195.017 309.678 194.392C310.973 193.767 312.445 193.455 314.092 193.455C315.206 193.455 316.223 193.54 317.143 193.71C318.075 193.881 318.768 194.034 319.223 194.17L317.928 199.625C317.643 199.534 317.291 199.449 316.871 199.369C316.462 199.29 316.041 199.25 315.609 199.25C314.541 199.25 313.797 199.5 313.376 200C312.956 200.489 312.746 201.176 312.746 202.062V230H305.501ZM333.29 230.511C330.642 230.511 328.352 229.949 326.42 228.824C324.5 227.687 323.017 226.108 321.972 224.085C320.926 222.051 320.403 219.693 320.403 217.011C320.403 214.307 320.926 211.943 321.972 209.92C323.017 207.886 324.5 206.307 326.42 205.182C328.352 204.045 330.642 203.477 333.29 203.477C335.938 203.477 338.222 204.045 340.142 205.182C342.074 206.307 343.562 207.886 344.608 209.92C345.653 211.943 346.176 214.307 346.176 217.011C346.176 219.693 345.653 222.051 344.608 224.085C343.562 226.108 342.074 227.687 340.142 228.824C338.222 229.949 335.938 230.511 333.29 230.511ZM333.324 224.886C334.528 224.886 335.534 224.545 336.341 223.864C337.148 223.17 337.756 222.227 338.165 221.034C338.585 219.841 338.795 218.483 338.795 216.96C338.795 215.438 338.585 214.08 338.165 212.886C337.756 211.693 337.148 210.75 336.341 210.057C335.534 209.364 334.528 209.017 333.324 209.017C332.108 209.017 331.085 209.364 330.256 210.057C329.438 210.75 328.818 211.693 328.398 212.886C327.989 214.08 327.784 215.438 327.784 216.96C327.784 218.483 327.989 219.841 328.398 221.034C328.818 222.227 329.438 223.17 330.256 223.864C331.085 224.545 332.108 224.886 333.324 224.886ZM350.898 230V203.818H357.938V208.386H358.21C358.688 206.761 359.489 205.534 360.614 204.705C361.739 203.864 363.034 203.443 364.5 203.443C364.864 203.443 365.256 203.466 365.676 203.511C366.097 203.557 366.466 203.619 366.784 203.699V210.142C366.443 210.04 365.972 209.949 365.369 209.869C364.767 209.79 364.216 209.75 363.716 209.75C362.648 209.75 361.693 209.983 360.852 210.449C360.023 210.903 359.364 211.54 358.875 212.358C358.398 213.176 358.159 214.119 358.159 215.188V230H350.898ZM403.432 211.284L396.784 211.693C396.67 211.125 396.426 210.614 396.051 210.159C395.676 209.693 395.182 209.324 394.568 209.051C393.966 208.767 393.244 208.625 392.403 208.625C391.278 208.625 390.33 208.864 389.557 209.341C388.784 209.807 388.398 210.432 388.398 211.216C388.398 211.841 388.648 212.369 389.148 212.801C389.648 213.233 390.506 213.58 391.722 213.841L396.46 214.795C399.006 215.318 400.903 216.159 402.153 217.318C403.403 218.477 404.028 220 404.028 221.886C404.028 223.602 403.523 225.108 402.511 226.403C401.511 227.699 400.136 228.71 398.386 229.438C396.648 230.153 394.642 230.511 392.369 230.511C388.903 230.511 386.142 229.79 384.085 228.347C382.04 226.892 380.841 224.915 380.489 222.415L387.631 222.04C387.847 223.097 388.369 223.903 389.199 224.46C390.028 225.006 391.091 225.278 392.386 225.278C393.659 225.278 394.682 225.034 395.455 224.545C396.239 224.045 396.636 223.403 396.648 222.619C396.636 221.96 396.358 221.42 395.812 221C395.267 220.568 394.426 220.239 393.29 220.011L388.756 219.108C386.199 218.597 384.295 217.71 383.045 216.449C381.807 215.187 381.188 213.58 381.188 211.625C381.188 209.943 381.642 208.494 382.551 207.278C383.472 206.062 384.761 205.125 386.42 204.466C388.091 203.807 390.045 203.477 392.284 203.477C395.591 203.477 398.193 204.176 400.091 205.574C402 206.972 403.114 208.875 403.432 211.284ZM420.43 230.511C417.749 230.511 415.442 229.943 413.51 228.807C411.589 227.659 410.112 226.068 409.078 224.034C408.055 222 407.544 219.659 407.544 217.011C407.544 214.33 408.061 211.977 409.095 209.955C410.141 207.92 411.624 206.335 413.544 205.199C415.464 204.051 417.749 203.477 420.396 203.477C422.68 203.477 424.68 203.892 426.396 204.722C428.112 205.551 429.47 206.716 430.47 208.216C431.47 209.716 432.021 211.477 432.124 213.5H425.271C425.078 212.193 424.567 211.142 423.737 210.347C422.919 209.54 421.845 209.136 420.516 209.136C419.391 209.136 418.408 209.443 417.567 210.057C416.737 210.659 416.089 211.54 415.624 212.699C415.158 213.858 414.925 215.261 414.925 216.909C414.925 218.58 415.152 220 415.607 221.17C416.072 222.341 416.726 223.233 417.567 223.847C418.408 224.46 419.391 224.767 420.516 224.767C421.345 224.767 422.089 224.597 422.749 224.256C423.419 223.915 423.97 223.42 424.402 222.773C424.845 222.114 425.135 221.324 425.271 220.403H432.124C432.01 222.403 431.464 224.165 430.487 225.688C429.521 227.199 428.186 228.381 426.482 229.233C424.777 230.085 422.76 230.511 420.43 230.511ZM436.773 230V203.818H444.034V230H436.773ZM440.42 200.443C439.341 200.443 438.415 200.085 437.642 199.369C436.881 198.642 436.5 197.773 436.5 196.761C436.5 195.761 436.881 194.903 437.642 194.188C438.415 193.46 439.341 193.097 440.42 193.097C441.5 193.097 442.42 193.46 443.182 194.188C443.955 194.903 444.341 195.761 444.341 196.761C444.341 197.773 443.955 198.642 443.182 199.369C442.42 200.085 441.5 200.443 440.42 200.443ZM461.783 230.511C459.089 230.511 456.771 229.966 454.828 228.875C452.896 227.773 451.408 226.216 450.362 224.205C449.317 222.182 448.794 219.79 448.794 217.028C448.794 214.335 449.317 211.972 450.362 209.938C451.408 207.903 452.879 206.318 454.777 205.182C456.686 204.045 458.925 203.477 461.493 203.477C463.22 203.477 464.828 203.756 466.317 204.312C467.817 204.858 469.124 205.682 470.237 206.784C471.362 207.886 472.237 209.273 472.862 210.943C473.487 212.602 473.8 214.545 473.8 216.773V218.767H451.692V214.267H466.964C466.964 213.222 466.737 212.295 466.283 211.489C465.828 210.682 465.197 210.051 464.391 209.597C463.595 209.131 462.669 208.898 461.612 208.898C460.51 208.898 459.533 209.153 458.68 209.665C457.839 210.165 457.18 210.841 456.703 211.693C456.226 212.534 455.982 213.472 455.97 214.506V218.784C455.97 220.08 456.209 221.199 456.686 222.142C457.175 223.085 457.862 223.812 458.749 224.324C459.635 224.835 460.686 225.091 461.902 225.091C462.709 225.091 463.447 224.977 464.118 224.75C464.788 224.523 465.362 224.182 465.839 223.727C466.317 223.273 466.68 222.716 466.93 222.057L473.646 222.5C473.305 224.114 472.607 225.523 471.55 226.727C470.504 227.92 469.152 228.852 467.493 229.523C465.845 230.182 463.942 230.511 461.783 230.511ZM485.8 214.864V230H478.538V203.818H485.459V208.438H485.766C486.345 206.915 487.317 205.71 488.68 204.824C490.044 203.926 491.697 203.477 493.641 203.477C495.459 203.477 497.044 203.875 498.396 204.67C499.749 205.466 500.8 206.602 501.55 208.08C502.3 209.545 502.675 211.295 502.675 213.33V230H495.413V214.625C495.425 213.023 495.016 211.773 494.186 210.875C493.357 209.966 492.214 209.511 490.76 209.511C489.783 209.511 488.919 209.722 488.169 210.142C487.43 210.562 486.851 211.176 486.43 211.983C486.021 212.778 485.811 213.739 485.8 214.864ZM522.324 203.818V209.273H506.557V203.818H522.324ZM510.136 197.545H517.398V221.955C517.398 222.625 517.5 223.148 517.705 223.523C517.909 223.886 518.193 224.142 518.557 224.29C518.932 224.437 519.364 224.511 519.852 224.511C520.193 224.511 520.534 224.483 520.875 224.426C521.216 224.358 521.477 224.307 521.659 224.273L522.801 229.676C522.438 229.79 521.926 229.92 521.267 230.068C520.608 230.227 519.807 230.324 518.864 230.358C517.114 230.426 515.58 230.193 514.261 229.659C512.955 229.125 511.938 228.295 511.21 227.17C510.483 226.045 510.125 224.625 510.136 222.909V197.545ZM527.054 230V203.818H534.315V230H527.054ZM530.702 200.443C529.622 200.443 528.696 200.085 527.923 199.369C527.162 198.642 526.781 197.773 526.781 196.761C526.781 195.761 527.162 194.903 527.923 194.188C528.696 193.46 529.622 193.097 530.702 193.097C531.781 193.097 532.702 193.46 533.463 194.188C534.236 194.903 534.622 195.761 534.622 196.761C534.622 197.773 534.236 198.642 533.463 199.369C532.702 200.085 531.781 200.443 530.702 200.443ZM561.916 211.284L555.268 211.693C555.155 211.125 554.911 210.614 554.536 210.159C554.161 209.693 553.666 209.324 553.053 209.051C552.45 208.767 551.729 208.625 550.888 208.625C549.763 208.625 548.814 208.864 548.041 209.341C547.268 209.807 546.882 210.432 546.882 211.216C546.882 211.841 547.132 212.369 547.632 212.801C548.132 213.233 548.99 213.58 550.206 213.841L554.945 214.795C557.49 215.318 559.388 216.159 560.638 217.318C561.888 218.477 562.513 220 562.513 221.886C562.513 223.602 562.007 225.108 560.996 226.403C559.996 227.699 558.621 228.71 556.871 229.438C555.132 230.153 553.126 230.511 550.854 230.511C547.388 230.511 544.626 229.79 542.57 228.347C540.524 226.892 539.325 224.915 538.973 222.415L546.115 222.04C546.331 223.097 546.854 223.903 547.683 224.46C548.513 225.006 549.575 225.278 550.871 225.278C552.143 225.278 553.166 225.034 553.939 224.545C554.723 224.045 555.121 223.403 555.132 222.619C555.121 221.96 554.842 221.42 554.297 221C553.751 220.568 552.911 220.239 551.774 220.011L547.24 219.108C544.683 218.597 542.78 217.71 541.53 216.449C540.291 215.187 539.672 213.58 539.672 211.625C539.672 209.943 540.126 208.494 541.036 207.278C541.956 206.062 543.246 205.125 544.905 204.466C546.575 203.807 548.53 203.477 550.768 203.477C554.075 203.477 556.678 204.176 558.575 205.574C560.484 206.972 561.598 208.875 561.916 211.284ZM581.011 203.818V209.273H565.244V203.818H581.011ZM568.824 197.545H576.085V221.955C576.085 222.625 576.188 223.148 576.392 223.523C576.597 223.886 576.881 224.142 577.244 224.29C577.619 224.437 578.051 224.511 578.54 224.511C578.881 224.511 579.222 224.483 579.562 224.426C579.903 224.358 580.165 224.307 580.347 224.273L581.489 229.676C581.125 229.79 580.614 229.92 579.955 230.068C579.295 230.227 578.494 230.324 577.551 230.358C575.801 230.426 574.267 230.193 572.949 229.659C571.642 229.125 570.625 228.295 569.898 227.17C569.17 226.045 568.813 224.625 568.824 222.909V197.545ZM607.197 211.284L600.55 211.693C600.436 211.125 600.192 210.614 599.817 210.159C599.442 209.693 598.947 209.324 598.334 209.051C597.732 208.767 597.01 208.625 596.169 208.625C595.044 208.625 594.095 208.864 593.322 209.341C592.55 209.807 592.163 210.432 592.163 211.216C592.163 211.841 592.413 212.369 592.913 212.801C593.413 213.233 594.271 213.58 595.487 213.841L600.226 214.795C602.771 215.318 604.669 216.159 605.919 217.318C607.169 218.477 607.794 220 607.794 221.886C607.794 223.602 607.288 225.108 606.277 226.403C605.277 227.699 603.902 228.71 602.152 229.438C600.413 230.153 598.408 230.511 596.135 230.511C592.669 230.511 589.908 229.79 587.851 228.347C585.805 226.892 584.607 224.915 584.254 222.415L591.396 222.04C591.612 223.097 592.135 223.903 592.964 224.46C593.794 225.006 594.857 225.278 596.152 225.278C597.425 225.278 598.447 225.034 599.22 224.545C600.004 224.045 600.402 223.403 600.413 222.619C600.402 221.96 600.124 221.42 599.578 221C599.033 220.568 598.192 220.239 597.055 220.011L592.521 219.108C589.964 218.597 588.061 217.71 586.811 216.449C585.572 215.187 584.953 213.58 584.953 211.625C584.953 209.943 585.408 208.494 586.317 207.278C587.237 206.062 588.527 205.125 590.186 204.466C591.857 203.807 593.811 203.477 596.05 203.477C599.357 203.477 601.959 204.176 603.857 205.574C605.766 206.972 606.879 208.875 607.197 211.284Z" fill="#1A1A1A"/>
<path d="M128.466 321V300.636H130.932V318.812H140.398V321H128.466ZM150.301 321.318C148.83 321.318 147.56 320.993 146.493 320.344C145.432 319.688 144.614 318.773 144.037 317.599C143.467 316.42 143.182 315.047 143.182 313.483C143.182 311.919 143.467 310.54 144.037 309.347C144.614 308.147 145.416 307.212 146.443 306.543C147.477 305.866 148.684 305.528 150.062 305.528C150.858 305.528 151.643 305.661 152.419 305.926C153.195 306.191 153.901 306.622 154.537 307.219C155.173 307.809 155.68 308.591 156.058 309.565C156.436 310.54 156.625 311.74 156.625 313.165V314.159H144.852V312.131H154.239C154.239 311.269 154.066 310.5 153.722 309.824C153.384 309.148 152.9 308.614 152.27 308.223C151.647 307.832 150.911 307.636 150.062 307.636C149.128 307.636 148.319 307.868 147.636 308.332C146.96 308.79 146.44 309.386 146.075 310.122C145.711 310.858 145.528 311.647 145.528 312.489V313.841C145.528 314.994 145.727 315.972 146.125 316.774C146.529 317.57 147.089 318.176 147.805 318.594C148.521 319.005 149.353 319.21 150.301 319.21C150.918 319.21 151.474 319.124 151.972 318.952C152.475 318.773 152.91 318.508 153.274 318.156C153.639 317.798 153.92 317.354 154.119 316.824L156.386 317.46C156.148 318.229 155.747 318.905 155.183 319.489C154.62 320.065 153.924 320.516 153.095 320.841C152.267 321.159 151.335 321.318 150.301 321.318ZM164.689 321.358C163.721 321.358 162.843 321.176 162.054 320.811C161.265 320.44 160.639 319.906 160.175 319.21C159.711 318.508 159.479 317.659 159.479 316.665C159.479 315.79 159.651 315.08 159.996 314.537C160.34 313.987 160.801 313.556 161.378 313.244C161.955 312.933 162.591 312.701 163.287 312.548C163.99 312.389 164.696 312.263 165.405 312.17C166.333 312.051 167.085 311.962 167.662 311.902C168.245 311.836 168.67 311.726 168.935 311.574C169.206 311.421 169.342 311.156 169.342 310.778V310.699C169.342 309.718 169.074 308.955 168.537 308.412C168.007 307.868 167.201 307.597 166.121 307.597C165 307.597 164.122 307.842 163.486 308.332C162.849 308.823 162.402 309.347 162.143 309.903L159.916 309.108C160.314 308.18 160.844 307.457 161.507 306.94C162.177 306.417 162.906 306.052 163.695 305.847C164.49 305.634 165.272 305.528 166.041 305.528C166.532 305.528 167.095 305.588 167.732 305.707C168.375 305.82 168.994 306.055 169.591 306.413C170.194 306.771 170.695 307.312 171.092 308.034C171.49 308.757 171.689 309.724 171.689 310.938V321H169.342V318.932H169.223C169.064 319.263 168.799 319.618 168.428 319.996C168.056 320.374 167.563 320.695 166.946 320.96C166.33 321.225 165.577 321.358 164.689 321.358ZM165.047 319.25C165.975 319.25 166.757 319.068 167.393 318.703C168.036 318.339 168.52 317.868 168.845 317.291C169.177 316.714 169.342 316.108 169.342 315.472V313.324C169.243 313.443 169.024 313.553 168.686 313.652C168.355 313.745 167.97 313.828 167.533 313.901C167.102 313.967 166.681 314.027 166.27 314.08C165.866 314.126 165.537 314.166 165.286 314.199C164.676 314.278 164.106 314.408 163.575 314.587C163.052 314.759 162.627 315.021 162.303 315.372C161.984 315.717 161.825 316.187 161.825 316.784C161.825 317.599 162.127 318.216 162.73 318.634C163.34 319.045 164.112 319.25 165.047 319.25ZM175.972 321V305.727H178.239V308.034H178.398C178.676 307.278 179.18 306.665 179.909 306.195C180.639 305.724 181.461 305.489 182.375 305.489C182.548 305.489 182.763 305.492 183.022 305.499C183.28 305.505 183.476 305.515 183.608 305.528V307.915C183.529 307.895 183.346 307.865 183.061 307.825C182.783 307.779 182.488 307.756 182.176 307.756C181.434 307.756 180.771 307.911 180.188 308.223C179.611 308.528 179.154 308.952 178.816 309.496C178.484 310.033 178.319 310.646 178.319 311.335V321H175.972ZM188.737 311.812V321H186.39V305.727H188.657V308.114H188.856C189.214 307.338 189.757 306.715 190.487 306.244C191.216 305.767 192.157 305.528 193.31 305.528C194.344 305.528 195.249 305.741 196.025 306.165C196.8 306.582 197.404 307.219 197.835 308.074C198.265 308.922 198.481 309.996 198.481 311.295V321H196.134V311.455C196.134 310.255 195.823 309.32 195.2 308.651C194.576 307.974 193.721 307.636 192.634 307.636C191.885 307.636 191.216 307.799 190.626 308.124C190.042 308.448 189.582 308.922 189.244 309.545C188.906 310.169 188.737 310.924 188.737 311.812ZM212.99 311.812V321H210.644V300.636H212.99V308.114H213.189C213.547 307.325 214.084 306.698 214.8 306.234C215.523 305.764 216.484 305.528 217.684 305.528C218.724 305.528 219.636 305.737 220.418 306.155C221.2 306.566 221.807 307.199 222.238 308.054C222.675 308.902 222.894 309.983 222.894 311.295V321H220.547V311.455C220.547 310.241 220.232 309.304 219.603 308.641C218.98 307.971 218.114 307.636 217.007 307.636C216.239 307.636 215.549 307.799 214.939 308.124C214.336 308.448 213.859 308.922 213.507 309.545C213.163 310.169 212.99 310.924 212.99 311.812ZM233.391 321.318C232.013 321.318 230.803 320.99 229.762 320.334C228.728 319.678 227.919 318.759 227.336 317.58C226.759 316.4 226.471 315.021 226.471 313.443C226.471 311.852 226.759 310.464 227.336 309.277C227.919 308.09 228.728 307.169 229.762 306.513C230.803 305.857 232.013 305.528 233.391 305.528C234.77 305.528 235.977 305.857 237.011 306.513C238.051 307.169 238.86 308.09 239.437 309.277C240.02 310.464 240.312 311.852 240.312 313.443C240.312 315.021 240.02 316.4 239.437 317.58C238.86 318.759 238.051 319.678 237.011 320.334C235.977 320.99 234.77 321.318 233.391 321.318ZM233.391 319.21C234.439 319.21 235.3 318.942 235.977 318.405C236.653 317.868 237.153 317.162 237.478 316.287C237.803 315.412 237.965 314.464 237.965 313.443C237.965 312.422 237.803 311.471 237.478 310.589C237.153 309.708 236.653 308.995 235.977 308.452C235.3 307.908 234.439 307.636 233.391 307.636C232.344 307.636 231.482 307.908 230.806 308.452C230.13 308.995 229.629 309.708 229.305 310.589C228.98 311.471 228.817 312.422 228.817 313.443C228.817 314.464 228.98 315.412 229.305 316.287C229.629 317.162 230.13 317.868 230.806 318.405C231.482 318.942 232.344 319.21 233.391 319.21ZM246.835 321L242.181 305.727H244.647L247.948 317.42H248.107L251.369 305.727H253.874L257.096 317.381H257.255L260.556 305.727H263.022L258.369 321H256.062L252.721 309.267H252.482L249.141 321H246.835ZM280.641 305.727V307.716H272.727V305.727H280.641ZM275.033 302.068H277.38V316.625C277.38 317.288 277.476 317.785 277.668 318.116C277.867 318.441 278.119 318.66 278.424 318.773C278.736 318.879 279.064 318.932 279.408 318.932C279.667 318.932 279.879 318.919 280.045 318.892C280.21 318.859 280.343 318.832 280.442 318.812L280.92 320.92C280.761 320.98 280.539 321.04 280.254 321.099C279.969 321.166 279.607 321.199 279.17 321.199C278.507 321.199 277.857 321.056 277.221 320.771C276.591 320.486 276.067 320.052 275.65 319.469C275.239 318.885 275.033 318.15 275.033 317.261V302.068ZM290.212 321.318C288.833 321.318 287.623 320.99 286.582 320.334C285.548 319.678 284.74 318.759 284.156 317.58C283.58 316.4 283.291 315.021 283.291 313.443C283.291 311.852 283.58 310.464 284.156 309.277C284.74 308.09 285.548 307.169 286.582 306.513C287.623 305.857 288.833 305.528 290.212 305.528C291.59 305.528 292.797 305.857 293.831 306.513C294.872 307.169 295.68 308.09 296.257 309.277C296.84 310.464 297.132 311.852 297.132 313.443C297.132 315.021 296.84 316.4 296.257 317.58C295.68 318.759 294.872 319.678 293.831 320.334C292.797 320.99 291.59 321.318 290.212 321.318ZM290.212 319.21C291.259 319.21 292.121 318.942 292.797 318.405C293.473 317.868 293.973 317.162 294.298 316.287C294.623 315.412 294.786 314.464 294.786 313.443C294.786 312.422 294.623 311.471 294.298 310.589C293.973 309.708 293.473 308.995 292.797 308.452C292.121 307.908 291.259 307.636 290.212 307.636C289.164 307.636 288.303 307.908 287.626 308.452C286.95 308.995 286.45 309.708 286.125 310.589C285.8 311.471 285.638 312.422 285.638 313.443C285.638 314.464 285.8 315.412 286.125 316.287C286.45 317.162 286.95 317.868 287.626 318.405C288.303 318.942 289.164 319.21 290.212 319.21ZM318.214 314.756V305.727H320.561V321H318.214V318.415H318.055C317.697 319.19 317.14 319.85 316.385 320.393C315.629 320.93 314.674 321.199 313.521 321.199C312.566 321.199 311.718 320.99 310.975 320.572C310.233 320.148 309.65 319.512 309.225 318.663C308.801 317.808 308.589 316.731 308.589 315.432V305.727H310.936V315.273C310.936 316.386 311.247 317.275 311.87 317.938C312.5 318.6 313.302 318.932 314.277 318.932C314.86 318.932 315.453 318.783 316.056 318.484C316.666 318.186 317.177 317.729 317.588 317.112C318.005 316.496 318.214 315.71 318.214 314.756ZM335.677 309.148L333.569 309.744C333.436 309.393 333.241 309.052 332.982 308.72C332.73 308.382 332.386 308.104 331.948 307.885C331.511 307.666 330.951 307.557 330.268 307.557C329.333 307.557 328.554 307.772 327.931 308.203C327.315 308.627 327.006 309.168 327.006 309.824C327.006 310.407 327.219 310.868 327.643 311.206C328.067 311.544 328.73 311.826 329.631 312.051L331.898 312.608C333.264 312.939 334.281 313.446 334.951 314.129C335.621 314.805 335.955 315.677 335.955 316.744C335.955 317.619 335.703 318.402 335.2 319.091C334.702 319.78 334.006 320.324 333.112 320.722C332.217 321.119 331.176 321.318 329.989 321.318C328.432 321.318 327.142 320.98 326.121 320.304C325.101 319.628 324.454 318.64 324.183 317.341L326.41 316.784C326.622 317.606 327.023 318.223 327.613 318.634C328.21 319.045 328.988 319.25 329.95 319.25C331.043 319.25 331.912 319.018 332.555 318.554C333.204 318.083 333.529 317.52 333.529 316.864C333.529 316.333 333.344 315.889 332.972 315.531C332.601 315.167 332.031 314.895 331.262 314.716L328.717 314.119C327.318 313.788 326.29 313.274 325.634 312.578C324.985 311.875 324.66 310.997 324.66 309.943C324.66 309.081 324.902 308.319 325.386 307.656C325.876 306.993 326.542 306.473 327.384 306.095C328.233 305.717 329.194 305.528 330.268 305.528C331.779 305.528 332.966 305.86 333.827 306.523C334.696 307.186 335.312 308.061 335.677 309.148ZM345.891 321.318C344.419 321.318 343.15 320.993 342.083 320.344C341.022 319.688 340.203 318.773 339.627 317.599C339.057 316.42 338.772 315.047 338.772 313.483C338.772 311.919 339.057 310.54 339.627 309.347C340.203 308.147 341.006 307.212 342.033 306.543C343.067 305.866 344.274 305.528 345.652 305.528C346.448 305.528 347.233 305.661 348.009 305.926C348.784 306.191 349.49 306.622 350.127 307.219C350.763 307.809 351.27 308.591 351.648 309.565C352.026 310.54 352.215 311.74 352.215 313.165V314.159H340.442V312.131H349.828C349.828 311.269 349.656 310.5 349.311 309.824C348.973 309.148 348.489 308.614 347.86 308.223C347.237 307.832 346.501 307.636 345.652 307.636C344.718 307.636 343.909 307.868 343.226 308.332C342.55 308.79 342.03 309.386 341.665 310.122C341.301 310.858 341.118 311.647 341.118 312.489V313.841C341.118 314.994 341.317 315.972 341.715 316.774C342.119 317.57 342.679 318.176 343.395 318.594C344.111 319.005 344.943 319.21 345.891 319.21C346.507 319.21 347.064 319.124 347.561 318.952C348.065 318.773 348.499 318.508 348.864 318.156C349.229 317.798 349.51 317.354 349.709 316.824L351.976 317.46C351.738 318.229 351.337 318.905 350.773 319.489C350.21 320.065 349.514 320.516 348.685 320.841C347.856 321.159 346.925 321.318 345.891 321.318ZM370.301 305.727V307.716H362.387V305.727H370.301ZM364.694 302.068H367.04V316.625C367.04 317.288 367.136 317.785 367.328 318.116C367.527 318.441 367.779 318.66 368.084 318.773C368.396 318.879 368.724 318.932 369.069 318.932C369.327 318.932 369.539 318.919 369.705 318.892C369.871 318.859 370.003 318.832 370.103 318.812L370.58 320.92C370.421 320.98 370.199 321.04 369.914 321.099C369.629 321.166 369.267 321.199 368.83 321.199C368.167 321.199 367.517 321.056 366.881 320.771C366.251 320.486 365.728 320.052 365.31 319.469C364.899 318.885 364.694 318.15 364.694 317.261V302.068ZM375.343 326.727C374.945 326.727 374.59 326.694 374.279 326.628C373.967 326.568 373.752 326.509 373.632 326.449L374.229 324.381C374.799 324.527 375.303 324.58 375.74 324.54C376.178 324.5 376.566 324.304 376.904 323.953C377.248 323.608 377.563 323.048 377.848 322.273L378.286 321.08L372.638 305.727H375.184L379.4 317.898H379.559L383.775 305.727H386.32L379.837 323.227C379.545 324.016 379.184 324.669 378.753 325.186C378.322 325.71 377.822 326.098 377.252 326.349C376.688 326.601 376.052 326.727 375.343 326.727ZM389.417 326.727V305.727H391.684V308.153H391.963C392.135 307.888 392.374 307.55 392.679 307.139C392.99 306.722 393.434 306.35 394.011 306.026C394.594 305.694 395.383 305.528 396.377 305.528C397.663 305.528 398.797 305.85 399.778 306.493C400.759 307.136 401.525 308.047 402.075 309.227C402.625 310.407 402.9 311.799 402.9 313.403C402.9 315.021 402.625 316.423 402.075 317.609C401.525 318.789 400.762 319.704 399.788 320.354C398.814 320.997 397.69 321.318 396.417 321.318C395.436 321.318 394.651 321.156 394.061 320.831C393.471 320.5 393.017 320.125 392.699 319.707C392.38 319.283 392.135 318.932 391.963 318.653H391.764V326.727H389.417ZM391.724 313.364C391.724 314.517 391.893 315.535 392.231 316.416C392.569 317.291 393.063 317.977 393.713 318.474C394.362 318.965 395.158 319.21 396.099 319.21C397.08 319.21 397.899 318.952 398.555 318.435C399.218 317.911 399.715 317.208 400.047 316.327C400.385 315.438 400.554 314.451 400.554 313.364C400.554 312.29 400.388 311.322 400.056 310.46C399.732 309.592 399.238 308.906 398.575 308.402C397.919 307.892 397.093 307.636 396.099 307.636C395.145 307.636 394.342 307.878 393.693 308.362C393.043 308.839 392.553 309.509 392.221 310.371C391.89 311.226 391.724 312.223 391.724 313.364ZM412.684 321.318C411.306 321.318 410.096 320.99 409.055 320.334C408.021 319.678 407.212 318.759 406.629 317.58C406.052 316.4 405.764 315.021 405.764 313.443C405.764 311.852 406.052 310.464 406.629 309.277C407.212 308.09 408.021 307.169 409.055 306.513C410.096 305.857 411.306 305.528 412.684 305.528C414.063 305.528 415.27 305.857 416.304 306.513C417.344 307.169 418.153 308.09 418.73 309.277C419.313 310.464 419.605 311.852 419.605 313.443C419.605 315.021 419.313 316.4 418.73 317.58C418.153 318.759 417.344 319.678 416.304 320.334C415.27 320.99 414.063 321.318 412.684 321.318ZM412.684 319.21C413.732 319.21 414.593 318.942 415.27 318.405C415.946 317.868 416.446 317.162 416.771 316.287C417.096 315.412 417.258 314.464 417.258 313.443C417.258 312.422 417.096 311.471 416.771 310.589C416.446 309.708 415.946 308.995 415.27 308.452C414.593 307.908 413.732 307.636 412.684 307.636C411.637 307.636 410.775 307.908 410.099 308.452C409.423 308.995 408.922 309.708 408.598 310.589C408.273 311.471 408.11 312.422 408.11 313.443C408.11 314.464 408.273 315.412 408.598 316.287C408.922 317.162 409.423 317.868 410.099 318.405C410.775 318.942 411.637 319.21 412.684 319.21ZM429.352 327.045C428.218 327.045 427.244 326.9 426.428 326.608C425.613 326.323 424.933 325.945 424.39 325.474C423.853 325.01 423.425 324.513 423.107 323.983L424.977 322.67C425.189 322.949 425.457 323.267 425.782 323.625C426.107 323.99 426.551 324.304 427.114 324.57C427.684 324.841 428.43 324.977 429.352 324.977C430.585 324.977 431.602 324.679 432.404 324.082C433.206 323.486 433.607 322.551 433.607 321.278V318.176H433.408C433.236 318.455 432.991 318.799 432.673 319.21C432.361 319.615 431.91 319.976 431.32 320.294C430.737 320.606 429.948 320.761 428.954 320.761C427.721 320.761 426.614 320.47 425.633 319.886C424.658 319.303 423.886 318.455 423.316 317.341C422.753 316.227 422.471 314.875 422.471 313.284C422.471 311.72 422.746 310.357 423.296 309.197C423.846 308.031 424.612 307.129 425.593 306.493C426.574 305.85 427.708 305.528 428.994 305.528C429.988 305.528 430.777 305.694 431.36 306.026C431.95 306.35 432.401 306.722 432.712 307.139C433.031 307.55 433.276 307.888 433.448 308.153H433.687V305.727H435.954V321.438C435.954 322.75 435.656 323.817 435.059 324.639C434.469 325.468 433.674 326.074 432.673 326.459C431.678 326.85 430.571 327.045 429.352 327.045ZM429.272 318.653C430.213 318.653 431.009 318.438 431.658 318.007C432.308 317.576 432.802 316.956 433.14 316.148C433.478 315.339 433.647 314.371 433.647 313.244C433.647 312.144 433.481 311.173 433.15 310.331C432.818 309.489 432.328 308.83 431.678 308.352C431.029 307.875 430.227 307.636 429.272 307.636C428.278 307.636 427.449 307.888 426.786 308.392C426.13 308.896 425.636 309.572 425.305 310.42C424.98 311.269 424.817 312.21 424.817 313.244C424.817 314.305 424.983 315.243 425.315 316.058C425.653 316.867 426.15 317.503 426.806 317.967C427.469 318.425 428.291 318.653 429.272 318.653ZM440.249 321V305.727H442.516V308.034H442.675C442.954 307.278 443.458 306.665 444.187 306.195C444.916 305.724 445.738 305.489 446.653 305.489C446.825 305.489 447.04 305.492 447.299 305.499C447.558 305.505 447.753 305.515 447.886 305.528V307.915C447.806 307.895 447.624 307.865 447.339 307.825C447.06 307.779 446.765 307.756 446.454 307.756C445.711 307.756 445.049 307.911 444.465 308.223C443.888 308.528 443.431 308.952 443.093 309.496C442.762 310.033 442.596 310.646 442.596 311.335V321H440.249ZM455.162 321.358C454.194 321.358 453.315 321.176 452.527 320.811C451.738 320.44 451.111 319.906 450.647 319.21C450.183 318.508 449.951 317.659 449.951 316.665C449.951 315.79 450.124 315.08 450.468 314.537C450.813 313.987 451.274 313.556 451.85 313.244C452.427 312.933 453.064 312.701 453.76 312.548C454.462 312.389 455.168 312.263 455.877 312.17C456.806 312.051 457.558 311.962 458.135 311.902C458.718 311.836 459.142 311.726 459.407 311.574C459.679 311.421 459.815 311.156 459.815 310.778V310.699C459.815 309.718 459.547 308.955 459.01 308.412C458.479 307.868 457.674 307.597 456.593 307.597C455.473 307.597 454.595 307.842 453.958 308.332C453.322 308.823 452.875 309.347 452.616 309.903L450.389 309.108C450.787 308.18 451.317 307.457 451.98 306.94C452.649 306.417 453.378 306.052 454.167 305.847C454.963 305.634 455.745 305.528 456.514 305.528C457.004 305.528 457.568 305.588 458.204 305.707C458.847 305.82 459.467 306.055 460.064 306.413C460.667 306.771 461.167 307.312 461.565 308.034C461.963 308.757 462.162 309.724 462.162 310.938V321H459.815V318.932H459.696C459.537 319.263 459.271 319.618 458.9 319.996C458.529 320.374 458.035 320.695 457.419 320.96C456.802 321.225 456.05 321.358 455.162 321.358ZM455.52 319.25C456.448 319.25 457.23 319.068 457.866 318.703C458.509 318.339 458.993 317.868 459.318 317.291C459.649 316.714 459.815 316.108 459.815 315.472V313.324C459.716 313.443 459.497 313.553 459.159 313.652C458.827 313.745 458.443 313.828 458.005 313.901C457.574 313.967 457.154 314.027 456.743 314.08C456.338 314.126 456.01 314.166 455.758 314.199C455.148 314.278 454.578 314.408 454.048 314.587C453.524 314.759 453.1 315.021 452.775 315.372C452.457 315.717 452.298 316.187 452.298 316.784C452.298 317.599 452.6 318.216 453.203 318.634C453.813 319.045 454.585 319.25 455.52 319.25ZM466.445 326.727V305.727H468.712V308.153H468.99C469.162 307.888 469.401 307.55 469.706 307.139C470.018 306.722 470.462 306.35 471.038 306.026C471.622 305.694 472.411 305.528 473.405 305.528C474.691 305.528 475.824 305.85 476.805 306.493C477.786 307.136 478.552 308.047 479.102 309.227C479.652 310.407 479.928 311.799 479.928 313.403C479.928 315.021 479.652 316.423 479.102 317.609C478.552 318.789 477.79 319.704 476.815 320.354C475.841 320.997 474.717 321.318 473.445 321.318C472.464 321.318 471.678 321.156 471.088 320.831C470.498 320.5 470.044 320.125 469.726 319.707C469.408 319.283 469.162 318.932 468.99 318.653H468.791V326.727H466.445ZM468.751 313.364C468.751 314.517 468.92 315.535 469.259 316.416C469.597 317.291 470.09 317.977 470.74 318.474C471.39 318.965 472.185 319.21 473.126 319.21C474.107 319.21 474.926 318.952 475.582 318.435C476.245 317.911 476.742 317.208 477.074 316.327C477.412 315.438 477.581 314.451 477.581 313.364C477.581 312.29 477.415 311.322 477.084 310.46C476.759 309.592 476.265 308.906 475.602 308.402C474.946 307.892 474.121 307.636 473.126 307.636C472.172 307.636 471.37 307.878 470.72 308.362C470.071 308.839 469.58 309.509 469.249 310.371C468.917 311.226 468.751 312.223 468.751 313.364ZM485.854 311.812V321H483.507V300.636H485.854V308.114H486.053C486.411 307.325 486.947 306.698 487.663 306.234C488.386 305.764 489.347 305.528 490.547 305.528C491.588 305.528 492.499 305.737 493.281 306.155C494.063 306.566 494.67 307.199 495.101 308.054C495.538 308.902 495.757 309.983 495.757 311.295V321H493.411V311.455C493.411 310.241 493.096 309.304 492.466 308.641C491.843 307.971 490.978 307.636 489.871 307.636C489.102 307.636 488.412 307.799 487.803 308.124C487.199 308.448 486.722 308.922 486.371 309.545C486.026 310.169 485.854 310.924 485.854 311.812ZM501.015 326.727C500.617 326.727 500.262 326.694 499.951 326.628C499.639 326.568 499.424 326.509 499.304 326.449L499.901 324.381C500.471 324.527 500.975 324.58 501.412 324.54C501.85 324.5 502.238 324.304 502.576 323.953C502.92 323.608 503.235 323.048 503.52 322.273L503.958 321.08L498.31 305.727H500.855L505.071 317.898H505.23L509.446 305.727H511.992L505.509 323.227C505.217 324.016 504.856 324.669 504.425 325.186C503.994 325.71 503.494 326.098 502.924 326.349C502.36 326.601 501.724 326.727 501.015 326.727ZM517.632 318.216L517.473 319.29C517.36 320.045 517.188 320.854 516.956 321.716C516.731 322.578 516.495 323.39 516.25 324.152C516.005 324.914 515.803 325.521 515.643 325.972H513.854C513.94 325.547 514.053 324.987 514.192 324.291C514.331 323.595 514.47 322.816 514.609 321.955C514.755 321.099 514.875 320.224 514.967 319.33L515.087 318.216H517.632ZM532.201 300.636V321H529.855V300.636H532.201ZM540.994 321.358C540.026 321.358 539.147 321.176 538.359 320.811C537.57 320.44 536.943 319.906 536.479 319.21C536.015 318.508 535.783 317.659 535.783 316.665C535.783 315.79 535.956 315.08 536.3 314.537C536.645 313.987 537.106 313.556 537.683 313.244C538.259 312.933 538.896 312.701 539.592 312.548C540.294 312.389 541 312.263 541.71 312.17C542.638 312.051 543.39 311.962 543.967 311.902C544.55 311.836 544.974 311.726 545.239 311.574C545.511 311.421 545.647 311.156 545.647 310.778V310.699C545.647 309.718 545.379 308.955 544.842 308.412C544.311 307.868 543.506 307.597 542.425 307.597C541.305 307.597 540.427 307.842 539.79 308.332C539.154 308.823 538.707 309.347 538.448 309.903L536.221 309.108C536.619 308.18 537.149 307.457 537.812 306.94C538.481 306.417 539.21 306.052 539.999 305.847C540.795 305.634 541.577 305.528 542.346 305.528C542.836 305.528 543.4 305.588 544.036 305.707C544.679 305.82 545.299 306.055 545.896 306.413C546.499 306.771 546.999 307.312 547.397 308.034C547.795 308.757 547.994 309.724 547.994 310.938V321H545.647V318.932H545.528C545.369 319.263 545.103 319.618 544.732 319.996C544.361 320.374 543.867 320.695 543.251 320.96C542.634 321.225 541.882 321.358 540.994 321.358ZM541.352 319.25C542.28 319.25 543.062 319.068 543.698 318.703C544.341 318.339 544.825 317.868 545.15 317.291C545.481 316.714 545.647 316.108 545.647 315.472V313.324C545.548 313.443 545.329 313.553 544.991 313.652C544.659 313.745 544.275 313.828 543.837 313.901C543.406 313.967 542.986 314.027 542.575 314.08C542.17 314.126 541.842 314.166 541.59 314.199C540.98 314.278 540.41 314.408 539.88 314.587C539.356 314.759 538.932 315.021 538.607 315.372C538.289 315.717 538.13 316.187 538.13 316.784C538.13 317.599 538.432 318.216 539.035 318.634C539.645 319.045 540.417 319.25 541.352 319.25ZM553.241 326.727C552.843 326.727 552.489 326.694 552.177 326.628C551.866 326.568 551.65 326.509 551.531 326.449L552.127 324.381C552.698 324.527 553.201 324.58 553.639 324.54C554.076 324.5 554.464 324.304 554.802 323.953C555.147 323.608 555.462 323.048 555.747 322.273L556.184 321.08L550.537 305.727H553.082L557.298 317.898H557.457L561.673 305.727H564.218L557.735 323.227C557.444 324.016 557.083 324.669 556.652 325.186C556.221 325.71 555.72 326.098 555.15 326.349C554.587 326.601 553.95 326.727 553.241 326.727ZM572.973 321.318C571.595 321.318 570.385 320.99 569.344 320.334C568.31 319.678 567.501 318.759 566.918 317.58C566.341 316.4 566.053 315.021 566.053 313.443C566.053 311.852 566.341 310.464 566.918 309.277C567.501 308.09 568.31 307.169 569.344 306.513C570.385 305.857 571.595 305.528 572.973 305.528C574.352 305.528 575.559 305.857 576.593 306.513C577.633 307.169 578.442 308.09 579.019 309.277C579.602 310.464 579.894 311.852 579.894 313.443C579.894 315.021 579.602 316.4 579.019 317.58C578.442 318.759 577.633 319.678 576.593 320.334C575.559 320.99 574.352 321.318 572.973 321.318ZM572.973 319.21C574.021 319.21 574.882 318.942 575.559 318.405C576.235 317.868 576.735 317.162 577.06 316.287C577.385 315.412 577.547 314.464 577.547 313.443C577.547 312.422 577.385 311.471 577.06 310.589C576.735 309.708 576.235 308.995 575.559 308.452C574.882 307.908 574.021 307.636 572.973 307.636C571.926 307.636 571.064 307.908 570.388 308.452C569.712 308.995 569.212 309.708 568.887 310.589C568.562 311.471 568.4 312.422 568.4 313.443C568.4 314.464 568.562 315.412 568.887 316.287C569.212 317.162 569.712 317.868 570.388 318.405C571.064 318.942 571.926 319.21 572.973 319.21ZM593.101 314.756V305.727H595.447V321H593.101V318.415H592.942C592.584 319.19 592.027 319.85 591.271 320.393C590.516 320.93 589.561 321.199 588.408 321.199C587.453 321.199 586.605 320.99 585.862 320.572C585.12 320.148 584.536 319.512 584.112 318.663C583.688 317.808 583.476 316.731 583.476 315.432V305.727H585.822V315.273C585.822 316.386 586.134 317.275 586.757 317.938C587.387 318.6 588.189 318.932 589.163 318.932C589.747 318.932 590.34 318.783 590.943 318.484C591.553 318.186 592.063 317.729 592.474 317.112C592.892 316.496 593.101 315.71 593.101 314.756ZM606.387 305.727V307.716H598.473V305.727H606.387ZM600.779 302.068H603.126V316.625C603.126 317.288 603.222 317.785 603.414 318.116C603.613 318.441 603.865 318.66 604.17 318.773C604.482 318.879 604.81 318.932 605.154 318.932C605.413 318.932 605.625 318.919 605.791 318.892C605.957 318.859 606.089 318.832 606.189 318.812L606.666 320.92C606.507 320.98 606.285 321.04 606 321.099C605.715 321.166 605.353 321.199 604.916 321.199C604.253 321.199 603.603 321.056 602.967 320.771C602.337 320.486 601.814 320.052 601.396 319.469C600.985 318.885 600.779 318.15 600.779 317.261V302.068ZM622.287 321.358C621.319 321.358 620.44 321.176 619.652 320.811C618.863 320.44 618.236 319.906 617.772 319.21C617.308 318.508 617.076 317.659 617.076 316.665C617.076 315.79 617.249 315.08 617.593 314.537C617.938 313.987 618.399 313.556 618.975 313.244C619.552 312.933 620.189 312.701 620.885 312.548C621.587 312.389 622.293 312.263 623.002 312.17C623.931 312.051 624.683 311.962 625.26 311.902C625.843 311.836 626.267 311.726 626.532 311.574C626.804 311.421 626.94 311.156 626.94 310.778V310.699C626.94 309.718 626.672 308.955 626.135 308.412C625.604 307.868 624.799 307.597 623.718 307.597C622.598 307.597 621.72 307.842 621.083 308.332C620.447 308.823 620 309.347 619.741 309.903L617.514 309.108C617.912 308.18 618.442 307.457 619.105 306.94C619.774 306.417 620.503 306.052 621.292 305.847C622.088 305.634 622.87 305.528 623.639 305.528C624.129 305.528 624.693 305.588 625.329 305.707C625.972 305.82 626.592 306.055 627.189 306.413C627.792 306.771 628.292 307.312 628.69 308.034C629.088 308.757 629.287 309.724 629.287 310.938V321H626.94V318.932H626.821C626.662 319.263 626.396 319.618 626.025 319.996C625.654 320.374 625.16 320.695 624.544 320.96C623.927 321.225 623.175 321.358 622.287 321.358ZM622.645 319.25C623.573 319.25 624.355 319.068 624.991 318.703C625.634 318.339 626.118 317.868 626.443 317.291C626.774 316.714 626.94 316.108 626.94 315.472V313.324C626.841 313.443 626.622 313.553 626.284 313.652C625.952 313.745 625.568 313.828 625.13 313.901C624.699 313.967 624.279 314.027 623.868 314.08C623.463 314.126 623.135 314.166 622.883 314.199C622.273 314.278 621.703 314.408 621.173 314.587C620.649 314.759 620.225 315.021 619.9 315.372C619.582 315.717 619.423 316.187 619.423 316.784C619.423 317.599 619.725 318.216 620.328 318.634C620.938 319.045 621.71 319.25 622.645 319.25ZM635.916 311.812V321H633.57V305.727H635.837V308.114H636.036C636.393 307.338 636.937 306.715 637.666 306.244C638.395 305.767 639.337 305.528 640.49 305.528C641.524 305.528 642.429 305.741 643.205 306.165C643.98 306.582 644.583 307.219 645.014 308.074C645.445 308.922 645.661 309.996 645.661 311.295V321H643.314V311.455C643.314 310.255 643.002 309.32 642.379 308.651C641.756 307.974 640.901 307.636 639.814 307.636C639.065 307.636 638.395 307.799 637.805 308.124C637.222 308.448 636.761 308.922 636.423 309.545C636.085 310.169 635.916 310.924 635.916 311.812ZM655.716 321.318C654.443 321.318 653.319 320.997 652.345 320.354C651.37 319.704 650.608 318.789 650.058 317.609C649.508 316.423 649.233 315.021 649.233 313.403C649.233 311.799 649.508 310.407 650.058 309.227C650.608 308.047 651.374 307.136 652.355 306.493C653.336 305.85 654.469 305.528 655.755 305.528C656.75 305.528 657.535 305.694 658.112 306.026C658.695 306.35 659.139 306.722 659.444 307.139C659.756 307.55 659.998 307.888 660.17 308.153H660.369V300.636H662.716V321H660.449V318.653H660.17C659.998 318.932 659.752 319.283 659.434 319.707C659.116 320.125 658.662 320.5 658.072 320.831C657.482 321.156 656.697 321.318 655.716 321.318ZM656.034 319.21C656.975 319.21 657.77 318.965 658.42 318.474C659.07 317.977 659.564 317.291 659.902 316.416C660.24 315.535 660.409 314.517 660.409 313.364C660.409 312.223 660.243 311.226 659.912 310.371C659.58 309.509 659.09 308.839 658.44 308.362C657.79 307.878 656.988 307.636 656.034 307.636C655.039 307.636 654.211 307.892 653.548 308.402C652.892 308.906 652.398 309.592 652.066 310.46C651.742 311.322 651.579 312.29 651.579 313.364C651.579 314.451 651.745 315.438 652.076 316.327C652.414 317.208 652.912 317.911 653.568 318.435C654.231 318.952 655.053 319.21 656.034 319.21ZM134.352 363.318C132.92 363.318 131.688 362.98 130.653 362.304C129.619 361.628 128.824 360.696 128.267 359.51C127.71 358.323 127.432 356.968 127.432 355.443C127.432 353.892 127.717 352.523 128.287 351.337C128.864 350.143 129.666 349.212 130.693 348.543C131.727 347.866 132.934 347.528 134.312 347.528C135.386 347.528 136.354 347.727 137.216 348.125C138.078 348.523 138.784 349.08 139.334 349.795C139.884 350.511 140.225 351.347 140.358 352.301H138.011C137.832 351.605 137.435 350.989 136.818 350.452C136.208 349.908 135.386 349.636 134.352 349.636C133.438 349.636 132.635 349.875 131.946 350.352C131.263 350.823 130.73 351.489 130.345 352.351C129.967 353.206 129.778 354.21 129.778 355.364C129.778 356.544 129.964 357.571 130.335 358.446C130.713 359.321 131.243 360 131.926 360.484C132.616 360.968 133.424 361.21 134.352 361.21C134.962 361.21 135.516 361.104 136.013 360.892C136.51 360.68 136.931 360.375 137.276 359.977C137.62 359.58 137.866 359.102 138.011 358.545H140.358C140.225 359.447 139.897 360.259 139.374 360.982C138.857 361.697 138.17 362.268 137.315 362.692C136.467 363.109 135.479 363.318 134.352 363.318ZM149.993 363.318C148.614 363.318 147.404 362.99 146.364 362.334C145.33 361.678 144.521 360.759 143.938 359.58C143.361 358.4 143.072 357.021 143.072 355.443C143.072 353.852 143.361 352.464 143.938 351.277C144.521 350.09 145.33 349.169 146.364 348.513C147.404 347.857 148.614 347.528 149.993 347.528C151.372 347.528 152.578 347.857 153.612 348.513C154.653 349.169 155.462 350.09 156.038 351.277C156.622 352.464 156.913 353.852 156.913 355.443C156.913 357.021 156.622 358.4 156.038 359.58C155.462 360.759 154.653 361.678 153.612 362.334C152.578 362.99 151.372 363.318 149.993 363.318ZM149.993 361.21C151.04 361.21 151.902 360.942 152.578 360.405C153.254 359.868 153.755 359.162 154.08 358.287C154.404 357.412 154.567 356.464 154.567 355.443C154.567 354.422 154.404 353.471 154.08 352.589C153.755 351.708 153.254 350.995 152.578 350.452C151.902 349.908 151.04 349.636 149.993 349.636C148.946 349.636 148.084 349.908 147.408 350.452C146.732 350.995 146.231 351.708 145.906 352.589C145.581 353.471 145.419 354.422 145.419 355.443C145.419 356.464 145.581 357.412 145.906 358.287C146.231 359.162 146.732 359.868 147.408 360.405C148.084 360.942 148.946 361.21 149.993 361.21ZM162.842 342.636V363H160.495V342.636H162.842ZM173.344 363.318C171.966 363.318 170.756 362.99 169.715 362.334C168.681 361.678 167.872 360.759 167.289 359.58C166.712 358.4 166.424 357.021 166.424 355.443C166.424 353.852 166.712 352.464 167.289 351.277C167.872 350.09 168.681 349.169 169.715 348.513C170.756 347.857 171.966 347.528 173.344 347.528C174.723 347.528 175.93 347.857 176.964 348.513C178.004 349.169 178.813 350.09 179.39 351.277C179.973 352.464 180.265 353.852 180.265 355.443C180.265 357.021 179.973 358.4 179.39 359.58C178.813 360.759 178.004 361.678 176.964 362.334C175.93 362.99 174.723 363.318 173.344 363.318ZM173.344 361.21C174.392 361.21 175.254 360.942 175.93 360.405C176.606 359.868 177.106 359.162 177.431 358.287C177.756 357.412 177.918 356.464 177.918 355.443C177.918 354.422 177.756 353.471 177.431 352.589C177.106 351.708 176.606 350.995 175.93 350.452C175.254 349.908 174.392 349.636 173.344 349.636C172.297 349.636 171.435 349.908 170.759 350.452C170.083 350.995 169.583 351.708 169.258 352.589C168.933 353.471 168.771 354.422 168.771 355.443C168.771 356.464 168.933 357.412 169.258 358.287C169.583 359.162 170.083 359.868 170.759 360.405C171.435 360.942 172.297 361.21 173.344 361.21ZM183.847 363V347.727H186.114V350.034H186.273C186.551 349.278 187.055 348.665 187.784 348.195C188.514 347.724 189.336 347.489 190.25 347.489C190.423 347.489 190.638 347.492 190.897 347.499C191.155 347.505 191.351 347.515 191.483 347.528V349.915C191.404 349.895 191.221 349.865 190.936 349.825C190.658 349.779 190.363 349.756 190.051 349.756C189.309 349.756 188.646 349.911 188.063 350.223C187.486 350.528 187.029 350.952 186.691 351.496C186.359 352.033 186.194 352.646 186.194 353.335V363H183.847ZM205.083 351.148L202.975 351.744C202.843 351.393 202.647 351.052 202.388 350.72C202.137 350.382 201.792 350.104 201.354 349.885C200.917 349.666 200.357 349.557 199.674 349.557C198.739 349.557 197.96 349.772 197.337 350.203C196.721 350.627 196.413 351.168 196.413 351.824C196.413 352.407 196.625 352.868 197.049 353.206C197.473 353.544 198.136 353.826 199.038 354.051L201.305 354.608C202.67 354.939 203.688 355.446 204.357 356.129C205.027 356.805 205.362 357.677 205.362 358.744C205.362 359.619 205.11 360.402 204.606 361.091C204.109 361.78 203.413 362.324 202.518 362.722C201.623 363.119 200.582 363.318 199.396 363.318C197.838 363.318 196.549 362.98 195.528 362.304C194.507 361.628 193.861 360.64 193.589 359.341L195.816 358.784C196.028 359.606 196.429 360.223 197.019 360.634C197.616 361.045 198.395 361.25 199.356 361.25C200.45 361.25 201.318 361.018 201.961 360.554C202.611 360.083 202.935 359.52 202.935 358.864C202.935 358.333 202.75 357.889 202.379 357.531C202.007 357.167 201.437 356.895 200.668 356.716L198.123 356.119C196.724 355.788 195.697 355.274 195.04 354.578C194.391 353.875 194.066 352.997 194.066 351.943C194.066 351.081 194.308 350.319 194.792 349.656C195.282 348.993 195.949 348.473 196.79 348.095C197.639 347.717 198.6 347.528 199.674 347.528C201.185 347.528 202.372 347.86 203.234 348.523C204.102 349.186 204.719 350.061 205.083 351.148ZM223.411 347.727V349.716H215.496V347.727H223.411ZM217.803 344.068H220.15V358.625C220.15 359.288 220.246 359.785 220.438 360.116C220.637 360.441 220.889 360.66 221.194 360.773C221.505 360.879 221.833 360.932 222.178 360.932C222.436 360.932 222.649 360.919 222.814 360.892C222.98 360.859 223.113 360.832 223.212 360.812L223.689 362.92C223.53 362.98 223.308 363.04 223.023 363.099C222.738 363.166 222.377 363.199 221.939 363.199C221.276 363.199 220.627 363.056 219.99 362.771C219.361 362.486 218.837 362.052 218.419 361.469C218.008 360.885 217.803 360.15 217.803 359.261V344.068ZM232.981 363.318C231.602 363.318 230.393 362.99 229.352 362.334C228.318 361.678 227.509 360.759 226.926 359.58C226.349 358.4 226.061 357.021 226.061 355.443C226.061 353.852 226.349 352.464 226.926 351.277C227.509 350.09 228.318 349.169 229.352 348.513C230.393 347.857 231.602 347.528 232.981 347.528C234.36 347.528 235.566 347.857 236.6 348.513C237.641 349.169 238.45 350.09 239.027 351.277C239.61 352.464 239.902 353.852 239.902 355.443C239.902 357.021 239.61 358.4 239.027 359.58C238.45 360.759 237.641 361.678 236.6 362.334C235.566 362.99 234.36 363.318 232.981 363.318ZM232.981 361.21C234.029 361.21 234.89 360.942 235.566 360.405C236.243 359.868 236.743 359.162 237.068 358.287C237.393 357.412 237.555 356.464 237.555 355.443C237.555 354.422 237.393 353.471 237.068 352.589C236.743 351.708 236.243 350.995 235.566 350.452C234.89 349.908 234.029 349.636 232.981 349.636C231.934 349.636 231.072 349.908 230.396 350.452C229.72 350.995 229.219 351.708 228.895 352.589C228.57 353.471 228.407 354.422 228.407 355.443C228.407 356.464 228.57 357.412 228.895 358.287C229.219 359.162 229.72 359.868 230.396 360.405C231.072 360.942 231.934 361.21 232.981 361.21ZM257.862 363.298C256.29 363.298 254.938 362.98 253.805 362.344C252.678 361.701 251.809 360.793 251.2 359.619C250.59 358.439 250.285 357.044 250.285 355.433C250.285 353.862 250.59 352.483 251.2 351.297C251.809 350.11 252.668 349.186 253.775 348.523C254.888 347.86 256.194 347.528 257.692 347.528C258.7 347.528 259.638 347.691 260.506 348.016C261.381 348.334 262.144 348.814 262.793 349.457C263.45 350.1 263.96 350.909 264.325 351.884C264.689 352.851 264.871 353.985 264.871 355.284V356.447H251.975V353.822H260.884C260.884 353.213 260.752 352.672 260.487 352.202C260.221 351.731 259.853 351.363 259.383 351.098C258.919 350.826 258.379 350.69 257.762 350.69C257.119 350.69 256.549 350.839 256.052 351.138C255.561 351.429 255.177 351.824 254.898 352.321C254.62 352.812 254.478 353.358 254.471 353.962V356.457C254.471 357.213 254.61 357.866 254.888 358.416C255.174 358.966 255.575 359.391 256.092 359.689C256.609 359.987 257.222 360.136 257.931 360.136C258.402 360.136 258.833 360.07 259.224 359.938C259.615 359.805 259.95 359.606 260.228 359.341C260.506 359.076 260.719 358.751 260.864 358.366L264.782 358.625C264.583 359.566 264.175 360.388 263.559 361.091C262.949 361.787 262.16 362.33 261.192 362.722C260.231 363.106 259.121 363.298 257.862 363.298ZM275.849 347.727V350.909H266.423V347.727H275.849ZM268.58 363V346.624C268.58 345.517 268.796 344.598 269.227 343.869C269.664 343.14 270.261 342.593 271.016 342.229C271.772 341.864 272.63 341.682 273.592 341.682C274.241 341.682 274.835 341.732 275.371 341.831C275.915 341.93 276.319 342.02 276.585 342.099L275.829 345.281C275.663 345.228 275.458 345.179 275.212 345.132C274.974 345.086 274.728 345.062 274.477 345.062C273.853 345.062 273.419 345.208 273.174 345.5C272.929 345.785 272.806 346.186 272.806 346.703V363H268.58ZM286.65 347.727V350.909H277.223V347.727H286.65ZM279.381 363V346.624C279.381 345.517 279.596 344.598 280.027 343.869C280.465 343.14 281.061 342.593 281.817 342.229C282.573 341.864 283.431 341.682 284.392 341.682C285.042 341.682 285.635 341.732 286.172 341.831C286.716 341.93 287.12 342.02 287.385 342.099L286.63 345.281C286.464 345.228 286.258 345.179 286.013 345.132C285.775 345.086 285.529 345.062 285.277 345.062C284.654 345.062 284.22 345.208 283.975 345.5C283.73 345.785 283.607 346.186 283.607 346.703V363H279.381ZM295.651 363.298C294.08 363.298 292.727 362.98 291.594 362.344C290.467 361.701 289.598 360.793 288.989 359.619C288.379 358.439 288.074 357.044 288.074 355.433C288.074 353.862 288.379 352.483 288.989 351.297C289.598 350.11 290.457 349.186 291.564 348.523C292.678 347.86 293.983 347.528 295.482 347.528C296.489 347.528 297.427 347.691 298.295 348.016C299.17 348.334 299.933 348.814 300.582 349.457C301.239 350.1 301.749 350.909 302.114 351.884C302.478 352.851 302.661 353.985 302.661 355.284V356.447H289.764V353.822H298.673C298.673 353.213 298.541 352.672 298.276 352.202C298.01 351.731 297.643 351.363 297.172 351.098C296.708 350.826 296.168 350.69 295.551 350.69C294.908 350.69 294.338 350.839 293.841 351.138C293.35 351.429 292.966 351.824 292.688 352.321C292.409 352.812 292.267 353.358 292.26 353.962V356.457C292.26 357.213 292.399 357.866 292.678 358.416C292.963 358.966 293.364 359.391 293.881 359.689C294.398 359.987 295.011 360.136 295.72 360.136C296.191 360.136 296.622 360.07 297.013 359.938C297.404 359.805 297.739 359.606 298.017 359.341C298.295 359.076 298.508 358.751 298.653 358.366L302.571 358.625C302.372 359.566 301.964 360.388 301.348 361.091C300.738 361.787 299.949 362.33 298.982 362.722C298.02 363.106 296.91 363.298 295.651 363.298ZM312.325 363.298C310.761 363.298 309.415 362.967 308.288 362.304C307.168 361.634 306.306 360.706 305.703 359.52C305.107 358.333 304.808 356.968 304.808 355.423C304.808 353.859 305.11 352.487 305.713 351.307C306.323 350.12 307.188 349.196 308.308 348.533C309.429 347.863 310.761 347.528 312.305 347.528C313.638 347.528 314.804 347.77 315.805 348.254C316.806 348.738 317.598 349.418 318.182 350.293C318.765 351.168 319.087 352.195 319.146 353.375H315.149C315.036 352.613 314.738 352 314.254 351.536C313.777 351.065 313.151 350.83 312.375 350.83C311.719 350.83 311.145 351.009 310.655 351.366C310.171 351.718 309.793 352.232 309.521 352.908C309.25 353.584 309.114 354.402 309.114 355.364C309.114 356.338 309.246 357.167 309.511 357.849C309.783 358.532 310.164 359.053 310.655 359.411C311.145 359.768 311.719 359.947 312.375 359.947C312.859 359.947 313.293 359.848 313.678 359.649C314.069 359.45 314.39 359.162 314.642 358.784C314.901 358.4 315.07 357.939 315.149 357.402H319.146C319.08 358.569 318.762 359.596 318.192 360.484C317.628 361.366 316.849 362.055 315.855 362.553C314.861 363.05 313.684 363.298 312.325 363.298ZM329.982 347.727V350.909H320.784V347.727H329.982ZM322.873 344.068H327.108V358.307C327.108 358.698 327.168 359.003 327.287 359.222C327.407 359.434 327.572 359.583 327.784 359.669C328.003 359.755 328.255 359.798 328.54 359.798C328.739 359.798 328.938 359.782 329.137 359.749C329.336 359.709 329.488 359.679 329.594 359.659L330.26 362.811C330.048 362.877 329.75 362.954 329.365 363.04C328.981 363.133 328.514 363.189 327.963 363.209C326.943 363.249 326.048 363.113 325.279 362.801C324.516 362.49 323.923 362.006 323.499 361.349C323.075 360.693 322.866 359.865 322.873 358.864V344.068ZM332.741 363V347.727H336.977V363H332.741ZM334.869 345.759C334.239 345.759 333.699 345.55 333.248 345.132C332.804 344.708 332.582 344.201 332.582 343.611C332.582 343.027 332.804 342.527 333.248 342.109C333.699 341.685 334.239 341.473 334.869 341.473C335.499 341.473 336.036 341.685 336.48 342.109C336.931 342.527 337.156 343.027 337.156 343.611C337.156 344.201 336.931 344.708 336.48 345.132C336.036 345.55 335.499 345.759 334.869 345.759ZM354.609 347.727L349.269 363H344.496L339.157 347.727H343.631L346.803 358.655H346.962L350.124 347.727H354.609ZM363.244 363.298C361.673 363.298 360.321 362.98 359.188 362.344C358.061 361.701 357.192 360.793 356.582 359.619C355.973 358.439 355.668 357.044 355.668 355.433C355.668 353.862 355.973 352.483 356.582 351.297C357.192 350.11 358.051 349.186 359.158 348.523C360.271 347.86 361.577 347.528 363.075 347.528C364.083 347.528 365.021 347.691 365.889 348.016C366.764 348.334 367.527 348.814 368.176 349.457C368.832 350.1 369.343 350.909 369.707 351.884C370.072 352.851 370.254 353.985 370.254 355.284V356.447H357.358V353.822H366.267C366.267 353.213 366.134 352.672 365.869 352.202C365.604 351.731 365.236 351.363 364.766 351.098C364.302 350.826 363.761 350.69 363.145 350.69C362.502 350.69 361.932 350.839 361.435 351.138C360.944 351.429 360.56 351.824 360.281 352.321C360.003 352.812 359.86 353.358 359.854 353.962V356.457C359.854 357.213 359.993 357.866 360.271 358.416C360.556 358.966 360.957 359.391 361.474 359.689C361.991 359.987 362.605 360.136 363.314 360.136C363.785 360.136 364.215 360.07 364.607 359.938C364.998 359.805 365.332 359.606 365.611 359.341C365.889 359.076 366.101 358.751 366.247 358.366L370.165 358.625C369.966 359.566 369.558 360.388 368.942 361.091C368.332 361.787 367.543 362.33 366.575 362.722C365.614 363.106 364.504 363.298 363.244 363.298ZM377.254 342.636V363H373.018V342.636H377.254ZM383.262 368.727C382.725 368.727 382.222 368.684 381.751 368.598C381.287 368.518 380.903 368.416 380.598 368.29L381.552 365.128C382.049 365.28 382.497 365.363 382.895 365.376C383.299 365.39 383.647 365.297 383.939 365.098C384.237 364.899 384.479 364.561 384.664 364.084L384.913 363.438L379.434 347.727H383.889L387.051 358.943H387.21L390.402 347.727H394.886L388.95 364.651C388.665 365.473 388.277 366.188 387.787 366.798C387.303 367.415 386.69 367.889 385.947 368.22C385.205 368.558 384.31 368.727 383.262 368.727ZM410.435 363.298C408.87 363.298 407.525 362.967 406.398 362.304C405.277 361.634 404.416 360.706 403.812 359.52C403.216 358.333 402.918 356.968 402.918 355.423C402.918 353.859 403.219 352.487 403.822 351.307C404.432 350.12 405.297 349.196 406.418 348.533C407.538 347.863 408.87 347.528 410.415 347.528C411.747 347.528 412.914 347.77 413.915 348.254C414.916 348.738 415.708 349.418 416.291 350.293C416.875 351.168 417.196 352.195 417.256 353.375H413.259C413.146 352.613 412.848 352 412.364 351.536C411.886 351.065 411.26 350.83 410.484 350.83C409.828 350.83 409.255 351.009 408.764 351.366C408.28 351.718 407.902 352.232 407.631 352.908C407.359 353.584 407.223 354.402 407.223 355.364C407.223 356.338 407.356 357.167 407.621 357.849C407.893 358.532 408.274 359.053 408.764 359.411C409.255 359.768 409.828 359.947 410.484 359.947C410.968 359.947 411.402 359.848 411.787 359.649C412.178 359.45 412.5 359.162 412.751 358.784C413.01 358.4 413.179 357.939 413.259 357.402H417.256C417.189 358.569 416.871 359.596 416.301 360.484C415.738 361.366 414.959 362.055 413.964 362.553C412.97 363.05 411.794 363.298 410.435 363.298ZM426.868 363.298C425.324 363.298 423.988 362.97 422.861 362.314C421.741 361.651 420.876 360.73 420.266 359.55C419.656 358.363 419.351 356.988 419.351 355.423C419.351 353.846 419.656 352.467 420.266 351.287C420.876 350.1 421.741 349.179 422.861 348.523C423.988 347.86 425.324 347.528 426.868 347.528C428.413 347.528 429.745 347.86 430.865 348.523C431.992 349.179 432.861 350.1 433.471 351.287C434.08 352.467 434.385 353.846 434.385 355.423C434.385 356.988 434.08 358.363 433.471 359.55C432.861 360.73 431.992 361.651 430.865 362.314C429.745 362.97 428.413 363.298 426.868 363.298ZM426.888 360.017C427.591 360.017 428.177 359.818 428.648 359.42C429.119 359.016 429.473 358.466 429.712 357.77C429.957 357.074 430.08 356.282 430.08 355.393C430.08 354.505 429.957 353.713 429.712 353.017C429.473 352.321 429.119 351.771 428.648 351.366C428.177 350.962 427.591 350.76 426.888 350.76C426.179 350.76 425.582 350.962 425.098 351.366C424.621 351.771 424.26 352.321 424.015 353.017C423.776 353.713 423.657 354.505 423.657 355.393C423.657 356.282 423.776 357.074 424.015 357.77C424.26 358.466 424.621 359.016 425.098 359.42C425.582 359.818 426.179 360.017 426.888 360.017ZM437.14 363V347.727H441.176V350.422H441.355C441.674 349.527 442.204 348.821 442.946 348.304C443.689 347.787 444.577 347.528 445.611 347.528C446.658 347.528 447.55 347.79 448.286 348.314C449.022 348.831 449.512 349.534 449.757 350.422H449.917C450.228 349.547 450.792 348.848 451.607 348.324C452.429 347.794 453.4 347.528 454.52 347.528C455.945 347.528 457.102 347.982 457.99 348.891C458.885 349.792 459.333 351.071 459.333 352.729V363H455.107V353.564C455.107 352.715 454.882 352.079 454.431 351.655C453.98 351.231 453.417 351.018 452.74 351.018C451.971 351.018 451.372 351.264 450.941 351.754C450.51 352.238 450.294 352.878 450.294 353.673V363H446.188V353.474C446.188 352.725 445.972 352.129 445.542 351.685C445.117 351.241 444.557 351.018 443.861 351.018C443.391 351.018 442.966 351.138 442.588 351.376C442.217 351.608 441.922 351.937 441.703 352.361C441.485 352.778 441.375 353.269 441.375 353.832V363H437.14ZM462.679 363V347.727H466.716V350.422H466.895C467.213 349.527 467.743 348.821 468.485 348.304C469.228 347.787 470.116 347.528 471.15 347.528C472.198 347.528 473.089 347.79 473.825 348.314C474.561 348.831 475.051 349.534 475.297 350.422H475.456C475.767 349.547 476.331 348.848 477.146 348.324C477.968 347.794 478.939 347.528 480.059 347.528C481.484 347.528 482.641 347.982 483.529 348.891C484.424 349.792 484.872 351.071 484.872 352.729V363H480.646V353.564C480.646 352.715 480.421 352.079 479.97 351.655C479.519 351.231 478.956 351.018 478.279 351.018C477.511 351.018 476.911 351.264 476.48 351.754C476.049 352.238 475.833 352.878 475.833 353.673V363H471.727V353.474C471.727 352.725 471.511 352.129 471.081 351.685C470.656 351.241 470.096 351.018 469.4 351.018C468.93 351.018 468.505 351.138 468.127 351.376C467.756 351.608 467.461 351.937 467.243 352.361C467.024 352.778 466.914 353.269 466.914 353.832V363H462.679ZM498.012 356.497V347.727H502.248V363H498.181V360.226H498.022C497.677 361.121 497.104 361.84 496.301 362.384C495.506 362.927 494.535 363.199 493.388 363.199C492.367 363.199 491.469 362.967 490.694 362.503C489.918 362.039 489.311 361.379 488.874 360.524C488.443 359.669 488.224 358.645 488.218 357.452V347.727H492.453V356.696C492.46 357.598 492.702 358.31 493.179 358.834C493.657 359.357 494.296 359.619 495.098 359.619C495.609 359.619 496.086 359.503 496.53 359.271C496.974 359.033 497.332 358.681 497.604 358.217C497.882 357.753 498.018 357.18 498.012 356.497ZM509.871 354.17V363H505.636V347.727H509.673V350.422H509.852C510.19 349.534 510.756 348.831 511.552 348.314C512.347 347.79 513.312 347.528 514.445 347.528C515.506 347.528 516.431 347.76 517.219 348.224C518.008 348.688 518.621 349.351 519.059 350.213C519.496 351.068 519.715 352.089 519.715 353.276V363H515.479V354.031C515.486 353.097 515.247 352.367 514.763 351.844C514.28 351.313 513.613 351.048 512.765 351.048C512.195 351.048 511.691 351.171 511.254 351.416C510.823 351.661 510.485 352.019 510.239 352.49C510.001 352.954 509.878 353.514 509.871 354.17ZM523.054 363V347.727H527.289V363H523.054ZM525.181 345.759C524.552 345.759 524.011 345.55 523.561 345.132C523.117 344.708 522.895 344.201 522.895 343.611C522.895 343.027 523.117 342.527 523.561 342.109C524.011 341.685 524.552 341.473 525.181 341.473C525.811 341.473 526.348 341.685 526.792 342.109C527.243 342.527 527.468 343.027 527.468 343.611C527.468 344.201 527.243 344.708 526.792 345.132C526.348 345.55 525.811 345.759 525.181 345.759ZM537.583 363.298C536.019 363.298 534.673 362.967 533.546 362.304C532.426 361.634 531.564 360.706 530.961 359.52C530.364 358.333 530.066 356.968 530.066 355.423C530.066 353.859 530.368 352.487 530.971 351.307C531.581 350.12 532.446 349.196 533.566 348.533C534.686 347.863 536.019 347.528 537.563 347.528C538.896 347.528 540.062 347.77 541.063 348.254C542.064 348.738 542.856 349.418 543.44 350.293C544.023 351.168 544.344 352.195 544.404 353.375H540.407C540.294 352.613 539.996 352 539.512 351.536C539.035 351.065 538.408 350.83 537.633 350.83C536.977 350.83 536.403 351.009 535.913 351.366C535.429 351.718 535.051 352.232 534.779 352.908C534.507 353.584 534.371 354.402 534.371 355.364C534.371 356.338 534.504 357.167 534.769 357.849C535.041 358.532 535.422 359.053 535.913 359.411C536.403 359.768 536.977 359.947 537.633 359.947C538.117 359.947 538.551 359.848 538.935 359.649C539.326 359.45 539.648 359.162 539.9 358.784C540.158 358.4 540.327 357.939 540.407 357.402H544.404C544.338 358.569 544.02 359.596 543.45 360.484C542.886 361.366 542.107 362.055 541.113 362.553C540.119 363.05 538.942 363.298 537.583 363.298ZM551.471 363.288C550.497 363.288 549.628 363.119 548.866 362.781C548.104 362.437 547.501 361.929 547.056 361.26C546.619 360.584 546.4 359.742 546.4 358.734C546.4 357.886 546.556 357.173 546.868 356.597C547.179 356.02 547.603 355.556 548.14 355.205C548.677 354.853 549.287 354.588 549.97 354.409C550.659 354.23 551.382 354.104 552.137 354.031C553.026 353.938 553.742 353.852 554.285 353.773C554.829 353.687 555.223 353.561 555.468 353.395C555.714 353.229 555.836 352.984 555.836 352.659V352.599C555.836 351.97 555.637 351.482 555.24 351.138C554.849 350.793 554.292 350.621 553.569 350.621C552.807 350.621 552.2 350.79 551.75 351.128C551.299 351.459 551.001 351.877 550.855 352.381L546.937 352.062C547.136 351.134 547.527 350.332 548.11 349.656C548.694 348.973 549.446 348.45 550.368 348.085C551.296 347.714 552.369 347.528 553.589 347.528C554.438 347.528 555.25 347.628 556.025 347.827C556.807 348.026 557.5 348.334 558.103 348.751C558.713 349.169 559.194 349.706 559.545 350.362C559.896 351.012 560.072 351.791 560.072 352.699V363H556.055V360.882H555.936C555.69 361.359 555.362 361.78 554.951 362.145C554.54 362.503 554.047 362.785 553.47 362.99C552.893 363.189 552.227 363.288 551.471 363.288ZM552.684 360.365C553.307 360.365 553.858 360.242 554.335 359.997C554.812 359.745 555.187 359.407 555.458 358.983C555.73 358.559 555.866 358.078 555.866 357.541V355.92C555.734 356.007 555.551 356.086 555.319 356.159C555.094 356.225 554.839 356.288 554.554 356.348C554.269 356.401 553.984 356.451 553.699 356.497C553.413 356.537 553.155 356.573 552.923 356.607C552.426 356.679 551.992 356.795 551.62 356.955C551.249 357.114 550.961 357.329 550.755 357.601C550.55 357.866 550.447 358.197 550.447 358.595C550.447 359.172 550.656 359.613 551.074 359.918C551.498 360.216 552.035 360.365 552.684 360.365ZM571.482 347.727V350.909H562.284V347.727H571.482ZM564.373 344.068H568.608V358.307C568.608 358.698 568.668 359.003 568.787 359.222C568.907 359.434 569.072 359.583 569.284 359.669C569.503 359.755 569.755 359.798 570.04 359.798C570.239 359.798 570.438 359.782 570.637 359.749C570.836 359.709 570.988 359.679 571.094 359.659L571.76 362.811C571.548 362.877 571.25 362.954 570.865 363.04C570.481 363.133 570.014 363.189 569.463 363.209C568.443 363.249 567.548 363.113 566.779 362.801C566.016 362.49 565.423 362.006 564.999 361.349C564.575 360.693 564.366 359.865 564.373 358.864V344.068ZM581.037 363.298C579.466 363.298 578.114 362.98 576.98 362.344C575.854 361.701 574.985 360.793 574.375 359.619C573.766 358.439 573.461 357.044 573.461 355.433C573.461 353.862 573.766 352.483 574.375 351.297C574.985 350.11 575.844 349.186 576.951 348.523C578.064 347.86 579.37 347.528 580.868 347.528C581.876 347.528 582.814 347.691 583.682 348.016C584.557 348.334 585.319 348.814 585.969 349.457C586.625 350.1 587.136 350.909 587.5 351.884C587.865 352.851 588.047 353.985 588.047 355.284V356.447H575.151V353.822H584.06C584.06 353.213 583.927 352.672 583.662 352.202C583.397 351.731 583.029 351.363 582.559 351.098C582.095 350.826 581.554 350.69 580.938 350.69C580.295 350.69 579.725 350.839 579.228 351.138C578.737 351.429 578.353 351.824 578.074 352.321C577.796 352.812 577.653 353.358 577.647 353.962V356.457C577.647 357.213 577.786 357.866 578.064 358.416C578.349 358.966 578.75 359.391 579.267 359.689C579.784 359.987 580.398 360.136 581.107 360.136C581.578 360.136 582.008 360.07 582.4 359.938C582.791 359.805 583.125 359.606 583.404 359.341C583.682 359.076 583.894 358.751 584.04 358.366L587.958 358.625C587.759 359.566 587.351 360.388 586.735 361.091C586.125 361.787 585.336 362.33 584.368 362.722C583.407 363.106 582.297 363.298 581.037 363.298ZM600.655 368.727C600.257 368.727 599.903 368.694 599.591 368.628C599.28 368.568 599.064 368.509 598.945 368.449L599.542 366.381C600.112 366.527 600.615 366.58 601.053 366.54C601.49 366.5 601.878 366.304 602.216 365.953C602.561 365.608 602.876 365.048 603.161 364.273L603.598 363.08L597.951 347.727H600.496L604.712 359.898H604.871L609.087 347.727H611.632L605.15 365.227C604.858 366.016 604.497 366.669 604.066 367.186C603.635 367.71 603.134 368.098 602.564 368.349C602.001 368.601 601.364 368.727 600.655 368.727ZM620.387 363.318C619.009 363.318 617.799 362.99 616.758 362.334C615.724 361.678 614.915 360.759 614.332 359.58C613.755 358.4 613.467 357.021 613.467 355.443C613.467 353.852 613.755 352.464 614.332 351.277C614.915 350.09 615.724 349.169 616.758 348.513C617.799 347.857 619.009 347.528 620.387 347.528C621.766 347.528 622.973 347.857 624.007 348.513C625.047 349.169 625.856 350.09 626.433 351.277C627.016 352.464 627.308 353.852 627.308 355.443C627.308 357.021 627.016 358.4 626.433 359.58C625.856 360.759 625.047 361.678 624.007 362.334C622.973 362.99 621.766 363.318 620.387 363.318ZM620.387 361.21C621.435 361.21 622.297 360.942 622.973 360.405C623.649 359.868 624.149 359.162 624.474 358.287C624.799 357.412 624.961 356.464 624.961 355.443C624.961 354.422 624.799 353.471 624.474 352.589C624.149 351.708 623.649 350.995 622.973 350.452C622.297 349.908 621.435 349.636 620.387 349.636C619.34 349.636 618.478 349.908 617.802 350.452C617.126 350.995 616.626 351.708 616.301 352.589C615.976 353.471 615.814 354.422 615.814 355.443C615.814 356.464 615.976 357.412 616.301 358.287C616.626 359.162 617.126 359.868 617.802 360.405C618.478 360.942 619.34 361.21 620.387 361.21ZM640.515 356.756V347.727H642.862V363H640.515V360.415H640.356C639.998 361.19 639.441 361.85 638.685 362.393C637.93 362.93 636.975 363.199 635.822 363.199C634.867 363.199 634.019 362.99 633.276 362.572C632.534 362.148 631.951 361.512 631.526 360.663C631.102 359.808 630.89 358.731 630.89 357.432V347.727H633.237V357.273C633.237 358.386 633.548 359.275 634.171 359.938C634.801 360.6 635.603 360.932 636.577 360.932C637.161 360.932 637.754 360.783 638.357 360.484C638.967 360.186 639.478 359.729 639.888 359.112C640.306 358.496 640.515 357.71 640.515 356.756ZM647.159 363V347.727H649.426V350.034H649.586C649.864 349.278 650.368 348.665 651.097 348.195C651.826 347.724 652.648 347.489 653.563 347.489C653.735 347.489 653.951 347.492 654.209 347.499C654.468 347.505 654.663 347.515 654.796 347.528V349.915C654.716 349.895 654.534 349.865 654.249 349.825C653.971 349.779 653.676 349.756 653.364 349.756C652.622 349.756 651.959 349.911 651.375 350.223C650.799 350.528 650.341 350.952 650.003 351.496C649.672 352.033 649.506 352.646 649.506 353.335V363H647.159ZM128.148 410.727V389.727H130.415V392.153H130.693C130.866 391.888 131.104 391.55 131.409 391.139C131.721 390.722 132.165 390.35 132.741 390.026C133.325 389.694 134.114 389.528 135.108 389.528C136.394 389.528 137.527 389.85 138.509 390.493C139.49 391.136 140.255 392.047 140.805 393.227C141.356 394.407 141.631 395.799 141.631 397.403C141.631 399.021 141.356 400.423 140.805 401.609C140.255 402.789 139.493 403.704 138.518 404.354C137.544 404.997 136.42 405.318 135.148 405.318C134.167 405.318 133.381 405.156 132.791 404.831C132.201 404.5 131.747 404.125 131.429 403.707C131.111 403.283 130.866 402.932 130.693 402.653H130.494V410.727H128.148ZM130.455 397.364C130.455 398.517 130.624 399.535 130.962 400.416C131.3 401.291 131.794 401.977 132.443 402.474C133.093 402.965 133.888 403.21 134.83 403.21C135.811 403.21 136.629 402.952 137.286 402.435C137.948 401.911 138.446 401.208 138.777 400.327C139.115 399.438 139.284 398.451 139.284 397.364C139.284 396.29 139.118 395.322 138.787 394.46C138.462 393.592 137.968 392.906 137.305 392.402C136.649 391.892 135.824 391.636 134.83 391.636C133.875 391.636 133.073 391.878 132.423 392.362C131.774 392.839 131.283 393.509 130.952 394.371C130.62 395.226 130.455 396.223 130.455 397.364ZM145.21 405V389.727H147.477V392.034H147.636C147.915 391.278 148.419 390.665 149.148 390.195C149.877 389.724 150.699 389.489 151.614 389.489C151.786 389.489 152.001 389.492 152.26 389.499C152.518 389.505 152.714 389.515 152.847 389.528V391.915C152.767 391.895 152.585 391.865 152.3 391.825C152.021 391.779 151.726 391.756 151.415 391.756C150.672 391.756 150.009 391.911 149.426 392.223C148.849 392.528 148.392 392.952 148.054 393.496C147.723 394.033 147.557 394.646 147.557 395.335V405H145.21ZM161.368 405.318C159.989 405.318 158.779 404.99 157.739 404.334C156.705 403.678 155.896 402.759 155.312 401.58C154.736 400.4 154.447 399.021 154.447 397.443C154.447 395.852 154.736 394.464 155.312 393.277C155.896 392.09 156.705 391.169 157.739 390.513C158.779 389.857 159.989 389.528 161.368 389.528C162.747 389.528 163.953 389.857 164.987 390.513C166.028 391.169 166.837 392.09 167.413 393.277C167.997 394.464 168.288 395.852 168.288 397.443C168.288 399.021 167.997 400.4 167.413 401.58C166.837 402.759 166.028 403.678 164.987 404.334C163.953 404.99 162.747 405.318 161.368 405.318ZM161.368 403.21C162.415 403.21 163.277 402.942 163.953 402.405C164.629 401.868 165.13 401.162 165.455 400.287C165.779 399.412 165.942 398.464 165.942 397.443C165.942 396.422 165.779 395.471 165.455 394.589C165.13 393.708 164.629 392.995 163.953 392.452C163.277 391.908 162.415 391.636 161.368 391.636C160.321 391.636 159.459 391.908 158.783 392.452C158.107 392.995 157.606 393.708 157.281 394.589C156.956 395.471 156.794 396.422 156.794 397.443C156.794 398.464 156.956 399.412 157.281 400.287C157.606 401.162 158.107 401.868 158.783 402.405C159.459 402.942 160.321 403.21 161.368 403.21ZM171.87 389.727H174.217V406.114C174.217 407.055 174.055 407.87 173.73 408.56C173.412 409.249 172.928 409.783 172.278 410.161C171.635 410.538 170.823 410.727 169.842 410.727C169.762 410.727 169.683 410.727 169.603 410.727C169.524 410.727 169.444 410.727 169.365 410.727V408.54C169.444 408.54 169.517 408.54 169.583 408.54C169.65 408.54 169.723 408.54 169.802 408.54C170.518 408.54 171.042 408.328 171.373 407.903C171.705 407.486 171.87 406.889 171.87 406.114V389.727ZM173.024 387.182C172.566 387.182 172.172 387.026 171.841 386.714C171.516 386.403 171.353 386.028 171.353 385.591C171.353 385.153 171.516 384.779 171.841 384.467C172.172 384.156 172.566 384 173.024 384C173.481 384 173.872 384.156 174.197 384.467C174.529 384.779 174.694 385.153 174.694 385.591C174.694 386.028 174.529 386.403 174.197 386.714C173.872 387.026 173.481 387.182 173.024 387.182ZM184.918 405.318C183.447 405.318 182.177 404.993 181.11 404.344C180.049 403.688 179.231 402.773 178.654 401.599C178.084 400.42 177.799 399.047 177.799 397.483C177.799 395.919 178.084 394.54 178.654 393.347C179.231 392.147 180.033 391.212 181.06 390.543C182.094 389.866 183.301 389.528 184.68 389.528C185.475 389.528 186.261 389.661 187.036 389.926C187.812 390.191 188.518 390.622 189.154 391.219C189.79 391.809 190.298 392.591 190.675 393.565C191.053 394.54 191.242 395.74 191.242 397.165V398.159H179.469V396.131H188.856C188.856 395.269 188.683 394.5 188.339 393.824C188.001 393.148 187.517 392.614 186.887 392.223C186.264 391.832 185.528 391.636 184.68 391.636C183.745 391.636 182.936 391.868 182.254 392.332C181.577 392.79 181.057 393.386 180.692 394.122C180.328 394.858 180.146 395.647 180.146 396.489V397.841C180.146 398.994 180.344 399.972 180.742 400.774C181.147 401.57 181.707 402.176 182.423 402.594C183.138 403.005 183.97 403.21 184.918 403.21C185.535 403.21 186.092 403.124 186.589 402.952C187.093 402.773 187.527 402.508 187.891 402.156C188.256 401.798 188.538 401.354 188.737 400.824L191.004 401.46C190.765 402.229 190.364 402.905 189.8 403.489C189.237 404.065 188.541 404.516 187.712 404.841C186.884 405.159 185.952 405.318 184.918 405.318ZM201.016 405.318C199.585 405.318 198.352 404.98 197.317 404.304C196.283 403.628 195.488 402.696 194.931 401.51C194.374 400.323 194.096 398.968 194.096 397.443C194.096 395.892 194.381 394.523 194.951 393.337C195.528 392.143 196.33 391.212 197.357 390.543C198.391 389.866 199.598 389.528 200.977 389.528C202.05 389.528 203.018 389.727 203.88 390.125C204.742 390.523 205.448 391.08 205.998 391.795C206.548 392.511 206.889 393.347 207.022 394.301H204.675C204.496 393.605 204.099 392.989 203.482 392.452C202.872 391.908 202.05 391.636 201.016 391.636C200.102 391.636 199.299 391.875 198.61 392.352C197.927 392.823 197.394 393.489 197.009 394.351C196.631 395.206 196.442 396.21 196.442 397.364C196.442 398.544 196.628 399.571 196.999 400.446C197.377 401.321 197.907 402 198.59 402.484C199.28 402.968 200.088 403.21 201.016 403.21C201.626 403.21 202.18 403.104 202.677 402.892C203.174 402.68 203.595 402.375 203.94 401.977C204.284 401.58 204.53 401.102 204.675 400.545H207.022C206.889 401.447 206.561 402.259 206.038 402.982C205.521 403.697 204.835 404.268 203.979 404.692C203.131 405.109 202.143 405.318 201.016 405.318ZM217.094 389.727V391.716H209.18V389.727H217.094ZM211.487 386.068H213.833V400.625C213.833 401.288 213.929 401.785 214.121 402.116C214.32 402.441 214.572 402.66 214.877 402.773C215.189 402.879 215.517 402.932 215.862 402.932C216.12 402.932 216.332 402.919 216.498 402.892C216.664 402.859 216.796 402.832 216.896 402.812L217.373 404.92C217.214 404.98 216.992 405.04 216.707 405.099C216.422 405.166 216.06 405.199 215.623 405.199C214.96 405.199 214.31 405.056 213.674 404.771C213.044 404.486 212.521 404.052 212.103 403.469C211.692 402.885 211.487 402.15 211.487 401.261V386.068ZM231.169 393.148L229.061 393.744C228.929 393.393 228.733 393.052 228.474 392.72C228.223 392.382 227.878 392.104 227.44 391.885C227.003 391.666 226.443 391.557 225.76 391.557C224.825 391.557 224.046 391.772 223.423 392.203C222.807 392.627 222.499 393.168 222.499 393.824C222.499 394.407 222.711 394.868 223.135 395.206C223.559 395.544 224.222 395.826 225.124 396.051L227.391 396.608C228.756 396.939 229.774 397.446 230.443 398.129C231.113 398.805 231.447 399.677 231.447 400.744C231.447 401.619 231.196 402.402 230.692 403.091C230.195 403.78 229.499 404.324 228.604 404.722C227.709 405.119 226.668 405.318 225.482 405.318C223.924 405.318 222.634 404.98 221.614 404.304C220.593 403.628 219.946 402.64 219.675 401.341L221.902 400.784C222.114 401.606 222.515 402.223 223.105 402.634C223.702 403.045 224.481 403.25 225.442 403.25C226.536 403.25 227.404 403.018 228.047 402.554C228.696 402.083 229.021 401.52 229.021 400.864C229.021 400.333 228.836 399.889 228.464 399.531C228.093 399.167 227.523 398.895 226.754 398.716L224.209 398.119C222.81 397.788 221.783 397.274 221.126 396.578C220.477 395.875 220.152 394.997 220.152 393.943C220.152 393.081 220.394 392.319 220.878 391.656C221.368 390.993 222.035 390.473 222.876 390.095C223.725 389.717 224.686 389.528 225.76 389.528C227.271 389.528 228.458 389.86 229.32 390.523C230.188 391.186 230.804 392.061 231.169 393.148ZM247.349 405.358C246.381 405.358 245.503 405.176 244.714 404.811C243.925 404.44 243.299 403.906 242.835 403.21C242.371 402.508 242.139 401.659 242.139 400.665C242.139 399.79 242.311 399.08 242.656 398.537C243.001 397.987 243.461 397.556 244.038 397.244C244.615 396.933 245.251 396.701 245.947 396.548C246.65 396.389 247.356 396.263 248.065 396.17C248.993 396.051 249.745 395.962 250.322 395.902C250.905 395.836 251.33 395.726 251.595 395.574C251.867 395.421 252.002 395.156 252.002 394.778V394.699C252.002 393.718 251.734 392.955 251.197 392.412C250.667 391.868 249.861 391.597 248.781 391.597C247.661 391.597 246.782 391.842 246.146 392.332C245.51 392.823 245.062 393.347 244.804 393.903L242.576 393.108C242.974 392.18 243.504 391.457 244.167 390.94C244.837 390.417 245.566 390.052 246.355 389.847C247.15 389.634 247.932 389.528 248.701 389.528C249.192 389.528 249.755 389.588 250.392 389.707C251.035 389.82 251.654 390.055 252.251 390.413C252.854 390.771 253.355 391.312 253.752 392.034C254.15 392.757 254.349 393.724 254.349 394.938V405H252.002V402.932H251.883C251.724 403.263 251.459 403.618 251.088 403.996C250.717 404.374 250.223 404.695 249.606 404.96C248.99 405.225 248.237 405.358 247.349 405.358ZM247.707 403.25C248.635 403.25 249.417 403.068 250.054 402.703C250.697 402.339 251.181 401.868 251.505 401.291C251.837 400.714 252.002 400.108 252.002 399.472V397.324C251.903 397.443 251.684 397.553 251.346 397.652C251.015 397.745 250.63 397.828 250.193 397.901C249.762 397.967 249.341 398.027 248.93 398.08C248.526 398.126 248.198 398.166 247.946 398.199C247.336 398.278 246.766 398.408 246.235 398.587C245.712 398.759 245.288 399.021 244.963 399.372C244.645 399.717 244.485 400.187 244.485 400.784C244.485 401.599 244.787 402.216 245.39 402.634C246 403.045 246.772 403.25 247.707 403.25ZM260.979 395.812V405H258.632V389.727H260.899V392.114H261.098C261.456 391.338 262 390.715 262.729 390.244C263.458 389.767 264.399 389.528 265.553 389.528C266.587 389.528 267.491 389.741 268.267 390.165C269.043 390.582 269.646 391.219 270.077 392.074C270.508 392.922 270.723 393.996 270.723 395.295V405H268.376V395.455C268.376 394.255 268.065 393.32 267.442 392.651C266.819 391.974 265.964 391.636 264.876 391.636C264.127 391.636 263.458 391.799 262.868 392.124C262.285 392.448 261.824 392.922 261.486 393.545C261.148 394.169 260.979 394.924 260.979 395.812ZM280.778 405.318C279.505 405.318 278.382 404.997 277.407 404.354C276.433 403.704 275.671 402.789 275.12 401.609C274.57 400.423 274.295 399.021 274.295 397.403C274.295 395.799 274.57 394.407 275.12 393.227C275.671 392.047 276.436 391.136 277.417 390.493C278.398 389.85 279.532 389.528 280.818 389.528C281.812 389.528 282.598 389.694 283.174 390.026C283.758 390.35 284.202 390.722 284.507 391.139C284.818 391.55 285.06 391.888 285.233 392.153H285.431V384.636H287.778V405H285.511V402.653H285.233C285.06 402.932 284.815 403.283 284.497 403.707C284.179 404.125 283.725 404.5 283.135 404.831C282.545 405.156 281.759 405.318 280.778 405.318ZM281.096 403.21C282.038 403.21 282.833 402.965 283.483 402.474C284.132 401.977 284.626 401.291 284.964 400.416C285.302 399.535 285.471 398.517 285.471 397.364C285.471 396.223 285.306 395.226 284.974 394.371C284.643 393.509 284.152 392.839 283.502 392.362C282.853 391.878 282.051 391.636 281.096 391.636C280.102 391.636 279.273 391.892 278.61 392.402C277.954 392.906 277.46 393.592 277.129 394.46C276.804 395.322 276.642 396.29 276.642 397.364C276.642 398.451 276.807 399.438 277.139 400.327C277.477 401.208 277.974 401.911 278.63 402.435C279.293 402.952 280.115 403.21 281.096 403.21ZM300.277 405V389.727H302.544V392.034H302.703C302.981 391.278 303.485 390.665 304.214 390.195C304.943 389.724 305.765 389.489 306.68 389.489C306.852 389.489 307.068 389.492 307.326 389.499C307.585 389.505 307.78 389.515 307.913 389.528V391.915C307.833 391.895 307.651 391.865 307.366 391.825C307.088 391.779 306.793 391.756 306.481 391.756C305.739 391.756 305.076 391.911 304.493 392.223C303.916 392.528 303.458 392.952 303.12 393.496C302.789 394.033 302.623 394.646 302.623 395.335V405H300.277ZM316.633 405.318C315.162 405.318 313.892 404.993 312.825 404.344C311.764 403.688 310.946 402.773 310.369 401.599C309.799 400.42 309.514 399.047 309.514 397.483C309.514 395.919 309.799 394.54 310.369 393.347C310.946 392.147 311.748 391.212 312.775 390.543C313.809 389.866 315.016 389.528 316.395 389.528C317.19 389.528 317.975 389.661 318.751 389.926C319.527 390.191 320.233 390.622 320.869 391.219C321.505 391.809 322.012 392.591 322.39 393.565C322.768 394.54 322.957 395.74 322.957 397.165V398.159H311.184V396.131H320.571C320.571 395.269 320.398 394.5 320.054 393.824C319.716 393.148 319.232 392.614 318.602 392.223C317.979 391.832 317.243 391.636 316.395 391.636C315.46 391.636 314.651 391.868 313.968 392.332C313.292 392.79 312.772 393.386 312.407 394.122C312.043 394.858 311.86 395.647 311.86 396.489V397.841C311.86 398.994 312.059 399.972 312.457 400.774C312.861 401.57 313.422 402.176 314.137 402.594C314.853 403.005 315.685 403.21 316.633 403.21C317.25 403.21 317.806 403.124 318.304 402.952C318.807 402.773 319.242 402.508 319.606 402.156C319.971 401.798 320.252 401.354 320.451 400.824L322.718 401.46C322.48 402.229 322.079 402.905 321.515 403.489C320.952 404.065 320.256 404.516 319.427 404.841C318.599 405.159 317.667 405.318 316.633 405.318ZM337.345 393.148L335.237 393.744C335.104 393.393 334.909 393.052 334.65 392.72C334.398 392.382 334.054 392.104 333.616 391.885C333.179 391.666 332.618 391.557 331.936 391.557C331.001 391.557 330.222 391.772 329.599 392.203C328.983 392.627 328.674 393.168 328.674 393.824C328.674 394.407 328.886 394.868 329.311 395.206C329.735 395.544 330.398 395.826 331.299 396.051L333.566 396.608C334.932 396.939 335.949 397.446 336.619 398.129C337.288 398.805 337.623 399.677 337.623 400.744C337.623 401.619 337.371 402.402 336.868 403.091C336.37 403.78 335.674 404.324 334.779 404.722C333.885 405.119 332.844 405.318 331.657 405.318C330.1 405.318 328.81 404.98 327.789 404.304C326.769 403.628 326.122 402.64 325.85 401.341L328.078 400.784C328.29 401.606 328.691 402.223 329.281 402.634C329.877 403.045 330.656 403.25 331.618 403.25C332.711 403.25 333.58 403.018 334.223 402.554C334.872 402.083 335.197 401.52 335.197 400.864C335.197 400.333 335.011 399.889 334.64 399.531C334.269 399.167 333.699 398.895 332.93 398.716L330.385 398.119C328.986 397.788 327.958 397.274 327.302 396.578C326.653 395.875 326.328 394.997 326.328 393.943C326.328 393.081 326.57 392.319 327.054 391.656C327.544 390.993 328.21 390.473 329.052 390.095C329.901 389.717 330.862 389.528 331.936 389.528C333.447 389.528 334.634 389.86 335.495 390.523C336.364 391.186 336.98 392.061 337.345 393.148ZM347.559 405.318C346.087 405.318 344.818 404.993 343.751 404.344C342.69 403.688 341.871 402.773 341.295 401.599C340.725 400.42 340.44 399.047 340.44 397.483C340.44 395.919 340.725 394.54 341.295 393.347C341.871 392.147 342.674 391.212 343.701 390.543C344.735 389.866 345.942 389.528 347.32 389.528C348.116 389.528 348.901 389.661 349.677 389.926C350.452 390.191 351.158 390.622 351.795 391.219C352.431 391.809 352.938 392.591 353.316 393.565C353.694 394.54 353.883 395.74 353.883 397.165V398.159H342.11V396.131H351.496C351.496 395.269 351.324 394.5 350.979 393.824C350.641 393.148 350.157 392.614 349.528 392.223C348.905 391.832 348.169 391.636 347.32 391.636C346.386 391.636 345.577 391.868 344.894 392.332C344.218 392.79 343.698 393.386 343.333 394.122C342.969 394.858 342.786 395.647 342.786 396.489V397.841C342.786 398.994 342.985 399.972 343.383 400.774C343.787 401.57 344.347 402.176 345.063 402.594C345.779 403.005 346.611 403.21 347.559 403.21C348.175 403.21 348.732 403.124 349.229 402.952C349.733 402.773 350.167 402.508 350.532 402.156C350.897 401.798 351.178 401.354 351.377 400.824L353.644 401.46C353.406 402.229 353.004 402.905 352.441 403.489C351.878 404.065 351.182 404.516 350.353 404.841C349.524 405.159 348.593 405.318 347.559 405.318ZM361.947 405.358C360.979 405.358 360.101 405.176 359.312 404.811C358.523 404.44 357.897 403.906 357.433 403.21C356.969 402.508 356.737 401.659 356.737 400.665C356.737 399.79 356.909 399.08 357.254 398.537C357.598 397.987 358.059 397.556 358.636 397.244C359.212 396.933 359.849 396.701 360.545 396.548C361.247 396.389 361.953 396.263 362.663 396.17C363.591 396.051 364.343 395.962 364.92 395.902C365.503 395.836 365.927 395.726 366.192 395.574C366.464 395.421 366.6 395.156 366.6 394.778V394.699C366.6 393.718 366.332 392.955 365.795 392.412C365.264 391.868 364.459 391.597 363.379 391.597C362.258 391.597 361.38 391.842 360.744 392.332C360.107 392.823 359.66 393.347 359.401 393.903L357.174 393.108C357.572 392.18 358.102 391.457 358.765 390.94C359.434 390.417 360.164 390.052 360.952 389.847C361.748 389.634 362.53 389.528 363.299 389.528C363.79 389.528 364.353 389.588 364.989 389.707C365.632 389.82 366.252 390.055 366.849 390.413C367.452 390.771 367.952 391.312 368.35 392.034C368.748 392.757 368.947 393.724 368.947 394.938V405H366.6V402.932H366.481C366.322 403.263 366.057 403.618 365.685 403.996C365.314 404.374 364.82 404.695 364.204 404.96C363.587 405.225 362.835 405.358 361.947 405.358ZM362.305 403.25C363.233 403.25 364.015 403.068 364.651 402.703C365.294 402.339 365.778 401.868 366.103 401.291C366.434 400.714 366.6 400.108 366.6 399.472V397.324C366.501 397.443 366.282 397.553 365.944 397.652C365.612 397.745 365.228 397.828 364.79 397.901C364.36 397.967 363.939 398.027 363.528 398.08C363.123 398.126 362.795 398.166 362.543 398.199C361.933 398.278 361.363 398.408 360.833 398.587C360.309 398.759 359.885 399.021 359.56 399.372C359.242 399.717 359.083 400.187 359.083 400.784C359.083 401.599 359.385 402.216 359.988 402.634C360.598 403.045 361.37 403.25 362.305 403.25ZM373.23 405V389.727H375.497V392.034H375.656C375.934 391.278 376.438 390.665 377.167 390.195C377.896 389.724 378.718 389.489 379.633 389.489C379.806 389.489 380.021 389.492 380.279 389.499C380.538 389.505 380.734 389.515 380.866 389.528V391.915C380.787 391.895 380.604 391.865 380.319 391.825C380.041 391.779 379.746 391.756 379.434 391.756C378.692 391.756 378.029 391.911 377.446 392.223C376.869 392.528 376.412 392.952 376.074 393.496C375.742 394.033 375.576 394.646 375.576 395.335V405H373.23ZM389.387 405.318C387.956 405.318 386.723 404.98 385.689 404.304C384.654 403.628 383.859 402.696 383.302 401.51C382.745 400.323 382.467 398.968 382.467 397.443C382.467 395.892 382.752 394.523 383.322 393.337C383.899 392.143 384.701 391.212 385.728 390.543C386.762 389.866 387.969 389.528 389.348 389.528C390.422 389.528 391.389 389.727 392.251 390.125C393.113 390.523 393.819 391.08 394.369 391.795C394.919 392.511 395.261 393.347 395.393 394.301H393.047C392.868 393.605 392.47 392.989 391.853 392.452C391.243 391.908 390.422 391.636 389.387 391.636C388.473 391.636 387.671 391.875 386.981 392.352C386.298 392.823 385.765 393.489 385.38 394.351C385.002 395.206 384.814 396.21 384.814 397.364C384.814 398.544 384.999 399.571 385.37 400.446C385.748 401.321 386.279 402 386.961 402.484C387.651 402.968 388.459 403.21 389.387 403.21C389.997 403.21 390.551 403.104 391.048 402.892C391.545 402.68 391.966 402.375 392.311 401.977C392.655 401.58 392.901 401.102 393.047 400.545H395.393C395.261 401.447 394.932 402.259 394.409 402.982C393.892 403.697 393.206 404.268 392.35 404.692C391.502 405.109 390.514 405.318 389.387 405.318ZM401.17 395.812V405H398.824V384.636H401.17V392.114H401.369C401.727 391.325 402.264 390.698 402.98 390.234C403.702 389.764 404.663 389.528 405.863 389.528C406.904 389.528 407.815 389.737 408.598 390.155C409.38 390.566 409.986 391.199 410.417 392.054C410.855 392.902 411.074 393.983 411.074 395.295V405H408.727V395.455C408.727 394.241 408.412 393.304 407.782 392.641C407.159 391.971 406.294 391.636 405.187 391.636C404.418 391.636 403.729 391.799 403.119 392.124C402.516 392.448 402.038 392.922 401.687 393.545C401.342 394.169 401.17 394.924 401.17 395.812ZM417.077 405.159C416.586 405.159 416.165 404.983 415.814 404.632C415.463 404.281 415.287 403.86 415.287 403.369C415.287 402.879 415.463 402.458 415.814 402.107C416.165 401.755 416.586 401.58 417.077 401.58C417.567 401.58 417.988 401.755 418.339 402.107C418.691 402.458 418.866 402.879 418.866 403.369C418.866 403.694 418.784 403.992 418.618 404.264C418.459 404.536 418.243 404.755 417.972 404.92C417.706 405.08 417.408 405.159 417.077 405.159Z" fill="#1A1A1A"/>
</svg>
