<svg width="800" height="600" viewBox="0 0 800 600" fill="none" xmlns="http://www.w3.org/2000/svg">
<rect width="800" height="600" fill="white"/>
<path d="M217.528 175V145.909H223.679V157.912H236.165V145.909H242.301V175H236.165V162.983H223.679V175H217.528ZM257.202 175.426C254.957 175.426 253.026 174.972 251.406 174.062C249.796 173.144 248.556 171.847 247.685 170.17C246.813 168.485 246.378 166.491 246.378 164.19C246.378 161.946 246.813 159.976 247.685 158.281C248.556 156.586 249.782 155.265 251.364 154.318C252.955 153.371 254.82 152.898 256.96 152.898C258.4 152.898 259.74 153.13 260.98 153.594C262.23 154.048 263.319 154.735 264.247 155.653C265.185 156.572 265.914 157.727 266.435 159.119C266.955 160.502 267.216 162.121 267.216 163.977V165.639H248.793V161.889H261.52C261.52 161.018 261.33 160.246 260.952 159.574C260.573 158.902 260.047 158.376 259.375 157.997C258.712 157.609 257.94 157.415 257.06 157.415C256.141 157.415 255.327 157.628 254.616 158.054C253.916 158.471 253.366 159.034 252.969 159.744C252.571 160.445 252.367 161.226 252.358 162.088V165.653C252.358 166.733 252.557 167.666 252.955 168.452C253.362 169.238 253.935 169.844 254.673 170.27C255.412 170.696 256.288 170.909 257.301 170.909C257.973 170.909 258.589 170.814 259.148 170.625C259.706 170.436 260.185 170.152 260.582 169.773C260.98 169.394 261.283 168.93 261.491 168.381L267.088 168.75C266.804 170.095 266.222 171.269 265.341 172.273C264.47 173.267 263.343 174.044 261.96 174.602C260.587 175.152 259.001 175.426 257.202 175.426ZM277.386 175.412C275.994 175.412 274.754 175.17 273.665 174.688C272.576 174.195 271.714 173.471 271.08 172.514C270.455 171.548 270.142 170.346 270.142 168.906C270.142 167.694 270.365 166.676 270.81 165.852C271.255 165.028 271.861 164.366 272.628 163.864C273.395 163.362 274.266 162.983 275.241 162.727C276.226 162.472 277.259 162.292 278.338 162.188C279.607 162.055 280.63 161.932 281.406 161.818C282.183 161.695 282.746 161.515 283.097 161.278C283.447 161.042 283.622 160.691 283.622 160.227V160.142C283.622 159.242 283.338 158.546 282.77 158.054C282.211 157.562 281.416 157.315 280.384 157.315C279.295 157.315 278.428 157.557 277.784 158.04C277.14 158.513 276.714 159.11 276.506 159.83L270.909 159.375C271.193 158.049 271.752 156.903 272.585 155.938C273.419 154.962 274.493 154.214 275.81 153.693C277.135 153.163 278.67 152.898 280.412 152.898C281.624 152.898 282.784 153.04 283.892 153.324C285.009 153.608 285.999 154.048 286.861 154.645C287.732 155.241 288.419 156.009 288.92 156.946C289.422 157.874 289.673 158.987 289.673 160.284V175H283.935V171.974H283.764C283.414 172.656 282.945 173.258 282.358 173.778C281.771 174.29 281.065 174.692 280.241 174.986C279.418 175.27 278.466 175.412 277.386 175.412ZM279.119 171.236C280.009 171.236 280.795 171.061 281.477 170.71C282.159 170.35 282.694 169.867 283.082 169.261C283.471 168.655 283.665 167.969 283.665 167.202V164.886C283.475 165.009 283.215 165.123 282.884 165.227C282.562 165.322 282.197 165.412 281.79 165.497C281.383 165.573 280.975 165.644 280.568 165.71C280.161 165.767 279.792 165.819 279.46 165.866C278.75 165.971 278.13 166.136 277.599 166.364C277.069 166.591 276.657 166.899 276.364 167.287C276.07 167.666 275.923 168.139 275.923 168.707C275.923 169.531 276.222 170.161 276.818 170.597C277.424 171.023 278.191 171.236 279.119 171.236ZM302.408 175.355C300.75 175.355 299.25 174.929 297.905 174.077C296.57 173.215 295.509 171.951 294.723 170.284C293.946 168.608 293.558 166.553 293.558 164.119C293.558 161.619 293.961 159.541 294.766 157.884C295.571 156.217 296.641 154.972 297.976 154.148C299.321 153.314 300.793 152.898 302.393 152.898C303.615 152.898 304.633 153.106 305.447 153.523C306.271 153.93 306.934 154.441 307.436 155.057C307.947 155.663 308.336 156.259 308.601 156.847H308.786V145.909H314.822V175H308.857V171.506H308.601C308.317 172.112 307.914 172.713 307.393 173.31C306.882 173.897 306.214 174.384 305.391 174.773C304.576 175.161 303.582 175.355 302.408 175.355ZM304.325 170.54C305.301 170.54 306.125 170.275 306.797 169.744C307.479 169.205 308 168.452 308.359 167.486C308.729 166.52 308.913 165.388 308.913 164.091C308.913 162.794 308.733 161.667 308.374 160.71C308.014 159.754 307.493 159.015 306.811 158.494C306.129 157.973 305.301 157.713 304.325 157.713C303.331 157.713 302.493 157.983 301.811 158.523C301.129 159.062 300.613 159.811 300.263 160.767C299.912 161.723 299.737 162.831 299.737 164.091C299.737 165.36 299.912 166.482 300.263 167.457C300.623 168.423 301.139 169.181 301.811 169.73C302.493 170.27 303.331 170.54 304.325 170.54ZM319.798 175V153.182H325.849V175H319.798ZM322.837 150.369C321.938 150.369 321.166 150.071 320.522 149.474C319.888 148.868 319.57 148.144 319.57 147.301C319.57 146.468 319.888 145.753 320.522 145.156C321.166 144.55 321.938 144.247 322.837 144.247C323.737 144.247 324.504 144.55 325.138 145.156C325.782 145.753 326.104 146.468 326.104 147.301C326.104 148.144 325.782 148.868 325.138 149.474C324.504 150.071 323.737 150.369 322.837 150.369ZM336.747 162.386V175H330.696V153.182H336.463V157.031H336.719C337.202 155.762 338.011 154.759 339.148 154.02C340.284 153.272 341.662 152.898 343.281 152.898C344.796 152.898 346.117 153.229 347.244 153.892C348.371 154.555 349.247 155.502 349.872 156.733C350.497 157.955 350.81 159.413 350.81 161.108V175H344.759V162.188C344.768 160.852 344.427 159.811 343.736 159.062C343.045 158.305 342.093 157.926 340.881 157.926C340.066 157.926 339.347 158.101 338.722 158.452C338.106 158.802 337.623 159.313 337.273 159.986C336.932 160.649 336.757 161.449 336.747 162.386ZM365.408 183.636C363.448 183.636 361.767 183.366 360.366 182.827C358.974 182.296 357.866 181.572 357.042 180.653C356.218 179.735 355.683 178.703 355.437 177.557L361.033 176.804C361.204 177.24 361.474 177.647 361.843 178.026C362.212 178.404 362.7 178.707 363.306 178.935C363.922 179.171 364.67 179.29 365.55 179.29C366.867 179.29 367.951 178.968 368.803 178.324C369.665 177.689 370.096 176.624 370.096 175.128V171.136H369.84C369.575 171.742 369.177 172.315 368.647 172.855C368.117 173.395 367.435 173.835 366.602 174.176C365.768 174.517 364.774 174.688 363.619 174.688C361.98 174.688 360.489 174.309 359.144 173.551C357.809 172.784 356.744 171.615 355.948 170.043C355.162 168.461 354.769 166.463 354.769 164.048C354.769 161.577 355.172 159.512 355.977 157.855C356.781 156.198 357.852 154.957 359.187 154.134C360.531 153.31 362.004 152.898 363.604 152.898C364.826 152.898 365.849 153.106 366.673 153.523C367.496 153.93 368.159 154.441 368.661 155.057C369.173 155.663 369.566 156.259 369.84 156.847H370.067V153.182H376.076V175.213C376.076 177.069 375.621 178.622 374.712 179.872C373.803 181.122 372.544 182.06 370.934 182.685C369.334 183.319 367.492 183.636 365.408 183.636ZM365.536 170.142C366.512 170.142 367.335 169.901 368.008 169.418C368.69 168.925 369.21 168.224 369.57 167.315C369.94 166.397 370.124 165.298 370.124 164.02C370.124 162.741 369.944 161.634 369.585 160.696C369.225 159.749 368.704 159.015 368.022 158.494C367.34 157.973 366.512 157.713 365.536 157.713C364.542 157.713 363.704 157.983 363.022 158.523C362.34 159.053 361.824 159.792 361.474 160.739C361.123 161.686 360.948 162.779 360.948 164.02C360.948 165.279 361.123 166.368 361.474 167.287C361.834 168.196 362.35 168.902 363.022 169.403C363.704 169.896 364.542 170.142 365.536 170.142ZM390.263 175V145.909H396.413V169.929H408.885V175H390.263Z" fill="#1A1A1A"/>
<path d="M217.149 241V216.273H222.377V226.475H232.99V216.273H238.206V241H232.99V230.786H222.377V241H217.149ZM250.871 241.362C248.964 241.362 247.322 240.976 245.945 240.203C244.577 239.422 243.522 238.32 242.782 236.895C242.041 235.462 241.671 233.768 241.671 231.812C241.671 229.904 242.041 228.23 242.782 226.789C243.522 225.348 244.565 224.225 245.909 223.42C247.261 222.616 248.847 222.213 250.666 222.213C251.89 222.213 253.029 222.41 254.083 222.805C255.146 223.191 256.071 223.775 256.86 224.555C257.657 225.336 258.277 226.318 258.719 227.501C259.162 228.677 259.384 230.053 259.384 231.631V233.043H243.724V229.856H254.542C254.542 229.115 254.381 228.459 254.059 227.888C253.737 227.316 253.29 226.87 252.719 226.548C252.155 226.218 251.499 226.053 250.751 226.053C249.97 226.053 249.278 226.234 248.674 226.596C248.078 226.95 247.612 227.429 247.273 228.033C246.935 228.628 246.762 229.292 246.754 230.025V233.055C246.754 233.973 246.923 234.766 247.261 235.434C247.607 236.102 248.094 236.617 248.722 236.979C249.35 237.342 250.095 237.523 250.956 237.523C251.527 237.523 252.051 237.442 252.526 237.281C253 237.12 253.407 236.879 253.745 236.557C254.083 236.235 254.341 235.84 254.518 235.374L259.275 235.688C259.033 236.83 258.538 237.829 257.79 238.682C257.049 239.527 256.091 240.187 254.916 240.662C253.749 241.129 252.401 241.362 250.871 241.362ZM268.028 241.35C266.845 241.35 265.791 241.145 264.865 240.734C263.939 240.316 263.207 239.7 262.668 238.887C262.136 238.066 261.871 237.044 261.871 235.82C261.871 234.79 262.06 233.925 262.438 233.224C262.817 232.524 263.332 231.961 263.984 231.534C264.636 231.107 265.376 230.786 266.205 230.568C267.042 230.351 267.92 230.198 268.837 230.109C269.916 229.997 270.785 229.892 271.445 229.795C272.105 229.691 272.584 229.538 272.882 229.337C273.18 229.135 273.329 228.838 273.329 228.443V228.371C273.329 227.606 273.087 227.014 272.604 226.596C272.129 226.177 271.453 225.968 270.576 225.968C269.65 225.968 268.914 226.173 268.366 226.584C267.819 226.986 267.457 227.493 267.28 228.105L262.523 227.719C262.764 226.592 263.239 225.618 263.947 224.797C264.656 223.968 265.569 223.332 266.688 222.889C267.815 222.438 269.119 222.213 270.6 222.213C271.63 222.213 272.616 222.334 273.558 222.575C274.508 222.817 275.349 223.191 276.082 223.698C276.822 224.205 277.406 224.857 277.832 225.654C278.259 226.443 278.472 227.389 278.472 228.491V241H273.594V238.428H273.45C273.152 239.008 272.753 239.519 272.254 239.962C271.755 240.396 271.156 240.738 270.455 240.988C269.755 241.229 268.946 241.35 268.028 241.35ZM269.501 237.8C270.258 237.8 270.926 237.652 271.506 237.354C272.085 237.048 272.54 236.637 272.87 236.122C273.2 235.607 273.365 235.023 273.365 234.371V232.403C273.204 232.508 272.983 232.605 272.701 232.693C272.427 232.774 272.117 232.85 271.771 232.923C271.425 232.987 271.079 233.047 270.733 233.104C270.387 233.152 270.073 233.196 269.791 233.237C269.188 233.325 268.66 233.466 268.21 233.659C267.759 233.852 267.409 234.114 267.159 234.444C266.91 234.766 266.785 235.168 266.785 235.651C266.785 236.352 267.038 236.887 267.545 237.257C268.061 237.619 268.713 237.8 269.501 237.8ZM289.297 241.302C287.888 241.302 286.612 240.94 285.469 240.215C284.334 239.483 283.433 238.408 282.765 236.991C282.105 235.567 281.775 233.82 281.775 231.751C281.775 229.626 282.117 227.86 282.801 226.451C283.485 225.034 284.395 223.976 285.529 223.276C286.672 222.567 287.924 222.213 289.284 222.213C290.323 222.213 291.188 222.39 291.88 222.744C292.581 223.09 293.144 223.525 293.571 224.048C294.005 224.563 294.335 225.071 294.561 225.57H294.718V216.273H299.849V241H294.778V238.03H294.561C294.319 238.545 293.977 239.056 293.534 239.563C293.1 240.062 292.532 240.477 291.832 240.807C291.14 241.137 290.295 241.302 289.297 241.302ZM290.926 237.209C291.756 237.209 292.456 236.983 293.027 236.533C293.607 236.074 294.05 235.434 294.355 234.613C294.669 233.792 294.826 232.83 294.826 231.727C294.826 230.625 294.673 229.667 294.368 228.854C294.062 228.041 293.619 227.413 293.039 226.97C292.46 226.527 291.756 226.306 290.926 226.306C290.081 226.306 289.369 226.536 288.789 226.994C288.21 227.453 287.771 228.089 287.473 228.902C287.176 229.715 287.027 230.657 287.027 231.727C287.027 232.806 287.176 233.76 287.473 234.589C287.779 235.41 288.218 236.054 288.789 236.521C289.369 236.979 290.081 237.209 290.926 237.209ZM304.078 241V222.455H309.221V241H304.078ZM306.662 220.064C305.897 220.064 305.241 219.81 304.694 219.303C304.154 218.788 303.885 218.172 303.885 217.456C303.885 216.748 304.154 216.14 304.694 215.633C305.241 215.118 305.897 214.86 306.662 214.86C307.426 214.86 308.078 215.118 308.618 215.633C309.165 216.14 309.439 216.748 309.439 217.456C309.439 218.172 309.165 218.788 308.618 219.303C308.078 219.81 307.426 220.064 306.662 220.064ZM318.485 230.278V241H313.342V222.455H318.244V225.727H318.461C318.871 224.648 319.56 223.795 320.526 223.167C321.491 222.531 322.663 222.213 324.039 222.213C325.327 222.213 326.45 222.495 327.408 223.058C328.366 223.622 329.11 224.427 329.641 225.473C330.173 226.511 330.438 227.751 330.438 229.192V241H325.295V230.109C325.303 228.974 325.013 228.089 324.425 227.453C323.838 226.809 323.029 226.487 321.999 226.487C321.306 226.487 320.695 226.636 320.163 226.934C319.64 227.232 319.23 227.666 318.932 228.238C318.642 228.801 318.493 229.482 318.485 230.278ZM342.847 248.341C341.181 248.341 339.752 248.112 338.561 247.653C337.378 247.202 336.436 246.586 335.736 245.805C335.035 245.025 334.581 244.147 334.371 243.173L339.128 242.533C339.273 242.904 339.503 243.25 339.817 243.572C340.131 243.894 340.545 244.151 341.06 244.344C341.583 244.546 342.219 244.646 342.968 244.646C344.087 244.646 345.008 244.373 345.733 243.825C346.465 243.286 346.831 242.38 346.831 241.109V237.716H346.614C346.389 238.231 346.051 238.718 345.6 239.177C345.149 239.636 344.57 240.01 343.861 240.3C343.153 240.589 342.308 240.734 341.326 240.734C339.933 240.734 338.666 240.412 337.523 239.768C336.388 239.116 335.482 238.122 334.806 236.786C334.138 235.442 333.804 233.744 333.804 231.691C333.804 229.59 334.146 227.835 334.83 226.427C335.514 225.018 336.424 223.964 337.559 223.263C338.702 222.563 339.953 222.213 341.314 222.213C342.352 222.213 343.221 222.39 343.922 222.744C344.622 223.09 345.185 223.525 345.612 224.048C346.047 224.563 346.381 225.071 346.614 225.57H346.807V222.455H351.915V241.181C351.915 242.759 351.528 244.079 350.756 245.141C349.983 246.204 348.912 247.001 347.544 247.532C346.184 248.071 344.618 248.341 342.847 248.341ZM342.956 236.871C343.785 236.871 344.485 236.665 345.057 236.255C345.636 235.836 346.079 235.241 346.385 234.468C346.699 233.687 346.856 232.754 346.856 231.667C346.856 230.58 346.703 229.638 346.397 228.842C346.091 228.037 345.648 227.413 345.069 226.97C344.489 226.527 343.785 226.306 342.956 226.306C342.111 226.306 341.398 226.536 340.819 226.994C340.239 227.445 339.8 228.073 339.503 228.878C339.205 229.683 339.056 230.612 339.056 231.667C339.056 232.737 339.205 233.663 339.503 234.444C339.809 235.217 340.247 235.816 340.819 236.243C341.398 236.661 342.111 236.871 342.956 236.871ZM363.973 216.273H370.421L377.23 232.886H377.52L384.33 216.273H390.777V241H385.706V224.906H385.501L379.102 240.879H375.649L369.25 224.845H369.044V241H363.973V216.273Z" fill="#1A1A1A"/>
<path d="M216.77 301V280.636H221.075V289.038H229.815V280.636H234.111V301H229.815V292.588H221.075V301H216.77ZM244.541 301.298C242.97 301.298 241.618 300.98 240.484 300.344C239.357 299.701 238.489 298.793 237.879 297.619C237.269 296.439 236.964 295.044 236.964 293.433C236.964 291.862 237.269 290.483 237.879 289.297C238.489 288.11 239.348 287.186 240.455 286.523C241.568 285.86 242.874 285.528 244.372 285.528C245.38 285.528 246.318 285.691 247.186 286.016C248.061 286.334 248.823 286.814 249.473 287.457C250.129 288.1 250.64 288.909 251.004 289.884C251.369 290.851 251.551 291.985 251.551 293.284V294.447H238.655V291.822H247.564C247.564 291.213 247.431 290.672 247.166 290.202C246.901 289.731 246.533 289.363 246.062 289.098C245.598 288.826 245.058 288.69 244.442 288.69C243.799 288.69 243.229 288.839 242.732 289.138C242.241 289.429 241.857 289.824 241.578 290.321C241.3 290.812 241.157 291.358 241.151 291.962V294.457C241.151 295.213 241.29 295.866 241.568 296.416C241.853 296.966 242.254 297.391 242.771 297.689C243.288 297.987 243.902 298.136 244.611 298.136C245.081 298.136 245.512 298.07 245.903 297.938C246.295 297.805 246.629 297.606 246.908 297.341C247.186 297.076 247.398 296.751 247.544 296.366L251.462 296.625C251.263 297.566 250.855 298.388 250.239 299.091C249.629 299.787 248.84 300.33 247.872 300.722C246.911 301.106 245.801 301.298 244.541 301.298ZM258.67 301.288C257.696 301.288 256.828 301.119 256.065 300.781C255.303 300.437 254.7 299.929 254.256 299.26C253.818 298.584 253.599 297.742 253.599 296.734C253.599 295.886 253.755 295.173 254.067 294.597C254.378 294.02 254.803 293.556 255.339 293.205C255.876 292.853 256.486 292.588 257.169 292.409C257.858 292.23 258.581 292.104 259.337 292.031C260.225 291.938 260.941 291.852 261.484 291.773C262.028 291.687 262.422 291.561 262.668 291.395C262.913 291.229 263.036 290.984 263.036 290.659V290.599C263.036 289.97 262.837 289.482 262.439 289.138C262.048 288.793 261.491 288.621 260.768 288.621C260.006 288.621 259.4 288.79 258.949 289.128C258.498 289.459 258.2 289.877 258.054 290.381L254.136 290.062C254.335 289.134 254.726 288.332 255.31 287.656C255.893 286.973 256.645 286.45 257.567 286.085C258.495 285.714 259.569 285.528 260.788 285.528C261.637 285.528 262.449 285.628 263.224 285.827C264.007 286.026 264.699 286.334 265.303 286.751C265.912 287.169 266.393 287.706 266.744 288.362C267.096 289.012 267.271 289.791 267.271 290.699V301H263.254V298.882H263.135C262.89 299.359 262.562 299.78 262.151 300.145C261.74 300.503 261.246 300.785 260.669 300.99C260.092 301.189 259.426 301.288 258.67 301.288ZM259.884 298.365C260.507 298.365 261.057 298.242 261.534 297.997C262.011 297.745 262.386 297.407 262.658 296.983C262.929 296.559 263.065 296.078 263.065 295.541V293.92C262.933 294.007 262.75 294.086 262.518 294.159C262.293 294.225 262.038 294.288 261.753 294.348C261.468 294.401 261.183 294.451 260.898 294.497C260.613 294.537 260.354 294.573 260.122 294.607C259.625 294.679 259.191 294.795 258.82 294.955C258.448 295.114 258.16 295.329 257.955 295.601C257.749 295.866 257.646 296.197 257.646 296.595C257.646 297.172 257.855 297.613 258.273 297.918C258.697 298.216 259.234 298.365 259.884 298.365ZM276.185 301.249C275.025 301.249 273.975 300.95 273.033 300.354C272.099 299.75 271.356 298.866 270.806 297.699C270.263 296.526 269.991 295.087 269.991 293.384C269.991 291.634 270.272 290.179 270.836 289.018C271.399 287.852 272.148 286.98 273.083 286.403C274.024 285.82 275.055 285.528 276.175 285.528C277.031 285.528 277.743 285.674 278.313 285.966C278.89 286.251 279.354 286.609 279.705 287.04C280.063 287.464 280.335 287.882 280.521 288.293H280.65V280.636H284.876V301H280.7V298.554H280.521C280.322 298.978 280.04 299.399 279.675 299.817C279.317 300.228 278.85 300.569 278.273 300.841C277.703 301.113 277.007 301.249 276.185 301.249ZM277.528 297.878C278.21 297.878 278.787 297.692 279.258 297.321C279.735 296.943 280.1 296.416 280.352 295.74C280.61 295.064 280.739 294.272 280.739 293.364C280.739 292.455 280.613 291.667 280.362 290.997C280.11 290.328 279.745 289.811 279.268 289.446C278.79 289.081 278.21 288.899 277.528 288.899C276.832 288.899 276.245 289.088 275.768 289.466C275.29 289.844 274.929 290.367 274.684 291.037C274.439 291.706 274.316 292.482 274.316 293.364C274.316 294.252 274.439 295.037 274.684 295.72C274.936 296.396 275.297 296.927 275.768 297.311C276.245 297.689 276.832 297.878 277.528 297.878ZM288.358 301V285.727H292.594V301H288.358ZM290.486 283.759C289.856 283.759 289.316 283.55 288.865 283.132C288.421 282.708 288.199 282.201 288.199 281.611C288.199 281.027 288.421 280.527 288.865 280.109C289.316 279.685 289.856 279.473 290.486 279.473C291.116 279.473 291.653 279.685 292.097 280.109C292.548 280.527 292.773 281.027 292.773 281.611C292.773 282.201 292.548 282.708 292.097 283.132C291.653 283.55 291.116 283.759 290.486 283.759ZM300.223 292.17V301H295.987V285.727H300.024V288.422H300.203C300.541 287.534 301.108 286.831 301.903 286.314C302.699 285.79 303.663 285.528 304.797 285.528C305.857 285.528 306.782 285.76 307.571 286.224C308.36 286.688 308.973 287.351 309.411 288.213C309.848 289.068 310.067 290.089 310.067 291.276V301H305.831V292.031C305.838 291.097 305.599 290.367 305.115 289.844C304.631 289.313 303.965 289.048 303.116 289.048C302.546 289.048 302.043 289.171 301.605 289.416C301.174 289.661 300.836 290.019 300.591 290.49C300.352 290.954 300.23 291.514 300.223 292.17ZM320.286 307.045C318.914 307.045 317.737 306.857 316.756 306.479C315.782 306.107 315.006 305.6 314.429 304.957C313.853 304.314 313.478 303.592 313.306 302.79L317.223 302.263C317.343 302.568 317.532 302.853 317.79 303.118C318.049 303.383 318.39 303.595 318.814 303.754C319.245 303.92 319.769 304.003 320.385 304.003C321.307 304.003 322.066 303.777 322.662 303.327C323.266 302.883 323.567 302.137 323.567 301.089V298.295H323.388C323.203 298.72 322.924 299.121 322.553 299.499C322.182 299.876 321.704 300.185 321.121 300.423C320.538 300.662 319.842 300.781 319.033 300.781C317.886 300.781 316.842 300.516 315.901 299.986C314.966 299.449 314.221 298.63 313.664 297.53C313.114 296.423 312.838 295.024 312.838 293.334C312.838 291.604 313.12 290.159 313.684 288.999C314.247 287.839 314.996 286.97 315.931 286.393C316.872 285.817 317.903 285.528 319.023 285.528C319.878 285.528 320.594 285.674 321.171 285.966C321.748 286.251 322.212 286.609 322.563 287.04C322.921 287.464 323.196 287.882 323.388 288.293H323.547V285.727H327.753V301.149C327.753 302.448 327.435 303.536 326.799 304.411C326.162 305.286 325.281 305.942 324.154 306.379C323.033 306.823 321.744 307.045 320.286 307.045ZM320.375 297.599C321.058 297.599 321.635 297.43 322.105 297.092C322.583 296.748 322.947 296.257 323.199 295.621C323.458 294.978 323.587 294.209 323.587 293.314C323.587 292.419 323.461 291.643 323.209 290.987C322.957 290.324 322.593 289.811 322.115 289.446C321.638 289.081 321.058 288.899 320.375 288.899C319.679 288.899 319.093 289.088 318.615 289.466C318.138 289.837 317.777 290.354 317.532 291.017C317.286 291.68 317.164 292.446 317.164 293.314C317.164 294.196 317.286 294.958 317.532 295.601C317.783 296.237 318.145 296.731 318.615 297.082C319.093 297.427 319.679 297.599 320.375 297.599ZM348.731 286.493C348.651 285.691 348.31 285.068 347.707 284.624C347.103 284.179 346.285 283.957 345.251 283.957C344.548 283.957 343.955 284.057 343.471 284.256C342.987 284.448 342.616 284.716 342.357 285.061C342.105 285.406 341.979 285.797 341.979 286.234C341.966 286.599 342.042 286.917 342.208 287.189C342.38 287.461 342.616 287.696 342.914 287.895C343.212 288.087 343.557 288.256 343.948 288.402C344.339 288.541 344.757 288.661 345.201 288.76L347.031 289.197C347.919 289.396 348.734 289.661 349.477 289.993C350.219 290.324 350.862 290.732 351.406 291.216C351.949 291.7 352.37 292.27 352.668 292.926C352.973 293.582 353.129 294.335 353.136 295.183C353.129 296.429 352.811 297.51 352.181 298.425C351.558 299.333 350.656 300.039 349.477 300.543C348.303 301.04 346.888 301.288 345.231 301.288C343.587 301.288 342.155 301.036 340.935 300.533C339.722 300.029 338.774 299.283 338.092 298.295C337.415 297.301 337.061 296.071 337.028 294.607H341.194C341.24 295.289 341.436 295.859 341.781 296.317C342.132 296.768 342.599 297.109 343.183 297.341C343.772 297.566 344.439 297.679 345.181 297.679C345.91 297.679 346.543 297.573 347.08 297.361C347.624 297.149 348.045 296.854 348.343 296.476C348.641 296.098 348.79 295.664 348.79 295.173C348.79 294.716 348.655 294.331 348.383 294.02C348.118 293.708 347.727 293.443 347.21 293.224C346.699 293.006 346.073 292.807 345.33 292.628L343.113 292.071C341.396 291.653 340.04 291 339.046 290.112C338.052 289.224 337.558 288.027 337.565 286.523C337.558 285.29 337.886 284.213 338.549 283.291C339.219 282.37 340.137 281.651 341.303 281.134C342.47 280.616 343.796 280.358 345.281 280.358C346.792 280.358 348.111 280.616 349.238 281.134C350.371 281.651 351.253 282.37 351.883 283.291C352.513 284.213 352.837 285.28 352.857 286.493H348.731Z" fill="#1A1A1A"/>
<path d="M217.114 408V390.545H223.216C224.432 390.545 225.435 390.756 226.224 391.176C227.014 391.591 227.602 392.151 227.989 392.855C228.375 393.554 228.568 394.33 228.568 395.182C228.568 395.932 228.435 396.551 228.168 397.04C227.906 397.528 227.56 397.915 227.128 398.199C226.702 398.483 226.239 398.693 225.739 398.83V399C226.273 399.034 226.81 399.222 227.349 399.562C227.889 399.903 228.341 400.392 228.705 401.028C229.068 401.665 229.25 402.443 229.25 403.364C229.25 404.239 229.051 405.026 228.653 405.724C228.256 406.423 227.628 406.977 226.77 407.386C225.912 407.795 224.795 408 223.42 408H217.114ZM219.227 406.125H223.42C224.801 406.125 225.781 405.858 226.361 405.324C226.946 404.784 227.239 404.131 227.239 403.364C227.239 402.773 227.088 402.227 226.787 401.727C226.486 401.222 226.057 400.818 225.5 400.517C224.943 400.21 224.284 400.057 223.523 400.057H219.227V406.125ZM219.227 398.216H223.148C223.784 398.216 224.358 398.091 224.869 397.841C225.386 397.591 225.795 397.239 226.097 396.784C226.403 396.33 226.557 395.795 226.557 395.182C226.557 394.415 226.29 393.764 225.756 393.23C225.222 392.69 224.375 392.42 223.216 392.42H219.227V398.216ZM237.768 408.273C236.587 408.273 235.55 407.991 234.658 407.429C233.771 406.866 233.078 406.08 232.578 405.068C232.084 404.057 231.837 402.875 231.837 401.523C231.837 400.159 232.084 398.969 232.578 397.952C233.078 396.935 233.771 396.145 234.658 395.582C235.55 395.02 236.587 394.739 237.768 394.739C238.95 394.739 239.984 395.02 240.871 395.582C241.763 396.145 242.456 396.935 242.95 397.952C243.45 398.969 243.7 400.159 243.7 401.523C243.7 402.875 243.45 404.057 242.95 405.068C242.456 406.08 241.763 406.866 240.871 407.429C239.984 407.991 238.95 408.273 237.768 408.273ZM237.768 406.466C238.666 406.466 239.405 406.236 239.984 405.776C240.564 405.315 240.993 404.71 241.271 403.96C241.55 403.21 241.689 402.398 241.689 401.523C241.689 400.648 241.55 399.832 241.271 399.077C240.993 398.321 240.564 397.71 239.984 397.244C239.405 396.778 238.666 396.545 237.768 396.545C236.871 396.545 236.132 396.778 235.553 397.244C234.973 397.71 234.544 398.321 234.266 399.077C233.987 399.832 233.848 400.648 233.848 401.523C233.848 402.398 233.987 403.21 234.266 403.96C234.544 404.71 234.973 405.315 235.553 405.776C236.132 406.236 236.871 406.466 237.768 406.466ZM251.714 408.273C250.623 408.273 249.66 407.997 248.825 407.446C247.989 406.889 247.336 406.105 246.864 405.094C246.393 404.077 246.157 402.875 246.157 401.489C246.157 400.114 246.393 398.92 246.864 397.909C247.336 396.898 247.992 396.116 248.833 395.565C249.674 395.014 250.646 394.739 251.748 394.739C252.6 394.739 253.273 394.881 253.768 395.165C254.268 395.443 254.648 395.761 254.91 396.119C255.177 396.472 255.384 396.761 255.532 396.989H255.702V390.545H257.714V408H255.771V405.989H255.532C255.384 406.227 255.174 406.528 254.901 406.892C254.629 407.25 254.239 407.571 253.734 407.855C253.228 408.134 252.555 408.273 251.714 408.273ZM251.987 406.466C252.793 406.466 253.475 406.256 254.032 405.835C254.589 405.409 255.012 404.821 255.302 404.071C255.592 403.315 255.737 402.443 255.737 401.455C255.737 400.477 255.594 399.622 255.31 398.889C255.026 398.151 254.606 397.577 254.049 397.168C253.492 396.753 252.805 396.545 251.987 396.545C251.134 396.545 250.424 396.764 249.856 397.202C249.293 397.634 248.87 398.222 248.586 398.966C248.308 399.705 248.168 400.534 248.168 401.455C248.168 402.386 248.31 403.233 248.594 403.994C248.884 404.75 249.31 405.352 249.873 405.801C250.441 406.244 251.146 406.466 251.987 406.466ZM262.972 412.909C262.631 412.909 262.327 412.881 262.06 412.824C261.793 412.773 261.609 412.722 261.506 412.67L262.018 410.898C262.506 411.023 262.938 411.068 263.313 411.034C263.688 411 264.021 410.832 264.31 410.531C264.606 410.236 264.876 409.756 265.12 409.091L265.495 408.068L260.654 394.909H262.836L266.45 405.341H266.586L270.2 394.909H272.381L266.825 409.909C266.575 410.585 266.265 411.145 265.896 411.588C265.526 412.037 265.097 412.369 264.609 412.585C264.126 412.801 263.58 412.909 262.972 412.909ZM282.059 390.545H284.582L290.513 405.034H290.718L296.65 390.545H299.173V408H297.195V394.739H297.025L291.57 408H289.661L284.207 394.739H284.036V408H282.059V390.545Z" fill="#1A1A1A"/>
<path d="M216.761 458V443.455H221.847C222.86 443.455 223.696 443.63 224.354 443.98C225.012 444.326 225.502 444.792 225.824 445.379C226.146 445.962 226.307 446.608 226.307 447.318C226.307 447.943 226.196 448.459 225.973 448.866C225.755 449.274 225.466 449.596 225.107 449.832C224.751 450.069 224.366 450.244 223.949 450.358V450.5C224.394 450.528 224.841 450.685 225.291 450.969C225.741 451.253 226.117 451.66 226.42 452.19C226.723 452.721 226.875 453.369 226.875 454.136C226.875 454.866 226.709 455.521 226.378 456.104C226.046 456.686 225.523 457.148 224.808 457.489C224.093 457.83 223.163 458 222.017 458H216.761ZM218.523 456.438H222.017C223.168 456.438 223.984 456.215 224.467 455.77C224.955 455.32 225.199 454.776 225.199 454.136C225.199 453.644 225.073 453.189 224.822 452.773C224.571 452.351 224.214 452.015 223.75 451.764C223.286 451.509 222.737 451.381 222.102 451.381H218.523V456.438ZM218.523 449.847H221.79C222.32 449.847 222.798 449.742 223.224 449.534C223.655 449.326 223.996 449.032 224.247 448.653C224.503 448.275 224.631 447.83 224.631 447.318C224.631 446.679 224.408 446.137 223.963 445.692C223.518 445.242 222.813 445.017 221.847 445.017H218.523V449.847ZM233.974 458.227C232.989 458.227 232.125 457.993 231.381 457.524C230.643 457.055 230.065 456.4 229.648 455.557C229.237 454.714 229.031 453.729 229.031 452.602C229.031 451.466 229.237 450.474 229.648 449.626C230.065 448.779 230.643 448.121 231.381 447.652C232.125 447.183 232.989 446.949 233.974 446.949C234.959 446.949 235.82 447.183 236.559 447.652C237.302 448.121 237.88 448.779 238.292 449.626C238.709 450.474 238.917 451.466 238.917 452.602C238.917 453.729 238.709 454.714 238.292 455.557C237.88 456.4 237.302 457.055 236.559 457.524C235.82 457.993 234.959 458.227 233.974 458.227ZM233.974 456.722C234.722 456.722 235.337 456.53 235.82 456.146C236.303 455.763 236.661 455.259 236.893 454.634C237.125 454.009 237.241 453.331 237.241 452.602C237.241 451.873 237.125 451.194 236.893 450.564C236.661 449.934 236.303 449.425 235.82 449.037C235.337 448.649 234.722 448.455 233.974 448.455C233.226 448.455 232.61 448.649 232.127 449.037C231.644 449.425 231.287 449.934 231.055 450.564C230.823 451.194 230.707 451.873 230.707 452.602C230.707 453.331 230.823 454.009 231.055 454.634C231.287 455.259 231.644 455.763 232.127 456.146C232.61 456.53 233.226 456.722 233.974 456.722ZM245.595 458.227C244.686 458.227 243.883 457.998 243.187 457.538C242.491 457.074 241.947 456.421 241.554 455.578C241.161 454.731 240.964 453.729 240.964 452.574C240.964 451.428 241.161 450.434 241.554 449.591C241.947 448.748 242.493 448.097 243.194 447.638C243.895 447.179 244.705 446.949 245.623 446.949C246.333 446.949 246.895 447.067 247.306 447.304C247.723 447.536 248.04 447.801 248.258 448.099C248.481 448.393 248.654 448.634 248.777 448.824H248.919V443.455H250.595V458H248.975V456.324H248.777C248.654 456.523 248.478 456.774 248.251 457.077C248.024 457.375 247.699 457.643 247.278 457.879C246.857 458.111 246.296 458.227 245.595 458.227ZM245.822 456.722C246.494 456.722 247.063 456.546 247.527 456.196C247.991 455.841 248.343 455.351 248.585 454.726C248.826 454.096 248.947 453.369 248.947 452.545C248.947 451.731 248.829 451.018 248.592 450.408C248.355 449.792 248.005 449.314 247.541 448.973C247.077 448.627 246.504 448.455 245.822 448.455C245.112 448.455 244.52 448.637 244.047 449.001C243.578 449.361 243.225 449.851 242.988 450.472C242.756 451.087 242.64 451.778 242.64 452.545C242.64 453.322 242.759 454.027 242.995 454.662C243.237 455.292 243.592 455.794 244.061 456.168C244.534 456.537 245.121 456.722 245.822 456.722ZM254.977 462.091C254.693 462.091 254.44 462.067 254.217 462.02C253.994 461.977 253.841 461.935 253.755 461.892L254.181 460.415C254.589 460.519 254.949 460.557 255.261 460.528C255.574 460.5 255.85 460.36 256.092 460.109C256.338 459.863 256.563 459.463 256.767 458.909L257.079 458.057L253.045 447.091H254.863L257.875 455.784H257.988L261 447.091H262.818L258.187 459.591C257.979 460.154 257.721 460.621 257.413 460.99C257.105 461.364 256.748 461.641 256.341 461.821C255.938 462.001 255.484 462.091 254.977 462.091ZM278.837 447.091C278.752 446.371 278.406 445.812 277.8 445.415C277.194 445.017 276.451 444.818 275.57 444.818C274.926 444.818 274.363 444.922 273.88 445.131C273.401 445.339 273.027 445.625 272.757 445.99C272.492 446.355 272.36 446.769 272.36 447.233C272.36 447.621 272.452 447.955 272.637 448.234C272.826 448.509 273.068 448.739 273.361 448.923C273.655 449.103 273.962 449.252 274.284 449.371C274.606 449.484 274.902 449.577 275.172 449.648L276.65 450.045C277.028 450.145 277.45 450.282 277.914 450.457C278.382 450.633 278.83 450.872 279.256 451.175C279.687 451.473 280.042 451.857 280.321 452.325C280.601 452.794 280.74 453.369 280.74 454.051C280.74 454.837 280.534 455.547 280.123 456.182C279.715 456.816 279.119 457.321 278.333 457.695C277.551 458.069 276.602 458.256 275.485 458.256C274.443 458.256 273.541 458.088 272.779 457.751C272.021 457.415 271.425 456.946 270.989 456.345C270.558 455.744 270.314 455.045 270.257 454.25H272.076C272.123 454.799 272.308 455.254 272.63 455.614C272.956 455.969 273.368 456.234 273.865 456.409C274.367 456.58 274.907 456.665 275.485 456.665C276.157 456.665 276.761 456.556 277.296 456.338C277.831 456.116 278.255 455.808 278.567 455.415C278.88 455.017 279.036 454.553 279.036 454.023C279.036 453.54 278.901 453.147 278.631 452.844C278.361 452.541 278.006 452.295 277.566 452.105C277.125 451.916 276.65 451.75 276.138 451.608L274.348 451.097C273.212 450.77 272.312 450.304 271.65 449.697C270.987 449.091 270.655 448.298 270.655 447.318C270.655 446.504 270.875 445.794 271.316 445.188C271.761 444.577 272.357 444.103 273.105 443.767C273.858 443.426 274.699 443.256 275.627 443.256C276.564 443.256 277.398 443.424 278.127 443.76C278.856 444.091 279.434 444.546 279.86 445.124C280.291 445.701 280.518 446.357 280.542 447.091H278.837Z" fill="#1A1A1A"/>
<path d="M532.281 172.719V171.125L539.312 160H540.469V162.469H539.688L534.375 170.875V171H543.844V172.719H532.281ZM539.813 176V172.234V171.492V160H541.656V176H539.813ZM551.99 176.219C550.813 176.219 549.811 175.898 548.982 175.258C548.154 174.612 547.521 173.677 547.084 172.453C546.646 171.224 546.428 169.74 546.428 168C546.428 166.271 546.646 164.794 547.084 163.57C547.527 162.341 548.162 161.404 548.99 160.758C549.824 160.107 550.824 159.781 551.99 159.781C553.157 159.781 554.154 160.107 554.982 160.758C555.816 161.404 556.451 162.341 556.889 163.57C557.331 164.794 557.553 166.271 557.553 168C557.553 169.74 557.334 171.224 556.896 172.453C556.459 173.677 555.826 174.612 554.998 175.258C554.17 175.898 553.167 176.219 551.99 176.219ZM551.99 174.5C553.157 174.5 554.063 173.937 554.709 172.812C555.355 171.687 555.678 170.083 555.678 168C555.678 166.615 555.529 165.435 555.232 164.461C554.941 163.487 554.519 162.745 553.967 162.234C553.42 161.724 552.761 161.469 551.99 161.469C550.834 161.469 549.93 162.039 549.279 163.18C548.628 164.315 548.303 165.922 548.303 168C548.303 169.385 548.449 170.562 548.74 171.531C549.032 172.5 549.451 173.237 549.998 173.742C550.55 174.247 551.214 174.5 551.99 174.5ZM560.553 180.5V164H562.334V165.906H562.553C562.688 165.698 562.876 165.432 563.115 165.109C563.36 164.781 563.709 164.49 564.162 164.234C564.62 163.974 565.24 163.844 566.021 163.844C567.032 163.844 567.923 164.096 568.693 164.602C569.464 165.107 570.066 165.823 570.498 166.75C570.93 167.677 571.146 168.771 571.146 170.031C571.146 171.302 570.93 172.404 570.498 173.336C570.066 174.263 569.467 174.982 568.701 175.492C567.936 175.997 567.053 176.25 566.053 176.25C565.282 176.25 564.665 176.122 564.201 175.867C563.738 175.607 563.381 175.312 563.131 174.984C562.881 174.651 562.688 174.375 562.553 174.156H562.396V180.5H560.553ZM562.365 170C562.365 170.906 562.498 171.706 562.764 172.398C563.029 173.086 563.417 173.625 563.928 174.016C564.438 174.401 565.063 174.594 565.803 174.594C566.574 174.594 567.217 174.391 567.732 173.984C568.253 173.573 568.644 173.021 568.904 172.328C569.17 171.63 569.303 170.854 569.303 170C569.303 169.156 569.173 168.396 568.912 167.719C568.657 167.036 568.269 166.497 567.748 166.102C567.232 165.701 566.584 165.5 565.803 165.5C565.053 165.5 564.423 165.69 563.912 166.07C563.402 166.445 563.016 166.971 562.756 167.648C562.495 168.32 562.365 169.104 562.365 170ZM574.84 164L577.715 168.906L580.59 164H582.715L578.84 170L582.715 176H580.59L577.715 171.344L574.84 176H572.715L576.527 170L572.715 164H574.84Z" fill="#1A1A1A"/>
<path d="M538.063 237.219C537.031 237.219 536.112 237.042 535.305 236.687C534.503 236.333 533.865 235.841 533.391 235.211C532.922 234.576 532.667 233.839 532.625 233H534.594C534.635 233.516 534.813 233.961 535.125 234.336C535.438 234.706 535.846 234.992 536.352 235.195C536.857 235.398 537.417 235.5 538.031 235.5C538.719 235.5 539.328 235.38 539.859 235.141C540.391 234.901 540.807 234.568 541.109 234.141C541.411 233.714 541.563 233.219 541.563 232.656C541.563 232.068 541.417 231.549 541.125 231.102C540.833 230.648 540.406 230.294 539.844 230.039C539.281 229.784 538.594 229.656 537.781 229.656H536.5V227.937H537.781C538.417 227.937 538.974 227.823 539.453 227.594C539.938 227.365 540.315 227.042 540.586 226.625C540.862 226.208 541 225.719 541 225.156C541 224.615 540.88 224.143 540.641 223.742C540.401 223.341 540.063 223.029 539.625 222.805C539.193 222.581 538.682 222.469 538.094 222.469C537.542 222.469 537.021 222.57 536.531 222.773C536.047 222.971 535.651 223.26 535.344 223.641C535.036 224.016 534.87 224.469 534.844 225H532.969C533 224.161 533.253 223.427 533.727 222.797C534.201 222.161 534.82 221.667 535.586 221.312C536.357 220.958 537.203 220.781 538.125 220.781C539.115 220.781 539.964 220.982 540.672 221.383C541.38 221.779 541.924 222.302 542.305 222.953C542.685 223.604 542.875 224.307 542.875 225.063C542.875 225.964 542.638 226.732 542.164 227.367C541.695 228.003 541.057 228.443 540.25 228.688V228.812C541.26 228.979 542.049 229.409 542.617 230.102C543.185 230.789 543.469 231.641 543.469 232.656C543.469 233.526 543.232 234.307 542.758 235C542.289 235.687 541.648 236.229 540.836 236.625C540.023 237.021 539.099 237.219 538.063 237.219ZM546.289 233.719V232.125L553.32 221H554.477V223.469H553.695L548.383 231.875V232H557.852V233.719H546.289ZM553.82 237V233.234V232.492V221H555.664V237H553.82ZM560.811 241.5V225H562.592V226.906H562.811C562.946 226.698 563.133 226.432 563.373 226.109C563.618 225.781 563.967 225.49 564.42 225.234C564.878 224.974 565.498 224.844 566.279 224.844C567.29 224.844 568.18 225.096 568.951 225.602C569.722 226.107 570.324 226.823 570.756 227.75C571.188 228.677 571.404 229.771 571.404 231.031C571.404 232.302 571.188 233.404 570.756 234.336C570.324 235.263 569.725 235.982 568.959 236.492C568.193 236.997 567.311 237.25 566.311 237.25C565.54 237.25 564.923 237.122 564.459 236.867C563.995 236.607 563.639 236.312 563.389 235.984C563.139 235.651 562.946 235.375 562.811 235.156H562.654V241.5H560.811ZM562.623 231C562.623 231.906 562.756 232.706 563.021 233.398C563.287 234.086 563.675 234.625 564.186 235.016C564.696 235.401 565.321 235.594 566.061 235.594C566.831 235.594 567.475 235.391 567.99 234.984C568.511 234.573 568.902 234.021 569.162 233.328C569.428 232.63 569.561 231.854 569.561 231C569.561 230.156 569.43 229.396 569.17 228.719C568.915 228.036 568.527 227.497 568.006 227.102C567.49 226.701 566.842 226.5 566.061 226.5C565.311 226.5 564.68 226.69 564.17 227.07C563.66 227.445 563.274 227.971 563.014 228.648C562.753 229.32 562.623 230.104 562.623 231ZM575.098 225L577.973 229.906L580.848 225H582.973L579.098 231L582.973 237H580.848L577.973 232.344L575.098 237H572.973L576.785 231L572.973 225H575.098Z" fill="#1A1A1A"/>
<path d="M532.656 294V292.594L537.937 286.812C538.557 286.135 539.068 285.547 539.469 285.047C539.87 284.542 540.167 284.068 540.359 283.625C540.557 283.177 540.656 282.708 540.656 282.219C540.656 281.656 540.521 281.169 540.25 280.758C539.984 280.346 539.62 280.029 539.156 279.805C538.693 279.581 538.172 279.469 537.594 279.469C536.979 279.469 536.443 279.596 535.984 279.852C535.531 280.102 535.18 280.453 534.93 280.906C534.685 281.359 534.563 281.891 534.563 282.5H532.719C532.719 281.562 532.935 280.74 533.367 280.031C533.799 279.323 534.388 278.771 535.133 278.375C535.883 277.979 536.724 277.781 537.656 277.781C538.594 277.781 539.424 277.979 540.148 278.375C540.872 278.771 541.44 279.305 541.852 279.977C542.263 280.648 542.469 281.396 542.469 282.219C542.469 282.807 542.362 283.383 542.148 283.945C541.94 284.503 541.576 285.125 541.055 285.812C540.539 286.495 539.823 287.328 538.906 288.312L535.313 292.156V292.281H542.75V294H532.656ZM551.102 294.219C550.029 294.219 549.081 294.029 548.258 293.648C547.44 293.263 546.802 292.734 546.344 292.062C545.885 291.385 545.659 290.615 545.664 289.75C545.659 289.073 545.792 288.448 546.063 287.875C546.333 287.297 546.703 286.815 547.172 286.43C547.646 286.039 548.174 285.792 548.758 285.688V285.594C547.992 285.396 547.383 284.966 546.93 284.305C546.477 283.638 546.253 282.88 546.258 282.031C546.253 281.219 546.458 280.492 546.875 279.852C547.292 279.211 547.865 278.706 548.594 278.336C549.328 277.966 550.164 277.781 551.102 277.781C552.029 277.781 552.857 277.966 553.586 278.336C554.315 278.706 554.888 279.211 555.305 279.852C555.727 280.492 555.94 281.219 555.945 282.031C555.94 282.88 555.708 283.638 555.25 284.305C554.797 284.966 554.195 285.396 553.445 285.594V285.688C554.023 285.792 554.544 286.039 555.008 286.43C555.471 286.815 555.841 287.297 556.117 287.875C556.393 288.448 556.534 289.073 556.539 289.75C556.534 290.615 556.299 291.385 555.836 292.062C555.378 292.734 554.74 293.263 553.922 293.648C553.109 294.029 552.169 294.219 551.102 294.219ZM551.102 292.5C551.826 292.5 552.451 292.383 552.977 292.148C553.503 291.914 553.909 291.583 554.195 291.156C554.482 290.729 554.628 290.229 554.633 289.656C554.628 289.052 554.471 288.518 554.164 288.055C553.857 287.591 553.438 287.227 552.906 286.961C552.38 286.695 551.779 286.562 551.102 286.562C550.419 286.562 549.81 286.695 549.273 286.961C548.742 287.227 548.323 287.591 548.016 288.055C547.714 288.518 547.565 289.052 547.57 289.656C547.565 290.229 547.703 290.729 547.984 291.156C548.271 291.583 548.68 291.914 549.211 292.148C549.742 292.383 550.372 292.5 551.102 292.5ZM551.102 284.906C551.674 284.906 552.182 284.792 552.625 284.562C553.073 284.333 553.424 284.013 553.68 283.602C553.935 283.19 554.065 282.708 554.07 282.156C554.065 281.615 553.938 281.143 553.688 280.742C553.438 280.336 553.091 280.023 552.648 279.805C552.206 279.581 551.69 279.469 551.102 279.469C550.503 279.469 549.979 279.581 549.531 279.805C549.083 280.023 548.737 280.336 548.492 280.742C548.247 281.143 548.128 281.615 548.133 282.156C548.128 282.708 548.25 283.19 548.5 283.602C548.755 284.013 549.107 284.333 549.555 284.562C550.003 284.792 550.518 284.906 551.102 284.906ZM559.564 298.5V282H561.346V283.906H561.564C561.7 283.698 561.887 283.432 562.127 283.109C562.372 282.781 562.721 282.49 563.174 282.234C563.632 281.974 564.252 281.844 565.033 281.844C566.044 281.844 566.934 282.096 567.705 282.602C568.476 283.107 569.077 283.823 569.51 284.75C569.942 285.677 570.158 286.771 570.158 288.031C570.158 289.302 569.942 290.404 569.51 291.336C569.077 292.263 568.479 292.982 567.713 293.492C566.947 293.997 566.064 294.25 565.064 294.25C564.294 294.25 563.676 294.122 563.213 293.867C562.749 293.607 562.393 293.312 562.143 292.984C561.893 292.651 561.7 292.375 561.564 292.156H561.408V298.5H559.564ZM561.377 288C561.377 288.906 561.51 289.706 561.775 290.398C562.041 291.086 562.429 291.625 562.939 292.016C563.45 292.401 564.075 292.594 564.814 292.594C565.585 292.594 566.229 292.391 566.744 291.984C567.265 291.573 567.656 291.021 567.916 290.328C568.182 289.63 568.314 288.854 568.314 288C568.314 287.156 568.184 286.396 567.924 285.719C567.669 285.036 567.281 284.497 566.76 284.102C566.244 283.701 565.596 283.5 564.814 283.5C564.064 283.5 563.434 283.69 562.924 284.07C562.413 284.445 562.028 284.971 561.768 285.648C561.507 286.32 561.377 287.104 561.377 288ZM573.852 282L576.727 286.906L579.602 282H581.727L577.852 288L581.727 294H579.602L576.727 289.344L573.852 294H571.727L575.539 288L571.727 282H573.852Z" fill="#1A1A1A"/>
<path d="M532.656 405V403.594L537.937 397.812C538.557 397.135 539.068 396.547 539.469 396.047C539.87 395.542 540.167 395.068 540.359 394.625C540.557 394.177 540.656 393.708 540.656 393.219C540.656 392.656 540.521 392.169 540.25 391.758C539.984 391.346 539.62 391.029 539.156 390.805C538.693 390.581 538.172 390.469 537.594 390.469C536.979 390.469 536.443 390.596 535.984 390.852C535.531 391.102 535.18 391.453 534.93 391.906C534.685 392.359 534.563 392.891 534.563 393.5H532.719C532.719 392.562 532.935 391.74 533.367 391.031C533.799 390.323 534.388 389.771 535.133 389.375C535.883 388.979 536.724 388.781 537.656 388.781C538.594 388.781 539.424 388.979 540.148 389.375C540.872 389.771 541.44 390.305 541.852 390.977C542.263 391.648 542.469 392.396 542.469 393.219C542.469 393.807 542.362 394.383 542.148 394.945C541.94 395.503 541.576 396.125 541.055 396.812C540.539 397.495 539.823 398.328 538.906 399.312L535.313 403.156V403.281H542.75V405H532.656ZM545.258 401.719V400.125L552.289 389H553.445V391.469H552.664L547.352 399.875V400H556.82V401.719H545.258ZM552.789 405V401.234V400.492V389H554.633V405H552.789ZM559.779 409.5V393H561.561V394.906H561.779C561.915 394.698 562.102 394.432 562.342 394.109C562.587 393.781 562.936 393.49 563.389 393.234C563.847 392.974 564.467 392.844 565.248 392.844C566.258 392.844 567.149 393.096 567.92 393.602C568.691 394.107 569.292 394.823 569.725 395.75C570.157 396.677 570.373 397.771 570.373 399.031C570.373 400.302 570.157 401.404 569.725 402.336C569.292 403.263 568.693 403.982 567.928 404.492C567.162 404.997 566.279 405.25 565.279 405.25C564.508 405.25 563.891 405.122 563.428 404.867C562.964 404.607 562.607 404.312 562.357 403.984C562.107 403.651 561.915 403.375 561.779 403.156H561.623V409.5H559.779ZM561.592 399C561.592 399.906 561.725 400.706 561.99 401.398C562.256 402.086 562.644 402.625 563.154 403.016C563.665 403.401 564.29 403.594 565.029 403.594C565.8 403.594 566.443 403.391 566.959 402.984C567.48 402.573 567.87 402.021 568.131 401.328C568.396 400.63 568.529 399.854 568.529 399C568.529 398.156 568.399 397.396 568.139 396.719C567.883 396.036 567.495 395.497 566.975 395.102C566.459 394.701 565.811 394.5 565.029 394.5C564.279 394.5 563.649 394.69 563.139 395.07C562.628 395.445 562.243 395.971 561.982 396.648C561.722 397.32 561.592 398.104 561.592 399ZM574.066 393L576.941 397.906L579.816 393H581.941L578.066 399L581.941 405H579.816L576.941 400.344L574.066 405H571.941L575.754 399L571.941 393H574.066Z" fill="#1A1A1A"/>
<path d="M532.656 457V455.594L537.937 449.812C538.557 449.135 539.068 448.547 539.469 448.047C539.87 447.542 540.167 447.068 540.359 446.625C540.557 446.177 540.656 445.708 540.656 445.219C540.656 444.656 540.521 444.169 540.25 443.758C539.984 443.346 539.62 443.029 539.156 442.805C538.693 442.581 538.172 442.469 537.594 442.469C536.979 442.469 536.443 442.596 535.984 442.852C535.531 443.102 535.18 443.453 534.93 443.906C534.685 444.359 534.563 444.891 534.563 445.5H532.719C532.719 444.562 532.935 443.74 533.367 443.031C533.799 442.323 534.388 441.771 535.133 441.375C535.883 440.979 536.724 440.781 537.656 440.781C538.594 440.781 539.424 440.979 540.148 441.375C540.872 441.771 541.44 442.305 541.852 442.977C542.263 443.648 542.469 444.396 542.469 445.219C542.469 445.807 542.362 446.383 542.148 446.945C541.94 447.503 541.576 448.125 541.055 448.812C540.539 449.495 539.823 450.328 538.906 451.312L535.313 455.156V455.281H542.75V457H532.656ZM551.195 457.219C550.018 457.219 549.016 456.898 548.188 456.258C547.359 455.612 546.727 454.677 546.289 453.453C545.852 452.224 545.633 450.74 545.633 449C545.633 447.271 545.852 445.794 546.289 444.57C546.732 443.341 547.367 442.404 548.195 441.758C549.029 441.107 550.029 440.781 551.195 440.781C552.362 440.781 553.359 441.107 554.188 441.758C555.021 442.404 555.656 443.341 556.094 444.57C556.536 445.794 556.758 447.271 556.758 449C556.758 450.74 556.539 452.224 556.102 453.453C555.664 454.677 555.031 455.612 554.203 456.258C553.375 456.898 552.372 457.219 551.195 457.219ZM551.195 455.5C552.362 455.5 553.268 454.937 553.914 453.812C554.56 452.687 554.883 451.083 554.883 449C554.883 447.615 554.734 446.435 554.438 445.461C554.146 444.487 553.724 443.745 553.172 443.234C552.625 442.724 551.966 442.469 551.195 442.469C550.039 442.469 549.135 443.039 548.484 444.18C547.833 445.315 547.508 446.922 547.508 449C547.508 450.385 547.654 451.562 547.945 452.531C548.237 453.5 548.656 454.237 549.203 454.742C549.755 455.247 550.419 455.5 551.195 455.5ZM559.758 461.5V445H561.539V446.906H561.758C561.893 446.698 562.081 446.432 562.32 446.109C562.565 445.781 562.914 445.49 563.367 445.234C563.826 444.974 564.445 444.844 565.227 444.844C566.237 444.844 567.128 445.096 567.898 445.602C568.669 446.107 569.271 446.823 569.703 447.75C570.135 448.677 570.352 449.771 570.352 451.031C570.352 452.302 570.135 453.404 569.703 454.336C569.271 455.263 568.672 455.982 567.906 456.492C567.141 456.997 566.258 457.25 565.258 457.25C564.487 457.25 563.87 457.122 563.406 456.867C562.943 456.607 562.586 456.312 562.336 455.984C562.086 455.651 561.893 455.375 561.758 455.156H561.602V461.5H559.758ZM561.57 451C561.57 451.906 561.703 452.706 561.969 453.398C562.234 454.086 562.622 454.625 563.133 455.016C563.643 455.401 564.268 455.594 565.008 455.594C565.779 455.594 566.422 455.391 566.938 454.984C567.458 454.573 567.849 454.021 568.109 453.328C568.375 452.63 568.508 451.854 568.508 451C568.508 450.156 568.378 449.396 568.117 448.719C567.862 448.036 567.474 447.497 566.953 447.102C566.438 446.701 565.789 446.5 565.008 446.5C564.258 446.5 563.628 446.69 563.117 447.07C562.607 447.445 562.221 447.971 561.961 448.648C561.701 449.32 561.57 450.104 561.57 451ZM574.045 445L576.92 449.906L579.795 445H581.92L578.045 451L581.92 457H579.795L576.92 452.344L574.045 457H571.92L575.732 451L571.92 445H574.045Z" fill="#1A1A1A"/>
</svg>
