<svg width="800" height="600" viewBox="0 0 800 600" fill="none" xmlns="http://www.w3.org/2000/svg">
<rect width="800" height="600" fill="white"/>
<path d="M244.42 175.98V170.909H268.312V175.98H259.406V200H253.327V175.98H244.42ZM272.134 200V178.182H278.185V200H272.134ZM275.173 175.369C274.274 175.369 273.502 175.071 272.858 174.474C272.223 173.868 271.906 173.144 271.906 172.301C271.906 171.468 272.223 170.753 272.858 170.156C273.502 169.55 274.274 169.247 275.173 169.247C276.073 169.247 276.84 169.55 277.474 170.156C278.118 170.753 278.44 171.468 278.44 172.301C278.44 173.144 278.118 173.868 277.474 174.474C276.84 175.071 276.073 175.369 275.173 175.369ZM294.637 178.182V182.727H281.498V178.182H294.637ZM284.481 172.955H290.532V193.295C290.532 193.854 290.617 194.29 290.788 194.602C290.958 194.905 291.195 195.118 291.498 195.241C291.81 195.365 292.17 195.426 292.577 195.426C292.862 195.426 293.146 195.402 293.43 195.355C293.714 195.298 293.932 195.256 294.083 195.227L295.035 199.73C294.732 199.825 294.306 199.934 293.756 200.057C293.207 200.189 292.54 200.27 291.754 200.298C290.295 200.355 289.017 200.161 287.918 199.716C286.829 199.271 285.982 198.58 285.376 197.642C284.77 196.705 284.471 195.521 284.481 194.091V172.955ZM305.099 170.909V200H299.048V170.909H305.099ZM319.889 200.426C317.645 200.426 315.713 199.972 314.094 199.062C312.484 198.144 311.243 196.847 310.372 195.17C309.501 193.485 309.065 191.491 309.065 189.19C309.065 186.946 309.501 184.976 310.372 183.281C311.243 181.586 312.47 180.265 314.051 179.318C315.642 178.371 317.508 177.898 319.648 177.898C321.087 177.898 322.427 178.13 323.668 178.594C324.918 179.048 326.007 179.735 326.935 180.653C327.872 181.572 328.601 182.727 329.122 184.119C329.643 185.502 329.903 187.121 329.903 188.977V190.639H311.48V186.889H324.207C324.207 186.018 324.018 185.246 323.639 184.574C323.26 183.902 322.735 183.376 322.062 182.997C321.4 182.609 320.628 182.415 319.747 182.415C318.829 182.415 318.014 182.628 317.304 183.054C316.603 183.471 316.054 184.034 315.656 184.744C315.259 185.445 315.055 186.226 315.045 187.088V190.653C315.045 191.733 315.244 192.666 315.642 193.452C316.049 194.238 316.622 194.844 317.361 195.27C318.099 195.696 318.975 195.909 319.989 195.909C320.661 195.909 321.277 195.814 321.835 195.625C322.394 195.436 322.872 195.152 323.27 194.773C323.668 194.394 323.971 193.93 324.179 193.381L329.776 193.75C329.491 195.095 328.909 196.269 328.028 197.273C327.157 198.267 326.03 199.044 324.648 199.602C323.275 200.152 321.688 200.426 319.889 200.426ZM343.053 200V195.568L353.408 185.98C354.289 185.128 355.028 184.361 355.624 183.679C356.23 182.997 356.69 182.33 357.002 181.676C357.315 181.013 357.471 180.298 357.471 179.531C357.471 178.679 357.277 177.945 356.888 177.33C356.5 176.705 355.97 176.226 355.298 175.895C354.625 175.554 353.863 175.384 353.011 175.384C352.121 175.384 351.344 175.563 350.681 175.923C350.018 176.283 349.507 176.799 349.147 177.472C348.787 178.144 348.607 178.944 348.607 179.872H342.769C342.769 177.969 343.2 176.316 344.062 174.915C344.924 173.513 346.131 172.429 347.684 171.662C349.237 170.895 351.027 170.511 353.053 170.511C355.137 170.511 356.95 170.881 358.494 171.619C360.047 172.348 361.254 173.362 362.116 174.659C362.978 175.956 363.408 177.443 363.408 179.119C363.408 180.218 363.191 181.302 362.755 182.372C362.329 183.442 361.567 184.631 360.468 185.938C359.37 187.235 357.821 188.793 355.823 190.611L351.576 194.773V194.972H363.792V200H343.053Z" fill="#1A1A1A"/>
<path d="M244.705 101.176V95.0909H273.375V101.176H262.688V130H255.392V101.176H244.705ZM277.96 130V103.818H285.222V130H277.96ZM281.608 100.443C280.528 100.443 279.602 100.085 278.83 99.3693C278.068 98.642 277.688 97.7727 277.688 96.7614C277.688 95.7614 278.068 94.9034 278.83 94.1875C279.602 93.4602 280.528 93.0966 281.608 93.0966C282.688 93.0966 283.608 93.4602 284.369 94.1875C285.142 94.9034 285.528 95.7614 285.528 96.7614C285.528 97.7727 285.142 98.642 284.369 99.3693C283.608 100.085 282.688 100.443 281.608 100.443ZM304.964 103.818V109.273H289.197V103.818H304.964ZM292.777 97.5455H300.038V121.955C300.038 122.625 300.141 123.148 300.345 123.523C300.55 123.886 300.834 124.142 301.197 124.29C301.572 124.437 302.004 124.511 302.493 124.511C302.834 124.511 303.175 124.483 303.516 124.426C303.857 124.358 304.118 124.307 304.3 124.273L305.442 129.676C305.078 129.79 304.567 129.92 303.908 130.068C303.249 130.227 302.447 130.324 301.504 130.358C299.754 130.426 298.22 130.193 296.902 129.659C295.595 129.125 294.578 128.295 293.851 127.17C293.124 126.045 292.766 124.625 292.777 122.909V97.5455ZM317.518 95.0909V130H310.257V95.0909H317.518ZM335.267 130.511C332.574 130.511 330.256 129.966 328.312 128.875C326.381 127.773 324.892 126.216 323.847 124.205C322.801 122.182 322.278 119.79 322.278 117.028C322.278 114.335 322.801 111.972 323.847 109.938C324.892 107.903 326.364 106.318 328.261 105.182C330.17 104.045 332.409 103.477 334.977 103.477C336.705 103.477 338.313 103.756 339.801 104.312C341.301 104.858 342.608 105.682 343.722 106.784C344.847 107.886 345.722 109.273 346.347 110.943C346.972 112.602 347.284 114.545 347.284 116.773V118.767H325.176V114.267H340.449C340.449 113.222 340.222 112.295 339.767 111.489C339.313 110.682 338.682 110.051 337.875 109.597C337.08 109.131 336.153 108.898 335.097 108.898C333.994 108.898 333.017 109.153 332.165 109.665C331.324 110.165 330.665 110.841 330.188 111.693C329.71 112.534 329.466 113.472 329.455 114.506V118.784C329.455 120.08 329.693 121.199 330.17 122.142C330.659 123.085 331.347 123.812 332.233 124.324C333.119 124.835 334.17 125.091 335.386 125.091C336.193 125.091 336.932 124.977 337.602 124.75C338.273 124.523 338.847 124.182 339.324 123.727C339.801 123.273 340.165 122.716 340.415 122.057L347.131 122.5C346.79 124.114 346.091 125.523 345.034 126.727C343.989 127.92 342.636 128.852 340.977 129.523C339.33 130.182 337.426 130.511 335.267 130.511ZM378.251 95.0909V130H370.871V102.097H370.666L362.672 107.108V100.562L371.314 95.0909H378.251Z" fill="#1A1A1A"/>
<path d="M505.281 196.719V195.125L512.312 184H513.469V186.469H512.688L507.375 194.875V195H516.844V196.719H505.281ZM512.813 200V196.234V195.492V184H514.656V200H512.813ZM524.99 200.219C523.813 200.219 522.811 199.898 521.982 199.258C521.154 198.612 520.521 197.677 520.084 196.453C519.646 195.224 519.428 193.74 519.428 192C519.428 190.271 519.646 188.794 520.084 187.57C520.527 186.341 521.162 185.404 521.99 184.758C522.824 184.107 523.824 183.781 524.99 183.781C526.157 183.781 527.154 184.107 527.982 184.758C528.816 185.404 529.451 186.341 529.889 187.57C530.331 188.794 530.553 190.271 530.553 192C530.553 193.74 530.334 195.224 529.896 196.453C529.459 197.677 528.826 198.612 527.998 199.258C527.17 199.898 526.167 200.219 524.99 200.219ZM524.99 198.5C526.157 198.5 527.063 197.937 527.709 196.812C528.355 195.687 528.678 194.083 528.678 192C528.678 190.615 528.529 189.435 528.232 188.461C527.941 187.487 527.519 186.745 526.967 186.234C526.42 185.724 525.761 185.469 524.99 185.469C523.834 185.469 522.93 186.039 522.279 187.18C521.628 188.315 521.303 189.922 521.303 192C521.303 193.385 521.449 194.562 521.74 195.531C522.032 196.5 522.451 197.237 522.998 197.742C523.55 198.247 524.214 198.5 524.99 198.5ZM533.553 204.5V188H535.334V189.906H535.553C535.688 189.698 535.876 189.432 536.115 189.109C536.36 188.781 536.709 188.49 537.162 188.234C537.62 187.974 538.24 187.844 539.021 187.844C540.032 187.844 540.923 188.096 541.693 188.602C542.464 189.107 543.066 189.823 543.498 190.75C543.93 191.677 544.146 192.771 544.146 194.031C544.146 195.302 543.93 196.404 543.498 197.336C543.066 198.263 542.467 198.982 541.701 199.492C540.936 199.997 540.053 200.25 539.053 200.25C538.282 200.25 537.665 200.122 537.201 199.867C536.738 199.607 536.381 199.312 536.131 198.984C535.881 198.651 535.688 198.375 535.553 198.156H535.396V204.5H533.553ZM535.365 194C535.365 194.906 535.498 195.706 535.764 196.398C536.029 197.086 536.417 197.625 536.928 198.016C537.438 198.401 538.063 198.594 538.803 198.594C539.574 198.594 540.217 198.391 540.732 197.984C541.253 197.573 541.644 197.021 541.904 196.328C542.17 195.63 542.303 194.854 542.303 194C542.303 193.156 542.173 192.396 541.912 191.719C541.657 191.036 541.269 190.497 540.748 190.102C540.232 189.701 539.584 189.5 538.803 189.5C538.053 189.5 537.423 189.69 536.912 190.07C536.402 190.445 536.016 190.971 535.756 191.648C535.495 192.32 535.365 193.104 535.365 194ZM547.84 188L550.715 192.906L553.59 188H555.715L551.84 194L555.715 200H553.59L550.715 195.344L547.84 200H545.715L549.527 194L545.715 188H547.84Z" fill="#1A1A1A"/>
<path d="M505.281 126.719V125.125L512.312 114H513.469V116.469H512.688L507.375 124.875V125H516.844V126.719H505.281ZM512.813 130V126.234V125.492V114H514.656V130H512.813ZM524.896 130.219C523.824 130.219 522.876 130.029 522.053 129.648C521.235 129.263 520.597 128.734 520.139 128.062C519.68 127.385 519.454 126.615 519.459 125.75C519.454 125.073 519.587 124.448 519.857 123.875C520.128 123.297 520.498 122.815 520.967 122.43C521.441 122.039 521.969 121.792 522.553 121.688V121.594C521.787 121.396 521.178 120.966 520.725 120.305C520.271 119.638 520.048 118.88 520.053 118.031C520.048 117.219 520.253 116.492 520.67 115.852C521.087 115.211 521.66 114.706 522.389 114.336C523.123 113.966 523.959 113.781 524.896 113.781C525.824 113.781 526.652 113.966 527.381 114.336C528.11 114.706 528.683 115.211 529.1 115.852C529.521 116.492 529.735 117.219 529.74 118.031C529.735 118.88 529.503 119.638 529.045 120.305C528.592 120.966 527.99 121.396 527.24 121.594V121.688C527.818 121.792 528.339 122.039 528.803 122.43C529.266 122.815 529.636 123.297 529.912 123.875C530.188 124.448 530.329 125.073 530.334 125.75C530.329 126.615 530.094 127.385 529.631 128.062C529.173 128.734 528.535 129.263 527.717 129.648C526.904 130.029 525.964 130.219 524.896 130.219ZM524.896 128.5C525.62 128.5 526.245 128.383 526.771 128.148C527.298 127.914 527.704 127.583 527.99 127.156C528.277 126.729 528.423 126.229 528.428 125.656C528.423 125.052 528.266 124.518 527.959 124.055C527.652 123.591 527.232 123.227 526.701 122.961C526.175 122.695 525.574 122.562 524.896 122.562C524.214 122.562 523.605 122.695 523.068 122.961C522.537 123.227 522.118 123.591 521.811 124.055C521.508 124.518 521.36 125.052 521.365 125.656C521.36 126.229 521.498 126.729 521.779 127.156C522.066 127.583 522.475 127.914 523.006 128.148C523.537 128.383 524.167 128.5 524.896 128.5ZM524.896 120.906C525.469 120.906 525.977 120.792 526.42 120.562C526.868 120.333 527.219 120.013 527.475 119.602C527.73 119.19 527.86 118.708 527.865 118.156C527.86 117.615 527.732 117.143 527.482 116.742C527.232 116.336 526.886 116.023 526.443 115.805C526.001 115.581 525.485 115.469 524.896 115.469C524.298 115.469 523.774 115.581 523.326 115.805C522.878 116.023 522.532 116.336 522.287 116.742C522.042 117.143 521.923 117.615 521.928 118.156C521.923 118.708 522.045 119.19 522.295 119.602C522.55 120.013 522.902 120.333 523.35 120.562C523.798 120.792 524.313 120.906 524.896 120.906ZM533.359 134.5V118H535.141V119.906H535.359C535.495 119.698 535.682 119.432 535.922 119.109C536.167 118.781 536.516 118.49 536.969 118.234C537.427 117.974 538.047 117.844 538.828 117.844C539.839 117.844 540.729 118.096 541.5 118.602C542.271 119.107 542.872 119.823 543.305 120.75C543.737 121.677 543.953 122.771 543.953 124.031C543.953 125.302 543.737 126.404 543.305 127.336C542.872 128.263 542.273 128.982 541.508 129.492C540.742 129.997 539.859 130.25 538.859 130.25C538.089 130.25 537.471 130.122 537.008 129.867C536.544 129.607 536.188 129.312 535.938 128.984C535.688 128.651 535.495 128.375 535.359 128.156H535.203V134.5H533.359ZM535.172 124C535.172 124.906 535.305 125.706 535.57 126.398C535.836 127.086 536.224 127.625 536.734 128.016C537.245 128.401 537.87 128.594 538.609 128.594C539.38 128.594 540.023 128.391 540.539 127.984C541.06 127.573 541.451 127.021 541.711 126.328C541.977 125.63 542.109 124.854 542.109 124C542.109 123.156 541.979 122.396 541.719 121.719C541.464 121.036 541.076 120.497 540.555 120.102C540.039 119.701 539.391 119.5 538.609 119.5C537.859 119.5 537.229 119.69 536.719 120.07C536.208 120.445 535.823 120.971 535.563 121.648C535.302 122.32 535.172 123.104 535.172 124ZM547.646 118L550.521 122.906L553.396 118H555.521L551.646 124L555.521 130H553.396L550.521 125.344L547.646 130H545.521L549.334 124L545.521 118H547.646Z" fill="#1A1A1A"/>
<path d="M245.009 257V236.636H248.697V245.257H258.134V236.636H261.832V257H258.134V248.349H248.697V257H245.009ZM272.447 257.298C270.915 257.298 269.593 256.98 268.479 256.344C267.372 255.701 266.521 254.793 265.924 253.619C265.327 252.439 265.029 251.051 265.029 249.453C265.029 247.882 265.327 246.503 265.924 245.317C266.527 244.124 267.369 243.196 268.45 242.533C269.53 241.863 270.799 241.528 272.258 241.528C273.199 241.528 274.087 241.681 274.923 241.986C275.764 242.284 276.507 242.748 277.15 243.378C277.799 244.008 278.31 244.81 278.681 245.784C279.052 246.752 279.238 247.905 279.238 249.244V250.348H266.719V247.922H275.788C275.781 247.232 275.632 246.619 275.34 246.082C275.049 245.539 274.641 245.111 274.117 244.8C273.6 244.488 272.997 244.332 272.308 244.332C271.572 244.332 270.925 244.511 270.369 244.869C269.812 245.221 269.378 245.685 269.066 246.261C268.761 246.831 268.605 247.458 268.599 248.141V250.259C268.599 251.147 268.761 251.909 269.086 252.545C269.411 253.175 269.865 253.659 270.448 253.997C271.031 254.329 271.714 254.494 272.496 254.494C273.02 254.494 273.494 254.421 273.918 254.276C274.343 254.123 274.71 253.901 275.022 253.609C275.334 253.318 275.569 252.956 275.728 252.526L279.089 252.903C278.877 253.792 278.472 254.567 277.876 255.23C277.286 255.886 276.53 256.397 275.609 256.761C274.687 257.119 273.633 257.298 272.447 257.298ZM286.678 257.308C285.71 257.308 284.838 257.136 284.063 256.791C283.294 256.44 282.684 255.923 282.233 255.24C281.789 254.557 281.567 253.715 281.567 252.714C281.567 251.853 281.726 251.14 282.044 250.577C282.363 250.013 282.797 249.562 283.347 249.224C283.897 248.886 284.517 248.631 285.206 248.459C285.902 248.28 286.622 248.151 287.364 248.071C288.259 247.978 288.985 247.895 289.542 247.822C290.098 247.743 290.503 247.624 290.755 247.464C291.013 247.299 291.142 247.044 291.142 246.699V246.639C291.142 245.89 290.92 245.31 290.476 244.899C290.032 244.488 289.392 244.283 288.557 244.283C287.676 244.283 286.976 244.475 286.459 244.859C285.949 245.244 285.604 245.698 285.425 246.222L282.064 245.744C282.329 244.816 282.767 244.041 283.377 243.418C283.987 242.788 284.732 242.317 285.614 242.006C286.496 241.688 287.47 241.528 288.537 241.528C289.273 241.528 290.006 241.615 290.735 241.787C291.464 241.959 292.13 242.244 292.733 242.642C293.337 243.033 293.82 243.567 294.185 244.243C294.556 244.919 294.742 245.764 294.742 246.778V257H291.282V254.902H291.162C290.944 255.326 290.635 255.724 290.238 256.095C289.846 256.46 289.353 256.755 288.756 256.98C288.166 257.199 287.473 257.308 286.678 257.308ZM287.613 254.663C288.335 254.663 288.962 254.521 289.492 254.236C290.022 253.944 290.43 253.56 290.715 253.082C291.007 252.605 291.152 252.085 291.152 251.521V249.722C291.04 249.814 290.847 249.901 290.576 249.98C290.31 250.06 290.012 250.129 289.681 250.189C289.349 250.249 289.021 250.302 288.696 250.348C288.372 250.394 288.09 250.434 287.851 250.467C287.314 250.54 286.834 250.66 286.409 250.825C285.985 250.991 285.65 251.223 285.405 251.521C285.16 251.813 285.037 252.191 285.037 252.655C285.037 253.318 285.279 253.818 285.763 254.156C286.247 254.494 286.864 254.663 287.613 254.663ZM304.029 257.268C302.829 257.268 301.755 256.96 300.807 256.344C299.859 255.727 299.11 254.832 298.56 253.659C298.01 252.486 297.735 251.061 297.735 249.384C297.735 247.687 298.013 246.255 298.57 245.088C299.133 243.915 299.892 243.03 300.847 242.433C301.801 241.83 302.865 241.528 304.039 241.528C304.934 241.528 305.669 241.681 306.246 241.986C306.823 242.284 307.28 242.645 307.618 243.07C307.956 243.487 308.218 243.882 308.404 244.253H308.553V236.636H312.162V257H308.623V254.594H308.404C308.218 254.965 307.95 255.359 307.598 255.777C307.247 256.188 306.783 256.539 306.206 256.831C305.63 257.123 304.904 257.268 304.029 257.268ZM305.033 254.315C305.795 254.315 306.445 254.11 306.982 253.699C307.519 253.281 307.926 252.701 308.205 251.959C308.483 251.216 308.623 250.351 308.623 249.364C308.623 248.376 308.483 247.518 308.205 246.788C307.933 246.059 307.529 245.492 306.992 245.088C306.462 244.684 305.809 244.482 305.033 244.482C304.231 244.482 303.561 244.69 303.025 245.108C302.488 245.526 302.083 246.102 301.811 246.838C301.54 247.574 301.404 248.416 301.404 249.364C301.404 250.318 301.54 251.17 301.811 251.919C302.09 252.661 302.498 253.248 303.034 253.679C303.578 254.103 304.244 254.315 305.033 254.315ZM315.998 257V241.727H319.597V257H315.998ZM317.808 239.56C317.237 239.56 316.747 239.371 316.336 238.993C315.925 238.608 315.719 238.148 315.719 237.611C315.719 237.067 315.925 236.607 316.336 236.229C316.747 235.844 317.237 235.652 317.808 235.652C318.384 235.652 318.875 235.844 319.279 236.229C319.69 236.607 319.896 237.067 319.896 237.611C319.896 238.148 319.69 238.608 319.279 238.993C318.875 239.371 318.384 239.56 317.808 239.56ZM326.898 248.051V257H323.299V241.727H326.739V244.322H326.918C327.269 243.467 327.829 242.788 328.598 242.284C329.374 241.78 330.332 241.528 331.472 241.528C332.526 241.528 333.444 241.754 334.226 242.205C335.015 242.655 335.625 243.308 336.056 244.163C336.493 245.018 336.709 246.056 336.702 247.276V257H333.103V247.832C333.103 246.812 332.837 246.013 332.307 245.436C331.783 244.859 331.058 244.571 330.13 244.571C329.5 244.571 328.94 244.71 328.449 244.989C327.965 245.26 327.584 245.655 327.306 246.172C327.034 246.689 326.898 247.315 326.898 248.051ZM347.003 263.045C345.711 263.045 344.6 262.87 343.672 262.518C342.744 262.174 341.998 261.71 341.435 261.126C340.872 260.543 340.48 259.897 340.262 259.188L343.503 258.402C343.649 258.7 343.861 258.995 344.14 259.287C344.418 259.585 344.792 259.83 345.263 260.023C345.74 260.222 346.34 260.321 347.063 260.321C348.084 260.321 348.929 260.072 349.598 259.575C350.268 259.085 350.603 258.276 350.603 257.149V254.256H350.424C350.238 254.627 349.966 255.008 349.608 255.399C349.257 255.79 348.79 256.118 348.206 256.384C347.63 256.649 346.904 256.781 346.029 256.781C344.855 256.781 343.792 256.506 342.837 255.956C341.889 255.399 341.133 254.571 340.57 253.47C340.013 252.363 339.735 250.978 339.735 249.314C339.735 247.637 340.013 246.222 340.57 245.068C341.133 243.908 341.892 243.03 342.847 242.433C343.801 241.83 344.865 241.528 346.039 241.528C346.934 241.528 347.669 241.681 348.246 241.986C348.829 242.284 349.293 242.645 349.638 243.07C349.983 243.487 350.245 243.882 350.424 244.253H350.623V241.727H354.172V257.249C354.172 258.554 353.861 259.635 353.238 260.49C352.614 261.345 351.763 261.985 350.682 262.409C349.602 262.833 348.375 263.045 347.003 263.045ZM347.033 253.957C347.795 253.957 348.445 253.772 348.982 253.401C349.519 253.029 349.926 252.496 350.205 251.8C350.483 251.104 350.623 250.268 350.623 249.294C350.623 248.333 350.483 247.491 350.205 246.768C349.933 246.046 349.529 245.486 348.992 245.088C348.462 244.684 347.809 244.482 347.033 244.482C346.231 244.482 345.561 244.69 345.025 245.108C344.488 245.526 344.083 246.099 343.811 246.828C343.54 247.551 343.404 248.373 343.404 249.294C343.404 250.229 343.54 251.047 343.811 251.75C344.09 252.446 344.498 252.99 345.034 253.381C345.578 253.765 346.244 253.957 347.033 253.957ZM373.049 236.636V257H369.36V240.226H369.241L364.478 243.268V239.888L369.539 236.636H373.049Z" fill="#1A1A1A"/>
<path d="M505.656 257V255.594L510.937 249.812C511.557 249.135 512.068 248.547 512.469 248.047C512.87 247.542 513.167 247.068 513.359 246.625C513.557 246.177 513.656 245.708 513.656 245.219C513.656 244.656 513.521 244.169 513.25 243.758C512.984 243.346 512.62 243.029 512.156 242.805C511.693 242.581 511.172 242.469 510.594 242.469C509.979 242.469 509.443 242.596 508.984 242.852C508.531 243.102 508.18 243.453 507.93 243.906C507.685 244.359 507.563 244.891 507.563 245.5H505.719C505.719 244.562 505.935 243.74 506.367 243.031C506.799 242.323 507.388 241.771 508.133 241.375C508.883 240.979 509.724 240.781 510.656 240.781C511.594 240.781 512.424 240.979 513.148 241.375C513.872 241.771 514.44 242.305 514.852 242.977C515.263 243.648 515.469 244.396 515.469 245.219C515.469 245.807 515.362 246.383 515.148 246.945C514.94 247.503 514.576 248.125 514.055 248.812C513.539 249.495 512.823 250.328 511.906 251.312L508.313 255.156V255.281H515.75V257H505.656ZM524.102 257.219C523.029 257.219 522.081 257.029 521.258 256.648C520.44 256.263 519.802 255.734 519.344 255.062C518.885 254.385 518.659 253.615 518.664 252.75C518.659 252.073 518.792 251.448 519.063 250.875C519.333 250.297 519.703 249.815 520.172 249.43C520.646 249.039 521.174 248.792 521.758 248.688V248.594C520.992 248.396 520.383 247.966 519.93 247.305C519.477 246.638 519.253 245.88 519.258 245.031C519.253 244.219 519.458 243.492 519.875 242.852C520.292 242.211 520.865 241.706 521.594 241.336C522.328 240.966 523.164 240.781 524.102 240.781C525.029 240.781 525.857 240.966 526.586 241.336C527.315 241.706 527.888 242.211 528.305 242.852C528.727 243.492 528.94 244.219 528.945 245.031C528.94 245.88 528.708 246.638 528.25 247.305C527.797 247.966 527.195 248.396 526.445 248.594V248.688C527.023 248.792 527.544 249.039 528.008 249.43C528.471 249.815 528.841 250.297 529.117 250.875C529.393 251.448 529.534 252.073 529.539 252.75C529.534 253.615 529.299 254.385 528.836 255.062C528.378 255.734 527.74 256.263 526.922 256.648C526.109 257.029 525.169 257.219 524.102 257.219ZM524.102 255.5C524.826 255.5 525.451 255.383 525.977 255.148C526.503 254.914 526.909 254.583 527.195 254.156C527.482 253.729 527.628 253.229 527.633 252.656C527.628 252.052 527.471 251.518 527.164 251.055C526.857 250.591 526.438 250.227 525.906 249.961C525.38 249.695 524.779 249.562 524.102 249.562C523.419 249.562 522.81 249.695 522.273 249.961C521.742 250.227 521.323 250.591 521.016 251.055C520.714 251.518 520.565 252.052 520.57 252.656C520.565 253.229 520.703 253.729 520.984 254.156C521.271 254.583 521.68 254.914 522.211 255.148C522.742 255.383 523.372 255.5 524.102 255.5ZM524.102 247.906C524.674 247.906 525.182 247.792 525.625 247.562C526.073 247.333 526.424 247.013 526.68 246.602C526.935 246.19 527.065 245.708 527.07 245.156C527.065 244.615 526.938 244.143 526.688 243.742C526.438 243.336 526.091 243.023 525.648 242.805C525.206 242.581 524.69 242.469 524.102 242.469C523.503 242.469 522.979 242.581 522.531 242.805C522.083 243.023 521.737 243.336 521.492 243.742C521.247 244.143 521.128 244.615 521.133 245.156C521.128 245.708 521.25 246.19 521.5 246.602C521.755 247.013 522.107 247.333 522.555 247.562C523.003 247.792 523.518 247.906 524.102 247.906ZM532.564 261.5V245H534.346V246.906H534.564C534.7 246.698 534.887 246.432 535.127 246.109C535.372 245.781 535.721 245.49 536.174 245.234C536.632 244.974 537.252 244.844 538.033 244.844C539.044 244.844 539.934 245.096 540.705 245.602C541.476 246.107 542.077 246.823 542.51 247.75C542.942 248.677 543.158 249.771 543.158 251.031C543.158 252.302 542.942 253.404 542.51 254.336C542.077 255.263 541.479 255.982 540.713 256.492C539.947 256.997 539.064 257.25 538.064 257.25C537.294 257.25 536.676 257.122 536.213 256.867C535.749 256.607 535.393 256.312 535.143 255.984C534.893 255.651 534.7 255.375 534.564 255.156H534.408V261.5H532.564ZM534.377 251C534.377 251.906 534.51 252.706 534.775 253.398C535.041 254.086 535.429 254.625 535.939 255.016C536.45 255.401 537.075 255.594 537.814 255.594C538.585 255.594 539.229 255.391 539.744 254.984C540.265 254.573 540.656 254.021 540.916 253.328C541.182 252.63 541.314 251.854 541.314 251C541.314 250.156 541.184 249.396 540.924 248.719C540.669 248.036 540.281 247.497 539.76 247.102C539.244 246.701 538.596 246.5 537.814 246.5C537.064 246.5 536.434 246.69 535.924 247.07C535.413 247.445 535.028 247.971 534.768 248.648C534.507 249.32 534.377 250.104 534.377 251ZM546.852 245L549.727 249.906L552.602 245H554.727L550.852 251L554.727 257H552.602L549.727 252.344L546.852 257H544.727L548.539 251L544.727 245H546.852Z" fill="#1A1A1A"/>
<path d="M244.865 310V291.091H248.29V299.096H257.053V291.091H260.487V310H257.053V301.967H248.29V310H244.865ZM270.343 310.277C268.922 310.277 267.694 309.982 266.659 309.391C265.632 308.794 264.841 307.95 264.287 306.861C263.733 305.765 263.456 304.476 263.456 302.992C263.456 301.533 263.733 300.253 264.287 299.151C264.847 298.043 265.628 297.182 266.632 296.566C267.635 295.944 268.814 295.634 270.168 295.634C271.042 295.634 271.867 295.775 272.642 296.058C273.424 296.335 274.114 296.766 274.711 297.351C275.314 297.936 275.788 298.68 276.132 299.585C276.477 300.484 276.65 301.555 276.65 302.798V303.823H265.025V301.57H273.446C273.44 300.93 273.301 300.361 273.03 299.862C272.759 299.357 272.381 298.96 271.895 298.671C271.414 298.382 270.854 298.237 270.214 298.237C269.531 298.237 268.931 298.403 268.414 298.736C267.897 299.062 267.493 299.493 267.204 300.028C266.921 300.558 266.776 301.139 266.77 301.773V303.74C266.77 304.565 266.921 305.273 267.223 305.864C267.524 306.448 267.946 306.898 268.488 307.212C269.029 307.519 269.663 307.673 270.39 307.673C270.876 307.673 271.316 307.606 271.71 307.47C272.104 307.329 272.445 307.122 272.735 306.852C273.024 306.581 273.243 306.245 273.39 305.845L276.511 306.196C276.314 307.021 275.939 307.741 275.385 308.357C274.837 308.966 274.135 309.44 273.279 309.778C272.424 310.111 271.445 310.277 270.343 310.277ZM283.558 310.286C282.659 310.286 281.85 310.126 281.13 309.806C280.416 309.48 279.849 309 279.431 308.366C279.019 307.732 278.812 306.95 278.812 306.021C278.812 305.22 278.96 304.559 279.256 304.036C279.551 303.512 279.954 303.094 280.465 302.78C280.976 302.466 281.551 302.229 282.192 302.069C282.838 301.903 283.506 301.783 284.195 301.709C285.026 301.623 285.7 301.546 286.217 301.478C286.734 301.404 287.11 301.293 287.344 301.146C287.584 300.992 287.704 300.755 287.704 300.435V300.379C287.704 299.684 287.497 299.145 287.085 298.763C286.673 298.382 286.079 298.191 285.303 298.191C284.484 298.191 283.835 298.37 283.355 298.727C282.881 299.084 282.561 299.505 282.395 299.991L279.274 299.548C279.52 298.687 279.926 297.966 280.493 297.388C281.059 296.803 281.751 296.366 282.57 296.077C283.389 295.781 284.294 295.634 285.285 295.634C285.968 295.634 286.648 295.714 287.325 295.874C288.002 296.034 288.621 296.298 289.181 296.668C289.741 297.031 290.19 297.526 290.529 298.154C290.874 298.782 291.046 299.567 291.046 300.509V310H287.833V308.052H287.722C287.519 308.446 287.233 308.815 286.863 309.16C286.5 309.498 286.042 309.772 285.488 309.982C284.94 310.185 284.297 310.286 283.558 310.286ZM284.426 307.83C285.097 307.83 285.679 307.698 286.171 307.433C286.663 307.162 287.042 306.805 287.307 306.362C287.577 305.919 287.713 305.436 287.713 304.913V303.241C287.608 303.328 287.43 303.408 287.177 303.482C286.931 303.555 286.654 303.62 286.346 303.675C286.039 303.731 285.734 303.78 285.432 303.823C285.131 303.866 284.869 303.903 284.648 303.934C284.149 304.002 283.703 304.112 283.309 304.266C282.915 304.42 282.604 304.636 282.376 304.913C282.148 305.183 282.035 305.534 282.035 305.965C282.035 306.581 282.259 307.045 282.709 307.359C283.158 307.673 283.73 307.83 284.426 307.83ZM299.67 310.249C298.555 310.249 297.558 309.963 296.678 309.391C295.798 308.818 295.102 307.987 294.591 306.898C294.081 305.808 293.825 304.485 293.825 302.928C293.825 301.352 294.084 300.022 294.601 298.939C295.124 297.849 295.829 297.028 296.715 296.474C297.601 295.914 298.589 295.634 299.679 295.634C300.51 295.634 301.193 295.775 301.729 296.058C302.264 296.335 302.689 296.671 303.003 297.065C303.317 297.452 303.56 297.819 303.732 298.163H303.871V291.091H307.222V310H303.935V307.766H303.732C303.56 308.11 303.31 308.477 302.984 308.864C302.658 309.246 302.227 309.572 301.692 309.843C301.156 310.114 300.482 310.249 299.67 310.249ZM300.602 307.507C301.31 307.507 301.913 307.316 302.412 306.935C302.91 306.547 303.289 306.008 303.547 305.319C303.806 304.629 303.935 303.826 303.935 302.909C303.935 301.992 303.806 301.195 303.547 300.518C303.295 299.841 302.92 299.314 302.421 298.939C301.929 298.563 301.322 298.376 300.602 298.376C299.857 298.376 299.236 298.57 298.737 298.957C298.238 299.345 297.863 299.881 297.611 300.564C297.358 301.247 297.232 302.029 297.232 302.909C297.232 303.795 297.358 304.586 297.611 305.282C297.869 305.971 298.248 306.516 298.746 306.916C299.251 307.31 299.87 307.507 300.602 307.507ZM310.784 310V295.818H314.126V310H310.784ZM312.464 293.805C311.935 293.805 311.479 293.63 311.098 293.279C310.716 292.922 310.525 292.494 310.525 291.996C310.525 291.491 310.716 291.063 311.098 290.712C311.479 290.355 311.935 290.177 312.464 290.177C313 290.177 313.455 290.355 313.831 290.712C314.212 291.063 314.403 291.491 314.403 291.996C314.403 292.494 314.212 292.922 313.831 293.279C313.455 293.63 313 293.805 312.464 293.805ZM320.905 301.69V310H317.563V295.818H320.758V298.228H320.924C321.25 297.434 321.77 296.803 322.484 296.335C323.204 295.867 324.094 295.634 325.153 295.634C326.131 295.634 326.984 295.843 327.71 296.261C328.443 296.68 329.009 297.286 329.409 298.08C329.815 298.874 330.015 299.838 330.009 300.97V310H326.667V301.487C326.667 300.539 326.421 299.798 325.928 299.262C325.442 298.727 324.768 298.459 323.906 298.459C323.321 298.459 322.801 298.588 322.346 298.847C321.896 299.099 321.542 299.465 321.284 299.945C321.032 300.425 320.905 301.007 320.905 301.69ZM339.574 315.614C338.374 315.614 337.343 315.451 336.481 315.124C335.62 314.804 334.927 314.373 334.404 313.832C333.881 313.29 333.518 312.69 333.314 312.031L336.324 311.302C336.46 311.579 336.657 311.853 336.915 312.124C337.174 312.401 337.522 312.628 337.959 312.807C338.402 312.991 338.959 313.084 339.63 313.084C340.578 313.084 341.363 312.853 341.984 312.391C342.606 311.936 342.917 311.185 342.917 310.138V307.452H342.751C342.578 307.796 342.326 308.15 341.993 308.513C341.667 308.877 341.233 309.181 340.692 309.428C340.156 309.674 339.482 309.797 338.67 309.797C337.58 309.797 336.592 309.541 335.706 309.031C334.826 308.513 334.124 307.744 333.601 306.722C333.084 305.694 332.825 304.408 332.825 302.863C332.825 301.306 333.084 299.991 333.601 298.92C334.124 297.843 334.829 297.028 335.715 296.474C336.601 295.914 337.589 295.634 338.679 295.634C339.51 295.634 340.193 295.775 340.729 296.058C341.27 296.335 341.701 296.671 342.021 297.065C342.341 297.452 342.584 297.819 342.751 298.163H342.935V295.818H346.231V310.231C346.231 311.443 345.942 312.447 345.363 313.241C344.785 314.035 343.994 314.629 342.991 315.023C341.987 315.417 340.849 315.614 339.574 315.614ZM339.602 307.175C340.31 307.175 340.913 307.002 341.412 306.658C341.91 306.313 342.289 305.817 342.547 305.171C342.806 304.525 342.935 303.749 342.935 302.844C342.935 301.952 342.806 301.17 342.547 300.499C342.295 299.828 341.92 299.308 341.421 298.939C340.929 298.563 340.322 298.376 339.602 298.376C338.857 298.376 338.236 298.57 337.737 298.957C337.238 299.345 336.863 299.878 336.611 300.555C336.358 301.226 336.232 301.989 336.232 302.844C336.232 303.712 336.358 304.473 336.611 305.125C336.869 305.771 337.248 306.276 337.746 306.639C338.251 306.996 338.87 307.175 339.602 307.175ZM356.069 310V307.526L362.634 301.09C363.262 300.456 363.785 299.893 364.203 299.401C364.622 298.908 364.936 298.431 365.145 297.969C365.354 297.508 365.459 297.015 365.459 296.492C365.459 295.895 365.324 295.384 365.053 294.96C364.782 294.529 364.41 294.196 363.936 293.962C363.462 293.728 362.923 293.612 362.32 293.612C361.698 293.612 361.153 293.741 360.686 293.999C360.218 294.252 359.855 294.612 359.596 295.08C359.344 295.547 359.218 296.104 359.218 296.751H355.958C355.958 295.55 356.232 294.507 356.78 293.621C357.328 292.734 358.082 292.048 359.042 291.562C360.008 291.076 361.116 290.832 362.366 290.832C363.634 290.832 364.748 291.069 365.708 291.543C366.669 292.017 367.413 292.667 367.943 293.491C368.478 294.316 368.746 295.258 368.746 296.317C368.746 297.025 368.611 297.72 368.34 298.403C368.069 299.087 367.592 299.844 366.909 300.675C366.231 301.506 365.28 302.512 364.056 303.694L360.796 307.009V307.138H369.032V310H356.069Z" fill="#1A1A1A"/>
<path d="M244.722 361V343.545H247.884V350.935H255.972V343.545H259.142V361H255.972V353.585H247.884V361H244.722ZM268.24 361.256C266.928 361.256 265.794 360.983 264.839 360.438C263.891 359.886 263.161 359.108 262.649 358.102C262.138 357.091 261.882 355.901 261.882 354.531C261.882 353.185 262.138 352.003 262.649 350.986C263.166 349.963 263.888 349.168 264.814 348.599C265.74 348.026 266.828 347.739 268.078 347.739C268.885 347.739 269.646 347.869 270.362 348.131C271.084 348.386 271.72 348.784 272.271 349.324C272.828 349.864 273.266 350.551 273.584 351.386C273.902 352.216 274.061 353.205 274.061 354.352V355.298H263.331V353.219H271.104C271.098 352.628 270.97 352.102 270.72 351.642C270.47 351.176 270.121 350.81 269.672 350.543C269.229 350.276 268.712 350.142 268.121 350.142C267.49 350.142 266.936 350.295 266.459 350.602C265.982 350.903 265.609 351.301 265.342 351.795C265.081 352.284 264.947 352.821 264.942 353.406V355.222C264.942 355.983 265.081 356.636 265.359 357.182C265.638 357.722 266.027 358.136 266.527 358.426C267.027 358.71 267.612 358.852 268.283 358.852C268.732 358.852 269.138 358.79 269.501 358.665C269.865 358.534 270.18 358.344 270.447 358.094C270.714 357.844 270.916 357.534 271.053 357.165L273.933 357.489C273.751 358.25 273.405 358.915 272.893 359.483C272.388 360.045 271.74 360.483 270.95 360.795C270.161 361.102 269.257 361.256 268.24 361.256ZM280.438 361.264C279.609 361.264 278.862 361.116 278.197 360.821C277.538 360.52 277.015 360.077 276.629 359.491C276.248 358.906 276.058 358.185 276.058 357.327C276.058 356.588 276.194 355.977 276.467 355.494C276.739 355.011 277.112 354.625 277.583 354.335C278.055 354.045 278.586 353.827 279.177 353.679C279.773 353.526 280.39 353.415 281.026 353.347C281.793 353.267 282.415 353.196 282.893 353.134C283.37 353.065 283.717 352.963 283.933 352.827C284.154 352.685 284.265 352.466 284.265 352.17V352.119C284.265 351.477 284.075 350.98 283.694 350.628C283.313 350.276 282.765 350.099 282.049 350.099C281.293 350.099 280.694 350.264 280.251 350.594C279.813 350.923 279.518 351.312 279.364 351.761L276.484 351.352C276.711 350.557 277.086 349.892 277.609 349.358C278.131 348.818 278.771 348.415 279.526 348.148C280.282 347.875 281.117 347.739 282.032 347.739C282.663 347.739 283.29 347.812 283.915 347.96C284.54 348.108 285.112 348.352 285.629 348.693C286.146 349.028 286.56 349.486 286.873 350.065C287.191 350.645 287.35 351.369 287.35 352.239V361H284.384V359.202H284.282C284.094 359.565 283.83 359.906 283.489 360.224C283.154 360.537 282.731 360.79 282.219 360.983C281.714 361.17 281.12 361.264 280.438 361.264ZM281.239 358.997C281.859 358.997 282.396 358.875 282.85 358.631C283.305 358.381 283.654 358.051 283.898 357.642C284.148 357.233 284.273 356.787 284.273 356.304V354.761C284.177 354.841 284.012 354.915 283.779 354.983C283.552 355.051 283.296 355.111 283.012 355.162C282.728 355.213 282.447 355.259 282.168 355.298C281.89 355.338 281.648 355.372 281.444 355.401C280.984 355.463 280.572 355.565 280.208 355.707C279.844 355.849 279.558 356.048 279.347 356.304C279.137 356.554 279.032 356.878 279.032 357.276C279.032 357.844 279.239 358.273 279.654 358.562C280.069 358.852 280.597 358.997 281.239 358.997ZM295.31 361.23C294.282 361.23 293.362 360.966 292.549 360.438C291.737 359.909 291.094 359.142 290.623 358.136C290.151 357.131 289.915 355.909 289.915 354.472C289.915 353.017 290.154 351.79 290.631 350.79C291.114 349.784 291.765 349.026 292.583 348.514C293.401 347.997 294.313 347.739 295.319 347.739C296.086 347.739 296.717 347.869 297.211 348.131C297.705 348.386 298.097 348.696 298.387 349.06C298.677 349.418 298.901 349.756 299.06 350.074H299.188V343.545H302.282V361H299.248V358.938H299.06C298.901 359.256 298.671 359.594 298.37 359.952C298.069 360.304 297.671 360.605 297.177 360.855C296.683 361.105 296.06 361.23 295.31 361.23ZM296.171 358.699C296.825 358.699 297.381 358.523 297.842 358.17C298.302 357.812 298.651 357.315 298.89 356.679C299.129 356.043 299.248 355.301 299.248 354.455C299.248 353.608 299.129 352.872 298.89 352.247C298.657 351.622 298.31 351.136 297.85 350.79C297.396 350.443 296.836 350.27 296.171 350.27C295.484 350.27 294.91 350.449 294.45 350.807C293.989 351.165 293.643 351.659 293.41 352.29C293.177 352.92 293.06 353.642 293.06 354.455C293.06 355.273 293.177 356.003 293.41 356.645C293.648 357.281 293.998 357.784 294.458 358.153C294.924 358.517 295.495 358.699 296.171 358.699ZM305.57 361V347.909H308.655V361H305.57ZM307.121 346.051C306.632 346.051 306.212 345.889 305.859 345.565C305.507 345.236 305.331 344.841 305.331 344.381C305.331 343.915 305.507 343.52 305.859 343.196C306.212 342.866 306.632 342.702 307.121 342.702C307.615 342.702 308.036 342.866 308.382 343.196C308.734 343.52 308.911 343.915 308.911 344.381C308.911 344.841 308.734 345.236 308.382 345.565C308.036 345.889 307.615 346.051 307.121 346.051ZM314.913 353.33V361H311.827V347.909H314.776V350.134H314.93C315.231 349.401 315.711 348.818 316.37 348.386C317.035 347.955 317.856 347.739 318.833 347.739C319.737 347.739 320.523 347.932 321.194 348.318C321.87 348.705 322.393 349.264 322.762 349.997C323.137 350.73 323.322 351.619 323.316 352.665V361H320.231V353.142C320.231 352.267 320.004 351.582 319.549 351.088C319.1 350.594 318.478 350.347 317.683 350.347C317.143 350.347 316.663 350.466 316.242 350.705C315.827 350.937 315.501 351.276 315.262 351.719C315.029 352.162 314.913 352.699 314.913 353.33ZM332.146 366.182C331.038 366.182 330.086 366.031 329.29 365.73C328.495 365.435 327.856 365.037 327.373 364.537C326.89 364.037 326.555 363.483 326.367 362.875L329.146 362.202C329.271 362.457 329.452 362.71 329.691 362.96C329.93 363.216 330.251 363.426 330.654 363.591C331.063 363.761 331.577 363.847 332.197 363.847C333.072 363.847 333.796 363.634 334.37 363.207C334.944 362.787 335.231 362.094 335.231 361.128V358.648H335.077C334.918 358.966 334.685 359.293 334.379 359.628C334.077 359.963 333.677 360.244 333.177 360.472C332.683 360.699 332.06 360.812 331.31 360.812C330.305 360.812 329.393 360.577 328.575 360.105C327.762 359.628 327.114 358.918 326.631 357.974C326.154 357.026 325.915 355.838 325.915 354.412C325.915 352.974 326.154 351.761 326.631 350.773C327.114 349.778 327.765 349.026 328.583 348.514C329.401 347.997 330.313 347.739 331.319 347.739C332.086 347.739 332.717 347.869 333.211 348.131C333.711 348.386 334.109 348.696 334.404 349.06C334.7 349.418 334.924 349.756 335.077 350.074H335.248V347.909H338.29V361.213C338.29 362.332 338.023 363.259 337.489 363.991C336.955 364.724 336.225 365.273 335.299 365.636C334.373 366 333.322 366.182 332.146 366.182ZM332.171 358.392C332.825 358.392 333.381 358.233 333.842 357.915C334.302 357.597 334.651 357.139 334.89 356.543C335.129 355.946 335.248 355.23 335.248 354.395C335.248 353.571 335.129 352.849 334.89 352.23C334.657 351.611 334.31 351.131 333.85 350.79C333.396 350.443 332.836 350.27 332.171 350.27C331.484 350.27 330.91 350.449 330.45 350.807C329.989 351.165 329.643 351.656 329.41 352.281C329.177 352.901 329.06 353.605 329.06 354.395C329.06 355.196 329.177 355.898 329.41 356.5C329.648 357.097 329.998 357.562 330.458 357.898C330.924 358.227 331.495 358.392 332.171 358.392ZM353.636 361.239C352.408 361.239 351.317 361.028 350.363 360.608C349.414 360.187 348.664 359.602 348.113 358.852C347.562 358.102 347.269 357.236 347.235 356.253H350.44C350.468 356.724 350.624 357.136 350.908 357.489C351.192 357.835 351.57 358.105 352.042 358.298C352.513 358.491 353.042 358.588 353.627 358.588C354.252 358.588 354.806 358.48 355.289 358.264C355.772 358.043 356.15 357.736 356.423 357.344C356.695 356.952 356.829 356.5 356.823 355.989C356.829 355.46 356.692 354.994 356.414 354.591C356.136 354.187 355.732 353.872 355.204 353.645C354.681 353.418 354.05 353.304 353.312 353.304H351.769V350.866H353.312C353.92 350.866 354.451 350.761 354.906 350.551C355.366 350.341 355.727 350.045 355.988 349.665C356.249 349.278 356.377 348.832 356.371 348.327C356.377 347.832 356.266 347.403 356.039 347.04C355.817 346.67 355.502 346.384 355.093 346.179C354.69 345.974 354.215 345.872 353.67 345.872C353.136 345.872 352.641 345.969 352.187 346.162C351.732 346.355 351.366 346.631 351.087 346.989C350.809 347.341 350.661 347.761 350.644 348.25H347.602C347.624 347.273 347.906 346.415 348.445 345.676C348.991 344.932 349.718 344.352 350.627 343.938C351.536 343.517 352.556 343.307 353.687 343.307C354.852 343.307 355.863 343.526 356.721 343.963C357.585 344.395 358.252 344.977 358.724 345.71C359.195 346.443 359.431 347.253 359.431 348.139C359.437 349.122 359.147 349.946 358.562 350.611C357.982 351.276 357.221 351.71 356.278 351.915V352.051C357.505 352.222 358.445 352.676 359.099 353.415C359.758 354.148 360.085 355.06 360.079 356.151C360.079 357.128 359.8 358.003 359.244 358.776C358.692 359.543 357.931 360.145 356.96 360.582C355.994 361.02 354.886 361.239 353.636 361.239Z" fill="#1A1A1A"/>
<path d="M505.656 310V308.594L510.937 302.812C511.557 302.135 512.068 301.547 512.469 301.047C512.87 300.542 513.167 300.068 513.359 299.625C513.557 299.177 513.656 298.708 513.656 298.219C513.656 297.656 513.521 297.169 513.25 296.758C512.984 296.346 512.62 296.029 512.156 295.805C511.693 295.581 511.172 295.469 510.594 295.469C509.979 295.469 509.443 295.596 508.984 295.852C508.531 296.102 508.18 296.453 507.93 296.906C507.685 297.359 507.563 297.891 507.563 298.5H505.719C505.719 297.562 505.935 296.74 506.367 296.031C506.799 295.323 507.388 294.771 508.133 294.375C508.883 293.979 509.724 293.781 510.656 293.781C511.594 293.781 512.424 293.979 513.148 294.375C513.872 294.771 514.44 295.305 514.852 295.977C515.263 296.648 515.469 297.396 515.469 298.219C515.469 298.807 515.362 299.383 515.148 299.945C514.94 300.503 514.576 301.125 514.055 301.812C513.539 302.495 512.823 303.328 511.906 304.312L508.313 308.156V308.281H515.75V310H505.656ZM524.289 310.219C523.633 310.208 522.977 310.083 522.32 309.844C521.664 309.604 521.065 309.201 520.523 308.633C519.982 308.06 519.547 307.286 519.219 306.312C518.891 305.333 518.727 304.104 518.727 302.625C518.727 301.208 518.859 299.953 519.125 298.859C519.391 297.76 519.776 296.836 520.281 296.086C520.786 295.331 521.396 294.758 522.109 294.367C522.828 293.977 523.638 293.781 524.539 293.781C525.435 293.781 526.232 293.961 526.93 294.32C527.633 294.674 528.206 295.169 528.648 295.805C529.091 296.44 529.378 297.172 529.508 298H527.602C527.424 297.281 527.081 296.685 526.57 296.211C526.06 295.737 525.383 295.5 524.539 295.5C523.299 295.5 522.323 296.039 521.609 297.117C520.901 298.195 520.544 299.708 520.539 301.656H520.664C520.956 301.214 521.302 300.836 521.703 300.523C522.109 300.206 522.557 299.961 523.047 299.789C523.536 299.617 524.055 299.531 524.602 299.531C525.518 299.531 526.357 299.76 527.117 300.219C527.878 300.672 528.487 301.299 528.945 302.102C529.404 302.898 529.633 303.812 529.633 304.844C529.633 305.833 529.411 306.74 528.969 307.562C528.526 308.38 527.904 309.031 527.102 309.516C526.305 309.995 525.367 310.229 524.289 310.219ZM524.289 308.5C524.945 308.5 525.534 308.336 526.055 308.008C526.581 307.68 526.995 307.24 527.297 306.687C527.604 306.135 527.758 305.521 527.758 304.844C527.758 304.182 527.609 303.581 527.313 303.039C527.021 302.492 526.617 302.057 526.102 301.734C525.591 301.411 525.008 301.25 524.352 301.25C523.857 301.25 523.396 301.349 522.969 301.547C522.542 301.74 522.167 302.005 521.844 302.344C521.526 302.682 521.276 303.07 521.094 303.508C520.911 303.94 520.82 304.396 520.82 304.875C520.82 305.51 520.969 306.104 521.266 306.656C521.568 307.208 521.979 307.654 522.5 307.992C523.026 308.331 523.622 308.5 524.289 308.5ZM532.736 314.5V298H534.518V299.906H534.736C534.872 299.698 535.059 299.432 535.299 299.109C535.544 298.781 535.893 298.49 536.346 298.234C536.804 297.974 537.424 297.844 538.205 297.844C539.215 297.844 540.106 298.096 540.877 298.602C541.648 299.107 542.249 299.823 542.682 300.75C543.114 301.677 543.33 302.771 543.33 304.031C543.33 305.302 543.114 306.404 542.682 307.336C542.249 308.263 541.65 308.982 540.885 309.492C540.119 309.997 539.236 310.25 538.236 310.25C537.465 310.25 536.848 310.122 536.385 309.867C535.921 309.607 535.564 309.312 535.314 308.984C535.064 308.651 534.872 308.375 534.736 308.156H534.58V314.5H532.736ZM534.549 304C534.549 304.906 534.682 305.706 534.947 306.398C535.213 307.086 535.601 307.625 536.111 308.016C536.622 308.401 537.247 308.594 537.986 308.594C538.757 308.594 539.4 308.391 539.916 307.984C540.437 307.573 540.827 307.021 541.088 306.328C541.354 305.63 541.486 304.854 541.486 304C541.486 303.156 541.356 302.396 541.096 301.719C540.84 301.036 540.452 300.497 539.932 300.102C539.416 299.701 538.768 299.5 537.986 299.5C537.236 299.5 536.606 299.69 536.096 300.07C535.585 300.445 535.2 300.971 534.939 301.648C534.679 302.32 534.549 303.104 534.549 304ZM547.023 298L549.898 302.906L552.773 298H554.898L551.023 304L554.898 310H552.773L549.898 305.344L547.023 310H544.898L548.711 304L544.898 298H547.023Z" fill="#1A1A1A"/>
<path d="M505.656 361V359.594L510.937 353.812C511.557 353.135 512.068 352.547 512.469 352.047C512.87 351.542 513.167 351.068 513.359 350.625C513.557 350.177 513.656 349.708 513.656 349.219C513.656 348.656 513.521 348.169 513.25 347.758C512.984 347.346 512.62 347.029 512.156 346.805C511.693 346.581 511.172 346.469 510.594 346.469C509.979 346.469 509.443 346.596 508.984 346.852C508.531 347.102 508.18 347.453 507.93 347.906C507.685 348.359 507.563 348.891 507.563 349.5H505.719C505.719 348.562 505.935 347.74 506.367 347.031C506.799 346.323 507.388 345.771 508.133 345.375C508.883 344.979 509.724 344.781 510.656 344.781C511.594 344.781 512.424 344.979 513.148 345.375C513.872 345.771 514.44 346.305 514.852 346.977C515.263 347.648 515.469 348.396 515.469 349.219C515.469 349.807 515.362 350.383 515.148 350.945C514.94 351.503 514.576 352.125 514.055 352.812C513.539 353.495 512.823 354.328 511.906 355.312L508.313 359.156V359.281H515.75V361H505.656ZM518.258 357.719V356.125L525.289 345H526.445V347.469H525.664L520.352 355.875V356H529.82V357.719H518.258ZM525.789 361V357.234V356.492V345H527.633V361H525.789ZM532.779 365.5V349H534.561V350.906H534.779C534.915 350.698 535.102 350.432 535.342 350.109C535.587 349.781 535.936 349.49 536.389 349.234C536.847 348.974 537.467 348.844 538.248 348.844C539.258 348.844 540.149 349.096 540.92 349.602C541.691 350.107 542.292 350.823 542.725 351.75C543.157 352.677 543.373 353.771 543.373 355.031C543.373 356.302 543.157 357.404 542.725 358.336C542.292 359.263 541.693 359.982 540.928 360.492C540.162 360.997 539.279 361.25 538.279 361.25C537.508 361.25 536.891 361.122 536.428 360.867C535.964 360.607 535.607 360.312 535.357 359.984C535.107 359.651 534.915 359.375 534.779 359.156H534.623V365.5H532.779ZM534.592 355C534.592 355.906 534.725 356.706 534.99 357.398C535.256 358.086 535.644 358.625 536.154 359.016C536.665 359.401 537.29 359.594 538.029 359.594C538.8 359.594 539.443 359.391 539.959 358.984C540.48 358.573 540.87 358.021 541.131 357.328C541.396 356.63 541.529 355.854 541.529 355C541.529 354.156 541.399 353.396 541.139 352.719C540.883 352.036 540.495 351.497 539.975 351.102C539.459 350.701 538.811 350.5 538.029 350.5C537.279 350.5 536.649 350.69 536.139 351.07C535.628 351.445 535.243 351.971 534.982 352.648C534.722 353.32 534.592 354.104 534.592 355ZM547.066 349L549.941 353.906L552.816 349H554.941L551.066 355L554.941 361H552.816L549.941 356.344L547.066 361H544.941L548.754 355L544.941 349H547.066Z" fill="#1A1A1A"/>
<path d="M245.114 464V446.545H251.216C252.432 446.545 253.435 446.756 254.224 447.176C255.014 447.591 255.602 448.151 255.989 448.855C256.375 449.554 256.568 450.33 256.568 451.182C256.568 451.932 256.435 452.551 256.168 453.04C255.906 453.528 255.56 453.915 255.128 454.199C254.702 454.483 254.239 454.693 253.739 454.83V455C254.273 455.034 254.81 455.222 255.349 455.562C255.889 455.903 256.341 456.392 256.705 457.028C257.068 457.665 257.25 458.443 257.25 459.364C257.25 460.239 257.051 461.026 256.653 461.724C256.256 462.423 255.628 462.977 254.77 463.386C253.912 463.795 252.795 464 251.42 464H245.114ZM247.227 462.125H251.42C252.801 462.125 253.781 461.858 254.361 461.324C254.946 460.784 255.239 460.131 255.239 459.364C255.239 458.773 255.088 458.227 254.787 457.727C254.486 457.222 254.057 456.818 253.5 456.517C252.943 456.21 252.284 456.057 251.523 456.057H247.227V462.125ZM247.227 454.216H251.148C251.784 454.216 252.358 454.091 252.869 453.841C253.386 453.591 253.795 453.239 254.097 452.784C254.403 452.33 254.557 451.795 254.557 451.182C254.557 450.415 254.29 449.764 253.756 449.23C253.222 448.69 252.375 448.42 251.216 448.42H247.227V454.216ZM265.768 464.273C264.587 464.273 263.55 463.991 262.658 463.429C261.771 462.866 261.078 462.08 260.578 461.068C260.084 460.057 259.837 458.875 259.837 457.523C259.837 456.159 260.084 454.969 260.578 453.952C261.078 452.935 261.771 452.145 262.658 451.582C263.55 451.02 264.587 450.739 265.768 450.739C266.95 450.739 267.984 451.02 268.871 451.582C269.763 452.145 270.456 452.935 270.95 453.952C271.45 454.969 271.7 456.159 271.7 457.523C271.7 458.875 271.45 460.057 270.95 461.068C270.456 462.08 269.763 462.866 268.871 463.429C267.984 463.991 266.95 464.273 265.768 464.273ZM265.768 462.466C266.666 462.466 267.405 462.236 267.984 461.776C268.564 461.315 268.993 460.71 269.271 459.96C269.55 459.21 269.689 458.398 269.689 457.523C269.689 456.648 269.55 455.832 269.271 455.077C268.993 454.321 268.564 453.71 267.984 453.244C267.405 452.778 266.666 452.545 265.768 452.545C264.871 452.545 264.132 452.778 263.553 453.244C262.973 453.71 262.544 454.321 262.266 455.077C261.987 455.832 261.848 456.648 261.848 457.523C261.848 458.398 261.987 459.21 262.266 459.96C262.544 460.71 262.973 461.315 263.553 461.776C264.132 462.236 264.871 462.466 265.768 462.466ZM279.714 464.273C278.623 464.273 277.66 463.997 276.825 463.446C275.989 462.889 275.336 462.105 274.864 461.094C274.393 460.077 274.157 458.875 274.157 457.489C274.157 456.114 274.393 454.92 274.864 453.909C275.336 452.898 275.992 452.116 276.833 451.565C277.674 451.014 278.646 450.739 279.748 450.739C280.6 450.739 281.273 450.881 281.768 451.165C282.268 451.443 282.648 451.761 282.91 452.119C283.177 452.472 283.384 452.761 283.532 452.989H283.702V446.545H285.714V464H283.771V461.989H283.532C283.384 462.227 283.174 462.528 282.901 462.892C282.629 463.25 282.239 463.571 281.734 463.855C281.228 464.134 280.555 464.273 279.714 464.273ZM279.987 462.466C280.793 462.466 281.475 462.256 282.032 461.835C282.589 461.409 283.012 460.821 283.302 460.071C283.592 459.315 283.737 458.443 283.737 457.455C283.737 456.477 283.594 455.622 283.31 454.889C283.026 454.151 282.606 453.577 282.049 453.168C281.492 452.753 280.805 452.545 279.987 452.545C279.134 452.545 278.424 452.764 277.856 453.202C277.293 453.634 276.87 454.222 276.586 454.966C276.308 455.705 276.168 456.534 276.168 457.455C276.168 458.386 276.31 459.233 276.594 459.994C276.884 460.75 277.31 461.352 277.873 461.801C278.441 462.244 279.146 462.466 279.987 462.466ZM290.972 468.909C290.631 468.909 290.327 468.881 290.06 468.824C289.793 468.773 289.609 468.722 289.506 468.67L290.018 466.898C290.506 467.023 290.938 467.068 291.313 467.034C291.688 467 292.021 466.832 292.31 466.531C292.606 466.236 292.876 465.756 293.12 465.091L293.495 464.068L288.654 450.909H290.836L294.45 461.341H294.586L298.2 450.909H300.381L294.825 465.909C294.575 466.585 294.265 467.145 293.896 467.588C293.526 468.037 293.097 468.369 292.609 468.585C292.126 468.801 291.58 468.909 290.972 468.909ZM309.752 464V462.466L315.513 456.159C316.19 455.42 316.746 454.778 317.184 454.233C317.621 453.682 317.945 453.165 318.156 452.682C318.371 452.193 318.479 451.682 318.479 451.148C318.479 450.534 318.332 450.003 318.036 449.554C317.746 449.105 317.349 448.759 316.843 448.514C316.337 448.27 315.769 448.148 315.138 448.148C314.468 448.148 313.883 448.287 313.383 448.565C312.888 448.838 312.505 449.222 312.232 449.716C311.965 450.21 311.832 450.79 311.832 451.455H309.82C309.82 450.432 310.056 449.534 310.528 448.761C310.999 447.989 311.641 447.386 312.454 446.955C313.272 446.523 314.19 446.307 315.207 446.307C316.229 446.307 317.136 446.523 317.925 446.955C318.715 447.386 319.335 447.969 319.783 448.702C320.232 449.435 320.457 450.25 320.457 451.148C320.457 451.79 320.34 452.418 320.107 453.031C319.88 453.639 319.482 454.318 318.914 455.068C318.352 455.812 317.57 456.722 316.57 457.795L312.65 461.989V462.125H320.763V464H309.752Z" fill="#1A1A1A"/>
<path d="M245.29 413V394.091H251.901C253.218 394.091 254.304 394.319 255.16 394.774C256.015 395.223 256.652 395.83 257.071 396.593C257.49 397.35 257.699 398.19 257.699 399.114C257.699 399.926 257.554 400.597 257.265 401.126C256.982 401.656 256.606 402.074 256.138 402.382C255.677 402.69 255.175 402.918 254.634 403.065V403.25C255.212 403.287 255.794 403.49 256.379 403.859C256.963 404.229 257.453 404.758 257.847 405.447C258.241 406.137 258.438 406.98 258.438 407.977C258.438 408.925 258.222 409.778 257.791 410.535C257.36 411.292 256.68 411.892 255.751 412.335C254.821 412.778 253.612 413 252.122 413H245.29ZM247.58 410.969H252.122C253.618 410.969 254.68 410.679 255.308 410.101C255.942 409.516 256.259 408.808 256.259 407.977C256.259 407.337 256.095 406.746 255.769 406.205C255.443 405.657 254.978 405.22 254.375 404.893C253.772 404.561 253.058 404.395 252.233 404.395H247.58V410.969ZM247.58 402.401H251.827C252.516 402.401 253.138 402.265 253.692 401.994C254.252 401.723 254.695 401.342 255.021 400.849C255.354 400.357 255.52 399.778 255.52 399.114C255.52 398.283 255.231 397.578 254.652 396.999C254.073 396.415 253.156 396.122 251.901 396.122H247.58V402.401ZM267.666 413.295C266.386 413.295 265.262 412.991 264.296 412.381C263.336 411.772 262.585 410.92 262.043 409.824C261.507 408.728 261.24 407.448 261.24 405.983C261.24 404.506 261.507 403.216 262.043 402.114C262.585 401.013 263.336 400.157 264.296 399.548C265.262 398.938 266.386 398.634 267.666 398.634C268.946 398.634 270.066 398.938 271.027 399.548C271.993 400.157 272.744 401.013 273.279 402.114C273.821 403.216 274.092 404.506 274.092 405.983C274.092 407.448 273.821 408.728 273.279 409.824C272.744 410.92 271.993 411.772 271.027 412.381C270.066 412.991 268.946 413.295 267.666 413.295ZM267.666 411.338C268.638 411.338 269.439 411.089 270.066 410.59C270.694 410.092 271.159 409.436 271.461 408.624C271.762 407.811 271.913 406.931 271.913 405.983C271.913 405.035 271.762 404.152 271.461 403.333C271.159 402.514 270.694 401.853 270.066 401.348C269.439 400.843 268.638 400.591 267.666 400.591C266.693 400.591 265.893 400.843 265.265 401.348C264.637 401.853 264.173 402.514 263.871 403.333C263.569 404.152 263.419 405.035 263.419 405.983C263.419 406.931 263.569 407.811 263.871 408.624C264.173 409.436 264.637 410.092 265.265 410.59C265.893 411.089 266.693 411.338 267.666 411.338ZM282.773 413.295C281.591 413.295 280.548 412.997 279.643 412.4C278.738 411.797 278.031 410.947 277.52 409.852C277.009 408.75 276.753 407.448 276.753 405.946C276.753 404.456 277.009 403.164 277.52 402.068C278.031 400.973 278.742 400.126 279.653 399.529C280.564 398.932 281.616 398.634 282.81 398.634C283.733 398.634 284.463 398.787 284.998 399.095C285.54 399.397 285.952 399.741 286.236 400.129C286.525 400.511 286.75 400.825 286.91 401.071H287.094V394.091H289.273V413H287.168V410.821H286.91C286.75 411.08 286.522 411.406 286.226 411.8C285.931 412.187 285.509 412.535 284.961 412.843C284.414 413.145 283.684 413.295 282.773 413.295ZM283.069 411.338C283.943 411.338 284.681 411.11 285.285 410.655C285.888 410.193 286.346 409.556 286.66 408.744C286.974 407.925 287.131 406.98 287.131 405.909C287.131 404.85 286.977 403.924 286.67 403.13C286.362 402.33 285.906 401.708 285.303 401.265C284.7 400.816 283.955 400.591 283.069 400.591C282.145 400.591 281.376 400.828 280.76 401.302C280.151 401.77 279.693 402.407 279.385 403.213C279.083 404.013 278.932 404.912 278.932 405.909C278.932 406.919 279.086 407.836 279.394 408.661C279.708 409.479 280.17 410.132 280.779 410.618C281.394 411.098 282.158 411.338 283.069 411.338ZM294.97 418.318C294.601 418.318 294.271 418.287 293.982 418.226C293.693 418.17 293.493 418.115 293.382 418.06L293.936 416.139C294.465 416.275 294.933 416.324 295.339 416.287C295.746 416.25 296.106 416.068 296.42 415.742C296.74 415.422 297.032 414.902 297.297 414.182L297.703 413.074L292.459 398.818H294.822L298.737 410.119H298.885L302.8 398.818H305.163L299.143 415.068C298.872 415.801 298.537 416.407 298.137 416.887C297.737 417.373 297.272 417.733 296.743 417.967C296.22 418.201 295.629 418.318 294.97 418.318ZM321.963 394.091V413H319.673V396.491H319.562L314.945 399.557V397.23L319.673 394.091H321.963Z" fill="#1A1A1A"/>
<path d="M505.656 464V462.594L510.937 456.812C511.557 456.135 512.068 455.547 512.469 455.047C512.87 454.542 513.167 454.068 513.359 453.625C513.557 453.177 513.656 452.708 513.656 452.219C513.656 451.656 513.521 451.169 513.25 450.758C512.984 450.346 512.62 450.029 512.156 449.805C511.693 449.581 511.172 449.469 510.594 449.469C509.979 449.469 509.443 449.596 508.984 449.852C508.531 450.102 508.18 450.453 507.93 450.906C507.685 451.359 507.563 451.891 507.563 452.5H505.719C505.719 451.562 505.935 450.74 506.367 450.031C506.799 449.323 507.388 448.771 508.133 448.375C508.883 447.979 509.724 447.781 510.656 447.781C511.594 447.781 512.424 447.979 513.148 448.375C513.872 448.771 514.44 449.305 514.852 449.977C515.263 450.648 515.469 451.396 515.469 452.219C515.469 452.807 515.362 453.383 515.148 453.945C514.94 454.503 514.576 455.125 514.055 455.812C513.539 456.495 512.823 457.328 511.906 458.312L508.313 462.156V462.281H515.75V464H505.656ZM518.258 460.719V459.125L525.289 448H526.445V450.469H525.664L520.352 458.875V459H529.82V460.719H518.258ZM525.789 464V460.234V459.492V448H527.633V464H525.789ZM532.779 468.5V452H534.561V453.906H534.779C534.915 453.698 535.102 453.432 535.342 453.109C535.587 452.781 535.936 452.49 536.389 452.234C536.847 451.974 537.467 451.844 538.248 451.844C539.258 451.844 540.149 452.096 540.92 452.602C541.691 453.107 542.292 453.823 542.725 454.75C543.157 455.677 543.373 456.771 543.373 458.031C543.373 459.302 543.157 460.404 542.725 461.336C542.292 462.263 541.693 462.982 540.928 463.492C540.162 463.997 539.279 464.25 538.279 464.25C537.508 464.25 536.891 464.122 536.428 463.867C535.964 463.607 535.607 463.312 535.357 462.984C535.107 462.651 534.915 462.375 534.779 462.156H534.623V468.5H532.779ZM534.592 458C534.592 458.906 534.725 459.706 534.99 460.398C535.256 461.086 535.644 461.625 536.154 462.016C536.665 462.401 537.29 462.594 538.029 462.594C538.8 462.594 539.443 462.391 539.959 461.984C540.48 461.573 540.87 461.021 541.131 460.328C541.396 459.63 541.529 458.854 541.529 458C541.529 457.156 541.399 456.396 541.139 455.719C540.883 455.036 540.495 454.497 539.975 454.102C539.459 453.701 538.811 453.5 538.029 453.5C537.279 453.5 536.649 453.69 536.139 454.07C535.628 454.445 535.243 454.971 534.982 455.648C534.722 456.32 534.592 457.104 534.592 458ZM547.066 452L549.941 456.906L552.816 452H554.941L551.066 458L554.941 464H552.816L549.941 459.344L547.066 464H544.941L548.754 458L544.941 452H547.066Z" fill="#1A1A1A"/>
<path d="M505.656 413V411.594L510.937 405.812C511.557 405.135 512.068 404.547 512.469 404.047C512.87 403.542 513.167 403.068 513.359 402.625C513.557 402.177 513.656 401.708 513.656 401.219C513.656 400.656 513.521 400.169 513.25 399.758C512.984 399.346 512.62 399.029 512.156 398.805C511.693 398.581 511.172 398.469 510.594 398.469C509.979 398.469 509.443 398.596 508.984 398.852C508.531 399.102 508.18 399.453 507.93 399.906C507.685 400.359 507.563 400.891 507.563 401.5H505.719C505.719 400.562 505.935 399.74 506.367 399.031C506.799 398.323 507.388 397.771 508.133 397.375C508.883 396.979 509.724 396.781 510.656 396.781C511.594 396.781 512.424 396.979 513.148 397.375C513.872 397.771 514.44 398.305 514.852 398.977C515.263 399.648 515.469 400.396 515.469 401.219C515.469 401.807 515.362 402.383 515.148 402.945C514.94 403.503 514.576 404.125 514.055 404.812C513.539 405.495 512.823 406.328 511.906 407.312L508.313 411.156V411.281H515.75V413H505.656ZM524.289 413.219C523.633 413.208 522.977 413.083 522.32 412.844C521.664 412.604 521.065 412.201 520.523 411.633C519.982 411.06 519.547 410.286 519.219 409.312C518.891 408.333 518.727 407.104 518.727 405.625C518.727 404.208 518.859 402.953 519.125 401.859C519.391 400.76 519.776 399.836 520.281 399.086C520.786 398.331 521.396 397.758 522.109 397.367C522.828 396.977 523.638 396.781 524.539 396.781C525.435 396.781 526.232 396.961 526.93 397.32C527.633 397.674 528.206 398.169 528.648 398.805C529.091 399.44 529.378 400.172 529.508 401H527.602C527.424 400.281 527.081 399.685 526.57 399.211C526.06 398.737 525.383 398.5 524.539 398.5C523.299 398.5 522.323 399.039 521.609 400.117C520.901 401.195 520.544 402.708 520.539 404.656H520.664C520.956 404.214 521.302 403.836 521.703 403.523C522.109 403.206 522.557 402.961 523.047 402.789C523.536 402.617 524.055 402.531 524.602 402.531C525.518 402.531 526.357 402.76 527.117 403.219C527.878 403.672 528.487 404.299 528.945 405.102C529.404 405.898 529.633 406.812 529.633 407.844C529.633 408.833 529.411 409.74 528.969 410.562C528.526 411.38 527.904 412.031 527.102 412.516C526.305 412.995 525.367 413.229 524.289 413.219ZM524.289 411.5C524.945 411.5 525.534 411.336 526.055 411.008C526.581 410.68 526.995 410.24 527.297 409.687C527.604 409.135 527.758 408.521 527.758 407.844C527.758 407.182 527.609 406.581 527.313 406.039C527.021 405.492 526.617 405.057 526.102 404.734C525.591 404.411 525.008 404.25 524.352 404.25C523.857 404.25 523.396 404.349 522.969 404.547C522.542 404.74 522.167 405.005 521.844 405.344C521.526 405.682 521.276 406.07 521.094 406.508C520.911 406.94 520.82 407.396 520.82 407.875C520.82 408.51 520.969 409.104 521.266 409.656C521.568 410.208 521.979 410.654 522.5 410.992C523.026 411.331 523.622 411.5 524.289 411.5ZM532.736 417.5V401H534.518V402.906H534.736C534.872 402.698 535.059 402.432 535.299 402.109C535.544 401.781 535.893 401.49 536.346 401.234C536.804 400.974 537.424 400.844 538.205 400.844C539.215 400.844 540.106 401.096 540.877 401.602C541.648 402.107 542.249 402.823 542.682 403.75C543.114 404.677 543.33 405.771 543.33 407.031C543.33 408.302 543.114 409.404 542.682 410.336C542.249 411.263 541.65 411.982 540.885 412.492C540.119 412.997 539.236 413.25 538.236 413.25C537.465 413.25 536.848 413.122 536.385 412.867C535.921 412.607 535.564 412.312 535.314 411.984C535.064 411.651 534.872 411.375 534.736 411.156H534.58V417.5H532.736ZM534.549 407C534.549 407.906 534.682 408.706 534.947 409.398C535.213 410.086 535.601 410.625 536.111 411.016C536.622 411.401 537.247 411.594 537.986 411.594C538.757 411.594 539.4 411.391 539.916 410.984C540.437 410.573 540.827 410.021 541.088 409.328C541.354 408.63 541.486 407.854 541.486 407C541.486 406.156 541.356 405.396 541.096 404.719C540.84 404.036 540.452 403.497 539.932 403.102C539.416 402.701 538.768 402.5 537.986 402.5C537.236 402.5 536.606 402.69 536.096 403.07C535.585 403.445 535.2 403.971 534.939 404.648C534.679 405.32 534.549 406.104 534.549 407ZM547.023 401L549.898 405.906L552.773 401H554.898L551.023 407L554.898 413H552.773L549.898 408.344L547.023 413H544.898L548.711 407L544.898 401H547.023Z" fill="#1A1A1A"/>
<path d="M256.466 500H254.705C254.6 499.493 254.418 499.048 254.158 498.665C253.902 498.281 253.589 497.959 253.22 497.699C252.856 497.434 252.451 497.235 252.006 497.102C251.561 496.97 251.097 496.903 250.614 496.903C249.733 496.903 248.935 497.126 248.22 497.571C247.51 498.016 246.944 498.672 246.523 499.538C246.106 500.405 245.898 501.468 245.898 502.727C245.898 503.987 246.106 505.05 246.523 505.916C246.944 506.783 247.51 507.438 248.22 507.884C248.935 508.329 249.733 508.551 250.614 508.551C251.097 508.551 251.561 508.485 252.006 508.352C252.451 508.22 252.856 508.023 253.22 507.763C253.589 507.498 253.902 507.173 254.158 506.79C254.418 506.402 254.6 505.956 254.705 505.455H256.466C256.333 506.198 256.092 506.863 255.741 507.45C255.391 508.037 254.955 508.537 254.435 508.949C253.914 509.356 253.329 509.666 252.68 509.879C252.036 510.092 251.348 510.199 250.614 510.199C249.373 510.199 248.27 509.896 247.304 509.29C246.338 508.684 245.578 507.822 245.024 506.705C244.47 505.587 244.193 504.261 244.193 502.727C244.193 501.193 244.47 499.867 245.024 498.75C245.578 497.633 246.338 496.771 247.304 496.165C248.27 495.559 249.373 495.256 250.614 495.256C251.348 495.256 252.036 495.362 252.68 495.575C253.329 495.788 253.914 496.101 254.435 496.513C254.955 496.92 255.391 497.417 255.741 498.004C256.092 498.587 256.333 499.252 256.466 500ZM262.295 510.256C261.604 510.256 260.976 510.125 260.413 509.865C259.85 509.6 259.402 509.219 259.071 508.722C258.739 508.22 258.574 507.614 258.574 506.903C258.574 506.278 258.697 505.772 258.943 505.384C259.189 504.991 259.518 504.683 259.93 504.46C260.342 504.238 260.797 504.072 261.294 503.963C261.796 503.849 262.3 503.759 262.806 503.693C263.469 503.608 264.007 503.544 264.419 503.501C264.835 503.454 265.138 503.376 265.328 503.267C265.522 503.158 265.619 502.969 265.619 502.699V502.642C265.619 501.941 265.427 501.397 265.044 501.009C264.665 500.62 264.09 500.426 263.318 500.426C262.518 500.426 261.89 500.601 261.436 500.952C260.981 501.302 260.662 501.676 260.477 502.074L258.886 501.506C259.17 500.843 259.549 500.327 260.022 499.957C260.501 499.583 261.021 499.323 261.585 499.176C262.153 499.025 262.712 498.949 263.261 498.949C263.611 498.949 264.014 498.991 264.468 499.077C264.928 499.157 265.37 499.325 265.797 499.581C266.227 499.837 266.585 500.223 266.869 500.739C267.153 501.255 267.295 501.946 267.295 502.812V510H265.619V508.523H265.534C265.42 508.759 265.231 509.013 264.966 509.283C264.7 509.553 264.348 509.782 263.907 509.972C263.467 510.161 262.93 510.256 262.295 510.256ZM262.551 508.75C263.214 508.75 263.772 508.62 264.227 508.359C264.686 508.099 265.032 507.763 265.264 507.351C265.501 506.939 265.619 506.506 265.619 506.051V504.517C265.548 504.602 265.392 504.68 265.15 504.751C264.913 504.818 264.639 504.877 264.326 504.929C264.019 504.976 263.718 505.019 263.424 505.057C263.136 505.09 262.901 505.118 262.721 505.142C262.286 505.199 261.878 505.291 261.5 505.419C261.126 505.542 260.823 505.729 260.591 505.98C260.363 506.226 260.25 506.562 260.25 506.989C260.25 507.571 260.465 508.011 260.896 508.31C261.332 508.603 261.883 508.75 262.551 508.75ZM270.354 514.091V499.091H271.974V500.824H272.173C272.296 500.634 272.466 500.393 272.684 500.099C272.906 499.801 273.224 499.536 273.636 499.304C274.052 499.067 274.616 498.949 275.326 498.949C276.245 498.949 277.054 499.179 277.755 499.638C278.456 500.097 279.003 500.748 279.396 501.591C279.789 502.434 279.985 503.428 279.985 504.574C279.985 505.729 279.789 506.731 279.396 507.578C279.003 508.421 278.458 509.074 277.762 509.538C277.066 509.998 276.263 510.227 275.354 510.227C274.654 510.227 274.093 510.111 273.671 509.879C273.25 509.643 272.925 509.375 272.698 509.077C272.471 508.774 272.296 508.523 272.173 508.324H272.031V514.091H270.354ZM272.002 504.545C272.002 505.369 272.123 506.096 272.364 506.726C272.606 507.351 272.959 507.841 273.423 508.196C273.887 508.546 274.455 508.722 275.127 508.722C275.828 508.722 276.413 508.537 276.881 508.168C277.355 507.794 277.71 507.292 277.947 506.662C278.188 506.027 278.309 505.322 278.309 504.545C278.309 503.778 278.191 503.087 277.954 502.472C277.722 501.851 277.369 501.361 276.896 501.001C276.427 500.637 275.837 500.455 275.127 500.455C274.445 500.455 273.872 500.627 273.408 500.973C272.944 501.314 272.594 501.792 272.357 502.408C272.121 503.018 272.002 503.731 272.002 504.545ZM287.286 499.091V500.511H281.633V499.091H287.286ZM283.281 496.477H284.957V506.875C284.957 507.348 285.025 507.704 285.163 507.94C285.305 508.172 285.485 508.329 285.702 508.409C285.925 508.485 286.159 508.523 286.406 508.523C286.59 508.523 286.742 508.513 286.86 508.494C286.978 508.471 287.073 508.452 287.144 508.438L287.485 509.943C287.371 509.986 287.213 510.028 287.009 510.071C286.806 510.118 286.548 510.142 286.235 510.142C285.762 510.142 285.298 510.04 284.843 509.837C284.393 509.633 284.019 509.323 283.721 508.906C283.427 508.49 283.281 507.964 283.281 507.33V496.477ZM289.808 510V499.091H291.484V510H289.808ZM290.66 497.273C290.333 497.273 290.051 497.161 289.815 496.939C289.583 496.716 289.467 496.449 289.467 496.136C289.467 495.824 289.583 495.556 289.815 495.334C290.051 495.111 290.333 495 290.66 495C290.987 495 291.266 495.111 291.498 495.334C291.735 495.556 291.853 495.824 291.853 496.136C291.853 496.449 291.735 496.716 291.498 496.939C291.266 497.161 290.987 497.273 290.66 497.273ZM298.985 510.227C298.001 510.227 297.136 509.993 296.393 509.524C295.654 509.055 295.077 508.4 294.66 507.557C294.248 506.714 294.042 505.729 294.042 504.602C294.042 503.466 294.248 502.474 294.66 501.626C295.077 500.779 295.654 500.121 296.393 499.652C297.136 499.183 298.001 498.949 298.985 498.949C299.97 498.949 300.832 499.183 301.571 499.652C302.314 500.121 302.892 500.779 303.304 501.626C303.72 502.474 303.929 503.466 303.929 504.602C303.929 505.729 303.72 506.714 303.304 507.557C302.892 508.4 302.314 509.055 301.571 509.524C300.832 509.993 299.97 510.227 298.985 510.227ZM298.985 508.722C299.734 508.722 300.349 508.53 300.832 508.146C301.315 507.763 301.672 507.259 301.904 506.634C302.136 506.009 302.252 505.331 302.252 504.602C302.252 503.873 302.136 503.194 301.904 502.564C301.672 501.934 301.315 501.425 300.832 501.037C300.349 500.649 299.734 500.455 298.985 500.455C298.237 500.455 297.622 500.649 297.139 501.037C296.656 501.425 296.298 501.934 296.066 502.564C295.834 503.194 295.718 503.873 295.718 504.602C295.718 505.331 295.834 506.009 296.066 506.634C296.298 507.259 296.656 507.763 297.139 508.146C297.622 508.53 298.237 508.722 298.985 508.722ZM308.163 503.438V510H306.487V499.091H308.107V500.795H308.249C308.504 500.241 308.893 499.796 309.413 499.46C309.934 499.119 310.607 498.949 311.43 498.949C312.169 498.949 312.815 499.1 313.369 499.403C313.923 499.702 314.354 500.156 314.662 500.767C314.97 501.373 315.124 502.14 315.124 503.068V510H313.447V503.182C313.447 502.325 313.225 501.657 312.78 501.179C312.335 500.696 311.724 500.455 310.947 500.455C310.412 500.455 309.934 500.571 309.513 500.803C309.096 501.035 308.767 501.373 308.526 501.818C308.284 502.263 308.163 502.803 308.163 503.438Z" fill="#1A1A1A"/>
<path d="M505.656 510V508.594L510.937 502.812C511.557 502.135 512.068 501.547 512.469 501.047C512.87 500.542 513.167 500.068 513.359 499.625C513.557 499.177 513.656 498.708 513.656 498.219C513.656 497.656 513.521 497.169 513.25 496.758C512.984 496.346 512.62 496.029 512.156 495.805C511.693 495.581 511.172 495.469 510.594 495.469C509.979 495.469 509.443 495.596 508.984 495.852C508.531 496.102 508.18 496.453 507.93 496.906C507.685 497.359 507.563 497.891 507.563 498.5H505.719C505.719 497.562 505.935 496.74 506.367 496.031C506.799 495.323 507.388 494.771 508.133 494.375C508.883 493.979 509.724 493.781 510.656 493.781C511.594 493.781 512.424 493.979 513.148 494.375C513.872 494.771 514.44 495.305 514.852 495.977C515.263 496.648 515.469 497.396 515.469 498.219C515.469 498.807 515.362 499.383 515.148 499.945C514.94 500.503 514.576 501.125 514.055 501.812C513.539 502.495 512.823 503.328 511.906 504.312L508.313 508.156V508.281H515.75V510H505.656ZM524.195 510.219C523.018 510.219 522.016 509.898 521.188 509.258C520.359 508.612 519.727 507.677 519.289 506.453C518.852 505.224 518.633 503.74 518.633 502C518.633 500.271 518.852 498.794 519.289 497.57C519.732 496.341 520.367 495.404 521.195 494.758C522.029 494.107 523.029 493.781 524.195 493.781C525.362 493.781 526.359 494.107 527.188 494.758C528.021 495.404 528.656 496.341 529.094 497.57C529.536 498.794 529.758 500.271 529.758 502C529.758 503.74 529.539 505.224 529.102 506.453C528.664 507.677 528.031 508.612 527.203 509.258C526.375 509.898 525.372 510.219 524.195 510.219ZM524.195 508.5C525.362 508.5 526.268 507.937 526.914 506.812C527.56 505.687 527.883 504.083 527.883 502C527.883 500.615 527.734 499.435 527.438 498.461C527.146 497.487 526.724 496.745 526.172 496.234C525.625 495.724 524.966 495.469 524.195 495.469C523.039 495.469 522.135 496.039 521.484 497.18C520.833 498.315 520.508 499.922 520.508 502C520.508 503.385 520.654 504.562 520.945 505.531C521.237 506.5 521.656 507.237 522.203 507.742C522.755 508.247 523.419 508.5 524.195 508.5ZM532.758 514.5V498H534.539V499.906H534.758C534.893 499.698 535.081 499.432 535.32 499.109C535.565 498.781 535.914 498.49 536.367 498.234C536.826 497.974 537.445 497.844 538.227 497.844C539.237 497.844 540.128 498.096 540.898 498.602C541.669 499.107 542.271 499.823 542.703 500.75C543.135 501.677 543.352 502.771 543.352 504.031C543.352 505.302 543.135 506.404 542.703 507.336C542.271 508.263 541.672 508.982 540.906 509.492C540.141 509.997 539.258 510.25 538.258 510.25C537.487 510.25 536.87 510.122 536.406 509.867C535.943 509.607 535.586 509.312 535.336 508.984C535.086 508.651 534.893 508.375 534.758 508.156H534.602V514.5H532.758ZM534.57 504C534.57 504.906 534.703 505.706 534.969 506.398C535.234 507.086 535.622 507.625 536.133 508.016C536.643 508.401 537.268 508.594 538.008 508.594C538.779 508.594 539.422 508.391 539.938 507.984C540.458 507.573 540.849 507.021 541.109 506.328C541.375 505.63 541.508 504.854 541.508 504C541.508 503.156 541.378 502.396 541.117 501.719C540.862 501.036 540.474 500.497 539.953 500.102C539.438 499.701 538.789 499.5 538.008 499.5C537.258 499.5 536.628 499.69 536.117 500.07C535.607 500.445 535.221 500.971 534.961 501.648C534.701 502.32 534.57 503.104 534.57 504ZM547.045 498L549.92 502.906L552.795 498H554.92L551.045 504L554.92 510H552.795L549.92 505.344L547.045 510H544.92L548.732 504L544.92 498H547.045Z" fill="#1A1A1A"/>
</svg>
